<svg width="66" height="61" viewBox="0 0 66 61" fill="none" xmlns="http://www.w3.org/2000/svg">
<path d="M39.8371 20.6304C39.8371 20.6304 49.3771 12.4604 59.4671 23.1604C65.2571 29.3104 65.967 43.1504 58.797 51.5904C51.167 60.5604 37.047 60.3504 31.687 52.3804C32.177 53.1104 23.9871 55.5104 23.2271 55.5904C18.9871 56.0504 10.9071 55.7504 6.21706 49.9804C-1.35294 40.6704 1.80703 25.6304 11.557 17.3604C17.057 12.7004 23.8371 11.8204 29.6471 14.2004C30.5871 14.5904 40.5971 19.9804 39.8371 20.6304Z" fill="#FF6C7E" stroke="black" stroke-width="4" stroke-linecap="round" stroke-linejoin="round"/>
<path d="M39.8371 20.6304C39.8371 20.6304 39.3271 5.95037 46.7071 2.00037" stroke="black" stroke-width="4" stroke-linecap="round" stroke-linejoin="round"/>
</svg>
