<svg width="57" height="52" viewBox="0 0 57 52" fill="none" xmlns="http://www.w3.org/2000/svg">
<path d="M20.5892 13.5517C27.6092 -3.69831 51.7292 3.79169 54.1792 20.0417C55.6492 29.8017 45.8592 39.6517 35.8792 37.4617C35.9392 37.4717 34.3292 40.8017 34.2092 40.9917C32.6992 43.5417 30.6692 45.8517 28.1192 47.4017C13.4992 56.2517 0.399226 39.3817 2.15923 25.6817C2.63923 21.9217 4.09923 18.0517 6.96923 15.4417C8.53923 14.0117 10.4392 13.0817 12.5392 12.7117C13.3392 12.5717 20.7992 13.0217 20.5892 13.5617V13.5517Z" fill="#FF6C7E" stroke="black" stroke-width="4" stroke-linecap="round" stroke-linejoin="round"/>
<path d="M6.05908 2.00169C6.05908 2.00169 12.9491 1.59169 20.5891 13.5517" stroke="black" stroke-width="4" stroke-linecap="round" stroke-linejoin="round"/>
</svg>
