<svg width="131" height="127" viewBox="0 0 131 127" fill="none" xmlns="http://www.w3.org/2000/svg">
<path d="M2.92554 79.4989L23.2455 17.3589C23.2455 17.3589 29.6956 -2.65109 51.2956 3.00891L116.796 25.4889C116.796 25.4889 136.036 30.0989 125.346 57.0889C114.646 84.0689 104.916 114.189 104.916 114.189C104.916 114.189 97.8256 130.599 75.2656 122.439L18.6756 102.349C18.6756 102.349 -2.62445 96.4889 2.93555 79.4989H2.92554Z" fill="#B4D1C4" stroke="black" stroke-width="4" stroke-miterlimit="10"/>
<path d="M113.186 89.8389C104.886 73.3389 93.2858 51.5489 89.0658 49.7889C84.4758 47.8789 37.1358 60.4589 6.36579 68.9689L2.92579 79.4989C-2.63421 96.4989 18.6658 102.349 18.6658 102.349L75.2558 122.439C97.8158 130.599 104.906 114.189 104.906 114.189C104.906 114.189 108.256 103.819 113.176 89.8389H113.186Z" fill="#8DC6AB" stroke="black" stroke-width="4" stroke-miterlimit="10"/>
<path d="M48.8558 43.6989C55.1794 43.6989 60.3058 38.5726 60.3058 32.2489C60.3058 25.9252 55.1794 20.7989 48.8558 20.7989C42.5321 20.7989 37.4058 25.9252 37.4058 32.2489C37.4058 38.5726 42.5321 43.6989 48.8558 43.6989Z" fill="#E2E2E2" stroke="black" stroke-width="4" stroke-miterlimit="10"/>
</svg>
