<svg width="127" height="125" viewBox="0 0 127 125" fill="none" xmlns="http://www.w3.org/2000/svg">
<path d="M20.5461 111.092L2.7361 48.1918C2.7361 48.1918 -3.0839 27.9818 18.0061 20.6318L84.9061 2.74179C84.9061 2.74179 103.446 -4.16821 109.626 24.1918C115.806 52.5518 124.536 82.9718 124.536 82.9718C124.536 82.9718 127.806 100.542 104.536 106.362L46.3561 121.272C46.3561 121.272 25.4161 128.302 20.5361 111.092H20.5461Z" fill="#B4D1C4" stroke="black" stroke-width="4" stroke-miterlimit="10"/>
<path d="M117.816 58.1418C101.726 49.0818 79.9361 37.4718 75.4561 38.3718C70.5861 39.3418 38.3161 76.2018 17.5361 100.432L20.5561 111.092C25.4261 128.302 46.3761 121.272 46.3761 121.272L104.556 106.362C127.826 100.542 124.556 82.9718 124.556 82.9718C124.556 82.9718 121.556 72.5018 117.826 58.1418H117.816Z" fill="#8DC6AB" stroke="black" stroke-width="4" stroke-miterlimit="10"/>
<path d="M32.2859 57.7018C38.6096 57.7018 43.7359 52.5755 43.7359 46.2518C43.7359 39.9282 38.6096 34.8018 32.2859 34.8018C25.9623 34.8018 20.8359 39.9282 20.8359 46.2518C20.8359 52.5755 25.9623 57.7018 32.2859 57.7018Z" fill="#E2E2E2" stroke="black" stroke-width="4" stroke-miterlimit="10"/>
</svg>
