<svg width="76" height="70" viewBox="0 0 76 70" fill="none" xmlns="http://www.w3.org/2000/svg">
<path d="M38.7955 58.23L31.1255 62.4C31.1255 62.4 20.7455 67.65 13.1255 54.42C6.96549 43.72 -5.52451 28.95 8.17549 19.28C18.4255 12.05 30.5755 8.25001 42.1155 3.66001C51.6555 -0.139991 57.1155 2.61001 62.3055 11.46C65.8955 17.58 69.8355 24.17 72.6355 30.66C72.6355 30.66 75.8355 38.06 64.3455 44.33L53.8055 50.06L56.3355 67.33L38.7955 58.23Z" fill="#F7F7F7" stroke="black" stroke-width="4" stroke-linecap="round" stroke-linejoin="round"/>
<path d="M36.2355 30.8C36.2355 30.8 29.7155 23.5 23.3955 28.48C17.0755 33.46 28.7455 44.83 43.1555 43.53C43.1555 43.53 54.0855 25.26 47.4955 18.44C40.9155 11.62 36.2255 30.8 36.2255 30.8H36.2355Z" fill="#F7AABD"/>
</svg>
