<svg width="174" height="298" viewBox="0 0 174 298" fill="none" xmlns="http://www.w3.org/2000/svg">
<path d="M125.89 1.5H46.2702C24.4384 1.5 6.74023 19.1982 6.74023 41.03V256.3C6.74023 278.132 24.4384 295.83 46.2702 295.83H125.89C147.722 295.83 165.42 278.132 165.42 256.3V41.03C165.42 19.1982 147.722 1.5 125.89 1.5Z" stroke="black" stroke-width="3" stroke-linecap="round" stroke-linejoin="round"/>
<path d="M165.43 41.01V212.23C127.93 204.03 102.05 217.86 84.4098 238.03C68.6798 255.98 59.4598 278.98 54.3598 295.83H46.2498C24.4398 295.83 6.75977 278.15 6.75977 256.29V41.01C6.75977 19.2 24.4398 1.47 46.2498 1.47H125.9C147.71 1.47 165.44 19.2 165.44 41.01H165.43Z" fill="#85BFD6"/>
<path d="M165.43 41.01V193.7C145.71 192.37 118 186.03 105.68 162.05C85.51 122.82 39.46 106.03 30.82 75.31C24.22 51.82 26.88 18.49 48.68 1.47H125.89C147.7 1.47 165.43 19.2 165.43 41.01Z" fill="#AEE5B6"/>
<path d="M166.73 130.77H167.09C170.49 130.77 173.24 133.53 173.24 136.92V156.95C173.24 160.35 170.48 163.1 167.09 163.1H166.73V130.76V130.77Z" fill="black"/>
<path d="M5.11 72.98H6.09V94.58H5.11C2.29 94.58 0 92.29 0 89.47V78.08C0 75.26 2.29 72.97 5.11 72.97V72.98Z" fill="black"/>
<path d="M6.14999 99.07H6.50999V128.39H6.14999C2.74999 128.39 0 125.63 0 122.24V105.23C0 101.83 2.75999 99.08 6.14999 99.08V99.07Z" fill="black"/>
<path d="M6.14999 132.28H6.50999V161.6H6.14999C2.74999 161.6 0 158.84 0 155.45V138.44C0 135.04 2.75999 132.29 6.14999 132.29V132.28Z" fill="black"/>
<path d="M84.4098 238.03C68.6798 255.98 59.4598 278.98 54.3598 295.83H46.2498C24.4398 295.83 6.75977 278.15 6.75977 256.29V131.83C14.9198 124.61 24.7498 121.02 36.2798 125.23C59.5898 133.7 80.1598 187.15 84.4098 238.03Z" fill="#F7AABD"/>
<path d="M165.43 212.23V256.29C165.43 278.14 147.7 295.83 125.89 295.83H54.3501C59.4501 278.99 68.6701 255.98 84.4001 238.03C102.04 217.86 127.92 204.03 165.42 212.23H165.43Z" fill="#E5D8A1"/>
<path d="M125.9 5.48C145.49 5.48 161.44 21.42 161.44 41.02V256.29C161.44 275.88 145.5 291.83 125.9 291.83H46.2498C26.6798 291.83 10.7598 275.89 10.7598 256.29V41.01C10.7598 21.42 26.6798 5.47 46.2498 5.47H125.9M125.9 1.48H46.2498C24.4398 1.48 6.75977 19.21 6.75977 41.02V256.29C6.75977 278.14 24.4498 295.83 46.2498 295.83H125.9C147.71 295.83 165.44 278.15 165.44 256.29V41.01C165.44 19.2 147.71 1.47 125.9 1.47V1.48Z" fill="black"/>
<path d="M87.5101 55.64C87.5101 55.64 75.0301 53.72 62.0801 90.19C49.1201 126.66 31.3701 160.25 40.9701 159.77C50.5701 159.29 62.8801 148.65 62.8801 148.65C62.8801 148.65 27.8301 212.07 38.2401 213.99C48.6501 215.91 59.6901 191.44 59.6901 191.44C59.6901 191.44 32.3401 249.51 49.1301 249.51C65.9201 249.51 74.5601 216.88 74.5601 216.88C74.5601 216.88 75.5201 259.59 87.5201 258.15C99.5201 256.71 97.6001 218.32 97.6001 218.32C97.6001 218.32 111.04 255.27 125.91 249.51C140.79 243.75 140.31 209.2 110.55 179.93C110.55 179.93 131.18 199.61 135.5 191.93C139.82 184.25 104.31 117.87 104.31 117.87C104.31 117.87 126.86 144.97 132.62 137.02C138.38 129.07 122.06 54.21 87.5101 55.64Z" fill="#8CEACF" stroke="#2C9373" stroke-width="3" stroke-linecap="round" stroke-linejoin="round"/>
<path d="M113.8 245.83V266.79H67.2603V234.79C72.1403 226.15 74.5703 216.88 74.5703 216.88C74.5703 216.88 75.5003 259.61 87.5103 258.14C99.5203 256.72 97.5703 218.29 97.5703 218.29C97.5703 218.29 104.44 237.17 113.79 245.81L113.8 245.83Z" fill="#D6A380" stroke="#916243" stroke-width="3" stroke-linecap="round" stroke-linejoin="round"/>
<path d="M102.08 13.48H65.4898C60.8064 13.48 57.0098 17.2766 57.0098 21.96C57.0098 26.6434 60.8064 30.44 65.4898 30.44H102.08C106.763 30.44 110.56 26.6434 110.56 21.96C110.56 17.2766 106.763 13.48 102.08 13.48Z" fill="black"/>
<path d="M86.09 124.62C88.33 124.62 90.57 124.79 92.79 125.13C95.01 125.47 97.02 126.11 98.8 127.05C100.58 127.99 102.02 129.32 103.12 131.03C104.22 132.74 104.78 134.96 104.78 137.7C104.78 139.73 104.38 141.53 103.58 143.09C102.78 144.66 101.63 146.03 100.14 147.2C101.99 148.27 103.47 149.67 104.57 151.42C105.67 153.16 106.23 155.35 106.23 157.99C106.23 160.98 105.66 163.42 104.52 165.31C103.38 167.2 101.89 168.69 100.06 169.8C98.23 170.9 96.14 171.66 93.79 172.07C91.44 172.48 89.05 172.68 86.64 172.68H67.04V124.62H86.1H86.09ZM81.23 142.24H87.05C88.15 142.24 89.03 142.11 89.67 141.84C90.31 141.57 90.6301 140.92 90.6301 139.89C90.6301 139.04 90.34 138.45 89.75 138.13C89.16 137.81 88.26 137.65 87.05 137.65H81.23V142.24ZM81.23 159.87H88.12C88.65 159.87 89.17 159.84 89.67 159.79C90.17 159.74 90.61 159.62 90.98 159.44C91.35 159.26 91.65 159 91.86 158.67C92.07 158.33 92.18 157.86 92.18 157.25C92.18 156.22 91.81 155.56 91.09 155.27C90.36 154.99 89.3701 154.84 88.1301 154.84H81.24V159.86L81.23 159.87Z" fill="black"/>
</svg>
