<svg width="158" height="60" viewBox="0 0 158 60" fill="none" xmlns="http://www.w3.org/2000/svg">
<path d="M24.0047 31.4918C24.0047 31.4918 20.1847 24.4018 11.8447 25.9618C0.0547056 28.1718 -1.4153 44.7518 8.8947 50.6518C19.2047 56.5518 26.9447 43.6518 26.9447 43.6518C26.9447 43.6518 36.8947 58.0218 57.8947 57.6518C78.8947 57.2818 83.6847 43.2818 83.6847 43.2818C83.6847 43.2818 91.0547 52.1218 104.685 51.3918C118.315 50.6618 123.475 43.2818 123.475 43.2818C123.475 43.2818 133.795 53.9718 145.955 49.9118C158.115 45.8618 159.265 20.6518 144.115 16.3818C129.745 12.3318 125.695 24.4918 125.695 24.4918C125.695 24.4918 123.155 6.04181 104.695 4.59181C85.9047 3.12181 80.7447 14.5418 80.7447 14.5418C80.7447 14.5418 72.6347 -0.568187 47.5847 2.38181C22.5247 5.33181 24.0047 31.4918 24.0047 31.4918Z" fill="white" stroke="black" stroke-width="4" stroke-linecap="round" stroke-linejoin="round"/>
</svg>
