<svg width="101" height="53" viewBox="0 0 101 53" fill="none" xmlns="http://www.w3.org/2000/svg">
<path d="M25.7947 9.17446C25.7947 9.17446 7.66467 3.03446 2.09467 27.3045C2.09467 27.3045 0.144676 40.9645 13.9447 43.4745C13.9447 43.4745 21.8947 44.8645 25.7947 39.5745C25.7947 39.5745 26.9147 49.8945 45.0347 50.4545C63.1647 51.0145 65.9547 38.4645 65.9547 38.4645C65.9547 38.4645 75.1547 47.3845 83.8047 35.9545C83.8047 35.9545 93.5647 40.4145 97.1947 32.0545C100.825 23.6845 94.4047 11.1345 82.9747 20.8945C82.9747 20.8945 83.8147 10.0145 72.6547 10.0145C61.4947 10.0145 59.5447 15.8745 59.5447 15.8745C59.5447 15.8745 59.2647 3.88446 46.7147 2.21446C34.1647 0.544463 25.7947 9.18446 25.7947 9.18446V9.17446Z" fill="white" stroke="black" stroke-width="4" stroke-linecap="round" stroke-linejoin="round"/>
</svg>
