<svg width="275" height="123" viewBox="0 0 275 123" fill="none" xmlns="http://www.w3.org/2000/svg">
<path d="M257.547 120.641H25.1471C25.1471 120.641 21.2372 120.191 17.3172 117.031C14.0072 114.321 -3.15288 93.5511 20.0271 90.2411C13.3671 91.1911 3.63718 84.1411 2.33718 77.8311C-0.492823 64.0411 15.1172 60.9111 24.8372 64.9511C13.9472 60.4211 -0.382808 47.3811 4.22719 34.2111C11.0872 14.6011 36.1972 26.6811 47.7172 33.9411C47.7172 33.9411 45.9071 7.15115 77.5171 31.5311C77.5171 31.5311 69.6871 5.34113 100.397 14.0711C100.397 14.0711 114.547 17.9811 124.177 29.1211C124.177 29.1211 117.777 3.26115 144.417 2.03115C167.517 0.96115 178.057 27.9211 178.057 27.9211C178.057 27.9211 185.587 18.5911 196.717 21.9011C207.857 25.2111 208.757 42.6711 208.757 42.6711C208.757 42.6711 227.417 39.0611 233.137 66.1511C233.137 66.1511 254.507 60.7311 260.227 94.1511C260.227 94.1511 274.377 88.1311 272.867 104.391C271.357 120.651 257.517 120.651 257.517 120.651L257.547 120.641Z" fill="#68BC8C" stroke="black" stroke-width="4" stroke-linecap="round" stroke-linejoin="round"/>
</svg>
