<svg width="37" height="99" viewBox="0 0 37 99" fill="none" xmlns="http://www.w3.org/2000/svg">
<path d="M33.4714 43.3701L33.3314 38.5601C33.1614 32.5301 29.2814 27.9101 24.7814 28.3701L9.4414 29.9301C4.8314 30.4001 1.4614 35.9701 2.0714 42.0901L2.67138 48.0001L33.4614 43.3701H33.4714Z" fill="#DDC357" stroke="black" stroke-width="4" stroke-linecap="round" stroke-linejoin="round"/>
<path d="M6.6214 87.0501C7.1514 92.3001 10.4814 96.2201 14.4414 96.2601L26.5914 96.3801C31.1714 96.4301 34.8614 91.3301 34.6914 85.2101L6.42139 84.9301L6.63141 87.0601L6.6214 87.0501Z" fill="#DDC357" stroke="black" stroke-width="4" stroke-linecap="round" stroke-linejoin="round"/>
<path d="M33.4714 43.3701L2.67139 48.0001L6.4014 84.9301L34.6714 85.2101L33.4714 43.3701Z" fill="#E5D8A1" stroke="black" stroke-width="4" stroke-linecap="round" stroke-linejoin="round"/>
<path d="M20.2012 79.5811C21.7557 79.4841 22.6542 73.6099 22.2082 66.4606C21.7621 59.3114 20.1404 53.5944 18.586 53.6914C17.0316 53.7884 16.1331 59.6626 16.5791 66.8118C17.0251 73.9611 18.6468 79.6781 20.2012 79.5811Z" fill="#DDC357" stroke="black" stroke-width="4" stroke-linecap="round" stroke-linejoin="round"/>
<path d="M29.4116 29.7901C28.0616 28.7201 26.4716 28.1801 24.7716 28.3501L9.43161 29.9201C8.23161 30.0501 7.1216 30.5101 6.1416 31.2501L11.7616 8.41011C11.7616 8.41011 13.3016 1.9701 16.3916 2.0001C19.3116 2.0301 21.2916 8.3401 21.2916 8.3401L29.4116 29.7801V29.7901Z" fill="#E5D8A1" stroke="black" stroke-width="4" stroke-linecap="round" stroke-linejoin="round"/>
</svg>
