<svg width="56" height="93" viewBox="0 0 56 93" fill="none" xmlns="http://www.w3.org/2000/svg">
<path d="M8.23012 46.7834L6.07012 42.4834C3.35012 37.0934 4.57014 31.1934 8.75014 29.4534L22.9801 23.5334C27.2601 21.7534 32.8801 25.0534 35.2401 30.7334L37.5301 36.2234L8.24013 46.7834H8.23012Z" fill="#E28AA3" stroke="black" stroke-width="4" stroke-linecap="round" stroke-linejoin="round"/>
<path d="M52.6201 72.4634C54.6501 77.3334 53.5801 82.3634 50.1201 84.2834L39.4901 90.1634C35.4801 92.3834 29.8101 89.6534 27.0601 84.1834L51.8 70.5034L52.6201 72.4734V72.4634Z" fill="#E28AA3" stroke="black" stroke-width="4" stroke-linecap="round" stroke-linejoin="round"/>
<path d="M8.22998 46.7834L37.53 36.2234L51.8 70.4834L27.06 84.1734L8.22998 46.7834Z" fill="#F7AABD" stroke="black" stroke-width="4" stroke-linecap="round" stroke-linejoin="round"/>
<path d="M37.0753 72.3679C38.4891 71.7146 37.1995 65.9137 34.1949 59.4112C31.1903 52.9086 27.6085 48.1669 26.1947 48.8201C24.7809 49.4734 26.0705 55.2743 29.0751 61.7769C32.0797 68.2794 35.6615 73.0212 37.0753 72.3679Z" fill="#E28AA3" stroke="black" stroke-width="3" stroke-linecap="round" stroke-linejoin="round"/>
<path d="M5.35004 32.9134C6.02004 31.3334 7.17007 30.1034 8.75007 29.4434L22.9901 23.5334C24.1101 23.0734 25.3101 22.9534 26.5201 23.1434L10.73 5.72342C10.73 5.72342 6.31005 0.78342 3.61005 2.28342C1.05005 3.70342 2.31006 10.1934 2.31006 10.1934L5.36005 32.9134H5.35004Z" fill="#F7AABD" stroke="black" stroke-width="4" stroke-linecap="round" stroke-linejoin="round"/>
</svg>
