<svg width="309" height="220" viewBox="0 0 309 220" fill="none" xmlns="http://www.w3.org/2000/svg">
<path d="M282.77 38.3L50.6899 13.17C36.5899 11.64 23.7799 21.41 21.5099 35.39L2.34986 160.57C-0.110137 175.66 10.5899 189.71 25.7899 191.36L263.41 217.08C278.05 218.66 291.21 208.1 292.79 193.46L306.41 67.68C307.99 53.04 297.41 39.88 282.77 38.3ZM74.6099 55.14C68.6299 54.49 64.2999 49.11 64.9399 43.13C65.5899 37.12 70.9699 32.82 76.9499 33.46C82.9299 34.1 87.2699 39.47 86.6199 45.47C85.9699 51.47 80.6099 55.79 74.6099 55.14ZM110.06 58.98C104.08 58.33 99.7499 52.95 100.39 46.97C101.04 40.96 106.42 36.66 112.4 37.3C118.38 37.95 122.72 43.31 122.07 49.31C121.42 55.31 116.04 59.62 110.06 58.98ZM145.49 62.82C139.51 62.17 135.18 56.79 135.82 50.81C136.47 44.8 141.85 40.5 147.83 41.14C153.81 41.78 158.15 47.15 157.5 53.15C156.85 59.13 151.47 63.46 145.49 62.82ZM180.95 66.66C174.94 66.01 170.64 60.63 171.28 54.65C171.93 48.64 177.29 44.33 183.29 44.98C189.27 45.63 193.61 50.99 192.96 56.99C192.31 62.97 186.93 67.3 180.95 66.66ZM216.38 70.49C210.4 69.84 206.07 64.46 206.71 58.48C207.35 52.5 212.74 48.17 218.72 48.81C224.7 49.45 229.04 54.82 228.39 60.82C227.74 66.8 222.36 71.13 216.38 70.49ZM251.81 74.33C245.83 73.68 241.5 68.3 242.14 62.32C242.79 56.31 248.17 52.01 254.15 52.65C260.13 53.29 264.47 58.66 263.82 64.66C263.17 70.64 257.79 74.97 251.81 74.33Z" fill="#F4F4F4" stroke="black" stroke-width="4" stroke-miterlimit="10"/>
<path d="M55.8501 13.73C59.6501 6.02997 67.9601 1.13997 76.9801 2.11997C88.5301 3.36997 96.8801 13.75 95.6301 25.29C94.3801 36.84 84.0001 45.19 72.4601 43.94C69.9801 43.67 67.6401 42.98 65.5201 41.95" stroke="black" stroke-width="4" stroke-miterlimit="10"/>
<path d="M90.3999 17.47C94.1999 9.76996 102.51 4.88996 111.53 5.85996C123.08 7.10996 131.43 17.49 130.18 29.03C128.93 40.58 118.55 48.93 107.01 47.68C104.53 47.41 102.19 46.72 100.07 45.69" stroke="black" stroke-width="4" stroke-miterlimit="10"/>
<path d="M124.98 21.16C128.79 13.49 137.08 8.62995 146.09 9.59995C157.64 10.85 165.99 21.23 164.74 32.77C163.49 44.32 153.11 52.6699 141.57 51.4199C139.09 51.1499 136.75 50.46 134.63 49.43" stroke="black" stroke-width="4" stroke-miterlimit="10"/>
<path d="M162.23 25.8C165.9 17.8 174.38 12.66 183.62 13.66C195.17 14.91 203.52 25.29 202.27 36.83C201.02 48.38 190.64 56.73 179.1 55.48C176.62 55.21 174.28 54.52 172.16 53.49" stroke="black" stroke-width="4" stroke-miterlimit="10"/>
<path d="M196.74 28.98C200.54 21.28 208.85 16.4 217.87 17.37C229.42 18.62 237.77 29 236.52 40.54C235.27 52.09 224.89 60.44 213.35 59.19C210.87 58.92 208.53 58.23 206.41 57.2" stroke="black" stroke-width="4" stroke-miterlimit="10"/>
<path d="M233.56 32.97C237.36 25.27 245.68 20.38 254.71 21.36C266.26 22.62 274.6 33 273.34 44.55C272.08 56.1 261.7 64.44 250.15 63.18C247.67 62.91 245.33 62.22 243.21 61.18" stroke="black" stroke-width="4" stroke-miterlimit="10"/>
<path d="M53.8396 109.8C51.0396 115.03 34.0196 161.41 38.8196 161.93C43.6496 162.45 96.4396 156.76 99.6896 153.03C102.95 149.31 64.1496 107.61 64.1496 107.61C64.1496 107.61 57.5596 102.91 53.8296 109.79L53.8396 109.8Z" fill="#F7AABD" stroke="#B75E5E" stroke-width="3" stroke-linecap="round" stroke-linejoin="round"/>
<path d="M123.7 165.84L135.42 154.33L148.88 164.61L159.76 145.32L180.32 161.03L186.08 144.03" stroke="#EFAC7F" stroke-width="6" stroke-linecap="round" stroke-linejoin="round"/>
<path d="M211.23 155C213.6 149.53 218.05 144.87 224.08 142.34C234.92 137.8 248.82 141.63 254.02 152.59C265.29 176.37 228.43 198.87 213.45 177.48C208.56 170.5 208.17 162.07 211.23 155Z" fill="#E5D8A1" stroke="#D8B74E" stroke-width="3" stroke-linecap="round" stroke-linejoin="round"/>
<path d="M197.859 96.6399C197.859 96.6399 220.489 115.54 240.199 101.22C259.909 86.8999 197.839 90.4699 227.939 116.34C227.939 116.34 240.079 124.51 251.649 118.91" stroke="#EFAC7F" stroke-width="6" stroke-linecap="round" stroke-linejoin="round"/>
<path d="M116.51 103.14L126.29 85.6899C126.29 85.6899 129.46 81.6599 134.63 84.0999L156.16 92.5499C156.16 92.5499 162.88 94.9699 160.47 100.82C158.05 106.67 150.12 124.87 150.12 124.87C150.12 124.87 147.57 128.67 143.35 126.84C139.13 125.01 115.4 113.4 115.4 113.4C115.4 113.4 111.55 111.25 116.51 103.15V103.14Z" fill="#AEE5B6" stroke="#47B28E" stroke-width="3" stroke-linecap="round" stroke-linejoin="round"/>
</svg>
