<svg width="124" height="108" viewBox="0 0 124 108" fill="none" xmlns="http://www.w3.org/2000/svg">
<path d="M45.4757 13.7765C45.4757 13.7765 56.9157 1.65644 60.7957 5.54644C64.6857 9.43644 54.6257 21.0964 54.6257 21.0964C54.6257 21.0964 73.1456 16.7464 72.9256 23.8364C72.6956 30.9264 57.6057 35.0464 57.6057 35.0464C57.6057 35.0464 65.6057 54.0264 58.9757 57.0064C52.3457 59.9764 44.7957 37.1064 44.7957 37.1064C44.7957 37.1064 28.5557 52.1964 24.4457 45.1064C20.3257 38.0164 37.2557 29.7864 37.2557 29.7864C37.2557 29.7864 22.3856 32.3064 23.3056 26.8164C24.2156 21.3264 42.7456 20.8664 42.7456 20.8664C42.7456 20.8664 26.2757 10.8064 32.4557 8.05645C38.6257 5.31645 45.4956 13.7765 45.4956 13.7765H45.4757Z" fill="#FFE964" stroke="black" stroke-width="4" stroke-linecap="round" stroke-linejoin="round"/>
<path d="M43.6553 27.7265C44.5453 24.4065 46.9253 20.7864 49.6053 21.3264C56.9553 22.7964 46.3753 38.4464 43.5553 31.8264C43.1453 30.8764 43.2253 29.3365 43.6653 27.7265H43.6553Z" fill="#FF8AB7"/>
<path d="M82.5257 27.7265C82.5257 27.7265 80.0057 3.25645 85.2657 2.11645C90.5257 0.976454 90.0657 13.7765 90.0657 13.7765C90.0657 13.7765 103.786 -3.37356 111.796 3.71645C119.796 10.8064 107.226 19.2664 107.226 19.2664C107.226 19.2664 121.406 16.7464 121.636 23.3864C121.866 30.0264 103.566 31.3865 104.256 31.6165C104.946 31.8465 106.996 53.1164 100.826 52.8864C94.6557 52.6564 93.2757 37.3365 93.2757 37.3365C93.2757 37.3365 94.8756 54.0364 88.7056 52.8864C82.5356 51.7364 83.9057 36.4165 83.9057 36.4165C83.9057 36.4165 66.7557 43.7364 66.0657 37.1064C65.3757 30.4764 82.5357 27.7265 82.5357 27.7265H82.5257Z" fill="#FFE964" stroke="black" stroke-width="4" stroke-linecap="round" stroke-linejoin="round"/>
<path d="M90.6855 22.6265C92.2455 18.8265 95.5654 15.7665 97.8454 19.2665C100.815 23.8365 96.4755 30.6965 93.0455 30.4765C89.3155 30.2265 89.2555 26.1165 90.6855 22.6265Z" fill="#FF8AB7"/>
<path d="M80.9256 37.7864C80.9256 37.7864 62.6256 57.2264 45.0156 84.8964" stroke="black" stroke-width="4" stroke-linecap="round" stroke-linejoin="round"/>
<path d="M42.2753 40.5364C42.2753 40.5364 41.3653 67.9764 44.1053 87.1864" stroke="black" stroke-width="4" stroke-linecap="round" stroke-linejoin="round"/>
<path d="M43.4255 91.0764C42.0555 93.5864 18.0355 94.7364 10.0355 96.3364C2.0255 97.9364 -3.9145 95.1864 12.0955 86.0464C16.3455 83.6164 20.7455 82.6264 24.7755 82.3864C33.3655 81.8964 40.2255 84.8964 40.2255 84.8964C41.4855 86.0364 42.7455 87.0264 43.3855 88.1164C43.9155 89.0064 44.0355 89.9464 43.4255 91.0764Z" fill="#88D1B3" stroke="black" stroke-width="4" stroke-linecap="round" stroke-linejoin="round"/>
<path d="M44.4755 86.9564C44.4755 86.9564 46.0755 84.6664 50.1955 84.8964C54.3155 85.1264 65.5155 83.0664 80.1555 98.6164C80.1555 98.6164 84.2755 103.186 80.3855 105.016C76.4955 106.846 53.8555 102.496 48.8255 96.3264C43.7955 90.1564 43.1055 87.8664 44.4755 86.9464V86.9564Z" fill="#88D1B3" stroke="black" stroke-width="4" stroke-linecap="round" stroke-linejoin="round"/>
<path d="M45.1656 81.9265C45.1656 81.9265 58.8856 65.9165 73.2956 66.6065C87.7056 67.2965 87.4756 72.3265 86.5556 74.6065C85.6356 76.8865 64.1456 82.1565 52.0256 84.4365C52.0256 84.4365 41.0456 87.8665 45.1656 81.9165V81.9265Z" fill="#88D1B3" stroke="black" stroke-width="4" stroke-linecap="round" stroke-linejoin="round"/>
<path d="M43.3856 88.1164C42.7456 87.0264 41.4856 86.0364 40.2256 84.8964C40.2256 84.8964 33.3656 81.8964 24.7756 82.3864C14.1356 77.2364 5.20563 70.6164 3.85563 69.1164C1.80563 66.8364 5.46562 65.4564 5.46562 65.4564C40.9056 62.2564 43.4256 85.3564 43.4256 85.3564C43.7656 86.9164 43.6556 87.7164 43.3856 88.1164Z" fill="#88D1B3" stroke="black" stroke-width="4" stroke-linecap="round" stroke-linejoin="round"/>
</svg>
