<svg width="214" height="365" viewBox="0 0 214 365" fill="none" xmlns="http://www.w3.org/2000/svg">
<path d="M35.8732 125.311C35.8732 125.311 7.91315 110.721 15.2032 63.9215C21.8632 21.1815 73.2932 1.09149 111.823 2.03149C141.693 2.75149 176.003 14.7115 193.153 41.0515C211.133 68.6615 206.543 112.451 179.943 133.221C184.253 129.851 198.453 147.162 200.433 150.072C226.623 188.602 205.423 238.571 165.793 257.021C148.473 265.091 129.093 267.951 109.983 267.961C86.7531 267.981 61.0232 262.651 40.8232 250.971C-3.53685 225.311 -15.9268 151.211 35.8832 125.311H35.8732Z" fill="#68BC8C" stroke="black" stroke-width="4" stroke-linecap="round" stroke-linejoin="round"/>
<path d="M62.0029 260.301V362.781H151.973V262.251C138.453 266.351 124.143 267.941 109.973 267.951C94.2829 267.961 77.5029 265.471 62.0129 260.301H62.0029Z" fill="#C19181" stroke="black" stroke-width="4" stroke-linecap="round" stroke-linejoin="round"/>
<path d="M81.6631 269.781V282.952" stroke="black" stroke-width="3" stroke-linecap="round" stroke-linejoin="round"/>
<path d="M130.693 286.801V299.971" stroke="black" stroke-width="3" stroke-linecap="round" stroke-linejoin="round"/>
<path d="M105.573 301.181V314.351" stroke="black" stroke-width="3" stroke-linecap="round" stroke-linejoin="round"/>
<path d="M81.6631 317.191V330.361" stroke="black" stroke-width="3" stroke-linecap="round" stroke-linejoin="round"/>
<path d="M129.483 345.762V358.932" stroke="black" stroke-width="3" stroke-linecap="round" stroke-linejoin="round"/>
</svg>
