<svg width="1920" height="1080" viewBox="0 0 1920 1080" fill="none" xmlns="http://www.w3.org/2000/svg">
<g clip-path="url(#clip0_2030_376)">
<path d="M-529 386.84L17.2101 384.16C17.2101 384.16 34.8201 273.62 -36.33 264.89C-36.33 264.89 -80.2299 260.57 -110.32 295.51C-110.32 295.51 -62.3899 195.41 -204.67 185.52C-346.95 175.63 -402.28 309.05 -402.28 309.05C-402.28 309.05 -398.05 246.99 -453.98 256.35C-509.92 265.7 -528.99 386.84 -528.99 386.84H-529Z" fill="#68BC8C" stroke="black" stroke-width="4" stroke-linecap="round" stroke-linejoin="round"/>
<path d="M1325 383.586C1325 383.586 2011.97 383.586 2012.09 383.586C2010.22 383.586 1992.88 341.496 1991.18 338.366C1973.77 306.236 1952.18 275.846 1925.39 250.846C1902.44 229.426 1874.99 212.496 1844.86 203.356C1822.18 196.476 1780.78 186.986 1767.14 214.306C1756.84 234.946 1773.82 260.766 1785.44 276.786C1785.44 276.786 1580.14 92.8559 1325.01 383.586H1325Z" fill="#68BC8C" stroke="black" stroke-width="4" stroke-linecap="round" stroke-linejoin="round"/>
<path d="M1854.95 269.816L1872.77 255.236L1868.99 270.356L1891.13 265.496L1873.31 282.226L1894.91 297.346L1866.29 294.106L1858.73 317.326L1852.25 293.026L1823.64 294.646L1840.92 279.526L1833.36 260.636L1854.95 269.816Z" fill="#BAD987" stroke="black" stroke-width="4" stroke-linecap="round" stroke-linejoin="round"/>
<path d="M1758.63 333.906C1758.63 333.906 1755.84 320.396 1760.85 319.486C1765.86 318.586 1767.2 330.496 1767.2 330.496C1767.2 330.496 1768.23 317.166 1773.96 317.066C1779.7 316.956 1775.55 331.666 1775.55 331.666C1775.55 331.666 1789.17 326.586 1788.15 331.896C1787.13 337.196 1772.78 341.476 1772.78 341.476C1772.78 341.476 1781.49 351.066 1773.21 356.406C1764.93 361.736 1763.34 347.136 1763.34 347.136C1763.34 347.136 1756.07 363.216 1753.24 358.496C1750.41 353.776 1754.67 344.806 1754.67 344.806C1754.67 344.806 1741.05 341.856 1744 336.266C1746.95 330.676 1758.64 333.916 1758.64 333.916L1758.63 333.906Z" fill="#73D7FF" stroke="black" stroke-width="4" stroke-linecap="round" stroke-linejoin="round"/>
<g clip-path="url(#clip1_2030_376)">
<path d="M374.02 216.14C370.88 219.79 367.79 223.56 363.47 225.54C355.26 229.3 345.99 225.44 337.48 227.38C329.09 229.29 321.2 233.62 315.35 239.97C307.65 248.34 303.71 260.17 305.38 271.4C306.72 280.43 311.76 288.61 311.78 297.89C311.8 307.39 308 315.81 311.76 325.1C313.5 329.41 316.01 333.36 319.6 336.37C331.61 346.42 349.94 343.93 363.94 340.24C377.21 336.74 390.14 331.8 403.78 329.84C410.04 328.94 417.19 328.32 423.43 329.69C430.81 331.31 437.47 335.58 445.01 337.08C460.8 340.23 475.69 332.13 479.24 316.04C482.42 301.6 483.61 286.75 487.72 272.52C489.99 264.66 492.39 257.11 490.84 248.83C488.98 238.89 481.51 232.22 472.49 228.5C460.85 223.7 449.04 225.68 437.27 222.45C424.47 218.94 416.02 206.58 402.28 204.35C394.17 203.03 385.53 205.42 379.24 210.72C377.36 212.3 375.69 214.2 374.02 216.13V216.14Z" fill="#48C19B" stroke="black" stroke-width="4" stroke-linecap="round" stroke-linejoin="round"/>
<path d="M423.43 329.69C417.19 328.32 410.04 328.94 403.78 329.84C390.14 331.8 377.21 336.74 363.94 340.24C358.21 341.75 351.74 343.05 345.29 343.37V381.98H448.52V337.57C447.36 337.46 446.19 337.31 445.01 337.07C437.47 335.57 430.81 331.3 423.43 329.68V329.69Z" fill="#C19181" stroke="black" stroke-width="4" stroke-linecap="round" stroke-linejoin="round"/>
<path d="M376.34 336.66V348.6" stroke="black" stroke-width="3" stroke-linecap="round" stroke-linejoin="round"/>
<path d="M408.78 345.68V357.62" stroke="black" stroke-width="3" stroke-linecap="round" stroke-linejoin="round"/>
<path d="M364.95 367.42V379.36" stroke="black" stroke-width="3" stroke-linecap="round" stroke-linejoin="round"/>
<path d="M432.13 332.6V342.63" stroke="black" stroke-width="3" stroke-linecap="round" stroke-linejoin="round"/>
</g>
<path d="M181 384.4L397.04 383.34C397.04 383.34 404.01 339.62 375.86 336.16C375.86 336.16 358.5 334.45 346.59 348.27C346.59 348.27 365.55 308.68 309.27 304.76C252.99 300.85 231.11 353.62 231.11 353.62C231.11 353.62 232.78 329.07 210.66 332.77C188.53 336.47 180.99 384.38 180.99 384.38L181 384.4Z" fill="#68BC8C" stroke="black" stroke-width="4" stroke-linecap="round" stroke-linejoin="round"/>
<path d="M287.89 327.98L280.66 354.69" stroke="black" stroke-width="4" stroke-linecap="round" stroke-linejoin="round"/>
<path d="M277.46 330.92L290.55 353.32" stroke="black" stroke-width="4" stroke-linecap="round" stroke-linejoin="round"/>
<path d="M296.24 333.26L272.3 349.75" stroke="black" stroke-width="4" stroke-linecap="round" stroke-linejoin="round"/>
<path d="M1127.71 393.07H1401.95C1401.95 393.07 1409.84 390.92 1410.91 382.67C1411.99 374.42 1409.48 352.2 1370.4 356.5C1370.4 356.5 1380.08 330.79 1307.67 327.15C1235.26 323.52 1225.22 356.14 1225.22 356.14C1225.22 356.14 1222.71 338.93 1201.56 341.08C1180.42 343.23 1173.25 367.22 1173.24 367.25C1174.03 364.61 1156.59 357.77 1155 357.26C1142.24 353.2 1126.77 353.68 1115.26 361.09C1104.82 367.82 1109.3 379.56 1116.96 386.61C1116.96 386.61 1122.7 393.06 1127.71 393.06V393.07Z" fill="#68BC8C" stroke="black" stroke-width="4" stroke-linecap="round" stroke-linejoin="round"/>
<g clip-path="url(#clip2_2030_376)">
<path d="M110 548.11C110 548.11 112.88 535.3 120.6 535.98C128.32 536.66 129.17 545.31 129.17 545.31C129.17 545.31 130.95 534.96 138.41 534.96C145.87 534.96 145.53 546.45 145.53 546.45C145.53 546.45 148.24 535.39 157.32 535.64C166.4 535.89 166.65 550.31 166.65 550.31" stroke="black" stroke-width="4" stroke-linecap="round" stroke-linejoin="round"/>
<path d="M181.53 568.88C181.53 568.88 184.46 558.07 193.87 560.1C193.87 560.1 199.72 560.23 201.5 567.35C201.5 567.35 203.03 558.06 211.42 558.06C219.81 558.06 220.07 566.97 220.07 566.97C220.07 566.97 221.98 559.34 231.39 560.86C240.8 562.39 240.3 572.18 240.3 572.18" stroke="black" stroke-width="4" stroke-linecap="round" stroke-linejoin="round"/>
<path d="M641.03 416.84C641.03 416.84 656 403.3 671.68 416.84C671.68 416.84 685.58 403.06 703.05 416.84" stroke="black" stroke-width="4" stroke-linecap="round" stroke-linejoin="round"/>
<path d="M1071.21 888.62C1071.21 888.62 1114.24 865.81 1159.32 888.62C1159.32 888.62 1199.27 865.41 1249.47 888.62" stroke="black" stroke-width="4" stroke-linecap="round" stroke-linejoin="round"/>
<path d="M308.59 962.99H390.8C390.8 962.99 396.88 963.63 401.04 957.23C405.2 950.83 416.71 929.72 375.77 950.51C375.77 950.51 395.92 929.08 388.89 925.24C381.85 921.4 344.42 946.99 344.42 946.99C344.42 946.99 343.78 931.63 337.38 931.32C330.98 931.01 325.86 946.68 325.86 946.68C318.21 939.04 304 928.63 292.61 933.35C283.42 937.16 294.54 951.39 297.71 955.64C297.71 955.64 301.23 963 308.59 963V962.99Z" fill="#4FAF86" stroke="black" stroke-width="4" stroke-miterlimit="10"/>
<path d="M317.08 841.05H259.17C259.17 841.05 253.9 841.81 251.27 836.77C248.21 830.9 236.46 816.37 251.27 812.09C266.08 807.81 271.34 826.67 271.34 826.67C271.34 826.67 276.28 794.65 289.44 798.27C302.6 801.89 293.06 823.93 293.06 823.93C293.06 823.93 310.83 801.56 317.08 812.74C317.08 812.74 318.73 819.98 310.5 825.9C310.5 825.9 323.33 818.33 326.62 822.94C329.91 827.55 324.65 836.76 324.65 836.76C324.65 836.76 322.26 841.04 317.08 841.04V841.05Z" fill="#4FAF86" stroke="black" stroke-width="4" stroke-linecap="round" stroke-linejoin="round"/>
<path d="M1808.34 687.59C1808.34 687.59 1869.38 667.57 1913.38 687.59" stroke="black" stroke-width="4" stroke-linecap="round" stroke-linejoin="round"/>
<path d="M823.03 518.13H961.18C961.18 518.13 978.67 482.17 950.69 479.99C950.69 479.99 938.45 478.9 922.71 495.24C922.71 495.24 931.45 467.45 891.23 474.54C891.23 474.54 868.5 478.9 860.63 499.6C860.63 499.6 815.16 495.24 823.03 518.12V518.13Z" fill="#68BC8C" stroke="black" stroke-width="4" stroke-linecap="round" stroke-linejoin="round"/>
<path d="M516.09 444.93C516.09 444.93 496.69 466 485.32 449.61C485.32 449.61 455.22 456.3 455.55 448.61C455.55 448.61 428.12 455.3 426.45 450.28C424.78 445.26 432.47 444.59 432.47 444.59C432.47 444.59 431.13 422.18 444.51 421.85C444.51 421.85 449.19 421.85 448.86 428.87C448.86 428.87 459.9 415.66 467.59 418.67C475.28 421.68 470.27 430.38 470.27 430.38C470.27 430.38 484.48 412.82 492.85 418.51C492.85 418.51 498.03 421.19 491.18 432.89C491.18 432.89 512.08 416.5 519.44 423.36C526.8 430.22 517.27 435.73 517.27 435.73C517.27 435.73 535.16 428.71 535.16 436.23C535.16 443.75 518.94 452.62 516.1 444.93H516.09Z" fill="#4FAF86" stroke="black" stroke-width="4" stroke-linecap="round" stroke-linejoin="round"/>
<path d="M1752.02 842.38C1752.02 842.38 1829.58 807 1854.95 832.73C1854.95 832.73 1865.31 843.45 1837.79 844.88C1837.79 844.88 1867.1 844.88 1863.88 854.89C1860.66 864.9 1805.62 861.32 1752.01 842.38H1752.02Z" fill="#48C19B" stroke="black" stroke-width="4" stroke-linecap="round" stroke-linejoin="round"/>
<path d="M1750.61 841.61C1750.61 841.61 1753.11 791.57 1772.05 795.5C1772.05 795.5 1779.56 797.29 1772.05 814.8C1772.05 814.8 1789.56 786.56 1800.29 798.72C1811.01 810.87 1750.61 841.61 1750.61 841.61Z" fill="#48C19B" stroke="black" stroke-width="4" stroke-linecap="round" stroke-linejoin="round"/>
<path d="M1749.52 842.03C1749.52 842.03 1751.31 805.22 1727.36 803.07C1703.14 800.9 1723.79 822.37 1723.79 822.37C1723.79 822.37 1691.62 809.5 1683.05 820.23C1674.47 830.95 1715.22 840.6 1749.53 842.03H1749.52Z" fill="#48C19B" stroke="black" stroke-width="4" stroke-linecap="round" stroke-linejoin="round"/>
<path d="M1749.52 842.03C1749.52 842.03 1688.76 892.78 1660.88 885.28C1633 877.77 1680.18 864.91 1680.18 864.91C1680.18 864.91 1636.58 874.56 1637.65 856.33C1638.72 838.1 1749.52 842.03 1749.52 842.03Z" fill="#48C19B" stroke="black" stroke-width="4" stroke-linecap="round" stroke-linejoin="round"/>
<path d="M1749.06 841.96C1749.06 841.96 1706.89 888.42 1729.05 892C1729.05 892 1737.27 896.65 1745.85 873.41C1745.85 873.41 1742.28 895.57 1759.43 894.14C1776.59 892.71 1749.07 841.96 1749.07 841.96H1749.06Z" fill="#48C19B" stroke="black" stroke-width="4" stroke-linecap="round" stroke-linejoin="round"/>
<path d="M694.16 886.36C694.16 886.36 697.74 864.35 707.58 868.64C717.42 872.93 707.58 889.04 707.58 889.04C707.58 889.04 719.93 881.35 719.75 889.04C719.57 896.73 708.12 899.06 708.12 899.06C708.12 899.06 709.01 923.58 697.92 921.07C697.92 921.07 693.09 921.25 692.73 907.11C692.73 907.11 686.82 922.32 678.59 914.63C670.36 906.94 689.68 896.56 689.68 896.56C689.68 896.56 674.47 890.48 679.66 880.1C684.85 869.72 694.15 886.36 694.15 886.36H694.16Z" fill="#FFC2DB" stroke="black" stroke-width="4" stroke-linecap="round" stroke-linejoin="round"/>
<path d="M695.93 894.81C696.1 894.01 696.34 893.23 696.66 892.47C697.26 891.03 697.98 888.96 699.31 888.05C701.92 886.26 703.32 889.63 703.57 891.76C703.99 895.34 702.47 899.34 700.02 901.95C697.59 904.54 696.17 902.6 695.77 899.83C695.53 898.16 695.57 896.46 695.92 894.81H695.93Z" fill="#FFEDA1"/>
<path d="M695.62 946.31C695.62 946.31 688.25 927.52 692.75 908.02" stroke="black" stroke-width="4" stroke-miterlimit="10"/>
<path d="M695.72 947.2C695.55 947.2 694.35 944.43 694.23 944.22C692.76 941.6 691.02 939.13 689.07 936.85C686.4 933.71 683.31 930.92 679.89 928.62C677.95 927.32 663.66 918.76 663.66 925.38C663.66 928.24 665.45 928.6 670.64 937.01C675.83 945.42 682.16 947.21 695.73 947.21L695.72 947.2Z" fill="#A9FFD4" stroke="black" stroke-width="4" stroke-miterlimit="10"/>
<path d="M694.97 947.17C693.89 947.12 696.73 938.64 696.89 938.28C699.23 933.12 702.72 928.57 706.61 924.5C710.2 920.74 714.84 917.75 718.05 913.68C719.66 911.64 723.6 911.64 721.63 918.27C719.66 924.9 716.08 948.19 694.97 947.17Z" fill="#A9FFD4" stroke="black" stroke-width="4" stroke-miterlimit="10"/>
<path d="M676.74 589.57C676.74 589.57 726.35 576.37 756.28 589.57C756.28 589.57 796.44 569.97 842.12 589.57C842.12 589.57 888.58 571.17 928.75 589.57" stroke="black" stroke-width="4" stroke-linecap="round" stroke-linejoin="round"/>
<path d="M1803.14 541.79C1803.14 541.79 1803.14 533.13 1800.39 532.58C1797.64 532.03 1793.79 543.99 1796.95 553.61C1800.11 563.23 1807.95 566.39 1814.96 561.72C1821.97 557.05 1824.58 539.86 1820.6 530.38C1820.6 530.38 1819.23 527.77 1817.3 531.34C1815.37 534.91 1812.49 542.2 1812.49 542.2C1812.49 542.2 1814.14 526.8 1810.84 526.12C1807.54 525.43 1803.14 541.79 1803.14 541.79Z" fill="#FFD88A" stroke="black" stroke-width="4" stroke-linecap="round" stroke-linejoin="round"/>
<path d="M1821.86 577.5C1821.86 577.5 1814.98 590.75 1809.1 590.01C1809.1 590.01 1807.84 590.23 1806.99 589.35C1807.4 588.98 1807.72 588.33 1807.85 587.3C1807.85 587.3 1807.73 586.64 1807.46 585.51C1808.77 581.31 1811.87 573.48 1818.65 564.59C1828.75 551.32 1829.68 552.06 1830.76 552.39C1831.84 552.73 1830.44 561.18 1821.86 577.5Z" fill="#88D1B3" stroke="black" stroke-width="4" stroke-linecap="round" stroke-linejoin="round"/>
<path d="M1807.85 587.3C1807.72 588.33 1807.4 588.98 1806.99 589.35C1805.72 590.53 1803.59 589.14 1803.59 589.14C1786.41 577.92 1786.13 563.52 1786.13 560.63C1786.13 557.74 1788.47 559.25 1788.47 559.25C1801.43 565.57 1806.16 580.37 1807.46 585.5C1807.74 586.63 1807.85 587.29 1807.85 587.29V587.3Z" fill="#88D1B3" stroke="black" stroke-width="4" stroke-linecap="round" stroke-linejoin="round"/>
<path d="M1809.12 580.92V563.81C1808.26 563.87 1807.41 563.81 1806.58 563.65V582.48C1806.96 583.66 1807.25 584.7 1807.45 585.49C1807.83 584.26 1808.38 582.7 1809.12 580.91V580.92Z" fill="#88D1B3" stroke="black" stroke-width="4" stroke-linecap="round" stroke-linejoin="round"/>
<path d="M1611.17 492.73H1689.64C1689.64 492.73 1703.8 480.1 1694.62 473.59C1685.43 467.08 1678.93 479.71 1678.93 479.71C1678.93 479.71 1691.94 459.04 1679.7 457.13C1667.45 455.22 1657.12 476.27 1657.12 476.27C1657.12 476.27 1662.1 453.69 1646.02 453.69C1629.94 453.69 1638.75 472.83 1638.75 472.83C1638.75 472.83 1625.74 458.67 1613.1 461.35C1600.47 464.03 1619.61 482.02 1619.61 482.02C1619.61 482.02 1591.28 466.33 1581.71 474.75C1572.14 483.17 1611.18 492.74 1611.18 492.74L1611.17 492.73Z" fill="#4FAF86" stroke="black" stroke-width="4" stroke-linecap="round" stroke-linejoin="round"/>
<path d="M1087.29 487.97C1087.29 487.97 1090.25 474.82 1098.18 475.52C1106.11 476.22 1106.98 485.1 1106.98 485.1C1106.98 485.1 1108.81 474.47 1116.47 474.47C1124.13 474.47 1123.79 486.27 1123.79 486.27C1123.79 486.27 1126.58 474.91 1135.9 475.17C1145.22 475.43 1145.48 490.24 1145.48 490.24" stroke="black" stroke-width="4" stroke-linecap="round" stroke-linejoin="round"/>
<path d="M744.09 827.21C744.09 827.21 747.09 816.11 756.76 818.2C756.76 818.2 762.77 818.33 764.6 825.65C764.6 825.65 766.17 816.11 774.79 816.11C783.41 816.11 783.67 825.26 783.67 825.26C783.67 825.26 785.63 817.42 795.3 818.99C804.97 820.56 804.45 830.62 804.45 830.62" stroke="black" stroke-width="4" stroke-linecap="round" stroke-linejoin="round"/>
<path d="M870.87 664.16C870.87 664.16 879.78 642 854.73 637.67C854.73 637.67 850.64 636.71 849.67 640.08C848.71 643.45 843.17 663.44 867.98 665.37C867.98 665.37 870.09 665.91 870.87 664.17V664.16Z" fill="#4FAF86" stroke="black" stroke-width="4" stroke-miterlimit="10"/>
<path d="M873.29 663.77C873.29 663.77 868.61 640.35 894.03 640.7C894.03 640.7 898.23 640.51 898.56 644C898.89 647.49 900.65 668.16 875.91 665.48C875.91 665.48 873.74 665.62 873.29 663.76V663.77Z" fill="#4FAF86" stroke="black" stroke-width="4" stroke-miterlimit="10"/>
<path d="M871.81 684.01V666.43" stroke="black" stroke-width="4" stroke-miterlimit="10"/>
<path d="M509.88 858.45C509.88 858.45 507.42 842.99 488.43 852.9C488.43 852.9 480.54 856.86 486.09 861.23C486.09 861.23 501.16 876.3 509.88 858.45Z" fill="#4FAF86" stroke="black" stroke-width="4" stroke-miterlimit="10"/>
<path d="M511.86 858.38C511.86 858.38 521.38 841.01 534.85 846.56C534.85 846.56 538.02 846.27 537.23 849.59C536.44 852.91 536.04 871.39 511.86 858.38Z" fill="#4FAF86" stroke="black" stroke-width="4" stroke-miterlimit="10"/>
<path d="M511.86 882.24V860.83" stroke="black" stroke-width="4" stroke-miterlimit="10"/>
<path d="M1280.77 801.33C1280.77 801.33 1307.3 786.12 1333.43 800.92C1333.43 800.92 1357.47 784.72 1387.77 800.92" stroke="black" stroke-width="4" stroke-linecap="round" stroke-linejoin="round"/>
<path d="M1376.82 769.85C1376.82 769.85 1398.08 756.38 1416.14 769.85C1416.14 769.85 1433.32 755.45 1454 771.01" stroke="black" stroke-width="4" stroke-linecap="round" stroke-linejoin="round"/>
<path d="M1488.62 372.68C1488.62 372.68 1497.25 358.51 1501.56 362.82C1505.87 367.13 1498.07 378.43 1498.07 378.43C1498.07 378.43 1508.54 376.79 1507.11 383.98C1505.67 391.17 1487.8 393.22 1487.8 393.22C1487.8 393.22 1481.84 407.6 1476.5 405.13C1471.16 402.67 1478.14 388.49 1478.14 388.49C1478.14 388.49 1464.17 390.54 1467.25 382.12C1470.33 373.7 1481.22 378.22 1481.22 378.22C1481.22 378.22 1469.51 368.77 1475.26 366.31C1481.01 363.85 1488.61 372.68 1488.61 372.68H1488.62Z" fill="#FFC2DB" stroke="black" stroke-width="4" stroke-linecap="round" stroke-linejoin="round"/>
<path d="M1483.84 381.74C1485.32 379.38 1489.93 377.02 1491.88 379.78C1493.44 383.7 1486.33 389.76 1484.08 388.09C1482.09 386.75 1482.39 384.02 1483.63 382.05L1483.84 381.74Z" fill="#FFEDA1"/>
<path d="M1482.07 431.71C1482.07 431.71 1488.68 412.1 1489.03 392.39" stroke="black" stroke-width="4" stroke-linecap="round" stroke-linejoin="round"/>
<path d="M1480.2 437.06C1459.96 438.29 1452.68 430.29 1449.09 428.03C1445.49 425.77 1449.6 423.72 1449.6 423.72C1454.21 420.42 1459.65 421.25 1459.65 421.25C1461.77 421.38 1463.71 421.67 1465.47 422.05C1474.61 423.98 1478.9 428.63 1480.72 431.46C1481.63 432.83 1481.93 433.77 1481.93 433.77C1483.07 436.86 1480.18 437.05 1480.18 437.05L1480.2 437.06Z" fill="#A9FFD4" stroke="black" stroke-width="4" stroke-miterlimit="10"/>
<path d="M1518.19 413.14C1517.89 416.42 1510.39 439.53 1486.36 437.78C1486.36 437.78 1481.73 438.1 1482.57 435.73C1482.57 435.73 1482.78 434 1483.59 431.46V431.42C1485.73 424.67 1492.05 412.17 1509.64 410.55C1511.14 410.4 1512.73 410.32 1514.4 410.36C1514.4 410.36 1518.5 409.85 1518.19 413.13V413.14Z" fill="#A9FFD4" stroke="black" stroke-width="4" stroke-miterlimit="10"/>
<path d="M1509.64 410.56C1492.06 412.17 1485.74 424.67 1483.59 431.43C1483.61 431.05 1482.05 410.98 1508.53 395.48C1508.53 395.48 1511.93 393.62 1512.34 396.6C1512.53 398.06 1512.61 403.58 1509.63 410.56H1509.64Z" fill="#A9FFD4" stroke="black" stroke-width="4" stroke-miterlimit="10"/>
<path d="M1480.92 430.19C1480.92 430.78 1480.84 431.18 1480.73 431.46C1478.91 428.63 1474.62 423.99 1465.48 422.05C1458.82 413.46 1459.9 403.71 1459.77 401.64C1459.56 398.66 1462.84 400.08 1462.84 400.08C1481.85 405.22 1480.92 430.18 1480.92 430.18V430.19Z" fill="#A9FFD4" stroke="black" stroke-width="4" stroke-miterlimit="10"/>
<path d="M304.21 420.13C304.21 420.13 293.97 424.68 287.85 417.85C281.73 411.02 281.73 375.75 292.4 379.73C292.4 379.73 295.67 378.88 296.1 391.39C296.1 391.39 300.79 370.62 306.06 374.46C311.33 378.3 305.35 400.63 305.35 400.63C305.35 400.63 310.9 386.97 313.88 388.54C316.87 390.1 316.44 415.71 304.21 420.12V420.13Z" fill="#FF83B3" stroke="black" stroke-width="4" stroke-linecap="round" stroke-linejoin="round"/>
<path d="M317.14 427.49C316.96 429.62 315.04 443.02 302.74 455.88C302.74 455.88 301.24 457.63 298.69 457.42C298.69 457.42 298.55 457.4 298.33 457.32C299.73 457 299.62 455.37 299.62 455.37C299.62 455.37 299.27 453.45 298.37 450.4C300.64 441.82 306.3 425.34 315.96 426.11C315.96 426.11 317.25 426.18 317.13 427.49H317.14Z" fill="#88D1B3" stroke="black" stroke-width="4" stroke-linecap="round" stroke-linejoin="round"/>
<path d="M298.33 457.33C298.15 457.38 297.95 457.4 297.72 457.39C295.66 457.33 293.9 455.85 293.9 455.85C277.33 441.54 276.53 425.72 277.33 421.69C278.14 417.67 281.51 421.69 281.51 421.69C291.52 430.94 296.36 443.54 298.38 450.41C299.28 453.46 299.63 455.38 299.63 455.38C299.63 455.38 299.74 457.01 298.34 457.33H298.33Z" fill="#88D1B3" stroke="black" stroke-width="4" stroke-linecap="round" stroke-linejoin="round"/>
<path d="M300.24 444.25V421.28C298.99 421.52 297.53 421.66 296.01 421.58V443.61C297.04 446.18 297.82 448.51 298.38 450.4C298.85 448.61 299.47 446.49 300.25 444.24L300.24 444.25Z" fill="#88D1B3" stroke="black" stroke-width="4" stroke-linecap="round" stroke-linejoin="round"/>
</g>
</g>
<defs>
<clipPath id="clip0_2030_376">
<rect width="1920" height="1080" fill="white"/>
</clipPath>
<clipPath id="clip1_2030_376">
<rect width="190.33" height="181.99" fill="white" transform="translate(303 202)"/>
</clipPath>
<clipPath id="clip2_2030_376">
<rect width="1807.39" height="605.01" fill="white" transform="translate(108 360)"/>
</clipPath>
</defs>
</svg>
