<svg width="63" height="69" viewBox="0 0 63 69" fill="none" xmlns="http://www.w3.org/2000/svg">
<path d="M34.2039 33.3221C39.8739 30.0121 46.2239 27.3621 52.7739 27.7321C55.3839 27.8821 58.2039 28.6721 59.7039 30.8221C61.0639 32.7721 61.0139 35.3621 60.6339 37.7121C59.5539 44.3221 56.3239 50.3721 52.7939 56.0621C50.8639 59.1721 48.7839 62.2621 45.9539 64.5721C44.5539 65.7121 42.8139 66.6821 41.0239 66.4321C38.3339 66.0521 36.7939 63.2221 35.8539 60.6721C33.4239 54.1621 32.0339 47.2721 31.7439 40.3321C24.3039 43.9621 15.9739 45.7221 7.70389 45.4221C6.54389 45.3821 5.3339 45.2821 4.3339 44.6821C2.2439 43.4321 1.8939 40.5721 2.0239 38.1421C2.6239 26.9221 8.40387 16.7121 14.1839 7.07206C15.5939 4.71206 17.4739 2.08206 20.2239 2.00206C22.4739 1.93206 24.3538 3.67206 25.7838 5.41206C31.8138 12.7621 35.2638 23.7721 34.2138 33.3321L34.2039 33.3221Z" fill="#EFE26A" stroke="black" stroke-width="4" stroke-linecap="round" stroke-linejoin="round"/>
<path d="M34.2041 33.3221C44.2141 16.2321 53.4341 11.7121 53.4341 11.7121" stroke="black" stroke-width="4" stroke-linecap="round" stroke-linejoin="round"/>
<path d="M38.1938 3.36206C38.1938 3.36206 40.6338 12.7721 35.3838 29.7721" stroke="black" stroke-width="4" stroke-linecap="round" stroke-linejoin="round"/>
</svg>
