<svg width="88" height="49" viewBox="0 0 88 49" fill="none" xmlns="http://www.w3.org/2000/svg">
<path d="M21.4667 11.8938C21.4667 11.8938 12.0867 6.16376 4.52667 18.4138C-3.03333 30.6638 7.13667 50.9938 24.8567 39.0038C24.8567 39.0038 25.6367 46.5638 43.3567 46.5638C61.0767 46.5638 60.0367 36.9238 60.0367 36.9238C60.0367 36.9238 68.6367 46.0438 78.7967 38.7438C88.9567 31.4438 86.6167 13.1338 72.2767 10.5638C72.2767 10.5638 65.7567 8.25376 60.0267 15.0338C60.0267 15.0338 57.6767 1.74377 41.0067 2.00377C24.3267 2.26377 21.4567 11.9038 21.4567 11.9038L21.4667 11.8938Z" fill="white" stroke="black" stroke-width="4" stroke-linecap="round" stroke-linejoin="round"/>
</svg>
