<svg width="208" height="78" viewBox="0 0 208 78" fill="none" xmlns="http://www.w3.org/2000/svg">
<path d="M31.2276 41.1554C31.2276 41.1554 26.1475 31.7354 15.0775 33.8154C-0.582464 36.7554 -2.5425 58.7754 11.1675 66.6054C24.8675 74.4354 35.1475 57.3054 35.1475 57.3054C35.1475 57.3054 48.3575 76.3854 76.2575 75.9054C104.157 75.4254 110.517 56.8254 110.517 56.8254C110.517 56.8254 120.307 68.5654 138.407 67.5954C156.507 66.6254 163.368 56.8254 163.368 56.8254C163.368 56.8254 177.068 71.0154 193.218 65.6354C209.368 60.2554 210.887 26.7754 190.767 21.1054C171.687 15.7254 166.298 31.8754 166.298 31.8754C166.298 31.8754 162.917 7.37536 138.407 5.44536C113.447 3.48536 106.598 18.6554 106.598 18.6554C106.598 18.6554 95.8275 -1.40464 62.5575 2.50536C29.2775 6.41536 31.2376 41.1654 31.2376 41.1654L31.2276 41.1554Z" fill="white" stroke="black" stroke-width="4" stroke-linecap="round" stroke-linejoin="round"/>
</svg>
