<svg width="675" height="422" viewBox="0 0 675 422" fill="none" xmlns="http://www.w3.org/2000/svg">
<path d="M113.143 399.98H57.7026C57.7026 399.98 35.7726 396.93 38.2026 387.18C40.6426 377.43 62.5726 387.18 62.5726 387.18C62.5726 387.18 38.2026 370.73 52.8226 349.4C52.8226 349.4 63.7926 334.78 85.7226 360.37C85.7226 360.37 96.0826 340.26 115.583 348.79C135.083 357.32 124.113 378.04 124.113 378.04C124.113 378.04 133.253 365.96 143.613 372.61C153.973 379.26 135.083 393.27 135.083 393.27C135.083 393.27 128.383 399.97 113.153 399.97L113.143 399.98Z" fill="#4FAF86" stroke="black" stroke-width="4" stroke-linecap="round" stroke-linejoin="round"/>
<path d="M602.193 302.94H658.503C658.503 302.94 678.933 299.02 669.963 293.15C660.993 287.28 641.063 290.7 641.063 290.7C641.063 290.7 660.493 277.49 645.053 275.04C629.603 272.59 627.613 285.81 627.613 285.81C627.613 285.81 629.603 259.38 614.653 260.36C599.703 261.34 597.713 283.85 602.193 302.94Z" fill="#4FAF86" stroke="black" stroke-width="4" stroke-linecap="round" stroke-linejoin="round"/>
<path d="M313.843 218.06L175.443 25.74L84.9834 225.85L106.543 400.2H291.683L313.843 218.06Z" fill="#EDDDD9" stroke="black" stroke-width="4" stroke-linecap="round" stroke-linejoin="round"/>
<path d="M313.963 218.29L619.513 187.73L525.353 29.67L158.993 2.60999L313.963 218.29Z" fill="#F48267" stroke="black" stroke-width="4" stroke-linecap="round" stroke-linejoin="round"/>
<path d="M313.963 218.29L291.793 400.42H581.173L619.513 187.73L313.963 218.29Z" fill="#EDDDD9" stroke="black" stroke-width="4" stroke-linecap="round" stroke-linejoin="round"/>
<path d="M288.622 182.86L288.562 183L313.963 218.29L288.622 182.86Z" stroke="black" stroke-width="4" stroke-linecap="round" stroke-linejoin="round"/>
<path d="M158.783 2L48.543 227.87L85.093 226.08L175.563 25.97L158.783 2Z" fill="#E27059" stroke="black" stroke-width="4" stroke-linecap="round" stroke-linejoin="round"/>
<path d="M195.333 53.53C195.333 53.53 215.103 73.3 229.483 67.91C243.863 62.52 231.883 39.75 231.883 39.75C231.883 39.75 252.853 66.71 270.223 66.71C287.593 66.71 278.613 37.95 278.613 37.95C278.613 37.95 295.983 64.91 321.153 64.31C346.323 63.71 327.743 37.95 327.743 37.95C327.743 37.95 347.513 69.7 366.083 66.71C384.653 63.71 380.463 45.74 380.463 45.74C380.463 45.74 388.853 75.1 406.223 72.1C423.593 69.1 417.603 44.54 417.603 44.54C417.603 44.54 430.183 76.89 448.753 74.5C467.323 72.1 457.743 47.54 457.743 47.54C457.743 47.54 472.723 75.1 485.303 70.31C497.883 65.52 488.303 45.75 488.303 45.75C488.303 45.75 505.673 79.9 520.653 73.91C535.633 67.92 531.423 40.03 531.423 40.03" stroke="black" stroke-width="3" stroke-linecap="round" stroke-linejoin="round"/>
<path d="M227.623 98.13C227.623 98.13 241.463 111.04 257.643 108.64C273.823 106.24 274.423 85.87 274.423 85.87C274.423 85.87 281.613 102.65 305.573 102.65C329.533 102.65 325.943 82.88 325.943 82.88C325.943 82.88 331.333 111.64 348.713 110.44C366.083 109.24 364.893 80.48 364.893 80.48C364.893 80.48 373.283 107.44 390.053 108.64C406.833 109.84 417.013 92.46 417.013 92.46C417.013 92.46 423.603 115.83 439.783 112.83C455.963 109.83 454.763 84.07 454.763 84.07C454.763 84.07 460.153 111.63 481.723 108.63C503.293 105.63 500.293 83.47 500.293 83.47C500.293 83.47 508.083 107.44 530.253 106.84C552.423 106.24 555.253 81 555.253 81" stroke="black" stroke-width="3" stroke-linecap="round" stroke-linejoin="round"/>
<path d="M263.633 146.39C263.633 146.39 292.393 168.56 307.373 132.61C307.373 132.61 314.563 146.99 331.343 146.39C348.123 145.79 355.903 124.82 355.903 124.82C355.903 124.82 356.503 151.78 375.673 149.38C394.843 146.98 396.043 126.01 396.043 126.01C396.043 126.01 400.833 151.77 418.213 148.78C435.583 145.78 433.193 124.22 433.193 124.22C433.193 124.22 442.183 152.38 460.153 152.38C478.123 152.38 480.523 125.42 480.523 125.42C480.523 125.42 490.113 152.38 506.883 151.18C523.663 149.98 527.253 124.22 527.253 124.22C527.253 124.22 532.643 145.19 549.423 142.19C566.203 139.19 571.473 107.96 571.473 107.96" stroke="black" stroke-width="3" stroke-linecap="round" stroke-linejoin="round"/>
<path d="M295.983 190.73C295.983 190.73 328.333 200.32 331.933 166.17C331.933 166.17 334.333 194.33 351.103 190.14C367.883 185.95 369.073 161.98 369.073 161.98C369.073 161.98 371.533 190.88 402.023 187.74C420.213 185.87 406.213 157.78 406.213 157.78C406.213 157.78 422.393 187.14 442.163 182.34C461.933 177.54 458.343 164.97 458.343 164.97C458.343 164.97 474.523 185.34 488.303 162.57C488.303 162.57 504.483 184.14 518.263 176.95C532.043 169.76 529.643 154.18 529.643 154.18C529.643 154.18 535.633 183.54 557.203 173.95C557.203 173.95 569.183 166.76 566.793 149.39C566.793 149.39 579.923 168.22 598.503 154.44" stroke="black" stroke-width="3" stroke-linecap="round" stroke-linejoin="round"/>
<path d="M153.533 171.16H217.843C217.843 171.16 222.633 90.48 180.293 89.68C180.293 89.68 143.943 85.29 153.533 171.16Z" fill="#A5DCF2" stroke="black" stroke-width="4" stroke-linecap="round" stroke-linejoin="round"/>
<path d="M180.293 89.67L184.693 170.36" stroke="black" stroke-width="3" stroke-linecap="round" stroke-linejoin="round"/>
<path d="M152.333 131.61H215.443" stroke="black" stroke-width="3" stroke-linecap="round" stroke-linejoin="round"/>
<path d="M203.143 171.16C203.283 171.88 203.643 173.56 204.223 175.61C203.873 173.55 203.403 171.87 203.183 171.16H203.133H203.143Z" stroke="black" stroke-width="4" stroke-linecap="round" stroke-linejoin="round"/>
<path d="M217.853 170.96C217.853 171.07 217.843 171.16 217.843 171.16H203.193C203.413 171.87 203.883 173.55 204.233 175.61C206.123 182.31 210.383 193.02 217.453 187.93C223.723 183.42 220.863 175.92 217.863 170.96H217.853Z" fill="#F48267" stroke="black" stroke-width="3" stroke-linecap="round" stroke-linejoin="round"/>
<path d="M153.533 171.16C153.533 171.16 142.753 185.54 153.933 187.14C165.113 188.74 169.913 176.75 169.913 176.75C169.913 176.75 174.703 187.14 181.493 186.34C188.283 185.54 188.683 172.76 188.683 172.76C188.683 172.76 188.683 188.34 198.673 187.94C205.123 187.68 205.073 180.61 204.223 175.62C203.643 173.56 203.283 171.89 203.143 171.17H153.533V171.16Z" fill="#F48267" stroke="black" stroke-width="3" stroke-linecap="round" stroke-linejoin="round"/>
<path d="M203.143 171.16H203.193C203.123 170.93 203.073 170.76 203.073 170.76C203.073 170.76 203.103 170.91 203.153 171.16H203.143Z" stroke="black" stroke-width="4" stroke-linecap="round" stroke-linejoin="round"/>
<path d="M398.743 236.03C392.233 235.48 385.492 237.03 380.092 240.59C370.842 246.68 366.482 258.94 365.662 269.62C365.042 277.71 367.122 286.24 372.532 292.29C380.142 300.81 393.852 304.58 404.622 300.63C415.592 296.6 421.583 286.12 423.243 275.01C425.143 262.22 423.552 248.55 412.062 240.65C408.142 237.96 403.512 236.43 398.752 236.03H398.743Z" fill="#A5DCF2" stroke="black" stroke-width="3" stroke-linecap="round" stroke-linejoin="round"/>
<path d="M399.932 237.06L389.452 300.87" stroke="black" stroke-width="3" stroke-linecap="round" stroke-linejoin="round"/>
<path d="M366.683 264.62L421.503 269.41" stroke="black" stroke-width="3" stroke-linecap="round" stroke-linejoin="round"/>
<path d="M529.853 222.43C507.313 217.18 490.243 240.77 487.233 260.58C486.213 267.29 486.563 274.37 489.433 280.52C496.793 296.28 518.003 300.96 532.913 293.99C547.423 287.21 554.823 270.03 555.413 254.73C556.073 237.73 546.053 226.2 529.853 222.43Z" fill="#A5DCF2" stroke="black" stroke-width="3" stroke-linecap="round" stroke-linejoin="round"/>
<path d="M529.852 222.43L514.272 296.13" stroke="black" stroke-width="3" stroke-linecap="round" stroke-linejoin="round"/>
<path d="M489.113 255.08L554.413 257.18" stroke="black" stroke-width="3" stroke-linecap="round" stroke-linejoin="round"/>
<path d="M300.183 335.62L594.953 320.64" stroke="black" stroke-width="3" stroke-linecap="round" stroke-linejoin="round"/>
<path d="M294.783 371.27L588.063 355.09" stroke="black" stroke-width="3" stroke-linecap="round" stroke-linejoin="round"/>
<path d="M603.343 419.3H509.733C499.083 419.3 490.453 408.14 492.923 397.81C496.223 384.05 516.953 395.13 524.373 398.24C523.543 397.89 528.283 387.49 528.643 386.82C535.583 373.88 551.993 366.67 565.673 374.18C574.793 379.19 569.493 389.03 564.653 395.32C565.933 393.66 577.263 390.54 580.393 390.04C585.183 389.28 593.433 388.92 596.693 393.4C599.733 397.56 596.043 402.86 592.343 405.1C592.343 405.1 618.203 397.32 621.413 406.47C624.613 415.62 610.883 419.29 603.333 419.29L603.343 419.3Z" fill="#4FAF86" stroke="black" stroke-width="4" stroke-linecap="round" stroke-linejoin="round"/>
<path d="M195 207C227.585 207 254 233.415 254 266V400H136V266C136 233.415 162.415 207 195 207Z" fill="#365B4C" stroke="black" stroke-width="4"/>
</svg>
