<svg width="639" height="422" viewBox="0 0 639 422" fill="none" xmlns="http://www.w3.org/2000/svg">
<path d="M77.1299 399.98H21.69C21.69 399.98 -0.24005 396.93 2.18995 387.18C4.62995 377.43 26.5599 387.18 26.5599 387.18C26.5599 387.18 2.18995 370.73 16.8099 349.4C16.8099 349.4 27.7799 334.78 49.7099 360.37C49.7099 360.37 60.0699 340.26 79.5699 348.79C99.0699 357.32 88.0999 378.04 88.0999 378.04C88.0999 378.04 97.2399 365.96 107.6 372.61C117.96 379.26 99.0699 393.27 99.0699 393.27C99.0699 393.27 92.3699 399.97 77.1399 399.97L77.1299 399.98Z" fill="#4FAF86" stroke="black" stroke-width="4" stroke-linecap="round" stroke-linejoin="round"/>
<path d="M566.18 302.94H622.49C622.49 302.94 642.92 299.02 633.95 293.15C624.98 287.28 605.05 290.7 605.05 290.7C605.05 290.7 624.48 277.49 609.04 275.04C593.59 272.59 591.6 285.81 591.6 285.81C591.6 285.81 593.59 259.38 578.64 260.36C563.69 261.34 561.7 283.85 566.18 302.94Z" fill="#4FAF86" stroke="black" stroke-width="4" stroke-linecap="round" stroke-linejoin="round"/>
<path d="M277.831 218.06L139.431 25.74L48.9707 225.85L70.5307 400.2H255.671L277.831 218.06Z" fill="#EDDDD9" stroke="black" stroke-width="4" stroke-linecap="round" stroke-linejoin="round"/>
<path d="M277.95 218.29L583.5 187.73L489.34 29.67L122.98 2.61002L277.95 218.29Z" fill="#F48267" stroke="black" stroke-width="4" stroke-linecap="round" stroke-linejoin="round"/>
<path d="M277.95 218.29L255.78 400.42H545.16L583.5 187.73L277.95 218.29Z" fill="#EDDDD9" stroke="black" stroke-width="4" stroke-linecap="round" stroke-linejoin="round"/>
<path d="M252.61 182.86L252.55 183L277.95 218.29L252.61 182.86Z" stroke="black" stroke-width="4" stroke-linecap="round" stroke-linejoin="round"/>
<path d="M122.77 2.00003L12.5303 227.87L49.0803 226.08L139.55 25.97L122.77 2.00003Z" fill="#E27059" stroke="black" stroke-width="4" stroke-linecap="round" stroke-linejoin="round"/>
<path d="M159.32 53.53C159.32 53.53 179.09 73.3 193.47 67.91C207.85 62.52 195.87 39.75 195.87 39.75C195.87 39.75 216.84 66.71 234.21 66.71C251.58 66.71 242.6 37.95 242.6 37.95C242.6 37.95 259.97 64.91 285.14 64.31C310.31 63.71 291.73 37.95 291.73 37.95C291.73 37.95 311.5 69.7 330.07 66.71C348.64 63.71 344.45 45.74 344.45 45.74C344.45 45.74 352.84 75.1 370.21 72.1C387.58 69.1 381.59 44.54 381.59 44.54C381.59 44.54 394.17 76.89 412.74 74.5C431.31 72.1 421.73 47.54 421.73 47.54C421.73 47.54 436.71 75.1 449.29 70.31C461.87 65.52 452.29 45.75 452.29 45.75C452.29 45.75 469.66 79.9 484.64 73.91C499.62 67.92 495.41 40.03 495.41 40.03" stroke="black" stroke-width="3" stroke-linecap="round" stroke-linejoin="round"/>
<path d="M191.61 98.13C191.61 98.13 205.45 111.04 221.63 108.64C237.81 106.24 238.41 85.87 238.41 85.87C238.41 85.87 245.6 102.65 269.56 102.65C293.52 102.65 289.93 82.88 289.93 82.88C289.93 82.88 295.32 111.64 312.7 110.44C330.07 109.24 328.88 80.48 328.88 80.48C328.88 80.48 337.27 107.44 354.04 108.64C370.82 109.84 381 92.46 381 92.46C381 92.46 387.59 115.83 403.77 112.83C419.95 109.83 418.75 84.07 418.75 84.07C418.75 84.07 424.14 111.63 445.71 108.63C467.28 105.63 464.28 83.47 464.28 83.47C464.28 83.47 472.07 107.44 494.24 106.84C516.41 106.24 519.24 81 519.24 81" stroke="black" stroke-width="3" stroke-linecap="round" stroke-linejoin="round"/>
<path d="M227.62 146.39C227.62 146.39 256.38 168.56 271.36 132.61C271.36 132.61 278.55 146.99 295.33 146.39C312.11 145.79 319.89 124.82 319.89 124.82C319.89 124.82 320.49 151.78 339.66 149.38C358.83 146.98 360.03 126.01 360.03 126.01C360.03 126.01 364.82 151.77 382.2 148.78C399.57 145.78 397.18 124.22 397.18 124.22C397.18 124.22 406.17 152.38 424.14 152.38C442.11 152.38 444.51 125.42 444.51 125.42C444.51 125.42 454.1 152.38 470.87 151.18C487.65 149.98 491.24 124.22 491.24 124.22C491.24 124.22 496.63 145.19 513.41 142.19C530.19 139.19 535.46 107.96 535.46 107.96" stroke="black" stroke-width="3" stroke-linecap="round" stroke-linejoin="round"/>
<path d="M259.971 190.73C259.971 190.73 292.321 200.32 295.921 166.17C295.921 166.17 298.321 194.33 315.091 190.14C331.871 185.95 333.061 161.98 333.061 161.98C333.061 161.98 335.521 190.88 366.011 187.74C384.201 185.87 370.201 157.78 370.201 157.78C370.201 157.78 386.381 187.14 406.151 182.34C425.921 177.54 422.331 164.97 422.331 164.97C422.331 164.97 438.511 185.34 452.291 162.57C452.291 162.57 468.471 184.14 482.251 176.95C496.031 169.76 493.631 154.18 493.631 154.18C493.631 154.18 499.621 183.54 521.191 173.95C521.191 173.95 533.171 166.76 530.781 149.39C530.781 149.39 543.911 168.22 562.491 154.44" stroke="black" stroke-width="3" stroke-linecap="round" stroke-linejoin="round"/>
<path d="M214.171 324.85C215.751 293.3 217.491 261.56 198.661 231.64C185.471 211.61 160.481 202.92 139.251 212.81C115.951 223.19 100.761 248.73 96.3906 274.49C93.3006 297.68 99.0506 320.57 101.031 344.44C102.831 359.66 104.791 377.71 106.581 391.18C107.171 394.31 107.611 397.4 108.011 400.42H211.211C211.261 398.89 211.311 397.3 211.331 395.63C212.101 373.02 212.871 346.47 214.161 324.85H214.171Z" fill="#365B4C" stroke="black" stroke-width="4" stroke-linecap="round" stroke-linejoin="round"/>
<path d="M117.52 171.16H181.83C181.83 171.16 186.62 90.48 144.28 89.68C144.28 89.68 107.93 85.29 117.52 171.16Z" fill="#A5DCF2" stroke="black" stroke-width="4" stroke-linecap="round" stroke-linejoin="round"/>
<path d="M144.28 89.67L148.68 170.36" stroke="black" stroke-width="3" stroke-linecap="round" stroke-linejoin="round"/>
<path d="M116.32 131.61H179.43" stroke="black" stroke-width="3" stroke-linecap="round" stroke-linejoin="round"/>
<path d="M167.13 171.16C167.27 171.88 167.63 173.56 168.21 175.61C167.86 173.55 167.39 171.87 167.17 171.16H167.12H167.13Z" stroke="black" stroke-width="4" stroke-linecap="round" stroke-linejoin="round"/>
<path d="M181.841 170.96C181.841 171.07 181.831 171.16 181.831 171.16H167.181C167.401 171.87 167.871 173.55 168.221 175.61C170.111 182.31 174.371 193.02 181.441 187.93C187.711 183.42 184.851 175.92 181.851 170.96H181.841Z" fill="#F48267" stroke="black" stroke-width="3" stroke-linecap="round" stroke-linejoin="round"/>
<path d="M117.52 171.16C117.52 171.16 106.74 185.54 117.92 187.14C129.1 188.74 133.9 176.75 133.9 176.75C133.9 176.75 138.69 187.14 145.48 186.34C152.27 185.54 152.67 172.76 152.67 172.76C152.67 172.76 152.67 188.34 162.66 187.94C169.11 187.68 169.06 180.61 168.21 175.62C167.63 173.56 167.27 171.89 167.13 171.17H117.52V171.16Z" fill="#F48267" stroke="black" stroke-width="3" stroke-linecap="round" stroke-linejoin="round"/>
<path d="M167.131 171.16H167.181C167.111 170.93 167.061 170.76 167.061 170.76C167.061 170.76 167.091 170.91 167.141 171.16H167.131Z" stroke="black" stroke-width="4" stroke-linecap="round" stroke-linejoin="round"/>
<path d="M362.731 236.03C356.221 235.48 349.481 237.03 344.081 240.59C334.831 246.68 330.471 258.94 329.651 269.62C329.031 277.71 331.111 286.24 336.521 292.29C344.131 300.81 357.841 304.58 368.611 300.63C379.581 296.6 385.571 286.12 387.231 275.01C389.131 262.22 387.541 248.55 376.051 240.65C372.131 237.96 367.501 236.43 362.741 236.03H362.731Z" fill="#A5DCF2" stroke="black" stroke-width="3" stroke-linecap="round" stroke-linejoin="round"/>
<path d="M363.92 237.06L353.44 300.87" stroke="black" stroke-width="3" stroke-linecap="round" stroke-linejoin="round"/>
<path d="M330.671 264.62L385.491 269.41" stroke="black" stroke-width="3" stroke-linecap="round" stroke-linejoin="round"/>
<path d="M493.84 222.43C471.3 217.18 454.23 240.77 451.22 260.58C450.2 267.29 450.55 274.37 453.42 280.52C460.78 296.28 481.99 300.96 496.9 293.99C511.41 287.21 518.81 270.03 519.4 254.73C520.06 237.73 510.04 226.2 493.84 222.43Z" fill="#A5DCF2" stroke="black" stroke-width="3" stroke-linecap="round" stroke-linejoin="round"/>
<path d="M493.84 222.43L478.26 296.13" stroke="black" stroke-width="3" stroke-linecap="round" stroke-linejoin="round"/>
<path d="M453.101 255.08L518.401 257.18" stroke="black" stroke-width="3" stroke-linecap="round" stroke-linejoin="round"/>
<path d="M264.17 335.62L558.94 320.64" stroke="black" stroke-width="3" stroke-linecap="round" stroke-linejoin="round"/>
<path d="M258.771 371.27L552.051 355.09" stroke="black" stroke-width="3" stroke-linecap="round" stroke-linejoin="round"/>
<path d="M567.33 419.3H473.72C463.07 419.3 454.44 408.14 456.91 397.81C460.21 384.05 480.94 395.13 488.36 398.24C487.53 397.89 492.27 387.49 492.63 386.82C499.57 373.88 515.98 366.67 529.66 374.18C538.78 379.19 533.48 389.03 528.64 395.32C529.92 393.66 541.25 390.54 544.38 390.04C549.17 389.28 557.42 388.92 560.68 393.4C563.72 397.56 560.03 402.86 556.33 405.1C556.33 405.1 582.19 397.32 585.4 406.47C588.6 415.62 574.87 419.29 567.32 419.29L567.33 419.3Z" fill="#4FAF86" stroke="black" stroke-width="4" stroke-linecap="round" stroke-linejoin="round"/>
</svg>
