<svg width="148" height="209" viewBox="0 0 148 209" fill="none" xmlns="http://www.w3.org/2000/svg">
<path d="M134.773 115.912C131.77 84.4652 128.898 52.8076 105.936 25.9278C89.9865 8.01762 64.0019 3.03586 44.4267 15.8943C22.8743 29.5371 11.5406 57.0066 10.9448 83.1279C11.2435 106.521 20.2458 128.338 25.6596 151.67C29.6434 166.469 34.1951 184.045 37.9157 197.115C38.9525 200.126 39.835 203.12 40.6679 206.05L142.781 191.114C142.609 189.593 142.429 188.013 142.207 186.358C139.696 163.874 136.616 137.492 134.763 115.913L134.773 115.912Z" fill="#CE9E93" stroke="black" stroke-width="4" stroke-linecap="round" stroke-linejoin="round"/>
<path d="M111.892 119.079C101.085 124.655 101.779 103.52 107.685 98.5665C112.236 94.7434 118.795 97.2112 120.102 102.929C121.36 108.461 117.466 115.726 112.73 118.613C112.445 118.782 112.17 118.941 111.893 119.089L111.892 119.079Z" fill="#B57B71" stroke="black" stroke-width="4" stroke-linecap="round" stroke-linejoin="round"/>
</svg>
