<svg width="148" height="209" viewBox="0 0 148 209" fill="none" xmlns="http://www.w3.org/2000/svg">
<path d="M134.773 115.912C131.77 84.4653 128.898 52.8076 105.936 25.9278C89.9865 8.01762 64.0019 3.03586 44.4267 15.8943C22.8743 29.5371 11.5406 57.0066 10.9448 83.1279C11.2435 106.521 20.2458 128.338 25.6596 151.67C29.6434 166.469 34.1951 184.045 37.9157 197.115C38.9525 200.126 39.835 203.12 40.6679 206.05L142.781 191.114C142.609 189.593 142.429 188.013 142.207 186.358C139.696 163.874 136.616 137.492 134.763 115.913L134.773 115.912Z" fill="#CE9E93" stroke="black" stroke-width="4" stroke-linecap="round" stroke-linejoin="round"/>
<path d="M43.8903 133.079C33.0827 138.655 33.7775 117.52 39.6827 112.567C44.2339 108.743 50.7929 111.211 52.1 116.929C53.3582 122.461 49.4636 129.726 44.728 132.613C44.4435 132.782 44.1679 132.941 43.8913 133.089L43.8903 133.079Z" fill="#B57B71" stroke="black" stroke-width="4" stroke-linecap="round" stroke-linejoin="round"/>
</svg>
