<svg width="142" height="368" viewBox="0 0 142 368" fill="none" xmlns="http://www.w3.org/2000/svg">
<path d="M88.4556 268.989C88.4556 268.989 85.2856 285.879 71.2156 284.469C57.1456 283.059 52.5656 268.989 52.5656 268.989C52.5656 268.989 13.5156 270.049 12.8156 245.769C12.1156 221.499 33.5756 227.119 33.5756 227.119C33.5756 227.119 -10.3944 182.789 5.43564 168.019C5.43564 168.019 11.7656 163.449 21.9656 172.239C21.9656 172.239 7.89564 127.559 18.4456 120.529C28.9956 113.489 34.9756 127.919 34.9756 127.919C34.9756 127.919 26.9656 64.2393 45.2156 52.9893C45.2156 52.9893 54.3256 45.2493 60.3056 65.2993C60.3056 65.2993 71.2156 -3.30067 88.4456 2.32933C88.4456 2.32933 96.1856 0.919331 96.5356 25.5493C96.5356 25.5493 102.516 13.2393 110.956 18.8693C119.396 24.4993 110.956 74.4493 110.956 74.4493C110.956 74.4493 132.066 56.8593 131.356 103.999C131.356 103.999 131.356 115.959 126.426 131.089C126.426 131.089 136.276 126.869 138.736 149.029C141.196 171.189 122.906 190.539 122.906 190.539C122.906 190.539 139.436 188.079 135.216 218.329C135.216 218.329 132.756 225.009 127.826 233.449C128.796 231.799 134.046 234.439 135.106 235.069C137.776 236.649 139.506 238.869 139.436 242.139C139.356 246.189 136.686 250.409 133.316 252.589C132.156 253.339 117.486 256.979 117.616 255.619C116.906 263.139 113.276 270.149 105.106 270.859C104.036 270.949 88.2956 269.629 88.4156 268.989H88.4556Z" fill="#48C19B" stroke="black" stroke-width="4" stroke-linecap="round" stroke-linejoin="round"/>
<path d="M33.5757 227.129C33.5757 227.129 37.5457 211.769 50.2357 222.149" stroke="black" stroke-width="4" stroke-linecap="round" stroke-linejoin="round"/>
<path d="M34.9858 127.919C34.9858 127.919 38.1258 114.869 48.5058 119.479C58.8858 124.089 50.8158 162.739 50.8158 162.739" stroke="black" stroke-width="4" stroke-linecap="round" stroke-linejoin="round"/>
<path d="M110.976 74.4493C110.976 74.4493 102.726 57.1893 96.3758 60.0693C90.0358 62.9493 97.5258 108.519 97.5258 108.519" stroke="black" stroke-width="4" stroke-linecap="round" stroke-linejoin="round"/>
<path d="M122.936 190.539C122.936 190.539 126.376 174.269 116.566 171.389C106.756 168.509 96.3756 186.389 93.4956 210.609" stroke="black" stroke-width="4" stroke-linecap="round" stroke-linejoin="round"/>
<path d="M71.2155 284.469C57.1455 283.059 52.5655 268.989 52.5655 268.989C52.5655 268.989 50.6555 269.039 47.6855 268.859V365.379H93.7755V269.929C90.7955 269.599 88.4055 269.239 88.4555 268.989C88.4555 268.989 85.2855 285.879 71.2155 284.469Z" fill="#C19181" stroke="black" stroke-width="4" stroke-linecap="round" stroke-linejoin="round"/>
<path d="M60.1055 281.659V292.559" stroke="black" stroke-width="3" stroke-linecap="round" stroke-linejoin="round"/>
<path d="M81.5654 296.079V306.989" stroke="black" stroke-width="3" stroke-linecap="round" stroke-linejoin="round"/>
<path d="M68.1958 314.899V325.809" stroke="black" stroke-width="3" stroke-linecap="round" stroke-linejoin="round"/>
<path d="M60.1055 338.819V349.729" stroke="black" stroke-width="3" stroke-linecap="round" stroke-linejoin="round"/>
<path d="M81.5654 352.899V363.799" stroke="black" stroke-width="3" stroke-linecap="round" stroke-linejoin="round"/>
</svg>
