<svg width="48" height="73" viewBox="0 0 48 73" fill="none" xmlns="http://www.w3.org/2000/svg">
<path d="M2.01 70.124V27.274C2.01 27.274 2.81 -2.87598 28.29 2.68402C28.29 2.68402 44.48 5.59402 45.81 27.804V70.114H2L2.01 70.124Z" fill="#EA7878" stroke="black" stroke-width="4" stroke-linecap="round" stroke-linejoin="round"/>
<path d="M14.1501 44.244C13.8701 44.244 13.5901 44.224 13.3001 44.174C12.2001 43.994 11.2801 43.404 10.6401 42.484C9.33006 40.594 9.58006 37.844 9.86006 36.324C10.0801 34.674 11.3601 31.684 14.7801 31.684C15.1201 31.684 15.4701 31.714 15.8301 31.784L15.9301 31.804L16.0301 31.834C17.9401 32.374 20.4901 34.534 19.6801 38.274C18.5601 43.474 15.7301 44.244 14.1501 44.244Z" fill="#FF9999"/>
<path d="M14.7899 33.684C15.0099 33.684 15.2399 33.704 15.4899 33.744C15.4899 33.744 18.4299 34.574 17.7299 37.844C17.0899 40.804 15.8199 42.244 14.1499 42.244C13.9799 42.244 13.8099 42.234 13.6299 42.204C11.7099 41.884 11.3299 39.324 11.8399 36.634C11.8399 36.634 12.1699 33.694 14.7899 33.694M14.7899 29.684C10.7899 29.684 8.31986 32.844 7.88986 36.014C7.48986 38.214 7.36987 41.284 9.00987 43.624C9.94987 44.984 11.3699 45.874 12.9799 46.144C13.3699 46.214 13.7699 46.244 14.1599 46.244C15.9199 46.244 20.1799 45.504 21.6499 38.694C22.7499 33.604 19.2199 30.654 16.5899 29.904L16.3999 29.854L16.1999 29.814C15.7299 29.734 15.2599 29.684 14.7999 29.684H14.7899Z" fill="black"/>
</svg>
