<svg width="117" height="217" viewBox="0 0 117 217" fill="none" xmlns="http://www.w3.org/2000/svg">
<path d="M70.2302 70.12V27.28C70.2302 27.28 71.0302 -2.87 96.5102 2.69C96.5102 2.69 112.7 5.6 114.03 27.81V70.12H70.2202H70.2302Z" fill="#723030" stroke="black" stroke-width="4" stroke-linecap="round" stroke-linejoin="round"/>
<path d="M70.23 27.38C70.23 27.38 70.92 1.72 90.95 2.03V2H25.63C25.63 2 2 2 2 28.44V70.39H75.01L75.32 70.16L70.24 70.13V27.38H70.23Z" fill="#EA7878" stroke="black" stroke-width="4" stroke-linecap="round" stroke-linejoin="round"/>
<path d="M33.4098 49.98C33.3098 49.98 33.1998 49.98 33.0998 49.98C29.6698 49.94 26.6698 48.96 24.4098 47.16C21.9198 45.17 20.5298 42.42 20.3698 39.2C20.1698 35.01 22.2298 30.19 25.6098 26.91C31.1998 21.5 40.3598 20.88 46.4698 25.5C48.8598 27.31 50.1798 29.88 49.9998 32.39C49.7398 36.09 46.3398 40.31 37.6198 40.03C33.9098 39.91 30.0198 38.78 26.4698 36.81C26.2998 37.54 26.2298 38.25 26.2598 38.93C26.3298 40.45 26.9298 41.64 28.0898 42.57C29.2898 43.53 31.0998 44.08 33.1698 44.1C35.5998 44.13 38.3998 43.68 41.1398 42.83C42.6898 42.35 44.3398 43.22 44.8198 44.77C45.2998 46.32 44.4298 47.97 42.8798 48.45C40.5998 49.16 37.1298 49.98 33.3998 49.98H33.4098ZM29.2598 31.6C32.0198 33.15 34.9998 34.04 37.8198 34.13C40.3998 34.2 44.0298 33.51 44.1398 31.97C44.1698 31.5 43.6598 30.75 42.9298 30.19C39.1398 27.33 33.2198 27.75 29.7198 31.13C29.5598 31.28 29.4098 31.44 29.2598 31.6Z" fill="#FFD67B"/>
<path d="M74.8302 70.5H41.2002V199.46H74.8302V70.5Z" fill="#EA7878" stroke="black" stroke-width="4" stroke-linecap="round" stroke-linejoin="round"/>
<path d="M94.08 199.46H21.96V214.15H94.08V199.46Z" fill="#EA7878" stroke="black" stroke-width="4" stroke-linecap="round" stroke-linejoin="round"/>
</svg>
