<svg width="53" height="37" viewBox="0 0 53 37" fill="none" xmlns="http://www.w3.org/2000/svg">
<path d="M2 26.0976V6.06757C2 6.06757 2.76 2.00757 7.07 2.00757H44.08C44.08 2.00757 50.92 1.49757 50.92 8.84757V28.3676C50.92 28.3676 50.16 34.9576 44.33 34.9576H8.59C8.59 34.9576 2 34.4476 2 26.0876V26.0976Z" fill="#EAEAEA" stroke="black" stroke-width="4" stroke-miterlimit="10"/>
<path d="M2 7.84759C2 7.84759 21.77 21.0276 22.53 21.2776C23.29 21.5276 24.54 23.1376 29.63 23.3076C33.46 23.4276 35.97 20.0076 35.97 20.0076L49.87 4.71759" stroke="black" stroke-width="4" stroke-miterlimit="10"/>
<path d="M2.37988 29.2875C2.81988 28.6675 16.3199 17.1675 16.3199 17.1675" stroke="black" stroke-width="4" stroke-miterlimit="10"/>
<path d="M38.2402 17.5076L50.3702 27.9076" stroke="black" stroke-width="4" stroke-miterlimit="10"/>
</svg>
