<svg width="324" height="426" viewBox="0 0 324 426" fill="none" xmlns="http://www.w3.org/2000/svg">
<path d="M200.645 313.605C200.645 313.605 154.225 355.505 94.2753 330.365C34.3253 305.225 45.9253 261.385 45.9253 261.385C45.9253 261.385 -10.1647 247.845 7.24525 187.245C7.24525 187.245 -12.7347 144.695 25.2953 133.735C25.2953 133.735 16.2653 91.1846 48.5053 55.0846C80.7353 18.9846 117.485 30.5846 117.485 30.5846C117.485 30.5846 152.945 -18.4054 218.695 11.8846C218.695 11.8846 270.265 35.0946 279.295 70.5446C279.295 70.5446 304.435 81.5046 294.125 111.155C294.125 111.155 332.775 136.305 317.235 196.925C317.235 196.925 326.955 210.955 316.205 237.715C305.455 264.475 282.515 268.445 282.515 268.445C282.515 268.445 283.155 307.125 256.085 318.085C229.005 329.045 200.645 313.575 200.645 313.575V313.605Z" fill="#48C19B" stroke="black" stroke-width="4" stroke-linecap="round" stroke-linejoin="round"/>
<path d="M120.425 337.535V423.845H220.345V320.455C208.705 318.005 200.635 313.615 200.635 313.615C200.635 313.615 167.195 343.785 120.415 337.535H120.425Z" fill="#C19181" stroke="black" stroke-width="4" stroke-linecap="round" stroke-linejoin="round"/>
<path d="M141.375 340.205V356.315" stroke="black" stroke-width="3" stroke-linecap="round" stroke-linejoin="round"/>
<path d="M201.335 361.795V377.915" stroke="black" stroke-width="3" stroke-linecap="round" stroke-linejoin="round"/>
<path d="M180.215 350.355V366.475" stroke="black" stroke-width="3" stroke-linecap="round" stroke-linejoin="round"/>
<path d="M156.525 368.725V384.845" stroke="black" stroke-width="3" stroke-linecap="round" stroke-linejoin="round"/>
<path d="M136.865 386.775V402.895" stroke="black" stroke-width="3" stroke-linecap="round" stroke-linejoin="round"/>
<path d="M193.405 405.065V421.175" stroke="black" stroke-width="3" stroke-linecap="round" stroke-linejoin="round"/>
<path d="M26.9258 133.765C26.9258 133.765 38.2958 131.495 50.8158 139.455" stroke="black" stroke-width="4" stroke-linecap="round" stroke-linejoin="round"/>
<path d="M113.755 36.4846L117.485 30.6046" stroke="black" stroke-width="4" stroke-linecap="round" stroke-linejoin="round"/>
<path d="M290.065 123.535L294.735 109.275" stroke="black" stroke-width="4" stroke-linecap="round" stroke-linejoin="round"/>
<path d="M279.065 252.445C279.065 252.445 283.065 260.215 282.515 268.485" stroke="black" stroke-width="4" stroke-linecap="round" stroke-linejoin="round"/>
<path d="M45.9258 261.395C45.9258 261.395 53.4658 264.205 58.3958 263.445" stroke="black" stroke-width="4" stroke-linecap="round" stroke-linejoin="round"/>
</svg>
