<svg width="186" height="176" viewBox="0 0 186 176" fill="none" xmlns="http://www.w3.org/2000/svg">
<path d="M104.187 126.892C104.167 125.202 111.247 125.842 112.417 125.972C120.257 126.872 126.487 132.762 127.487 140.632C128.587 149.292 122.847 158.452 114.987 162.122C110.817 164.062 105.987 163.342 101.537 161.782C92.3975 158.582 91.8474 152.872 91.6674 152.972C91.6674 152.972 78.8175 160.002 70.7575 145.392C66.6475 137.932 67.2475 128.262 71.7875 121.112C75.9175 114.612 83.3575 110.742 91.0075 112.372C97.9975 113.862 104.057 119.442 104.177 126.892H104.187Z" fill="#FF6C7E" stroke="black" stroke-width="6" stroke-linecap="round" stroke-linejoin="round"/>
<path d="M120.758 113.422C120.758 113.422 115.967 106.672 104.188 126.892" stroke="black" stroke-width="6" stroke-linecap="round" stroke-linejoin="round"/>
<path d="M30.197 60.12C20.627 55.41 9.72694 66.63 9.04694 75.74C8.23694 86.54 18.037 96.43 28.687 96.43C36.107 96.43 43.3269 91.84 46.4869 85.12C55.3269 87.01 65.3369 79.03 67.6669 70.74C72.6269 53.12 40.7068 33.43 31.4568 52.94C31.0668 53.75 29.077 59.57 30.197 60.12Z" fill="#FF6C7E" stroke="black" stroke-width="6" stroke-linecap="round" stroke-linejoin="round"/>
<path d="M23.3067 41C23.3067 41 20.4668 44.8 30.1968 60.12" stroke="black" stroke-width="6" stroke-linecap="round" stroke-linejoin="round"/>
<path d="M153.208 35.67C153.208 35.67 155.058 21.83 138.988 18.9C129.758 17.22 116.428 24.92 112.888 36.71C109.128 49.24 117.868 62.28 128.528 62.46C127.548 62.44 130.268 71.53 130.648 72.29C132.788 76.52 137.948 83.87 146.158 84.76C159.418 86.19 171.528 74.15 173.338 60.06C174.358 52.11 171.088 45.26 165.348 41.29C164.418 40.65 153.338 34.58 153.198 35.67H153.208Z" fill="#FF6C7E" stroke="black" stroke-width="6" stroke-linecap="round" stroke-linejoin="round"/>
<path d="M153.208 35.67C153.208 35.67 167.208 27.28 166.428 18" stroke="black" stroke-width="6" stroke-linecap="round" stroke-linejoin="round"/>
</svg>
