<svg width="179" height="165" viewBox="0 0 179 165" fill="none" xmlns="http://www.w3.org/2000/svg">
<path d="M102.187 122.892C102.167 121.202 109.247 121.842 110.417 121.972C118.257 122.872 124.487 128.762 125.487 136.632C126.587 145.292 120.847 154.452 112.987 158.122C108.817 160.062 103.987 159.342 99.5375 157.782C90.3975 154.582 89.8474 148.872 89.6674 148.972C89.6674 148.972 76.8175 156.002 68.7575 141.392C64.6475 133.932 65.2475 124.262 69.7875 117.112C73.9175 110.612 81.3575 106.742 89.0075 108.372C95.9975 109.862 102.057 115.442 102.177 122.892H102.187Z" fill="#FF6C7E" stroke="black" stroke-width="5" stroke-linecap="round" stroke-linejoin="round"/>
<path d="M118.758 109.422C118.758 109.422 113.967 102.672 102.188 122.892" stroke="black" stroke-width="5" stroke-linecap="round" stroke-linejoin="round"/>
<path d="M28.197 56.12C18.627 51.41 7.72694 62.63 7.04694 71.74C6.23694 82.54 16.037 92.43 26.687 92.43C34.107 92.43 41.3269 87.84 44.4869 81.12C53.3269 83.01 63.3369 75.03 65.6669 66.74C70.6269 49.12 38.7068 29.43 29.4568 48.94C29.0668 49.75 27.077 55.57 28.197 56.12Z" fill="#FF6C7E" stroke="black" stroke-width="5" stroke-linecap="round" stroke-linejoin="round"/>
<path d="M21.3067 37C21.3067 37 18.4668 40.8 28.1968 56.12" stroke="black" stroke-width="5" stroke-linecap="round" stroke-linejoin="round"/>
<path d="M151.208 31.67C151.208 31.67 153.058 17.83 136.988 14.9C127.758 13.22 114.428 20.92 110.888 32.71C107.128 45.24 115.868 58.28 126.528 58.46C125.548 58.44 128.268 67.53 128.648 68.29C130.788 72.52 135.948 79.87 144.158 80.76C157.418 82.19 169.528 70.15 171.338 56.06C172.358 48.11 169.088 41.26 163.348 37.29C162.418 36.65 151.338 30.58 151.198 31.67H151.208Z" fill="#FF6C7E" stroke="black" stroke-width="5" stroke-linecap="round" stroke-linejoin="round"/>
<path d="M151.208 31.67C151.208 31.67 165.208 23.28 164.428 14" stroke="black" stroke-width="5" stroke-linecap="round" stroke-linejoin="round"/>
</svg>
