<svg width="169" height="150" viewBox="0 0 169 150" fill="none" xmlns="http://www.w3.org/2000/svg">
<path d="M97.1874 110.892C97.1674 109.202 104.247 109.842 105.417 109.972C113.257 110.872 119.487 116.762 120.487 124.632C121.587 133.292 115.847 142.452 107.987 146.122C103.817 148.062 98.9875 147.342 94.5375 145.782C85.3975 142.582 84.8474 136.872 84.6674 136.972C84.6674 136.972 71.8175 144.002 63.7575 129.392C59.6475 121.932 60.2475 112.262 64.7875 105.112C68.9175 98.6123 76.3575 94.7424 84.0075 96.3724C90.9975 97.8624 97.0574 103.442 97.1774 110.892H97.1874Z" fill="#FF6C7E" stroke="black" stroke-width="4" stroke-linecap="round" stroke-linejoin="round"/>
<path d="M113.758 97.4224C113.758 97.4224 108.967 90.6724 97.1875 110.892" stroke="black" stroke-width="4" stroke-linecap="round" stroke-linejoin="round"/>
<path d="M23.197 44.1201C13.627 39.4101 2.72694 50.6301 2.04694 59.7401C1.23694 70.5401 11.037 80.4301 21.687 80.4301C29.107 80.4301 36.3269 75.8401 39.4869 69.1201C48.3269 71.0101 58.3369 63.0301 60.6669 54.7401C65.6269 37.1201 33.7068 17.4301 24.4568 36.9401C24.0668 37.7501 22.077 43.5701 23.197 44.1201Z" fill="#FF6C7E" stroke="black" stroke-width="4" stroke-linecap="round" stroke-linejoin="round"/>
<path d="M16.3067 25.0001C16.3067 25.0001 13.4668 28.8001 23.1968 44.1201" stroke="black" stroke-width="4" stroke-linecap="round" stroke-linejoin="round"/>
<path d="M146.208 19.6701C146.208 19.6701 148.058 5.83015 131.988 2.90015C122.758 1.22015 109.428 8.92015 105.888 20.7102C102.128 33.2402 110.868 46.2802 121.528 46.4602C120.548 46.4402 123.268 55.5301 123.648 56.2901C125.788 60.5201 130.948 67.8702 139.158 68.7602C152.418 70.1902 164.528 58.1502 166.338 44.0602C167.358 36.1102 164.088 29.2601 158.348 25.2901C157.418 24.6501 146.338 18.5801 146.198 19.6701H146.208Z" fill="#FF6C7E" stroke="black" stroke-width="4" stroke-linecap="round" stroke-linejoin="round"/>
<path d="M146.208 19.6701C146.208 19.6701 160.208 11.2801 159.428 2.00012" stroke="black" stroke-width="4" stroke-linecap="round" stroke-linejoin="round"/>
</svg>
