<svg width="1920" height="1080" viewBox="0 0 1920 1080" fill="none" xmlns="http://www.w3.org/2000/svg">
<g clip-path="url(#clip0_2030_435)">
<path d="M-595 383.586C-595 383.586 91.97 383.586 92.09 383.586C90.22 383.586 72.8801 341.496 71.1801 338.366C53.7701 306.236 32.18 275.846 5.39001 250.846C-17.56 229.426 -45.01 212.496 -75.14 203.356C-97.82 196.476 -139.22 186.986 -152.86 214.306C-163.16 234.946 -146.18 260.766 -134.56 276.786C-134.56 276.786 -339.86 92.8559 -594.99 383.586H-595Z" fill="#68BC8C" stroke="black" stroke-width="4" stroke-linecap="round" stroke-linejoin="round"/>
<path d="M1405.59 383.53H1945.31C1945.31 383.53 1909.42 274.52 1866.88 319.06C1866.88 319.06 1880.84 250.6 1817.03 239.3C1753.22 228 1722.65 284.5 1722.65 284.5C1722.65 284.5 1743.92 205.4 1651.53 202.08C1559.14 198.76 1474.72 312.42 1474.72 312.42C1474.72 312.42 1432.85 272.54 1395.62 291.81C1358.4 311.09 1381 374.9 1405.59 383.54V383.53Z" fill="#68BC8C" stroke="black" stroke-width="4" stroke-linecap="round" stroke-linejoin="round"/>
<path d="M1532.46 323.85C1532.46 323.85 1543.26 308.73 1549.74 317.37C1556.22 326.01 1538.4 332.49 1538.4 332.49C1538.4 332.49 1560.54 330.33 1560 335.73C1559.46 341.13 1538.94 341.67 1538.94 341.67C1538.94 341.67 1555.68 356.79 1540.02 357.87C1524.36 358.95 1522.2 345.99 1522.2 345.99C1522.2 345.99 1512.48 356.25 1505.46 348.69C1498.44 341.13 1515.72 331.41 1515.72 331.41C1515.72 331.41 1501.14 316.83 1510.86 314.13C1520.58 311.43 1532.46 323.85 1532.46 323.85Z" fill="#FFE964" stroke="black" stroke-width="4" stroke-linecap="round" stroke-linejoin="round"/>
<path d="M1823.16 287.34H1795.53" stroke="black" stroke-width="4" stroke-linecap="round" stroke-linejoin="round"/>
<path d="M1816.88 275.91L1802.65 300.99" stroke="black" stroke-width="4" stroke-linecap="round" stroke-linejoin="round"/>
<path d="M1800.13 275.91L1822.74 301.94" stroke="black" stroke-width="4" stroke-linecap="round" stroke-linejoin="round"/>
<path d="M158.88 383.82H631.06C631.06 383.82 589.05 266.2 475.63 266.2C475.63 266.2 399.17 265.36 394.13 301.49C394.13 301.49 279.03 242.68 158.88 383.83V383.82Z" fill="#68BC8C" stroke="black" stroke-width="4" stroke-linecap="round" stroke-linejoin="round"/>
<path d="M17.0398 383.74H337.96C337.96 383.74 356.45 336.77 295.7 333.36C234.95 329.94 221.74 356.42 221.74 356.42C221.74 356.42 211.17 310.31 127.97 311.16C44.7798 312 15.7198 358.12 17.0398 383.74Z" fill="#68BC8C" stroke="black" stroke-width="4" stroke-linecap="round" stroke-linejoin="round"/>
<path d="M358.08 785.274C358.08 785.274 401.11 762.771 446.19 785.274C446.19 785.274 486.14 762.377 536.34 785.274" stroke="black" stroke-width="4" stroke-linecap="round" stroke-linejoin="round"/>
<path d="M1433.86 933.41H1558.78C1558.78 933.41 1565.94 933.41 1567.96 924.571C1569.97 915.731 1563.93 896.968 1542.66 895.863C1521.39 894.758 1515.35 903.814 1515.35 903.814C1515.35 903.814 1522.29 883.058 1505.95 882.17C1489.61 881.282 1476.62 899.839 1475.5 910.217C1475.5 910.217 1429.61 910.434 1421.1 926.563C1421.1 926.563 1418.64 933.41 1433.86 933.41Z" fill="#4FAF86" stroke="black" stroke-width="4" stroke-linecap="round" stroke-linejoin="round"/>
<path d="M510.01 896.011C510.01 896.011 510.01 883.817 506.09 883.048C502.17 882.278 496.67 899.109 501.19 912.663C505.71 926.218 516.88 930.657 526.89 924.077C536.9 917.497 540.62 893.308 534.93 879.95C534.93 879.95 532.97 876.271 530.22 881.302C527.47 886.333 523.35 896.593 523.35 896.593C523.35 896.593 525.7 874.919 521 873.952C516.29 872.985 510.01 896.011 510.01 896.011Z" fill="#FFD88A" stroke="black" stroke-width="4" stroke-linecap="round" stroke-linejoin="round"/>
<path d="M536.71 946.274C536.71 946.274 526.89 964.929 518.5 963.884C518.5 963.884 516.7 964.189 515.49 962.956C516.07 962.433 516.53 961.526 516.71 960.076C516.71 960.076 516.54 959.148 516.15 957.55C518.02 951.641 522.44 940.612 532.12 928.102C546.53 909.418 547.86 910.463 549.41 910.937C550.95 911.41 548.95 923.318 536.71 946.284V946.274Z" fill="#88D1B3" stroke="black" stroke-width="4" stroke-linecap="round" stroke-linejoin="round"/>
<path d="M516.72 960.066C516.54 961.516 516.08 962.424 515.5 962.946C513.68 964.604 510.65 962.65 510.65 962.65C486.13 946.846 485.73 926.583 485.73 922.509C485.73 918.435 489.07 920.575 489.07 920.575C507.56 929.474 514.32 950.299 516.17 957.54C516.57 959.138 516.73 960.066 516.73 960.066H516.72Z" fill="#88D1B3" stroke="black" stroke-width="4" stroke-linecap="round" stroke-linejoin="round"/>
<path d="M518.54 951.088V926.998C517.31 927.076 516.1 926.997 514.91 926.78V953.298C515.45 954.965 515.87 956.425 516.15 957.54C516.7 955.804 517.47 953.614 518.53 951.088H518.54Z" stroke="black" stroke-width="4" stroke-linecap="round" stroke-linejoin="round"/>
<path d="M1669.19 450.024C1669.19 450.024 1689.17 410.099 1685.18 450.024C1685.18 450.024 1711.16 411.086 1706.66 450.024C1706.66 450.024 1729.14 415.032 1725.14 450.024" stroke="black" stroke-width="4" stroke-linecap="round" stroke-linejoin="round"/>
<path d="M499.52 513.033C499.52 513.033 549.13 500.011 579.06 513.033C579.06 513.033 619.22 493.697 664.9 513.033C664.9 513.033 711.36 494.881 751.53 513.033" stroke="black" stroke-width="4" stroke-linecap="round" stroke-linejoin="round"/>
<path d="M252.44 1084.42C252.44 1084.42 244 1046.38 249.95 1022.53C255.9 998.689 274.7 1008.72 264.34 1038.05C264.34 1038.05 280.84 1004.36 291.2 1015.53C301.56 1026.7 252.45 1084.42 252.45 1084.42H252.44Z" fill="#68BC8C" stroke="black" stroke-width="4" stroke-linecap="round" stroke-linejoin="round"/>
<path d="M252.64 1085.93C252.64 1085.93 316.52 990.353 328.23 998.492C339.94 1006.63 302.33 1044.11 302.33 1044.11C302.33 1044.11 318.45 1025.94 324.39 1034.08C330.34 1042.21 294.46 1078.93 252.64 1085.94V1085.93Z" fill="#68BC8C" stroke="black" stroke-width="4" stroke-linecap="round" stroke-linejoin="round"/>
<path d="M251.1 1089.9C251.1 1089.9 247.07 1003.22 226.93 999.054C206.79 994.891 223.09 1045.05 223.09 1045.05C223.09 1045.05 209.47 1032.17 201.03 1040.88C192.59 1049.59 209.47 1069.09 251.1 1089.9Z" fill="#68BC8C" stroke="black" stroke-width="4" stroke-linecap="round" stroke-linejoin="round"/>
<path d="M248.42 1090.66C248.42 1090.66 219.83 1062.27 179.16 1061.32C138.49 1060.38 165.54 1098.04 208.51 1088.96C208.51 1088.96 193.16 1092.17 200.64 1100.88C208.12 1109.58 248.41 1090.66 248.41 1090.66H248.42Z" fill="#68BC8C" stroke="black" stroke-width="4" stroke-linecap="round" stroke-linejoin="round"/>
<path d="M252.83 1089.15C252.83 1089.15 324.77 1050.35 333.79 1059.81C342.81 1069.27 310.58 1080.44 310.58 1080.44C310.58 1080.44 330.92 1076.65 331.87 1086.87C332.83 1097.09 290.24 1103.71 252.83 1089.14V1089.15Z" fill="#68BC8C" stroke="black" stroke-width="4" stroke-linecap="round" stroke-linejoin="round"/>
<path d="M228.86 1054.9L239.55 1074.01" stroke="black" stroke-width="3" stroke-linecap="round" stroke-linejoin="round"/>
<path d="M260.92 1048.32L257.58 1060.5" stroke="black" stroke-width="3" stroke-linecap="round" stroke-linejoin="round"/>
<path d="M293.64 1051.94L280.62 1063.47" stroke="black" stroke-width="3" stroke-linecap="round" stroke-linejoin="round"/>
<path d="M83 785.728C83 785.728 85.96 772.755 93.89 773.445C101.82 774.136 102.69 782.896 102.69 782.896C102.69 782.896 104.52 772.41 112.18 772.41C119.84 772.41 119.5 784.05 119.5 784.05C119.5 784.05 122.29 772.844 131.61 773.1C140.93 773.357 141.19 787.967 141.19 787.967" stroke="black" stroke-width="4" stroke-linecap="round" stroke-linejoin="round"/>
<path d="M1529.53 716.572C1529.53 716.572 1532.53 705.622 1542.2 707.684C1542.2 707.684 1548.21 707.812 1550.04 715.033C1550.04 715.033 1551.61 705.622 1560.23 705.622C1568.85 705.622 1569.11 714.649 1569.11 714.649C1569.11 714.649 1571.07 706.914 1580.74 708.463C1590.41 710.012 1589.89 719.936 1589.89 719.936" stroke="black" stroke-width="4" stroke-linecap="round" stroke-linejoin="round"/>
<path d="M375.59 502.951C375.59 502.951 384.5 481.09 359.45 476.818C359.45 476.818 355.36 475.871 354.39 479.195C353.43 482.52 347.89 502.241 372.7 504.145C372.7 504.145 374.81 504.677 375.59 502.961V502.951Z" fill="#4FAF86" stroke="black" stroke-width="4" stroke-miterlimit="10"/>
<path d="M378.01 502.556C378.01 502.556 373.33 479.452 398.75 479.797C398.75 479.797 402.95 479.61 403.28 483.053C403.61 486.496 405.37 506.887 380.63 504.243C380.63 504.243 378.46 504.381 378.01 502.546V502.556Z" fill="#4FAF86" stroke="black" stroke-width="4" stroke-miterlimit="10"/>
<path d="M376.53 522.533V505.18" stroke="black" stroke-width="4" stroke-miterlimit="10"/>
<path d="M965.14 886.323C965.14 886.323 962.68 871.072 943.69 880.848C943.69 880.848 935.8 884.755 941.35 889.066C941.35 889.066 956.42 903.933 965.14 886.323Z" fill="#4FAF86" stroke="black" stroke-width="4" stroke-miterlimit="10"/>
<path d="M967.131 886.254C967.131 886.254 976.651 869.118 990.121 874.593C990.121 874.593 993.291 874.307 992.501 877.583C991.711 880.858 991.311 899.089 967.131 886.254Z" fill="#4FAF86" stroke="black" stroke-width="4" stroke-miterlimit="10"/>
<path d="M967.131 909.793V888.671" stroke="black" stroke-width="4" stroke-miterlimit="10"/>
<path d="M111.23 960.224C111.23 960.224 108.77 944.972 89.7802 954.748C89.7802 954.748 81.8902 958.655 87.4402 962.966C87.4402 962.966 102.51 977.833 111.23 960.224Z" fill="#4FAF86" stroke="black" stroke-width="4" stroke-miterlimit="10"/>
<path d="M113.21 960.155C113.21 960.155 122.73 943.019 136.2 948.494C136.2 948.494 139.37 948.208 138.58 951.483C137.79 954.758 137.39 972.989 113.21 960.155Z" fill="#4FAF86" stroke="black" stroke-width="4" stroke-miterlimit="10"/>
<path d="M113.21 983.693V962.572" stroke="black" stroke-width="4" stroke-miterlimit="10"/>
<path d="M713.21 869.996C713.21 869.996 739.74 854.991 765.87 869.592C765.87 869.592 789.91 853.61 820.21 869.592" stroke="black" stroke-width="4" stroke-linecap="round" stroke-linejoin="round"/>
<path d="M1800.98 548.331C1800.98 548.331 1836.03 526.43 1865.79 548.331C1865.79 548.331 1894.11 524.921 1928.2 550.215" stroke="black" stroke-width="4" stroke-linecap="round" stroke-linejoin="round"/>
<path d="M1124.57 922.667C1124.57 922.667 1145.83 909.378 1163.89 922.667C1163.89 922.667 1181.07 908.461 1201.75 923.811" stroke="black" stroke-width="4" stroke-linecap="round" stroke-linejoin="round"/>
<path d="M174.34 565.25C174.34 565.25 177.11 560.751 182.92 561.817C188.73 562.882 190.97 566.315 185.46 576.812C179.95 587.308 174.32 584.161 171.51 581.409C168.7 578.657 170.16 572.047 170.16 572.047C170.16 572.047 165.5 570.044 166.89 566.769C168.29 563.494 174.33 565.26 174.33 565.26L174.34 565.25Z" fill="#C19181" stroke="black" stroke-width="4" stroke-linecap="round" stroke-linejoin="round"/>
<path d="M185.46 576.812C188.23 571.544 189.04 568.052 188.42 565.743C191.93 566.838 202.89 571.199 201.94 582.849C201.94 582.849 194.03 594.589 179.43 583.56C181.36 582.701 183.41 580.689 185.46 576.802V576.812Z" fill="#91665A" stroke="black" stroke-width="4" stroke-linecap="round" stroke-linejoin="round"/>
<path d="M1565.1 800.762C1565.1 800.762 1558.4 797.398 1553.61 802.824C1548.82 808.25 1562.99 819.615 1562.99 819.615C1562.99 819.615 1566.19 822.16 1569.56 820.207C1572.93 818.253 1573.88 813.656 1570.91 808.487C1571.05 808.733 1573.48 806.099 1573.6 805.902C1575.18 803.347 1574.41 798.799 1570.78 798.75C1568.81 798.72 1566.71 799.697 1565.1 800.772V800.762Z" fill="#C19181" stroke="black" stroke-width="4" stroke-linecap="round" stroke-linejoin="round"/>
<path d="M1562.99 819.615C1562.99 819.615 1554.23 812.591 1552.82 806.948C1548.74 810.124 1542.51 816.714 1546.14 825.406C1546.14 825.406 1552.12 830.871 1564.48 820.453C1563.56 820.078 1562.99 819.624 1562.99 819.624V819.615Z" fill="#91665A" stroke="black" stroke-width="4" stroke-linecap="round" stroke-linejoin="round"/>
<path d="M1801.91 449.383C1801.91 449.383 1807.47 442.142 1811.05 446.709C1814.63 451.267 1808.12 455.854 1808.12 455.854C1808.12 455.854 1815.25 468.235 1809.15 473.197C1803.05 478.16 1785.67 460.087 1785.67 460.087C1785.67 460.087 1778.75 454.325 1787.16 450.044C1795.57 445.762 1801.92 449.383 1801.92 449.383H1801.91Z" fill="#C19181" stroke="black" stroke-width="4" stroke-linecap="round" stroke-linejoin="round"/>
<path d="M1804.32 473.72C1796.75 471.609 1785.66 460.087 1785.66 460.087C1785.66 460.087 1784.52 459.13 1783.73 457.719C1783.73 457.719 1775.73 467.693 1784.92 480.3C1784.92 480.3 1798.49 483.615 1804.31 473.72H1804.32Z" fill="#91665A" stroke="black" stroke-width="4" stroke-linecap="round" stroke-linejoin="round"/>
<path d="M223.67 379.134C223.67 379.134 229.01 369.229 232.88 372.761C236.75 376.283 229.1 387.717 229.1 387.717C229.1 387.717 236 381.857 237.55 384.639C239.1 387.421 232.21 394.544 232.21 394.544C232.21 394.544 240.42 393.241 238.65 399.072C236.88 404.902 224.8 401.163 224.8 401.163C224.8 401.163 224.57 407.497 216.1 407.033C207.63 406.569 212.47 398.943 212.47 398.943C212.47 398.943 201.44 400.009 201.92 392.669C202.4 385.32 213.19 387.046 213.19 387.046C213.19 387.046 202.88 378.236 213.64 373.373C224.4 368.509 223.68 379.144 223.68 379.144L223.67 379.134Z" fill="#FFC2DB" stroke="black" stroke-width="4" stroke-linecap="round" stroke-linejoin="round"/>
<path d="M219.12 392.827C219.12 392.827 216.27 386.76 220.37 385.981C224.47 385.201 225.28 392.541 225.28 392.541C225.28 392.541 225.55 395.076 223.24 396.092C220.93 397.109 220.25 395.382 219.12 392.817V392.827Z" fill="#FFEDA1"/>
<path d="M215.89 407.615C215.89 407.615 210.36 418.279 215.05 431.548" stroke="black" stroke-width="4" stroke-linecap="round" stroke-linejoin="round"/>
<path d="M238.43 410.723C238.32 413.771 238.16 420.933 233.3 426.162C230.59 429.101 226.37 431.439 219.87 432.081C219.87 432.081 215.19 434.261 213.99 432.179C213.81 431.883 213.7 431.479 213.7 430.966C213.7 430.966 215.73 413.485 231.12 409.233C231.12 409.233 238.61 405.967 238.43 410.703V410.723Z" fill="#A9FFD4" stroke="black" stroke-width="4" stroke-miterlimit="10"/>
<path d="M248.16 434.606C248.16 434.606 242.61 441.107 231.64 441.157C220.67 441.206 214.49 434.764 214.49 434.764C214.49 434.764 213.51 433.432 213.98 432.189C215.18 434.271 219.86 432.091 219.86 432.091C226.36 431.449 230.58 429.111 233.29 426.171C237.17 426.487 241.62 427.661 246.61 430.246C246.61 430.246 249.7 432.14 248.16 434.606Z" fill="#A9FFD4" stroke="black" stroke-width="4" stroke-miterlimit="10"/>
<path d="M213.69 430.986C214.07 435.968 211.58 435.05 211.11 434.823C211.06 434.803 211.02 434.784 211.02 434.784C208.83 434.004 206.67 432.752 204.64 431.222C196.84 425.333 190.71 415.28 189.93 412.104C188.93 408.128 192.21 408.483 192.21 408.483C216.08 406.668 213.69 430.986 213.69 430.986Z" fill="#A9FFD4" stroke="black" stroke-width="4" stroke-miterlimit="10"/>
<path d="M211.11 434.813C208.34 438.947 202.51 447.135 186.06 448.97C186.06 448.97 183.18 448.21 185.08 445.557C186.76 443.199 189.33 434.448 204.64 431.222C206.67 432.752 208.83 434.004 211.02 434.784C211.02 434.784 211.06 434.804 211.11 434.823V434.813Z" fill="#A9FFD4" stroke="black" stroke-width="4" stroke-miterlimit="10"/>
<path d="M825.86 790.502C825.86 790.502 840.98 779.315 843.68 790.502C843.68 790.502 861.5 778.25 863.12 789.97C863.12 789.97 880.4 776.652 879.32 789.97" stroke="black" stroke-width="4" stroke-linecap="round" stroke-linejoin="round"/>
<g clip-path="url(#clip1_2030_435)">
<path d="M1646.58 629.58C1646.58 629.58 1636.91 633.88 1631.13 627.43C1625.35 620.98 1625.35 587.66 1635.43 591.42C1635.43 591.42 1638.52 590.61 1638.92 602.44C1638.92 602.44 1643.35 582.82 1648.32 586.45C1653.29 590.08 1647.65 611.17 1647.65 611.17C1647.65 611.17 1652.89 598.27 1655.71 599.75C1658.53 601.23 1658.13 625.41 1646.57 629.58H1646.58Z" fill="#FF83B3" stroke="black" stroke-width="4" stroke-linecap="round" stroke-linejoin="round"/>
<path d="M1658.79 636.53C1658.62 638.54 1656.81 651.2 1645.19 663.34C1645.19 663.34 1643.78 664.99 1641.37 664.8C1641.37 664.8 1641.23 664.78 1641.03 664.71C1642.35 664.4 1642.25 662.87 1642.25 662.87C1642.25 662.87 1641.92 661.06 1641.07 658.18C1643.22 650.07 1648.56 634.51 1657.68 635.24C1657.68 635.24 1658.9 635.31 1658.79 636.54V636.53Z" fill="#88D1B3" stroke="black" stroke-width="4" stroke-linecap="round" stroke-linejoin="round"/>
<path d="M1641.03 664.71C1640.86 664.76 1640.67 664.78 1640.45 664.77C1638.51 664.71 1636.84 663.31 1636.84 663.31C1621.19 649.79 1620.44 634.84 1621.19 631.04C1621.96 627.24 1625.14 631.04 1625.14 631.04C1634.59 639.78 1639.16 651.68 1641.07 658.17C1641.92 661.05 1642.25 662.86 1642.25 662.86C1642.25 662.86 1642.35 664.4 1641.03 664.7V664.71Z" fill="#88D1B3" stroke="black" stroke-width="4" stroke-linecap="round" stroke-linejoin="round"/>
<path d="M1642.84 652.36V630.67C1641.66 630.89 1640.28 631.03 1638.84 630.95V651.76C1639.81 654.19 1640.55 656.39 1641.08 658.17C1641.53 656.48 1642.11 654.47 1642.84 652.35V652.36Z" fill="#88D1B3" stroke="black" stroke-width="4" stroke-linecap="round" stroke-linejoin="round"/>
</g>
</g>
<defs>
<clipPath id="clip0_2030_435">
<rect width="1920" height="1080" fill="white"/>
</clipPath>
<clipPath id="clip1_2030_435">
<rect width="41.8" height="82.81" fill="white" transform="translate(1619 584)"/>
</clipPath>
</defs>
</svg>
