<svg width="232" height="340" viewBox="0 0 232 340" fill="none" xmlns="http://www.w3.org/2000/svg">
<path d="M84.5809 337.68C83.8309 337.68 83.0509 337.61 82.2509 337.48C70.9909 335.6 16.7109 327.82 16.1709 327.75C14.2109 327.41 4.61095 325.5 2.46095 320.86C1.97095 319.79 1.62093 318.1 2.79093 316.11C8.83093 305.7 19.6209 300.42 34.8709 300.42C37.6409 300.42 40.5909 300.6 43.6309 300.96L96.6909 308.78C97.2109 308.86 97.6909 309.14 98.0009 309.57C98.3209 310 98.4509 310.53 98.3709 311.05L96.5709 323.26C96.3309 328.32 93.5209 337.7 84.5709 337.7L84.5809 337.68Z" fill="#FCAECC"/>
<path d="M34.8707 302.41C37.4907 302.41 40.3307 302.57 43.4007 302.93L96.4007 310.74L94.5907 323.05C94.5907 323.05 94.0607 335.68 84.5807 335.68C83.9507 335.68 83.2807 335.62 82.5807 335.51C71.1607 333.61 16.4507 325.77 16.4507 325.77C16.4507 325.77 1.03073 323.06 4.51073 317.12C7.53073 311.91 14.9207 302.42 34.8707 302.42M34.8707 298.41C18.8607 298.41 7.48074 304.03 1.05074 315.1C-0.189265 317.22 -0.339268 319.57 0.640732 321.69C1.89073 324.39 4.88074 326.51 9.77074 328.15C12.8407 329.18 15.6407 329.68 15.7607 329.7C15.8007 329.7 15.8407 329.71 15.8807 329.72C16.4307 329.8 70.6807 337.58 81.9207 339.45C82.8307 339.6 83.7207 339.68 84.5807 339.68C94.9807 339.68 98.2707 329.19 98.5807 323.44L100.361 311.33C100.681 309.14 99.1707 307.11 96.9907 306.79L43.9907 298.98C43.9907 298.98 43.9107 298.97 43.8707 298.96C40.7507 298.6 37.7207 298.41 34.8707 298.41Z" fill="black"/>
<path d="M29.1509 294.25L52.2709 310.16" stroke="black" stroke-width="4" stroke-linecap="round" stroke-linejoin="round"/>
<path d="M41.2207 316.23L40.2007 288.18" stroke="black" stroke-width="4" stroke-linecap="round" stroke-linejoin="round"/>
<path d="M72.3108 226.18L44.8008 301.5L110.301 311.22L118.831 222.18L72.3108 226.18Z" fill="#7F7FDB" stroke="black" stroke-width="4" stroke-linecap="round" stroke-linejoin="round"/>
<path d="M136.041 76.49C139.441 78.13 143.331 79.08 147.481 79.08C151.071 79.08 154.461 78.37 157.521 77.12V89.56H136.041V76.49Z" fill="#EFD0C5" stroke="black" stroke-width="4" stroke-linecap="round" stroke-linejoin="round"/>
<path d="M143.61 83.58C134.75 83.58 126.88 79.34 122.84 72.45L111.41 70.17C110.6 70.01 109.98 69.37 109.83 68.56C109.68 67.75 110.05 66.94 110.75 66.5L120.02 60.77C120.53 51.14 127.42 42.3 137.48 38.54C140.74 37.32 144.11 36.71 147.5 36.71C153.34 36.71 158.94 38.61 163.18 41.99C164.23 41 165.48 40.23 166.85 39.72C168.09 39.25 169.39 39.02 170.71 39.02C175.29 39.02 179.44 41.9 181.05 46.19C183.18 51.89 180.28 58.26 174.58 60.39C173.42 60.83 172.19 61.05 170.93 61.07C169.79 70.08 163.07 78.22 153.62 81.75C150.37 82.97 147 83.58 143.6 83.58H143.61Z" fill="#EFD0C5"/>
<path d="M147.491 38.71C153.611 38.71 159.321 40.9 163.351 44.8C164.361 43.38 165.791 42.24 167.541 41.58C168.581 41.19 169.651 41.01 170.701 41.01C174.361 41.01 177.811 43.25 179.161 46.88C180.911 51.55 178.541 56.76 173.861 58.51C172.851 58.89 171.811 59.06 170.791 59.06C170.211 59.06 169.641 59.01 169.081 58.9C168.831 67.68 162.631 76.23 152.911 79.86C149.811 81.02 146.651 81.57 143.591 81.57C135.281 81.57 127.721 77.5199 124.121 70.6599L111.791 68.19L121.971 61.89C121.971 52.93 128.251 44.11 138.161 40.4C141.261 39.24 144.421 38.69 147.481 38.69M147.491 34.71C143.861 34.71 140.251 35.37 136.771 36.67C126.331 40.57 119.081 49.61 118.101 59.61L109.701 64.8C108.301 65.66 107.581 67.2899 107.871 68.9099C108.161 70.5299 109.411 71.8 111.021 72.12L121.591 74.2299C126.111 81.2699 134.371 85.56 143.611 85.56C147.241 85.56 150.851 84.8999 154.331 83.5999C163.901 80.0199 170.871 72 172.661 62.92C173.561 62.79 174.441 62.57 175.291 62.25C178.551 61.03 181.141 58.61 182.591 55.45C184.041 52.29 184.161 48.74 182.941 45.48C181.051 40.41 176.141 37.01 170.731 37.01C169.171 37.01 167.641 37.29 166.171 37.84C165.081 38.25 164.071 38.79 163.141 39.45C158.741 36.4 153.231 34.71 147.521 34.71H147.491Z" fill="black"/>
<path d="M127.571 57.87C121.901 57.87 117.371 55.17 115.751 50.83C114.601 47.75 115.081 44.32 117.101 41.15C119.011 38.17 122.101 35.76 125.801 34.38C127.951 33.58 130.151 33.17 132.341 33.17C133.781 33.17 135.181 33.35 136.501 33.71C136.731 33.77 137.111 33.85 137.581 33.85C138.371 33.85 139.441 33.64 139.991 32.65C142.781 27.64 147.321 23.76 152.771 21.73C155.701 20.64 158.691 20.08 161.671 20.08C162.421 20.08 163.171 20.12 163.901 20.19C164.421 20.26 164.831 20.29 165.221 20.29C167.351 20.29 168.941 19.36 170.221 17.37C173.661 11.61 179.521 6.94001 186.691 4.26001C190.701 2.76001 194.801 2 198.881 2C209.181 2 217.371 6.80999 220.271 14.55C224.401 25.6 216.061 38.97 201.681 44.35C197.651 45.86 193.381 46.65 189.351 46.65C184.851 46.65 180.641 45.67 177.191 43.83C176.621 43.52 176.131 43.36 175.791 43.36C175.251 43.36 174.681 43.81 173.531 45.16C171.251 47.81 167.931 50.01 163.911 51.51C161.001 52.6 158.011 53.15 155.041 53.15C150.941 53.15 147.061 52.05 144.101 50.04C144.031 50 143.931 49.94 143.751 49.94C143.191 49.94 142.491 50.38 142.181 50.79C140.261 53.34 137.401 55.42 134.131 56.64C131.971 57.45 129.771 57.85 127.571 57.85V57.87Z" fill="#FCAECC"/>
<path d="M198.891 4C207.961 4 215.741 8.13001 218.411 15.26C222.161 25.3 214.371 37.49 200.991 42.49C197.071 43.95 193.101 44.67 189.361 44.67C185.211 44.67 181.341 43.79 178.141 42.08C177.231 41.59 176.461 41.38 175.791 41.38C174.311 41.38 173.261 42.42 172.011 43.88C169.871 46.38 166.771 48.33 163.211 49.66C160.451 50.69 157.671 51.17 155.041 51.17C151.291 51.17 147.851 50.19 145.221 48.4C144.761 48.09 144.261 47.96 143.751 47.96C142.501 47.96 141.221 48.75 140.581 49.61C138.941 51.78 136.471 53.65 133.431 54.79C131.461 55.53 129.461 55.88 127.571 55.88C122.941 55.88 118.981 53.78 117.621 50.14C115.711 45.02 119.681 38.81 126.501 36.26C128.471 35.52 130.461 35.18 132.341 35.18C133.621 35.18 134.841 35.34 135.971 35.65C136.451 35.78 137.001 35.86 137.581 35.86C139.111 35.86 140.811 35.3 141.741 33.64C144.021 29.56 147.971 25.68 153.481 23.62C156.251 22.59 159.041 22.1 161.681 22.1C162.371 22.1 163.051 22.13 163.711 22.2C164.241 22.28 164.741 22.31 165.231 22.31C168.211 22.31 170.361 20.89 171.911 18.47C175.011 13.29 180.451 8.74999 187.401 6.14999C191.271 4.69999 195.191 4.01999 198.891 4.01999M198.891 0C194.571 0 190.241 0.799984 186.001 2.38998C178.431 5.21998 172.231 10.17 168.511 16.34C167.391 18.05 166.271 18.29 165.221 18.29C164.931 18.29 164.611 18.27 164.281 18.22C164.221 18.22 164.161 18.2 164.101 18.2C163.311 18.12 162.491 18.08 161.681 18.08C158.461 18.08 155.231 18.68 152.081 19.86C146.191 22.06 141.271 26.26 138.251 31.68C138.151 31.85 137.591 31.85 137.581 31.85C137.391 31.85 137.181 31.82 137.021 31.78C135.531 31.38 133.961 31.17 132.341 31.17C129.911 31.17 127.471 31.62 125.101 32.51C116.231 35.83 111.201 44.36 113.881 51.53C115.801 56.67 121.051 59.87 127.571 59.87C130.011 59.87 132.451 59.42 134.831 58.53C138.391 57.2 141.531 54.94 143.671 52.15C146.881 54.12 150.801 55.16 155.051 55.16C158.261 55.16 161.481 54.57 164.621 53.39C168.951 51.77 172.561 49.38 175.061 46.47C175.511 45.94 175.801 45.64 175.991 45.47C176.071 45.5 176.161 45.55 176.261 45.61C180.001 47.61 184.531 48.67 189.361 48.67C193.631 48.67 198.141 47.83 202.401 46.24C209.671 43.52 215.751 38.79 219.501 32.92C223.481 26.69 224.431 19.92 222.161 13.86C218.961 5.30999 210.051 0.0100098 198.901 0.0100098L198.891 0Z" fill="black"/>
<path d="M137.741 68.0599C139.508 68.0599 140.941 66.6272 140.941 64.8599C140.941 63.0926 139.508 61.6599 137.741 61.6599C135.973 61.6599 134.541 63.0926 134.541 64.8599C134.541 66.6272 135.973 68.0599 137.741 68.0599Z" fill="black"/>
<path d="M72.3309 337.66C70.4009 337.61 60.6309 337.13 57.8209 332.86C57.1709 331.88 56.5909 330.25 57.4509 328.11C62.6609 315 75.8709 307.74 95.6309 307.13L149.271 307.08C150.371 307.08 151.271 307.97 151.271 309.08V321.42C151.371 322.46 151.851 329.69 147.841 334.15C145.781 336.44 142.971 337.6 139.471 337.6H139.191C136.311 337.55 130.411 337.52 121.671 337.52C101.531 337.52 72.6809 337.66 72.3909 337.66C72.3909 337.66 72.3509 337.66 72.3409 337.66H72.3309Z" fill="#FCAECC"/>
<path d="M149.281 309.08V321.52C149.281 321.52 150.781 335.61 139.481 335.61C139.401 335.61 139.321 335.61 139.231 335.61C136.031 335.55 129.471 335.53 121.661 335.53C101.281 335.53 72.3908 335.67 72.3908 335.67C72.3908 335.67 56.7408 335.25 59.3108 328.86C61.8308 322.53 69.0708 309.96 95.7008 309.13L149.281 309.08ZM149.281 305.08L95.7008 305.13C95.7008 305.13 95.6208 305.13 95.5808 305.13C74.9608 305.77 61.1308 313.46 55.6008 327.38C54.6808 329.66 54.8808 332 56.1608 333.96C57.7908 336.45 61.0608 338.1 66.1408 339.01C69.3308 339.58 72.1708 339.66 72.2908 339.66C72.3308 339.66 72.3608 339.66 72.4008 339.66C72.4008 339.66 72.4108 339.66 72.4208 339.66C72.7108 339.66 101.541 339.52 121.671 339.52C130.411 339.52 136.301 339.55 139.171 339.6C139.281 339.6 139.381 339.6 139.491 339.6C143.521 339.6 146.931 338.18 149.341 335.49C153.811 330.52 153.441 322.95 153.301 321.32V309.07C153.291 306.86 151.501 305.07 149.291 305.07L149.281 305.08Z" fill="black"/>
<path d="M80.3311 302.62L105.531 314.98" stroke="black" stroke-width="4" stroke-linecap="round" stroke-linejoin="round"/>
<path d="M95.4911 322.6L90.3711 295.01" stroke="black" stroke-width="4" stroke-linecap="round" stroke-linejoin="round"/>
<path d="M113.041 228.96L96.8706 307.51H163.101L158.481 218.18L113.041 228.96Z" fill="#7F7FDB" stroke="black" stroke-width="4" stroke-linecap="round" stroke-linejoin="round"/>
<path d="M143.761 262.93C139.691 262.93 135.781 261.7 132.441 259.36L129.941 257.61C127.281 255.75 124.161 254.77 120.921 254.77C120.511 254.77 120.101 254.79 119.681 254.82L105.801 255.92C105.281 255.96 104.761 255.98 104.251 255.98C98.4507 255.98 92.9707 253.45 89.2207 249.03L86.4407 245.76C83.9007 242.77 80.3607 240.85 76.4707 240.35L69.2307 239.42C62.4807 238.55 56.5507 234.15 53.7607 227.95L52.4707 225.09C51.5407 223.03 50.2107 221.22 48.5107 219.73L45.8607 217.4C44.5107 216.21 43.8407 214.44 44.0607 212.66C44.2807 210.88 45.3707 209.33 46.9707 208.51L81.1307 191.11L63.7107 187.2L63.5407 187.13C63.2207 186.99 55.6307 183.67 52.6307 174.18C49.4407 164.09 52.6307 151.23 62.1107 135.98C86.0007 97.5401 117.321 95.5701 118.641 95.5101L127.861 95.1501L125.541 89.3501H166.431L163.851 95.9401C180.391 96.4201 223.661 101.78 229.051 143.97C231.131 160.25 228.251 173.39 220.501 183.03C210.751 195.14 196.591 197.6 193.461 198C193.681 205.87 192.771 213.7 190.751 221.31L180.971 258.11C180.881 258.57 180.621 259.08 180.001 259.58C179.081 260.31 177.921 260.72 176.721 260.72C176.141 260.72 175.571 260.63 175.031 260.45L168.921 258.47C167.351 257.96 165.721 257.71 164.081 257.71C162.171 257.71 160.291 258.05 158.501 258.73L150.761 261.67C148.521 262.52 146.161 262.95 143.761 262.95V262.93Z" fill="#B6B6FF"/>
<path d="M163.511 91.3401L160.951 97.8801C162.901 98.0101 220.911 95.9501 227.071 144.21C233.231 192.47 192.671 196.06 192.671 196.06L191.371 196.01C191.821 204.33 190.961 212.68 188.811 220.78L179.001 257.71C179.001 257.71 178.921 257.86 178.751 258C178.171 258.47 177.451 258.7 176.721 258.7C176.361 258.7 175.991 258.64 175.641 258.53L169.531 256.55C167.751 255.98 165.911 255.69 164.071 255.69C161.941 255.69 159.801 256.08 157.781 256.84L150.041 259.78C148.001 260.55 145.871 260.93 143.751 260.93C140.161 260.93 136.601 259.84 133.581 257.72L131.081 255.97C128.091 253.88 124.541 252.76 120.911 252.76C120.451 252.76 119.981 252.78 119.511 252.81L105.631 253.91C105.161 253.95 104.701 253.97 104.231 253.97C99.0507 253.97 94.1107 251.7 90.7207 247.72L87.9407 244.45C85.0807 241.09 81.0807 238.91 76.7007 238.35L69.4607 237.42C63.3507 236.63 58.0907 232.73 55.5607 227.11L54.2707 224.25C53.2307 221.94 51.7107 219.88 49.8107 218.21L47.1607 215.88C45.3507 214.29 45.7207 211.37 47.8607 210.28L86.9607 190.36L64.3107 185.27C64.3107 185.27 40.1807 175 63.8007 137.01C87.4107 99.0201 118.731 97.48 118.731 97.48L130.761 97.0101L128.481 91.3201H163.481M169.371 87.3401H122.601L124.791 92.8301L124.961 93.2601L118.591 93.5101C117.181 93.5801 84.8607 95.61 60.4207 134.92C50.6207 150.69 47.3607 164.1 50.7307 174.78C54.0007 185.14 62.4107 188.82 62.7607 188.97L63.0907 189.11L63.4407 189.19L75.2607 191.84L46.0507 206.72C43.8607 207.84 42.3707 209.96 42.0607 212.4C41.7507 214.84 42.6707 217.27 44.5207 218.89L47.1707 221.22C48.6507 222.52 49.8207 224.1 50.6307 225.9L51.9207 228.76C55.0007 235.59 61.5207 240.44 68.9607 241.39L76.2007 242.32C79.6007 242.76 82.6907 244.44 84.9007 247.04L87.6807 250.31C91.8207 255.18 97.8507 257.97 104.241 257.97C104.811 257.97 105.381 257.95 105.951 257.9L119.831 256.8C120.191 256.77 120.551 256.76 120.911 256.76C123.741 256.76 126.461 257.62 128.781 259.24L131.281 260.99C134.951 263.56 139.261 264.92 143.741 264.92C146.381 264.92 148.971 264.44 151.451 263.51L159.191 260.57C160.751 259.98 162.391 259.68 164.061 259.68C165.501 259.68 166.921 259.9 168.291 260.35L174.401 262.33C175.151 262.57 175.931 262.7 176.711 262.7C178.361 262.7 179.971 262.14 181.241 261.12C182.251 260.31 182.701 259.42 182.881 258.65L192.671 221.81C194.591 214.58 195.531 207.16 195.481 199.69C200.721 198.72 213.151 195.34 222.051 184.28C230.161 174.21 233.181 160.56 231.031 143.72C228.401 123.15 216.311 108.07 196.071 100.11C187.341 96.67 177.291 94.6101 166.741 94.0601L167.231 92.8201L169.371 87.36V87.3401Z" fill="black"/>
<path d="M73.5805 186.82L80.2505 144.21L69.9805 139.08" stroke="black" stroke-width="4" stroke-linecap="round" stroke-linejoin="round"/>
<path d="M145.451 116.87C137.201 116.87 130.511 123.56 130.511 131.81C130.511 140.06 137.201 146.75 145.451 146.75C153.701 146.75 160.391 140.06 160.391 131.81C160.391 123.56 153.701 116.87 145.451 116.87Z" fill="#FFA6C2"/>
<path d="M136.211 200.03C127.961 200.03 121.271 206.72 121.271 214.97C121.271 223.22 127.961 229.91 136.211 229.91C144.461 229.91 151.15 223.22 151.15 214.97C151.15 206.72 144.461 200.03 136.211 200.03Z" fill="#ADF2F0"/>
<path d="M102.841 131.38C102.841 131.38 105.531 174.41 86.9907 190.37" stroke="black" stroke-width="4" stroke-linecap="round" stroke-linejoin="round"/>
<path d="M110.541 143.19L85.9008 122.65L75.6309 190.42L100.791 203.25L143.911 200.17L154.181 131.89L110.541 143.19Z" fill="#7F7FDB" stroke="black" stroke-width="4" stroke-linecap="round" stroke-linejoin="round"/>
<path d="M153.15 154.48C153.15 154.48 137.751 141.65 133.641 144.21C129.531 146.77 137.75 156.02 137.75 156.02C137.75 156.02 120.811 151.4 118.761 155.51C116.711 159.62 129.541 163.72 129.541 163.72C129.541 163.72 112.09 162.18 111.57 167.31C111.05 172.44 131.081 175.01 131.081 175.01C131.081 175.01 114.651 176.55 115.171 181.68C115.691 186.81 133.141 182.71 133.141 182.71C133.141 182.71 118.25 191.44 120.82 195.03C123.39 198.62 151.75 196.44 151.75 196.44L153.16 154.47" fill="#EFD0C5"/>
<path d="M153.15 154.48C153.15 154.48 137.751 141.65 133.641 144.21C129.531 146.77 137.75 156.02 137.75 156.02C137.75 156.02 120.811 151.4 118.761 155.51C116.711 159.62 129.541 163.72 129.541 163.72C129.541 163.72 112.09 162.18 111.57 167.31C111.05 172.44 131.081 175.01 131.081 175.01C131.081 175.01 114.651 176.55 115.171 181.68C115.691 186.81 133.141 182.71 133.141 182.71C133.141 182.71 118.25 191.44 120.82 195.03C123.39 198.62 151.75 196.44 151.75 196.44L153.16 154.47" stroke="black" stroke-width="4" stroke-linecap="round" stroke-linejoin="round"/>
<path d="M80.2508 144.21C80.2508 144.21 95.6508 136 97.1908 139.59C98.7308 143.18 90.5208 148.83 90.5208 148.83C90.5208 148.83 98.2208 149.34 98.2208 153.96C98.2208 158.58 90.0108 157.55 90.0108 157.55C90.0108 157.55 95.6608 161.14 95.6608 165.25C95.6608 169.36 86.4208 167.82 86.4208 167.82C86.4208 167.82 94.1208 174.49 92.5808 177.06C91.0408 179.63 82.8308 177.57 82.8308 177.57C82.8308 177.57 89.5008 181.16 88.4808 185.78C88.4808 185.78 88.9908 191.43 73.5908 186.81L80.2608 144.2L80.2508 144.21Z" fill="#EFD0C5" stroke="black" stroke-width="4" stroke-linecap="round" stroke-linejoin="round"/>
<path d="M110.541 143.19C110.031 144.73 100.791 203.25 100.791 203.25" stroke="black" stroke-width="4" stroke-linecap="round" stroke-linejoin="round"/>
<path d="M178.301 137.03C178.301 137.03 184.971 143.19 179.331 150.38C173.691 157.57 153.151 154.49 153.151 154.49L151.111 198.95L193.961 198" stroke="black" stroke-width="4" stroke-linecap="round" stroke-linejoin="round"/>
<path d="M65.7506 220.67C74.0006 220.67 80.6906 213.98 80.6906 205.73C80.6906 201.82 79.1706 198.27 76.7106 195.6L51.1006 208.64C52.4606 215.49 58.5006 220.66 65.7506 220.66V220.67Z" fill="#FFA6C2"/>
<path d="M164.01 251.93C164.01 253.24 164.2 254.5 164.51 255.7C166.21 255.74 167.9 256.01 169.54 256.54L175.65 258.52C176.71 258.86 177.89 258.69 178.76 257.99C178.94 257.85 179.02 257.75 179.01 257.7L184.25 237.97C182.6 237.34 180.81 236.98 178.94 236.98C170.69 236.98 164 243.67 164 251.92L164.01 251.93Z" fill="#FFE49F"/>
<path d="M180.181 116.79C180.181 125.04 186.871 131.73 195.121 131.73C203.371 131.73 210.061 125.04 210.061 116.79C210.061 115.11 209.771 113.51 209.261 112C203.571 107.58 197.151 104.55 190.891 102.46C184.701 104.29 180.181 110 180.181 116.78V116.79Z" fill="#FFBE5F"/>
<path d="M192.681 196.06C192.681 196.06 193.581 195.98 195.081 195.69C197.901 192.97 199.661 189.16 199.661 184.94C199.661 176.69 192.971 170 184.721 170C176.471 170 169.781 176.69 169.781 184.94C169.781 193.19 176.471 199.88 184.721 199.88C187.151 199.88 189.431 199.29 191.461 198.26C191.441 197.51 191.421 196.76 191.381 196.01L192.681 196.06Z" fill="#ADF2F0"/>
<path d="M96.9308 120.18C105.181 120.18 111.871 113.49 111.871 105.24C111.871 103.04 111.381 100.96 110.531 99.0801C104.041 100.91 94.4308 104.83 84.3008 113.19C86.9508 117.38 91.6108 120.18 96.9308 120.18Z" fill="#FFE49F"/>
<path d="M61.0507 161.84C61.0507 157.68 59.3407 153.91 56.5907 151.2C52.6607 161.4 52.9107 168.8 54.7007 174.04C58.5307 171.34 61.0407 166.88 61.0407 161.83L61.0507 161.84Z" fill="#ADF2F0"/>
<path d="M178.301 137.03C178.301 137.03 184.971 143.19 179.331 150.38C173.691 157.57 153.151 154.49 153.151 154.49L151.111 198.95L193.961 198" stroke="black" stroke-width="4" stroke-linecap="round" stroke-linejoin="round"/>
</svg>
