<svg width="257" height="309" viewBox="0 0 257 309" fill="none" xmlns="http://www.w3.org/2000/svg">
<path d="M22.7702 289.58C16.2902 289.58 15.0701 286.44 14.9201 284.57C13.8401 271.08 47.2602 243.37 51.0702 240.25C51.3102 240.05 51.6001 239.91 51.9101 239.84L80.1502 233.68C80.2902 233.65 80.4302 233.63 80.5802 233.63C80.9902 233.63 81.3901 233.75 81.7301 233.99C82.1901 234.31 82.4902 234.81 82.5602 235.37L85.9901 261.56C86.5001 265.48 84.3302 269.32 80.7102 270.89C67.7802 276.51 36.2402 289.58 22.7702 289.58Z" fill="#FCAECC"/>
<path d="M80.5699 235.65L83.9999 261.84C84.3999 264.9 82.7399 267.85 79.9099 269.07C67.8199 274.32 35.97 287.59 22.77 287.59C19.28 287.59 17.0899 286.66 16.9099 284.42C15.8799 271.59 52.33 241.81 52.33 241.81L80.5699 235.65ZM80.5699 231.65C80.2899 231.65 79.9999 231.68 79.7199 231.74L51.4799 237.9C50.8599 238.03 50.2899 238.31 49.7999 238.71C49.4199 239.02 40.42 246.39 31.4 255.48C23.13 263.81 12.2199 275.9 12.9299 284.74C13.0899 286.8 14.38 291.59 22.77 291.59C36.12 291.59 65.2999 279.78 81.5099 272.74C85.9499 270.81 88.5999 266.12 87.9699 261.32L84.5399 235.14C84.3899 234.03 83.7899 233.03 82.8699 232.39C82.1899 231.91 81.3899 231.66 80.5699 231.66V231.65Z" fill="black"/>
<path d="M36 248.23L49.17 268.24" stroke="black" stroke-width="4" stroke-linecap="round" stroke-linejoin="round"/>
<path d="M30.6602 259.33L54.5102 257.13" stroke="black" stroke-width="4" stroke-linecap="round" stroke-linejoin="round"/>
<path d="M140.85 306.57C139.35 306.57 137.71 306.33 135.99 305.84C117.84 300.77 108.38 277.63 105.16 267.92C104.21 265.05 103.72 262.04 103.72 258.99V251.55L103.21 229.01C103.19 228.26 103.6 227.56 104.26 227.21C104.56 227.05 104.89 226.97 105.21 226.97C105.61 226.97 106 227.09 106.34 227.32L137.14 248.37C137.31 248.49 137.46 248.63 137.59 248.79C149.95 264.63 156.27 289.18 150.85 300.29C148.84 304.4 145.39 306.57 140.85 306.57Z" fill="#FCAECC"/>
<path d="M105.21 228.97L136.01 250.02C151.26 269.56 157.66 304.58 140.85 304.58C139.55 304.58 138.11 304.37 136.53 303.93C119.34 299.13 110.25 276.91 107.06 267.31C106.17 264.63 105.73 261.83 105.73 259.01V251.57L105.22 228.98M105.21 224.97C104.56 224.97 103.9 225.13 103.3 225.45C101.98 226.17 101.17 227.56 101.21 229.06L101.72 251.6V258.99C101.72 262.26 102.24 265.48 103.26 268.55C106.58 278.57 116.37 302.44 135.45 307.77C137.35 308.3 139.17 308.57 140.85 308.57C146.13 308.57 150.32 305.94 152.65 301.16C156.54 293.19 154.34 281.57 152.69 275.36C150 265.25 145.07 255.12 139.17 247.55C138.92 247.22 138.61 246.94 138.27 246.71L107.47 225.66C106.79 225.2 106 224.96 105.21 224.96V224.97Z" fill="black"/>
<path d="M120.58 262.05L143.24 269.82" stroke="black" stroke-width="4" stroke-linecap="round" stroke-linejoin="round"/>
<path d="M123.15 274.1L140.67 257.77" stroke="black" stroke-width="4" stroke-linecap="round" stroke-linejoin="round"/>
<path d="M47.7199 220.24L37.96 251.05H87.2499L86.7299 221.27L76.4699 195.6L54.39 204.33L47.7199 220.24Z" fill="#7F7FDB" stroke="black" stroke-width="4" stroke-linecap="round" stroke-linejoin="round"/>
<path d="M134.99 220.24L144.74 251.05H95.46L95.9699 221.27L106.24 195.6L128.32 204.33L134.99 220.24Z" fill="#7F7FDB" stroke="black" stroke-width="4" stroke-linecap="round" stroke-linejoin="round"/>
<path d="M108.59 225.13C104.75 225.13 101.1 224.45 98.3098 223.2L95.3198 221.87C92.9398 220.81 90.4098 220.27 87.7998 220.27C85.1898 220.27 82.3598 220.88 79.8998 222.04L78.1298 222.88C75.1498 224.29 71.8298 225.04 68.5298 225.04C63.8698 225.04 59.3898 223.62 55.5898 220.94C52.4598 218.73 48.7798 217.57 44.9498 217.57C43.4798 217.57 41.9998 217.75 40.5698 218.1L27.2598 221.35C26.9898 221.41 26.7198 221.45 26.4498 221.45C25.4298 221.45 24.4798 221 23.8298 220.2C23.2298 219.47 22.9698 218.53 23.0998 217.6C23.1698 214.99 24.2798 186.52 41.9398 162.74C39.3498 162.33 35.8898 161.61 32.2998 160.41C23.8598 157.58 18.3098 153.34 15.7998 147.8C12.5598 140.65 14.6598 131.79 22.0398 121.46C28.5298 112.38 34.9398 104.69 41.0798 98.6098C51.5698 88.2298 61.5698 82.2598 70.8598 80.8198L68.1798 73.9798H109.07L106.66 79.9998L120.6 81.7098C127.76 82.5898 134.62 84.2098 140.98 86.5298C145.51 88.1798 152.36 90.1598 159.24 90.1598C170.63 90.1598 178.42 84.8098 182.39 74.2698L183.4 71.5798L209.86 94.5098L209.14 95.9098C208.96 96.2698 204.54 104.79 196.06 113.41C184.73 124.93 171.55 131.02 157.92 131.02C148.19 131.02 138.1 127.97 127.88 121.95C128.92 125.79 130.43 131.39 131.94 136.99C133.29 141.99 134.63 147 135.63 150.77C136.45 153.85 136.91 155.62 137.13 156.69C160.09 185.66 158.76 216.98 158.55 220.25C158.65 221.15 158.39 222.04 157.82 222.75C157.17 223.55 156.21 224.01 155.19 224.01C154.86 224.01 154.53 223.96 154.22 223.87L140.28 220.55L140.2 220.52C136.84 219.4 133.83 218.83 131.26 218.83C129.09 218.83 127.19 219.23 125.6 220.03L120.21 222.73C117.1 224.28 112.97 225.14 108.58 225.14L108.59 225.13Z" fill="#B6B6FF"/>
<path d="M184.27 74.9599L207.37 94.9799C207.37 94.9799 189.9 129 157.93 129C148.15 129 137.02 125.82 124.61 117.51C124.61 117.51 135.5 157.6 135.32 157.6C159.12 187.38 156.55 220.32 156.55 220.32C156.74 221.21 156.04 221.99 155.2 221.99C155.06 221.99 154.91 221.97 154.76 221.92L140.84 218.61C137.83 217.61 134.49 216.82 131.27 216.82C128.97 216.82 126.73 217.22 124.72 218.23L119.32 220.93C116.4 222.39 112.47 223.13 108.59 223.13C105.16 223.13 101.76 222.55 99.1298 221.38L96.1398 220.05C93.4898 218.87 90.6498 218.28 87.8098 218.28C84.8198 218.28 81.8298 218.94 79.0598 220.24L77.2898 221.08C74.5098 222.4 71.5198 223.04 68.5398 223.04C64.3898 223.04 60.2598 221.78 56.7498 219.3C53.2698 216.85 49.1398 215.56 44.9598 215.56C43.3398 215.56 41.7098 215.75 40.1098 216.14L26.7998 219.39C26.6898 219.42 26.5798 219.43 26.4698 219.43C25.6298 219.43 24.9398 218.65 25.1198 217.77C25.1198 217.77 25.6598 185.84 45.6798 161.2C46.1898 161.2 -1.48021 157.83 23.6898 122.61C29.6698 114.24 35.9998 106.46 42.5098 100.02C52.6998 89.9399 63.3098 83.1399 73.6898 82.5099L71.1298 75.9699H106.13L103.85 81.6599L120.37 83.6799C127.17 84.5099 133.87 86.0399 140.3 88.3899C145.29 90.2099 152.22 92.1399 159.25 92.1399C169.16 92.1399 179.24 88.3099 184.27 74.9499M182.55 68.1799L180.53 73.5499C176.83 83.3699 169.86 88.1499 159.25 88.1499C152.66 88.1499 146.05 86.2399 141.67 84.6399C135.17 82.2699 128.17 80.6099 120.85 79.7099L109.49 78.3199L109.84 77.4499L112.03 71.9599H65.2598L67.3998 77.4199L68.1298 79.2999C59.1198 81.3899 49.5798 87.3799 39.6798 97.1799C33.4598 103.34 26.9798 111.11 20.4198 120.29C12.5898 131.24 10.4298 140.77 13.9798 148.62C18.3898 158.35 30.2898 162.45 38.4798 164.14C22.4498 187.54 21.1998 214.26 21.0998 217.44C20.9298 218.88 21.3498 220.33 22.2798 221.46C23.3098 222.72 24.8298 223.44 26.4498 223.44C26.8798 223.44 27.3098 223.39 27.7298 223.29L41.0398 220.04C42.3198 219.73 43.6298 219.57 44.9498 219.57C48.3698 219.57 51.6498 220.61 54.4398 222.58C58.5898 225.5 63.4598 227.05 68.5398 227.05C72.1298 227.05 75.7498 226.24 78.9998 224.7L80.7698 223.86C82.9598 222.83 85.3898 222.28 87.8098 222.28C90.1298 222.28 92.3898 222.76 94.5098 223.71L97.4998 225.04C100.54 226.39 104.47 227.14 108.59 227.14C113.28 227.14 117.73 226.21 121.11 224.52L126.51 221.82C127.82 221.16 129.42 220.83 131.28 220.83C133.63 220.83 136.43 221.36 139.59 222.42L139.76 222.48L139.93 222.52L153.73 225.81C154.22 225.95 154.71 226.02 155.22 226.02C156.85 226.02 158.37 225.29 159.4 224.02C160.27 222.94 160.69 221.59 160.58 220.23C160.82 216.06 161.76 184.84 139.03 155.86C138.96 155.55 138.87 155.22 138.78 154.86C138.49 153.74 138.08 152.16 137.58 150.26C136.58 146.49 135.24 141.48 133.89 136.47C132.9 132.81 131.91 129.14 131.06 125.97C140.17 130.65 149.18 133.01 157.94 133.01C172.11 133.01 185.79 126.71 197.5 114.8C206.19 105.96 210.75 97.1799 210.94 96.8099L212.37 94.0199L210 91.9599L186.9 71.9399L182.56 68.1799H182.55Z" fill="black"/>
<path d="M140.6 164.9V164.93C139.54 165.17 138.43 165.3 137.29 165.3C129.04 165.3 122.35 158.61 122.35 150.36C122.35 144.77 125.42 139.9 129.97 137.34H129.98C132.7 147.45 135.41 157.62 135.32 157.62C137.25 160.03 139 162.46 140.6 164.9Z" fill="#FFBE5F"/>
<path d="M63.1202 181.79C71.3713 181.79 78.0602 175.101 78.0602 166.85C78.0602 158.599 71.3713 151.91 63.1202 151.91C54.869 151.91 48.1802 158.599 48.1802 166.85C48.1802 175.101 54.869 181.79 63.1202 181.79Z" fill="#FFE49F"/>
<path d="M41.0399 162.75L76.4599 166.86L83.6499 134.52L50.2798 129.39L55.4099 111.94L38.2099 114.25L25.3799 138.89L40.7798 153.78C40.7798 153.78 41.8099 161.99 41.0399 162.76L76.4599 166.87L83.6499 134.53L50.2798 129.4L55.4099 111.95" fill="#B6B6FF"/>
<path d="M81.7001 134.22C79.7701 140.23 74.13 144.58 67.48 144.58C59.26 144.58 52.59 137.94 52.54 129.73L81.7001 134.22Z" fill="#B6B6FF"/>
<path d="M41.04 162.75L76.4601 166.86L83.6501 134.52L50.28 129.39L55.41 111.94" stroke="black" stroke-width="4" stroke-miterlimit="10"/>
<path d="M100.29 60.76C96.89 62.4 93 63.35 88.85 63.35C85.26 63.35 81.8701 62.64 78.8101 61.39V73.83H100.29V60.76Z" fill="#EFD0C5" stroke="black" stroke-width="4" stroke-linecap="round" stroke-linejoin="round"/>
<path d="M88.8497 65.35C78.7697 65.35 69.6198 60.08 65.3998 52.04C64.2198 52.47 62.9798 52.69 61.7498 52.69C55.6698 52.69 50.7197 47.74 50.7197 41.66C50.7197 35.58 55.6698 30.63 61.7498 30.63C63.2198 30.63 64.6497 30.92 65.9797 31.47C70.4497 23.98 79.1897 19.25 88.8497 19.25C99.5897 19.25 109.14 25.12 112.99 33.96L123.67 36.08C124.48 36.24 125.1 36.88 125.25 37.68C125.4 38.48 125.03 39.3 124.34 39.74L114.44 45.88C112.49 57.06 101.68 65.37 88.8597 65.37L88.8497 65.35Z" fill="#EFD0C5"/>
<path d="M88.8499 21.23C99.4299 21.23 108.39 27.29 111.54 35.69L123.28 38.02L112.59 44.65C111.26 55.17 101.14 63.35 88.8499 63.35C78.4799 63.35 69.6699 57.52 66.3599 49.38C64.9999 50.19 63.4399 50.69 61.7399 50.69C56.7499 50.69 52.71 46.64 52.71 41.66C52.71 36.68 56.7599 32.63 61.7399 32.63C63.6099 32.63 65.3499 33.2 66.7899 34.17C70.3999 26.58 78.91 21.24 88.84 21.24M88.8499 17.23C79.0899 17.23 70.18 21.77 65.14 29.06C64.04 28.76 62.8999 28.61 61.7399 28.61C54.5499 28.61 48.71 34.46 48.71 41.64C48.71 48.82 54.5599 54.67 61.7399 54.67C62.6399 54.67 63.5499 54.57 64.4299 54.38C69.2799 62.26 78.62 67.34 88.84 67.34C102.3 67.34 113.7 58.77 116.22 47.09L125.38 41.41C126.78 40.54 127.5 38.91 127.21 37.3C126.92 35.68 125.66 34.41 124.05 34.09L114.36 32.17C109.94 23.15 99.98 17.23 88.84 17.23H88.8499Z" fill="black"/>
<path d="M29.85 44.82C14.49 44.82 2 35.22 2 23.42C2 11.62 14.49 2.02002 29.85 2.02002C37.5 2.02002 44.63 4.35002 49.92 8.57002C51.11 9.46002 52.31 9.91002 53.53 9.91002C54.53 9.91002 55.59 9.60002 56.69 9.00002C60.04 7.35002 63.84 6.50002 67.74 6.50002C73.56 6.50002 79.17 8.54002 83.54 12.25C83.95 12.6 84.42 12.77 84.99 12.77C85.84 12.77 86.68 12.38 87.19 12.02C89.98 10.01 93.63 8.90002 97.45 8.90002C105.82 8.90002 112.62 14.23 112.62 20.79C112.62 27.35 105.81 32.68 97.45 32.68C93.96 32.68 90.55 31.74 87.86 30.02C87.6 29.86 87.12 29.69 86.63 29.69C86.35 29.69 85.97 29.74 85.8 29.99C82.16 35.12 75.25 38.31 67.76 38.31C63.47 38.31 59.59 37.42 56.53 35.73C55.69 35.27 54.75 34.77 54.14 34.77C53.97 34.77 53.51 34.77 52.64 35.76C47.64 41.44 39.14 44.82 29.88 44.82H29.85Z" fill="#FCAECC"/>
<path d="M29.85 4.01C37.27 4.01 43.96 6.36 48.67 10.13C50.19 11.27 51.8 11.9 53.53 11.9C54.84 11.9 56.21 11.53 57.65 10.74C60.55 9.32 64.01 8.49 67.74 8.49C73.63 8.49 78.69 10.75 82.25 13.77C83.09 14.49 84.05 14.76 84.99 14.76C86.27 14.76 87.51 14.24 88.35 13.63C90.71 11.93 93.91 10.89 97.44 10.89C104.72 10.89 110.61 15.32 110.61 20.78C110.61 26.24 104.71 30.67 97.44 30.67C94.19 30.67 91.22 29.79 88.92 28.32C88.32 27.94 87.46 27.68 86.61 27.68C85.67 27.68 84.73 28 84.15 28.82C81.02 33.23 74.87 36.29 67.74 36.29C63.94 36.29 60.35 35.55 57.47 33.96C56.22 33.27 55.15 32.76 54.11 32.76C53.07 32.76 52.17 33.22 51.1 34.43C46.55 39.6 38.66 42.81 29.84 42.81C15.56 42.81 3.98999 34.12 3.98999 23.41C3.98999 12.7 15.56 4.01 29.84 4.01M29.85 0.0100021C13.39 0.0100021 0 10.51 0 23.41C0 36.31 13.39 46.81 29.85 46.81C39.67 46.81 48.74 43.17 54.11 37.07C54.19 36.98 54.26 36.91 54.32 36.85C54.56 36.95 54.93 37.13 55.54 37.47C58.9 39.32 63.11 40.3 67.74 40.3C75.55 40.3 82.81 37.06 86.92 31.8C89.9 33.66 93.63 34.68 97.44 34.68C106.91 34.68 114.61 28.45 114.61 20.79C114.61 13.13 106.91 6.9 97.44 6.9C93.21 6.9 89.15 8.14 86.02 10.39C85.72 10.6 85.28 10.76 84.99 10.76C84.89 10.76 84.88 10.76 84.84 10.72C80.11 6.7 74.04 4.49 67.75 4.49C63.55 4.49 59.45 5.41 55.9 7.15C55.85 7.18 55.79 7.2 55.74 7.23C54.93 7.67 54.19 7.9 53.54 7.9C52.77 7.9 51.98 7.59 51.12 6.95C45.48 2.47 37.93 0 29.86 0L29.85 0.0100021Z" fill="black"/>
<path d="M95.6102 42.5699C97.3775 42.5699 98.8102 41.1372 98.8102 39.3699C98.8102 37.6026 97.3775 36.1699 95.6102 36.1699C93.8429 36.1699 92.4102 37.6026 92.4102 39.3699C92.4102 41.1372 93.8429 42.5699 95.6102 42.5699Z" fill="black"/>
<path d="M90.8398 48.27C90.8398 48.27 91.2198 52.79 96.0598 53.36C100.9 53.93 103.07 50.27 103.07 50.27" stroke="black" stroke-width="2" stroke-linecap="round" stroke-linejoin="round"/>
<path d="M183.02 71.79C183.02 71.79 174.38 37.2 187.33 42.33C187.33 42.33 193.6 43.66 198.63 55.85C198.63 55.85 199.21 28.24 211.72 33.28C211.72 33.28 217.38 35.0499 211.16 50.4C211.16 50.4 226.58 28.61 234.8 35.7C243.02 42.79 225.66 56.9 225.66 56.9C225.66 56.9 247.4 40.64 253.39 49.31C259.38 57.98 235.9 68.15 235.9 68.15C235.9 68.15 250.51 64.7 248.74 75.08C246.97 85.46 211.01 94.7099 211.01 94.7099L183.03 71.79H183.02Z" fill="#EFD0C5" stroke="black" stroke-width="4" stroke-linecap="round" stroke-linejoin="round"/>
<path d="M156.55 220.33C156.78 221.38 155.78 222.27 154.76 221.94L144.3 219.45C143.88 218.08 143.66 216.62 143.66 215.11C143.66 208.12 148.47 202.25 154.95 200.63C157.17 212.32 156.55 220.33 156.55 220.33Z" fill="#FFE49F"/>
<path d="M66.5 87.29C66.5 95.54 59.82 102.23 51.57 102.23C48.38 102.23 45.43 101.23 43 99.53C50.57 92.13 58.37 86.56 66.14 84.01C66.38 85.07 66.5 86.16 66.5 87.29Z" fill="#FFE49F"/>
<path d="M154.57 91.88C152.88 98.28 147.05 103 140.12 103C131.87 103 125.18 96.31 125.18 88.06C125.18 86.83 125.33 85.63 125.61 84.48C130.61 85.38 135.52 86.67 140.3 88.41C144.17 89.82 149.21 91.3 154.57 91.88Z" fill="#FFBE5F"/>
<path d="M202.72 102.35C198.5 108.27 191.43 116.51 181.73 122.26C180.54 120.11 179.86 117.64 179.86 115.01C179.86 106.76 186.54 100.07 194.79 100.07C197.71 100.07 200.42 100.9 202.72 102.35Z" fill="#ADF2F0"/>
<path d="M29.54 129.64C29.54 137.16 23.98 143.38 16.76 144.42C15.45 139.05 17 131.95 23.67 122.62C24.37 121.65 25.07 120.69 25.77 119.73C28.12 122.36 29.54 125.83 29.54 129.64Z" fill="#ADF2F0"/>
<path d="M81.7001 134.22C79.7701 140.23 74.13 144.58 67.48 144.58C59.26 144.58 52.59 137.94 52.54 129.73L81.7001 134.22Z" fill="#FFA6C2"/>
<path d="M41.09 188.16C41.09 196.15 34.8099 202.68 26.9199 203.08C28.3899 195.67 31.0199 186.23 35.7499 176.72C39.0199 179.46 41.09 183.57 41.09 188.16Z" fill="#FFA6C2"/>
<path d="M91.44 135.43C99.6911 135.43 106.38 128.741 106.38 120.49C106.38 112.239 99.6911 105.55 91.44 105.55C83.1889 105.55 76.5 112.239 76.5 120.49C76.5 128.741 83.1889 135.43 91.44 135.43Z" fill="#FFA6C2"/>
<path d="M41.04 162.75L76.47 166.85L83.6501 134.51L50.28 129.38L55.42 111.92" stroke="black" stroke-width="4" stroke-linecap="round" stroke-linejoin="round"/>
<path d="M43.6099 128.35L50.2798 129.38" stroke="black" stroke-width="4" stroke-linecap="round" stroke-linejoin="round"/>
<path d="M84.67 134.41C84.67 134.41 101.91 123.54 105.9 129.46C109.89 135.38 98.52 140.8 98.52 140.8C98.52 140.8 125.97 134.84 127.02 146.85C128.07 158.86 100.55 153.11 100.55 153.11C100.55 153.11 130.74 158.43 129.94 164.71C129.14 170.99 98.32 163.89 98.32 163.89C98.32 163.89 125.08 171.71 118.42 178.31C111.76 184.91 88.88 167.89 88.88 167.89C88.88 167.89 101.41 182.61 94.9 183.58C88.39 184.55 76.98 167.08 76.98 167.08L84.67 134.41Z" fill="#EFD0C5" stroke="black" stroke-width="4" stroke-linecap="round" stroke-linejoin="round"/>
<path d="M139.35 159.41C139.35 159.41 131.65 152.74 124.46 152.22" stroke="black" stroke-width="4" stroke-linecap="round" stroke-linejoin="round"/>
</svg>
