<svg width="303" height="431" viewBox="0 0 303 431" fill="none" xmlns="http://www.w3.org/2000/svg">
<path d="M63.5786 428.09C66.9786 428.03 74.5285 427.99 86.0085 427.99C105.579 427.99 130.129 428.09 130.369 428.09C132.359 428.04 142.139 427.55 144.939 423.27C145.579 422.29 146.169 420.66 145.299 418.52C140.069 405.42 126.859 398.17 107.099 397.58H53.4586C52.3586 397.58 51.4586 398.47 51.4586 399.58V411.92C51.3686 412.96 50.8986 420.19 54.9086 424.65C56.9686 426.93 59.7786 428.09 63.2686 428.09H63.5686H63.5786Z" fill="#FCAECC"/>
<path d="M53.4689 399.57V412.01C53.4689 412.01 51.9888 426.09 63.2788 426.09C63.3688 426.09 63.4488 426.09 63.5388 426.09C67.3988 426.02 76.1088 425.99 86.0088 425.99C105.809 425.99 130.379 426.09 130.379 426.09C130.379 426.09 146.029 425.66 143.449 419.27C140.929 412.94 133.669 400.38 107.039 399.58H53.4589M53.4689 395.57H107.049C107.049 395.57 107.129 395.57 107.169 395.57C127.789 396.19 141.629 403.87 147.169 417.78C148.089 420.06 147.899 422.4 146.619 424.36C144.989 426.85 141.729 428.51 136.649 429.42C133.469 429.99 130.619 430.08 130.499 430.08C130.459 430.08 130.429 430.08 130.389 430.08C130.389 430.08 130.389 430.08 130.379 430.08C130.129 430.08 105.599 429.98 86.0288 429.98C74.5588 429.98 67.0188 430.01 63.6288 430.08C63.5188 430.08 63.4088 430.08 63.2988 430.08C59.2788 430.08 55.8689 428.66 53.4489 425.98C48.9789 421.01 49.3389 413.45 49.4789 411.82V399.57C49.4789 397.36 51.2689 395.57 53.4789 395.57H53.4689Z" fill="black"/>
<path d="M80.4691 342.05L75.0791 344.75C69.5991 347.49 63.6891 349.12 58.0991 346.63L51.899 343.87C51.759 343.81 51.6091 343.76 51.4591 343.7V398.66H113.789L102.659 343.88L96.6091 342.44C91.4591 340.72 85.3391 339.63 80.4791 342.06L80.4691 342.05Z" fill="#7F7FDB" stroke="black" stroke-width="4" stroke-linecap="round" stroke-linejoin="round"/>
<path d="M127.289 393.06L102.099 405.43" stroke="black" stroke-width="4" stroke-linecap="round" stroke-linejoin="round"/>
<path d="M112.149 413.04L117.239 385.45" stroke="black" stroke-width="4" stroke-linecap="round" stroke-linejoin="round"/>
<path d="M105.939 428.09C109.339 428.03 116.889 427.99 128.369 427.99C147.939 427.99 172.489 428.09 172.729 428.09C174.719 428.04 184.499 427.55 187.299 423.27C187.939 422.29 188.529 420.66 187.659 418.52C182.429 405.42 169.219 398.17 149.459 397.58H95.819C94.719 397.58 93.819 398.47 93.819 399.58V411.92C93.729 412.96 93.2589 420.19 97.2689 424.65C99.3289 426.93 102.139 428.09 105.629 428.09H105.929H105.939Z" fill="#FCAECC"/>
<path d="M95.8288 399.57V412.01C95.8288 412.01 94.3487 426.09 105.639 426.09C105.729 426.09 105.809 426.09 105.899 426.09C109.759 426.02 118.469 425.99 128.369 425.99C148.169 425.99 172.739 426.09 172.739 426.09C172.739 426.09 188.389 425.66 185.809 419.27C183.289 412.94 176.029 400.38 149.399 399.58H95.8187M95.8288 395.57H149.409C149.409 395.57 149.489 395.57 149.529 395.57C170.149 396.19 183.989 403.87 189.529 417.78C190.449 420.06 190.259 422.4 188.979 424.36C187.349 426.85 184.089 428.51 179.009 429.42C175.829 429.99 172.979 430.08 172.859 430.08C172.819 430.08 172.789 430.08 172.749 430.08C172.749 430.08 172.749 430.08 172.739 430.08C172.489 430.08 147.959 429.98 128.389 429.98C116.919 429.98 109.379 430.01 105.989 430.08C105.879 430.08 105.769 430.08 105.659 430.08C101.639 430.08 98.2287 428.66 95.8087 425.98C91.3387 421.01 91.6988 413.45 91.8388 411.82V399.57C91.8388 397.36 93.6288 395.57 95.8388 395.57H95.8288Z" fill="black"/>
<path d="M122.049 342.05L116.659 344.75C111.179 347.49 105.269 349.12 99.6786 346.63L93.4786 343.87C93.3386 343.81 93.1886 343.76 93.0386 343.7V398.66H155.369L144.239 343.88L138.189 342.44C133.039 340.72 126.919 339.63 122.059 342.06L122.049 342.05Z" fill="#7F7FDB" stroke="black" stroke-width="4" stroke-linecap="round" stroke-linejoin="round"/>
<path d="M168.869 393.06L143.689 405.43" stroke="black" stroke-width="4" stroke-linecap="round" stroke-linejoin="round"/>
<path d="M153.729 413.04L158.829 385.45" stroke="black" stroke-width="4" stroke-linecap="round" stroke-linejoin="round"/>
<path d="M159.089 84.81C159.089 84.81 129.749 62.98 143.359 58.63C143.359 58.63 149.199 55.61 161.109 62.01C161.109 62.01 143.619 39.73 156.829 35.6C156.829 35.6 162.469 33.32 167.509 49.54C167.509 49.54 165.579 22.22 176.709 22.51C187.839 22.79 183.239 45.28 183.239 45.28C183.239 45.28 189.919 18.25 200.299 21.23C210.689 24.22 198.669 47.55 198.669 47.55C198.669 47.55 208.019 35.31 213.359 44.7C218.699 54.09 196.179 84.81 196.179 84.81H159.079H159.089Z" fill="#EFD0C5" stroke="black" stroke-width="4" stroke-linecap="round" stroke-linejoin="round"/>
<path d="M13.4486 85.75C13.4486 85.75 -2.63136 69.74 3.31864 63.91C9.26864 58.08 17.8687 69.09 17.8687 69.09C17.8687 69.09 5.28865 40.74 18.8287 36.58C32.3787 32.43 31.5586 63.78 31.5586 63.78C31.5586 63.78 31.3286 29.62 38.6986 28.91C46.0686 28.2 44.3886 63.5 44.3886 63.5C44.3886 63.5 47.7386 32.44 56.6986 38.02C65.6686 43.6 50.9486 72.75 50.9486 72.75C50.9486 72.75 65.1886 55.43 67.6686 62.26C70.1486 69.09 52.5186 85.89 52.5186 85.89L13.4486 85.74V85.75Z" fill="#EFD0C5" stroke="black" stroke-width="4" stroke-linecap="round" stroke-linejoin="round"/>
<path d="M115.789 354.79C120.179 354.79 124.309 353.93 127.419 352.38L132.819 349.68C134.409 348.88 136.319 348.48 138.479 348.48C141.049 348.48 144.059 349.05 147.419 350.17L147.499 350.2L161.439 353.52C161.759 353.62 162.089 353.66 162.409 353.66C163.429 353.66 164.389 353.2 165.039 352.4C165.679 351.61 165.929 350.57 165.719 349.57L134.789 202.98C161.619 197.72 180.939 176.24 190.739 140.69C198.239 113.47 197.559 87.23 197.549 86.97L197.489 85.03H157.969V87.03C158.019 106.11 154.809 140.56 132.859 156.91C128.819 159.92 123.749 161.58 118.589 161.58C118.029 161.58 117.469 161.56 116.899 161.52L113.919 161.32L116.269 155.44H75.3788L77.9589 162.05C70.4989 161.9 64.7188 159.21 60.2888 153.85C44.3888 134.61 53.0488 88.3 53.1388 87.84L53.5989 85.46H12.9789L12.7489 87.19C6.0189 136.81 10.9689 171.55 27.4689 190.43C37.9089 202.38 49.8989 204.3 55.4589 204.49L30.3188 347.1C30.1288 348.05 30.3788 349.08 31.0288 349.86C31.6788 350.65 32.6288 351.11 33.6488 351.11C33.9188 351.11 34.1889 351.08 34.4589 351.01L47.7688 347.76C49.1988 347.41 50.6788 347.23 52.1488 347.23C55.9788 347.23 59.6588 348.4 62.7888 350.6C66.5988 353.28 71.0689 354.7 75.7289 354.7C79.0289 354.7 82.3489 353.95 85.3289 352.54L87.0989 351.7C89.5489 350.54 92.2789 349.93 94.9989 349.93C97.7189 349.93 100.139 350.47 102.519 351.53L105.509 352.86C108.299 354.1 111.949 354.79 115.789 354.79Z" fill="#B6B6FF"/>
<path d="M159.969 87.03C160.069 131.29 144.839 150.48 134.049 158.51C129.579 161.84 124.139 163.57 118.589 163.57C117.979 163.57 117.369 163.55 116.769 163.51L111.049 163.12L113.329 157.43H78.3288L80.8887 163.97C80.1287 164.02 79.3887 164.04 78.6687 164.04C36.4787 164.04 51.1988 87.45 51.1988 87.45H14.7488C-0.16119 197.42 47.5288 202.5 56.4588 202.5C57.3688 202.5 57.8787 202.45 57.8787 202.45L32.3188 347.45C32.1388 348.33 32.8287 349.11 33.6687 349.11C33.7787 349.11 33.8888 349.1 33.9988 349.07L47.3087 345.82C48.9087 345.43 50.5387 345.24 52.1587 345.24C56.3387 345.24 60.4688 346.52 63.9488 348.98C67.4588 351.46 71.5888 352.72 75.7388 352.72C78.7188 352.72 81.7088 352.07 84.4888 350.76L86.2587 349.92C89.0287 348.61 92.0187 347.96 95.0087 347.96C97.8487 347.96 100.689 348.55 103.339 349.73L106.329 351.06C108.959 352.23 112.359 352.81 115.789 352.81C119.669 352.81 123.599 352.07 126.519 350.61L131.919 347.91C133.939 346.9 136.179 346.5 138.469 346.5C141.689 346.5 145.029 347.29 148.039 348.29L161.959 351.6C162.109 351.65 162.259 351.67 162.399 351.67C163.239 351.67 163.939 350.89 163.749 350L132.389 201.39C198.609 190.61 195.529 87.04 195.529 87.04H159.959M155.959 83.03H199.419L199.539 86.91C199.569 87.99 200.239 113.72 192.659 141.23C188.149 157.58 181.649 171.12 173.319 181.48C163.619 193.55 151.469 201.29 137.149 204.54L167.669 349.17C168.009 350.77 167.609 352.41 166.589 353.67C165.559 354.94 164.039 355.67 162.409 355.67C161.909 355.67 161.409 355.6 160.919 355.46L147.119 352.17L146.949 352.13L146.779 352.07C143.619 351.02 140.829 350.48 138.469 350.48C136.619 350.48 135.019 350.81 133.699 351.47L128.299 354.17C124.919 355.86 120.469 356.79 115.779 356.79C111.659 356.79 107.719 356.04 104.689 354.69L101.699 353.36C99.5788 352.41 97.3188 351.93 94.9988 351.93C92.6788 351.93 90.1488 352.48 87.9588 353.51L86.1888 354.35C82.9388 355.89 79.3188 356.7 75.7288 356.7C70.6588 356.7 65.7787 355.15 61.6287 352.23C58.8387 350.26 55.5587 349.22 52.1387 349.22C50.8287 349.22 49.5088 349.38 48.2288 349.69L34.9187 352.94C34.4987 353.04 34.0687 353.09 33.6387 353.09C32.0187 353.09 30.4988 352.37 29.4688 351.11C28.4588 349.87 28.0488 348.27 28.3488 346.7L53.0988 206.31C46.6288 205.66 35.6288 202.8 25.9588 191.73C9.06877 172.39 3.9487 137.12 10.7587 86.9L11.2288 83.44H56.0187L55.1088 88.19C55.0188 88.65 46.5388 134.05 61.8388 152.55C65.2488 156.68 69.5588 159.06 74.9388 159.79L74.5788 158.87L72.4388 153.41H119.209L117.019 158.9L116.779 159.49L117.019 159.51C117.529 159.55 118.059 159.56 118.569 159.56C123.299 159.56 127.949 158.04 131.649 155.29C138.109 150.48 143.419 143.55 147.439 134.69C153.129 122.14 155.999 106.1 155.959 87.02V83.01V83.03Z" fill="black"/>
<path d="M102.559 196.95C94.309 196.95 87.619 203.64 87.619 211.89C87.619 220.14 94.309 226.83 102.559 226.83C110.809 226.83 117.499 220.14 117.499 211.89C117.499 203.64 110.809 196.95 102.559 196.95Z" fill="#FFA6C2"/>
<path d="M23.2485 163.83C31.4985 163.83 38.1885 170.52 38.1885 178.77C38.1885 184.11 35.3785 188.78 31.1685 191.42C25.5985 185.9 20.3285 177.66 16.7085 165.35C18.6885 164.38 20.8985 163.83 23.2485 163.83Z" fill="#FFE49F"/>
<path d="M29.0988 107.93C29.0988 99.68 35.7887 92.99 44.0387 92.99C46.2187 92.99 48.2787 93.47 50.1387 94.3C49.2887 100.83 48.3188 111.24 48.8588 122.06C47.3488 122.58 45.7287 122.87 44.0387 122.87C35.7887 122.87 29.0988 116.18 29.0988 107.93Z" fill="#FFA6C2"/>
<path d="M74.8389 246.62C66.5889 246.62 59.8988 253.31 59.8988 261.56C59.8988 269.81 66.5889 276.5 74.8389 276.5C83.0889 276.5 89.7788 269.81 89.7788 261.56C89.7788 253.31 83.0889 246.62 74.8389 246.62Z" fill="#FFE49F"/>
<path d="M115.269 291.66C107.019 291.66 100.329 298.35 100.329 306.6C100.329 314.85 107.019 321.54 115.269 321.54C123.519 321.54 130.209 314.85 130.209 306.6C130.209 298.35 123.519 291.66 115.269 291.66Z" fill="#ADF2F0"/>
<path d="M131.509 258.09C131.509 266.34 138.199 273.03 146.449 273.03C146.809 273.03 147.149 273 147.499 272.98L141.399 244.05C135.639 246.12 131.509 251.62 131.509 258.09Z" fill="#FFBE5F"/>
<path d="M141.829 167.92C150.079 167.92 156.769 161.23 156.769 152.98C156.769 147.45 153.749 142.63 149.279 140.05C144.479 149.2 138.829 154.96 134.039 158.52C132.579 159.61 131.009 160.5 129.379 161.24C132.059 165.27 136.629 167.92 141.829 167.92Z" fill="#FFBE5F"/>
<path d="M191.499 110.32C183.249 110.32 176.559 117.01 176.559 125.26C176.559 132.61 181.869 138.7 188.859 139.95C191.729 129.49 193.379 119.25 194.319 110.59C193.409 110.42 192.469 110.32 191.499 110.32Z" fill="#ADF2F0"/>
<path d="M149.999 345.88C149.999 346.88 150.099 347.86 150.289 348.81L161.959 351.59C162.979 351.93 163.979 351.04 163.749 349.99L159.919 331.82C154.139 333.88 149.989 339.39 149.989 345.88H149.999Z" fill="#FFE49F"/>
<path d="M51.6587 314.69C51.6587 308.22 47.5287 302.72 41.7687 300.65L35.9087 329.59C36.1787 329.6 36.4387 329.63 36.7188 329.63C44.9688 329.63 51.6587 322.94 51.6587 314.69Z" fill="#FFA6C2"/>
<path d="M106.629 142.23C103.229 143.87 99.339 144.82 95.189 144.82C91.599 144.82 88.2089 144.11 85.1489 142.86V155.3H106.629V142.23Z" fill="#EFD0C5" stroke="black" stroke-width="4" stroke-linecap="round" stroke-linejoin="round"/>
<path d="M91.7988 146.23C94.7788 146.23 97.7487 145.75 100.649 144.82C112.849 140.86 120.569 129.62 118.979 118.39L126.499 109.49C127.029 108.86 127.119 107.98 126.729 107.25C126.379 106.6 125.699 106.2 124.969 106.2C124.889 106.2 124.809 106.2 124.729 106.21L113.909 107.49C109.469 102.49 102.589 99.53 95.2687 99.53C92.2887 99.53 89.3088 100.01 86.4088 100.95C77.2188 103.93 70.3588 111.13 68.4188 119.63C68.1288 119.61 67.8288 119.59 67.5388 119.59C66.3888 119.59 65.2387 119.77 64.1287 120.13C58.3387 122.01 55.1588 128.24 57.0388 134.03C58.5188 138.6 62.7387 141.66 67.5287 141.66C68.6787 141.66 69.8288 141.48 70.9388 141.12C72.1188 140.74 73.2188 140.15 74.2088 139.38C78.6688 143.75 84.9487 146.22 91.7787 146.22L91.7988 146.23Z" fill="#EFD0C5"/>
<path d="M95.2786 101.53C92.5786 101.53 89.7987 101.95 87.0387 102.85C77.5987 105.91 71.1387 113.61 70.0487 121.95C69.2487 121.72 68.4087 121.6 67.5587 121.6C66.6387 121.6 65.6986 121.74 64.7686 122.04C60.0186 123.58 57.4187 128.67 58.9587 133.42C60.1987 137.24 63.7387 139.67 67.5487 139.67C68.4687 139.67 69.4087 139.53 70.3387 139.23C71.9487 138.71 73.2887 137.75 74.3287 136.56C78.4087 141.41 84.8287 144.23 91.7987 144.23C94.4987 144.23 97.2686 143.81 100.029 142.91C111.729 139.12 118.819 128.22 116.849 117.8L124.969 108.2L113.079 109.61C109.029 104.52 102.439 101.54 95.2786 101.54M95.2786 97.53C102.779 97.53 109.869 100.43 114.689 105.39L124.499 104.23C124.659 104.21 124.809 104.2 124.969 104.2C126.429 104.2 127.789 105 128.489 106.31C129.269 107.76 129.079 109.53 128.019 110.79L121.059 119.02C122.269 130.9 114.059 142.57 101.259 146.72C98.1686 147.72 94.9787 148.23 91.7987 148.23C85.0387 148.23 78.7587 145.97 74.0387 141.93C73.2587 142.39 72.4287 142.76 71.5687 143.04C70.2587 143.46 68.9087 143.68 67.5487 143.68C61.8787 143.68 56.8986 140.06 55.1486 134.66C52.9286 127.82 56.6886 120.46 63.5286 118.24C64.6286 117.88 65.7586 117.68 66.8986 117.62C69.4386 109.13 76.5187 102.06 85.7987 99.05C88.8987 98.05 92.0786 97.54 95.2686 97.54L95.2786 97.53Z" fill="black"/>
<path d="M31.3489 144.59C34.6489 144.59 37.9588 144.06 41.1788 143.01C49.8688 140.19 56.6989 134.1 59.4689 126.72C60.0289 125.23 60.4588 125.23 60.9288 125.23C61.4688 125.23 62.2088 125.39 62.9188 125.56C64.2388 125.87 65.6389 126.03 67.0889 126.03C69.4289 126.03 71.8789 125.62 74.3689 124.81C81.4089 122.53 86.8189 117.13 88.4989 110.73C88.6589 110.13 89.6289 110.11 89.7389 110.11C89.9289 110.11 90.1188 110.13 90.2588 110.18C91.7288 110.64 93.2888 110.87 94.8888 110.87C96.6688 110.87 98.4589 110.58 100.199 110.02C108.029 107.48 112.639 99.98 110.469 93.31C108.849 88.31 103.699 84.95 97.6588 84.95C95.8788 84.95 94.0889 85.24 92.3489 85.8C88.7489 86.97 85.6889 89.23 83.7389 92.18C83.2489 92.92 82.3489 93.66 81.4389 93.66C81.1589 93.66 80.8889 93.59 80.6089 93.46C77.5089 92 74.0789 91.22 70.6989 91.22C68.3589 91.22 66.0489 91.58 63.8389 92.3C60.1689 93.49 56.8789 95.53 54.3489 98.2C53.0889 99.65 51.8188 100.33 50.3888 100.33C49.6488 100.33 48.8289 100.15 47.9489 99.81C44.6089 98.36 40.7288 97.58 36.7988 97.58C33.5088 97.58 30.1989 98.11 26.9789 99.16C20.0889 101.39 14.3289 105.74 10.7489 111.39C7.09891 117.16 6.13885 123.6 8.05885 129.53C11.0288 138.68 20.1789 144.6 31.3589 144.6L31.3489 144.59Z" fill="#FCAECC"/>
<path d="M97.6587 86.96C96.1287 86.96 94.5387 87.2 92.9587 87.71C89.6687 88.78 87.0287 90.82 85.3987 93.29C84.6287 94.46 83.1587 95.66 81.4287 95.66C80.8887 95.66 80.3188 95.54 79.7388 95.27C77.0688 94.01 73.9587 93.22 70.6787 93.22C68.6387 93.22 66.5387 93.52 64.4287 94.21C60.9487 95.34 57.9987 97.24 55.7687 99.59C54.1187 101.5 52.3088 102.34 50.3588 102.34C49.3288 102.34 48.2687 102.11 47.1787 101.67C44.0487 100.31 40.4887 99.58 36.7687 99.58C33.7687 99.58 30.6587 100.05 27.5587 101.06C14.2387 105.38 6.3387 117.85 9.9287 128.91C12.6787 137.4 21.3987 142.59 31.3287 142.59C34.3387 142.59 37.4487 142.11 40.5487 141.11C48.7787 138.44 55.0687 132.73 57.5787 126.02C58.3787 123.88 59.4687 123.23 60.9087 123.23C61.6387 123.23 62.4488 123.39 63.3688 123.61C64.5588 123.89 65.7987 124.03 67.0687 124.03C69.2387 124.03 71.4987 123.64 73.7287 122.91C80.3887 120.75 85.0987 115.73 86.5487 110.23C86.9387 108.73 88.4087 108.12 89.7187 108.12C90.1187 108.12 90.4987 108.18 90.8287 108.28C92.0887 108.67 93.4588 108.88 94.8688 108.88C96.3988 108.88 97.9887 108.64 99.5587 108.13C106.349 105.93 110.369 99.57 108.539 93.94C107.139 89.61 102.689 86.97 97.6287 86.97M97.6587 82.96C104.569 82.96 110.479 86.87 112.369 92.7C114.879 100.43 109.689 109.05 100.809 111.93C98.8687 112.56 96.8787 112.88 94.8787 112.88C93.2487 112.88 91.6487 112.67 90.1287 112.24C87.9987 118.85 82.2787 124.35 74.9687 126.72C72.2787 127.59 69.6187 128.03 67.0687 128.03C65.4687 128.03 63.9087 127.85 62.4387 127.5C62.2287 127.45 61.7687 127.34 61.3887 127.28C61.3687 127.32 61.3487 127.37 61.3287 127.42C58.3487 135.37 51.0387 141.91 41.7787 144.91C38.3487 146.02 34.8387 146.58 31.3287 146.58C19.4387 146.58 9.30877 139.97 6.11877 130.13C1.85877 116.99 10.9187 102.23 26.3187 97.24C29.7387 96.13 33.2487 95.57 36.7587 95.57C40.9387 95.57 45.0587 96.4 48.6987 97.97C49.3187 98.21 49.8787 98.33 50.3487 98.33C50.9087 98.33 51.6888 98.18 52.7388 96.97C52.7788 96.92 52.8288 96.87 52.8688 96.83C55.6388 93.92 59.2087 91.7 63.1987 90.41C65.6187 89.63 68.1387 89.23 70.6787 89.23C74.3487 89.23 78.0687 90.07 81.4387 91.66C81.5387 91.61 81.8487 91.39 82.0487 91.08C84.2487 87.76 87.6787 85.21 91.7187 83.91C93.6587 83.28 95.6587 82.96 97.6487 82.96H97.6587Z" fill="black"/>
<path d="M102.849 123.31C101.082 123.31 99.6488 121.877 99.6488 120.11C99.6488 118.343 101.082 116.91 102.849 116.91C104.616 116.91 106.049 118.343 106.049 120.11C106.049 121.877 104.616 123.31 102.849 123.31Z" fill="black"/>
<path d="M179.649 24.3164C180.805 21.8288 171.02 23.8106 170.236 24.3783C164.352 28.6413 160.853 37.4458 162.34 44.537C164.404 54.384 175.686 57.7799 184.222 54.1776C185.471 53.6512 191.158 48.9547 191.778 49.0889C191.788 49.0889 211.162 53.2693 211.977 32.1301C212.793 10.9909 189.197 3.86879 179.649 24.3164Z" fill="#FF6C7E" stroke="black" stroke-width="4" stroke-linecap="round" stroke-linejoin="round"/>
<path d="M179.65 24.3164C179.65 24.3164 172.796 4.39522 180.351 2.00055" stroke="black" stroke-width="4" stroke-linecap="round" stroke-linejoin="round"/>
<path d="M48.4373 32.0777C48.4373 32.0777 46.6057 21.4252 34.0515 22.98C26.8461 23.8683 18.7811 32.6472 18.8979 42.1668C19.022 52.297 28.4886 59.9082 36.4103 57.5661C35.6805 57.7816 39.7903 63.8611 40.2489 64.3376C42.8085 66.9706 48.322 71.2049 54.5908 69.959C64.7125 67.9485 70.8785 56.2546 68.9558 45.4341C67.8739 39.3305 63.8724 35.0252 58.7143 33.411C57.8831 33.1493 48.2938 31.2376 48.4411 32.071L48.4373 32.0777Z" fill="#FF6C7E" stroke="black" stroke-width="4" stroke-linecap="round" stroke-linejoin="round"/>
<path d="M48.4375 32.0777C48.4375 32.0777 56.8341 22.6414 54.1167 15.9675" stroke="black" stroke-width="4" stroke-linecap="round" stroke-linejoin="round"/>
<path d="M229.118 320.951C227.468 316.461 220.448 316.741 217.408 319.491C213.808 322.751 213.928 329.001 217.398 332.291C219.808 334.581 223.578 335.321 226.678 334.121C228.968 337.471 234.688 337.971 238.008 335.991C245.068 331.791 240.778 315.521 231.738 319.001C231.358 319.151 228.918 320.421 229.108 320.951H229.118Z" fill="#FF6C7E" stroke="black" stroke-width="4" stroke-linecap="round" stroke-linejoin="round"/>
<path d="M232.798 312.601C232.798 312.601 230.698 312.961 229.128 320.951" stroke="black" stroke-width="4" stroke-linecap="round" stroke-linejoin="round"/>
<path d="M252.278 327.981C250.358 323.241 242.878 323.771 239.718 326.821C235.978 330.431 236.328 337.101 240.138 340.501C242.798 342.871 246.848 343.531 250.118 342.141C252.678 345.641 258.808 345.981 262.288 343.761C269.688 339.041 264.548 321.791 255.018 325.821C254.618 325.991 252.048 327.431 252.278 327.991V327.981Z" fill="#FF6C7E" stroke="black" stroke-width="4" stroke-linecap="round" stroke-linejoin="round"/>
<path d="M255.918 318.941C255.918 318.941 253.688 319.391 252.278 327.991" stroke="black" stroke-width="4" stroke-linecap="round" stroke-linejoin="round"/>
<path d="M214.048 325.131C215.278 324.781 211.588 321.951 211.158 321.851C207.868 321.091 203.718 322.551 201.678 325.231C198.858 328.961 201.108 333.951 204.968 335.841C205.538 336.121 208.918 336.681 209.058 336.941C209.058 336.941 213.508 345.011 221.168 338.851C228.828 332.691 224.128 322.251 214.048 325.131Z" fill="#FF6C7E" stroke="black" stroke-width="4" stroke-linecap="round" stroke-linejoin="round"/>
<path d="M214.048 325.131C214.048 325.131 218.938 316.651 222.088 318.571" stroke="black" stroke-width="4" stroke-linecap="round" stroke-linejoin="round"/>
<path d="M190.218 333.311C186.438 329.861 179.918 333.581 178.388 337.691C176.578 342.561 179.768 348.421 184.678 349.841C188.098 350.831 192.038 349.681 194.388 347.001C198.208 349.051 203.888 346.711 206.068 343.201C210.708 335.741 198.618 322.411 191.758 330.171C191.468 330.491 189.778 332.911 190.218 333.311Z" fill="#FF6C7E" stroke="black" stroke-width="4" stroke-linecap="round" stroke-linejoin="round"/>
<path d="M189.588 323.581C189.588 323.581 187.768 324.951 190.208 333.311" stroke="black" stroke-width="4" stroke-linecap="round" stroke-linejoin="round"/>
<path d="M176.028 352.221C172.248 348.771 165.728 352.491 164.198 356.601C162.388 361.471 165.578 367.331 170.488 368.751C173.908 369.741 177.848 368.591 180.198 365.911C184.018 367.961 189.698 365.621 191.878 362.111C196.518 354.651 184.428 341.321 177.568 349.081C177.278 349.401 175.588 351.821 176.028 352.221Z" fill="#FF6C7E" stroke="black" stroke-width="4" stroke-linecap="round" stroke-linejoin="round"/>
<path d="M175.408 342.491C175.408 342.491 173.588 343.861 176.028 352.221" stroke="black" stroke-width="4" stroke-linecap="round" stroke-linejoin="round"/>
<path d="M273.008 343.421C268.448 335.741 257.538 341.021 257.538 348.901C257.538 353.631 262.888 357.611 267.468 355.851C267.438 355.851 268.448 357.321 268.508 357.411C269.408 358.511 270.528 359.461 271.858 360.011C279.428 363.161 284.428 354.221 282.618 347.851C282.118 346.101 281.148 344.371 279.608 343.341C278.758 342.771 277.788 342.471 276.768 342.441C276.378 342.441 272.868 343.181 273.008 343.421Z" fill="#FF6C7E" stroke="black" stroke-width="4" stroke-linecap="round" stroke-linejoin="round"/>
<path d="M279.068 336.901C279.068 336.901 275.768 337.201 272.998 343.421" stroke="black" stroke-width="4" stroke-linecap="round" stroke-linejoin="round"/>
<path d="M253.058 343.481C253.558 342.311 249.038 343.371 248.688 343.651C246.018 345.721 244.528 349.861 245.318 353.131C246.418 357.671 251.718 359.081 255.618 357.291C256.188 357.031 258.758 354.761 259.058 354.811C259.058 354.811 268.128 356.461 268.188 346.641C268.248 336.811 257.188 333.851 253.058 343.491V343.481Z" fill="#FF6C7E" stroke="black" stroke-width="4" stroke-linecap="round" stroke-linejoin="round"/>
<path d="M253.058 343.481C253.058 343.481 249.578 334.331 253.058 333.101" stroke="black" stroke-width="4" stroke-linecap="round" stroke-linejoin="round"/>
<path d="M234.968 340.191C234.968 340.191 232.538 333.951 225.108 336.441C220.838 337.871 217.028 344.201 218.268 349.971C219.598 356.101 226.278 359.561 230.808 357.161C230.388 357.381 233.638 360.571 233.978 360.801C235.858 362.081 239.728 363.971 243.378 362.441C249.278 359.971 251.578 352.111 249.078 345.771C247.668 342.191 244.708 340.081 241.378 339.731C240.838 339.671 234.778 339.691 234.968 340.191Z" fill="#FF6C7E" stroke="black" stroke-width="4" stroke-linecap="round" stroke-linejoin="round"/>
<path d="M234.968 340.191C234.968 340.191 238.908 333.421 236.428 329.711" stroke="black" stroke-width="4" stroke-linecap="round" stroke-linejoin="round"/>
<path d="M276.108 356.291C274.338 351.491 266.838 351.791 263.598 354.731C259.748 358.211 259.878 364.891 263.588 368.411C266.168 370.861 270.198 371.651 273.508 370.361C275.958 373.941 282.068 374.471 285.618 372.361C293.168 367.871 288.578 350.481 278.918 354.201C278.518 354.361 275.898 355.721 276.108 356.281V356.291Z" fill="#FF6C7E" stroke="black" stroke-width="4" stroke-linecap="round" stroke-linejoin="round"/>
<path d="M280.038 347.371C280.038 347.371 277.798 347.751 276.108 356.301" stroke="black" stroke-width="4" stroke-linecap="round" stroke-linejoin="round"/>
<path d="M214.588 338.631C214.588 338.631 210.888 333.441 205.668 336.341C200.448 339.241 199.128 346.081 202.838 348.721C206.548 351.361 209.438 350.671 209.438 350.671C209.438 350.671 212.208 356.661 217.768 355.601C223.328 354.551 226.198 348.411 224.858 344.671C224.858 344.671 224.138 336.901 214.588 338.631Z" fill="#FF6C7E" stroke="black" stroke-width="4" stroke-linecap="round" stroke-linejoin="round"/>
<path d="M222.798 333.431C222.798 333.431 221.188 331.991 214.588 338.631" stroke="black" stroke-width="4" stroke-linecap="round" stroke-linejoin="round"/>
<path d="M196.608 354.411C192.018 352.151 186.788 357.531 186.458 361.901C186.068 367.081 190.768 371.831 195.878 371.821C199.438 371.821 202.898 369.621 204.418 366.401C208.658 367.301 213.458 363.481 214.578 359.501C216.958 351.051 201.648 341.601 197.208 350.961C197.028 351.351 196.068 354.141 196.608 354.411Z" fill="#FF6C7E" stroke="black" stroke-width="4" stroke-linecap="round" stroke-linejoin="round"/>
<path d="M193.298 345.241C193.298 345.241 191.938 347.061 196.598 354.411" stroke="black" stroke-width="4" stroke-linecap="round" stroke-linejoin="round"/>
<path d="M223.958 354.431C223.958 354.431 219.698 349.261 213.418 353.961C209.818 356.661 208.178 363.861 211.168 368.951C214.348 374.361 221.788 375.541 225.328 371.841C224.998 372.181 229.088 374.191 229.478 374.301C231.668 374.931 235.938 375.511 238.918 372.911C243.748 368.711 243.458 360.531 239.098 355.291C236.638 352.341 233.158 351.261 229.888 351.981C229.358 352.101 223.608 354.021 223.948 354.421L223.958 354.431Z" fill="#FF6C7E" stroke="black" stroke-width="4" stroke-linecap="round" stroke-linejoin="round"/>
<path d="M223.958 354.431C223.958 354.431 225.568 346.771 222.048 344.021" stroke="black" stroke-width="4" stroke-linecap="round" stroke-linejoin="round"/>
<path d="M253.948 357.131C253.858 356.321 257.268 356.291 257.828 356.301C261.618 356.361 264.868 358.871 265.718 362.581C266.658 366.661 264.358 371.311 260.778 373.431C258.878 374.561 256.538 374.441 254.348 373.911C249.828 372.821 249.298 370.121 249.218 370.171C249.218 370.171 243.418 374.141 238.878 367.551C236.558 364.191 236.388 359.541 238.218 355.911C239.878 352.611 243.248 350.411 246.978 350.821C250.388 351.201 253.548 353.571 253.958 357.121L253.948 357.131Z" fill="#FF6C7E" stroke="black" stroke-width="4" stroke-linecap="round" stroke-linejoin="round"/>
<path d="M261.218 349.911C261.218 349.911 258.608 346.921 253.948 357.131" stroke="black" stroke-width="4" stroke-linecap="round" stroke-linejoin="round"/>
<path d="M300.448 373.331C300.448 376.581 299.128 379.501 297.008 381.631C295.258 383.381 292.958 384.581 290.388 384.951C289.838 385.031 289.278 385.081 288.708 385.081H165.738C165.168 385.081 164.618 385.031 164.068 384.951C158.378 384.151 153.998 379.241 153.998 373.331C153.998 370.081 155.318 367.161 157.438 365.031C159.568 362.901 162.508 361.591 165.738 361.591H288.698C295.178 361.591 300.438 366.851 300.438 373.331H300.448Z" fill="#BF8877" stroke="black" stroke-width="4" stroke-linecap="round" stroke-linejoin="round"/>
<path d="M290.378 384.94L282.308 412.81C279.538 422.37 270.778 428.94 260.838 428.94H193.618C183.658 428.94 174.898 422.36 172.128 412.81L164.068 384.94C164.618 385.02 165.168 385.07 165.738 385.07H288.698C289.268 385.07 289.828 385.02 290.378 384.94Z" fill="#C98D7D" stroke="black" stroke-width="4" stroke-linecap="round" stroke-linejoin="round"/>
<path d="M189.938 417.001L187.258 404.161" stroke="black" stroke-width="3" stroke-linecap="round" stroke-linejoin="round"/>
<path d="M196.638 417.001L193.958 404.161" stroke="black" stroke-width="3" stroke-linecap="round" stroke-linejoin="round"/>
<path d="M184.758 413.581H199.478" stroke="black" stroke-width="3" stroke-linecap="round" stroke-linejoin="round"/>
<path d="M184.128 407.831H198.848" stroke="black" stroke-width="3" stroke-linecap="round" stroke-linejoin="round"/>
<path d="M266.758 407.761L269.438 394.921" stroke="black" stroke-width="3" stroke-linecap="round" stroke-linejoin="round"/>
<path d="M260.058 407.761L262.738 394.921" stroke="black" stroke-width="3" stroke-linecap="round" stroke-linejoin="round"/>
<path d="M271.938 404.331H257.218" stroke="black" stroke-width="3" stroke-linecap="round" stroke-linejoin="round"/>
<path d="M272.568 398.581H257.838" stroke="black" stroke-width="3" stroke-linecap="round" stroke-linejoin="round"/>
<path d="M283.138 337.191V361.811H271.598V336.061C271.598 319.151 257.888 305.431 240.968 305.431H212.778C195.858 305.431 182.128 319.151 182.128 336.061V361.811H171.298V337.191C171.298 313.341 190.638 294.001 214.488 294.001H239.938C263.788 294.001 283.128 313.341 283.128 337.191H283.138Z" fill="#BF8877" stroke="black" stroke-width="4" stroke-linecap="round" stroke-linejoin="round"/>
<path d="M173.668 358.74L179.628 354.06" stroke="black" stroke-width="3" stroke-linecap="round" stroke-linejoin="round"/>
<path d="M173.668 349.921L179.628 345.231" stroke="black" stroke-width="3" stroke-linecap="round" stroke-linejoin="round"/>
<path d="M173.668 339.511L176.648 337.171C177.628 336.381 178.678 335.621 179.708 334.961" stroke="black" stroke-width="3" stroke-linecap="round" stroke-linejoin="round"/>
<path d="M174.188 330.261C176.338 328.891 178.748 327.831 180.998 327.011" stroke="black" stroke-width="3" stroke-linecap="round" stroke-linejoin="round"/>
<path d="M177.519 319.561C178.799 319.241 179.969 318.941 181.269 318.771C182.539 318.591 183.779 318.471 184.979 318.411" stroke="black" stroke-width="3" stroke-linecap="round" stroke-linejoin="round"/>
<path d="M182.628 311.531C183.958 311.541 185.248 311.601 186.498 311.711C187.128 311.771 187.718 311.821 188.348 311.921C188.978 312.021 189.588 312.141 190.188 312.261" stroke="black" stroke-width="3" stroke-linecap="round" stroke-linejoin="round"/>
<path d="M190.958 304.031C192.228 304.421 193.448 304.841 194.618 305.301C195.208 305.541 195.758 305.751 196.328 306.021C196.898 306.301 197.458 306.581 197.998 306.871" stroke="black" stroke-width="3" stroke-linecap="round" stroke-linejoin="round"/>
<path d="M199.478 299.781C201.718 301.011 203.798 302.631 205.598 304.201" stroke="black" stroke-width="3" stroke-linecap="round" stroke-linejoin="round"/>
<path d="M210.458 297.571C211.358 298.531 212.188 299.461 212.958 300.451L215.298 303.431" stroke="black" stroke-width="3" stroke-linecap="round" stroke-linejoin="round"/>
<path d="M219.438 297.471L224.118 303.441" stroke="black" stroke-width="3" stroke-linecap="round" stroke-linejoin="round"/>
<path d="M229.848 297.471L234.528 303.441" stroke="black" stroke-width="3" stroke-linecap="round" stroke-linejoin="round"/>
<path d="M238.668 297.471L241.008 300.451C241.798 301.451 242.518 302.511 243.178 303.531" stroke="black" stroke-width="3" stroke-linecap="round" stroke-linejoin="round"/>
<path d="M249.628 298.361C250.838 300.741 251.828 302.961 252.478 305.391" stroke="black" stroke-width="3" stroke-linecap="round" stroke-linejoin="round"/>
<path d="M258.618 301.511C259.288 303.961 259.568 306.611 259.698 308.971" stroke="black" stroke-width="3" stroke-linecap="round" stroke-linejoin="round"/>
<path d="M267.838 307.861C267.788 310.401 267.298 313.021 266.758 315.321" stroke="black" stroke-width="3" stroke-linecap="round" stroke-linejoin="round"/>
<path d="M273.998 315.111C273.218 317.641 272.318 319.931 271.088 322.111" stroke="black" stroke-width="3" stroke-linecap="round" stroke-linejoin="round"/>
<path d="M278.718 325.281C277.228 327.481 275.738 329.421 273.918 331.151" stroke="black" stroke-width="3" stroke-linecap="round" stroke-linejoin="round"/>
<path d="M280.258 334.671C279.298 335.561 278.368 336.361 277.358 337.131L274.378 339.471" stroke="black" stroke-width="3" stroke-linecap="round" stroke-linejoin="round"/>
<path d="M280.338 345.201L274.368 349.881" stroke="black" stroke-width="3" stroke-linecap="round" stroke-linejoin="round"/>
<path d="M280.338 354.031L274.368 358.711" stroke="black" stroke-width="3" stroke-linecap="round" stroke-linejoin="round"/>
</svg>
