<svg width="240" height="426" viewBox="0 0 240 426" fill="none" xmlns="http://www.w3.org/2000/svg">
<path d="M161.879 423.953C165.369 423.953 168.179 422.793 170.239 420.513C174.259 416.053 173.779 408.823 173.689 407.783V395.443C173.689 394.343 172.789 393.443 171.689 393.443H118.109C98.2893 394.033 85.0693 401.283 79.8393 414.393C78.9793 416.523 79.5593 418.153 80.2093 419.133C83.0093 423.413 92.7793 423.893 94.7093 423.953C95.0193 423.953 119.559 423.853 139.139 423.853C150.629 423.853 158.169 423.883 161.569 423.953H161.869H161.879Z" fill="#FCAECC"/>
<path d="M118.119 395.433C91.4894 396.233 84.2394 408.793 81.7094 415.123C79.1294 421.513 94.7794 421.943 94.7794 421.943C94.7794 421.943 119.349 421.843 139.149 421.843C149.049 421.843 157.759 421.863 161.619 421.943C161.709 421.943 161.789 421.943 161.879 421.943C173.169 421.943 171.689 407.863 171.689 407.863V395.423H118.109M118.119 391.433H171.699C173.909 391.433 175.699 393.223 175.699 395.433V407.683C175.839 409.313 176.199 416.873 171.729 421.843C169.309 424.523 165.909 425.943 161.879 425.943C161.769 425.943 161.659 425.943 161.549 425.943C158.159 425.883 150.629 425.843 139.149 425.843C119.579 425.843 95.0394 425.943 94.7994 425.943C94.7994 425.943 94.7994 425.943 94.7894 425.943C94.7494 425.943 94.7194 425.943 94.6794 425.943C94.5594 425.943 91.7094 425.853 88.5294 425.283C83.4494 424.373 80.1894 422.713 78.5594 420.223C77.2794 418.263 77.0894 415.923 78.0194 413.623C83.5594 399.733 97.3894 392.053 118.019 391.433C118.059 391.433 118.099 391.433 118.139 391.433H118.119Z" fill="black"/>
<path d="M144.699 337.913L150.089 340.613C155.569 343.353 161.479 344.983 167.069 342.493L173.269 339.733C173.409 339.673 173.559 339.623 173.709 339.563V394.523H111.379L122.509 339.743L128.559 338.303C133.709 336.583 139.829 335.493 144.689 337.923L144.699 337.913Z" fill="#7F7FDB" stroke="black" stroke-width="4" stroke-linecap="round" stroke-linejoin="round"/>
<path d="M97.8793 388.913L123.069 401.293" stroke="black" stroke-width="4" stroke-linecap="round" stroke-linejoin="round"/>
<path d="M113.029 408.903L107.929 381.313" stroke="black" stroke-width="4" stroke-linecap="round" stroke-linejoin="round"/>
<path d="M119.529 423.953C123.019 423.953 125.829 422.793 127.889 420.513C131.909 416.053 131.439 408.823 131.339 407.783V395.443C131.339 394.343 130.439 393.443 129.339 393.443H75.7594C55.9394 394.033 42.7194 401.283 37.4894 414.393C36.6294 416.523 37.2094 418.153 37.8594 419.133C40.6594 423.413 50.4294 423.893 52.3594 423.953C52.6694 423.953 77.2094 423.853 96.7894 423.853C108.279 423.853 115.819 423.883 119.219 423.953H119.519H119.529Z" fill="#FCAECC"/>
<path d="M75.7693 395.433C49.1393 396.233 41.8893 408.793 39.3593 415.123C36.7793 421.513 52.4293 421.943 52.4293 421.943C52.4293 421.943 76.9993 421.843 96.7993 421.843C106.699 421.843 115.409 421.863 119.269 421.943C119.359 421.943 119.439 421.943 119.529 421.943C130.819 421.943 129.339 407.863 129.339 407.863V395.423H75.7593M75.7693 391.433H129.349C131.559 391.433 133.349 393.223 133.349 395.433V407.683C133.489 409.313 133.849 416.873 129.379 421.843C126.959 424.523 123.559 425.943 119.529 425.943C119.419 425.943 119.309 425.943 119.199 425.943C115.809 425.883 108.279 425.843 96.7993 425.843C77.2293 425.843 52.6893 425.943 52.4493 425.943C52.4493 425.943 52.4493 425.943 52.4393 425.943C52.3993 425.943 52.3693 425.943 52.3293 425.943C52.2093 425.943 49.3593 425.853 46.1793 425.283C41.0993 424.373 37.8393 422.713 36.2093 420.223C34.9293 418.263 34.7393 415.923 35.6693 413.623C41.2093 399.733 55.0393 392.053 75.6693 391.433C75.7093 391.433 75.7493 391.433 75.7893 391.433H75.7693Z" fill="black"/>
<path d="M103.119 337.913L108.509 340.613C113.989 343.353 119.899 344.983 125.489 342.493L131.689 339.733C131.829 339.673 131.979 339.623 132.129 339.563V394.523H69.7994L80.9294 339.743L86.9794 338.303C92.1294 336.583 98.2494 335.493 103.109 337.923L103.119 337.913Z" fill="#7F7FDB" stroke="black" stroke-width="4" stroke-linecap="round" stroke-linejoin="round"/>
<path d="M56.2993 388.913L81.4893 401.293" stroke="black" stroke-width="4" stroke-linecap="round" stroke-linejoin="round"/>
<path d="M71.4395 408.903L66.3395 381.313" stroke="black" stroke-width="4" stroke-linecap="round" stroke-linejoin="round"/>
<path d="M66.0896 80.6728C66.0896 80.6728 95.4296 58.8428 81.8196 54.4928C81.8196 54.4928 75.9796 51.4727 64.0696 57.8727C64.0696 57.8727 81.5596 35.5928 68.3496 31.4628C68.3496 31.4628 62.7096 29.1828 57.6696 45.4028C57.6696 45.4028 59.5996 18.0827 48.4696 18.3727C37.3396 18.6527 41.9396 41.1428 41.9396 41.1428C41.9396 41.1428 35.2596 14.1127 24.8796 17.0927C14.4996 20.0727 26.5096 43.4128 26.5096 43.4128C26.5096 43.4128 17.1596 31.1727 11.8196 40.5627C6.47956 49.9527 28.9996 80.6728 28.9996 80.6728H66.0996H66.0896Z" fill="#EFD0C5" stroke="black" stroke-width="4" stroke-linecap="round" stroke-linejoin="round"/>
<path d="M180.269 302.953C180.269 302.953 167.489 321.693 174.419 326.303C181.359 330.913 187.739 318.483 187.739 318.483C187.739 318.483 180.699 348.693 194.789 350.233C208.879 351.773 202.179 321.123 202.179 321.123C202.179 321.123 208.369 354.723 215.729 354.033C223.099 353.343 214.829 318.993 214.829 318.993C214.829 318.993 223.949 348.873 231.709 341.713C239.469 334.553 219.539 308.673 219.539 308.673C219.539 308.673 236.779 323.013 237.929 315.833C239.079 308.653 218.609 295.473 218.609 295.473L180.269 302.953Z" fill="#EFD0C5" stroke="black" stroke-width="4" stroke-linecap="round" stroke-linejoin="round"/>
<path d="M109.379 350.653C113.219 350.653 116.869 349.973 119.659 348.723L122.649 347.393C125.029 346.333 127.559 345.793 130.169 345.793C132.779 345.793 135.609 346.403 138.059 347.563L139.829 348.403C142.809 349.813 146.129 350.563 149.429 350.563C154.089 350.563 158.569 349.143 162.369 346.463C165.499 344.253 169.179 343.093 173.009 343.093C174.479 343.093 175.959 343.273 177.389 343.623L190.699 346.873C190.969 346.933 191.239 346.973 191.509 346.973C192.529 346.973 193.479 346.523 194.129 345.723C194.769 344.933 195.029 343.913 194.829 342.913L184.629 292.523L187.569 304.243L221.449 296.423L221.009 294.483C219.799 289.123 191.459 165.633 147.099 158.163L149.779 151.303H108.889L111.239 157.183L108.259 157.383C107.699 157.423 107.129 157.443 106.569 157.443C101.409 157.443 96.3392 155.783 92.2992 152.773C70.3492 136.433 67.1392 101.983 67.1792 82.8928V80.8928H27.6692L27.6092 82.8328C27.6092 83.0928 26.9192 109.343 34.4192 136.553C44.2192 172.103 63.5392 193.593 90.3692 198.843L59.4392 345.433C59.2292 346.433 59.4792 347.463 60.1192 348.263C60.7692 349.063 61.7292 349.523 62.7492 349.523C63.0792 349.523 63.4092 349.473 63.7192 349.383L77.6592 346.063L77.7392 346.033C81.0992 344.913 84.1092 344.343 86.6792 344.343C88.8392 344.343 90.7492 344.743 92.3392 345.543L97.7392 348.243C100.849 349.793 104.979 350.653 109.359 350.653H109.379Z" fill="#B6B6FF"/>
<path d="M29.6293 82.8828C29.6293 82.8828 26.5493 186.453 92.7693 197.233L61.4093 345.843C61.2193 346.733 61.9194 347.513 62.7594 347.513C62.8994 347.513 63.0494 347.493 63.1994 347.443L77.1194 344.133C80.1294 343.133 83.4693 342.343 86.6893 342.343C88.9893 342.343 91.2293 342.743 93.2393 343.753L98.6394 346.453C101.559 347.913 105.489 348.653 109.369 348.653C112.799 348.653 116.199 348.073 118.829 346.903L121.819 345.573C124.469 344.393 127.309 343.803 130.149 343.803C133.139 343.803 136.129 344.463 138.899 345.763L140.669 346.603C143.449 347.923 146.439 348.563 149.419 348.563C153.569 348.563 157.699 347.303 161.209 344.823C164.689 342.373 168.819 341.083 172.999 341.083C174.619 341.083 176.249 341.273 177.849 341.663L191.159 344.913C191.269 344.943 191.379 344.953 191.489 344.953C192.329 344.953 193.019 344.173 192.839 343.293L165.389 207.703L188.999 301.833L219.029 294.903C219.029 294.903 189.189 162.553 144.259 159.833L146.819 153.293H111.819L114.099 158.983L108.379 159.373C107.769 159.413 107.159 159.433 106.559 159.433C101.009 159.433 95.5693 157.703 91.0993 154.373C80.3094 146.333 65.0794 127.153 65.1794 82.8928H29.6093M25.7494 78.8828H69.2094V82.8928C69.1594 101.973 72.0293 118.013 77.7193 130.563C81.7393 139.423 87.0594 146.363 93.5094 151.163C97.2094 153.913 101.849 155.433 106.589 155.433C107.099 155.433 107.629 155.413 108.139 155.383L108.379 155.363L108.139 154.773L105.949 149.283H152.719L150.579 154.743L149.819 156.673C168.229 161.403 185.839 184.983 202.249 226.933C215.289 260.253 222.889 293.693 222.959 294.023L223.839 297.903L219.959 298.793L189.929 305.723L189.369 305.853L196.789 342.493C197.109 344.083 196.709 345.713 195.679 346.973C194.649 348.233 193.129 348.953 191.509 348.953C191.079 348.953 190.649 348.903 190.229 348.803L176.919 345.553C175.639 345.243 174.329 345.083 173.019 345.083C169.599 345.083 166.319 346.123 163.529 348.093C159.379 351.013 154.509 352.563 149.429 352.563C145.839 352.563 142.219 351.753 138.969 350.213L137.199 349.373C135.009 348.343 132.579 347.793 130.159 347.793C127.839 347.793 125.579 348.273 123.459 349.223L120.469 350.553C117.429 351.903 113.499 352.653 109.379 352.653C104.689 352.653 100.239 351.723 96.8593 350.033L91.4594 347.333C90.1494 346.673 88.5493 346.343 86.6893 346.343C84.3393 346.343 81.5393 346.873 78.3793 347.933L78.2094 347.993L78.0394 348.033L64.2393 351.323C63.7493 351.463 63.2594 351.533 62.7494 351.533C61.1194 351.533 59.5994 350.803 58.5694 349.533C57.5394 348.263 57.1493 346.623 57.4893 345.033L88.0094 200.403C73.6994 197.153 61.5394 189.413 51.8394 177.343C43.5094 166.983 37.0094 153.443 32.4994 137.093C24.9194 109.593 25.5894 83.8628 25.6194 82.7728L25.7393 78.8928L25.7494 78.8828Z" fill="black"/>
<path d="M162.079 197.113L188.259 303.373" stroke="black" stroke-width="4" stroke-miterlimit="10" stroke-linecap="round"/>
<path d="M122.609 192.803C130.859 192.803 137.549 199.493 137.549 207.743C137.549 215.993 130.859 222.683 122.609 222.683C114.359 222.683 107.669 215.993 107.669 207.743C107.669 199.493 114.359 192.803 122.609 192.803Z" fill="#FFA6C2"/>
<path d="M150.33 242.473C158.58 242.473 165.27 249.163 165.27 257.413C165.27 265.663 158.58 272.353 150.33 272.353C142.08 272.353 135.39 265.663 135.39 257.413C135.39 249.163 142.08 242.473 150.33 242.473Z" fill="#FFE49F"/>
<path d="M109.899 287.523C118.149 287.523 124.839 294.213 124.839 302.463C124.839 310.713 118.149 317.403 109.899 317.403C101.649 317.403 94.9594 310.713 94.9594 302.463C94.9594 294.213 101.649 287.523 109.899 287.523Z" fill="#ADF2F0"/>
<path d="M93.6592 253.953C93.6592 262.203 86.9692 268.893 78.7192 268.893C78.3592 268.893 78.0192 268.863 77.6692 268.843L83.7692 239.913C89.5292 241.983 93.6592 247.483 93.6592 253.953Z" fill="#FFBE5F"/>
<path d="M83.3396 163.783C75.0896 163.783 68.3996 157.093 68.3996 148.843C68.3996 143.313 71.4196 138.493 75.8896 135.913C80.6896 145.063 86.3395 150.823 91.1295 154.383C92.5895 155.473 94.1596 156.363 95.7896 157.103C93.1096 161.133 88.5396 163.783 83.3396 163.783Z" fill="#FFBE5F"/>
<path d="M33.6694 106.173C41.9194 106.173 48.6094 112.863 48.6094 121.113C48.6094 128.463 43.2994 134.553 36.3094 135.803C33.4394 125.343 31.7894 115.103 30.8494 106.443C31.7594 106.273 32.6994 106.173 33.6694 106.173Z" fill="#ADF2F0"/>
<path d="M195.459 241.243C195.459 237.273 197.019 233.683 199.539 231.003C202.829 239.603 205.749 248.123 208.259 256.013C201.029 254.973 195.459 248.763 195.459 241.243Z" fill="#ADF2F0"/>
<path d="M75.1692 341.733C75.1692 342.733 75.0692 343.713 74.8792 344.663L63.2092 347.443C62.1892 347.783 61.1892 346.893 61.4192 345.843L65.2492 327.673C71.0292 329.733 75.1792 335.243 75.1792 341.733H75.1692Z" fill="#FFE49F"/>
<path d="M173.509 310.553C173.509 304.083 177.639 298.583 183.399 296.513L189.259 325.453C188.989 325.463 188.729 325.493 188.449 325.493C180.199 325.493 173.509 318.803 173.509 310.553Z" fill="#FFA6C2"/>
<path d="M167.73 183.493C167.73 180.623 168.55 177.953 169.95 175.683C175.28 181.963 180.25 189.733 184.83 198.263C184.12 198.363 183.4 198.433 182.67 198.433C174.42 198.433 167.73 191.743 167.73 183.493Z" fill="#FFE49F"/>
<path d="M115.759 141.313C119.159 142.953 123.049 143.903 127.199 143.903C130.789 143.903 134.179 143.193 137.239 141.943V151.383H115.759V141.313Z" fill="#EFD0C5" stroke="black" stroke-width="4" stroke-linecap="round" stroke-linejoin="round"/>
<path d="M148.549 150.303C151.819 150.303 154.889 148.873 156.999 146.373C160.919 141.723 160.319 134.743 155.669 130.823C154.549 129.873 153.269 129.173 151.889 128.743C153.289 120.133 149.659 110.883 142.269 104.663C137.189 100.383 130.919 98.0228 124.609 98.0228C120.959 98.0228 117.429 98.8328 114.329 100.363L104.789 95.1028C104.489 94.9328 104.159 94.8528 103.819 94.8528C103.359 94.8528 102.909 95.0128 102.539 95.3128C101.909 95.8328 101.659 96.6928 101.909 97.4728L105.529 108.553C99.819 118.353 102.739 131.673 112.549 139.933C117.629 144.203 123.889 146.563 130.189 146.563C133.289 146.563 136.309 145.983 139.059 144.863C139.689 145.953 140.489 146.913 141.439 147.713C143.429 149.383 145.949 150.303 148.539 150.303H148.549Z" fill="#EFD0C5"/>
<path d="M103.819 96.8528L107.729 108.803C101.969 117.703 104.439 130.483 113.849 138.403C118.739 142.523 124.599 144.563 130.199 144.563C133.679 144.563 137.069 143.773 140.049 142.203C140.559 143.693 141.439 145.083 142.739 146.183C144.429 147.613 146.499 148.303 148.559 148.303C151.129 148.303 153.689 147.213 155.479 145.083C158.689 141.263 158.209 135.563 154.389 132.353C152.959 131.143 151.259 130.463 149.529 130.283C151.659 122.153 148.579 112.583 140.989 106.193C136.089 102.073 130.229 100.023 124.619 100.023C120.959 100.023 117.409 100.893 114.319 102.633L103.839 96.8528M103.819 92.8528C103.879 92.8528 103.939 92.8528 103.999 92.8528C104.659 92.8828 105.279 93.0728 105.819 93.3828L114.409 98.1228C117.549 96.7428 121.029 96.0228 124.609 96.0228C131.379 96.0228 138.109 98.5428 143.549 103.133C151.019 109.423 154.909 118.633 154.069 127.453C155.099 127.933 156.069 128.553 156.959 129.303C162.459 133.933 163.159 142.173 158.529 147.673C156.049 150.623 152.409 152.313 148.559 152.313C145.499 152.313 142.509 151.223 140.169 149.253C139.479 148.673 138.849 148.013 138.299 147.293C135.739 148.143 132.999 148.583 130.209 148.583C123.439 148.583 116.719 146.063 111.279 141.483C100.989 132.813 97.789 118.913 103.379 108.363L100.079 98.2628C99.919 97.8328 99.829 97.3628 99.829 96.8728C99.829 94.6728 101.609 92.8828 103.799 92.8728C103.799 92.8728 103.819 92.8728 103.829 92.8728L103.819 92.8528Z" fill="black"/>
<path d="M161.449 188.373C164.639 188.373 167.719 187.753 170.629 186.513C177.189 183.733 182.089 178.173 184.429 170.863C186.729 163.663 186.269 155.603 183.119 148.173C181.089 143.383 178.009 139.103 174.199 135.803L169.299 131.083C165.919 127.823 163.719 123.473 163.089 118.823L162.629 115.393C162.559 103.553 152.899 93.9328 141.039 93.9328C140.089 93.9328 139.139 93.9928 138.209 94.1228C137.509 94.2128 136.819 94.2628 136.159 94.2628C134.289 94.2628 132.599 93.9028 131.139 93.2028C129.319 92.3328 127.379 91.8828 125.349 91.8828C124.629 91.8828 123.899 91.9428 123.179 92.0528C117.359 92.9728 112.769 97.7028 112.029 103.573C111.469 107.993 113.119 112.393 116.429 115.333C118.259 116.963 119.609 119.123 120.329 121.573C120.999 123.883 122.059 126.063 123.459 128.033C123.509 128.123 123.559 128.213 123.619 128.293L128.939 135.533C130.759 138.013 131.939 140.943 132.339 143.993C132.599 145.953 132.559 147.813 132.219 149.543C130.979 155.913 131.729 162.593 134.389 168.863C139.339 180.543 150.219 188.393 161.459 188.393L161.449 188.373Z" fill="#FCAECC"/>
<path d="M125.339 93.8728C124.729 93.8728 124.109 93.9228 123.489 94.0228C118.559 94.8028 114.639 98.8628 114.019 103.813C113.519 107.803 115.069 111.433 117.759 113.823C119.919 115.743 121.439 118.223 122.249 121.003C122.889 123.213 123.919 125.263 125.249 127.083H125.229L130.549 134.333C132.579 137.093 133.879 140.323 134.319 143.713C134.589 145.773 134.579 147.863 134.179 149.903C133.069 155.623 133.649 161.973 136.229 168.063C141.019 179.363 151.269 186.373 161.459 186.373C164.299 186.373 167.139 185.823 169.859 184.673C182.299 179.393 187.419 163.403 181.289 148.953C179.299 144.253 176.349 140.293 172.869 137.273L167.929 132.513C164.209 128.933 161.809 124.193 161.129 119.083L160.649 115.523C160.649 104.703 151.879 95.9328 141.059 95.9328C140.189 95.9328 139.329 95.9928 138.489 96.1028C137.719 96.2028 136.949 96.2628 136.169 96.2628C134.139 96.2628 132.119 95.8828 130.279 95.0028C128.789 94.2828 127.119 93.8828 125.359 93.8828M125.339 89.8728C127.669 89.8728 129.909 90.3828 131.999 91.3828C133.189 91.9528 134.589 92.2528 136.159 92.2528C136.739 92.2528 137.339 92.2128 137.949 92.1328C138.969 91.9928 140.009 91.9328 141.049 91.9328C153.969 91.9328 164.489 102.363 164.639 115.243L165.079 118.553C165.639 122.763 167.639 126.693 170.689 129.643L175.549 134.333C179.559 137.833 182.809 142.343 184.959 147.403C188.299 155.273 188.789 163.823 186.339 171.483C183.819 179.353 178.519 185.353 171.409 188.363C168.259 189.703 164.909 190.373 161.449 190.373C149.419 190.373 137.799 182.033 132.539 169.623C129.719 162.983 128.929 155.903 130.249 149.143C130.539 147.633 130.579 145.983 130.349 144.243C129.989 141.523 128.939 138.913 127.319 136.703L121.999 129.463C121.909 129.333 121.819 129.203 121.749 129.073C120.249 126.943 119.129 124.613 118.399 122.123C117.789 120.033 116.649 118.203 115.099 116.823C111.289 113.443 109.399 108.393 110.039 103.323C110.889 96.5828 116.159 91.1428 122.859 90.0828C123.679 89.9528 124.519 89.8828 125.339 89.8828V89.8728Z" fill="black"/>
<path d="M39.506 18.8528C39.3046 17.0723 46.8396 16.9982 48.0902 17.0194C56.4518 17.1465 63.6477 22.6998 65.5342 30.8919C67.6113 39.9106 62.5244 50.1693 54.6078 54.8747C50.4111 57.3652 45.2394 57.1002 40.3962 55.9345C30.4236 53.5288 29.2367 47.5622 29.0565 47.6788C29.0565 47.6788 16.2544 56.4432 6.20766 41.8818C1.07833 34.4527 0.696801 24.1941 4.74516 16.1715C8.412 8.88025 15.8517 4.01587 24.0861 4.93787C31.6106 5.7751 38.5946 11.0104 39.506 18.8634V18.8528Z" fill="#FF6C7E" stroke="black" stroke-width="4" stroke-linecap="round" stroke-linejoin="round"/>
<path d="M55.5615 2.90317C55.5615 2.90317 49.7963 -3.70987 39.5059 18.8528" stroke="black" stroke-width="4" stroke-linecap="round" stroke-linejoin="round"/>
</svg>
