<svg width="271" height="203" viewBox="0 0 271 203" fill="none" xmlns="http://www.w3.org/2000/svg">
<path d="M239.052 48.5801L219.992 49.8801C219.992 49.8801 216.532 81.5001 245.982 80.6301C245.982 80.6301 270.522 83.2301 267.922 49.8801L239.052 48.5801Z" fill="#EAEAEA" stroke="black" stroke-width="4" stroke-linecap="round" stroke-linejoin="round"/>
<path d="M243.962 60.4101C257.2 60.4101 267.932 55.6912 267.932 49.8701C267.932 44.049 257.2 39.3301 243.962 39.3301C230.724 39.3301 219.992 44.049 219.992 49.8701C219.992 55.6912 230.724 60.4101 243.962 60.4101Z" fill="#DBDBDB" stroke="black" stroke-width="4" stroke-linecap="round" stroke-linejoin="round"/>
<path d="M243.962 60.4201C255.052 60.4201 264.042 57.492 264.042 53.8801C264.042 50.2681 255.052 47.3401 243.962 47.3401C232.872 47.3401 223.882 50.2681 223.882 53.8801C223.882 57.492 232.872 60.4201 243.962 60.4201Z" fill="#6D524A"/>
<path d="M243.962 60.4101C257.2 60.4101 267.932 55.6912 267.932 49.8701C267.932 44.049 257.2 39.3301 243.962 39.3301C230.724 39.3301 219.992 44.049 219.992 49.8701C219.992 55.6912 230.724 60.4101 243.962 60.4101Z" stroke="black" stroke-width="4" stroke-linecap="round" stroke-linejoin="round"/>
<path d="M220.432 55.0702C220.432 55.0702 215.092 48.5702 207.582 51.6102C200.072 54.6402 197.622 77.3102 225.772 73.4102L222.022 67.4902C222.022 67.4902 211.192 67.4902 210.902 63.4502C210.582 58.9802 214.512 58.5402 220.862 62.1502L220.432 55.0802V55.0702Z" fill="#EAEAEA" stroke="black" stroke-width="4" stroke-linecap="round" stroke-linejoin="round"/>
<path d="M168.842 139.09C169.352 140.63 179.112 164.25 160.112 172.46L147.282 164.76L143.172 138.58L163.192 132.42L168.842 139.09Z" fill="#7F7FDB" stroke="black" stroke-width="4" stroke-linecap="round" stroke-linejoin="round"/>
<path d="M104.362 56.6899C100.962 58.3299 97.0723 59.2799 92.9223 59.2799C89.3323 59.2799 85.9423 58.5699 82.8823 57.3199V69.7599H104.362V56.6899Z" fill="#EFD0C5" stroke="black" stroke-width="4" stroke-linecap="round" stroke-linejoin="round"/>
<path d="M89.5327 60.69C82.7027 60.69 76.4227 58.22 71.9627 53.85C70.9727 54.62 69.8627 55.21 68.6927 55.59C67.5827 55.95 66.4427 56.13 65.2827 56.13C60.4827 56.13 56.2727 53.06 54.7927 48.5C52.9127 42.71 56.0927 36.48 61.8827 34.6C62.9927 34.24 64.1327 34.06 65.2927 34.06C65.5827 34.06 65.8827 34.07 66.1727 34.1C68.1127 25.6 74.9727 18.4 84.1627 15.42C87.0627 14.48 90.0427 14 93.0227 14C100.343 14 107.223 16.96 111.663 21.96L122.483 20.68C122.563 20.68 122.643 20.67 122.723 20.67C123.453 20.67 124.133 21.07 124.483 21.72C124.873 22.44 124.783 23.33 124.253 23.96L116.723 32.86C118.323 44.09 110.593 55.33 98.3927 59.29C95.5027 60.23 92.5227 60.7 89.5527 60.7L89.5327 60.69Z" fill="#EFD0C5"/>
<path d="M93.0126 16C100.173 16 106.763 18.98 110.813 24.07L122.703 22.66L114.583 32.26C116.563 42.68 109.463 53.58 97.7626 57.37C95.0126 58.26 92.2326 58.69 89.5326 58.69C82.5626 58.69 76.1426 55.87 72.0626 51.02C71.0226 52.21 69.6826 53.17 68.0726 53.69C67.1426 53.99 66.2026 54.13 65.2826 54.13C61.4726 54.13 57.9326 51.7 56.6926 47.88C55.1526 43.13 57.7526 38.04 62.5026 36.5C63.4326 36.2 64.3626 36.06 65.2926 36.06C66.1426 36.06 66.9826 36.18 67.7826 36.41C68.8726 28.07 75.3226 20.37 84.7726 17.31C87.5326 16.42 90.3126 15.99 93.0126 15.99M93.0126 12C89.8226 12 86.6326 12.51 83.5426 13.51C74.2526 16.52 67.1826 23.59 64.6426 32.08C63.5026 32.14 62.3726 32.35 61.2726 32.7C57.9626 33.77 55.2626 36.07 53.6826 39.17C52.1026 42.27 51.8226 45.8 52.8926 49.12C54.6426 54.51 59.6226 58.14 65.2926 58.14C66.6526 58.14 68.0126 57.93 69.3126 57.5C70.1726 57.22 70.9926 56.85 71.7826 56.39C76.5026 60.43 82.7826 62.69 89.5426 62.69C92.7326 62.69 95.9126 62.18 99.0026 61.18C111.803 57.03 120.003 45.35 118.803 33.48L125.703 25.32C126.333 24.61 126.713 23.68 126.713 22.67C126.713 20.49 124.973 18.72 122.813 18.67C122.783 18.67 122.743 18.67 122.713 18.67C122.663 18.67 122.603 18.67 122.553 18.67C122.433 18.67 122.303 18.69 122.183 18.7L112.433 19.85C107.613 14.9 100.523 12 93.0226 11.99L93.0126 12Z" fill="black"/>
<path d="M25.0825 59.7C14.2325 59.7 5.50249 54.39 2.84249 46.18C1.04249 40.64 2.19249 34.55 6.08249 29.03C9.84249 23.69 15.7525 19.5 22.7325 17.24C26.3125 16.08 29.9525 15.49 33.5625 15.49C37.1725 15.49 40.6925 16.09 43.8425 17.28C44.6125 17.54 45.3925 17.68 46.1125 17.68C47.6825 17.68 49.0925 17 50.4125 15.59C53.0925 12.99 56.4425 11.01 60.1525 9.81001C62.6125 9.01001 65.1725 8.61 67.7425 8.61C70.9025 8.61 74.0825 9.23 76.9525 10.41C77.2225 10.52 77.4925 10.58 77.7725 10.58C78.7825 10.58 79.8025 9.82001 80.3525 9.07001C82.3925 6.30001 85.5125 4.12 89.1425 2.94C91.0625 2.32 93.0325 2 94.9725 2C100.932 2 105.752 4.97001 107.242 9.57001C108.252 12.7 107.622 16.11 105.462 19.18C103.422 22.08 100.232 24.34 96.4725 25.56C94.5525 26.18 92.5925 26.5 90.6525 26.5C89.2225 26.5 87.8425 26.33 86.5325 25.99C86.3925 25.95 86.2225 25.94 86.0425 25.94C85.4125 25.94 84.6825 26.19 84.5525 26.6C82.6725 32.6 77.0825 37.77 69.9525 40.08C67.2125 40.97 64.5425 41.42 62.0225 41.42C60.7925 41.42 59.5925 41.31 58.4625 41.09C57.7825 40.96 57.0825 40.84 56.5325 40.84C55.9325 40.84 55.4125 40.84 54.7725 42.33C51.7725 49.27 44.7225 55.12 35.9225 57.97C32.3425 59.13 28.6925 59.72 25.0725 59.72L25.0825 59.7Z" fill="#FCAECC"/>
<path d="M94.9725 4C99.8925 4 104.082 6.31 105.342 10.19C107.022 15.39 102.782 21.42 95.8625 23.66C94.1025 24.23 92.3325 24.5 90.6525 24.5C89.3825 24.5 88.1725 24.35 87.0325 24.05C86.7325 23.97 86.3925 23.93 86.0425 23.93C84.6825 23.93 83.1025 24.54 82.6425 25.99C81.0225 31.15 76.1225 35.96 69.3325 38.16C66.8625 38.96 64.3825 39.4 62.0225 39.4C60.9325 39.4 59.8625 39.31 58.8425 39.11C57.9925 38.95 57.2225 38.82 56.5325 38.82C55.0025 38.82 53.8425 39.42 52.9325 41.52C50.2025 47.84 43.6825 53.33 35.2925 56.05C31.8325 57.17 28.3625 57.7 25.0625 57.7C15.4125 57.7 7.1825 53.16 4.7225 45.56C1.4125 35.37 9.7425 23.53 23.3225 19.13C26.7825 18.01 30.2425 17.48 33.5425 17.48C36.9825 17.48 40.2325 18.06 43.1125 19.14C44.1225 19.49 45.1225 19.67 46.0925 19.67C48.1425 19.67 50.0725 18.84 51.8525 16.95C54.1725 14.7 57.2125 12.85 60.7525 11.7C63.1225 10.93 65.4725 10.59 67.7325 10.59C70.8025 10.59 73.6925 11.22 76.1825 12.24C76.7225 12.46 77.2525 12.56 77.7625 12.56C79.5625 12.56 81.1225 11.37 81.9525 10.23C83.6725 7.89 86.3925 5.91001 89.7525 4.82001C91.5125 4.25001 93.2825 3.98 94.9625 3.98M94.9725 0C92.8225 0 90.6525 0.350001 88.5225 1.04C84.4925 2.35 81.0225 4.78001 78.7325 7.89001C78.4325 8.29001 77.9525 8.58 77.7625 8.58C77.7525 8.58 77.7225 8.57001 77.7125 8.56001C74.6025 7.28001 71.1525 6.61 67.7425 6.61C64.9625 6.61 62.1925 7.05 59.5325 7.91C55.5325 9.21 51.9225 11.35 49.0825 14.09C49.0425 14.13 48.9925 14.18 48.9525 14.22C47.7325 15.51 46.7925 15.68 46.1025 15.68C45.6125 15.68 45.0625 15.58 44.4725 15.38C41.1125 14.12 37.4425 13.49 33.5525 13.49C29.7325 13.49 25.8825 14.11 22.1025 15.34C14.7125 17.74 8.4425 22.19 4.4325 27.89C0.172498 33.94 -1.0675 40.66 0.932498 46.81C3.8725 55.86 13.3425 61.71 25.0825 61.71C28.9025 61.71 32.7625 61.09 36.5425 59.86C45.8825 56.83 53.3925 50.57 56.6125 43.11C56.6625 43 56.7025 42.91 56.7425 42.84C57.1325 42.87 57.6625 42.96 58.0925 43.05C59.3425 43.29 60.6725 43.41 62.0325 43.41C64.7625 43.41 67.6325 42.93 70.5725 41.97C78.0025 39.56 83.9125 34.24 86.2025 27.97C87.6225 28.32 89.1225 28.5 90.6525 28.5C92.8025 28.5 94.9725 28.15 97.0925 27.46C101.262 26.11 104.812 23.58 107.092 20.33C109.592 16.78 110.332 12.64 109.142 8.95C107.382 3.51 101.812 0 94.9725 0Z" fill="black"/>
<path d="M96.7923 35.69C98.5596 35.69 99.9923 34.2574 99.9923 32.49C99.9923 30.7227 98.5596 29.29 96.7923 29.29C95.025 29.29 93.5923 30.7227 93.5923 32.49C93.5923 34.2574 95.025 35.69 96.7923 35.69Z" fill="black"/>
<path d="M95.0024 42.42C95.0024 42.42 96.7624 46.6 101.542 45.65C106.322 44.7 107.262 40.54 107.262 40.54" stroke="black" stroke-width="2" stroke-linecap="round" stroke-linejoin="round"/>
<path d="M97.2027 200.92C86.6327 200.92 76.4927 197.69 67.8727 191.58C56.8127 183.75 49.2427 171.58 47.1027 158.19L44.1827 139.92C39.5927 111.45 46.9527 95.0699 53.9427 86.3499C59.9227 78.8799 68.1627 73.8499 76.4227 72.5399L73.7427 65.6899H114.633L111.983 72.3199L122.493 76.9099C129.193 79.8299 134.963 84.3399 139.173 89.9399C142.713 94.6399 148.373 100.24 155.253 100.24C163.563 100.24 172.033 92.2699 180.443 76.5399L181.443 74.6699L215.113 95.2199L214.283 96.8699C214.033 97.3499 208.163 108.89 198.183 120.86C185.433 136.16 171.783 145.01 158.593 146.56C158.633 147.32 158.673 148.25 158.723 149.16C158.923 153.16 159.193 158.65 159.183 161.48C159.183 162.22 159.453 162.94 159.943 163.51L166.343 170.93C167.913 172.75 168.453 175.21 167.803 177.52C167.153 179.83 165.403 181.64 163.113 182.37L113.403 198.26C108.193 200.02 102.743 200.91 97.2227 200.91L97.2027 200.92Z" fill="#B6B6FF"/>
<path d="M111.663 67.6899L109.383 73.3799L121.673 78.7399C127.933 81.4699 133.453 85.6899 137.563 91.1399C141.453 96.2999 147.583 102.24 155.233 102.24C162.883 102.24 172.153 96.2499 182.183 77.4799L212.473 95.9599C212.473 95.9599 188.863 142.68 156.513 144.73C156.423 144.92 157.173 156.89 157.163 161.47C157.163 162.7 157.603 163.88 158.403 164.81L164.803 172.23C167.203 175.01 165.983 179.34 162.483 180.46L112.773 196.35C107.693 198.07 102.433 198.91 97.1926 198.91C87.2226 198.91 77.3626 195.85 69.0126 189.94C58.3226 182.37 51.1326 170.81 49.0626 157.87L46.1426 139.6C38.4426 91.8599 64.1826 75.1399 79.2126 74.2299L76.6526 67.6899H111.653M117.573 63.6899H70.8026L72.9426 69.1499L73.6826 71.0499C65.7726 72.9599 58.0826 77.9799 52.3726 85.0999C39.2626 101.48 39.6026 124.12 42.2026 140.24L45.1226 158.51C47.3526 172.42 55.2226 185.07 66.7126 193.21C75.6726 199.56 86.2126 202.91 97.2026 202.91C102.933 202.91 108.593 201.98 114.023 200.15L163.703 184.27C166.633 183.33 168.873 181.01 169.703 178.06C170.533 175.1 169.833 171.95 167.833 169.62L161.433 162.2C161.253 162 161.163 161.74 161.163 161.48C161.163 158.6 160.893 153.08 160.693 149.06C160.683 148.8 160.663 148.54 160.653 148.28C192.803 143.03 215.073 99.6799 216.043 97.7599L217.713 94.4599L214.563 92.5399L184.273 74.0599L180.663 71.8499L178.663 75.5799C170.743 90.3899 162.643 98.2199 155.233 98.2199C149.183 98.2199 144.013 93.0499 140.753 88.7199C136.333 82.8499 130.283 78.1199 123.273 75.0599L114.533 71.2499L115.373 69.1599L117.563 63.6699L117.573 63.6899Z" fill="black"/>
<path d="M103.092 188.36C111.343 188.36 118.032 181.671 118.032 173.42C118.032 165.169 111.343 158.48 103.092 158.48C94.8412 158.48 88.1523 165.169 88.1523 173.42C88.1523 181.671 94.8412 188.36 103.092 188.36Z" fill="#ADF2F0"/>
<path d="M129.322 139.6L132.522 156.16" stroke="black" stroke-width="4" stroke-linecap="round" stroke-linejoin="round"/>
<path d="M55.3926 101.1C55.3926 101.1 45.1226 129.85 45.6426 148.33" stroke="black" stroke-width="4" stroke-linecap="round" stroke-linejoin="round"/>
<path d="M181.363 74.1199C181.363 74.1199 187.443 61.5299 187.443 51.3499C187.443 41.1699 202.883 30.5199 207.323 36.3299C207.323 36.3299 212.233 41.1699 204.283 46.7399C204.283 46.7399 202.643 49.1599 202.173 51.0999C202.173 51.0999 210.123 47.2199 211.533 56.1899C211.533 56.1899 219.253 58.1299 218.553 64.9099C218.553 64.9099 223.703 66.1199 222.763 72.1799C222.763 72.1799 234.693 72.9099 234.223 78.7199C233.753 84.5299 227.903 80.1699 224.163 81.1399C220.423 82.1099 220.363 98.5999 210.593 92.2799C208.723 91.0699 181.353 74.1099 181.353 74.1099L181.363 74.1199Z" fill="#EFD0C5" stroke="black" stroke-width="4" stroke-linecap="round" stroke-linejoin="round"/>
<path d="M202.182 51.1099L198.042 54.1899" stroke="black" stroke-width="4" stroke-linecap="round" stroke-linejoin="round"/>
<path d="M211.532 56.1899C211.642 56.2399 208.822 54.9599 205.482 62.1499Z" fill="#EFD0C5"/>
<path d="M211.532 56.1899C211.642 56.2399 208.822 54.9599 205.482 62.1499" stroke="black" stroke-width="4" stroke-linecap="round" stroke-linejoin="round"/>
<path d="M218.552 64.9099C218.552 64.9099 214.982 62.9199 211.132 69.3299Z" fill="#EFD0C5"/>
<path d="M218.552 64.9099C218.552 64.9099 214.982 62.9199 211.132 69.3299" stroke="black" stroke-width="4" stroke-linecap="round" stroke-linejoin="round"/>
<path d="M223.202 72.4199C223.202 72.4199 219.612 72.6799 217.812 74.9899Z" fill="#EFD0C5"/>
<path d="M223.202 72.4199C223.202 72.4199 219.612 72.6799 217.812 74.9899" stroke="black" stroke-width="4" stroke-linecap="round" stroke-linejoin="round"/>
<path d="M243.253 42.0699C242.633 42.0699 242.033 41.7799 241.643 41.2599C241.283 40.7699 238.133 36.3399 238.823 31.8199C239.143 29.7299 240.263 27.9299 242.073 26.6199C242.653 26.1999 243.613 25.3899 243.563 24.6499C243.513 23.7799 242.243 22.6599 241.393 22.1799C240.623 21.7399 240.243 20.8499 240.433 19.9899C240.633 19.1299 241.373 18.4999 242.253 18.4399C242.253 18.4399 242.413 18.4299 242.703 18.4299C244.133 18.4299 247.723 18.6899 250.123 21.1199C251.583 22.5999 252.303 24.5399 252.263 26.9099C252.203 31.1199 249.403 33.0799 247.353 34.5099C245.103 36.0799 244.173 36.7299 245.113 39.4099C245.443 40.3399 245.043 41.3799 244.163 41.8399C243.863 41.9999 243.543 42.0699 243.223 42.0699H243.253Z" fill="#EAD3CC"/>
<path d="M242.713 20.4299C244.213 20.4299 250.363 20.7999 250.283 26.8899C250.183 33.8199 240.563 32.4699 243.253 40.0799C243.253 40.0799 237.573 32.3799 243.253 28.2399C248.933 24.0999 242.383 20.4399 242.383 20.4399C242.383 20.4399 242.503 20.4399 242.713 20.4399M242.713 16.4299C242.353 16.4299 242.143 16.4399 242.143 16.4399C240.383 16.5599 238.883 17.8299 238.503 19.5599C238.113 21.2899 238.893 23.0599 240.433 23.9299C240.723 24.0999 241.083 24.3899 241.333 24.6499C241.223 24.7499 241.083 24.8699 240.893 24.9999C238.653 26.6299 237.253 28.8899 236.843 31.5099C236.023 36.8299 239.613 41.8899 240.023 42.4399C240.803 43.4899 242.013 44.0699 243.243 44.0699C243.883 44.0699 244.523 43.9199 245.113 43.5999C246.863 42.6699 247.673 40.5999 247.003 38.7299C246.703 37.8699 246.763 37.5499 246.763 37.5499C246.903 37.2599 247.903 36.5599 248.503 36.1399C250.633 34.6499 254.193 32.1699 254.263 26.9299C254.313 23.2899 252.813 20.9999 251.543 19.7099C248.613 16.7399 244.383 16.4199 242.703 16.4199L242.713 16.4299Z" fill="black"/>
<path d="M75.8926 146.2C84.1438 146.2 90.8326 139.511 90.8326 131.26C90.8326 123.009 84.1438 116.32 75.8926 116.32C67.6415 116.32 60.9526 123.009 60.9526 131.26C60.9526 139.511 67.6415 146.2 75.8926 146.2Z" fill="#FFA6C2"/>
<path d="M140.272 94.3899C137.532 97.7499 133.362 99.8899 128.692 99.8899C120.442 99.8899 113.752 93.1999 113.752 84.9499C113.752 81.7799 114.732 78.8499 116.412 76.4399L121.682 78.7399C127.942 81.4699 133.462 85.6899 137.572 91.1399C138.382 92.2099 139.282 93.3099 140.272 94.3899Z" fill="#FFBE5F"/>
<path d="M133.173 121.72C127.943 121.72 123.353 124.41 120.683 128.47C126.223 136.54 133.983 144.51 143.923 147.01C146.513 144.32 148.103 140.68 148.103 136.66C148.103 128.41 141.413 121.72 133.163 121.72H133.173Z" fill="#FFE49F"/>
<path d="M204.722 108.8C202.002 105.12 197.642 102.72 192.712 102.72C184.462 102.72 177.772 109.41 177.772 117.66C177.772 123.39 181.002 128.37 185.742 130.87C193.622 123.93 200.112 115.59 204.722 108.8Z" fill="#ADF2F0"/>
<path d="M73.4325 82.69C73.4325 90.94 66.7525 97.6301 58.4925 97.6301C55.5725 97.6301 52.8625 96.8001 50.5625 95.3501C55.9425 84.5601 64.2325 78.46 71.7525 75.8C72.8225 77.86 73.4325 80.2 73.4325 82.69Z" fill="#FFE49F"/>
<path d="M72.1827 188.41C72.1827 189.56 72.0527 190.68 71.8027 191.76C70.8627 191.2 69.9427 190.59 69.0327 189.95C62.9827 185.66 58.0527 180.09 54.5327 173.72C55.4127 173.55 56.3127 173.47 57.2427 173.47C65.5027 173.47 72.1827 180.16 72.1827 188.41Z" fill="#FFE49F"/>
<path d="M141.613 146.74C142.493 154.15 148.793 159.9 156.433 159.9C156.673 159.9 156.913 159.89 157.153 159.88C157.083 156.36 156.793 150.9 156.623 147.59C149.353 149.02 144.593 148.1 141.603 146.74H141.613Z" fill="#ADF2F0"/>
<path d="M162.312 180.52L137.812 188.36C138.652 184.62 140.912 181.41 143.982 179.32C146.372 177.69 149.273 176.74 152.383 176.74C156.193 176.74 159.682 178.17 162.312 180.52Z" fill="#FFBE5F"/>
<path d="M110.322 108.29C110.322 108.29 126.232 154.91 157.552 146.89" stroke="black" stroke-width="4" stroke-linecap="round" stroke-linejoin="round"/>
</svg>
