<svg width="350" height="331" viewBox="0 0 350 331" fill="none" xmlns="http://www.w3.org/2000/svg">
<path d="M330 288.31C336.7 288.31 337.39 275.56 337.46 273.01C337.46 272.39 337.25 217.57 337.46 206.15C337.52 202.78 336.52 200.01 334.48 197.94C331.1 194.5 325.8 193.98 322.95 193.98C322.13 193.98 321.54 194.02 321.29 194.04H308.94C307.84 194.04 306.94 194.94 306.94 196.04V249.62C307.53 269.44 314.78 282.66 327.89 287.89C328.59 288.17 329.3 288.32 329.99 288.32L330 288.31Z" fill="#FCAECC"/>
<path d="M322.96 195.97C322 195.97 321.4 196.03 321.4 196.03H308.96V249.61C309.76 276.24 322.32 283.49 328.65 286.02C329.14 286.22 329.59 286.31 330.01 286.31C335.1 286.31 335.47 272.95 335.47 272.95C335.47 272.95 335.25 217.68 335.47 206.11C335.64 196.92 326.66 195.97 322.96 195.97ZM322.96 191.97C326.13 191.97 332.03 192.56 335.92 196.53C338.32 198.97 339.54 202.31 339.47 206.18C339.26 217.57 339.47 272.38 339.47 272.93C339.47 272.97 339.47 273.01 339.47 273.06C339.36 277.11 338.35 290.31 330.01 290.31C329.06 290.31 328.1 290.12 327.15 289.73C313.26 284.19 305.58 270.36 304.96 249.73C304.96 249.69 304.96 249.65 304.96 249.61V196.03C304.96 193.82 306.75 192.03 308.96 192.03H321.22C321.54 192 322.15 191.97 322.96 191.97Z" fill="black"/>
<path d="M302.431 264.97L314.811 239.79" stroke="black" stroke-width="4" stroke-linecap="round" stroke-linejoin="round"/>
<path d="M322.42 249.83L294.83 254.93" stroke="black" stroke-width="4" stroke-linecap="round" stroke-linejoin="round"/>
<path d="M255.49 190.32L310.66 193.19L305.45 253.46L242.13 229.68L255.49 190.32Z" fill="#7F7FDB" stroke="black" stroke-width="4" stroke-linecap="round" stroke-linejoin="round"/>
<path d="M197.08 244.66V298.12H134.32L152.75 235.75L197.08 244.66Z" fill="#7F7FDB" stroke="black" stroke-width="4" stroke-linecap="round" stroke-linejoin="round"/>
<path d="M169.49 60.76C172.89 62.4 176.78 63.35 180.93 63.35C184.52 63.35 187.91 62.64 190.97 61.39V73.83H169.49V60.76Z" fill="#EFD0C5" stroke="black" stroke-width="4" stroke-linecap="round" stroke-linejoin="round"/>
<path d="M180.94 65.35C191.02 65.35 200.17 60.08 204.39 52.04C205.57 52.47 206.81 52.69 208.04 52.69C214.12 52.69 219.08 47.74 219.08 41.65C219.08 35.56 214.13 30.62 208.04 30.62C206.57 30.62 205.14 30.91 203.81 31.46C199.34 23.97 190.6 19.24 180.94 19.24C170.2 19.24 160.65 25.1 156.8 33.95L146.12 36.07C145.31 36.23 144.69 36.87 144.54 37.67C144.39 38.48 144.76 39.29 145.45 39.73L155.35 45.87C157.3 57.05 168.11 65.36 180.93 65.36L180.94 65.35Z" fill="#EFD0C5"/>
<path d="M180.94 21.23C170.36 21.23 161.4 27.29 158.25 35.69L146.51 38.02L157.2 44.65C158.53 55.17 168.65 63.35 180.94 63.35C191.31 63.35 200.12 57.52 203.43 49.38C204.79 50.19 206.35 50.69 208.05 50.69C213.04 50.69 217.08 46.64 217.08 41.66C217.08 36.68 213.03 32.63 208.05 32.63C206.18 32.63 204.44 33.2 203 34.17C199.39 26.58 190.88 21.24 180.95 21.24M180.94 17.23C190.7 17.23 199.61 21.77 204.65 29.06C205.75 28.76 206.89 28.61 208.05 28.61C215.24 28.61 221.08 34.46 221.08 41.64C221.08 48.82 215.23 54.67 208.05 54.67C207.15 54.67 206.24 54.57 205.36 54.38C200.51 62.26 191.17 67.34 180.95 67.34C167.49 67.34 156.09 58.77 153.57 47.09L144.41 41.41C143.01 40.54 142.29 38.91 142.58 37.3C142.87 35.68 144.13 34.41 145.74 34.09L155.43 32.17C159.85 23.15 169.81 17.23 180.95 17.23H180.94Z" fill="black"/>
<path d="M239.94 44.82C255.3 44.82 267.79 35.22 267.79 23.42C267.79 11.62 255.3 2.02002 239.94 2.02002C232.29 2.02002 225.16 4.35002 219.87 8.57002C218.68 9.46002 217.48 9.91002 216.26 9.91002C215.26 9.91002 214.2 9.60002 213.1 9.00002C209.74 7.35002 205.95 6.50002 202.05 6.50002C196.23 6.50002 190.62 8.54002 186.25 12.25C185.84 12.6 185.37 12.77 184.8 12.77C183.95 12.77 183.11 12.38 182.6 12.02C179.81 10.01 176.16 8.90002 172.34 8.90002C163.97 8.90002 157.17 14.23 157.17 20.79C157.17 27.35 163.98 32.68 172.34 32.68C175.83 32.68 179.24 31.74 181.93 30.02C182.19 29.86 182.67 29.69 183.17 29.69C183.45 29.69 183.83 29.74 184 29.98C187.64 35.11 194.55 38.3 202.04 38.3C206.33 38.3 210.21 37.41 213.27 35.72C214.11 35.26 215.05 34.76 215.66 34.76C215.83 34.76 216.29 34.76 217.16 35.75C222.16 41.43 230.66 44.81 239.92 44.81L239.94 44.82Z" fill="#FCAECC"/>
<path d="M239.94 4.01C232.52 4.01 225.83 6.36 221.12 10.13C219.6 11.27 217.99 11.9 216.26 11.9C214.95 11.9 213.58 11.53 212.14 10.74C209.24 9.32 205.78 8.49 202.05 8.49C196.16 8.49 191.1 10.75 187.54 13.77C186.7 14.49 185.74 14.76 184.8 14.76C183.52 14.76 182.28 14.24 181.44 13.63C179.08 11.93 175.88 10.89 172.35 10.89C165.07 10.89 159.18 15.32 159.18 20.78C159.18 26.24 165.08 30.67 172.35 30.67C175.6 30.67 178.57 29.79 180.87 28.32C181.47 27.94 182.33 27.68 183.18 27.68C184.12 27.68 185.06 28 185.64 28.82C188.77 33.23 194.92 36.29 202.05 36.29C205.85 36.29 209.44 35.55 212.32 33.96C213.58 33.27 214.64 32.76 215.68 32.76C216.72 32.76 217.62 33.22 218.69 34.43C223.24 39.6 231.13 42.81 239.95 42.81C254.23 42.81 265.8 34.12 265.8 23.41C265.8 12.7 254.23 4.01 239.95 4.01M239.94 0.0100002C256.4 0.0100002 269.79 10.51 269.79 23.41C269.79 36.31 256.4 46.81 239.94 46.81C230.12 46.81 221.05 43.17 215.68 37.07C215.6 36.98 215.53 36.91 215.47 36.85C215.23 36.95 214.86 37.13 214.25 37.47C210.89 39.32 206.68 40.3 202.05 40.3C194.24 40.3 186.98 37.06 182.87 31.8C179.89 33.66 176.16 34.68 172.35 34.68C162.88 34.68 155.18 28.45 155.18 20.79C155.18 13.13 162.88 6.9 172.35 6.9C176.58 6.9 180.64 8.14 183.77 10.39C184.07 10.6 184.51 10.76 184.8 10.76C184.9 10.76 184.91 10.76 184.95 10.72C189.68 6.7 195.75 4.49 202.04 4.49C206.24 4.49 210.34 5.41 213.89 7.15C213.94 7.18 214 7.2 214.05 7.23C214.86 7.67 215.6 7.9 216.25 7.9C217.02 7.9 217.81 7.59 218.67 6.95C224.31 2.47 231.86 0 239.93 0L239.94 0.0100002Z" fill="black"/>
<path d="M174.18 42.57C172.413 42.57 170.98 41.1374 170.98 39.37C170.98 37.6027 172.413 36.17 174.18 36.17C175.947 36.17 177.38 37.6027 177.38 39.37C177.38 41.1374 175.947 42.57 174.18 42.57Z" fill="black"/>
<path d="M178.95 48.26C178.95 48.26 178.57 52.78 173.73 53.35C168.89 53.92 166.72 50.26 166.72 50.26" stroke="black" stroke-width="2" stroke-linecap="round" stroke-linejoin="round"/>
<path d="M177.96 261.28C180.47 261.28 182.92 260.57 185.04 259.22L196.12 252.15C197.59 251.21 199.3 250.71 201.04 250.71H201.31L217.46 251.2C217.59 251.2 217.72 251.2 217.85 251.2C222.28 251.2 226.39 248.99 228.83 245.29L235.91 234.56C237.07 232.8 238.82 231.48 240.84 230.86L253.2 227.03C257.68 225.64 261.11 221.93 262.14 217.35L264.9 205.06C265.34 203.08 266.46 201.28 268.03 199.99L270.55 197.93C272.61 196.24 273.6 193.67 273.21 191.04C272.82 188.41 271.12 186.23 268.67 185.21L238.8 172.8L220.33 122.2C230.32 121.9 265.02 120.01 298.24 108.28L300.02 107.65L289.03 69.85L287.14 70.35C286.76 70.45 248.66 80.38 208.96 80.38C205.41 80.38 201.91 80.3 198.52 80.14L201.14 73.45H160.25L162.57 79.23L137.83 79.99C137.65 79.99 111.14 79.62 79.5 69.07L78.04 68.58L56.76 100.92L58.64 101.97C58.96 102.15 91.19 119.87 129.94 119.87C134.16 119.87 138.35 119.66 142.44 119.25L127.2 251C126.95 253.12 127.63 255.25 129.04 256.84C130.47 258.44 132.5 259.36 134.63 259.36C135.29 259.36 135.95 259.27 136.59 259.1L149.76 255.56C150.54 255.35 151.34 255.25 152.14 255.25C152.94 255.25 153.71 255.35 154.47 255.55L174.59 260.86C175.68 261.15 176.81 261.29 177.94 261.29L177.96 261.28Z" fill="#B6B6FF"/>
<path d="M78.8802 70.9599L59.6302 100.22C59.6302 100.22 91.2802 117.87 129.96 117.87C134.79 117.87 139.73 117.59 144.73 116.98L129.2 251.23C128.81 254.59 131.48 257.36 134.65 257.36C135.12 257.36 135.61 257.3 136.09 257.17L149.26 253.63C150.21 253.37 151.18 253.25 152.16 253.25C153.12 253.25 154.07 253.37 155 253.62L175.12 258.93C176.06 259.18 177.01 259.3 177.96 259.3C180.07 259.3 182.15 258.7 183.96 257.55L195.04 250.48C196.83 249.34 198.92 248.73 201.04 248.73C201.15 248.73 201.26 248.73 201.37 248.73L217.52 249.21C217.63 249.21 217.74 249.21 217.85 249.21C221.59 249.21 225.09 247.33 227.16 244.2L234.24 233.47C235.66 231.32 237.78 229.72 240.24 228.96L252.6 225.13C256.41 223.95 259.3 220.81 260.18 216.92L262.94 204.63C263.48 202.2 264.83 200.03 266.75 198.45L269.27 196.39C272.48 193.76 271.73 188.65 267.89 187.06L237.21 174.32L217.48 120.27C217.48 120.27 258.29 120.27 297.57 106.41L287.65 72.2899C287.65 72.2899 249.41 82.3899 208.96 82.3899C204.53 82.3899 200.08 82.2699 195.65 81.9999L198.21 75.4599H163.21L165.49 81.1499L137.89 81.9999C137.89 81.9999 111.21 81.7599 78.8702 70.9799M77.2202 66.1899L80.1402 67.1599C110.64 77.3299 136.33 77.9399 137.86 77.9699L159.65 77.2999L159.5 76.9199L157.3 71.4299H204.07L201.93 76.8899L201.4 78.2399C203.87 78.3199 206.4 78.3599 208.95 78.3599C248.38 78.3599 286.24 68.4899 286.62 68.3899L290.39 67.3999L291.48 71.1499L301.4 105.27L302.45 108.9L298.89 110.16C267.6 121.2 235.81 123.59 223.14 124.11L240.36 171.28L269.42 183.35C272.53 184.64 274.68 187.4 275.17 190.73C275.66 194.06 274.4 197.33 271.8 199.46L269.28 201.52C268.05 202.53 267.18 203.94 266.84 205.49L264.08 217.78C262.9 223.06 258.95 227.33 253.79 228.94L241.43 232.77C239.86 233.26 238.49 234.29 237.58 235.66L230.5 246.39C227.69 250.65 222.96 253.2 217.85 253.2C217.7 253.2 217.55 253.2 217.4 253.2L201.25 252.72C201.18 252.72 201.11 252.72 201.04 252.72C199.67 252.72 198.34 253.11 197.19 253.84L186.11 260.91C183.67 262.47 180.85 263.29 177.96 263.29C176.66 263.29 175.36 263.12 174.1 262.79L153.98 257.48C153.39 257.32 152.77 257.24 152.16 257.24C151.53 257.24 150.91 257.32 150.3 257.49L137.13 261.03C136.32 261.25 135.48 261.36 134.65 261.36C131.96 261.36 129.37 260.2 127.57 258.17C125.77 256.15 124.92 253.46 125.23 250.77L140.19 121.47C136.83 121.74 133.4 121.88 129.96 121.88C90.6902 121.88 59.0102 104.47 57.6802 103.72L53.9202 101.62L56.2902 98.0199L75.5402 68.7599L77.2302 66.1899H77.2202Z" fill="black"/>
<path d="M179.07 328.57C182.56 328.57 185.37 327.41 187.43 325.13C191.45 320.67 190.97 313.44 190.88 312.4V300.06C190.88 298.96 189.98 298.06 188.88 298.06H135.3C115.48 298.65 102.26 305.9 97.0302 319.01C96.1702 321.14 96.7502 322.77 97.4002 323.75C100.2 328.03 109.97 328.51 111.9 328.57C112.21 328.57 136.75 328.47 156.33 328.47C167.82 328.47 175.36 328.5 178.76 328.57H179.06H179.07Z" fill="#FCAECC"/>
<path d="M135.31 300.06C108.68 300.86 101.43 313.42 98.9003 319.75C96.3203 326.14 111.97 326.57 111.97 326.57C111.97 326.57 136.54 326.47 156.34 326.47C166.24 326.47 174.95 326.49 178.81 326.57C178.9 326.57 178.98 326.57 179.07 326.57C190.36 326.57 188.88 312.49 188.88 312.49V300.05H135.3M135.31 296.06H188.89C191.1 296.06 192.89 297.85 192.89 300.06V312.31C193.03 313.94 193.39 321.5 188.92 326.47C186.5 329.15 183.1 330.57 179.07 330.57C178.96 330.57 178.85 330.57 178.74 330.57C175.35 330.51 167.82 330.47 156.34 330.47C136.77 330.47 112.23 330.57 111.99 330.57H111.98C111.98 330.57 111.91 330.57 111.87 330.57C111.75 330.57 108.9 330.48 105.72 329.91C100.64 329 97.3803 327.34 95.7503 324.85C94.4703 322.89 94.2803 320.55 95.2103 318.25C100.75 304.36 114.58 296.68 135.21 296.06C135.25 296.06 135.29 296.06 135.33 296.06H135.31Z" fill="black"/>
<path d="M119.95 293.54L145.13 305.92" stroke="black" stroke-width="4" stroke-linecap="round" stroke-linejoin="round"/>
<path d="M135.09 313.52L129.99 285.93" stroke="black" stroke-width="4" stroke-linecap="round" stroke-linejoin="round"/>
<path d="M78.0503 69.72C78.0503 69.72 76.2903 33.19 65.0903 42.07C65.0903 42.07 59.3202 45.23 58.0002 58.69C58.0002 58.69 49.2503 31.74 38.4603 40.41C38.4603 40.41 33.4303 43.82 44.0803 57.05C44.0803 57.05 22.4803 40.22 16.5103 49.61C10.5403 59.01 31.7703 67.72 31.7703 67.72C31.7703 67.72 5.61028 58.19 2.29028 68.48C-1.01972 78.77 25.0503 81.8 25.0503 81.8C25.0503 81.8 9.68024 82.74 14.5002 92.41C19.3202 102.08 57.3702 100.51 57.3702 100.51L78.0503 69.71V69.72Z" fill="#EFD0C5" stroke="black" stroke-width="4" stroke-linecap="round" stroke-linejoin="round"/>
<path d="M300.04 106.82C300.04 106.82 319.91 117.77 323.84 110.43C327.77 103.09 314.79 97.91 314.79 97.91C314.79 97.91 345.53 102.05 345.73 87.88C345.93 73.71 316.05 83.28 316.05 83.28C316.05 83.28 348.91 73.94 347.52 66.67C346.13 59.4 312.72 70.89 312.72 70.89C312.72 70.89 341.6 58.98 333.73 51.93C325.86 44.88 302 67.18 302 67.18C302 67.18 314.64 48.65 307.39 48.19C300.14 47.73 288.95 69.35 288.95 69.35L300.04 106.81V106.82Z" fill="#EFD0C5" stroke="black" stroke-width="4" stroke-linecap="round" stroke-linejoin="round"/>
<path d="M178.82 129.49C170.569 129.49 163.88 122.801 163.88 114.55C163.88 106.299 170.569 99.61 178.82 99.61C187.071 99.61 193.76 106.299 193.76 114.55C193.76 122.801 187.071 129.49 178.82 129.49Z" fill="#FFA6C2"/>
<path d="M204.95 84.44C204.95 92.69 211.64 99.38 219.89 99.38C228.14 99.38 234.83 92.69 234.83 84.44C234.83 83.31 234.7 82.21 234.46 81.15C225.1 82 215.14 82.49 205.1 82.33C205 83.02 204.95 83.72 204.95 84.44Z" fill="#FFE49F"/>
<path d="M254.98 114.08C254.98 115.02 255.07 115.93 255.23 116.82C264.24 115.39 274.23 113.38 284.43 110.52C282.83 103.99 276.94 99.14 269.92 99.14C261.67 99.14 254.98 105.83 254.98 114.08Z" fill="#FFA6C2"/>
<path d="M112.56 81.04C112.56 89.29 119.25 95.98 127.5 95.98C135.75 95.98 142.01 89.71 142.42 81.83L112.66 79.33C112.59 79.89 112.56 80.46 112.56 81.04Z" fill="#FFBE5F"/>
<path d="M69.35 104.83L96.67 113.82C96.69 113.6 96.6899 113.38 96.6899 113.16C96.6899 104.91 89.9999 98.22 81.7499 98.22C76.5899 98.22 72.03 100.84 69.35 104.83Z" fill="#ADF2F0"/>
<path d="M206.44 175.88C198.189 175.88 191.5 169.191 191.5 160.94C191.5 152.689 198.189 146 206.44 146C214.692 146 221.38 152.689 221.38 160.94C221.38 169.191 214.692 175.88 206.44 175.88Z" fill="#FFE49F"/>
<path d="M138.63 169.62C145.56 168.32 150.8 162.24 150.8 154.94C150.8 148.84 147.15 143.6 141.91 141.28L138.63 169.62Z" fill="#FFBE5F"/>
<path d="M159.76 223.18C151.509 223.18 144.82 216.491 144.82 208.24C144.82 199.989 151.509 193.3 159.76 193.3C168.011 193.3 174.7 199.989 174.7 208.24C174.7 216.491 168.011 223.18 159.76 223.18Z" fill="#ADF2F0"/>
<path d="M237.05 217.29C228.799 217.29 222.11 210.601 222.11 202.35C222.11 194.099 228.799 187.41 237.05 187.41C245.301 187.41 251.99 194.099 251.99 202.35C251.99 210.601 245.301 217.29 237.05 217.29Z" fill="#FFA6C2"/>
<path d="M136.08 257.16L149.25 253.61C151.13 253.11 153.11 253.1 154.99 253.6L156.19 253.92C156.14 245.72 149.48 239.08 141.25 239.08C136.76 239.08 132.73 241.06 130 244.21L129.19 251.22C128.74 255.07 132.33 258.16 136.08 257.16Z" fill="#FFE49F"/>
</svg>
