<svg width="329" height="372" viewBox="0 0 329 372" fill="none" xmlns="http://www.w3.org/2000/svg">
<path d="M48.7723 304.179C44.6223 304.179 41.2824 302.099 39.1024 298.149C33.5924 288.149 6.05228 240.739 5.77228 240.259C4.82228 238.509 0.372317 229.799 2.68232 225.229C3.21232 224.179 4.33238 222.859 6.62238 222.539C8.12238 222.319 9.55238 222.219 10.9924 222.219C26.4324 222.219 37.3723 234.719 43.8323 245.199L70.5924 291.679C70.8524 292.139 70.9323 292.689 70.7923 293.199C70.6523 293.709 70.3224 294.149 69.8624 294.409L59.1623 300.569C58.4223 301.079 53.7923 304.169 48.7723 304.169V304.179Z" fill="#FCAECC"/>
<path d="M10.9827 224.229C18.5727 224.229 30.5327 227.459 42.1227 246.259L68.8527 292.689L58.0726 298.899C58.0726 298.899 53.5327 302.189 48.7627 302.189C45.8927 302.189 42.9427 300.999 40.8427 297.199C35.2527 287.059 7.49268 239.269 7.49268 239.269C7.49268 239.269 0.062696 225.489 6.8827 224.539C8.0327 224.369 9.41267 224.239 10.9827 224.239M10.9827 220.229C9.45267 220.229 7.92263 220.339 6.31263 220.569C3.87263 220.909 1.9427 222.249 0.882696 224.329C-0.467304 226.989 -0.267338 230.639 1.47266 235.499C2.56266 238.549 3.91266 241.049 3.97266 241.159C3.99266 241.199 4.0126 241.229 4.0326 241.269C4.3126 241.749 31.8427 289.139 37.3427 299.119C39.8527 303.669 43.9127 306.179 48.7627 306.179C54.2327 306.179 59.1027 303.049 60.2227 302.269L70.8427 296.159C72.7527 295.059 73.4126 292.609 72.3126 290.699L45.5826 244.269C45.5826 244.269 45.5426 244.199 45.5226 244.169C38.7926 233.249 27.3427 220.239 10.9827 220.239V220.229Z" fill="black"/>
<path d="M40.1128 229.689L41.9427 257.689" stroke="black" stroke-width="4" stroke-linecap="round" stroke-linejoin="round"/>
<path d="M30.3428 252.779L51.7128 234.599" stroke="black" stroke-width="4" stroke-linecap="round" stroke-linejoin="round"/>
<path d="M123.643 369.989C121.713 369.939 111.943 369.459 109.133 365.189C108.483 364.209 107.903 362.579 108.763 360.439C113.973 347.329 127.183 340.069 146.943 339.459L200.583 339.409C201.683 339.409 202.583 340.299 202.583 341.409V353.749C202.683 354.789 203.163 362.019 199.153 366.489C197.093 368.779 194.283 369.939 190.783 369.939H190.503C187.613 369.889 181.713 369.859 172.943 369.859C152.803 369.859 123.993 369.999 123.703 369.999C123.703 369.999 123.663 369.999 123.653 369.999L123.643 369.989Z" fill="#FCAECC"/>
<path d="M200.583 341.409V353.849C200.583 353.849 202.083 367.939 190.783 367.939C190.703 367.939 190.623 367.939 190.533 367.939C187.333 367.879 180.773 367.859 172.963 367.859C152.583 367.859 123.693 367.999 123.693 367.999C123.693 367.999 108.043 367.579 110.613 361.189C113.133 354.859 120.373 342.289 147.003 341.459L200.583 341.409ZM200.583 337.409L147.003 337.459C147.003 337.459 146.923 337.459 146.883 337.459C126.263 338.099 112.433 345.789 106.903 359.709C105.983 361.989 106.183 364.329 107.463 366.289C109.093 368.779 112.363 370.429 117.443 371.339C120.633 371.909 123.473 371.989 123.593 371.989C123.633 371.989 123.663 371.989 123.703 371.989C123.703 371.989 123.713 371.989 123.723 371.989C124.013 371.989 152.843 371.849 172.973 371.849C181.713 371.849 187.603 371.879 190.473 371.929C190.583 371.929 190.683 371.929 190.793 371.929C194.823 371.929 198.233 370.509 200.643 367.819C205.113 362.849 204.743 355.279 204.603 353.649V341.399C204.593 339.189 202.803 337.399 200.593 337.399L200.583 337.409Z" fill="black"/>
<path d="M131.643 334.959L156.843 347.309" stroke="black" stroke-width="4" stroke-linecap="round" stroke-linejoin="round"/>
<path d="M146.803 354.929L141.683 327.339" stroke="black" stroke-width="4" stroke-linecap="round" stroke-linejoin="round"/>
<path d="M105.833 229.719L46.5327 250.509L78.8728 305.189L138.173 258.979L105.833 229.719Z" fill="#7F7FDB" stroke="black" stroke-width="4" stroke-linecap="round" stroke-linejoin="round"/>
<path d="M164.353 261.289L148.183 339.839H214.403L209.783 250.509L164.353 261.289Z" fill="#7F7FDB" stroke="black" stroke-width="4" stroke-linecap="round" stroke-linejoin="round"/>
<path d="M179.392 98.4289C182.772 100.119 186.642 101.129 190.792 101.189C194.382 101.239 197.782 100.579 200.852 99.3689L200.672 111.809L179.192 111.499L179.382 98.4289H179.392Z" fill="#EFD0C5" stroke="black" stroke-width="4" stroke-linecap="round" stroke-linejoin="round"/>
<path d="M193.963 103.789C190.223 103.789 186.533 103.039 182.983 101.549C171.153 96.5989 164.393 84.7589 166.913 73.6989L160.153 64.2089C159.673 63.5389 159.653 62.6489 160.103 61.9589C160.473 61.3789 161.113 61.0489 161.783 61.0489C161.913 61.0489 162.053 61.0589 162.183 61.0889L172.863 63.2589C177.193 59.1289 183.303 56.7689 189.813 56.7689C193.553 56.7689 197.253 57.5189 200.803 59.0089C209.713 62.7389 215.953 70.4889 217.183 79.1189C218.633 79.1189 220.063 79.4089 221.413 79.9789C227.023 82.3289 229.683 88.8089 227.333 94.4189C225.613 98.5389 221.613 101.199 217.153 101.199C215.693 101.199 214.253 100.909 212.893 100.339C211.753 99.8589 210.693 99.1789 209.773 98.3289C205.543 101.819 199.903 103.789 193.983 103.789H193.963Z" fill="#EFD0C5"/>
<path d="M189.802 58.7789C193.162 58.7789 196.642 59.4489 200.022 60.8589C209.182 64.6889 214.973 72.8989 215.373 81.2989C215.953 81.1789 216.543 81.1189 217.143 81.1189C218.303 81.1189 219.483 81.3489 220.623 81.8189C225.223 83.7489 227.392 89.0389 225.462 93.6389C224.012 97.0989 220.663 99.1889 217.123 99.1889C215.963 99.1889 214.783 98.9589 213.633 98.4889C212.073 97.8389 210.813 96.7689 209.873 95.4989C205.863 99.5289 200.102 101.789 193.942 101.789C190.582 101.789 187.113 101.119 183.733 99.7089C172.393 94.9589 166.222 83.5089 169.052 73.2889L161.753 63.0489L173.483 65.4389C177.503 61.1689 183.422 58.7789 189.772 58.7789M189.802 54.7789C183.162 54.7789 176.893 57.0589 172.253 61.0989L162.572 59.1289C162.302 59.0789 162.042 59.0489 161.772 59.0489C160.432 59.0489 159.162 59.7189 158.422 60.8689C157.532 62.2489 157.562 64.0289 158.522 65.3689L164.782 74.1489C162.602 85.8889 169.812 98.1989 182.222 103.399C186.012 104.989 189.962 105.789 193.972 105.789C199.773 105.789 205.333 104.029 209.743 100.869C210.483 101.389 211.283 101.829 212.113 102.179C213.723 102.849 215.413 103.189 217.143 103.189C222.413 103.189 227.132 100.049 229.172 95.1889C230.512 91.9789 230.532 88.4389 229.212 85.2089C227.892 81.9889 225.392 79.4689 222.182 78.1289C221.112 77.6789 220.013 77.3789 218.883 77.2289C217.053 68.5589 210.582 60.9289 201.582 57.1589C197.792 55.5689 193.832 54.7689 189.822 54.7689L189.802 54.7789Z" fill="black"/>
<path d="M258.652 108.159C254.242 108.159 249.642 107.209 245.342 105.409C236.802 101.839 230.262 95.4189 227.842 88.2589C227.312 86.6789 226.802 86.6089 225.792 86.6089C225.312 86.6089 224.743 86.6589 224.263 86.7189C223.643 86.7889 222.992 86.8189 222.342 86.8189C219.342 86.8189 216.172 86.1289 212.902 84.7589C205.992 81.8689 200.842 76.2589 199.472 70.1189C199.372 69.6589 198.532 69.3289 197.842 69.3289C197.742 69.3289 197.642 69.3289 197.552 69.3489C196.672 69.4989 195.762 69.5789 194.832 69.5789C192.462 69.5789 189.982 69.0689 187.672 68.0989C179.952 64.8689 175.733 57.3189 178.263 51.2689C179.963 47.2089 184.342 44.6789 189.682 44.6789C192.052 44.6789 194.532 45.1889 196.842 46.1589C200.362 47.6289 203.292 50.0589 205.102 52.9989C205.612 53.8289 206.652 54.7289 207.712 54.7289C207.932 54.7289 208.143 54.6989 208.373 54.6189C210.713 53.8789 213.162 53.4989 215.672 53.4989C218.942 53.4989 222.142 54.1389 225.172 55.4089C228.772 56.9189 231.942 59.1589 234.342 61.9089C235.732 63.6589 237.203 64.4389 239.003 64.4389C239.583 64.4389 240.213 64.3589 240.873 64.1889C243.243 63.5089 245.852 63.1589 248.562 63.1589C252.962 63.1589 257.563 64.1089 261.863 65.9089C268.633 68.7389 274.172 73.4089 277.482 79.0389C280.892 84.8589 281.542 91.0289 279.282 96.3989C276.252 103.639 268.343 108.139 258.643 108.139L258.652 108.159Z" fill="#FCAECC"/>
<path d="M189.693 46.6889C191.753 46.6889 193.943 47.1189 196.083 48.0089C199.333 49.3689 201.883 51.5689 203.413 54.0489C204.193 55.3189 205.793 56.7289 207.733 56.7289C208.143 56.7289 208.563 56.6689 208.993 56.5289C211.033 55.8789 213.303 55.4989 215.683 55.4989C218.493 55.4989 221.473 56.0289 224.413 57.2589C227.853 58.6989 230.723 60.7989 232.853 63.2289C234.643 65.4689 236.723 66.4389 239.023 66.4389C239.783 66.4389 240.573 66.3289 241.383 66.1289C243.623 65.4889 246.053 65.1589 248.583 65.1589C252.613 65.1589 256.903 65.9989 261.113 67.7589C274.283 73.2689 281.603 85.7489 277.463 95.6389C274.643 102.359 267.253 106.159 258.673 106.159C254.643 106.159 250.343 105.319 246.133 103.559C237.993 100.149 231.963 94.1389 229.763 87.6189C228.943 85.1989 227.653 84.6089 225.813 84.6089C225.273 84.6089 224.693 84.6589 224.063 84.7289C223.503 84.7889 222.933 84.8189 222.353 84.8189C219.563 84.8189 216.593 84.1289 213.693 82.9189C207.113 80.1589 202.623 74.9689 201.443 69.6889C201.083 68.0689 199.293 67.3389 197.863 67.3389C197.643 67.3389 197.433 67.3589 197.233 67.3889C196.473 67.5189 195.673 67.5889 194.853 67.5889C192.803 67.5889 190.613 67.1589 188.473 66.2689C181.763 63.4589 178.033 57.0989 180.143 52.0589C181.573 48.6289 185.343 46.6989 189.723 46.6989M189.693 42.6889C183.523 42.6889 178.443 45.6789 176.423 50.4989C174.923 54.0689 175.323 58.2689 177.523 62.0089C179.533 65.4389 182.863 68.2489 186.903 69.9389C189.453 71.0089 192.193 71.5689 194.833 71.5689C195.813 71.5689 196.783 71.4889 197.713 71.3389C199.473 77.7789 204.923 83.5689 212.123 86.5889C215.633 88.0589 219.063 88.7989 222.333 88.7989C223.053 88.7989 223.773 88.7589 224.473 88.6889C224.883 88.6489 225.403 88.5989 225.793 88.5989C225.813 88.5989 225.823 88.5989 225.843 88.5989C225.873 88.6789 225.913 88.7689 225.953 88.8789C228.553 96.5789 235.513 103.439 244.573 107.239C249.123 109.139 253.993 110.149 258.663 110.149C269.183 110.149 277.803 105.179 281.143 97.1789C286.123 85.2789 277.833 70.4189 262.643 64.0689C258.103 62.1689 253.233 61.1589 248.573 61.1589C245.703 61.1589 242.933 61.5289 240.343 62.2589C239.863 62.3789 239.413 62.4389 239.013 62.4389C238.183 62.4389 237.173 62.2389 235.973 60.7389C235.933 60.6889 235.893 60.6489 235.853 60.5989C233.253 57.6289 229.833 55.1989 225.953 53.5689C222.673 52.1989 219.223 51.4989 215.683 51.4989C212.973 51.4989 210.313 51.9089 207.783 52.7089C207.753 52.7089 207.733 52.7189 207.733 52.7189C207.583 52.7189 207.103 52.3989 206.823 51.9489C204.803 48.6589 201.543 45.9489 197.633 44.3189C195.083 43.2489 192.333 42.6889 189.693 42.6889Z" fill="black"/>
<path d="M186.782 78.1889C188.55 78.1889 189.983 76.7562 189.983 74.9889C189.983 73.2216 188.55 71.7889 186.782 71.7889C185.015 71.7889 183.583 73.2216 183.583 74.9889C183.583 76.7562 185.015 78.1889 186.782 78.1889Z" fill="black"/>
<path d="M187.743 85.0289C187.743 85.0289 185.643 89.0489 180.963 87.6989C176.283 86.3589 175.683 82.1389 175.683 82.1389" stroke="black" stroke-width="2" stroke-linecap="round" stroke-linejoin="round"/>
<path d="M299.143 240.259C299.143 240.259 334.923 247.789 324.393 257.439C324.393 257.439 320.353 262.629 306.863 261.809C306.863 261.809 332.083 274.719 321.823 283.999C321.823 283.999 317.653 288.429 306.283 275.819C306.283 275.819 319.483 299.819 309.253 304.219C299.033 308.619 293.783 286.279 293.783 286.279C293.783 286.279 299.043 313.619 288.363 315.259C277.683 316.899 278.813 290.679 278.813 290.679C278.813 290.679 275.453 305.709 266.663 299.419C257.883 293.129 265.453 255.809 265.453 255.809L299.133 240.269L299.143 240.259Z" fill="#EFD0C5" stroke="black" stroke-width="4" stroke-linecap="round" stroke-linejoin="round"/>
<path d="M71.7825 81.6389C71.7825 81.6389 55.8325 65.4989 61.8325 59.7189C67.8325 53.9389 76.3425 65.0089 76.3425 65.0089C76.3425 65.0089 63.9825 36.5589 77.5625 32.5089C91.1425 28.4589 90.0725 59.8189 90.0725 59.8189C90.0725 59.8189 90.1126 25.6589 97.4826 25.0089C104.853 24.3589 102.893 59.6389 102.893 59.6389C102.893 59.6389 106.492 28.6089 115.412 34.2589C124.332 39.9089 109.383 68.9489 109.383 68.9489C109.383 68.9489 123.763 51.7389 126.183 58.5989C128.603 65.4489 110.843 82.1089 110.843 82.1089L71.7825 81.6389Z" fill="#EFD0C5" stroke="black" stroke-width="4" stroke-linecap="round" stroke-linejoin="round"/>
<path d="M187.633 282.679C183.563 282.679 179.653 281.449 176.313 279.109L173.813 277.359C171.153 275.499 168.033 274.519 164.793 274.519C164.383 274.519 163.963 274.539 163.553 274.569L149.673 275.669C149.153 275.709 148.633 275.729 148.123 275.729C142.323 275.729 136.843 273.199 133.093 268.779L130.313 265.509C127.773 262.519 124.233 260.599 120.343 260.099L113.103 259.169C106.353 258.299 100.423 253.899 97.6328 247.699L96.3427 244.839C95.4127 242.779 94.0828 240.969 92.3828 239.479L89.7328 237.149C88.3828 235.959 87.7127 234.189 87.9327 232.409C88.1527 230.629 89.2427 229.079 90.8427 228.259L134.773 205.879C138.903 203.779 141.823 199.969 142.783 195.439L151.353 154.929C147.143 155.349 143.043 155.559 139.153 155.559C117.663 155.559 100.893 149.209 89.3227 136.679C69.9327 115.689 72.1127 85.1889 72.2127 83.9089L72.3628 82.0689H111.873L111.783 84.1589C111.343 94.0989 113.703 101.849 118.813 107.179C126.023 114.719 137.053 115.839 142.983 115.839C145.313 115.839 146.813 115.659 146.823 115.659H146.913L171.753 114.879L169.443 109.099H210.333L207.653 115.939C226.333 118.799 247.453 139.689 270.493 178.109C288.293 207.789 300.743 237.519 300.873 237.819L301.623 239.609L263.283 256.889L231.723 183.879L235.763 203.809C238.243 216.079 237.863 228.949 234.643 241.049L224.863 277.849C224.773 278.309 224.513 278.829 223.893 279.319C222.983 280.049 221.813 280.459 220.613 280.459C220.033 280.459 219.463 280.369 218.923 280.189L212.813 278.209C211.243 277.699 209.613 277.449 207.973 277.449C206.063 277.449 204.183 277.789 202.393 278.469L194.653 281.409C192.413 282.259 190.053 282.689 187.653 282.689L187.633 282.679Z" fill="#B6B6FF"/>
<path d="M109.773 84.0589C108.413 114.749 133.013 117.829 142.963 117.829C145.473 117.829 147.043 117.629 147.043 117.629L174.643 116.779L172.363 111.089H207.363L204.803 117.629C249.733 120.349 298.993 238.569 298.993 238.569L264.273 254.219L225.923 165.509L233.753 204.199C236.193 216.229 235.813 228.669 232.663 240.529L222.853 277.459C222.853 277.459 222.773 277.609 222.603 277.749C222.023 278.219 221.303 278.449 220.573 278.449C220.213 278.449 219.843 278.389 219.493 278.279L213.383 276.299C211.603 275.729 209.763 275.439 207.923 275.439C205.793 275.439 203.653 275.829 201.633 276.589L193.893 279.529C191.853 280.299 189.723 280.679 187.603 280.679C184.013 280.679 180.453 279.589 177.433 277.469L174.933 275.719C171.943 273.629 168.393 272.509 164.763 272.509C164.303 272.509 163.833 272.529 163.363 272.559L149.483 273.659C149.013 273.699 148.553 273.719 148.083 273.719C142.903 273.719 137.963 271.449 134.573 267.469L131.793 264.199C128.933 260.839 124.933 258.659 120.553 258.099L113.313 257.169C107.203 256.379 101.943 252.479 99.4128 246.859L98.1229 243.999C97.0829 241.689 95.5628 239.629 93.6628 237.959L91.0129 235.629C89.2029 234.039 89.5728 231.119 91.7128 230.029L135.643 207.649C140.293 205.279 143.623 200.939 144.703 195.839L153.843 152.629C148.593 153.259 143.703 153.549 139.123 153.549C68.6529 153.549 74.1728 84.0489 74.1728 84.0489H109.743M113.953 80.0589H70.5029L70.2128 83.7389C70.1128 85.0589 67.8728 116.399 87.8528 138.029C99.8228 150.989 117.083 157.559 139.153 157.559C142.263 157.559 145.503 157.429 148.833 157.159L140.823 195.019C139.993 198.959 137.453 202.269 133.863 204.099L89.9328 226.479C87.7428 227.599 86.2528 229.719 85.9428 232.159C85.6328 234.599 86.5528 237.029 88.4028 238.649L91.0528 240.979C92.5328 242.279 93.7029 243.859 94.5129 245.659L95.8028 248.519C98.8828 255.349 105.403 260.199 112.843 261.149L120.083 262.079C123.483 262.519 126.573 264.199 128.783 266.799L131.563 270.069C135.703 274.939 141.733 277.729 148.123 277.729C148.693 277.729 149.263 277.709 149.833 277.659L163.713 276.559C164.073 276.529 164.433 276.519 164.793 276.519C167.623 276.519 170.343 277.379 172.663 278.999L175.163 280.749C178.833 283.319 183.143 284.679 187.623 284.679C190.263 284.679 192.853 284.199 195.333 283.269L203.073 280.329C204.633 279.739 206.273 279.439 207.943 279.439C209.383 279.439 210.803 279.659 212.173 280.109L218.283 282.089C219.033 282.329 219.813 282.459 220.593 282.459C222.253 282.459 223.853 281.899 225.123 280.879C226.123 280.079 226.583 279.189 226.763 278.409L236.553 241.559C239.843 229.169 240.243 215.979 237.693 203.409L237.453 202.239L260.613 255.819L262.223 259.549L265.923 257.879L300.643 242.229L304.183 240.629L302.683 237.039C302.563 236.739 290.043 206.869 272.173 177.069C249.803 139.769 229.033 118.739 210.353 114.419L211.083 112.549L213.223 107.089H166.453L168.643 112.579L168.793 112.959L146.903 113.639H146.713L146.533 113.669C146.533 113.669 145.133 113.839 142.943 113.839C137.333 113.839 126.913 112.789 120.223 105.789C115.513 100.859 113.333 93.6089 113.753 84.2389L113.943 80.0589H113.953Z" fill="black"/>
<path d="M153.313 142.059L151.003 156.699" stroke="black" stroke-width="4" stroke-linecap="round" stroke-linejoin="round"/>
<path d="M223.003 150.539L231.863 183.649" stroke="black" stroke-width="4" stroke-linecap="round" stroke-linejoin="round"/>
<path d="M137.042 204.539C137.042 204.539 145.513 198.959 154.753 202.419" stroke="black" stroke-width="4" stroke-linecap="round" stroke-linejoin="round"/>
<path d="M193.873 144.319C185.623 144.319 178.933 151.009 178.933 159.259C178.933 167.509 185.623 174.199 193.873 174.199C202.123 174.199 208.813 167.509 208.813 159.259C208.813 151.009 202.123 144.319 193.873 144.319Z" fill="#FFA6C2"/>
<path d="M153.833 212.699C162.083 212.699 168.772 206.009 168.772 197.759C168.772 189.509 162.083 182.819 153.833 182.819C151.433 182.819 149.172 183.399 147.162 184.399L144.743 195.839C144.073 199.009 142.533 201.879 140.353 204.169C142.753 209.209 147.883 212.689 153.833 212.689V212.699Z" fill="#FFE49F"/>
<path d="M229.453 182.829C229.403 182.829 229.352 182.829 229.292 182.829C221.042 182.829 214.353 189.519 214.353 197.769C214.353 206.019 221.042 212.709 229.292 212.709C231.282 212.709 233.172 212.309 234.912 211.609C234.652 209.129 234.272 206.659 233.782 204.209L229.453 182.839V182.829Z" fill="#FFBE5F"/>
<path d="M247.003 154.949C248.803 154.949 250.523 154.619 252.113 154.029C246.253 146.149 240.092 138.939 233.792 133.029C232.692 135.109 232.062 137.479 232.062 140.009C232.062 148.259 238.753 154.949 247.003 154.949Z" fill="#FFBE5F"/>
<path d="M144.583 128.769C151.653 128.769 157.553 123.859 159.113 117.269L147.052 117.639C147.052 117.639 138.653 118.679 129.812 115.949C130.842 123.189 137.053 128.769 144.583 128.769Z" fill="#FFE49F"/>
<path d="M79.1329 108.899C78.3829 108.899 77.6429 108.969 76.9229 109.079C79.1329 117.369 83.0229 126.449 89.8429 134.249C92.4629 131.559 94.0729 127.889 94.0729 123.839C94.0729 115.589 87.3829 108.899 79.1329 108.899Z" fill="#FFA6C2"/>
<path d="M273.493 227.799C273.493 219.549 266.803 212.859 258.553 212.859C254.533 212.859 250.893 214.449 248.213 217.029L259.313 242.699C267.213 242.309 273.503 235.799 273.503 227.799H273.493Z" fill="#ADF2F0"/>
<path d="M110.702 238.119C118.952 238.119 125.642 231.429 125.642 223.179C125.642 219.839 124.532 216.769 122.682 214.279L96.4424 227.639C98.3424 233.709 104.002 238.109 110.702 238.109V238.119Z" fill="#FFA6C2"/>
<path d="M207.733 256.749C199.483 256.749 192.792 263.439 192.792 271.689C192.792 274.419 193.543 276.979 194.823 279.179L201.652 276.589C205.422 275.159 209.562 275.059 213.402 276.299L219.513 278.279C220.013 278.439 220.553 278.479 221.062 278.409C222.082 276.389 222.672 274.109 222.672 271.689C222.672 263.439 215.983 256.749 207.733 256.749Z" fill="#FFE49F"/>
<path d="M176.163 231.339C167.913 231.339 161.223 238.029 161.223 246.279C161.223 254.529 167.913 261.219 176.163 261.219C184.413 261.219 191.103 254.529 191.103 246.279C191.103 238.029 184.413 231.339 176.163 231.339Z" fill="#ADF2F0"/>
<path d="M96.3143 24.8746C97.6166 23.5978 91.705 18.7331 90.709 17.9415C84.0185 12.7065 74.7999 12.4895 68.071 17.7627C60.6782 23.5595 58.1373 34.9104 61.3932 43.6822C63.1169 48.3298 67.3688 51.4197 71.9398 53.5903C81.3627 58.0592 86.0997 54.101 86.1636 54.3053C86.1636 54.3053 90.6835 69.4101 107.908 64.3156C116.705 61.7237 123.562 53.8585 125.49 44.9462C127.239 36.8512 124.481 28.2582 117.382 23.7127C110.908 19.5758 102.047 19.2438 96.3143 24.8619V24.8746Z" fill="#FF6C7E" stroke="black" stroke-width="4" stroke-linecap="round" stroke-linejoin="round"/>
<path d="M93.811 2.01952C93.811 2.01952 102.583 0.474565 96.3136 24.8746" stroke="black" stroke-width="4" stroke-linecap="round" stroke-linejoin="round"/>
</svg>
