<svg width="200" height="241" viewBox="0 0 200 241" fill="none" xmlns="http://www.w3.org/2000/svg">
<path d="M63.3061 235.92C63.8461 235.92 64.3661 235.7 64.7361 235.31C65.1161 234.92 65.3161 234.4 65.2961 233.86L64.436 204.03C64.406 202.95 63.516 202.09 62.436 202.09H50.936C43.456 202.09 36.1261 204.13 29.7161 207.98L5.51604 222.53C2.70604 224.22 1.40606 227.48 2.28606 230.64C3.16606 233.8 5.95608 235.93 9.23608 235.93H63.3061V235.92Z" fill="#FCAECC"/>
<path d="M50.9359 204.08C43.8259 204.08 36.8459 206.02 30.7459 209.68L6.5459 224.23C2.0159 226.95 3.9459 233.91 9.2359 233.91H63.3059L62.4459 204.08H50.9459M50.9359 200.08H62.4359C64.5959 200.08 66.3759 201.8 66.4359 203.96L67.2959 233.79C67.3259 234.87 66.9159 235.92 66.1659 236.69C65.4159 237.47 64.3759 237.9 63.2959 237.9H9.22589C5.03589 237.9 1.46589 235.19 0.345886 231.15C-0.774114 227.11 0.885895 222.95 4.47589 220.79L28.6759 206.24C35.3959 202.2 43.0859 200.07 50.9259 200.07L50.9359 200.08Z" fill="black"/>
<path d="M177.275 197.92H86.6655V238.99H151.605C165.775 238.99 177.275 227.49 177.275 213.32V197.92Z" fill="#7F7FDB" stroke="black" stroke-width="4" stroke-linecap="round" stroke-linejoin="round"/>
<path d="M148.016 197.92H57.4057V238.99H122.346C136.516 238.99 148.016 227.49 148.016 213.32V197.92Z" fill="#7F7FDB" stroke="black" stroke-width="4" stroke-linecap="round" stroke-linejoin="round"/>
<path d="M81.7159 235.65C82.6959 235.65 83.6459 235.36 84.4659 234.82L96.4159 226.86C97.9559 225.84 99.7359 225.29 101.586 225.29C102.326 225.29 103.076 225.38 103.796 225.56L117.846 229C118.876 229.25 119.946 229.38 121.006 229.38C123.196 229.38 125.376 228.83 127.306 227.8L140.646 220.64C141.996 219.92 143.516 219.53 145.056 219.53C145.836 219.53 146.616 219.63 147.366 219.82L159.606 222.95C160.686 223.23 161.796 223.37 162.906 223.37C165.986 223.37 168.986 222.29 171.366 220.34L177.526 215.28C179.186 213.91 181.286 213.16 183.446 213.16C183.846 213.16 184.236 213.19 184.636 213.24L191.906 214.17C192.126 214.2 192.346 214.21 192.566 214.21C194.536 214.21 196.256 213.08 197.066 211.26C197.866 209.45 197.546 207.41 196.216 205.94L169.006 175.76L165.736 164.09C168.036 159.05 180.596 129.29 169.786 102.77C163.596 87.5799 150.856 76.4199 131.946 69.6299L131.686 69.5399L85.9559 66.4199L85.6859 66.4799C85.3059 66.5599 47.7259 74.8999 38.7959 109.58C34.1159 127.75 39.0059 141.38 43.9259 149.61C48.1059 156.59 52.9359 160.92 54.9659 162.56L52.0359 185.8V185.95C52.1959 193.46 54.5659 200.68 58.8859 206.83L77.6659 233.56C78.5959 234.88 80.1059 235.67 81.7159 235.67V235.65Z" fill="#B6B6FF"/>
<path d="M86.0857 68.42C86.0857 68.42 49.4457 76.18 40.7157 110.07C31.9857 143.95 57.0757 161.66 57.0757 161.66L54.0257 185.89C54.1757 192.98 56.4357 199.86 60.5157 205.66L79.2957 232.39C79.8657 233.21 80.7857 233.65 81.7157 233.65C82.2757 233.65 82.8457 233.49 83.3557 233.15L95.3057 225.19C97.1857 223.94 99.3657 223.29 101.586 223.29C102.486 223.29 103.386 223.4 104.276 223.61L118.326 227.05C119.216 227.27 120.116 227.37 121.016 227.37C122.866 227.37 124.706 226.91 126.366 226.02L139.706 218.86C141.366 217.97 143.206 217.51 145.056 217.51C145.996 217.51 146.936 217.63 147.866 217.86L160.106 220.99C161.036 221.23 161.976 221.34 162.916 221.34C165.506 221.34 168.056 220.45 170.106 218.77L176.266 213.71C178.306 212.04 180.846 211.14 183.456 211.14C183.936 211.14 184.416 211.17 184.896 211.23L192.166 212.16C192.306 212.18 192.436 212.19 192.566 212.19C195.046 212.19 196.476 209.19 194.736 207.26L167.216 176.73L163.626 163.9C163.626 163.9 196.996 95.11 131.286 71.49L86.1057 68.41M85.8057 64.39L86.3657 64.43L131.546 67.51L132.106 67.55L132.626 67.74C152.096 74.74 165.226 86.27 171.646 102.01C182.346 128.25 170.846 157.46 167.866 164.24L170.816 174.76L197.706 204.59C199.576 206.66 200.026 209.52 198.896 212.06C197.776 214.57 195.296 216.2 192.566 216.2C192.266 216.2 191.956 216.18 191.656 216.14L184.386 215.21C184.076 215.17 183.766 215.15 183.456 215.15C181.766 215.15 180.116 215.74 178.806 216.81L172.646 221.87C169.916 224.12 166.456 225.35 162.916 225.35C161.636 225.35 160.356 225.19 159.116 224.87L146.876 221.74C146.286 221.59 145.676 221.51 145.066 221.51C143.866 221.51 142.666 221.81 141.606 222.38L128.266 229.54C126.046 230.73 123.536 231.36 121.026 231.36C119.806 231.36 118.576 231.21 117.386 230.92L103.336 227.48C102.766 227.34 102.186 227.27 101.596 227.27C100.146 227.27 98.7457 227.7 97.5357 228.5L85.5857 236.46C84.4357 237.22 83.1057 237.63 81.7357 237.63C79.4757 237.63 77.3457 236.53 76.0457 234.67L57.2657 207.94C52.7157 201.47 50.2257 193.86 50.0557 185.95V185.66L50.0857 185.37L52.8657 163.36C50.4057 161.24 46.0357 156.97 42.2257 150.61C37.1057 142.05 32.0257 127.9 36.8757 109.06C40.7157 94.17 50.3157 81.74 64.6457 73.1C75.3457 66.65 84.8957 64.58 85.2957 64.5L85.8457 64.38L85.8057 64.39Z" fill="black"/>
<path d="M154.226 157.28C154.226 165.53 147.536 172.22 139.286 172.22C135.686 172.22 132.376 170.94 129.796 168.82C135.656 161.3 138.796 148.99 140.146 142.39C147.996 142.84 154.226 149.32 154.226 157.29V157.28Z" fill="#FFA6C2"/>
<path d="M124.346 157.28C124.346 149.03 131.036 142.34 139.286 142.34C139.576 142.34 139.856 142.37 140.146 142.38C138.806 148.98 135.656 161.29 129.796 168.81C126.466 166.07 124.346 161.92 124.346 157.27V157.28Z" fill="#FFE49F"/>
<path d="M108.096 107.68C116.346 107.68 123.036 114.37 123.036 122.62C123.036 130.87 116.346 137.56 108.096 137.56C99.8457 137.56 93.1557 130.87 93.1557 122.62C93.1557 114.37 99.8457 107.68 108.096 107.68Z" fill="#FFA6C2"/>
<path d="M51.9655 159.85L76.6455 171.35L76.7456 171.59C79.8656 168.85 81.8355 164.83 81.8355 160.36C81.8355 152.11 75.1455 145.42 66.8955 145.42C58.6455 145.42 52.2355 151.84 51.9655 159.85Z" fill="#ADF2F0"/>
<path d="M143.856 90.5399C143.856 86.3899 145.546 82.6399 148.276 79.9399C157.926 86.4199 163.966 94.3099 167.546 102.63C165.086 104.42 162.066 105.48 158.796 105.48C150.546 105.48 143.856 98.7899 143.856 90.5399Z" fill="#FFE49F"/>
<path d="M83.3756 84.3799C83.3756 92.6299 76.6856 99.3199 68.4356 99.3199C61.0156 99.3199 54.8756 93.9099 53.7156 86.8199C61.0856 79.1299 69.7656 74.4099 76.2856 71.6899C80.5356 74.3199 83.3756 79.0199 83.3756 84.3799Z" fill="#FFBE5F"/>
<path d="M81.2759 204.97C89.5259 204.97 96.2159 211.66 96.2159 219.91C96.2159 221.79 95.8559 223.59 95.2159 225.25L83.3559 233.16C82.0259 234.05 80.2259 233.71 79.3059 232.4L67.1459 215.1C69.1459 209.21 74.7159 204.97 81.2759 204.97Z" fill="#FFE49F"/>
<path d="M171.116 201.99C162.866 201.99 156.176 195.3 156.176 187.05C156.176 180.54 160.346 175.03 166.146 172.98L167.196 176.75L183.706 195.07C181.056 199.23 176.406 202 171.106 202L171.116 201.99Z" fill="#FFA6C2"/>
<mask id="mask0_2118_1909" style="mask-type:alpha" maskUnits="userSpaceOnUse" x="74" y="162" width="53" height="41">
<path d="M100 178C91.8334 176.167 75.2001 172.5 74.0001 172.5L75.5001 190L96.5001 203L121.5 194L127 176.5L108 162.5L100 178Z" fill="#D9D9D9"/>
</mask>
<g mask="url(#mask0_2118_1909)">
<path d="M99.94 166C108.19 166 114.88 172.69 114.88 180.94C114.88 189.19 108.19 195.88 99.94 195.88C91.69 195.88 85 189.19 85 180.94C85 172.69 91.69 166 99.94 166Z" fill="#ADF2F0"/>
</g>
<path d="M86.0857 68.42C86.0857 68.42 49.4457 76.18 40.7157 110.07C31.9857 143.95 57.0757 161.66 57.0757 161.66L54.0257 185.89C54.1757 192.98 56.4357 199.86 60.5157 205.66L79.2957 232.39C79.8657 233.21 80.7857 233.65 81.7157 233.65C82.2757 233.65 82.8457 233.49 83.3557 233.15L95.3057 225.19C97.1857 223.94 99.3657 223.29 101.586 223.29C102.486 223.29 103.386 223.4 104.276 223.61L118.326 227.05C119.216 227.27 120.116 227.37 121.016 227.37C122.866 227.37 124.706 226.91 126.366 226.02L139.706 218.86C141.366 217.97 143.206 217.51 145.056 217.51C145.996 217.51 146.936 217.63 147.866 217.86L160.106 220.99C161.036 221.23 161.976 221.34 162.916 221.34C165.506 221.34 168.056 220.45 170.106 218.77L176.266 213.71C178.306 212.04 180.846 211.14 183.456 211.14C183.936 211.14 184.416 211.17 184.896 211.23L192.166 212.16C192.306 212.18 192.436 212.19 192.566 212.19C195.046 212.19 196.476 209.19 194.736 207.26L167.216 176.73L163.626 163.9C163.626 163.9 196.996 95.11 131.286 71.49L86.1057 68.41M85.8057 64.39L86.3657 64.43L131.546 67.51L132.106 67.55L132.626 67.74C152.096 74.74 165.226 86.27 171.646 102.01C182.346 128.25 170.846 157.46 167.866 164.24L170.816 174.76L197.706 204.59C199.576 206.66 200.026 209.52 198.896 212.06C197.776 214.57 195.296 216.2 192.566 216.2C192.266 216.2 191.956 216.18 191.656 216.14L184.386 215.21C184.076 215.17 183.766 215.15 183.456 215.15C181.766 215.15 180.116 215.74 178.806 216.81L172.646 221.87C169.916 224.12 166.456 225.35 162.916 225.35C161.636 225.35 160.356 225.19 159.116 224.87L146.876 221.74C146.286 221.59 145.676 221.51 145.066 221.51C143.866 221.51 142.666 221.81 141.606 222.38L128.266 229.54C126.046 230.73 123.536 231.36 121.026 231.36C119.806 231.36 118.576 231.21 117.386 230.92L103.336 227.48C102.766 227.34 102.186 227.27 101.596 227.27C100.146 227.27 98.7457 227.7 97.5357 228.5L85.5857 236.46C84.4357 237.22 83.1057 237.63 81.7357 237.63C79.4757 237.63 77.3457 236.53 76.0457 234.67L57.2657 207.94C52.7157 201.47 50.2257 193.86 50.0557 185.95V185.66L50.0857 185.37L52.8657 163.36C50.4057 161.24 46.0357 156.97 42.2257 150.61C37.1057 142.05 32.0257 127.9 36.8757 109.06C40.7157 94.17 50.3157 81.74 64.6457 73.1C75.3457 66.65 84.8957 64.58 85.2957 64.5L85.8457 64.38L85.8057 64.39Z" fill="black"/>
<path d="M117.966 77.55C114.596 78.89 110.736 79.66 106.626 79.66C103.066 79.66 99.7057 79.0801 96.6757 78.0601C96.6757 83.6601 101.216 88.2001 106.816 88.2001H107.836C113.436 88.2001 117.976 83.6601 117.976 78.0601V77.55H117.966Z" fill="#EFD0C5" stroke="black" stroke-width="4" stroke-linecap="round" stroke-linejoin="round"/>
<path d="M107.866 81.66C121.556 81.66 144.186 69.54 145.146 69.02C145.776 68.68 146.176 68.0301 146.196 67.3201C146.216 66.6101 145.856 65.9401 145.246 65.5601L135.976 59.83C135.466 50.2 128.576 41.36 118.516 37.6C115.256 36.38 111.886 35.77 108.496 35.77C102.656 35.77 97.0556 37.67 92.8156 41.05C91.7656 40.06 90.5156 39.29 89.1456 38.78C87.9056 38.31 86.6056 38.08 85.2856 38.08C80.7056 38.08 76.5556 40.9601 74.9456 45.2501C72.8156 50.9501 75.7156 57.3201 81.4156 59.4501C82.5756 59.8901 83.8056 60.1101 85.0656 60.1301C86.2056 69.1401 92.9256 77.2801 102.376 80.8101C103.906 81.3801 105.756 81.67 107.866 81.67V81.66Z" fill="#EFD0C5"/>
<path d="M108.506 37.77C102.386 37.77 96.6658 39.96 92.6458 43.86C91.6358 42.44 90.2058 41.3 88.4558 40.64C87.4158 40.25 86.3458 40.0701 85.2958 40.0701C81.6358 40.0701 78.1858 42.3101 76.8358 45.9401C75.0858 50.6101 77.4558 55.8201 82.1358 57.5701C83.1458 57.9501 84.1858 58.1201 85.2058 58.1201C85.7858 58.1201 86.3558 58.07 86.9158 57.96C87.1658 66.74 93.3658 75.29 103.086 78.92C104.456 79.43 106.076 79.66 107.876 79.66C121.216 79.66 144.206 67.2601 144.206 67.2601L134.026 60.96C134.026 52 127.746 43.18 117.836 39.47C114.736 38.31 111.576 37.7601 108.516 37.7601M108.506 33.77C112.136 33.77 115.746 34.43 119.226 35.73C129.666 39.63 136.916 48.67 137.896 58.67L146.296 63.86C147.506 64.61 148.236 65.9501 148.196 67.3801C148.156 68.8101 147.356 70.1 146.096 70.78C145.126 71.31 122.056 83.66 107.866 83.66C105.516 83.66 103.436 83.33 101.676 82.67C92.1058 79.09 85.1358 71.0701 83.3458 61.9901C82.4458 61.8601 81.5758 61.6401 80.7158 61.3201C73.9858 58.8001 70.5558 51.28 73.0758 44.55C74.9758 39.48 79.8758 36.08 85.2858 36.08C86.8458 36.08 88.3758 36.36 89.8458 36.91C90.9358 37.32 91.9458 37.86 92.8758 38.52C97.2758 35.47 102.786 33.78 108.496 33.78L108.506 33.77Z" fill="black"/>
<path d="M127.756 61.23C133.756 61.23 138.866 57.93 140.776 52.82C142.056 49.4 141.756 45.64 139.926 42.24C138.146 38.92 135.116 36.32 131.396 34.93C129.516 34.23 127.576 33.87 125.616 33.87C123.836 33.87 122.106 34.16 120.476 34.74C120.076 34.88 119.626 34.96 119.206 34.96C117.926 34.96 117.476 34.31 117.246 33.81C114.686 28.23 110.276 24.04 104.816 22C102.266 21.05 99.6356 20.56 96.9756 20.56C95.8156 20.56 94.6456 20.66 93.5156 20.84C92.8656 20.98 92.3356 21.04 91.8556 21.04C90.6756 21.04 88.9456 20.73 87.5156 18.08C84.3456 11.68 78.6356 6.64997 71.4756 3.96997C67.9956 2.66997 64.3956 2.01001 60.7756 2.01001C49.8156 2.01001 40.4956 7.99996 37.0356 17.27C32.3056 29.93 40.0457 44.57 54.3057 49.9C57.8557 51.23 61.5156 51.9 65.1656 51.9C70.3356 51.9 75.1956 50.54 79.2156 47.97C80.0656 47.43 80.5156 47.35 80.7056 47.35C81.1756 47.35 81.8156 48.08 82.6256 49.18C84.8056 52.11 88.0856 54.45 92.1056 55.96C94.6356 56.91 97.2656 57.39 99.9056 57.39C104.506 57.39 108.906 55.91 112.306 53.23C112.446 53.12 112.576 53.07 112.726 53.07C113.196 53.07 113.766 53.48 114.016 53.86C115.836 56.69 118.646 58.93 121.946 60.16C123.826 60.86 125.776 61.22 127.746 61.22L127.756 61.23Z" fill="#FCAECC"/>
<path d="M60.7856 4.02997C50.9956 4.02997 42.1756 9.26999 38.9156 17.99C34.5556 29.64 41.7656 43.1 55.0156 48.05C58.3956 49.31 61.8457 49.92 65.1757 49.92C69.9257 49.92 74.4356 48.68 78.1456 46.31C79.1656 45.66 79.9956 45.37 80.7156 45.37C82.1256 45.37 83.1057 46.47 84.2457 48.01C86.2757 50.73 89.3056 52.79 92.8256 54.11C95.1956 54.99 97.5956 55.41 99.9256 55.41C104.116 55.41 108.066 54.06 111.086 51.68C111.616 51.26 112.186 51.09 112.746 51.09C113.966 51.09 115.136 51.9 115.716 52.8C117.246 55.19 119.646 57.18 122.666 58.31C124.366 58.94 126.086 59.24 127.766 59.24C132.756 59.24 137.246 56.57 138.916 52.13C141.136 46.19 137.466 39.33 130.716 36.81C129.026 36.18 127.306 35.88 125.636 35.88C124.076 35.88 122.566 36.14 121.176 36.64C120.596 36.84 119.926 36.98 119.236 36.98C117.776 36.98 116.256 36.39 115.456 34.67C113.386 30.15 109.606 25.94 104.146 23.9C101.766 23.01 99.3456 22.59 97.0056 22.59C95.9456 22.59 94.8956 22.68 93.8756 22.85C93.1756 23 92.5056 23.08 91.8856 23.08C89.1056 23.08 87.1456 21.6 85.7856 19.07C82.9456 13.34 77.6957 8.46995 70.8057 5.88995C67.4757 4.64995 64.0857 4.06 60.8057 4.06M60.7856 0.0299683C64.6456 0.0299683 68.4856 0.729995 72.1856 2.12C79.7956 4.97 85.8756 10.32 89.3156 17.2C90.2556 18.91 91.1257 19.06 91.8657 19.06C92.2057 19.06 92.5856 19.01 93.0056 18.92C93.0656 18.91 93.1356 18.89 93.2056 18.88C94.4456 18.68 95.7156 18.57 96.9856 18.57C99.8856 18.57 102.756 19.1 105.526 20.13C111.476 22.35 116.276 26.91 119.056 32.95C119.096 32.95 119.146 32.95 119.206 32.95C119.396 32.95 119.626 32.91 119.806 32.85C121.646 32.19 123.606 31.86 125.616 31.86C127.816 31.86 129.996 32.26 132.096 33.04C136.276 34.6 139.676 37.53 141.686 41.28C143.786 45.2 144.126 49.55 142.646 53.51C140.436 59.41 134.596 63.22 127.756 63.22C125.556 63.22 123.366 62.82 121.256 62.03C117.756 60.72 114.736 58.4 112.686 55.45C109.076 58 104.586 59.39 99.9156 59.39C97.0256 59.39 94.1656 58.87 91.4156 57.84C87.0256 56.2 83.4356 53.62 81.0256 50.38C80.7656 50.03 80.5656 49.77 80.4056 49.59C80.3656 49.61 80.3256 49.64 80.2856 49.66C75.9456 52.44 70.7156 53.9 65.1556 53.9C61.2556 53.9 57.3656 53.18 53.5956 51.77C38.3056 46.05 30.0356 30.26 35.1556 16.56C38.9156 6.5 48.9756 0 60.7756 0L60.7856 0.0299683Z" fill="black"/>
<path d="M118.426 71.0899C116.658 71.0899 115.226 69.6572 115.226 67.8899C115.226 66.1226 116.658 64.6899 118.426 64.6899C120.193 64.6899 121.626 66.1226 121.626 67.8899C121.626 69.6572 120.193 71.0899 118.426 71.0899Z" fill="black"/>
<path d="M76.5255 108.72L78.8355 130.28L115.025 149.34L99.4354 178.22C99.4354 178.22 73.3855 174.43 55.0955 162.88" stroke="black" stroke-width="4" stroke-linecap="round" stroke-linejoin="round"/>
<path d="M140.246 106.03C140.246 106.03 148.135 128.17 136.005 154.16" stroke="black" stroke-width="4" stroke-linecap="round" stroke-linejoin="round"/>
<path d="M159.306 181.3H132.736L134.666 155.89C134.666 155.89 140.056 149.15 151.606 150.88C163.156 152.61 163.606 163.91 163.606 163.91L159.306 181.3Z" fill="#EFD0C5" stroke="black" stroke-width="4" stroke-linecap="round" stroke-linejoin="round"/>
<path d="M125.806 78.4299L122.216 89.7299" stroke="black" stroke-width="4" stroke-linecap="round" stroke-linejoin="round"/>
<path d="M88.6756 69.96L91.4156 83.82" stroke="black" stroke-width="4" stroke-linecap="round" stroke-linejoin="round"/>
<path d="M101.555 174.37L110.415 181.49H147.765C147.765 181.49 151.805 151.84 115.035 149.34L101.555 174.37Z" fill="#EFD0C5" stroke="black" stroke-width="4" stroke-linecap="round" stroke-linejoin="round"/>
<path d="M133.505 167.25C133.505 167.25 139.155 173.41 138.635 180.08" stroke="black" stroke-width="4" stroke-linecap="round" stroke-linejoin="round"/>
<path d="M124.265 170.07C124.265 170.07 128.115 173.92 127.605 180.34" stroke="black" stroke-width="4" stroke-linecap="round" stroke-linejoin="round"/>
<path d="M115.025 173.41C115.025 173.41 117.335 175.98 117.595 180.08" stroke="black" stroke-width="4" stroke-linecap="round" stroke-linejoin="round"/>
<path d="M147.396 188.81H181.956L197.426 140.3L162.856 140.29L147.396 188.81Z" fill="#CECECE" stroke="black" stroke-width="4" stroke-linecap="round" stroke-linejoin="round"/>
<path d="M149.716 181.53L147.396 188.81H179.006H110.096V181.53H149.716Z" fill="#CECECE" stroke="black" stroke-width="4" stroke-linecap="round" stroke-linejoin="round"/>
<path d="M173.776 169.94C170.76 169.94 168.316 167.496 168.316 164.48C168.316 161.465 170.76 159.02 173.776 159.02C176.791 159.02 179.236 161.465 179.236 164.48C179.236 167.496 176.791 169.94 173.776 169.94Z" fill="#999999"/>
</svg>
