<svg width="370" height="292" viewBox="0 0 370 292" fill="none" xmlns="http://www.w3.org/2000/svg">
<path d="M235.65 39.9301C236.67 38.9301 232.04 35.1201 231.26 34.5001C226.02 30.4001 218.8 30.2301 213.53 34.3601C207.74 38.9001 205.75 47.7901 208.3 54.6601C209.65 58.3001 212.98 60.7201 216.56 62.4201C223.94 65.9201 227.65 62.8201 227.7 62.9801C227.7 62.9801 231.24 74.8101 244.73 70.8201C251.62 68.7901 256.99 62.6301 258.5 55.6501C259.87 49.3101 257.71 42.5801 252.15 39.0201C247.08 35.7801 240.14 35.5201 235.65 39.9201V39.9301Z" fill="#FF6C7E" stroke="black" stroke-width="4" stroke-linecap="round" stroke-linejoin="round"/>
<path d="M233.69 22.0302C233.69 22.0302 240.56 20.8202 235.65 39.9302" stroke="black" stroke-width="4" stroke-linecap="round" stroke-linejoin="round"/>
<path d="M174.75 19.4102C171.3 10.0502 156.68 10.6302 150.34 16.3602C142.83 23.1602 143.09 36.1802 150.32 43.0402C155.35 47.8202 163.21 49.3602 169.67 46.8502C174.45 53.8302 186.37 54.8702 193.29 50.7602C208.02 42.0102 199.06 8.09022 180.22 15.3502C179.43 15.6502 174.33 18.3102 174.74 19.4102H174.75Z" fill="#FF6C7E" stroke="black" stroke-width="4" stroke-linecap="round" stroke-linejoin="round"/>
<path d="M182.41 2.00024C182.41 2.00024 178.03 2.75024 174.75 19.4102" stroke="black" stroke-width="4" stroke-linecap="round" stroke-linejoin="round"/>
<path d="M194.59 41.6904C190.59 31.8004 174.99 32.9204 168.41 39.2604C160.61 46.7804 161.34 60.6904 169.29 67.7704C174.83 72.7004 183.27 74.0904 190.1 71.1804C195.44 78.4704 208.22 79.1804 215.47 74.5504C230.91 64.7004 220.19 28.7604 200.31 37.1604C199.48 37.5104 194.12 40.5204 194.59 41.6804V41.6904Z" fill="#FF6C7E" stroke="black" stroke-width="4" stroke-linecap="round" stroke-linejoin="round"/>
<path d="M202.19 22.8303C202.19 22.8303 197.54 23.7803 194.6 41.6903" stroke="black" stroke-width="4" stroke-linecap="round" stroke-linejoin="round"/>
<path d="M120.16 28.4104C121.41 26.0704 111.83 27.4804 111.05 27.9904C105.14 31.8104 101.31 40.1504 102.38 47.0904C103.87 56.7204 114.62 60.5804 123.05 57.5404C124.28 57.0904 130.03 52.8404 130.62 53.0004C130.63 53.0004 149.16 58.0304 151.03 37.6304C152.89 17.2204 130.44 9.13037 120.16 28.4204V28.4104Z" fill="#FF6C7E" stroke="black" stroke-width="4" stroke-linecap="round" stroke-linejoin="round"/>
<path d="M120.16 28.4103C120.16 28.4103 114.54 8.78034 121.98 6.85034" stroke="black" stroke-width="4" stroke-linecap="round" stroke-linejoin="round"/>
<path d="M141.29 39.4704C143.84 38.7404 136.17 32.8404 135.26 32.6304C128.41 31.0404 119.74 34.0804 115.5 39.6804C109.61 47.4504 114.31 57.8604 122.36 61.8004C123.54 62.3804 130.59 63.5404 130.89 64.0904C130.89 64.0904 140.17 80.9204 156.13 68.0704C172.1 55.2204 162.3 33.4504 141.29 39.4704Z" fill="#FF6C7E" stroke="black" stroke-width="4" stroke-linecap="round" stroke-linejoin="round"/>
<path d="M141.29 39.4703C141.29 39.4703 151.49 21.7903 158.05 25.7903" stroke="black" stroke-width="4" stroke-linecap="round" stroke-linejoin="round"/>
<path d="M86.8002 53.3104C78.9202 46.1204 65.3302 53.8704 62.1402 62.4304C58.3602 72.5804 65.0202 84.8104 75.2502 87.7604C82.3802 89.8204 90.5902 87.4204 95.4902 81.8504C103.46 86.1204 115.29 81.2404 119.83 73.9304C129.5 58.3804 104.3 30.5904 90.0002 46.7604C89.4002 47.4304 85.8702 52.4704 86.8002 53.3104Z" fill="#FF6C7E" stroke="black" stroke-width="4" stroke-linecap="round" stroke-linejoin="round"/>
<path d="M85.4904 33.0203C85.4904 33.0203 81.7104 35.8803 86.7904 53.3103" stroke="black" stroke-width="4" stroke-linecap="round" stroke-linejoin="round"/>
<path d="M49.06 88.7303C41.18 81.5403 27.59 89.2903 24.4 97.8503C20.62 108 27.28 120.23 37.51 123.18C44.64 125.24 52.85 122.84 57.75 117.27C65.72 121.54 77.55 116.66 82.09 109.35C91.76 93.8003 66.56 66.0103 52.26 82.1803C51.66 82.8503 48.13 87.8903 49.06 88.7303Z" fill="#FF6C7E" stroke="black" stroke-width="4" stroke-linecap="round" stroke-linejoin="round"/>
<path d="M47.7599 68.4402C47.7599 68.4402 43.9799 71.3002 49.0599 88.7302" stroke="black" stroke-width="4" stroke-linecap="round" stroke-linejoin="round"/>
<path d="M256.17 69.5702C246.65 53.5602 223.92 64.5602 223.92 81.0002C223.92 90.8702 235.07 99.1502 244.61 95.4902C244.56 95.5102 246.65 98.5602 246.78 98.7302C248.65 101.03 251 103.01 253.75 104.16C269.52 110.74 279.96 92.1002 276.18 78.8102C275.14 75.1602 273.12 71.5502 269.9 69.4002C268.13 68.2202 266.11 67.5802 263.99 67.5302C263.18 67.5102 255.86 69.0702 256.16 69.5702H256.17Z" fill="#FF6C7E" stroke="black" stroke-width="4" stroke-linecap="round" stroke-linejoin="round"/>
<path d="M268.81 55.9902C268.81 55.9902 261.94 56.6102 256.17 69.5802" stroke="black" stroke-width="4" stroke-linecap="round" stroke-linejoin="round"/>
<path d="M214.6 69.7003C215.65 67.2603 206.23 69.4803 205.49 70.0503C199.93 74.3603 196.81 82.9903 198.46 89.8203C200.76 99.2903 211.79 102.23 219.94 98.4803C221.13 97.9303 226.49 93.2003 227.1 93.3203C227.11 93.3203 246 96.7703 246.14 76.2803C246.27 55.7903 223.22 49.6203 214.6 69.7103V69.7003Z" fill="#FF6C7E" stroke="black" stroke-width="4" stroke-linecap="round" stroke-linejoin="round"/>
<path d="M214.6 69.7003C214.6 69.7003 207.35 50.6203 214.59 48.0703" stroke="black" stroke-width="4" stroke-linecap="round" stroke-linejoin="round"/>
<path d="M176.88 62.8402C176.88 62.8402 171.82 49.8302 156.33 55.0202C147.44 58.0002 139.48 71.1902 142.08 83.2202C144.84 96.0102 158.79 103.21 168.22 98.2102C167.35 98.6702 174.12 105.31 174.83 105.79C178.75 108.46 186.82 112.41 194.43 109.22C206.73 104.07 211.52 87.6802 206.3 74.4702C203.36 67.0102 197.18 62.6002 190.24 61.8902C189.12 61.7702 176.48 61.8102 176.88 62.8402Z" fill="#FF6C7E" stroke="black" stroke-width="4" stroke-linecap="round" stroke-linejoin="round"/>
<path d="M176.88 62.8402C176.88 62.8402 185.09 48.7302 179.92 40.9802" stroke="black" stroke-width="4" stroke-linecap="round" stroke-linejoin="round"/>
<path d="M224.11 96.4104C220.42 86.4004 204.8 87.0204 198.02 93.1504C189.99 100.41 190.27 114.34 197.99 121.68C203.37 126.79 211.77 128.44 218.68 125.75C223.79 133.21 236.54 134.32 243.93 129.92C259.67 120.57 250.1 84.3003 229.96 92.0703C229.12 92.3903 223.67 95.2304 224.1 96.4104H224.11Z" fill="#FF6C7E" stroke="black" stroke-width="4" stroke-linecap="round" stroke-linejoin="round"/>
<path d="M232.3 77.8103C232.3 77.8103 227.62 78.6103 224.11 96.4203" stroke="black" stroke-width="4" stroke-linecap="round" stroke-linejoin="round"/>
<path d="M261.05 99.4705C261.26 97.7905 254.15 97.6305 252.98 97.6305C245.09 97.6505 238.23 102.8 236.36 110.51C234.29 119 238.97 128.74 246.38 133.27C250.31 135.67 255.19 135.49 259.78 134.44C269.22 132.29 270.41 126.67 270.58 126.79C270.58 126.79 282.56 135.22 292.21 121.6C297.13 114.65 297.62 104.98 293.9 97.3605C290.52 90.4405 283.57 85.7605 275.78 86.5205C268.67 87.2205 262.02 92.0805 261.06 99.4705H261.05Z" fill="#FF6C7E" stroke="black" stroke-width="4" stroke-linecap="round" stroke-linejoin="round"/>
<path d="M246.09 84.2304C246.09 84.2304 251.61 78.0604 261.05 99.4704" stroke="black" stroke-width="4" stroke-linecap="round" stroke-linejoin="round"/>
<path d="M137.67 68.9503C137.67 68.9503 129.96 58.1203 119.07 64.1803C108.18 70.2403 105.44 84.4903 113.18 89.9903C120.92 95.4903 126.94 94.0503 126.94 94.0503C126.94 94.0503 132.71 106.53 144.3 104.33C155.89 102.13 161.87 89.3403 159.08 81.5303C159.08 81.5303 157.57 65.3303 137.67 68.9403V68.9503Z" fill="#FF6C7E" stroke="black" stroke-width="4" stroke-linecap="round" stroke-linejoin="round"/>
<path d="M154.79 58.1003C154.79 58.1003 151.43 55.1103 137.67 68.9503" stroke="black" stroke-width="4" stroke-linecap="round" stroke-linejoin="round"/>
<path d="M70.6798 103.6C70.6798 103.6 62.9698 92.7702 52.0798 98.8302C41.1898 104.89 38.4498 119.14 46.1898 124.64C53.9298 130.14 59.9498 128.7 59.9498 128.7C59.9498 128.7 65.7198 141.18 77.3098 138.98C88.8998 136.78 94.8798 123.99 92.0898 116.18C92.0898 116.18 90.5798 99.9802 70.6798 103.59V103.6Z" fill="#FF6C7E" stroke="black" stroke-width="4" stroke-linecap="round" stroke-linejoin="round"/>
<path d="M87.7997 92.7502C87.7997 92.7502 84.4397 89.7602 70.6797 103.6" stroke="black" stroke-width="4" stroke-linecap="round" stroke-linejoin="round"/>
<path d="M83.34 77.1702C73.77 72.4602 62.87 83.6802 62.19 92.7902C61.38 103.59 71.18 113.48 81.83 113.48C89.25 113.48 96.47 108.89 99.63 102.17C108.47 104.06 118.48 96.0802 120.81 87.7902C125.77 70.1702 93.85 50.4802 84.6 69.9902C84.21 70.8002 82.22 76.6202 83.34 77.1702Z" fill="#FF6C7E" stroke="black" stroke-width="4" stroke-linecap="round" stroke-linejoin="round"/>
<path d="M76.4498 58.0403C76.4498 58.0403 73.6098 61.8403 83.3398 77.1603" stroke="black" stroke-width="4" stroke-linecap="round" stroke-linejoin="round"/>
<path d="M116.28 97.3801C116.28 97.3801 107.39 86.6101 94.31 96.4101C86.8 102.03 83.39 117.05 89.63 127.65C96.27 138.93 111.77 141.39 119.15 133.68C118.47 134.39 126.98 138.57 127.8 138.81C132.36 140.12 141.26 141.33 147.49 135.91C157.55 127.16 156.96 110.09 147.86 99.1901C142.73 93.0401 135.48 90.7801 128.66 92.2801C127.56 92.5201 115.58 96.5301 116.28 97.3701V97.3801Z" fill="#FF6C7E" stroke="black" stroke-width="4" stroke-linecap="round" stroke-linejoin="round"/>
<path d="M116.28 97.3802C116.28 97.3802 119.64 81.4102 112.31 75.6702" stroke="black" stroke-width="4" stroke-linecap="round" stroke-linejoin="round"/>
<path d="M178.43 98.2002C178.24 96.5202 185.35 96.4502 186.53 96.4702C194.42 96.5902 201.21 101.83 202.99 109.56C204.95 118.07 200.15 127.75 192.68 132.19C188.72 134.54 183.84 134.29 179.27 133.19C169.86 130.92 168.74 125.29 168.57 125.4C168.57 125.4 156.49 133.67 147.01 119.93C142.17 112.92 141.81 103.24 145.63 95.6702C149.09 88.7902 156.11 84.2002 163.88 85.0702C170.98 85.8602 177.57 90.8002 178.43 98.2102V98.2002Z" fill="#FF6C7E" stroke="black" stroke-width="4" stroke-linecap="round" stroke-linejoin="round"/>
<path d="M193.58 83.1503C193.58 83.1503 188.14 76.9103 178.43 98.2003" stroke="black" stroke-width="4" stroke-linecap="round" stroke-linejoin="round"/>
<path d="M324.37 135.12C324.37 139.5 322.6 143.47 319.72 146.32C316.92 149.12 313 150.89 308.71 150.94H17.82C9.08999 150.94 2 143.87 2 135.12C2 130.74 3.76999 126.8 6.64999 123.95C9.49999 121.07 13.47 119.3 17.82 119.3H308.52C317.27 119.3 324.37 126.4 324.37 135.12Z" fill="#BF8877" stroke="black" stroke-width="4" stroke-linecap="round" stroke-linejoin="round"/>
<path d="M308.71 150.95C307.35 160.52 305.12 174.52 301.75 192.95C294.65 231.72 250.72 234.3 250.72 234.3H107.31C28.8001 234.3 28.6301 200.97 28.6301 200.7L17.8101 150.95H308.7H308.71Z" fill="#C98D7D" stroke="black" stroke-width="4" stroke-linecap="round" stroke-linejoin="round"/>
<path d="M258.14 167.11L246.52 199.73" stroke="black" stroke-width="3" stroke-linecap="round" stroke-linejoin="round"/>
<path d="M276.23 167.11L264.6 199.73" stroke="black" stroke-width="3" stroke-linecap="round" stroke-linejoin="round"/>
<path d="M241.67 176.8H283.98" stroke="black" stroke-width="3" stroke-linecap="round" stroke-linejoin="round"/>
<path d="M236.23 190.37H278.55" stroke="black" stroke-width="3" stroke-linecap="round" stroke-linejoin="round"/>
<path d="M65.9303 210.23L56.7803 179.71" stroke="black" stroke-width="3" stroke-linecap="round" stroke-linejoin="round"/>
<path d="M82.1002 210.23L72.9502 179.71" stroke="black" stroke-width="3" stroke-linecap="round" stroke-linejoin="round"/>
<path d="M52.7104 202.09H88.2404" stroke="black" stroke-width="3" stroke-linecap="round" stroke-linejoin="round"/>
<path d="M49.9902 188.43H85.5202" stroke="black" stroke-width="3" stroke-linecap="round" stroke-linejoin="round"/>
<path d="M341.3 251.3C342.62 250.24 337.64 245.17 336.8 244.35C331.13 238.86 322.63 237.77 315.91 241.98C308.51 246.62 305.06 256.86 307.21 265.27C308.35 269.73 311.97 273 315.99 275.46C324.26 280.5 329.03 277.31 329.06 277.51C329.06 277.51 331.76 291.9 348.17 288.88C356.55 287.34 363.64 280.74 366.3 272.69C368.71 265.38 366.99 257.17 360.88 252.29C355.3 247.83 347.14 246.67 341.3 251.3Z" fill="#FF6C7E" stroke="black" stroke-width="4" stroke-linecap="round" stroke-linejoin="round"/>
<path d="M341.22 229.94C341.22 229.94 349.47 229.37 341.3 251.3" stroke="black" stroke-width="4" stroke-linecap="round" stroke-linejoin="round"/>
<path d="M236.65 237C237.77 234.59 228.29 236.51 227.53 237.06C221.83 241.19 218.44 249.72 219.88 256.59C221.88 266.13 232.81 269.42 241.08 265.93C242.29 265.42 247.8 260.87 248.4 261C248.41 261 267.18 265.05 267.97 244.57C268.76 224.09 245.9 217.19 236.65 237Z" fill="#FF6C7E" stroke="black" stroke-width="4" stroke-linecap="round" stroke-linejoin="round"/>
<path d="M236.65 237C236.65 237 230.01 217.7 237.33 215.38" stroke="black" stroke-width="4" stroke-linecap="round" stroke-linejoin="round"/>
</svg>
