<svg width="1111" height="287" viewBox="0 0 1111 287" fill="none" xmlns="http://www.w3.org/2000/svg">
<g clip-path="url(#clip0_2126_91)">
<path d="M1.771 153.539C1.771 153.539 57.4888 166.851 135.318 124.415L153.605 87.9482L184.864 219.13L184.058 244.396L172.954 259.375C172.954 259.375 128.296 302.608 15.1691 277.262C15.1691 277.262 52.3793 256.395 64.8564 213.126C64.8564 213.126 37.5023 192.294 1.771 153.539Z" fill="#FFF1D8" stroke="black" stroke-width="4" stroke-linecap="round" stroke-linejoin="round"/>
<path d="M94.6989 208.692C94.6989 208.692 92.5736 231.049 143.182 238.507C193.79 245.966 172.954 259.375 172.954 259.375C172.954 259.375 189.327 254.905 184.864 219.121C182.455 199.832 168.49 98.3686 168.49 98.3686L113.419 141.602C113.419 141.602 90.8822 159.49 94.7077 208.683L94.6989 208.692Z" fill="#FAE5BE" stroke="black" stroke-width="4" stroke-linecap="round" stroke-linejoin="round"/>
<path d="M1109.23 153.539C1109.23 153.539 1053.51 166.851 975.681 124.415L957.395 87.9482L926.136 219.13L926.942 244.396L938.046 259.375C938.046 259.375 982.704 302.608 1095.83 277.262C1095.83 277.262 1058.62 256.395 1046.14 213.126C1046.14 213.126 1073.5 192.294 1109.23 153.539Z" fill="#FFF1D8" stroke="black" stroke-width="4" stroke-linecap="round" stroke-linejoin="round"/>
<path d="M1016.3 208.692C1016.3 208.692 1018.43 231.049 967.818 238.507C917.21 245.957 938.047 259.375 938.047 259.375C938.047 259.375 921.673 254.905 926.136 219.121C928.545 199.832 942.51 98.3686 942.51 98.3686L997.581 141.602C997.581 141.602 1020.12 159.49 1016.29 208.683L1016.3 208.692Z" fill="#FAE5BE" stroke="black" stroke-width="4" stroke-linecap="round" stroke-linejoin="round"/>
<path d="M973.919 43.9076C786.753 0.203977 682.029 1.78256 555.504 1.78256C428.979 1.78256 324.256 0.203977 137.08 43.9076C137.08 43.9076 83.6385 59.3032 85.1262 102.43L94.6988 208.692C94.6988 208.692 97.4351 180.969 152.126 168.651C152.126 168.651 230.646 141.85 551.599 141.85C872.552 141.85 958.874 168.651 958.874 168.651C1013.56 180.969 1016.3 208.692 1016.3 208.692L1025.87 102.43C1027.36 59.312 973.919 43.9076 973.919 43.9076Z" fill="#FFF1D8" stroke="black" stroke-width="4" stroke-linecap="round" stroke-linejoin="round"/>
</g>
<path d="M235.681 102.456C236.019 102.244 236.588 102.065 237.389 101.919C238.918 101.64 240.791 101.599 241.757 101.95C244.544 103.623 246.816 107.421 247.666 112.08C248.913 118.923 247.097 125.874 241.636 126.869C237.414 127.639 232.296 123.909 231.035 116.992C230.066 111.678 231.6 106.885 235.681 102.456ZM196.566 76.8659C196.34 75.6283 196.737 74.5029 197.815 74.231C199.304 73.7339 202.203 73.1302 206.571 72.3339C212.395 71.2722 216.207 70.7277 217.922 70.6408C219.834 70.8186 220.735 71.6323 221.021 73.6112C220.586 77.8276 219.727 82.1963 218.399 86.8764C220.816 88.166 223.417 89.6473 226.278 91.3073L230.217 93.5227C230.846 94.085 231.184 94.7004 231.303 95.3556C231.555 96.7388 230.722 97.9438 229.193 98.2225C227.883 98.4614 226.453 98.0451 224.817 96.9141C223.354 95.9021 220.607 94.4473 216.721 92.523C215.267 96.9252 213.892 100.937 212.596 104.558L211.697 107.054C211.261 107.961 210.526 108.471 209.507 108.656C207.833 108.962 206.078 108.003 205.813 106.547C205.786 106.401 205.819 106.169 205.839 105.865C208.682 98.3513 210.644 91.3742 213.855 79.2802L214.463 76.8376C212.511 77.2688 209.671 77.7863 205.813 78.4897C204.516 78.8014 202.55 79.1598 200.002 79.6243C198.242 79.87 196.844 78.3947 196.566 76.8659ZM231.152 83.7993C230.926 82.5617 231.608 81.7606 233.196 81.3958L242.223 79.7501L240.246 68.9029C239.384 64.9982 239.178 63.4561 241.143 63.0978C242.963 62.766 245.372 62.7781 245.552 64.1746C245.903 65.6901 246.315 67.9469 246.846 70.8589L248.538 80.5546C249.261 84.9359 249.786 88.2252 250.184 90.4092L251.199 95.5647C251.405 97.1068 249.612 98.4115 247.865 98.73C245.972 99.0751 245.389 97.5266 244.738 93.9594L243.093 84.9322L234.052 86.5051C232.543 86.4793 231.404 85.1825 231.152 83.7993ZM237.051 115.745C237.648 119.021 239.198 121.748 241.415 121.118C242.468 120.7 242.433 116.795 242.22 115.63C241.921 112.751 240.947 109.469 239.139 107.391C237.617 108.948 236.361 111.96 237.051 115.745ZM268.37 61.4841C268.909 60.4453 269.733 59.8921 270.981 59.7322C272.742 59.5066 274.425 60.4101 274.568 62.1077C274.33 65.4953 273.927 68.755 273.496 71.7944L273.569 71.785C279.339 76.6412 285.041 80.387 290.584 82.8851C291.457 83.2954 292.001 84.0464 292.142 85.1474C292.358 86.8356 291.253 88.6931 289.712 88.8905C289.418 88.9281 289.042 88.9018 288.656 88.802C282.635 86.0668 278.258 83.3449 272.517 78.7089C271.447 86.0826 270.125 92.0711 268.717 96.8024C268.323 97.2258 267.764 97.5212 267.104 97.6058C265.416 97.8221 263.485 96.7266 263.297 95.2586C263.342 95.029 263.304 94.7354 263.349 94.5058C265.24 85.3856 266.114 79.9768 267.195 70.3634L268.37 61.4841ZM288.432 108.601C287.745 103.243 290.051 97.9488 295.252 93.7016C295.673 93.4983 296.251 93.3497 297.059 93.2463C298.673 93.0394 299.876 93.1092 300.74 93.4461C304.225 95.6108 307.085 100.467 307.734 105.531C308.674 112.871 304.983 118.417 299.405 119.132C293.202 119.628 289.193 114.546 288.432 108.601ZM294.66 107.132C295.073 110.361 296.285 113.414 299.432 112.936C301.082 112.426 302.361 110.174 301.937 106.871C301.441 103.577 300.432 100.946 297.975 98.6497C295.485 100.759 294.161 103.241 294.66 107.132ZM299.142 57.0945C298.926 55.4063 299.319 54.9829 300.787 54.7949C302.622 54.5598 304.724 54.6635 304.903 56.0581L306.086 64.7099C306.375 66.3887 306.723 69.1045 307.184 72.7011L316.212 71.5446C318.038 71.2361 318.482 72.3729 318.67 73.8409C318.849 75.2355 317.844 76.7072 316.596 76.867L307.925 77.9032C308.386 81.4998 308.743 84.289 309.061 86.188C309.213 87.959 306.776 89.3157 304.977 89.2478C303.407 89.225 302.958 86.2984 302.346 81.5274L301.989 78.7382L300.68 67.939L299.142 57.0945ZM351.716 63.8948L348.265 64.3455L343.406 64.8451C342.515 64.8488 341.745 64.5448 341.097 63.9329C338.856 73.1174 335.166 84.4342 331.469 92.2604C330.95 93.123 330.171 93.5625 329.213 93.6464C327.444 93.8013 325.552 92.5555 325.416 91.0074C325.471 90.7798 325.445 90.4849 325.499 90.2573C329.223 82.726 331.536 74.3524 334.911 62.8403L328.209 63.5012L325.635 63.8007C323.859 63.8819 322.605 62.2831 322.47 60.7351C322.347 59.3344 323.228 58.3659 325.199 57.9705C326.446 57.7871 328.061 57.5715 329.904 57.4101C334.18 57.0359 337.289 56.9123 339.151 56.9721C340.664 57.2854 341.552 58.099 341.816 59.4131C343.345 59.0564 345.55 58.7891 348.351 58.5439C351.816 58.2406 354.483 58.1558 356.197 58.2285C358.086 58.5832 358.833 59.4835 358.933 61.4803C356.648 71.8572 352.614 86.0269 348.619 94.6963C348.026 95.5653 347.247 96.0048 346.215 96.0952C344.372 96.2565 342.567 95.1517 342.432 93.6036C342.406 93.3087 342.387 93.0876 342.447 92.9337C344.999 87.2877 347.862 78.4202 351.038 66.3312L351.716 63.8948ZM364.582 51.3291C364.446 49.781 364.843 49.2263 366.392 49.0908C368.161 48.9359 370.257 49.1238 370.38 50.5245C370.709 54.2841 370.96 57.1591 371.221 59.2905L372.321 71.0052L381.388 70.2115C383.151 69.983 383.863 71.332 383.73 73.2008C383.571 74.7746 382.952 75.3487 381.552 75.4713L372.773 76.1655L374.295 91.8546C374.356 93.4091 372.376 94.5481 370.386 94.7223C368.543 94.8836 368.243 92.31 367.817 87.4446L367.495 83.7587L365.975 65.5438C365.62 61.4893 365.127 56.7041 364.582 51.3291ZM401.699 58.2822C399.708 58.4675 396.901 58.6244 393.28 58.8266C392.102 58.9666 390.255 59.0697 387.669 59.2142C385.892 59.2394 384.689 57.602 384.602 56.0504C384.532 54.7943 385.065 53.7269 386.169 53.5911C387.708 53.2828 390.586 53.0479 394.945 52.8044C400.634 52.4866 404.411 52.4238 406.122 52.5505C407.998 52.9646 408.791 53.8838 408.828 55.8828C407.955 60.1561 406.044 65.7474 403.243 72.6485L409.373 78.9022L415.105 84.6595C415.434 85.234 415.615 85.8169 415.648 86.4079C415.73 87.8856 414.688 89.1297 413.136 89.2164C411.733 89.2948 410.357 88.5564 409.006 86.9272C407.343 85.019 404.202 81.8593 400.757 78.5683C398.833 82.6039 396.913 86.7134 394.85 90.905C394.304 91.7508 393.512 92.1656 392.478 92.2234C390.779 92.3183 389.157 91.149 389.074 89.6713C389.066 89.5235 389.128 89.2977 389.185 88.998C392.742 82.3513 396.913 72.1127 401.699 58.2822ZM428.607 87.5369L428.479 85.2464L428.008 75.4895L427.194 59.6002C426.98 55.7581 426.671 51.5508 426.345 47.048C426.25 45.3486 426.742 44.8764 428.294 44.7898C430.067 44.6907 432.235 45.0143 432.243 46.4961C432.631 52.1072 433.002 57.4228 433.283 62.447L434.913 91.6315C434.938 93.4088 432.48 94.5097 430.616 94.3173C429.052 94.1824 428.838 91.6744 428.607 87.5369ZM472.988 75.3054C471.143 75.5649 470.004 74.1818 469.973 72.6281C469.937 70.8524 471.027 69.8681 473.171 69.7506L493.29 69.12L493.196 64.4589C488.802 63.1419 486.44 59.7851 486.277 55.4215C486.151 49.2068 488.656 45.0111 494.513 41.8575C494.882 41.776 495.472 41.69 496.212 41.675C497.914 41.6405 499.324 41.8339 500.367 42.1828C503.141 43.9028 505.656 47.4785 505.78 53.6192C505.887 58.8721 503.158 62.9984 499.044 64.4882L499.086 66.5598C499.164 66.7803 499.179 67.5201 499.206 68.8518L520.879 68.1897C523.025 68.1461 523.192 69.1049 523.367 70.4336C523.695 71.9813 522.692 73.63 520.696 73.7446C515.369 73.8527 507.454 74.0875 496.879 74.5242C491.48 74.7079 483.566 75.0166 472.988 75.3054ZM482.44 92.4331C482.409 90.9534 483.491 89.5251 485.487 89.4106C488.223 89.281 498.129 88.7098 503.974 88.5911C504.166 87.1069 504.134 85.5532 504.026 83.8531C503.21 83.7956 502.027 83.8197 500.399 83.8527C498.253 83.8963 495 84.0364 490.565 84.3484L486.129 84.5866C484.349 84.4007 483.289 83.2379 483.259 81.7582C483.223 79.9826 485.127 78.9817 488.97 78.6817C493.111 78.5236 500.951 78.2163 506.87 78.0962C509.015 78.0526 509.921 78.9224 509.993 82.4736C510.022 83.8794 509.917 86.0279 509.754 88.9178C510.655 89.5657 511.116 90.3705 511.135 91.3323C511.161 92.59 510.223 93.7933 508.529 94.1978L493.146 94.8062C492.978 97.4742 492.872 99.5487 492.827 100.956L512.575 100.259C514.136 100.597 515.048 101.763 515.073 103.021C515.099 104.278 514.088 105.557 512.394 105.962C509.879 106.013 507.881 106.053 506.477 106.156L499.006 106.382C494.493 106.473 490.939 106.397 488.493 106.225C487.217 105.363 486.613 104.783 486.363 103.382C486.339 102.198 486.45 100.419 486.698 98.0458C486.895 96.7835 486.948 95.7462 487.008 95.0789L485.307 95.1134C483.529 95.0755 482.47 93.9128 482.44 92.4331ZM492.326 54.4105C492.38 57.074 493.536 59.345 496.126 59.2924C496.495 59.2849 496.717 59.2804 496.938 59.2019C497.676 59.1129 498.333 58.6554 498.905 57.6816C499.405 56.7833 499.673 55.3716 499.635 53.522C499.586 51.0805 498.935 48.2071 497.055 46.7649C494.488 47.9273 492.254 50.8593 492.326 54.4105ZM532.667 73.8198C530.891 73.5942 529.858 72.4821 529.86 71.2241C529.863 69.8181 530.976 68.6363 532.974 68.5664C535.416 68.5714 539.264 68.5053 544.592 68.4422L550.512 68.3803C551.045 61.1294 551.352 55.654 551.582 52.0285L547.734 51.9466C543.96 51.9389 539.372 52.0035 534.043 52.2146C532.268 51.989 531.234 50.7288 531.237 49.3228C531.241 47.5468 533.389 46.5892 537.607 46.3759C538.791 46.3043 541.529 46.2359 545.895 46.2448C549.595 46.2524 552.555 46.3324 554.775 46.559C556.254 46.932 557.14 47.7478 557.508 49.0066C557.573 53.0767 557.19 59.44 556.661 64.9889L556.358 68.3183L556.95 68.3195C558.652 68.397 559.39 69.5085 559.387 70.6925C559.384 72.2465 558.494 73.5767 556.792 73.5732C554.646 73.5688 551.241 73.6358 546.505 73.7001L540.955 73.7628C540.951 75.8348 540.948 77.3888 541.02 78.4249C541.017 79.5349 541.015 80.5709 541.087 81.6071C541.085 82.6431 541.083 83.6051 541.007 84.4929C542.265 84.5695 544.115 84.6473 546.631 84.6524C548.555 84.6563 551.441 84.5882 555.289 84.5221C557.731 84.4531 559.581 84.3829 560.691 84.3852C562.541 84.463 563.501 85.3529 563.498 86.9069C563.494 88.8309 561.198 89.8622 556.536 89.9267C551.43 90.1382 547.951 90.2051 546.249 90.2016C542.771 90.1945 539.812 90.0405 537.223 89.6652C535.966 88.8486 535.376 88.1814 535.156 86.7749L535.183 73.825L532.667 73.8198ZM571.526 69.2373C571.613 63.0955 571.774 56.8058 571.786 50.8858C571.792 47.9998 571.796 45.9278 571.725 44.6697C571.728 42.9677 572.173 42.5246 573.727 42.5277C575.503 42.5314 577.574 42.9796 577.571 44.3856L577.53 64.7356L587.52 64.756C589.296 64.6856 589.885 66.0928 589.585 67.9422C589.286 69.4956 588.619 69.9383 587.213 69.9354L577.519 69.8416L577.427 78.7954L577.485 86.5655C577.408 88.1194 575.26 89.077 573.41 89.0732C571.338 89.069 571.343 86.775 571.354 81.225L571.526 69.2373ZM595.525 89.238C593.526 89.2642 592.596 87.9096 592.633 86.356C592.67 84.8025 593.887 83.4252 595.96 83.4007L616.458 83.6687C616.529 80.7095 616.582 78.4902 616.543 77.0088L616.573 72.6423C611.49 71.6325 608.547 67.7871 608.579 63.3466C608.74 56.6145 611.482 50.3142 617.723 46.2442C618.096 46.1051 618.69 46.0453 619.504 46.0647C621.057 46.1019 622.899 46.442 623.775 46.9811C626.45 49.6358 629.049 55.4716 628.913 61.168C628.781 66.7164 626.316 70.7286 622.428 72.3382L622.425 72.4861L622.465 77.0024L622.454 83.664L643.691 83.9497C645.91 84.0027 645.954 85.2621 646.07 86.5973C646.255 88.1561 645.255 89.7607 643.255 89.7869C638.003 89.6613 630.085 89.5461 619.427 89.5133C614.173 89.4617 606.18 89.4187 595.525 89.238ZM614.697 61.3462C614.619 64.6013 615.662 67.439 619.516 67.2351C621.224 66.9798 622.741 65.4617 622.842 61.2449C622.927 57.6939 621.949 55.2278 620.252 51.9303L618.962 53.2318C616.235 55.8314 614.782 57.7952 614.697 61.3462ZM665.545 46.318C666.254 45.4642 667.237 45.0687 668.42 45.1276C670.193 45.2159 671.687 46.4758 671.524 48.2459C670.195 52.6252 668.895 56.4132 667.624 59.6099C672.78 64.6827 677.914 68.7172 683.032 71.5654C683.967 72.1306 684.441 73.0433 684.382 74.2258C684.293 75.9996 683.03 77.5667 681.478 77.4893L680.672 77.301C674.685 74.0391 670.475 70.7916 665.319 65.7188C662.863 71.8943 660.61 76.9684 658.412 80.934C658.024 81.2851 657.425 81.4035 656.76 81.3703C655.06 81.2857 653.43 79.7967 653.504 78.3186C653.522 77.949 653.607 77.731 653.692 77.5129C657.356 69.3972 658.649 65.757 662.524 54.9103L665.545 46.318ZM664.997 103.415C665.045 102.455 665.411 101.065 666.087 99.3947C666.353 98.5189 666.933 97.2882 667.749 95.7729C670.25 90.1924 671.938 86.0533 672.82 83.2077C673.534 82.28 674.443 81.8808 675.699 81.9433C677.547 82.0354 678.53 83.1217 678.368 84.8918L677.053 88.9754C678.428 91.1185 681.533 94.2368 684.308 96.5237C686.569 91.3018 688.19 87.0111 689.173 83.6518C689.886 82.7242 690.795 82.3249 692.051 82.3875C693.899 82.4795 694.882 83.5658 694.72 85.3359C694.454 86.2118 693.844 88.0337 692.895 90.7278C695.028 94.02 700.628 100.597 702.686 102.403C703.178 102.947 703.44 103.626 703.404 104.366C703.326 105.918 701.848 107.326 700.296 107.249C699.779 107.223 699.343 107.053 698.844 106.658C695.237 103.218 692.431 100.04 690.284 97.0437L685.785 107.044C685.537 107.551 685.001 107.894 684.259 107.931C682.4 108.061 680.67 107.086 680.755 105.386C680.773 105.016 680.866 104.651 681.035 104.214L681.963 101.964C679.379 100.279 677.335 98.1769 674.541 94.7776L672.21 99.922L669.455 106.157C668.993 106.504 668.39 106.696 667.651 106.66C666.099 106.582 664.883 105.707 664.997 103.415ZM683.822 64.6401C683.885 63.3836 684.731 62.7589 686.434 62.7697L698.555 63.3735L698.846 57.5348L686.655 56.8534C685.191 56.4841 684.304 54.9581 684.374 53.5538C684.437 52.2974 685.283 51.6727 686.986 51.6835L699.107 52.2873L699.266 47.6274C699.394 45.0406 699.86 44.6192 701.412 44.6965C703.26 44.7886 705.603 45.3499 705.459 46.7504C705.455 48.3062 705.341 50.5974 705.198 53.4798L704.649 63.0103C704.369 67.1455 704.133 70.3937 704.019 72.6849L703.835 77.8622C703.684 79.4106 701.64 80.272 699.793 80.1799C697.945 80.0879 697.704 78.9645 697.885 75.343L698.22 68.6174L686.103 67.9396C684.639 67.5704 683.752 66.0443 683.822 64.6401ZM749.798 92.5666C749.987 90.2062 750.471 89.7254 752.02 89.8497C753.791 89.9918 755.894 90.6061 755.708 92.0017L755.145 100.865C755.026 102.34 754.817 104.031 754.515 105.937C754.081 108.575 753.643 110.321 753.277 111.183C752.837 112.038 752.421 112.599 751.881 112.852C751.483 113.192 751.022 113.377 750.421 113.477C746.151 113.951 737.338 113.689 730.029 113.177C728.02 113.238 726.46 111.406 726.847 109.358C726.785 109.204 726.82 108.762 726.885 107.951C727.164 104.484 728.482 95.4582 729.454 89.8199C729.874 88.2946 730.812 87.7018 732.804 87.8617C734.574 88.0038 735.996 88.7861 735.895 90.04C735.73 92.1054 735.502 94.0173 735.218 95.702L739.656 95.9098C742.839 96.0169 746.165 96.2096 749.558 96.4819L749.798 92.5666ZM715.185 81.6961C715.309 80.1471 716.602 78.8403 718.673 78.9323C725.834 79.4329 731.224 79.7914 734.765 80.0757C748.945 80.9913 759.499 81.7642 766.433 82.3208C768.646 82.4985 768.448 84.0416 768.518 85.0123C768.603 86.7266 767.526 88.1249 765.529 88.0388L746.554 86.7383C740.13 86.2969 730.603 85.6806 717.91 84.7359C715.913 84.6498 715.06 83.2451 715.185 81.6961ZM726.659 71.9269C726.807 70.0828 727.87 67.941 729.921 65.5073L733.569 60.752C736.14 57.395 739.384 53.0526 741.607 50.3357C742.159 49.9346 742.766 49.7607 743.357 49.8081C744.02 49.8614 744.74 50.1419 745.436 50.7174C746.428 51.3166 746.879 52.1695 746.79 53.2759C746.772 53.4972 746.675 53.7863 746.572 54.1492C745.831 55.0549 744.907 56.3912 743.652 58.1465C746.245 60.0621 751.128 63.0524 758.152 67.1054C759.715 67.9733 760.707 68.5726 761.132 68.8294C761.901 69.4108 762.279 70.2578 762.19 71.3642C762.054 73.0607 760.59 74.6507 759.041 74.5264C758.746 74.5027 758.383 74.3993 758.026 74.2222C756.825 73.4576 755.052 72.4245 752.707 71.1226C746.668 67.7426 742.352 65.0947 739.833 63.185C736.681 67.312 733.484 71.0643 730.243 74.4418C729.771 74.7751 729.237 74.9549 728.573 74.9016C727.319 74.8009 726.517 73.6972 726.659 71.9269ZM733.448 107.586C741.432 108.005 743.571 108.176 748.265 107.959C748.623 106.281 748.954 104.006 749.191 101.055C745.287 100.668 741.071 100.478 737.439 100.409L734.403 100.314C733.974 102.877 733.705 105.306 733.448 107.586ZM782.954 62.7459C783.494 61.319 785.059 60.6828 786.749 60.8809C788.219 61.0531 789.447 62.0166 789.374 63.2747L788.504 69.4312L785.625 90.1792L787.986 90.3813C796.317 91.1341 800.671 91.4953 805.746 91.4195C805.901 91.3633 806.122 91.3891 806.416 91.4235C807.812 91.5872 808.427 92.7023 808.28 93.9517C808.099 95.4952 806.669 96.8922 804.257 97.131C801.477 97.3268 789.363 96.4288 782.005 95.641C779.995 95.6289 778.503 93.7404 778.964 91.7083C778.951 91.1852 779.084 89.4127 779.437 86.3993C780.333 78.7556 782.07 67.1126 782.954 62.7459ZM819.108 99.4675L819.375 97.1891L820.585 87.4961L822.511 71.7028C822.959 67.881 823.376 63.683 823.828 59.1911C824.026 57.5007 824.592 57.12 826.136 57.3009C827.9 57.5076 829.979 58.1983 829.734 59.6597C829.152 65.254 828.606 70.5544 828.02 75.5522L824.618 104.584C824.338 106.339 821.727 107.002 819.924 106.492C818.406 106.091 818.626 103.583 819.108 99.4675ZM840.403 73.1196C839.272 72.7052 838.762 71.7195 838.921 70.7707C839.214 69.019 840.967 67.5117 842.95 67.7686L865.818 71.8965C866.463 72.0794 867.339 72.226 868.579 72.4337C869.966 72.6658 870.416 73.5664 870.22 74.7341C869.976 76.1938 868.697 77.5555 867.116 77.5909L851.716 75.0132C851.338 76.8256 850.63 80.1585 849.495 85.1455C848.58 88.8189 847.714 92.6504 846.908 96.5672C851.664 97.2882 855.204 97.2055 862.187 97.1739C864.45 97.1025 866.628 97.0919 868.72 97.142C868.878 97.0934 869.097 97.1301 869.389 97.179C870.849 97.4233 871.517 98.8106 871.273 100.27C871.041 101.657 870.042 102.69 868.607 102.75C861.928 103.208 849.093 102.785 843.169 101.869C841.162 101.758 839.764 99.7982 840.325 97.7913C840.265 97.7061 840.338 97.2682 840.448 96.6113C841.083 92.8161 843.841 80.8228 845.585 73.987L840.403 73.1196ZM878.662 93.329C879.761 87.2105 880.97 80.8852 881.984 74.8275C882.461 71.9811 882.803 69.9375 882.937 68.6846C883.218 67.0059 883.729 66.6413 885.262 66.8979C887.014 67.1911 888.984 67.971 888.752 69.3577L885.356 89.6475L895.209 91.2967C896.973 91.5169 897.324 93.0013 896.727 94.7771C896.178 96.2609 895.448 96.5889 894.062 96.3568L884.44 94.6712C882.998 103.283 882.045 108.976 881.666 111.689C881.337 113.209 879.061 113.804 877.237 113.498C875.266 113.169 875.584 110.821 876.5 105.347L878.662 93.329ZM909.126 121.892C908.585 124.425 906.891 126.333 904.358 125.793C902.115 125.314 900.15 123.532 900.752 120.71C901.246 118.394 902.872 116.093 905.984 116.757C908.3 117.251 909.743 118.997 909.126 121.892ZM909.515 80.3583C910.01 78.0424 911.823 76.9917 914.066 77.4706C915.441 77.764 916.316 78.6316 916.746 80.1611C917.176 81.6906 916.982 84.3731 916.163 88.2087C915.19 92.7681 913.49 99.6693 912.042 105.035C910.445 110.748 909.428 113.028 907.04 112.518C904.797 112.039 904.325 110.35 904.747 108.018L909.423 80.7925L909.515 80.3583Z" fill="black"/>
<defs>
<clipPath id="clip0_2126_91">
<rect width="1111" height="287" fill="white"/>
</clipPath>
</defs>
</svg>
