<svg width="150" height="102" viewBox="0 0 150 102" fill="none" xmlns="http://www.w3.org/2000/svg">
<g clip-path="url(#clip0_2118_1711)">
<path d="M82.16 22.33C82.16 22.33 81.95 1.38 107.97 2.02C107.97 2.02 129.13 3.71 126.17 25.08C123.21 46.45 100.15 39.04 100.15 39.04C100.15 39.04 141.2 64.64 134.64 73.31C134.64 73.31 133.58 77.33 122.16 67.39C122.16 67.39 137.82 81.78 132.53 85.59C127.24 89.4 115.39 75.43 115.39 75.43C115.39 75.43 133.8 92.99 129.78 98.07C125.76 103.15 108.77 88.76 108.77 88.76C108.77 88.76 115.4 97.07 109.9 99.15C104.4 101.24 76.47 73.73 76.47 73.73C76.47 73.73 57.85 76.69 40.71 67.38C40.71 67.38 7.27999 76.05 2.62999 67.17C-2.02001 58.28 22.31 51.51 22.31 51.51C22.31 51.51 1.44999 52.36 2.03999 43.89C2.62999 35.43 22.73 39.24 22.73 39.24C22.73 39.24 5.79998 32.47 10.46 25.7C15.12 18.93 35.64 23.37 54.04 39.88C54.04 39.88 64.2 27.4 82.18 22.32L82.16 22.33Z" fill="#ACE59A" stroke="black" stroke-width="4" stroke-linecap="round" stroke-linejoin="round"/>
<path d="M108.87 19.68C107.031 19.68 105.54 18.1891 105.54 16.35C105.54 14.5109 107.031 13.02 108.87 13.02C110.709 13.02 112.2 14.5109 112.2 16.35C112.2 18.1891 110.709 19.68 108.87 19.68Z" fill="black"/>
<path d="M115.38 75.43C115.38 75.43 117.5 77.46 120.14 80.32C117.41 77.8 115.38 75.43 115.38 75.43Z" stroke="black" stroke-width="4" stroke-linecap="round" stroke-linejoin="round"/>
<path d="M128.5 25.57C128.82 25.57 129.13 25.49 129.42 25.34L146.1 16.65C146.88 16.25 147.3 15.38 147.14 14.52C146.98 13.66 146.28 13 145.41 12.89C143.82 12.7 129.76 11.02 127.38 11.02C127.18 11.02 127.03 11.03 126.93 11.04C126.31 11.11 125.77 11.47 125.45 12C125.13 12.53 125.08 13.18 125.31 13.76C126.39 16.48 126.79 19.72 126.5 23.4C126.44 24.12 126.78 24.82 127.39 25.23C127.72 25.45 128.11 25.56 128.49 25.56L128.5 25.57Z" fill="#FFF985"/>
<path d="M127.39 13.02C127.3 13.02 127.23 13.02 127.18 13.02C128.28 15.79 128.85 19.24 128.51 23.56L145.18 14.88C145.18 14.88 129.72 13.02 127.39 13.02ZM127.39 9.02C129.84 9.02 143.04 10.59 145.66 10.91C147.4 11.12 148.8 12.44 149.12 14.16C149.43 15.89 148.59 17.61 147.03 18.42L130.35 27.11C129.77 27.41 129.14 27.56 128.5 27.56C127.73 27.56 126.96 27.34 126.29 26.9C125.08 26.1 124.4 24.7 124.51 23.25C124.78 19.88 124.42 16.94 123.45 14.51C122.99 13.36 123.09 12.06 123.73 10.99C124.36 9.92 125.46 9.21 126.69 9.06C126.9 9.03 127.12 9.02 127.38 9.02H127.39Z" fill="black"/>
<path d="M115.38 75.43C115.38 75.43 117.5 77.46 120.14 80.32C117.41 77.8 115.38 75.43 115.38 75.43Z" stroke="black" stroke-width="4" stroke-linecap="round" stroke-linejoin="round"/>
<path d="M70.9004 83.48L70.8704 83.38C70.8704 83.38 70.8804 83.42 70.9004 83.48Z" stroke="black" stroke-width="4" stroke-linecap="round" stroke-linejoin="round"/>
<path d="M76.45 73.74C76.45 73.74 81.27 78.49 87.3 83.88C87.46 84.43 87.56 84.94 87.52 85.39C87.1 91.31 79.06 84.62 79.06 84.62C79.06 84.62 86.25 91.88 80.33 94.28C74.66 96.58 71.19 84.51 70.91 83.49C70.89 83.43 70.88 83.39 70.88 83.39C70.88 83.39 70.9 83.45 70.91 83.49C71.14 84.35 72.73 90.71 69.05 92.03C65.1 93.44 59.6 74.68 59.6 74.68C59.45 74.24 59.33 73.85 59.19 73.44C69 74.92 76.45 73.75 76.45 73.75V73.74Z" fill="#FFF985"/>
<path d="M70.91 83.49C71.19 84.51 74.66 96.58 80.33 94.28C86.25 91.88 79.06 84.62 79.06 84.62C79.06 84.62 87.1 91.31 87.52 85.39C87.56 84.94 87.46 84.43 87.3 83.88C81.27 78.49 76.45 73.74 76.45 73.74V73.75C76.45 73.75 69 74.92 59.19 73.44C59.33 73.85 59.45 74.24 59.6 74.68C59.6 74.68 65.1 93.44 69.05 92.03C72.73 90.71 71.14 84.35 70.91 83.49ZM70.91 83.49C70.89 83.43 70.88 83.39 70.88 83.39C70.88 83.39 70.9 83.45 70.91 83.49Z" stroke="black" stroke-width="4" stroke-linecap="round" stroke-linejoin="round"/>
<path d="M92.88 47.8L105.54 57.75" stroke="black" stroke-width="3" stroke-linecap="round" stroke-linejoin="round"/>
<path d="M91.36 57.75L105.54 70.5" stroke="black" stroke-width="3" stroke-linecap="round" stroke-linejoin="round"/>
<path d="M76.33 55.79L88.54 67.74" stroke="black" stroke-width="3" stroke-linecap="round" stroke-linejoin="round"/>
<path d="M70.2202 65.79C70.2202 65.79 73.1402 70.16 76.4502 73.74" stroke="black" stroke-width="4" stroke-linecap="round" stroke-linejoin="round"/>
<path d="M96.2999 36.71L101.44 39.86" stroke="black" stroke-width="4" stroke-linecap="round" stroke-linejoin="round"/>
</g>
<defs>
<clipPath id="clip0_2118_1711">
<rect width="149.18" height="101.27" fill="white" transform="matrix(-1 0 0 1 149.18 0)"/>
</clipPath>
</defs>
</svg>
