<svg width="1630" height="4030" viewBox="0 0 1630 4030" fill="none" xmlns="http://www.w3.org/2000/svg">
<g clip-path="url(#clip0_2118_112)">
<path d="M590.177 2755.78C590.177 2755.78 532.005 2694.64 445.482 2731.92C445.482 2731.92 354.486 2684.21 264.99 2755.78C264.99 2755.78 203.835 2764.72 218.751 2816.91C218.751 2816.91 178.478 2828.84 181.461 2861.64C181.461 2861.64 90.9582 2925.75 99.1426 2966.82C99.1426 2966.82 97.9222 2997.33 130.737 3013.73C130.737 3013.73 69.7757 3015.22 98.7649 3079.34C127.754 3143.45 157.586 3180.73 269.465 3198.63C381.344 3216.52 527.53 3171.79 527.53 3171.79L670.732 3152.4L743.83 2940.67L669.241 2781.12L590.177 2755.78Z" fill="#48A078" stroke="black" stroke-width="4" stroke-miterlimit="10"/>
<path d="M697.58 2242.83L554.378 2207.05L429.075 2224.94L379.852 2207.05L361.953 2217.48C361.953 2217.48 347.037 2199.59 314.222 2215.99C281.407 2232.39 215.767 2281.6 206.818 2326.34C201.704 2351.92 251.565 2336.77 251.565 2336.77C251.565 2336.77 88.9723 2447.08 199.36 2535.81C309.747 2624.55 484.273 2628.26 484.273 2628.26L621.509 2651.4L711.015 2439.66L769.187 2308.44L697.59 2242.84L697.58 2242.83Z" fill="#5FAF87" stroke="black" stroke-width="4" stroke-linecap="round" stroke-linejoin="round"/>
<path d="M424.6 1395.89C424.6 1395.89 324.557 1364.58 308.198 1518.16C308.198 1518.16 215.767 1570.34 267.973 1627.01C267.973 1627.01 397.751 1776.12 414.159 1785.07C430.566 1794.02 705.038 1858.14 705.038 1858.14L815.426 1874.54C815.426 1874.54 943.713 1659.82 940.729 1655.34C937.746 1650.86 841.151 1398.87 841.151 1398.87L554.378 1354.14L424.6 1395.89Z" fill="#68BC8C" stroke="black" stroke-width="4" stroke-linecap="round" stroke-linejoin="round"/>
<path d="M1370.34 3754.82C1370.34 3754.82 1304.34 3853.52 1188.91 3826.53C1073.49 3799.55 1100.34 3766.75 1113.76 3754.82C1113.76 3754.82 992.935 3775.7 998.902 3638.51C998.902 3638.51 847.796 3562.15 963.103 3473C963.103 3473 997.41 3438.71 1033.21 3446.16C1033.21 3446.16 1082.43 3329.85 1240.55 3355.2C1240.55 3355.2 1316.63 3301.52 1425.52 3335.82C1534.4 3370.11 1573.19 3440.2 1559.77 3468.53C1559.77 3468.53 1616.56 3465.02 1610.48 3523.7C1606.01 3566.93 1568.72 3590.79 1568.72 3590.79C1568.72 3590.79 1637.33 3592.28 1597.06 3656.4C1556.79 3720.51 1485.18 3754.81 1370.32 3754.81L1370.34 3754.82Z" fill="#68BC8C" stroke="black" stroke-width="4" stroke-linecap="round" stroke-linejoin="round"/>
<path d="M769.187 2272.62L465.067 2323.35L372.394 2256.26C372.394 2256.26 350.02 2217.49 358.97 2180.21C358.97 2180.21 311.239 2122.06 308.256 2056.44C305.273 1990.83 432.068 1834.26 432.068 1834.26L728.914 1899.87L880.698 2057.92L796.045 2235.36L769.197 2272.6L769.187 2272.62Z" fill="#48A078" stroke="black" stroke-width="4" stroke-miterlimit="10"/>
<path d="M757.254 1354.13L569.304 1479.38L520.081 1467.46C520.081 1467.46 390.303 1498.77 376.879 1383.95C376.879 1383.95 303.781 1375 315.724 1281.06C315.724 1281.06 327.656 1136.42 333.623 1137.91C339.589 1139.4 633.607 1117.54 633.607 1117.54L693.116 1134.93L694.607 1190.1L784.112 1212.46L757.264 1354.12L757.254 1354.13Z" fill="#48A078" stroke="black" stroke-width="4" stroke-miterlimit="10"/>
<path d="M712.497 3528.17C712.497 3528.17 688.631 3595.26 593.16 3592.28C593.16 3592.28 496.196 3680.26 361.943 3584.83C361.943 3584.83 211.235 3606.84 114.223 3480.27C86.522 3444.14 70.3275 3400.34 69.6011 3354.81C69.0394 3319.95 77.4078 3285.65 114.33 3292.56C114.33 3292.56 70.6665 3250.39 114.145 3204.88C179.969 3135.99 259.024 3146.43 259.024 3146.43C259.024 3146.43 232.175 3062.92 363.445 3042.05C494.715 3021.18 561.836 3052.49 561.836 3052.49C561.836 3052.49 693.106 3003.28 734.87 3134.5C734.87 3134.5 815.988 3121.08 833.606 3240.37C851.224 3359.66 770.669 3355.19 770.669 3355.19C770.669 3355.19 796.026 3535.61 712.497 3528.16V3528.17Z" fill="#5FAF87" stroke="black" stroke-width="4" stroke-linecap="round" stroke-linejoin="round"/>
<path d="M1214.82 803.907C1214.82 803.907 1264.42 811.362 1245.03 868.02C1225.64 924.679 1191.34 926.17 1191.34 926.17C1191.34 926.17 1230.12 984.319 1155.54 1033.53C1080.96 1082.75 919.847 1218.43 919.847 1218.43C919.847 1218.43 724.439 1237.81 727.422 1218.43C730.406 1199.04 706.54 857.573 706.54 857.573L1009.35 724.864L1214.83 735.301V803.887L1214.82 803.907Z" fill="#5FAF87" stroke="black" stroke-width="4" stroke-linecap="round" stroke-linejoin="round"/>
<path d="M1319.62 2716.34C1319.62 2716.34 1453.88 2722.97 1458.35 2818.41C1458.35 2818.41 1455.37 2861.65 1434.49 2884.01C1434.49 2884.01 1521.01 2951.67 1449.4 3034.9C1377.8 3118.12 1152.56 3098.74 1152.56 3098.74L861.675 3094.26L836.134 2797.53L904.932 2640.97C904.932 2640.97 1194.32 2624.57 1204.76 2629.04C1215.2 2633.51 1319.62 2716.34 1319.62 2716.34Z" fill="#5FAF87" stroke="black" stroke-width="4" stroke-linecap="round" stroke-linejoin="round"/>
<path d="M1145.02 2230.9C1145.02 2230.9 1341.99 2225.64 1364.37 2078.41C1364.37 2078.41 1438.96 2051.97 1443.43 1981.88C1447.91 1911.8 1347.96 1910.31 1347.96 1910.31C1347.96 1910.31 1401.66 1892.42 1404.64 1831.28C1407.63 1770.14 1271.88 1747.77 1271.88 1747.77L1064.54 1725.41L841.151 1785.05L851.234 1949.17L784.112 2207.04L793.062 2272.6H1094.38L1145.03 2230.89L1145.02 2230.9Z" fill="#5FAF87" stroke="black" stroke-width="4" stroke-linecap="round" stroke-linejoin="round"/>
<path d="M1343.11 2401.64L1516.96 2524.19C1516.96 2524.19 1542.99 2579.08 1462.45 2644.7C1462.45 2644.7 1456.48 2695.54 1404.28 2716.34C1404.28 2716.34 1420.7 2816.17 1248.4 2832.57C1248.4 2832.57 1228.87 2902.65 1145.03 2913.1L970.193 2931.77C970.193 2931.77 755.394 2786.35 758.377 2777.41C761.361 2768.46 919.741 2582.75 919.741 2582.75L1231.24 2343.49L1343.12 2401.64H1343.11Z" fill="#68BC8C" stroke="black" stroke-width="4" stroke-linecap="round" stroke-linejoin="round"/>
<path d="M621.132 2790.81L401.849 2864.47L324.276 2939.93C324.276 2939.93 307.869 2948.87 324.276 2993.6C340.684 3038.33 391.398 3065.17 391.398 3065.17C391.398 3065.17 378.419 3108.45 495.819 3160.6C509.243 3166.57 639.021 3193.41 639.021 3193.41L737.476 3109.9L743.82 2959.59L621.132 2790.8V2790.81Z" fill="#68BC8C" stroke="black" stroke-width="4" stroke-linecap="round" stroke-linejoin="round"/>
<path d="M852.716 1172.22C852.716 1172.22 851.225 1106.61 918.346 1108.1C918.346 1108.1 943.703 1009.69 1036.19 1003.72C1128.68 997.758 1107.79 1032.05 1107.79 1032.05C1107.79 1032.05 1242.04 984.338 1277.84 1033.54C1277.84 1033.54 1292.76 1054.42 1262.92 1075.29C1262.92 1075.29 1409.11 1081.25 1429.99 1163.27C1429.99 1163.27 1441.92 1215.45 1401.65 1251.25C1401.65 1251.25 1407.62 1288.52 1392.7 1306.42C1377.79 1324.31 1294.25 1440.62 1294.25 1440.62L1070.49 1473.42L833.597 1485.35L872.097 1269.13L852.706 1172.21L852.716 1172.22Z" fill="#48A078" stroke="black" stroke-width="4" stroke-miterlimit="10"/>
<path d="M630.459 953.018H452.95L353.004 885.922C353.004 885.922 305.273 879.958 293.34 788.997C293.34 788.997 232.185 768.122 245.609 735.32C259.033 702.518 291.848 689.099 291.848 689.099C291.848 689.099 232.185 635.422 299.306 572.79C366.428 510.158 409.694 541.479 409.694 541.479C409.694 541.479 426.101 481.839 488.758 468.41L652.843 435.608L706.54 550.425C706.54 550.425 721.456 686.117 721.456 694.317C721.456 702.518 630.459 953.027 630.459 953.027V953.018Z" fill="#5FAF87" stroke="black" stroke-width="4" stroke-linecap="round" stroke-linejoin="round"/>
<path d="M686.771 3397.7C686.771 3397.7 588.694 3364.9 504.971 3420.07C504.971 3420.07 486.888 3401.44 385.45 3404.05C284.012 3406.65 203.466 3445.42 198.992 3485.67C194.517 3525.93 236.281 3533.39 236.281 3533.39C236.281 3533.39 91.5874 3546.22 113.961 3629.27C113.961 3629.27 119.928 3681.01 179.591 3686.97C179.591 3686.97 130.369 3767.49 222.847 3800.3C315.326 3833.1 333.235 3789.86 333.235 3789.86C333.235 3789.86 372.588 3850.99 452.853 3849.5C533.118 3848.01 546.542 3812.23 546.542 3812.23C546.542 3812.23 582.341 3825.64 639.031 3789.86L712.128 3683.99V3446.9L686.771 3397.69V3397.7Z" fill="#48C19B" stroke="black" stroke-width="4" stroke-linecap="round" stroke-linejoin="round"/>
<path d="M743.83 557.88L666.994 584.273C666.994 584.273 542.455 602.611 520.082 483.32C520.082 483.32 426.102 472.883 430.576 401.305C430.576 401.305 312.731 302.888 372.404 225.356C432.078 147.823 490.25 128.759 490.25 128.759L655.826 50.888C655.826 50.888 734.871 -11.7248 855.699 4.67635C976.528 21.0775 978.029 62.8258 978.029 62.8258C978.029 62.8258 1024.26 12.1314 1092.88 64.3168C1092.88 64.3168 1128.68 91.155 1122.71 120.975C1122.71 120.975 1186.11 129.921 1214.82 202.991C1243.54 276.06 1203.26 302.898 1203.26 302.898C1203.26 302.898 1312.16 335.7 1297.24 389.386C1282.32 443.072 1170.44 446.045 1170.44 446.045L1109.29 529.551L794.544 553.407L743.83 557.88Z" fill="#48C19B" stroke="black" stroke-width="4" stroke-linecap="round" stroke-linejoin="round"/>
<path d="M685.648 3495L574.892 3528.55H311.985V3554.27L489.862 3571.04L417.384 3635.91L452.853 3648.2L555.87 3602.35L678.936 3629.28L697.958 3525.19L685.648 3495Z" fill="#C19181" stroke="black" stroke-width="4" stroke-linecap="round" stroke-linejoin="round"/>
<path d="M616.657 2602.94C616.657 2602.94 594.283 2535.84 488.37 2503.03C382.458 2470.22 348.151 2528.38 348.151 2528.38C348.151 2528.38 313.844 2470.23 191.524 2513.47C191.524 2513.47 70.6954 2553.72 99.0357 2592.5C99.0357 2592.5 -2.40225 2601.45 2.07252 2651.4C6.5473 2701.34 37.8707 2716.33 37.8707 2716.33C37.8707 2716.33 -50.1429 2740.11 61.7362 2845.98C173.615 2951.85 289.591 2911.59 289.591 2911.59C289.591 2911.59 365.188 3016.96 518.192 2901.15L661.869 2846.86L734.493 2731.88L652.445 2620.83L616.647 2602.94H616.657Z" fill="#48C19B" stroke="black" stroke-width="4" stroke-linecap="round" stroke-linejoin="round"/>
<path d="M833.616 1725.42C833.616 1725.42 746.435 1681.43 694.23 1733.62C694.23 1733.62 664.398 1682.93 576.384 1697.84C576.384 1697.84 567.435 1611.35 439.148 1590.47C310.861 1569.6 239.265 1617.31 240.757 1669.51C240.757 1669.51 196.009 1657.58 170.652 1682.93C145.295 1708.27 154.235 1738.09 160.947 1757.49C160.947 1757.49 110.978 1742.58 82.6382 1776.12C54.298 1809.67 17.0082 1903.61 105.012 2009.49C105.012 2009.49 145.285 2066.14 225.841 2078.82C225.841 2078.82 313.854 2148.15 392.909 2087.02C392.909 2087.02 452.572 2122.8 504.788 2118.33C504.788 2118.33 611.282 2196.58 734.512 2151.32C857.743 2106.05 858.324 2015.44 858.324 2015.44L897.105 1827.56L833.616 1725.42Z" fill="#48C19B" stroke="black" stroke-width="4" stroke-linecap="round" stroke-linejoin="round"/>
<path d="M965.718 1432.42C965.718 1432.42 1017.92 1320.58 1182.02 1332.51C1182.02 1332.51 1247.65 1256.46 1366.99 1290.76C1366.99 1290.76 1457.98 1249.13 1486.32 1281.87C1514.66 1314.62 1478.86 1331.02 1478.86 1331.02C1478.86 1331.02 1544.49 1308.65 1578.81 1354.13C1578.81 1354.13 1595.22 1375.75 1589.25 1408.55C1589.25 1408.55 1629.53 1423.46 1628.03 1463.72C1626.54 1503.98 1611.63 1512.92 1611.63 1512.92C1611.63 1512.92 1638.47 1562.12 1596.71 1614.32C1596.71 1614.32 1580.3 1636.68 1551.96 1650.1C1551.96 1650.1 1553.45 1693.34 1478.86 1725.41C1478.86 1725.41 1435.61 1742.56 1378.92 1733.61C1378.92 1733.61 1298.36 1790.27 1187.98 1749.27C1187.98 1749.27 1102.23 1802.2 1019.8 1776.1C937.378 1750.01 871.748 1620.28 871.748 1620.28L922.462 1448.81L965.718 1432.41V1432.42Z" fill="#48C19B" stroke="black" stroke-width="4" stroke-linecap="round" stroke-linejoin="round"/>
<path d="M717.398 1192.55H665.686L645.481 1210.23C645.481 1210.23 614.09 1271.93 499.228 1265.05C499.228 1265.05 427.632 1337.13 326.939 1265.58C326.939 1265.58 247.13 1326.75 144.21 1256.66C41.2899 1186.57 24.8727 1103.85 99.462 1100.48C99.462 1100.48 -15.4002 1061 41.2899 971.694C41.2899 971.694 84.5461 915.2 165.102 948.748C165.102 948.748 111.404 915.2 147.203 885.38C183.001 855.56 227.758 885.38 227.758 885.38C227.758 885.38 253.861 834.686 348.955 881.652C348.955 881.652 418.692 816.793 502.231 912.218C502.231 912.218 552.664 883.889 606.506 927.128L663.332 971.694L736.43 1150.79L717.407 1192.54L717.398 1192.55Z" fill="#48C19B" stroke="black" stroke-width="4" stroke-linecap="round" stroke-linejoin="round"/>
<path d="M561.516 2757.99L423.854 2700.99L278.608 2582.75C278.608 2582.75 248.205 2594.75 252.679 2596.98C257.154 2599.22 356.723 2716.35 356.723 2716.35L252.224 2771.45V2790.47L386.923 2747.97L584.946 2881.05V2789.34L561.507 2758L561.516 2757.99Z" fill="#C19181" stroke="black" stroke-width="4" stroke-linecap="round" stroke-linejoin="round"/>
<path d="M794.166 2819.14C797.149 2813.18 873.23 2725.2 873.23 2725.2L924.807 2716.33C924.807 2716.33 1041.79 2738.62 1043.28 2819.14C1043.28 2819.14 1088.03 2807.22 1132.79 2848.96C1177.54 2890.71 1181.13 2914.57 1145.03 2913.08C1145.03 2913.08 1196.4 2950.35 1182.49 2998.08C1168.58 3045.8 1043.28 3109.91 1043.28 3109.91L769.187 3147.19L777.768 2881.02L794.176 2819.14H794.166Z" fill="#48A078" stroke="black" stroke-width="4" stroke-miterlimit="10"/>
<path d="M1013.45 2589.14C1013.45 2589.14 1001.54 2635.69 1190.97 2628.26C1190.97 2628.26 1287.92 2617.71 1325.21 2582.74C1325.21 2582.74 1447.66 2596.02 1516.96 2524.18C1586.26 2452.33 1553.44 2429.22 1553.44 2429.22C1553.44 2429.22 1595.21 2424 1598.19 2346.45C1598.19 2346.45 1589.72 2286.81 1520.86 2289.8C1520.86 2289.8 1553.44 2236.12 1492.28 2207.04C1436.68 2180.6 1384.88 2198.84 1384.88 2198.84C1384.88 2198.84 1419.18 2143.67 1256.59 2140.69C1256.59 2140.69 1182 2137.7 1132.78 2169.01C1132.78 2169.01 1153.66 2101.92 1004.49 2163.05C855.321 2224.18 842.982 2309.57 862.779 2341.98L803.513 2523.89L880.678 2628.25L1013.44 2589.13L1013.45 2589.14Z" fill="#48C19B" stroke="black" stroke-width="4" stroke-linecap="round" stroke-linejoin="round"/>
<path d="M1102.07 3374.68C1102.07 3374.68 1114.48 3445.42 1265.34 3442.44C1265.34 3442.44 1359.52 3436.47 1383.39 3396.21C1383.39 3396.21 1477.37 3423.05 1545.99 3366.39C1545.99 3366.39 1581.78 3329.33 1572.84 3295.67C1572.84 3295.67 1611.78 3279.91 1610.96 3259.03C1610.13 3238.16 1575.82 3233.68 1575.82 3233.68C1575.82 3233.68 1620.57 3175.53 1548.97 3151.67C1548.97 3151.67 1572.84 3105.45 1554.94 3063.69C1537.04 3021.93 1446.04 3004.05 1413.23 3008.52C1413.23 3008.52 1435.56 2980.19 1356.53 2975.72C1277.49 2971.25 1204.39 3002.56 1204.39 3002.56C1204.39 3002.56 1204.39 2952.47 1089.53 2975.28C974.668 2998.09 806.109 3093.52 928.429 3144.21C928.429 3144.21 926.937 3254.56 926.937 3260.52C926.937 3266.49 943.345 3402.18 943.345 3402.18L1102.08 3374.68H1102.07Z" fill="#48C19B" stroke="black" stroke-width="4" stroke-linecap="round" stroke-linejoin="round"/>
<path d="M443.991 1899.13L376.869 1758.22L404.841 1749.28C404.841 1749.28 507.771 1894.66 516.72 1899.13C525.67 1903.6 784.103 2065.77 784.103 2065.77C784.103 2065.77 821.024 2087.01 793.052 2151.32C765.08 2215.62 702.433 2173.13 702.433 2173.13L465.067 1952.82L295.199 1949.19L289.601 1921.51L443.991 1899.14V1899.13Z" fill="#C19181" stroke="black" stroke-width="4" stroke-linecap="round" stroke-linejoin="round"/>
<path d="M880.688 828.518C880.688 828.518 910.52 885.36 1010.47 864.39C1010.47 864.39 1073.11 847.901 1085.06 828.518C1085.06 828.518 1137.26 846.41 1180.53 806.153C1180.53 806.153 1299.86 828.518 1378.92 676.425C1378.92 676.425 1459.05 615.294 1431.66 530.296C1431.66 530.296 1406.34 467.674 1298.64 476.62C1298.64 476.62 1308.28 442.559 1271.24 420.823C1271.24 420.823 1211.84 396.105 1150.68 442.327C1150.68 442.327 1041.78 391.632 952.285 482.584C952.285 482.584 865.608 422.944 784.093 497.494L764.402 773.825L790.554 845.946L880.688 828.518Z" fill="#68BC8C" stroke="black" stroke-width="4" stroke-linecap="round" stroke-linejoin="round"/>
<path d="M978.029 1664.28L1255.11 1518.9L1321.11 1381.34L1342.37 1386.94L1309.92 1506.6L1478.86 1436.14V1465.22L1286.43 1577.05L998.902 1776.11L978.029 1664.28Z" fill="#C19181" stroke="black" stroke-width="4" stroke-linecap="round" stroke-linejoin="round"/>
<path d="M546.552 4028.06H1214.83L1196.32 3880.04C1180.85 3756.3 1154.27 3634.2 1116.91 3515.22C1116.91 3515.22 1028.39 3204.63 989.933 3115.12L917.193 2945.87C883.419 2867.28 869.278 2781.67 875.971 2696.41L899.817 2392.87C906.917 2302.56 927.567 2213.82 961.098 2129.66L991.095 2054.34C1022.41 1975.74 1033.53 1890.53 1023.45 1806.52L986.33 1497.23C975.646 1408.19 950.435 1321.51 911.702 1240.63L836.066 1082.69C800.781 1009 785.1 927.457 790.553 845.946L801.159 687.405C804.452 638.104 809.557 588.94 816.443 540.007L867.089 180.161C868.184 172.405 866.934 164.505 863.496 157.466L860.28 150.873C850.052 129.892 823.911 122.389 804.104 134.743C795.793 139.923 789.72 148.026 787.066 157.447L608.55 792.008C578.147 900.067 587.019 1015.41 633.597 1117.55L691.188 1243.85C731.674 1332.64 755.995 1427.93 763.007 1525.27L780.771 1771.82C785.672 1839.85 776.79 1908.16 754.649 1972.67L628.57 2340.08C617.655 2371.9 608.521 2404.3 601.218 2437.14L599.697 2443.99C541.312 2706.62 549.216 2979.64 622.691 3238.45L636.048 3285.49C716.603 3622.48 587.087 3916.03 566.776 3972.15L546.542 4028.06H546.552Z" fill="#C19181" stroke="black" stroke-width="4" stroke-linecap="round" stroke-linejoin="round"/>
<path d="M798.65 2415.05C797.159 2452.33 725.553 2449.34 725.553 2449.34C668.872 2511.98 600.249 2459.79 600.249 2459.79C598.864 2460.04 597.498 2460.29 596.133 2460.53C597.285 2455.01 598.486 2449.49 599.707 2443.98L601.227 2437.14C608.53 2404.29 617.654 2371.89 628.58 2340.07L643.447 2296.74C669.027 2314.55 673.347 2339.01 673.347 2339.01C697.212 2315.14 730.027 2324.1 730.027 2324.1C791.192 2333.05 773.284 2386.72 773.284 2386.72C806.108 2398.65 798.65 2415.05 798.65 2415.05Z" fill="#C19181" stroke="black" stroke-width="4" stroke-linecap="round" stroke-linejoin="round"/>
<path d="M778.737 268.043V297.089" stroke="black" stroke-width="4" stroke-linecap="round" stroke-linejoin="round"/>
<path d="M820.133 315.02V344.065" stroke="black" stroke-width="4" stroke-linecap="round" stroke-linejoin="round"/>
<path d="M763.075 336.262V365.307" stroke="black" stroke-width="4" stroke-linecap="round" stroke-linejoin="round"/>
<path d="M793.285 369.809V398.855" stroke="black" stroke-width="4" stroke-linecap="round" stroke-linejoin="round"/>
<path d="M710.492 536.445V565.49" stroke="black" stroke-width="4" stroke-linecap="round" stroke-linejoin="round"/>
<path d="M749.651 511.843V540.888" stroke="black" stroke-width="4" stroke-linecap="round" stroke-linejoin="round"/>
<path d="M771.279 600.703V629.749" stroke="black" stroke-width="4" stroke-linecap="round" stroke-linejoin="round"/>
<path d="M745.554 774.048V803.093" stroke="black" stroke-width="4" stroke-linecap="round" stroke-linejoin="round"/>
<path d="M772.402 822.128V851.174" stroke="black" stroke-width="4" stroke-linecap="round" stroke-linejoin="round"/>
<path d="M711.983 826.611V855.657" stroke="black" stroke-width="4" stroke-linecap="round" stroke-linejoin="round"/>
<path d="M682.897 796.413V825.459" stroke="black" stroke-width="4" stroke-linecap="round" stroke-linejoin="round"/>
<path d="M634.789 862.395V891.441" stroke="black" stroke-width="4" stroke-linecap="round" stroke-linejoin="round"/>
<path d="M605.703 890.347V919.392" stroke="black" stroke-width="4" stroke-linecap="round" stroke-linejoin="round"/>
<path d="M662.761 1032.38V1061.43" stroke="black" stroke-width="4" stroke-linecap="round" stroke-linejoin="round"/>
<path d="M744.43 884.76V913.806" stroke="black" stroke-width="4" stroke-linecap="round" stroke-linejoin="round"/>
<path d="M673.948 908.248V937.294" stroke="black" stroke-width="4" stroke-linecap="round" stroke-linejoin="round"/>
<path d="M710.87 964.161V993.207" stroke="black" stroke-width="4" stroke-linecap="round" stroke-linejoin="round"/>
<path d="M773.517 991V1020.05" stroke="black" stroke-width="4" stroke-linecap="round" stroke-linejoin="round"/>
<path d="M624.725 1003.31V1032.35" stroke="black" stroke-width="4" stroke-linecap="round" stroke-linejoin="round"/>
<path d="M722.057 1046.92V1075.97" stroke="black" stroke-width="4" stroke-linecap="round" stroke-linejoin="round"/>
<path d="M790.302 1065.93V1094.97" stroke="black" stroke-width="4" stroke-linecap="round" stroke-linejoin="round"/>
<path d="M687.372 1086.06V1115.1" stroke="black" stroke-width="4" stroke-linecap="round" stroke-linejoin="round"/>
<path d="M744.43 1181.11V1210.16" stroke="black" stroke-width="4" stroke-linecap="round" stroke-linejoin="round"/>
<path d="M699.683 1192.31V1221.35" stroke="black" stroke-width="4" stroke-linecap="round" stroke-linejoin="round"/>
<path d="M828.337 1242.62V1271.67" stroke="black" stroke-width="4" stroke-linecap="round" stroke-linejoin="round"/>
<path d="M876.446 1280.65V1309.7" stroke="black" stroke-width="4" stroke-linecap="round" stroke-linejoin="round"/>
<path d="M755.617 1322.02V1351.07" stroke="black" stroke-width="4" stroke-linecap="round" stroke-linejoin="round"/>
<path d="M856.31 1351.11V1380.15" stroke="black" stroke-width="4" stroke-linecap="round" stroke-linejoin="round"/>
<path d="M954.764 1443.93V1472.97" stroke="black" stroke-width="4" stroke-linecap="round" stroke-linejoin="round"/>
<path d="M911.13 1480.84V1509.88" stroke="black" stroke-width="4" stroke-linecap="round" stroke-linejoin="round"/>
<path d="M911.13 1562.47V1591.52" stroke="black" stroke-width="4" stroke-linecap="round" stroke-linejoin="round"/>
<path d="M846.236 1550.17V1579.21" stroke="black" stroke-width="4" stroke-linecap="round" stroke-linejoin="round"/>
<path d="M795.89 1606.08V1635.13" stroke="black" stroke-width="4" stroke-linecap="round" stroke-linejoin="round"/>
<path d="M942.454 1620.62V1649.67" stroke="black" stroke-width="4" stroke-linecap="round" stroke-linejoin="round"/>
<path d="M969.302 1531.15V1560.2" stroke="black" stroke-width="4" stroke-linecap="round" stroke-linejoin="round"/>
<path d="M867.497 1639.64V1668.68" stroke="black" stroke-width="4" stroke-linecap="round" stroke-linejoin="round"/>
<path d="M836.173 1717.92V1746.96" stroke="black" stroke-width="4" stroke-linecap="round" stroke-linejoin="round"/>
<path d="M952.527 1774.95V1804" stroke="black" stroke-width="4" stroke-linecap="round" stroke-linejoin="round"/>
<path d="M883.158 1746.99V1776.04" stroke="black" stroke-width="4" stroke-linecap="round" stroke-linejoin="round"/>
<path d="M854.072 1853.24V1882.29" stroke="black" stroke-width="4" stroke-linecap="round" stroke-linejoin="round"/>
<path d="M905.532 1829.75V1858.8" stroke="black" stroke-width="4" stroke-linecap="round" stroke-linejoin="round"/>
<path d="M810.438 1916.99V1946.03" stroke="black" stroke-width="4" stroke-linecap="round" stroke-linejoin="round"/>
<path d="M880.921 1943.82V1972.87" stroke="black" stroke-width="4" stroke-linecap="round" stroke-linejoin="round"/>
<path d="M766.804 2017.63V2046.67" stroke="black" stroke-width="4" stroke-linecap="round" stroke-linejoin="round"/>
<path d="M833.936 2000.86V2029.91" stroke="black" stroke-width="4" stroke-linecap="round" stroke-linejoin="round"/>
<path d="M879.807 2098.15V2127.2" stroke="black" stroke-width="4" stroke-linecap="round" stroke-linejoin="round"/>
<path d="M940.962 2086.22V2115.27" stroke="black" stroke-width="4" stroke-linecap="round" stroke-linejoin="round"/>
<path d="M813.421 2083.99V2113.03" stroke="black" stroke-width="4" stroke-linecap="round" stroke-linejoin="round"/>
<path d="M735.113 2142.14V2171.18" stroke="black" stroke-width="4" stroke-linecap="round" stroke-linejoin="round"/>
<path d="M815.659 2211.48V2240.52" stroke="black" stroke-width="4" stroke-linecap="round" stroke-linejoin="round"/>
<path d="M873.831 2182.4V2211.44" stroke="black" stroke-width="4" stroke-linecap="round" stroke-linejoin="round"/>
<path d="M710.492 2240.55V2269.6" stroke="black" stroke-width="4" stroke-linecap="round" stroke-linejoin="round"/>
<path d="M761.961 2269.63V2298.67" stroke="black" stroke-width="4" stroke-linecap="round" stroke-linejoin="round"/>
<path d="M826.846 2296.47V2325.51" stroke="black" stroke-width="4" stroke-linecap="round" stroke-linejoin="round"/>
<path d="M685.88 2309.89V2338.93" stroke="black" stroke-width="4" stroke-linecap="round" stroke-linejoin="round"/>
<path d="M826.846 2374.75V2403.8" stroke="black" stroke-width="4" stroke-linecap="round" stroke-linejoin="round"/>
<path d="M728.391 2560.4V2589.44" stroke="black" stroke-width="4" stroke-linecap="round" stroke-linejoin="round"/>
<path d="M816.405 2518.65V2547.69" stroke="black" stroke-width="4" stroke-linecap="round" stroke-linejoin="round"/>
<path d="M764.199 2439.61V2468.66" stroke="black" stroke-width="4" stroke-linecap="round" stroke-linejoin="round"/>
<path d="M811.93 2623.03V2652.07" stroke="black" stroke-width="4" stroke-linecap="round" stroke-linejoin="round"/>
<path d="M656.794 2591.71V2620.75" stroke="black" stroke-width="4" stroke-linecap="round" stroke-linejoin="round"/>
<path d="M603.097 2626.01V2655.06" stroke="black" stroke-width="4" stroke-linecap="round" stroke-linejoin="round"/>
<path d="M861.152 2575.31V2604.35" stroke="black" stroke-width="4" stroke-linecap="round" stroke-linejoin="round"/>
<path d="M692.593 2733.36V2762.41" stroke="black" stroke-width="4" stroke-linecap="round" stroke-linejoin="round"/>
<path d="M732.875 2676.7V2705.75" stroke="black" stroke-width="4" stroke-linecap="round" stroke-linejoin="round"/>
<path d="M609.063 2740.82V2769.86" stroke="black" stroke-width="4" stroke-linecap="round" stroke-linejoin="round"/>
<path d="M771.657 2818.36V2847.41" stroke="black" stroke-width="4" stroke-linecap="round" stroke-linejoin="round"/>
<path d="M829.829 2795.99V2825.04" stroke="black" stroke-width="4" stroke-linecap="round" stroke-linejoin="round"/>
<path d="M673.202 2873.53V2902.57" stroke="black" stroke-width="4" stroke-linecap="round" stroke-linejoin="round"/>
<path d="M610.555 2930.2V2959.24" stroke="black" stroke-width="4" stroke-linecap="round" stroke-linejoin="round"/>
<path d="M737.35 2931.69V2960.73" stroke="black" stroke-width="4" stroke-linecap="round" stroke-linejoin="round"/>
<path d="M807.455 2922.74V2951.79" stroke="black" stroke-width="4" stroke-linecap="round" stroke-linejoin="round"/>
<path d="M893.977 2955.54V2984.59" stroke="black" stroke-width="4" stroke-linecap="round" stroke-linejoin="round"/>
<path d="M668.727 2995.8V3024.85" stroke="black" stroke-width="4" stroke-linecap="round" stroke-linejoin="round"/>
<path d="M841.762 3046.49V3075.54" stroke="black" stroke-width="4" stroke-linecap="round" stroke-linejoin="round"/>
<path d="M753.758 3049.48V3078.52" stroke="black" stroke-width="4" stroke-linecap="round" stroke-linejoin="round"/>
<path d="M620.996 3056.94V3085.99" stroke="black" stroke-width="4" stroke-linecap="round" stroke-linejoin="round"/>
<path d="M786.573 3130V3159.05" stroke="black" stroke-width="4" stroke-linecap="round" stroke-linejoin="round"/>
<path d="M734.367 3250.78V3279.83" stroke="black" stroke-width="4" stroke-linecap="round" stroke-linejoin="round"/>
<path d="M819.388 3222.45V3251.5" stroke="black" stroke-width="4" stroke-linecap="round" stroke-linejoin="round"/>
<path d="M682.151 3316.39V3345.43" stroke="black" stroke-width="4" stroke-linecap="round" stroke-linejoin="round"/>
<path d="M901.435 3376.04V3405.08" stroke="black" stroke-width="4" stroke-linecap="round" stroke-linejoin="round"/>
<path d="M952.149 3316.39V3345.43" stroke="black" stroke-width="4" stroke-linecap="round" stroke-linejoin="round"/>
<path d="M898.452 3228.42V3257.46" stroke="black" stroke-width="4" stroke-linecap="round" stroke-linejoin="round"/>
<path d="M834.304 3341.74V3370.79" stroke="black" stroke-width="4" stroke-linecap="round" stroke-linejoin="round"/>
<path d="M755.249 3362.62V3391.66" stroke="black" stroke-width="4" stroke-linecap="round" stroke-linejoin="round"/>
<path d="M697.067 3416.29V3445.34" stroke="black" stroke-width="4" stroke-linecap="round" stroke-linejoin="round"/>
<path d="M795.522 3456.55V3485.6" stroke="black" stroke-width="4" stroke-linecap="round" stroke-linejoin="round"/>
<path d="M862.644 3501.29V3530.34" stroke="black" stroke-width="4" stroke-linecap="round" stroke-linejoin="round"/>
<path d="M967.065 3440.15V3469.2" stroke="black" stroke-width="4" stroke-linecap="round" stroke-linejoin="round"/>
<path d="M683.643 3578.82V3607.87" stroke="black" stroke-width="4" stroke-linecap="round" stroke-linejoin="round"/>
<path d="M759.724 3532.6V3561.65" stroke="black" stroke-width="4" stroke-linecap="round" stroke-linejoin="round"/>
<path d="M1073.72 3692.4V3721.45" stroke="black" stroke-width="4" stroke-linecap="round" stroke-linejoin="round"/>
<path d="M990.185 3772.92V3801.96" stroke="black" stroke-width="4" stroke-linecap="round" stroke-linejoin="round"/>
<path d="M1137.86 3789.32V3818.36" stroke="black" stroke-width="4" stroke-linecap="round" stroke-linejoin="round"/>
<path d="M1149.79 3927.99V3957.04" stroke="black" stroke-width="4" stroke-linecap="round" stroke-linejoin="round"/>
<path d="M1090.13 3872.82V3901.87" stroke="black" stroke-width="4" stroke-linecap="round" stroke-linejoin="round"/>
<path d="M695.576 3716.01V3745.05" stroke="black" stroke-width="4" stroke-linecap="round" stroke-linejoin="round"/>
<path d="M782.098 3792.06V3821.1" stroke="black" stroke-width="4" stroke-linecap="round" stroke-linejoin="round"/>
<path d="M888.011 3736.88V3765.93" stroke="black" stroke-width="4" stroke-linecap="round" stroke-linejoin="round"/>
<path d="M820.879 3717.5V3746.54" stroke="black" stroke-width="4" stroke-linecap="round" stroke-linejoin="round"/>
<path d="M670.219 3832.31V3861.36" stroke="black" stroke-width="4" stroke-linecap="round" stroke-linejoin="round"/>
<path d="M622.488 3932.22V3961.27" stroke="black" stroke-width="4" stroke-linecap="round" stroke-linejoin="round"/>
<path d="M725.408 3884.5V3913.55" stroke="black" stroke-width="4" stroke-linecap="round" stroke-linejoin="round"/>
<path d="M692.593 3959.06V3988.11" stroke="black" stroke-width="4" stroke-linecap="round" stroke-linejoin="round"/>
<path d="M808.947 3878.54V3907.58" stroke="black" stroke-width="4" stroke-linecap="round" stroke-linejoin="round"/>
<path d="M932.758 3811.44V3840.49" stroke="black" stroke-width="4" stroke-linecap="round" stroke-linejoin="round"/>
<path d="M871.593 3956.08V3985.12" stroke="black" stroke-width="4" stroke-linecap="round" stroke-linejoin="round"/>
<path d="M1037.18 3947.13V3976.18" stroke="black" stroke-width="4" stroke-linecap="round" stroke-linejoin="round"/>
<path d="M1022.26 3848.72V3877.76" stroke="black" stroke-width="4" stroke-linecap="round" stroke-linejoin="round"/>
<path d="M1119.22 3596.72V3625.76" stroke="black" stroke-width="4" stroke-linecap="round" stroke-linejoin="round"/>
<path d="M1029.72 3502.78V3531.83" stroke="black" stroke-width="4" stroke-linecap="round" stroke-linejoin="round"/>
<path d="M879.061 3155.35V3184.39" stroke="black" stroke-width="4" stroke-linecap="round" stroke-linejoin="round"/>
<path d="M922.317 3024.13V3053.17" stroke="black" stroke-width="4" stroke-linecap="round" stroke-linejoin="round"/>
<path d="M616.521 2508.96V2538" stroke="black" stroke-width="4" stroke-linecap="round" stroke-linejoin="round"/>
<path d="M676.931 2468.69V2497.73" stroke="black" stroke-width="4" stroke-linecap="round" stroke-linejoin="round"/>
<path d="M915.605 2034.03V2063.08" stroke="black" stroke-width="4" stroke-linecap="round" stroke-linejoin="round"/>
<path d="M965.951 1897.97V1927.02" stroke="black" stroke-width="4" stroke-linecap="round" stroke-linejoin="round"/>
<path d="M995.037 1807.39V1836.43" stroke="black" stroke-width="4" stroke-linecap="round" stroke-linejoin="round"/>
<path d="M805.963 1771.6V1800.65" stroke="black" stroke-width="4" stroke-linecap="round" stroke-linejoin="round"/>
<path d="M931.267 1373.47V1402.52" stroke="black" stroke-width="4" stroke-linecap="round" stroke-linejoin="round"/>
<path d="M784.703 1364.53V1393.57" stroke="black" stroke-width="4" stroke-linecap="round" stroke-linejoin="round"/>
<path d="M738.842 1244.86V1273.9" stroke="black" stroke-width="4" stroke-linecap="round" stroke-linejoin="round"/>
<path d="M769.042 704.706V733.752" stroke="black" stroke-width="4" stroke-linecap="round" stroke-linejoin="round"/>
<path d="M701.92 616.359V645.404" stroke="black" stroke-width="4" stroke-linecap="round" stroke-linejoin="round"/>
<path d="M660.523 681.218V710.263" stroke="black" stroke-width="4" stroke-linecap="round" stroke-linejoin="round"/>
<path d="M736.227 651.63V680.676" stroke="black" stroke-width="4" stroke-linecap="round" stroke-linejoin="round"/>
<path d="M638.663 1072.69C638.663 1072.69 556.993 1095.05 506.647 1072.69C456.301 1050.32 345.545 989.925 345.545 989.925L330.998 1012.29L446.228 1092.81L344.422 1150.96L355.531 1168.86L482.559 1117.54C482.559 1117.54 621.877 1227.01 686.762 1219.18C686.762 1219.18 716.225 1206.88 706.53 1153.2C696.835 1099.52 659.884 1068.04 638.663 1072.68V1072.69Z" fill="#C19181" stroke="black" stroke-width="4" stroke-linecap="round" stroke-linejoin="round"/>
<path d="M1214.83 585.28L924.08 807.983C919.518 811.478 915.082 815.128 910.772 818.923L791.754 923.846C789.226 898.053 788.81 871.999 790.553 845.946L796.52 756.766L942.967 679.03L1044.77 547.066L1063.8 552.652L1012.34 655.541L1198.05 562.721L1214.83 585.28Z" fill="#C19181" stroke="black" stroke-width="4" stroke-linecap="round" stroke-linejoin="round"/>
<path d="M646.489 703.263C646.489 703.263 626.526 657.042 549.245 682.389C549.245 682.389 527.152 664.352 492.845 689.031C492.845 689.031 479.421 701.772 492.845 712.21C492.845 712.21 434.673 703.263 425.723 734.575C416.774 765.886 492.845 797.197 506.279 797.197C506.279 797.197 486.888 821.053 546.552 835.963C546.552 835.963 580.161 838.945 598.409 835.963C598.409 835.963 628.706 848.56 652.455 837.29C676.204 826.02 673.337 810.616 673.337 810.616C673.337 810.616 709.881 819.562 721.446 786.76C721.446 786.76 728.526 759.825 700.186 758.382C700.186 758.382 720.41 759.922 722.23 739.048C724.051 718.174 682.287 706.245 646.489 703.263Z" fill="#48C19B" stroke="black" stroke-width="4" stroke-linecap="round" stroke-linejoin="round"/>
<path d="M773.284 1128.23C773.284 1128.23 751.656 1104.37 784.103 1092.45C784.103 1092.45 810.584 1084.99 835.941 1096.92C835.941 1096.92 844.89 1067.1 901.571 1073.06C958.251 1079.03 967.201 1125.25 958.251 1137.18C958.251 1137.18 997.033 1146.12 994.049 1174.45C994.049 1174.45 991.066 1193.84 971.675 1207.25C971.675 1207.25 964.217 1260.93 883.662 1263.91C883.662 1263.91 809.073 1260.93 800.123 1219.18C800.123 1219.18 721.059 1205.76 740.459 1155.07C740.459 1155.07 744.934 1134.19 773.274 1128.23H773.284Z" fill="#48C19B" stroke="black" stroke-width="4" stroke-linecap="round" stroke-linejoin="round"/>
<path d="M882.18 1498.02C897.096 1562.13 768.809 1581.52 768.809 1581.52C768.228 1581.58 767.647 1581.63 767.075 1581.69C636.474 1594.28 644.959 1523.74 645.007 1523.37C644.62 1526.51 585.431 1513.76 580.326 1512.21C561.207 1506.42 537.467 1497.38 527.278 1478.75C500.633 1430.02 582.186 1379.36 618.342 1366.73C627.428 1363.56 636.939 1360.68 646.499 1359.35C691.246 1319.09 718.095 1316.11 718.095 1316.11L719.829 1315.36C724.953 1330.15 729.66 1345.08 733.931 1360.12L733.011 1362.33C733.553 1362.41 734.086 1362.48 734.619 1362.57C797.488 1371.92 816.55 1410.04 816.55 1410.04C850.856 1389.17 909.028 1392.15 934.395 1438.37C959.752 1484.6 882.18 1498.02 882.18 1498.02Z" fill="#48C19B" stroke="black" stroke-width="4" stroke-linecap="round" stroke-linejoin="round"/>
<path d="M973.177 1920.01C973.177 1920.01 1049.26 1857.38 1085.06 1885.71C1085.06 1885.71 1099.97 1903.61 1077.6 1918.52C1077.6 1918.52 1119.36 1917.02 1113.4 1946.84C1107.43 1976.66 1076.11 1988.59 1076.11 1988.59C1076.11 1988.59 1079.09 2013.94 1052.24 2030.34C1025.39 2046.74 1010.48 2030.34 1010.48 2030.34C1010.48 2030.34 961.254 2072.09 934.395 2042.27C907.537 2012.45 941.853 1978.16 941.853 1978.16C941.853 1978.16 886.664 1988.59 909.038 1955.79C931.412 1922.99 973.177 1920.01 973.177 1920.01Z" fill="#48C19B" stroke="black" stroke-width="4" stroke-linecap="round" stroke-linejoin="round"/>
<path d="M798.651 2415.05C797.159 2452.33 725.553 2449.34 725.553 2449.34C668.873 2511.98 600.25 2459.79 600.25 2459.79C598.865 2460.04 597.499 2460.29 596.133 2460.53C462.539 2483.79 439.148 2418.03 439.148 2418.03C340.693 2422.51 325.777 2382.25 325.777 2382.25C297.437 2322.61 383.959 2301.72 383.959 2301.72C331.744 2292.78 372.395 2256.25 372.395 2256.25C420.503 2209.28 540.586 2239.1 540.586 2239.1C512.246 2186.92 673.347 2200.34 673.347 2200.34L676.156 2201.43L645.559 2290.6L642.024 2295.76C642.508 2296.08 642.983 2296.41 643.448 2296.74C669.028 2314.55 673.347 2339.01 673.347 2339.01C697.213 2315.14 730.028 2324.1 730.028 2324.1C791.193 2333.05 773.284 2386.72 773.284 2386.72C806.109 2398.65 798.651 2415.05 798.651 2415.05Z" fill="#48C19B" stroke="black" stroke-width="4" stroke-linecap="round" stroke-linejoin="round"/>
<path d="M850.856 2865.37C850.856 2865.37 873.23 2844.5 910.52 2844.5C947.81 2844.5 961.234 2851.96 934.385 2872.83C934.385 2872.83 988.083 2866.87 983.608 2896.69C979.133 2926.51 929.911 2932.47 929.911 2932.47C929.911 2932.47 928.419 2960.8 879.196 2962.29C829.974 2963.78 841.907 2932.47 841.907 2932.47C841.907 2932.47 786.718 2951.85 780.751 2911.6C773.526 2862.83 850.856 2865.37 850.856 2865.37Z" fill="#48C19B" stroke="black" stroke-width="4" stroke-linecap="round" stroke-linejoin="round"/>
<path d="M765.826 3590.05C765.826 3590.05 692.728 3606.46 694.229 3648.2C695.731 3689.95 774.785 3666.1 774.785 3666.1C774.785 3666.1 721.088 3697.41 771.802 3719.77C822.516 3742.14 855.341 3722.75 855.341 3722.75C855.341 3722.75 906.055 3768.98 977.661 3749.59C977.661 3749.59 1023.9 3742.14 1038.82 3709.34C1038.82 3709.34 1113.41 3710.83 1128.32 3645.22C1128.32 3645.22 1135.78 3603.47 1086.56 3610.93C1086.56 3610.93 1122.36 3582.6 1085.07 3542.34C1047.78 3502.09 920.98 3524.45 920.98 3524.45C920.98 3524.45 934.405 3496.12 822.526 3524.45C710.647 3552.78 765.845 3590.05 765.845 3590.05H765.826Z" fill="#48C19B" stroke="black" stroke-width="4" stroke-linecap="round" stroke-linejoin="round"/>
<path d="M740.469 150.06L780.819 217.291C780.819 217.291 819.533 301.049 958.261 286.69C958.261 286.69 929.92 360.302 1003.01 378.194C1076.1 396.086 1116.38 297.67 1116.38 297.67C1116.38 297.67 1086.55 193.289 1077.6 191.798C1068.65 190.307 901.58 91.8908 901.58 91.8908L789.701 72.5077L715.112 115.757L740.469 150.04V150.06Z" fill="#48C19B"/>
<path d="M740.469 150.06L780.819 217.291C780.819 217.291 819.533 301.049 958.261 286.69C958.261 286.69 929.92 360.302 1003.01 378.194C1076.1 396.086 1116.38 297.67 1116.38 297.67" stroke="black" stroke-width="4" stroke-linecap="round" stroke-linejoin="round"/>
<path d="M1167.09 513.886C1167.09 513.886 1118.38 565.132 1163.63 624.501C1163.63 624.501 1085.8 636.904 1050.75 702.508C1050.75 702.508 988.102 691.326 931.412 729.347C887.09 759.08 879.245 789.713 879.361 812.001C879.41 821.634 882.567 830.987 888.369 838.674L1055.22 809.871L1243.17 733.82L1275.24 607.819L1298.65 520.586L1198.43 502.693L1167.1 513.876L1167.09 513.886Z" fill="#68BC8C"/>
<path d="M1167.09 513.886C1167.09 513.886 1118.38 565.132 1163.63 624.501C1163.63 624.501 1085.8 636.904 1050.75 702.508C1050.75 702.508 988.102 691.326 931.412 729.347C887.09 759.08 879.245 789.713 879.361 812.001C879.41 821.634 882.567 830.987 888.369 838.674" stroke="black" stroke-width="4" stroke-linecap="round" stroke-linejoin="round"/>
<path d="M797.905 966.582C797.905 966.582 848.619 914.997 945.572 923.943" stroke="black" stroke-width="4" stroke-linecap="round" stroke-linejoin="round"/>
<path d="M945.572 953.018C945.572 953.018 932.313 900.242 986.678 868.107" stroke="black" stroke-width="4" stroke-linecap="round" stroke-linejoin="round"/>
<path d="M480.748 570.554C481.658 572.045 556.103 584.012 586.002 674.954" stroke="black" stroke-width="4" stroke-linecap="round" stroke-linejoin="round"/>
<path d="M330.998 966.582C330.998 966.582 373.566 1052.18 430.818 1047.71C430.818 1047.71 444.126 1097.68 516.74 1104.75C589.353 1111.82 615.64 1076.79 615.64 1076.79L496.613 1025.22L347.134 944.74L330.988 966.582H330.998Z" fill="#48C19B"/>
<path d="M330.998 966.582C330.998 966.582 373.566 1052.18 430.818 1047.71C430.818 1047.71 444.126 1097.68 516.74 1104.75C589.353 1111.82 615.64 1076.79 615.64 1076.79" stroke="black" stroke-width="4" stroke-linecap="round" stroke-linejoin="round"/>
<path d="M301.65 1105.7C301.65 1105.7 369.585 1140.71 382.409 1187.18C382.409 1187.18 427.68 1175.12 471.198 1202.19C524.885 1235.59 498.317 1265.05 498.317 1265.05L348.442 1252.53L295.8 1185.37L251.992 1134.9L301.65 1105.7Z" fill="#48C19B"/>
<path d="M301.65 1105.7C301.65 1105.7 369.586 1140.71 382.409 1187.18C382.409 1187.18 427.68 1175.12 471.198 1202.19C524.886 1235.59 498.318 1265.05 498.318 1265.05" stroke="black" stroke-width="4" stroke-miterlimit="10" stroke-linecap="round"/>
<path d="M944.148 1318.43C944.148 1318.43 948.304 1270.88 1025.88 1284.3C1025.88 1284.3 983.249 1266.47 1009.47 1219.59C1049.16 1148.61 1154.16 1117.55 1154.16 1117.55" stroke="black" stroke-width="4" stroke-linecap="round" stroke-linejoin="round"/>
<path d="M1051.58 1781.75C1051.58 1781.75 975.017 1774.34 939.48 1749.01C903.943 1723.69 905.047 1638.43 1058.69 1614.07C1058.69 1614.07 1115.37 1607.61 1182.5 1624.01C1182.5 1624.01 1192.94 1512.18 1455.48 1553.93L1410.74 1663.84L1154.16 1725.16L1051.58 1781.75Z" fill="#48C19B"/>
<path d="M1054.94 1782.83C1054.94 1782.83 975.017 1774.59 939.48 1749.28C903.943 1723.96 905.047 1638.69 1058.69 1614.33C1058.69 1614.33 1110.51 1607.17 1182.5 1624.27C1182.5 1624.27 1192.94 1512.44 1455.48 1554.2" stroke="black" stroke-width="4" stroke-linecap="round" stroke-linejoin="round"/>
<path d="M1214.82 1440.7C1214.82 1440.7 1327.2 1452.29 1377.91 1354.13L1315.26 1318.42L1239.18 1379.78L1187.95 1408.06L1214.81 1440.7H1214.82Z" fill="#48C19B"/>
<path d="M1214.82 1440.7C1214.82 1440.7 1327.2 1452.29 1377.91 1354.13" stroke="black" stroke-width="4" stroke-linecap="round" stroke-linejoin="round"/>
<path d="M663.4 1585.46C663.4 1585.46 728.788 1598.93 769.187 1634.71" stroke="black" stroke-width="4" stroke-linecap="round" stroke-linejoin="round"/>
<path d="M251.992 1941.88C251.992 1941.88 312.847 1915.26 375.494 1968.09C375.494 1968.09 398.565 1916.53 473.551 1926.97C548.538 1937.4 627.592 1980.64 638.033 2041.78C645.317 2084.41 605.712 2105.4 504.778 2118.33L417.384 2032.84L252.234 2031.35L251.992 1941.88Z" fill="#48C19B"/>
<path d="M251.992 1941.88C251.992 1941.88 312.847 1915.26 375.494 1968.09C375.494 1968.09 398.565 1916.53 473.551 1926.97C548.538 1937.4 627.592 1980.64 638.033 2041.78C645.317 2084.41 605.712 2105.4 504.778 2118.33" stroke="black" stroke-width="4" stroke-linecap="round" stroke-linejoin="round"/>
<path d="M320.072 1783.35C320.072 1783.35 426.217 1815.13 506.763 1762.95L432.174 1664.1L281.514 1703.31L320.063 1783.36L320.072 1783.35Z" fill="#48C19B"/>
<path d="M320.072 1783.35C320.072 1783.35 426.217 1815.13 506.763 1762.95" stroke="black" stroke-width="4" stroke-linecap="round" stroke-linejoin="round"/>
<path d="M1094.9 1920.63C1094.9 1920.63 1150.18 1895.66 1214.82 1906.09" stroke="black" stroke-width="4" stroke-linecap="round" stroke-linejoin="round"/>
<path d="M594.448 2272.62C594.448 2272.62 623.737 2278.94 642.024 2295.77" stroke="black" stroke-width="4" stroke-linecap="round" stroke-linejoin="round"/>
<path d="M160.937 2710.17C162.555 2711.3 250.946 2718.25 299.045 2790.81C299.045 2790.81 385.267 2731.31 490.395 2817.48C490.395 2817.48 525.089 2762 608.192 2795.16C608.192 2795.16 668.805 2836.26 613.422 2881.03C565.807 2919.53 518.202 2901.16 518.202 2901.16L394.139 2905.54L171.504 2827.6L160.937 2710.17Z" fill="#48C19B"/>
<path d="M160.937 2710.17C162.555 2711.3 250.946 2718.25 299.045 2790.81C299.045 2790.81 385.267 2731.31 490.395 2817.48C490.395 2817.48 520.537 2769.28 591.92 2789.58C606.981 2793.86 620.212 2803.27 628.716 2816.4C639.186 2832.59 644.077 2856.24 613.412 2881.03C565.798 2919.53 518.193 2901.16 518.193 2901.16" stroke="black" stroke-width="4" stroke-miterlimit="10" stroke-linecap="round"/>
<path d="M424.358 3160.33C424.358 3160.33 578.747 3203.36 554.136 3264.87C554.136 3264.87 548.083 3287.23 530.416 3300.65C530.416 3300.65 600.986 3302 649.724 3353.89" stroke="black" stroke-width="4" stroke-linecap="round" stroke-linejoin="round"/>
<path d="M1022.89 2671.03C1022.89 2671.03 1070.53 2622.39 1113.83 2628.26" stroke="black" stroke-width="4" stroke-linecap="round" stroke-linejoin="round"/>
<path d="M1111.2 3493.19C1111.2 3493.19 1149.32 3472.55 1222.04 3511.85C1222.04 3511.85 1269.03 3538.36 1285.81 3571.6" stroke="black" stroke-width="4" stroke-linecap="round" stroke-linejoin="round"/>
<path d="M1270.16 3549.75C1270.16 3549.75 1311.54 3508.66 1383.14 3520.96" stroke="black" stroke-width="4" stroke-linecap="round" stroke-linejoin="round"/>
<path d="M504.971 3420.07C504.971 3420.07 551.898 3448.68 509.388 3488.62C466.878 3528.56 445.618 3528.55 445.618 3528.55" stroke="black" stroke-width="4" stroke-linecap="round" stroke-linejoin="round"/>
<path d="M348.277 3604.84L381.838 3577.79C381.838 3577.79 458.529 3522.15 512.73 3563.46C512.73 3563.46 542.281 3581.5 504.962 3604.84C504.962 3604.84 567.55 3605.96 593.285 3665.22C593.285 3665.22 601.47 3680.88 601.847 3697.66C601.847 3697.66 646.847 3681.75 658.17 3713.32C672.078 3752.08 624.425 3798.27 624.425 3798.27L417.374 3754.35L333.719 3684.24L348.267 3604.84H348.277Z" fill="#48C19B"/>
<path d="M348.277 3604.84L372.481 3585.33C386.157 3574.31 401.296 3565.2 417.578 3558.61C444.649 3547.65 482.249 3540.21 512.739 3563.45C512.739 3563.45 542.29 3581.49 504.971 3604.83C504.971 3604.83 567.56 3605.95 593.295 3665.22C593.295 3665.22 601.479 3680.87 601.857 3697.65C601.857 3697.65 644.319 3682.78 658.179 3713.31C675.439 3751.33 620.996 3799.79 620.996 3799.79" stroke="black" stroke-width="4" stroke-linecap="round" stroke-linejoin="round"/>
<path d="M1127.57 3279.16L1168.96 3089.05H1195.81C1195.81 3089.05 1174.55 3263.5 1184.62 3259.03C1194.7 3254.56 1352.44 3123.72 1352.44 3123.72L1374.81 3142.73C1374.81 3142.73 1136.52 3432.39 1073.86 3501.72C1073.86 3501.72 1025.75 3514.02 998.902 3425.67C972.053 3337.31 1015.69 3311.59 1015.69 3311.59C1015.69 3311.59 1072.53 3333.95 1127.57 3279.16Z" fill="#C19181" stroke="black" stroke-width="4" stroke-linecap="round" stroke-linejoin="round"/>
<path d="M928.419 3144.21C928.419 3144.21 859.554 3170.47 867.38 3205.93C875.206 3241.38 927.082 3245.82 927.082 3245.82C927.082 3245.82 881.308 3312.29 962.164 3324.36C1043.02 3336.44 1110.11 3311.74 1123.43 3279.26C1144.24 3228.51 1101.2 3147.19 1101.2 3147.19L983.87 3034.89L952.236 3027.44C952.236 3027.44 879.109 3065.97 887.226 3109.49C887.226 3109.49 895.468 3135.37 928.409 3144.19L928.419 3144.21Z" fill="#48C19B"/>
<path d="M952.246 3027.45C952.246 3027.45 879.119 3065.98 887.236 3109.5C887.236 3109.5 895.478 3135.38 928.419 3144.2C928.419 3144.2 859.554 3170.46 867.38 3205.92C875.206 3241.37 927.082 3245.81 927.082 3245.81C927.082 3245.81 881.308 3312.28 962.164 3324.35C1043.02 3336.43 1114.24 3313.61 1130.64 3265" stroke="black" stroke-width="4" stroke-miterlimit="10" stroke-linecap="round"/>
<path d="M1399.92 3276.05L1427.89 3178.76L1368.59 3100.69C1368.59 3100.69 1300.07 3089.17 1294.61 3095.94C1289.16 3102.71 1253.36 3137.38 1253.36 3137.38C1253.36 3137.38 1238.82 3177.18 1281.34 3205.93C1281.34 3205.93 1230.48 3222.87 1236.59 3262.63C1236.59 3262.63 1158.69 3267.24 1118.88 3314.49C1104.84 3331.15 1098.87 3353.15 1102.07 3374.69C1102.07 3374.69 1106.8 3401.61 1145.12 3421.16L1399.93 3276.06L1399.92 3276.05Z" fill="#48C19B"/>
<path d="M1253.36 3137.38C1253.36 3137.38 1238.82 3177.18 1281.34 3205.93C1281.34 3205.93 1230.48 3222.87 1236.59 3262.63C1236.59 3262.63 1158.69 3267.24 1118.88 3314.49C1104.84 3331.15 1098.87 3353.15 1102.07 3374.69C1102.07 3374.69 1110.1 3403.94 1145.12 3421.16" stroke="black" stroke-width="4" stroke-miterlimit="10" stroke-linecap="round"/>
<path d="M642.014 3090.53C642.014 3090.53 643.506 3066.67 671.846 3081.58C700.186 3096.49 712.119 3121.84 712.119 3121.84C712.119 3121.84 730.018 3153.15 701.678 3148.68C701.678 3148.68 737.476 3159.11 733.001 3185.95C728.526 3212.79 715.102 3215.77 715.102 3215.77C715.102 3215.77 737.476 3242.61 688.253 3248.57C639.031 3254.54 595.765 3238.14 595.765 3238.14C595.765 3238.14 618.139 3263.48 577.866 3254.54C537.593 3245.59 489.852 3199.37 489.852 3199.37C489.852 3199.37 442.121 3145.69 495.819 3160.6C495.819 3160.6 468.97 3105.44 500.294 3092.02C531.617 3078.6 556.974 3095 556.974 3095C556.974 3095 556.974 3057.73 598.739 3065.18C640.503 3072.64 641.995 3090.53 641.995 3090.53H642.014Z" fill="#48C19B" stroke="black" stroke-width="4" stroke-linecap="round" stroke-linejoin="round"/>
<path d="M866.886 2806.1C866.886 2806.1 955.268 2665.19 1013.45 2589.14C1071.63 2513.09 1137.63 2457.18 1137.63 2457.18L1299.85 2409.09V2387.84L1151.05 2410.2L1208.11 2272.61L1190.21 2262.58L1076.1 2422.51L784.093 2661.83C784.093 2661.83 741.583 2706.56 803.116 2780.38C803.116 2780.38 840.038 2815.05 866.886 2806.1Z" fill="#C19181" stroke="black" stroke-width="4" stroke-linecap="round" stroke-linejoin="round"/>
<path d="M1415.21 2343.48C1415.21 2343.48 1244.16 2323.61 1214.82 2465.26C1214.82 2465.26 1121.35 2448.48 1034.82 2530.12C1034.82 2530.12 1009.42 2558.08 1013.44 2589.14H1192.94L1374.8 2446.25L1415.2 2343.48H1415.21Z" fill="#48C19B"/>
<path d="M1415.21 2343.48C1415.21 2343.48 1244.16 2323.61 1214.82 2465.26C1214.82 2465.26 1121.35 2448.48 1034.82 2530.12C1034.82 2530.12 1009.42 2558.08 1013.44 2589.14" stroke="black" stroke-width="4" stroke-miterlimit="10" stroke-linecap="round"/>
<path d="M990.175 2207.05L936.768 2198.79C936.768 2198.79 814.806 2271.24 871.864 2342.52C871.864 2342.52 884.795 2355 904.234 2349.91C904.234 2349.91 820.404 2362.36 809.218 2438.41C798.031 2514.46 967.956 2513.92 969.699 2509.72C971.443 2505.52 1056.46 2329.07 1059.82 2323.35C1063.19 2317.64 990.184 2207.05 990.184 2207.05H990.175Z" fill="#48C19B"/>
<path d="M936.758 2198.79C936.758 2198.79 824.55 2265.45 865.753 2333.8C873.433 2346.54 888.252 2353.48 902.781 2350.26C903.256 2350.15 903.74 2350.04 904.224 2349.91C904.224 2349.91 820.395 2362.36 809.208 2438.41C798.021 2514.46 967.946 2513.92 969.689 2509.72" stroke="black" stroke-width="4" stroke-linecap="round" stroke-linejoin="round"/>
<path d="M797.159 184.353C795.667 212.682 767.443 227.205 767.443 227.205L724.584 379.53L682.297 381.176C577.876 425.906 491.354 388.631 491.354 388.631C401.858 431.87 321.302 381.176 321.302 381.176C219.874 328.991 236.282 227.205 236.282 227.205C253.667 160.197 326.668 167.458 330.814 167.923C277.988 158.696 252.931 29.249 465.251 9.88521C677.822 -9.49793 668.872 91.9005 668.872 91.9005C744.595 94.9309 777.265 123.231 790.011 149.992C796.094 162.772 797.643 175.194 797.159 184.353Z" fill="#68BC8C" stroke="black" stroke-width="4" stroke-linecap="round" stroke-linejoin="round"/>
<path d="M744.944 360.302L622.13 219.595C607.068 202.342 593.538 183.82 581.663 164.244L532.373 82.9544L509.999 90.7871L588.317 293.613H465.251L482.559 316.695L605.093 339.06L706.53 490.039C706.53 490.039 742.706 498.617 752.77 435.617C762.833 372.617 744.934 360.312 744.934 360.312L744.944 360.302Z" fill="#C19181" stroke="black" stroke-width="4" stroke-linecap="round" stroke-linejoin="round"/>
<path d="M752.78 435.608C752.78 435.608 727.045 408.024 773.294 390.132C819.543 372.24 849.375 412.875 849.375 412.875C849.375 412.875 889.648 390.8 903.072 410.599C916.496 430.399 897.106 435.617 897.106 435.617C897.106 435.617 940.362 448.291 922.463 484.075C904.564 519.859 880.698 510.913 880.698 510.913C880.698 510.913 880.698 536.261 855.341 539.243C829.984 542.225 810.593 525.823 810.593 525.823C810.593 525.823 745.709 537.752 732.653 501.967C719.596 466.183 752.789 435.617 752.789 435.617L752.78 435.608Z" fill="#48C19B" stroke="black" stroke-width="4" stroke-linecap="round" stroke-linejoin="round"/>
<path d="M479.421 103.838C479.421 103.838 551.017 199.273 633.065 197.782L649.472 133.668L527.152 33.7607L461.522 60.599L479.421 103.838Z" fill="#68BC8C"/>
<path d="M479.421 103.838C479.421 103.838 551.017 199.273 633.065 197.782" stroke="black" stroke-width="4" stroke-miterlimit="10" stroke-linecap="round"/>
<path d="M534.619 361.793C534.619 361.793 595.775 328.991 489.872 229.083L421.258 246.975L409.326 311.089L434.683 333.454L467.498 366.256L534.619 361.783V361.793Z" fill="#68BC8C"/>
<path d="M534.619 361.793C534.619 361.793 595.775 328.991 489.872 229.083" stroke="black" stroke-width="4" stroke-linecap="round" stroke-linejoin="round"/>
<path d="M486.404 3608C486.404 3608 496.129 3603.95 504.972 3604.84" stroke="black" stroke-width="4" stroke-linecap="round" stroke-linejoin="round"/>
<path d="M601.857 3697.66C601.857 3697.66 602.361 3703.92 601.857 3708.89" stroke="black" stroke-width="4" stroke-linecap="round" stroke-linejoin="round"/>
<path d="M333.235 3789.86C333.235 3789.86 327.879 3780.47 325.884 3769.53" stroke="black" stroke-width="4" stroke-linecap="round" stroke-linejoin="round"/>
<path d="M179.591 3686.98C179.591 3686.98 191.631 3687.43 198.101 3686.98" stroke="black" stroke-width="4" stroke-linecap="round" stroke-linejoin="round"/>
<path d="M236.272 3533.39H249.813" stroke="black" stroke-width="4" stroke-linecap="round" stroke-linejoin="round"/>
<path d="M843.505 3703.27C843.505 3703.27 847.699 3716.83 855.331 3722.75" stroke="black" stroke-width="4" stroke-linecap="round" stroke-linejoin="round"/>
<path d="M1038.81 3709.35C1038.81 3709.35 1040.4 3701.81 1040.78 3698.09C1040.78 3698.09 1073.6 3688.17 1059.06 3666.11" stroke="black" stroke-width="4" stroke-linecap="round" stroke-linejoin="round"/>
<path d="M1051.22 3629.28C1051.22 3629.28 1076.7 3622.84 1086.55 3610.93" stroke="black" stroke-width="4" stroke-linecap="round" stroke-linejoin="round"/>
<path d="M898.326 3534.21C898.326 3534.21 910.588 3526.03 920.961 3524.44" stroke="black" stroke-width="4" stroke-linecap="round" stroke-linejoin="round"/>
<path d="M774.775 3666.1C774.775 3666.1 790.176 3661.55 801.363 3656.33C801.363 3656.33 804.51 3631.12 836.124 3633.1C836.124 3633.1 872.213 3611.6 892.35 3638.43" stroke="black" stroke-width="4" stroke-linecap="round" stroke-linejoin="round"/>
<path d="M114.33 3292.58C114.33 3292.58 134.573 3296.23 153.973 3313.38" stroke="black" stroke-width="4" stroke-linecap="round" stroke-linejoin="round"/>
<path d="M259.023 3146.45C259.023 3146.45 261.367 3161.28 277.775 3172.47" stroke="black" stroke-width="4" stroke-linecap="round" stroke-linejoin="round"/>
<path d="M556.993 3095C556.993 3095 564.19 3098.65 572.393 3106.11" stroke="black" stroke-width="4" stroke-linecap="round" stroke-linejoin="round"/>
<path d="M642.014 3090.53V3097.9" stroke="black" stroke-width="4" stroke-linecap="round" stroke-linejoin="round"/>
<path d="M701.687 3148.69L688.747 3146.45C688.747 3146.45 671.11 3127.27 649.724 3137.38" stroke="black" stroke-width="4" stroke-linecap="round" stroke-linejoin="round"/>
<path d="M1326.65 3747.29C1326.65 3747.29 1350.15 3755.19 1370.34 3754.82" stroke="black" stroke-width="4" stroke-linecap="round" stroke-linejoin="round"/>
<path d="M1568.73 3590.8L1553.17 3604.14" stroke="black" stroke-width="4" stroke-linecap="round" stroke-linejoin="round"/>
<path d="M1540.49 3471.43C1540.49 3471.43 1553.66 3468.4 1559.78 3468.53" stroke="black" stroke-width="4" stroke-linecap="round" stroke-linejoin="round"/>
<path d="M1281.34 3205.93C1281.34 3205.93 1292.13 3213.47 1316.75 3217.2" stroke="black" stroke-width="4" stroke-linecap="round" stroke-linejoin="round"/>
<path d="M1236.58 3262.63C1236.58 3262.63 1236.94 3270.88 1243.65 3282.81" stroke="black" stroke-width="4" stroke-linecap="round" stroke-linejoin="round"/>
<path d="M1548.97 3151.67C1548.97 3151.67 1545.72 3160.54 1540.5 3172.47" stroke="black" stroke-width="4" stroke-linecap="round" stroke-linejoin="round"/>
<path d="M1559.78 3231.37C1559.78 3231.37 1568.45 3232.17 1575.82 3233.68" stroke="black" stroke-width="4" stroke-linecap="round" stroke-linejoin="round"/>
<path d="M1567.8 3282.81L1572.84 3295.67" stroke="black" stroke-width="4" stroke-linecap="round" stroke-linejoin="round"/>
<path d="M927.092 3245.82C927.092 3245.82 941.388 3227.73 961.728 3217.2" stroke="black" stroke-width="4" stroke-linecap="round" stroke-linejoin="round"/>
<path d="M928.419 3144.21C928.419 3144.21 948.294 3149.51 961.718 3148.69" stroke="black" stroke-width="4" stroke-linecap="round" stroke-linejoin="round"/>
<path d="M391.417 3065.18C391.417 3065.18 405.771 3074.05 418.605 3081.5" stroke="black" stroke-width="4" stroke-linecap="round" stroke-linejoin="round"/>
<path d="M130.737 3013.74C130.737 3013.74 164.405 3027.08 174.855 3030.81" stroke="black" stroke-width="4" stroke-linecap="round" stroke-linejoin="round"/>
<path d="M289.601 2911.6C289.601 2911.6 281.504 2901.08 277.775 2894.37" stroke="black" stroke-width="4" stroke-linecap="round" stroke-linejoin="round"/>
<path d="M503.025 2894.37C503.025 2894.37 518.783 2901.83 524.45 2902.98" stroke="black" stroke-width="4" stroke-linecap="round" stroke-linejoin="round"/>
<path d="M483.634 2831L490.395 2817.48" stroke="black" stroke-width="4" stroke-linecap="round" stroke-linejoin="round"/>
<path d="M289.601 2801.18C288.962 2799.69 299.045 2790.82 299.045 2790.82" stroke="black" stroke-width="4" stroke-linecap="round" stroke-linejoin="round"/>
<path d="M37.8809 2716.34C37.8809 2716.34 57.01 2710.13 68.197 2710.17" stroke="black" stroke-width="4" stroke-linecap="round" stroke-linejoin="round"/>
<path d="M109.215 2610.32L99.0454 2592.5" stroke="black" stroke-width="4" stroke-linecap="round" stroke-linejoin="round"/>
<path d="M348.151 2528.38C348.151 2528.38 353.11 2535.75 356.839 2546.19" stroke="black" stroke-width="4" stroke-linecap="round" stroke-linejoin="round"/>
<path d="M1145.02 2913.09C1145.02 2913.09 1133.26 2913.76 1118.35 2909.28" stroke="black" stroke-width="4" stroke-linecap="round" stroke-linejoin="round"/>
<path d="M1434.48 2884.01C1434.48 2884.01 1422.65 2874.09 1409.97 2864.47" stroke="black" stroke-width="4" stroke-linecap="round" stroke-linejoin="round"/>
<path d="M841.907 2932.47C841.907 2932.47 848.638 2913.98 866.77 2913.13" stroke="black" stroke-width="4" stroke-linecap="round" stroke-linejoin="round"/>
<path d="M934.385 2872.83C934.385 2872.83 937.107 2865.14 917.716 2864.47" stroke="black" stroke-width="4" stroke-linecap="round" stroke-linejoin="round"/>
<path d="M850.856 2865.38C850.856 2865.38 865.046 2866.04 866.77 2874.24" stroke="black" stroke-width="4" stroke-linecap="round" stroke-linejoin="round"/>
<path d="M1248.39 2832.57C1248.39 2832.57 1251.85 2820.68 1251.85 2807.58" stroke="black" stroke-width="4" stroke-linecap="round" stroke-linejoin="round"/>
<path d="M1404.28 2716.34C1404.28 2716.34 1391.34 2724.11 1369.71 2724.25" stroke="black" stroke-width="4" stroke-linecap="round" stroke-linejoin="round"/>
<path d="M1462.45 2644.69C1462.45 2644.69 1465.92 2626.72 1467.41 2614.04" stroke="black" stroke-width="4" stroke-linecap="round" stroke-linejoin="round"/>
<path d="M1325.21 2582.74C1325.21 2582.74 1337.63 2568.57 1345.83 2554.4" stroke="black" stroke-width="4" stroke-linecap="round" stroke-linejoin="round"/>
<path d="M1214.82 2465.26C1214.82 2465.26 1234.7 2464.2 1254.84 2475.38" stroke="black" stroke-width="4" stroke-linecap="round" stroke-linejoin="round"/>
<path d="M1553.44 2429.23C1553.44 2429.23 1542.74 2414.24 1513.65 2409.76" stroke="black" stroke-width="4" stroke-linecap="round" stroke-linejoin="round"/>
<path d="M1520.86 2289.81L1513.65 2306.87" stroke="black" stroke-width="4" stroke-linecap="round" stroke-linejoin="round"/>
<path d="M1384.87 2198.84C1384.87 2198.84 1369.7 2204.73 1362.99 2210.7" stroke="black" stroke-width="4" stroke-linecap="round" stroke-linejoin="round"/>
<path d="M1132.79 2169.02C1132.79 2169.02 1130.29 2183.11 1126.56 2192.06" stroke="black" stroke-width="4" stroke-linecap="round" stroke-linejoin="round"/>
<path d="M902.781 2350.27C902.781 2350.27 921.058 2347.14 934.298 2346.4" stroke="black" stroke-width="4" stroke-linecap="round" stroke-linejoin="round"/>
<path d="M595.775 3238.15C595.775 3238.15 572.655 3243.67 564.693 3223.54" stroke="black" stroke-width="4" stroke-linecap="round" stroke-linejoin="round"/>
<path d="M495.829 3160.61C495.829 3160.61 511.19 3141.31 524.45 3151.67C524.45 3151.67 544.683 3132.29 564.694 3159.46" stroke="black" stroke-width="4" stroke-linecap="round" stroke-linejoin="round"/>
<path d="M765.826 3590.05C765.826 3590.05 796.142 3602.06 816.278 3590.05" stroke="black" stroke-width="4" stroke-linecap="round" stroke-linejoin="round"/>
<path d="M251.566 2336.77L277.785 2314.33" stroke="black" stroke-width="4" stroke-linecap="round" stroke-linejoin="round"/>
<path d="M383.959 2301.72L410.168 2295.77" stroke="black" stroke-width="4" stroke-linecap="round" stroke-linejoin="round"/>
<path d="M540.586 2239.1L559.725 2248.35" stroke="black" stroke-width="4" stroke-linecap="round" stroke-linejoin="round"/>
<path d="M600.25 2459.79L584.956 2440.71" stroke="black" stroke-width="4" stroke-linecap="round" stroke-linejoin="round"/>
<path d="M725.553 2449.34L734.502 2436.23" stroke="black" stroke-width="4" stroke-linecap="round" stroke-linejoin="round"/>
<path d="M773.284 2386.72L769.187 2398.2" stroke="black" stroke-width="4" stroke-linecap="round" stroke-linejoin="round"/>
<path d="M673.347 2339.01L678.674 2355" stroke="black" stroke-width="4" stroke-linecap="round" stroke-linejoin="round"/>
<path d="M439.148 2418.03H460.515" stroke="black" stroke-width="4" stroke-linecap="round" stroke-linejoin="round"/>
<path d="M358.97 2180.21L363.183 2165.4" stroke="black" stroke-width="4" stroke-linecap="round" stroke-linejoin="round"/>
<path d="M1364.37 2078.42L1333.15 2094.02" stroke="black" stroke-width="4" stroke-linecap="round" stroke-linejoin="round"/>
<path d="M1321.97 1920.63L1347.96 1910.31" stroke="black" stroke-width="4" stroke-linecap="round" stroke-linejoin="round"/>
<path d="M1076.1 1988.6C1076.1 1988.6 1062.41 2013.61 1044.51 1999.02" stroke="black" stroke-width="4" stroke-linecap="round" stroke-linejoin="round"/>
<path d="M941.843 1978.17C941.843 1978.17 955.18 1949.76 978.029 1960.94C978.029 1960.94 985.216 1951.25 993.042 1958.34" stroke="black" stroke-width="4" stroke-linecap="round" stroke-linejoin="round"/>
<path d="M1077.59 1918.52C1077.59 1918.52 1067.22 1914.81 1049.15 1925.57" stroke="black" stroke-width="4" stroke-linecap="round" stroke-linejoin="round"/>
<path d="M375.504 1968.09L369.896 1988.6" stroke="black" stroke-width="4" stroke-linecap="round" stroke-linejoin="round"/>
<path d="M392.908 2087.01C392.908 2087.01 384.269 2077.24 380.995 2068.29Z" fill="#48C19B"/>
<path d="M392.908 2087.01C392.908 2087.01 384.269 2077.24 380.995 2068.29" stroke="black" stroke-width="4" stroke-linecap="round" stroke-linejoin="round"/>
<path d="M225.831 2078.81C225.831 2078.81 199.834 2059.35 176.337 2041.46Z" fill="#48C19B"/>
<path d="M225.831 2078.81C225.831 2078.81 199.834 2059.35 176.337 2041.46" stroke="black" stroke-width="4" stroke-linecap="round" stroke-linejoin="round"/>
<path d="M244.592 1692.54L240.756 1669.5" stroke="black" stroke-width="4" stroke-linecap="round" stroke-linejoin="round"/>
<path d="M579.105 1719.38L576.384 1697.84" stroke="black" stroke-width="4" stroke-linecap="round" stroke-linejoin="round"/>
<path d="M160.937 1757.48L176.347 1762.95" stroke="black" stroke-width="4" stroke-linecap="round" stroke-linejoin="round"/>
<path d="M678.674 1757.48C678.674 1757.48 684.389 1745.55 694.229 1733.62Z" fill="#48C19B"/>
<path d="M678.674 1757.48C678.674 1757.48 684.389 1745.55 694.229 1733.62" stroke="black" stroke-width="4" stroke-linecap="round" stroke-linejoin="round"/>
<path d="M452.853 3365.32C557.448 3365.32 530.406 3300.65 530.406 3300.65C530.406 3300.65 519.055 3270.63 503.025 3256.47" stroke="black" stroke-width="4" stroke-linecap="round" stroke-linejoin="round"/>
<path d="M1182.5 1624.27L1210.83 1633.02" stroke="black" stroke-width="4" stroke-linecap="round" stroke-linejoin="round"/>
<path d="M1187.98 1749.28C1187.98 1749.28 1217.55 1732.55 1224.26 1726.96" stroke="black" stroke-width="4" stroke-linecap="round" stroke-linejoin="round"/>
<path d="M1378.91 1733.62C1378.91 1733.62 1348.44 1730.32 1331.65 1726.96" stroke="black" stroke-width="4" stroke-linecap="round" stroke-linejoin="round"/>
<path d="M1551.95 1650.11C1551.95 1650.11 1552.06 1634.13 1547.58 1621.83" stroke="black" stroke-width="4" stroke-linecap="round" stroke-linejoin="round"/>
<path d="M1611.62 1512.93C1611.62 1512.93 1611.36 1552.49 1575.55 1549.14" stroke="black" stroke-width="4" stroke-linecap="round" stroke-linejoin="round"/>
<path d="M1589.24 1408.56C1589.24 1408.56 1573.32 1390.34 1562.13 1406" stroke="black" stroke-width="4" stroke-linecap="round" stroke-linejoin="round"/>
<path d="M1478.86 1331.02L1460.32 1341.14" stroke="black" stroke-width="4" stroke-linecap="round" stroke-linejoin="round"/>
<path d="M308.198 1518.15C308.198 1518.15 321.409 1495.46 344.906 1507.76" stroke="black" stroke-width="4" stroke-linecap="round" stroke-linejoin="round"/>
<path d="M816.55 1410.04C816.55 1410.04 802.486 1417.18 793.537 1425Z" fill="#68BC8C"/>
<path d="M816.55 1410.04C816.55 1410.04 802.486 1417.18 793.537 1425" stroke="black" stroke-width="4" stroke-linecap="round" stroke-linejoin="round"/>
<path d="M734.619 1362.57C734.619 1362.57 715.218 1355.67 679.42 1359.02Z" fill="#68BC8C"/>
<path d="M734.619 1362.57C734.619 1362.57 715.218 1355.67 679.42 1359.02" stroke="black" stroke-width="4" stroke-linecap="round" stroke-linejoin="round"/>
<path d="M645.007 1523.38C645.007 1523.38 650.334 1505.53 673.831 1493.23Z" fill="#68BC8C"/>
<path d="M645.007 1523.38C645.007 1523.38 650.334 1505.53 673.831 1493.23" stroke="black" stroke-width="4" stroke-linecap="round" stroke-linejoin="round"/>
<path d="M882.18 1498.02C882.18 1498.02 861.782 1503.29 836.047 1505.52Z" fill="#68BC8C"/>
<path d="M882.18 1498.02C882.18 1498.02 861.782 1503.29 836.047 1505.52" stroke="black" stroke-width="4" stroke-linecap="round" stroke-linejoin="round"/>
<path d="M376.869 1383.95C376.869 1383.95 376.23 1372.44 378.467 1354.54Z" fill="#68BC8C"/>
<path d="M376.869 1383.95C376.869 1383.95 376.23 1372.44 378.467 1354.54" stroke="black" stroke-width="4" stroke-linecap="round" stroke-linejoin="round"/>
<path d="M1262.93 1075.29C1258.94 1076.08 1246.63 1076.08 1228.73 1081.68Z" fill="#68BC8C"/>
<path d="M1262.93 1075.29C1258.94 1076.08 1246.63 1076.08 1228.73 1081.68" stroke="black" stroke-width="4" stroke-linecap="round" stroke-linejoin="round"/>
<path d="M1401.66 1251.25C1401.66 1251.25 1388.72 1263.97 1370.82 1272.92Z" fill="#68BC8C"/>
<path d="M1401.66 1251.25C1401.66 1251.25 1388.72 1263.97 1370.82 1272.92" stroke="black" stroke-width="4" stroke-linecap="round" stroke-linejoin="round"/>
<path d="M1025.88 1284.29C1025.88 1284.29 1043.02 1293.04 1058.68 1297.51Z" fill="#68BC8C"/>
<path d="M1025.88 1284.29C1025.88 1284.29 1043.02 1293.04 1058.68 1297.51" stroke="black" stroke-width="4" stroke-linecap="round" stroke-linejoin="round"/>
<path d="M1107.8 1032.05C1107.8 1032.05 1078.82 1043.66 1060.92 1060.43Z" fill="#68BC8C"/>
<path d="M1107.8 1032.05C1107.8 1032.05 1078.82 1043.66 1060.92 1060.43" stroke="black" stroke-width="4" stroke-linecap="round" stroke-linejoin="round"/>
<path d="M800.132 1219.18C800.132 1219.18 785.701 1206.93 794.65 1191.27Z" fill="#68BC8C"/>
<path d="M800.132 1219.18C800.132 1219.18 785.701 1206.93 794.65 1191.27" stroke="black" stroke-width="4" stroke-linecap="round" stroke-linejoin="round"/>
<path d="M958.261 1137.18C958.261 1137.18 940.1 1109.64 902.055 1128.65Z" fill="#68BC8C"/>
<path d="M958.261 1137.18C958.261 1137.18 940.1 1109.64 902.055 1128.65" stroke="black" stroke-width="4" stroke-linecap="round" stroke-linejoin="round"/>
<path d="M835.94 1096.91L848.348 1101.81" stroke="black" stroke-width="4" stroke-linecap="round" stroke-linejoin="round"/>
<path d="M773.284 1128.23L783.463 1137.59" stroke="black" stroke-width="4" stroke-linecap="round" stroke-linejoin="round"/>
<path d="M382.409 1187.17C382.409 1187.17 376.23 1187.92 363.919 1194.63Z" fill="#68BC8C"/>
<path d="M382.409 1187.17C382.409 1187.17 376.23 1187.92 363.919 1194.63" stroke="black" stroke-width="4" stroke-linecap="round" stroke-linejoin="round"/>
<path d="M326.949 1265.58C326.949 1265.58 320.295 1259.5 313.583 1250.55Z" fill="#68BC8C"/>
<path d="M326.949 1265.58C326.949 1265.58 320.295 1259.5 313.583 1250.55" stroke="black" stroke-width="4" stroke-linecap="round" stroke-linejoin="round"/>
<path d="M99.4619 1100.48C99.4619 1100.48 116.673 1108.52 133.459 1109.64Z" fill="#68BC8C"/>
<path d="M99.4619 1100.48C99.4619 1100.48 116.673 1108.52 133.459 1109.64" stroke="black" stroke-width="4" stroke-linecap="round" stroke-linejoin="round"/>
<path d="M165.102 948.748C165.102 948.748 180.453 953.076 189.403 959.785Z" fill="#68BC8C"/>
<path d="M165.102 948.748C165.102 948.748 180.453 953.076 189.403 959.785" stroke="black" stroke-width="4" stroke-linecap="round" stroke-linejoin="round"/>
<path d="M227.749 885.38C227.749 885.38 224.078 891.567 221.84 898.276Z" fill="#68BC8C"/>
<path d="M227.749 885.38C227.749 885.38 224.078 891.567 221.84 898.276" stroke="black" stroke-width="4" stroke-linecap="round" stroke-linejoin="round"/>
<path d="M348.955 881.652C348.955 881.652 367.29 889.33 375.116 893.803Z" fill="#68BC8C"/>
<path d="M348.955 881.652C348.955 881.652 367.29 889.33 375.116 893.803" stroke="black" stroke-width="4" stroke-linecap="round" stroke-linejoin="round"/>
<path d="M502.221 912.218L481.396 925.114" stroke="black" stroke-width="4" stroke-linecap="round" stroke-linejoin="round"/>
<path d="M430.818 1047.71C433.288 1047.01 456.776 1045.9 456.776 1045.9Z" fill="#68BC8C"/>
<path d="M430.818 1047.71C433.288 1047.01 456.776 1045.9 456.776 1045.9" stroke="black" stroke-width="4" stroke-linecap="round" stroke-linejoin="round"/>
<path d="M1191.34 926.179C1191.34 926.179 1177.27 929.587 1159.37 931.824Z" fill="#68BC8C"/>
<path d="M1191.34 926.179C1191.34 926.179 1177.27 929.587 1159.37 931.824" stroke="black" stroke-width="4" stroke-linecap="round" stroke-linejoin="round"/>
<path d="M673.347 810.616C673.347 810.616 677.183 787.554 640.271 787.554Z" fill="#68BC8C"/>
<path d="M673.347 810.616C673.347 810.616 677.183 787.554 640.271 787.554" stroke="black" stroke-width="4" stroke-linecap="round" stroke-linejoin="round"/>
<path d="M506.27 797.197C506.27 797.197 511.597 786.431 527.258 785.318Z" fill="#5FAF87"/>
<path d="M506.27 797.197C506.27 797.197 511.597 786.431 527.258 785.318" stroke="black" stroke-width="4" stroke-linecap="round" stroke-linejoin="round"/>
<path d="M492.845 712.21C492.845 712.21 509.359 714.872 517.195 720.459Z" fill="#5FAF87"/>
<path d="M492.845 712.21C492.845 712.21 509.359 714.872 517.195 720.459" stroke="black" stroke-width="4" stroke-linecap="round" stroke-linejoin="round"/>
<path d="M646.489 703.264C646.489 703.264 632.425 700.33 613.412 703.69Z" fill="#5FAF87"/>
<path d="M646.489 703.264C646.489 703.264 632.425 700.33 613.412 703.69" stroke="black" stroke-width="4" stroke-linecap="round" stroke-linejoin="round"/>
<path d="M291.839 689.099C291.839 689.099 306.861 680.201 314.697 680.201" stroke="black" stroke-width="4" stroke-linecap="round" stroke-linejoin="round"/>
<path d="M293.33 788.997C293.33 788.997 303.51 794.264 311.336 796.5" stroke="black" stroke-width="4" stroke-linecap="round" stroke-linejoin="round"/>
<path d="M409.684 541.479C409.684 541.479 424.338 534.818 432.164 548.237" stroke="black" stroke-width="4" stroke-linecap="round" stroke-linejoin="round"/>
<path d="M1163.63 624.511C1163.63 624.511 1170.73 584.312 1214.83 585.29" stroke="black" stroke-width="4" stroke-linecap="round" stroke-linejoin="round"/>
<path d="M1180.52 806.143L1148.19 805.446" stroke="black" stroke-width="4" stroke-linecap="round" stroke-linejoin="round"/>
<path d="M1085.05 828.518C1085.05 828.518 1091.12 822.225 1093.36 815.515" stroke="black" stroke-width="4" stroke-linecap="round" stroke-linejoin="round"/>
<path d="M1378.91 676.425L1387.6 655.59" stroke="black" stroke-width="4" stroke-linecap="round" stroke-linejoin="round"/>
<path d="M1298.64 476.61C1298.64 476.61 1279.08 477.782 1262.29 485.605" stroke="black" stroke-width="4" stroke-linecap="round" stroke-linejoin="round"/>
<path d="M952.285 482.574L968.063 491.201" stroke="black" stroke-width="4" stroke-linecap="round" stroke-linejoin="round"/>
<path d="M1150.69 442.317L1132.52 456.53" stroke="black" stroke-width="4" stroke-linecap="round" stroke-linejoin="round"/>
<path d="M880.688 510.904L865.133 506.857" stroke="black" stroke-width="4" stroke-linecap="round" stroke-linejoin="round"/>
<path d="M810.574 525.823L825.974 521.399" stroke="black" stroke-width="4" stroke-linecap="round" stroke-linejoin="round"/>
<path d="M752.779 435.608L762.203 427.455" stroke="black" stroke-width="4" stroke-linecap="round" stroke-linejoin="round"/>
<path d="M849.365 412.865C849.365 412.865 820.385 407.317 815.911 428.569" stroke="black" stroke-width="4" stroke-linecap="round" stroke-linejoin="round"/>
<path d="M897.096 435.608C897.096 435.608 903.169 446.471 886.393 455.417" stroke="black" stroke-width="4" stroke-linecap="round" stroke-linejoin="round"/>
<path d="M1203.27 302.898L1181.75 296.605" stroke="black" stroke-width="4" stroke-linecap="round" stroke-linejoin="round"/>
<path d="M1122.71 120.985L1121.33 135.566" stroke="black" stroke-width="4" stroke-linecap="round" stroke-linejoin="round"/>
<path d="M972.537 72.9434L978.029 62.8258" stroke="black" stroke-width="4" stroke-linecap="round" stroke-linejoin="round"/>
<path d="M958.261 286.69C958.261 286.69 962.474 273.126 969.186 261.944" stroke="black" stroke-width="4" stroke-linecap="round" stroke-linejoin="round"/>
<path d="M767.443 227.205C764.451 229.5 736.478 244.042 699.557 241.805" stroke="black" stroke-width="4" stroke-linecap="round" stroke-linejoin="round"/>
<path d="M491.354 388.631L506.008 380.489" stroke="black" stroke-width="4" stroke-linecap="round" stroke-linejoin="round"/>
<path d="M330.814 167.923C330.814 167.923 348.268 168 366.167 172.473" stroke="black" stroke-width="4" stroke-linecap="round" stroke-linejoin="round"/>
</g>
<defs>
<clipPath id="clip0_2118_112">
<rect width="1630" height="4030" fill="white"/>
</clipPath>
</defs>
</svg>
