<svg width="389" height="225" viewBox="0 0 389 225" fill="none" xmlns="http://www.w3.org/2000/svg">
<path d="M197.141 247.277C182.801 249.598 168.621 245.108 161.161 229.748C149.161 205.048 161.871 198.687 131.511 189.517C101.161 180.337 121.631 153.628 127.981 138.748C134.331 123.868 130.101 116.108 98.3407 89.9875C82.9307 77.3175 86.0408 50.3575 101.751 39.2175C116.521 28.7475 133.581 34.6475 144.981 46.8675C155.981 58.6575 160.571 78.0775 176.531 84.7875C188.931 89.9975 202.371 85.6975 208.961 100.457C212.411 108.167 212.371 116.978 211.461 125.378C209.451 143.908 211.111 152.427 229.621 158.457C242.941 162.807 238.591 183.888 237.011 193.938C234.361 210.798 234.821 228.137 218.901 238.587C212.231 242.967 204.661 246.057 197.131 247.267L197.141 247.277Z" fill="#68BC8C" stroke="black" stroke-width="4" stroke-linecap="round" stroke-linejoin="round"/>
<path d="M125.17 67.4175C125.17 67.4175 180.93 121.057 192.93 220.587L125.17 67.4175Z" fill="#68BC8C"/>
<path d="M125.17 67.4175C125.17 67.4175 180.93 121.057 192.93 220.587" stroke="black" stroke-width="4" stroke-linecap="round" stroke-linejoin="round"/>
<path d="M229.631 216.027C223.301 200.557 200.691 204.408 209.161 183.618C209.161 183.618 201.851 159.218 178.921 170.008C165.781 176.188 141.871 161.707 133.821 143.707C125.771 125.707 90.0608 116.887 71.7108 134.527C71.7108 134.527 64.6608 140.937 46.3008 139.467C11.0108 136.647 -2.39912 151.468 3.24088 171.938C8.89088 192.408 47.0009 191.698 47.0009 191.698C47.0009 191.698 65.3509 193.108 66.7609 215.698C68.1709 238.288 99.7909 255.927 136.531 240.397C136.531 240.397 151.981 231.217 171.241 244.797C185.751 255.027 198.801 253.538 215.511 247.868C225.911 244.338 235.961 231.478 229.631 216.008V216.027Z" fill="#68BC8C" stroke="black" stroke-width="4" stroke-linecap="round" stroke-linejoin="round"/>
<path d="M44.1807 163.347C44.1807 163.347 95.7707 155.117 182.241 204.417" stroke="black" stroke-width="3" stroke-linecap="round" stroke-linejoin="round"/>
<path d="M201.401 241.827C201.401 241.827 219.751 263.697 252.221 247.817C284.691 231.937 264.931 229.827 310.801 226.997C356.681 224.177 357.391 204.477 370.091 183.617C382.801 162.767 394.791 147.937 377.851 134.527C360.911 121.117 331.971 134.527 331.971 134.527C331.971 134.527 312.911 147.937 300.211 146.877C287.501 145.817 264.921 144.407 255.741 170.527C255.741 170.527 243.031 203.567 215.511 202.867C187.981 202.167 201.391 241.807 201.391 241.807L201.401 241.827Z" fill="#68BC8C" stroke="black" stroke-width="4" stroke-linecap="round" stroke-linejoin="round"/>
<path d="M345.391 162.837C345.391 162.837 287.881 203.477 228.221 227.007L345.391 162.837Z" fill="#68BC8C"/>
<path d="M345.391 162.837C345.391 162.837 287.881 203.477 228.221 227.007" stroke="black" stroke-width="4" stroke-linecap="round" stroke-linejoin="round"/>
<path d="M239.631 6.16735C240.701 6.73735 241.721 7.35733 242.661 8.02733C257.701 18.6773 259.611 40.3274 256.611 56.6174C255.091 64.8574 253.591 74.4773 255.971 82.7273C260.601 98.7473 272.711 109.687 272.821 127.127C272.921 142.207 265.111 154.097 252.181 162.137C236.751 171.727 238.151 204.517 233.931 219.767C231.411 228.857 227.801 239.777 218.981 244.947C206.601 252.217 188.821 245.167 186.401 230.677C183.881 215.577 199.711 199.997 193.211 185.687C188.811 176.007 174.331 173.067 165.331 168.957C162.141 167.497 159.311 164.917 158.471 161.597C157.931 159.457 158.261 157.207 158.761 155.057C162.901 137.337 175.311 124.747 170.381 105.367C167.721 94.9074 164.101 84.0274 170.281 74.1174C173.661 68.7074 178.251 64.1174 182.151 59.0474C194.031 43.5874 192.551 14.7973 210.771 4.83733C219.311 0.167329 231.301 1.72734 239.641 6.15734L239.631 6.16735Z" fill="#68BC8C" stroke="black" stroke-width="4" stroke-linecap="round" stroke-linejoin="round"/>
<path d="M222.551 40.0972C222.551 40.0972 213.421 136.567 208.081 216.067L222.551 40.0972Z" fill="#68BC8C"/>
<path d="M222.551 40.0972C222.551 40.0972 213.421 136.567 208.081 216.067" stroke="black" stroke-width="4" stroke-linecap="round" stroke-linejoin="round"/>
<path d="M194.321 248.868C177.911 232.948 180.751 201.258 190.111 182.678C195.861 171.258 204.881 161.737 215.761 155.077C225.121 149.347 231.101 144.327 233.141 132.967C236.391 114.857 229.241 92.8875 251.141 84.5075C258.221 81.7975 266.261 81.9675 272.991 78.4775C282.831 73.3575 285.711 62.3575 293.481 55.2375C299.281 49.9275 306.711 45.9775 314.491 44.6275C331.041 41.7475 342.571 52.2675 342.571 68.8975C342.571 74.1075 341.281 79.3775 339.201 84.1475C334.381 95.1875 323.281 99.5875 318.421 109.998C307.841 132.668 314.901 163.627 295.981 182.537C274.811 203.707 262.101 185.357 249.401 212.887C243.391 225.907 236.851 242.408 223.741 249.928C210.831 257.327 201.071 255.418 194.331 248.878L194.321 248.868Z" fill="#68BC8C" stroke="black" stroke-width="4" stroke-linecap="round" stroke-linejoin="round"/>
<path d="M306.571 78.0674C306.571 78.0674 260.691 125.357 215.521 215.707L306.571 78.0674Z" fill="#68BC8C"/>
<path d="M306.571 78.0674C306.571 78.0674 260.691 125.357 215.521 215.707" stroke="black" stroke-width="4" stroke-linecap="round" stroke-linejoin="round"/>
</svg>
