<svg width="46" height="31" viewBox="0 0 46 31" fill="none" xmlns="http://www.w3.org/2000/svg">
<path d="M9.31299 21.5107C9.31299 21.5107 12.033 29.4707 20.173 28.7807C28.313 28.0907 25.903 7.81066 25.903 7.81066C25.903 7.81066 25.343 3.25068 21.093 2.21068C16.843 1.17068 12.4531 4.17067 10.7531 10.7007C10.8331 10.3907 6.80297 10.6407 6.54297 10.7107C3.25297 11.5607 0.282967 15.8606 3.16297 18.7306C4.72297 20.2906 7.17299 21.1307 9.31299 21.5107Z" fill="#C19181" stroke="black" stroke-width="4" stroke-linecap="round" stroke-linejoin="round"/>
<path d="M25.8927 7.81067C25.8927 7.81067 27.3827 20.3506 24.0527 26.0406C29.8327 26.6306 40.0428 26.1207 43.9828 16.2307C43.9828 16.2307 43.4928 7.1207 25.3428 5.9707C25.7828 6.9907 25.8828 7.81067 25.8828 7.81067H25.8927Z" fill="#91665A" stroke="black" stroke-width="4" stroke-linecap="round" stroke-linejoin="round"/>
</svg>
