<svg width="39" height="40" viewBox="0 0 39 40" fill="none" xmlns="http://www.w3.org/2000/svg">
<path d="M25.8297 4.55121C25.8297 4.55121 20.9097 0.861206 15.1497 4.51121C9.38969 8.16121 8.48975 12.8512 18.9597 21.8712C29.4297 30.8912 34.0898 25.0612 35.8898 20.8612C37.6898 16.6612 33.2598 10.1312 33.2598 10.1312C33.2598 10.1312 37.3797 5.9512 34.4597 3.0012C31.5397 0.0511957 25.8297 4.56119 25.8297 4.56119V4.55121Z" fill="#C19181" stroke="black" stroke-width="4" stroke-linecap="round" stroke-linejoin="round"/>
<path d="M18.9596 21.8711C13.6996 17.3411 11.3196 13.9011 10.9696 11.1411C7.68963 13.8311 -2.14039 23.2811 3.94961 35.5111C3.94961 35.5111 17.5296 44.8511 28.3496 26.6111C25.9196 26.5111 22.8396 25.2111 18.9596 21.8711Z" fill="#91665A" stroke="black" stroke-width="4" stroke-linecap="round" stroke-linejoin="round"/>
</svg>
