<svg width="44" height="46" viewBox="0 0 44 46" fill="none" xmlns="http://www.w3.org/2000/svg">
<path d="M29.6297 4.96226C29.6297 4.96226 23.9197 0.682208 17.2497 4.91221C10.5797 9.14221 9.52964 14.5822 21.6696 25.0422C33.8096 35.5022 39.2096 28.7422 41.2996 23.8722C43.3896 19.0022 38.2497 11.4322 38.2497 11.4322C38.2497 11.4322 43.0296 6.58221 39.6396 3.16221C36.2596 -0.257792 29.6396 4.96226 29.6396 4.96226H29.6297Z" fill="#C19181" stroke="black" stroke-width="4" stroke-linecap="round" stroke-linejoin="round"/>
<path d="M21.6595 25.0422C15.5595 19.7822 12.7995 15.8023 12.3995 12.5923C8.59954 15.7123 -2.80047 26.6622 4.25953 40.8522C4.25953 40.8522 20.0096 51.6822 32.5496 30.5322C29.7296 30.4122 26.1595 28.9122 21.6595 25.0322V25.0422Z" fill="#91665A" stroke="black" stroke-width="4" stroke-linecap="round" stroke-linejoin="round"/>
</svg>
