<svg width="63" height="84" viewBox="0 0 63 84" fill="none" xmlns="http://www.w3.org/2000/svg">
<path d="M32.49 20.2745C32.49 20.2745 36.07 -1.73548 45.91 2.55452C55.75 6.84452 45.91 22.9545 45.91 22.9545C45.91 22.9545 58.26 15.2645 58.08 22.9545C57.9 30.6445 46.45 32.9745 46.45 32.9745C46.45 32.9745 47.34 57.4945 36.25 54.9845C36.25 54.9845 31.42 55.1645 31.06 41.0245C31.06 41.0245 25.15 56.2345 16.92 48.5445C8.68996 40.8545 28.01 30.4745 28.01 30.4745C28.01 30.4745 12.8 24.3945 17.99 14.0145C23.18 3.63455 32.48 20.2745 32.48 20.2745H32.49Z" fill="#FFC2DB" stroke="black" stroke-width="4" stroke-linecap="round" stroke-linejoin="round"/>
<path d="M34.26 28.7246C34.43 27.9246 34.67 27.1446 34.99 26.3846C35.59 24.9446 36.31 22.8746 37.64 21.9646C40.25 20.1746 41.65 23.5446 41.9 25.6746C42.32 29.2546 40.8 33.2546 38.35 35.8646C35.92 38.4546 34.5 36.5146 34.1 33.7446C33.86 32.0746 33.9 30.3746 34.25 28.7246H34.26Z" fill="#FFEDA1"/>
<path d="M33.9499 80.2143C33.9499 80.2143 26.5799 61.4243 31.0799 41.9243" stroke="black" stroke-width="4" stroke-miterlimit="10"/>
<path d="M34.06 81.1144C33.89 81.1144 32.69 78.3444 32.57 78.1344C31.1 75.5144 29.36 73.0444 27.41 70.7644C24.74 67.6244 21.65 64.8344 18.23 62.5344C16.29 61.2344 2 52.6744 2 59.2944C2 62.1544 3.79 62.5144 8.98 70.9244C14.17 79.3344 20.5 81.1244 34.07 81.1244L34.06 81.1144Z" fill="#A9FFD4" stroke="black" stroke-width="4" stroke-miterlimit="10"/>
<path d="M33.3101 81.0844C32.2301 81.0344 35.0701 72.5545 35.2301 72.1945C37.5701 67.0345 41.0601 62.4844 44.9501 58.4144C48.5401 54.6544 53.1801 51.6644 56.3901 47.5944C58.0001 45.5544 61.9401 45.5545 59.9701 52.1845C58.0001 58.8145 54.4201 82.1044 33.3101 81.0844Z" fill="#A9FFD4" stroke="black" stroke-width="4" stroke-miterlimit="10"/>
</svg>
