<svg width="50" height="79" viewBox="0 0 50 79" fill="none" xmlns="http://www.w3.org/2000/svg">
<path d="M17.9293 17.7617C17.9293 17.7617 18.7093 -3.40827 31.6893 3.32173C31.6893 3.32173 37.5793 5.95173 32.7293 18.1617C32.7293 18.1617 46.2793 11.5317 46.6193 21.6217C46.9593 31.7117 30.8193 27.7717 30.8193 27.7717C30.8193 27.7717 35.0593 45.7817 25.1693 46.3417C15.2793 46.9017 20.0293 30.9817 20.0293 30.9817C20.0293 30.9817 13.2393 46.2217 4.54929 40.4317C-4.14071 34.6417 13.3893 25.6517 13.3893 25.6517C13.3893 25.6517 -0.100705 22.4017 5.20929 16.1717C10.5193 9.94174 17.9193 17.7517 17.9193 17.7517L17.9293 17.7617Z" fill="#FFE964" stroke="black" stroke-width="4" stroke-linecap="round" stroke-linejoin="round"/>
<path d="M25.7192 26.9917C25.2892 27.6317 24.7891 28.1517 24.2591 28.4817C17.5291 32.7117 17.2791 20.1517 23.6991 19.0417C28.4391 18.2217 27.8092 23.9217 25.7192 26.9917Z" fill="#FF8AB7"/>
<path d="M18.9492 42.4717C18.9492 42.4717 16.6492 53.5217 26.3992 72.1917" stroke="black" stroke-width="4" stroke-linecap="round" stroke-linejoin="round"/>
<path d="M26.9093 73.2316C26.9093 73.2316 23.9393 57.5816 39.5593 46.7616C39.5593 46.7616 43.8593 43.6616 45.2493 41.8416C46.6393 40.0316 48.5293 38.6416 46.8493 47.4416C45.1693 56.2416 42.2493 65.2116 32.3493 73.8916C32.3493 73.8916 31.1893 75.0916 29.4393 75.0516C27.6893 75.0016 26.9193 73.2316 26.9193 73.2316H26.9093Z" fill="#88D1B3" stroke="black" stroke-width="4" stroke-linecap="round" stroke-linejoin="round"/>
<path d="M26.5792 73.6617C23.9492 69.1817 21.3692 64.7618 17.5192 61.1118C15.5892 59.2818 13.4192 57.6718 11.0292 56.4818C8.60922 55.2718 5.99922 54.5418 3.58922 53.2618C1.79922 52.3118 1.9692 53.3317 2.0392 54.8217C2.2792 60.0717 3.55921 64.6618 6.95921 68.7618C10.4292 72.9318 15.3892 75.3217 20.7692 75.7517C20.7692 75.7517 28.8292 77.5018 26.5792 73.6718V73.6617Z" fill="#88D1B3" stroke="black" stroke-width="4" stroke-linecap="round" stroke-linejoin="round"/>
</svg>
