<svg width="49" height="68" viewBox="0 0 49 68" fill="none" xmlns="http://www.w3.org/2000/svg">
<path d="M19.0199 17.6927C19.0199 17.6927 19.0199 9.03268 16.2699 8.48268C13.5199 7.93268 9.66988 19.8927 12.8299 29.5127C15.9899 39.1327 23.8299 42.2927 30.8399 37.6227C37.8499 32.9527 40.4598 15.7627 36.4798 6.2827C36.4798 6.2827 35.1099 3.67269 33.1799 7.24269C31.2499 10.8127 28.3699 18.1027 28.3699 18.1027C28.3699 18.1027 30.0199 2.70269 26.7199 2.02269C23.4199 1.33269 19.0199 17.6927 19.0199 17.6927Z" fill="#FFD88A" stroke="black" stroke-width="4" stroke-linecap="round" stroke-linejoin="round"/>
<path d="M37.7401 53.4027C37.7401 53.4027 30.8601 66.6527 24.9801 65.9127C24.9801 65.9127 23.7201 66.1327 22.8701 65.2527C23.2801 64.8827 23.6001 64.2327 23.7301 63.2027C23.7301 63.2027 23.6101 62.5427 23.3401 61.4127C24.6501 57.2127 27.7502 49.3827 34.5302 40.4927C44.6302 27.2227 45.5601 27.9627 46.6401 28.2927C47.7201 28.6327 46.3201 37.0827 37.7401 53.4027Z" fill="#88D1B3" stroke="black" stroke-width="4" stroke-linecap="round" stroke-linejoin="round"/>
<path d="M23.72 63.2026C23.59 64.2326 23.27 64.8826 22.86 65.2526C21.59 66.4326 19.46 65.0426 19.46 65.0426C2.28002 53.8226 2 39.4226 2 36.5326C2 33.6426 4.34003 35.1526 4.34003 35.1526C17.3 41.4726 22.03 56.2726 23.33 61.4026C23.61 62.5326 23.72 63.1926 23.72 63.1926V63.2026Z" fill="#88D1B3" stroke="black" stroke-width="4" stroke-linecap="round" stroke-linejoin="round"/>
<path d="M24.9999 56.8227V39.7127C24.1399 39.7727 23.29 39.7127 22.46 39.5527V58.3827C22.84 59.5627 23.13 60.6027 23.33 61.3927C23.71 60.1627 24.2599 58.6027 24.9999 56.8127V56.8227Z" fill="#88D1B3" stroke="black" stroke-width="4" stroke-linecap="round" stroke-linejoin="round"/>
</svg>
