<svg width="96" height="45" viewBox="0 0 96 45" fill="none" xmlns="http://www.w3.org/2000/svg">
<path d="M79.6749 37.3081H14.9249C7.55488 37.3081 1.58487 29.5881 3.29487 22.4481C5.57487 12.9281 19.9149 20.5981 25.0549 22.7481C24.4749 22.5081 27.7648 15.3081 28.0048 14.8481C32.8048 5.89811 44.1548 0.908101 53.6148 6.1081C59.9248 9.5681 56.2549 16.3781 52.9149 20.7281C53.7949 19.5781 61.6349 17.4181 63.8049 17.0781C67.1149 16.5581 72.8249 16.3081 75.0849 19.3981C77.1849 22.2781 74.6349 25.9381 72.0749 27.4881C72.0749 27.4881 89.9649 22.1081 92.1849 28.4381C94.4049 34.7681 84.9049 37.3081 79.6749 37.3081Z" fill="#13A381" stroke="black" stroke-width="4" stroke-linecap="round" stroke-linejoin="round"/>
</svg>
