<svg width="101" height="37" viewBox="0 0 101 37" fill="none" xmlns="http://www.w3.org/2000/svg">
<path d="M22.6723 34.9438H83.4523C83.4523 34.9438 91.1322 33.9838 95.9323 27.9038C100.732 21.8238 100.412 12.7238 73.8623 21.4338C73.8623 21.4338 78.3422 8.39384 67.1423 9.35384C55.9422 10.3138 48.5823 19.2738 48.5823 19.2738C48.5823 19.2738 48.5823 2.32385 39.3023 2.00385C30.0223 1.68385 29.7023 21.4438 29.7023 21.4438C29.7023 21.4438 9.55225 9.35384 3.47225 18.4738C-2.60775 27.5938 12.1123 33.0338 12.1123 33.0338C12.1123 33.0338 15.3123 34.9538 22.6723 34.9538V34.9438Z" fill="#13A381" stroke="black" stroke-width="4" stroke-linecap="round" stroke-linejoin="round"/>
</svg>
