<svg width="323" height="136" viewBox="0 0 323 136" fill="none" xmlns="http://www.w3.org/2000/svg">
<path d="M2 133.61H317.1C317.1 133.61 334.73 92.2096 284.13 93.7396C284.13 93.7396 303.3 63.8396 278.76 53.1096C254.23 42.3796 222.03 60.0096 222.03 60.0096C222.03 60.0096 241.96 7.87964 189.83 2.50964C137.7 -2.86036 76.36 34.7096 61.03 91.4396C61.03 91.4396 69.4601 63.0696 50.3 57.7096C31.13 52.3396 3.53 83.0096 2 133.61Z" fill="#68BC8C" stroke="black" stroke-width="4" stroke-linecap="round" stroke-linejoin="round"/>
<path d="M139.23 33.5596C139.23 33.5596 123.51 34.7096 139.23 25.1296C154.95 15.5496 160.39 17.3296 161.03 21.2996C161.67 25.2696 151.5 28.9596 151.49 28.9696C154.05 28.0496 153.49 28.2096 156.15 27.5596C157.68 27.1896 161.69 27.3296 162.6 28.6496C164.78 31.8096 161.36 33.7096 158.87 34.5496C153.16 36.4596 146.82 38.5096 140.74 37.9396C137.32 37.6196 136.39 36.0796 139.22 33.5796L139.23 33.5596Z" fill="#BAE8DD" stroke="black" stroke-width="4" stroke-linecap="round" stroke-linejoin="round"/>
<path d="M200.95 89.5297C200.95 89.5297 210.15 80.3297 213.6 83.7797C217.05 87.2297 209.38 92.5997 209.38 92.5997C209.38 92.5997 217.43 86.0797 221.65 89.5297C225.87 92.9797 216.67 99.1097 216.67 99.1097C216.67 99.1097 228.94 104.48 224.34 108.31C219.74 112.14 209.39 103.33 209.39 103.33C209.39 103.33 205.94 110.24 199.42 109.28C192.9 108.31 199.42 99.8797 199.42 99.8797C199.42 99.8797 189.84 105.63 183.7 102.56C177.57 99.4897 194.05 93.3597 194.05 93.3597C194.05 93.3597 182.17 85.6797 187.53 82.9997C192.9 80.3197 200.95 89.5197 200.95 89.5197V89.5297Z" fill="#FFE964" stroke="black" stroke-width="4" stroke-linecap="round" stroke-linejoin="round"/>
<path d="M42.1798 79.3596L36.0798 101.91" stroke="black" stroke-width="4" stroke-linecap="round" stroke-linejoin="round"/>
<path d="M33.3801 81.8396L44.4301 100.75" stroke="black" stroke-width="4" stroke-linecap="round" stroke-linejoin="round"/>
<path d="M49.24 83.8196L29.02 97.7296" stroke="black" stroke-width="4" stroke-linecap="round" stroke-linejoin="round"/>
</svg>
