<svg width="273" height="373" viewBox="0 0 273 373" fill="none" xmlns="http://www.w3.org/2000/svg">
<path d="M147.182 81.2227C143.782 82.8627 139.892 83.8127 135.742 83.8127C132.152 83.8127 128.762 83.1027 125.702 81.8527V94.2926H147.182V81.2227Z" fill="#EFD0C5" stroke="black" stroke-width="4" stroke-linecap="round" stroke-linejoin="round"/>
<path d="M115.192 370.793C111.792 370.733 104.242 370.693 92.7519 370.693C73.1719 370.693 48.6219 370.793 48.3719 370.793C46.3819 370.743 36.6219 370.253 33.8119 365.973C33.1619 364.993 32.5819 363.363 33.4419 361.223C36.5619 353.463 45.6719 340.433 71.7119 340.273H125.302C126.402 340.273 127.302 341.173 127.302 342.273V354.613C127.392 355.653 127.862 362.883 123.842 367.343C121.782 369.623 118.972 370.783 115.482 370.783H115.182L115.192 370.793Z" fill="#FCAECC"/>
<path d="M125.302 342.283V354.723C125.302 354.723 126.772 368.803 115.492 368.803C115.402 368.803 115.322 368.803 115.232 368.803C111.372 368.733 102.662 368.703 92.7518 368.703C72.9418 368.703 48.3718 368.803 48.3718 368.803C48.3718 368.803 32.7418 368.373 35.3018 361.983C37.8418 355.653 45.7818 342.453 71.7318 342.293H125.312M125.302 338.283H71.7218C44.4918 338.453 34.8918 352.263 31.5818 360.483C30.6618 362.783 30.8618 365.123 32.1418 367.073C35.4118 372.053 45.3018 372.713 48.2518 372.793C48.2918 372.793 48.3218 372.793 48.3618 372.793C48.3618 372.793 48.3618 372.793 48.3718 372.793C48.6218 372.793 73.1618 372.693 92.7418 372.693C104.222 372.693 111.752 372.723 115.142 372.793C115.252 372.793 115.362 372.793 115.472 372.793C119.492 372.793 122.902 371.373 125.312 368.693C129.782 363.723 129.422 356.163 129.282 354.533V342.283C129.282 340.073 127.492 338.283 125.282 338.283H125.302Z" fill="black"/>
<path d="M161.492 370.793C158.002 370.793 155.192 369.633 153.132 367.353C149.112 362.893 149.592 355.663 149.682 354.623V342.283C149.682 341.183 150.582 340.283 151.682 340.283H205.262C225.092 340.873 238.302 348.123 243.532 361.233C244.392 363.363 243.812 364.993 243.162 365.973C240.362 370.253 230.592 370.733 228.662 370.793C228.352 370.793 203.812 370.693 184.232 370.693C172.742 370.693 165.202 370.723 161.802 370.793H161.502H161.492Z" fill="#FCAECC"/>
<path d="M205.252 342.283C231.882 343.083 239.132 355.643 241.662 361.973C244.242 368.363 228.592 368.793 228.592 368.793C228.592 368.793 204.022 368.693 184.222 368.693C174.322 368.693 165.612 368.713 161.752 368.793C161.662 368.793 161.582 368.793 161.492 368.793C150.202 368.793 151.682 354.713 151.682 354.713V342.273H205.262M205.252 338.283H151.672C149.462 338.283 147.672 340.073 147.672 342.283V354.533C147.532 356.163 147.172 363.723 151.642 368.693C154.062 371.373 157.462 372.793 161.492 372.793C161.602 372.793 161.712 372.793 161.822 372.793C165.212 372.733 172.742 372.693 184.222 372.693C203.792 372.693 228.332 372.793 228.572 372.793C228.572 372.793 228.572 372.793 228.582 372.793C228.622 372.793 228.652 372.793 228.692 372.793C228.812 372.793 231.662 372.703 234.842 372.133C239.922 371.223 243.182 369.563 244.812 367.073C246.092 365.113 246.282 362.773 245.352 360.473C239.812 346.583 225.982 338.903 205.352 338.283C205.312 338.283 205.272 338.283 205.232 338.283H205.252Z" fill="black"/>
<path d="M125.082 287.603C118.412 290.753 110.572 290.083 104.542 285.833C99.7119 282.423 93.6419 281.273 87.9019 282.683L82.8219 283.923L71.1619 341.373H133.492V284.933C131.222 285.173 128.972 285.773 126.862 286.773L125.092 287.613L125.082 287.603Z" fill="#7F7FDB" stroke="black" stroke-width="4" stroke-linecap="round" stroke-linejoin="round"/>
<path d="M172.512 284.763L167.122 287.463C161.642 290.203 155.732 291.833 150.142 289.343L143.942 286.583C143.802 286.523 143.652 286.473 143.502 286.413V341.373H205.832L194.702 286.593L188.652 285.153C183.502 283.433 177.382 282.343 172.522 284.773L172.512 284.763Z" fill="#7F7FDB" stroke="black" stroke-width="4" stroke-linecap="round" stroke-linejoin="round"/>
<path d="M55.6118 335.073L80.7918 347.453" stroke="black" stroke-width="4" stroke-linecap="round" stroke-linejoin="round"/>
<path d="M70.7519 355.053L65.6519 327.463" stroke="black" stroke-width="4" stroke-linecap="round" stroke-linejoin="round"/>
<path d="M220.612 335.763L195.432 348.143" stroke="black" stroke-width="4" stroke-linecap="round" stroke-linejoin="round"/>
<path d="M205.472 355.743L210.572 328.153" stroke="black" stroke-width="4" stroke-linecap="round" stroke-linejoin="round"/>
<path d="M135.732 85.8124C125.652 85.8124 116.502 80.5424 112.282 72.5024C111.102 72.9224 109.862 73.1524 108.632 73.1524C102.552 73.1524 97.6018 68.2024 97.6018 62.1224C97.6018 56.0424 102.552 51.0924 108.632 51.0924C110.102 51.0924 111.532 51.3824 112.862 51.9324C117.332 44.4424 126.072 39.7124 135.732 39.7124C146.472 39.7124 156.022 45.5824 159.872 54.4224L170.552 56.5424C171.362 56.7024 171.982 57.3424 172.132 58.1424C172.282 58.9424 171.912 59.7624 171.222 60.2024L161.322 66.3424C159.372 77.5224 148.562 85.8324 135.742 85.8324L135.732 85.8124Z" fill="#EFD0C5"/>
<path d="M135.732 41.7026C146.312 41.7026 155.272 47.7626 158.422 56.1626L170.162 58.4926L159.472 65.1226C158.142 75.6426 148.022 83.8226 135.732 83.8226C125.362 83.8226 116.552 77.9926 113.242 69.8526C111.882 70.6626 110.322 71.1626 108.622 71.1626C103.632 71.1626 99.5918 67.1126 99.5918 62.1326C99.5918 57.1526 103.642 53.1026 108.622 53.1026C110.492 53.1026 112.232 53.6726 113.672 54.6426C117.282 47.0526 125.792 41.7126 135.722 41.7126M135.732 37.7026C125.972 37.7026 117.062 42.2426 112.022 49.5326C110.922 49.2326 109.782 49.0826 108.622 49.0826C101.432 49.0826 95.5918 54.9326 95.5918 62.1126C95.5918 69.2926 101.442 75.1426 108.622 75.1426C109.522 75.1426 110.432 75.0426 111.312 74.8526C116.162 82.7326 125.502 87.8126 135.722 87.8126C149.182 87.8126 160.582 79.2426 163.102 67.5626L172.262 61.8826C173.662 61.0126 174.382 59.3826 174.092 57.7726C173.802 56.1526 172.542 54.8826 170.932 54.5626L161.242 52.6426C156.822 43.6226 146.862 37.7026 135.722 37.7026H135.732Z" fill="black"/>
<path d="M76.7318 65.2829C61.3718 65.2829 48.8818 55.6829 48.8818 43.8829C48.8818 32.0829 61.3718 22.4829 76.7318 22.4829C84.3818 22.4829 91.5118 24.8129 96.8018 29.0329C97.9918 29.9229 99.1918 30.3729 100.412 30.3729C101.412 30.3729 102.472 30.0629 103.572 29.4629C106.922 27.8129 110.722 26.9629 114.622 26.9629C120.442 26.9629 126.052 29.0029 130.422 32.7129C130.832 33.0629 131.302 33.2329 131.872 33.2329C132.722 33.2329 133.562 32.8429 134.072 32.4829C136.872 30.4729 140.512 29.3629 144.332 29.3629C152.702 29.3629 159.502 34.6929 159.502 41.2529C159.502 47.8129 152.692 53.1429 144.332 53.1429C140.842 53.1429 137.432 52.2029 134.742 50.4829C134.482 50.3229 134.002 50.1529 133.502 50.1529C133.222 50.1529 132.842 50.2029 132.672 50.4529C129.032 55.5829 122.122 58.7729 114.632 58.7729C110.342 58.7729 106.462 57.8829 103.402 56.1929C102.562 55.7329 101.622 55.2329 101.012 55.2329C100.842 55.2329 100.382 55.2329 99.5018 56.2229C94.5118 61.9029 86.0018 65.2829 76.7418 65.2829H76.7318Z" fill="#FCAECC"/>
<path d="M76.7318 24.4827C84.1518 24.4827 90.8418 26.8327 95.5518 30.6027C97.0718 31.7427 98.6818 32.3727 100.412 32.3727C101.722 32.3727 103.092 32.0027 104.532 31.2127C107.432 29.7927 110.892 28.9627 114.622 28.9627C120.502 28.9627 125.572 31.2227 129.132 34.2427C129.982 34.9627 130.932 35.2327 131.872 35.2327C133.152 35.2327 134.392 34.7127 135.242 34.1027C137.602 32.4027 140.802 31.3627 144.332 31.3627C151.612 31.3627 157.502 35.7927 157.502 41.2527C157.502 46.7127 151.602 51.1427 144.332 51.1427C141.082 51.1427 138.112 50.2627 135.812 48.7927C135.212 48.4127 134.352 48.1527 133.502 48.1527C132.562 48.1527 131.622 48.4727 131.042 49.2927C127.912 53.7027 121.762 56.7626 114.632 56.7626C110.832 56.7626 107.242 56.0227 104.362 54.4327C103.102 53.7427 102.042 53.2327 101.002 53.2327C99.9618 53.2327 99.0618 53.6927 97.9918 54.9027C93.4418 60.0727 85.5518 63.2827 76.7318 63.2827C62.4518 63.2827 50.8818 54.5927 50.8818 43.8827C50.8818 33.1727 62.4518 24.4827 76.7318 24.4827ZM76.7318 20.4827C60.2718 20.4827 46.8818 30.9827 46.8818 43.8827C46.8818 56.7827 60.2718 67.2827 76.7318 67.2827C86.5518 67.2827 95.6218 63.6426 100.992 57.5426C101.072 57.4526 101.142 57.3826 101.202 57.3226C101.442 57.4226 101.812 57.6027 102.422 57.9427C105.782 59.7927 109.992 60.7727 114.622 60.7727C122.432 60.7727 129.692 57.5327 133.802 52.2727C136.782 54.1327 140.512 55.1527 144.322 55.1527C153.792 55.1527 161.492 48.9227 161.492 41.2627C161.492 33.6027 153.792 27.3727 144.322 27.3727C140.092 27.3727 136.032 28.6127 132.902 30.8627C132.602 31.0727 132.162 31.2327 131.872 31.2327C131.772 31.2327 131.762 31.2327 131.722 31.1927C126.992 27.1727 120.922 24.9627 114.632 24.9627C110.432 24.9627 106.332 25.8827 102.782 27.6227C102.732 27.6527 102.672 27.6827 102.622 27.7027C101.812 28.1427 101.072 28.3727 100.422 28.3727C99.6518 28.3727 98.8618 28.0627 98.0018 27.4227C92.3618 22.9427 84.8118 20.4727 76.7418 20.4727L76.7318 20.4827Z" fill="black"/>
<path d="M215.522 65.8129C215.522 65.8129 186.182 43.9829 199.792 39.6329C199.792 39.6329 205.632 36.6129 217.542 43.0129C217.542 43.0129 200.052 20.7329 213.262 16.6029C213.262 16.6029 218.902 14.3229 223.942 30.5429C223.942 30.5429 222.012 3.22288 233.142 3.51288C244.272 3.79288 239.672 26.2829 239.672 26.2829C239.672 26.2829 246.352 -0.747118 256.732 2.23288C267.112 5.21288 255.102 28.5529 255.102 28.5529C255.102 28.5529 264.452 16.3129 269.792 25.7029C275.132 35.0929 252.612 65.8129 252.612 65.8129H215.512H215.522Z" fill="#EFD0C5" stroke="black" stroke-width="4" stroke-linecap="round" stroke-linejoin="round"/>
<path d="M61.8819 238.913C61.8819 238.913 70.0019 260.093 62.1919 262.983C54.3819 265.873 51.0319 252.303 51.0319 252.303C51.0319 252.303 50.9219 283.323 36.8619 281.573C22.8019 279.823 36.3719 251.543 36.3719 251.543C36.3719 251.543 22.6119 282.813 15.6019 280.443C8.59188 278.073 24.5519 246.553 24.5519 246.553C24.5519 246.553 8.79188 273.523 2.89188 264.763C-3.00812 256.003 22.3519 235.423 22.3519 235.423C22.3519 235.423 2.27188 245.403 2.80188 238.153C3.34188 230.903 26.2919 222.793 26.2919 222.793L61.8819 238.913Z" fill="#EFD0C5" stroke="black" stroke-width="4" stroke-linecap="round" stroke-linejoin="round"/>
<path d="M156.022 292.563C153.662 292.563 151.412 292.093 149.322 291.163L143.122 288.403C140.742 287.343 138.212 286.803 135.602 286.803C132.992 286.803 130.162 287.413 127.712 288.573L125.942 289.413C122.962 290.823 119.642 291.573 116.342 291.573C111.682 291.573 107.202 290.153 103.402 287.473C100.272 285.263 96.5919 284.103 92.7619 284.103C91.2919 284.103 89.8119 284.283 88.3819 284.633L75.0719 287.883C74.8019 287.943 74.5319 287.983 74.2619 287.983C73.2419 287.983 72.2919 287.533 71.6419 286.733C71.0019 285.943 70.7419 284.923 70.9419 283.923L94.6019 167.093L63.0419 240.103L24.7019 222.823L25.4519 221.033C27.4419 216.253 73.8419 106.093 118.672 99.1527L115.992 92.3127H156.882L154.572 98.0927L179.412 98.8627H179.502C179.502 98.8627 181.012 99.0527 183.342 99.0527C189.272 99.0527 200.302 97.9227 207.512 90.3927C212.612 85.0527 214.982 77.3127 214.542 67.3727L214.452 65.2827H253.962L254.112 67.1227C254.212 68.4127 256.392 98.9027 237.002 119.893C225.432 132.423 208.662 138.773 187.162 138.773C183.272 138.773 179.182 138.563 174.962 138.143L206.332 286.453C206.542 287.453 206.292 288.493 205.652 289.283C205.002 290.083 204.042 290.543 203.022 290.543C202.692 290.543 202.362 290.493 202.052 290.403L188.112 287.083L188.032 287.053C184.672 285.933 181.662 285.363 179.092 285.363C176.932 285.363 175.022 285.763 173.432 286.563L168.042 289.263C163.572 291.493 159.652 292.583 156.052 292.583L156.022 292.563Z" fill="#B6B6FF"/>
<path d="M252.092 67.2627C252.092 67.2627 257.612 136.763 187.142 136.763C182.562 136.763 177.662 136.473 172.422 135.843L204.362 286.853C204.552 287.743 203.852 288.523 203.012 288.523C202.872 288.523 202.722 288.503 202.572 288.453L188.652 285.143C185.642 284.143 182.302 283.353 179.082 283.353C176.782 283.353 174.542 283.753 172.532 284.763L167.142 287.463C163.562 289.253 159.792 290.573 156.042 290.573C154.062 290.573 152.092 290.203 150.152 289.343L143.952 286.583C141.302 285.403 138.462 284.813 135.622 284.813C132.632 284.813 129.642 285.473 126.872 286.773L125.102 287.613C122.322 288.933 119.332 289.573 116.352 289.573C112.202 289.573 108.072 288.313 104.562 285.833C101.082 283.383 96.9518 282.093 92.7718 282.093C91.1518 282.093 89.5218 282.283 87.9218 282.673L74.6118 285.923C74.5018 285.953 74.3918 285.963 74.2818 285.963C73.4418 285.963 72.7518 285.183 72.9318 284.303L100.382 148.713L62.0318 237.423L27.3118 221.773C27.3118 221.773 76.5818 103.553 121.502 100.833L118.942 94.2927H153.942L151.662 99.9827L179.262 100.833C179.262 100.833 180.842 101.033 183.342 101.033C193.292 101.033 217.902 97.9427 216.532 67.2627H252.102M255.782 63.2627H212.332L212.522 67.4427C212.942 76.8127 210.762 84.0627 206.052 88.9927C199.352 95.9927 188.942 97.0427 183.332 97.0427C181.142 97.0427 179.742 96.8827 179.732 96.8727L179.552 96.8527H179.362L157.472 96.1727L157.622 95.7927L159.812 90.3027H113.042L115.182 95.7627L115.912 97.6327C97.2318 101.943 76.4618 122.983 54.0918 160.283C36.2118 190.083 23.7018 219.953 23.5818 220.253L22.0818 223.843L25.6218 225.443L60.3418 241.093L64.0418 242.763L65.6518 239.033L88.8118 185.453L68.9518 283.523C68.6318 285.113 69.0318 286.743 70.0618 288.003C71.0918 289.263 72.6118 289.983 74.2318 289.983C74.6618 289.983 75.0918 289.933 75.5118 289.833L88.8218 286.583C90.1018 286.273 91.4118 286.113 92.7218 286.113C96.1418 286.113 99.4218 287.153 102.212 289.123C106.362 292.043 111.232 293.593 116.312 293.593C119.902 293.593 123.522 292.783 126.772 291.243L128.542 290.403C130.732 289.373 133.162 288.823 135.582 288.823C137.912 288.823 140.162 289.303 142.282 290.253L148.482 293.013C150.832 294.063 153.362 294.593 155.992 294.593C159.912 294.593 164.122 293.433 168.872 291.063L174.262 288.363C175.572 287.703 177.172 287.373 179.032 287.373C181.382 287.373 184.182 287.903 187.342 288.963L187.512 289.023L187.682 289.063L201.482 292.353C201.972 292.493 202.462 292.563 202.972 292.563C204.602 292.563 206.122 291.833 207.152 290.563C208.182 289.293 208.572 287.653 208.232 286.063L177.422 140.403C180.752 140.663 183.982 140.803 187.102 140.803C209.172 140.803 226.442 134.233 238.402 121.273C258.382 99.6427 256.142 68.3027 256.042 66.9827L255.752 63.3027L255.782 63.2627Z" fill="black"/>
<path d="M83.9918 186.573L72.1418 213.993C66.8218 211.703 63.1118 206.423 63.1118 200.273C63.1118 192.033 69.7918 185.333 78.0518 185.333C80.1618 185.333 82.1718 185.763 83.9818 186.573H83.9918Z" fill="#FFA6C2"/>
<path d="M67.0919 156.173C67.0919 164.313 60.5719 170.933 52.4219 171.073C56.4619 163.953 60.8619 156.663 65.5319 149.583C66.5419 151.573 67.0919 153.803 67.0919 156.163V156.173Z" fill="#ADF2F0"/>
<path d="M200.562 97.6128C200.522 105.833 193.842 112.493 185.622 112.493C178.412 112.493 172.392 107.373 170.972 100.583L179.232 100.843C179.232 100.843 190.432 102.223 200.562 97.6128Z" fill="#FFBE5F"/>
<path d="M104.092 118.603C104.092 126.843 97.3919 133.543 89.1519 133.543C85.5619 133.543 82.2519 132.263 79.6719 130.153C86.4919 121.793 93.6119 114.523 100.842 109.313C102.872 111.853 104.092 115.093 104.092 118.593V118.603Z" fill="#FFE49F"/>
<path d="M92.9919 260.883C92.9919 269.143 86.2919 275.823 78.0519 275.823C76.8919 275.823 75.7619 275.683 74.6819 275.433L80.6119 246.183C87.6319 247.383 92.9919 253.493 92.9919 260.883Z" fill="#FFA6C2"/>
<path d="M249.862 90.3528C247.792 99.0228 243.912 108.803 236.712 117.143C231.802 114.743 228.432 109.653 228.432 103.803C228.432 95.5628 235.132 88.8628 243.372 88.8628C245.702 88.8628 247.882 89.3928 249.862 90.3628V90.3528Z" fill="#ADF2F0"/>
<path d="M178.902 166.483C174.012 168.903 170.682 173.953 170.682 179.793C170.682 187.773 176.952 194.303 184.852 194.693" fill="#FFBE5F"/>
<path d="M202.552 288.463L188.632 285.153C187.742 284.853 186.842 284.583 185.912 284.343C187.492 277.823 193.382 272.993 200.402 272.993C200.742 272.993 201.092 273.013 201.432 273.053L204.352 286.873C204.572 287.913 203.582 288.803 202.562 288.473L202.552 288.463Z" fill="#FFE49F"/>
<path d="M101.872 137.283L95.292 166.573" stroke="black" stroke-width="4" stroke-linecap="round" stroke-linejoin="round"/>
<path d="M142.492 63.0431C144.259 63.0431 145.692 61.6104 145.692 59.8431C145.692 58.0758 144.259 56.6431 142.492 56.6431C140.724 56.6431 139.292 58.0758 139.292 59.8431C139.292 61.6104 140.724 63.0431 142.492 63.0431Z" fill="black"/>
<path d="M137.722 68.7329C137.722 68.7329 138.102 73.2529 142.942 73.8229C147.782 74.3929 149.952 70.7329 149.952 70.7329" stroke="black" stroke-width="2" stroke-linecap="round" stroke-linejoin="round"/>
<path d="M163.132 253.343C171.383 253.343 178.072 246.654 178.072 238.403C178.072 230.152 171.383 223.463 163.132 223.463C154.881 223.463 148.192 230.152 148.192 238.403C148.192 246.654 154.881 253.343 163.132 253.343Z" fill="#ADF2F0"/>
<path d="M109.632 209.663C117.883 209.663 124.572 202.974 124.572 194.723C124.572 186.472 117.883 179.783 109.632 179.783C101.381 179.783 94.6919 186.472 94.6919 194.723C94.6919 202.974 101.381 209.663 109.632 209.663Z" fill="#FFE49F"/>
<path d="M139.232 151.183C147.483 151.183 154.172 144.494 154.172 136.243C154.172 127.992 147.483 121.303 139.232 121.303C130.981 121.303 124.292 127.992 124.292 136.243C124.292 144.494 130.981 151.183 139.232 151.183Z" fill="#FFA6C2"/>
</svg>
