<svg width="122" height="137" viewBox="0 0 122 137" fill="none" xmlns="http://www.w3.org/2000/svg">
<path d="M95.592 91.8547L89.7747 84.0485L69.9518 98.7491V58.6255H48.441V90.7725L27.6937 75.3804L21.8765 83.1867L48.441 102.888V134.093H69.9518V110.864L95.592 91.8547Z" fill="#CC937A" stroke="black" stroke-width="4" stroke-linecap="round" stroke-linejoin="round"/>
<path d="M87.6347 77.1541C87.6347 77.1541 86.5998 56.5212 99.3898 60.5796C112.19 64.6381 102.776 80.0201 102.776 80.0201C102.776 80.0201 122.99 76.5228 118.449 88.9487C113.908 101.375 101.027 94.4201 101.027 94.4201C101.027 94.4201 98.4855 116.075 88.7901 110.654C79.0946 105.233 85.5449 94.1496 85.5449 94.1496C85.5449 94.1496 67.1687 101.535 67.7816 83.0364C68.3945 64.5379 87.6347 77.1541 87.6347 77.1541Z" fill="#48C19B" stroke="black" stroke-width="4" stroke-linecap="round" stroke-linejoin="round"/>
<path d="M33.7416 80.6113C33.7416 80.6113 44.0801 87.1249 37.2782 94.4602C30.4763 101.785 22.0368 91.7445 22.0368 91.7445C22.0368 91.7445 17.6864 101.445 6.25278 97.1358C-5.18082 92.8268 10.0606 80.6113 10.0606 80.6113C10.0606 80.6113 -3.0006 69.7487 4.6151 65.6802C12.2408 61.6118 20.801 74.3683 20.801 74.3683C20.801 74.3683 24.4883 61.3412 32.6565 68.3959C40.8248 75.4506 33.7416 80.6113 33.7416 80.6113Z" fill="#48C19B" stroke="black" stroke-width="4" stroke-linecap="round" stroke-linejoin="round"/>
<path d="M44.1307 34.0645C44.1307 34.0645 29.5222 1.42646 48.2199 2.00767C66.9175 2.58888 61.6629 34.0645 61.6629 34.0645C61.6629 34.0645 80.9433 1.99765 90.2971 18.0311C99.651 34.0645 82.1188 42.2215 82.1188 42.2215C82.1188 42.2215 107.247 36.3893 100.234 53.2945C93.2208 70.1997 70.0824 67.8649 70.0824 67.8649C70.0824 67.8649 65.1693 86.5137 52.3091 80.6916C52.3091 80.6916 41.7897 76.6131 47.6372 66.7025C47.6372 66.7025 28.3568 68.4461 27.1813 60.8703C26.0158 53.2945 45.2962 55.6294 45.2962 55.6294C45.2962 55.6294 7.90089 47.4724 13.7383 31.7296C19.5857 15.9968 44.1207 34.0645 44.1207 34.0645H44.1307Z" fill="#48C19B" stroke="black" stroke-width="4" stroke-linecap="round" stroke-linejoin="round"/>
</svg>
