<svg width="406" height="373" viewBox="0 0 406 373" fill="none" xmlns="http://www.w3.org/2000/svg">
<path d="M152.189 175.133C152.189 175.133 150.449 227.903 158.569 215.143C166.689 202.383 160.889 215.143 160.889 215.143C160.889 215.143 175.969 296.323 184.089 281.253C184.089 281.253 194.529 303.873 202.649 300.973C210.769 298.073 210.769 288.213 210.769 288.213C210.769 288.213 229.909 294.593 221.789 263.283C221.789 263.283 243.249 261.543 229.909 217.473C229.909 217.473 250.209 225.593 229.909 175.723C229.909 175.723 242.089 190.223 247.889 182.683C253.689 175.143 220.639 126.433 220.639 126.433C220.639 126.433 249.049 163.543 256.589 153.683C256.589 153.683 284.419 189.053 291.379 184.413C291.379 184.413 319.789 198.913 323.269 192.533C326.749 186.153 304.709 177.453 304.709 177.453C304.709 177.453 360.379 202.963 363.859 196.593C367.339 190.223 332.549 153.683 332.549 153.683C332.549 153.683 338.349 142.663 298.919 125.853C298.919 125.853 301.239 114.253 292.539 107.873C292.539 107.873 334.869 125.273 350.529 115.993C350.529 115.993 399.239 119.473 403.299 109.613C407.359 99.7527 388.219 93.3727 388.219 93.3727C388.219 93.3727 396.339 85.8327 391.119 79.4527C385.899 73.0727 340.669 69.5927 340.669 69.5927C340.669 69.5927 357.489 61.4727 355.749 50.4527C354.009 39.4327 314.579 45.8127 314.579 45.8127C314.579 45.8127 333.139 26.6727 304.719 26.6727C276.299 26.6727 266.449 28.9927 266.449 28.9927C266.449 28.9927 282.689 14.4927 279.789 6.95269C276.889 -0.587311 261.809 -0.587333 228.759 14.4927C195.709 29.5727 181.209 56.8227 181.209 56.8227C181.209 56.8227 180.629 27.8327 138.299 28.9927C95.9693 30.1527 124.959 43.4927 124.959 43.4927C124.959 43.4927 99.4493 34.7927 81.4693 45.2327C63.4893 55.6727 64.6493 65.5327 87.8493 64.3727C87.8493 64.3727 46.0993 69.0126 40.8793 88.7226C40.8793 88.7226 39.1393 96.2626 53.6393 92.7826C53.6393 92.7826 20.5893 100.323 10.7293 118.873C0.869287 137.433 24.6493 126.993 24.6493 126.993C24.6493 126.993 -5.50071 155.403 3.76929 164.103C13.0393 172.803 36.8193 146.123 36.8193 146.123C36.8193 146.123 22.8993 168.163 32.7593 170.473C42.6193 172.793 69.2893 146.123 69.2893 146.123C69.2893 146.123 66.9693 157.723 73.9293 160.623C73.9293 160.623 55.3693 188.453 68.1293 194.833C68.1293 194.833 42.0393 241.223 58.8493 238.903C75.6693 236.583 84.3593 221.503 84.3593 221.503C84.3593 221.503 104.079 230.783 121.469 195.413C121.469 195.413 136.549 208.173 152.199 175.113L152.189 175.133Z" fill="#68BC8C" stroke="black" stroke-width="4" stroke-linecap="round" stroke-linejoin="round"/>
<path d="M222.939 73.6627C224.679 73.6627 261.789 72.5028 275.709 87.5828C275.709 87.5828 286.729 102.083 264.109 98.0228C264.109 98.0228 282.669 100.923 292.519 107.883" stroke="black" stroke-width="4" stroke-linecap="round" stroke-linejoin="round"/>
<path d="M202.639 102.073L220.619 128.163" stroke="black" stroke-width="4" stroke-linecap="round" stroke-linejoin="round"/>
<path d="M169.589 109.613C169.589 109.613 134.799 153.683 148.709 147.883C162.629 142.083 171.909 133.383 171.909 133.383C171.909 133.383 153.929 150.783 152.189 175.133" stroke="black" stroke-width="4" stroke-linecap="round" stroke-linejoin="round"/>
<path d="M152.769 78.8726C152.769 78.8726 104.059 98.5926 100.579 110.183C97.0992 121.783 105.219 124.103 105.219 124.103C105.219 124.103 64.6292 146.723 85.4992 151.353L73.8992 160.633" stroke="black" stroke-width="4" stroke-linecap="round" stroke-linejoin="round"/>
<path d="M310.329 179.973C307.179 178.443 304.699 177.453 304.699 177.453C304.699 177.453 306.859 178.443 310.329 179.973Z" stroke="black" stroke-width="4" stroke-linecap="round" stroke-linejoin="round"/>
<path d="M210.759 288.213C210.759 288.213 210.759 298.073 202.639 300.973C194.519 303.873 184.079 281.253 184.079 281.253C178.399 291.813 169.309 255.203 164.359 232.283V411.723H225.249V262.143C223.279 263.143 221.769 263.273 221.769 263.273C229.889 294.583 210.749 288.203 210.749 288.203L210.759 288.213Z" fill="#C19181" stroke="black" stroke-width="4" stroke-linecap="round" stroke-linejoin="round"/>
<path d="M178.869 296.023V280.883" stroke="black" stroke-width="3" stroke-linecap="round" stroke-linejoin="round"/>
<path d="M210.079 328.903V311.393" stroke="black" stroke-width="3" stroke-linecap="round" stroke-linejoin="round"/>
<path d="M190.919 346.863V329.353" stroke="black" stroke-width="3" stroke-linecap="round" stroke-linejoin="round"/>
<path d="M179.449 386.532V369.022" stroke="black" stroke-width="3" stroke-linecap="round" stroke-linejoin="round"/>
</svg>
