<svg width="24" height="24" viewBox="0 0 24 24" fill="none" xmlns="http://www.w3.org/2000/svg">
<path d="M9.99998 10V9C9.99998 8.46957 10.2107 7.96086 10.5858 7.58579C10.9608 7.21071 11.4695 7 12 7C12.5304 7 13.0391 7.21071 13.4142 7.58579C13.7893 7.96086 14 8.46957 14 9V10C14 9.46957 14.2107 8.96086 14.5858 8.58579C14.9608 8.21071 15.4695 8 16 8C16.5304 8 17.0391 8.21071 17.4142 8.58579C17.7893 8.96086 18 9.46957 18 10V11C18 10.4696 18.2107 9.96086 18.5858 9.58579C18.9608 9.21071 19.4695 9 20 9C20.5304 9 21.0391 9.21071 21.4142 9.58579C21.7893 9.96086 22 10.4696 22 11V14C22 16.1217 21.1571 18.1566 19.6568 19.6569C18.1565 21.1571 16.1217 22 14 22H12C9.19998 22 7.49998 21.14 6.00998 19.66L2.40998 16.06C2.06592 15.6789 1.88157 15.1802 1.89511 14.6669C1.90864 14.1537 2.11903 13.6653 2.4827 13.303C2.84638 12.9406 3.33548 12.7319 3.84875 12.7202C4.36202 12.7085 4.86014 12.8946 5.23998 13.24L6.99998 15M9.99998 9.5V4C9.99998 3.46957 9.78927 2.96086 9.41419 2.58579C9.03912 2.21071 8.53041 2 7.99998 2C7.46955 2 6.96084 2.21071 6.58577 2.58579C6.21069 2.96086 5.99998 3.46957 5.99998 4V14" stroke="white" stroke-width="2" stroke-linecap="round" stroke-linejoin="round"/>
</svg>
