<svg width="47" height="44" viewBox="0 0 47 44" fill="none" xmlns="http://www.w3.org/2000/svg">
<path d="M28.03 12.9601C20.35 0.040113 2 8.92011 2 22.1801C2 30.1401 11 36.8301 18.7 33.8801C18.66 33.9001 20.34 36.3601 20.45 36.5001C21.96 38.3601 23.86 39.9501 26.08 40.8801C38.81 46.1901 47.2301 31.1401 44.1801 20.4201C43.3401 17.4801 41.71 14.5701 39.11 12.8201C37.68 11.8601 36.05 11.3501 34.34 11.3101C33.69 11.2901 27.78 12.5501 28.02 12.9601H28.03Z" fill="#FF6C7E" stroke="black" stroke-width="4" stroke-linecap="round" stroke-linejoin="round"/>
<path d="M38.2302 2.00012C38.2302 2.00012 32.6903 2.50011 28.0303 12.9601" stroke="black" stroke-width="4" stroke-linecap="round" stroke-linejoin="round"/>
</svg>
