<svg width="71" height="74" viewBox="0 0 71 74" fill="none" xmlns="http://www.w3.org/2000/svg">
<path d="M37.3002 23.8602C37.3002 23.8602 32.2403 10.8502 16.7503 16.0402C7.86028 19.0202 -0.0997228 32.2102 2.50028 44.2402C5.26028 57.0302 19.2103 64.2302 28.6403 59.2302C27.7703 59.6902 34.5403 66.3302 35.2503 66.8102C39.1703 69.4802 47.2403 73.4302 54.8503 70.2402C67.1503 65.0902 71.9402 48.7002 66.7202 35.4902C63.7802 28.0302 57.6003 23.6202 50.6603 22.9102C49.5403 22.7902 36.9002 22.8302 37.3002 23.8602Z" fill="#FF6C7E" stroke="black" stroke-width="4" stroke-linecap="round" stroke-linejoin="round"/>
<path d="M37.3003 23.8602C37.3003 23.8602 45.5103 9.75018 40.3403 2.00018" stroke="black" stroke-width="4" stroke-linecap="round" stroke-linejoin="round"/>
</svg>
