<svg width="85" height="69" viewBox="0 0 85 69" fill="none" xmlns="http://www.w3.org/2000/svg">
<path d="M41.2026 39.1104C41.2026 39.1104 5.7026 32.8104 2.3326 43.9804C-1.0374 55.1504 22.3126 48.2904 22.3126 48.2904C22.3126 48.2904 10.9226 59.3404 18.0826 63.4604C25.2326 67.5704 34.9426 51.2104 34.9426 51.2104C34.9426 51.2104 28.4225 69.2304 36.1525 66.7804C43.8825 64.3304 41.2126 39.1204 41.2126 39.1204L41.2026 39.1104Z" fill="#FF83B3" stroke="black" stroke-width="4" stroke-linecap="round" stroke-linejoin="round"/>
<path d="M41.2026 39.1104C41.2026 39.1104 53.6126 2.74036 67.8126 7.28036C82.0126 11.8204 63.0526 25.8104 63.0526 25.8104C63.0526 25.8104 80.8326 16.4504 82.0026 23.5304C83.1826 30.6004 65.1726 34.1804 65.1726 34.1804C65.1726 34.1804 80.5926 32.4904 79.6826 39.6904C78.7726 46.8904 41.2126 39.1204 41.2126 39.1204L41.2026 39.1104Z" fill="#FF83B3" stroke="black" stroke-width="4" stroke-linecap="round" stroke-linejoin="round"/>
<path d="M18.5024 16.5304C18.5024 16.5304 32.9025 18.3504 40.6125 39.3004" stroke="black" stroke-width="4" stroke-linecap="round" stroke-linejoin="round"/>
<path d="M39.1724 2.00037C39.1724 2.00037 29.9524 18.2204 41.0624 36.5004" stroke="black" stroke-width="4" stroke-linecap="round" stroke-linejoin="round"/>
</svg>
