<svg width="254" height="86" viewBox="0 0 254 86" fill="none" xmlns="http://www.w3.org/2000/svg">
<path d="M162.696 23.0791C162.696 23.0791 160.326 -2.51088 116.726 2.69912C73.1258 7.90912 66.0158 23.0791 66.0158 23.0791C66.0158 23.0791 35.2159 -0.620876 12.4659 21.1791C-16.2341 48.6791 18.6258 88.9491 62.2258 55.7791C62.2258 55.7791 66.9658 83.2691 116.726 83.2691C166.486 83.2691 171.696 62.4191 171.696 62.4191C171.696 62.4191 182.596 83.2691 219.086 76.6391C255.576 70.0091 258.416 37.3091 241.356 23.5591C224.296 9.81912 198.706 9.33912 162.686 23.0891L162.696 23.0791Z" fill="white" stroke="black" stroke-width="4" stroke-linecap="round" stroke-linejoin="round"/>
</svg>
