<svg width="166" height="81" viewBox="0 0 166 81" fill="none" xmlns="http://www.w3.org/2000/svg">
<path d="M7.34797 77.4986C8.09797 78.0486 9.46796 78.5085 10.418 78.4785L157.148 78.6685C157.148 78.6685 159.548 78.2785 160.818 76.9185C161.998 75.6585 162.788 74.0885 163.188 72.4085C166.398 58.7785 154.978 49.0286 142.128 54.0086C144.888 52.9386 145.998 46.6685 146.318 44.1085C147.468 34.7885 141.108 24.8985 130.988 25.2885C125.528 25.4985 119.878 28.5786 115.968 32.3186C115.968 32.3186 130.528 1.40856 100.218 2.00856C69.908 2.60856 62.478 37.9685 62.478 37.9685C62.478 37.9685 54.458 28.4585 41.678 31.7285C28.898 34.9985 30.678 47.7785 30.678 47.7785C30.678 47.7785 19.388 40.9386 7.49797 48.3786C2.13797 51.7286 1.38797 57.9085 2.35797 63.6685C2.94797 67.2185 3.77797 74.8586 7.35797 77.5086L7.34797 77.4986Z" fill="#68BC8C" stroke="black" stroke-width="4" stroke-linecap="round" stroke-linejoin="round"/>
</svg>
