<svg width="143" height="70" viewBox="0 0 143 70" fill="none" xmlns="http://www.w3.org/2000/svg">
<path d="M6.60592 66.7972C6.60592 66.7972 8.41593 67.6672 9.24593 67.6372L135.146 67.7972L138.296 66.2972C138.296 66.2972 139.986 63.8672 140.326 62.4272C143.076 50.7372 133.286 42.3672 122.256 46.6372C124.626 45.7172 125.576 40.3372 125.846 38.1372C126.826 30.1472 121.376 21.6472 112.696 21.9872C108.016 22.1672 103.156 24.8072 99.8059 28.0172C99.8059 28.0172 112.306 1.4972 86.286 2.0072C60.266 2.5172 53.896 32.8672 53.896 32.8672C53.896 32.8672 47.0059 24.7072 36.0459 27.5072C25.0859 30.3072 26.6059 41.2772 26.6059 41.2772C26.6059 41.2772 16.9159 35.4072 6.71591 41.7872C2.11591 44.6572 1.47587 49.9672 2.30587 54.9072C2.81587 57.9472 6.59591 66.7772 6.59591 66.7772L6.60592 66.7972Z" fill="#68BC8C" stroke="black" stroke-width="4" stroke-linecap="round" stroke-linejoin="round"/>
</svg>
