<svg width="102" height="123" viewBox="0 0 102 123" fill="none" xmlns="http://www.w3.org/2000/svg">
<g clip-path="url(#clip0_2086_233)">
<path d="M61.5999 12.98C61.5999 12.98 69.7099 -2.25997 75.5899 3.17003C81.4599 8.60003 69.8599 26.2 69.8599 26.2C69.8599 26.2 80.3399 17.18 82.6999 21.46C85.0599 25.74 74.5899 36.7 74.5899 36.7C74.5899 36.7 87.0499 34.69 84.3699 43.67C81.6899 52.65 63.3399 46.89 63.3399 46.89C63.3399 46.89 62.9999 56.64 50.1299 55.92C37.2599 55.2 44.6099 43.47 44.6099 43.47C44.6099 43.47 27.8599 45.11 28.5799 33.8C29.2999 22.49 45.6899 25.14 45.6899 25.14C45.6899 25.14 30.0299 11.57 46.3699 4.09003C62.7099 -3.39997 61.6199 12.98 61.6199 12.98H61.5999Z" fill="#FFC2DB" stroke="black" stroke-width="4" stroke-linecap="round" stroke-linejoin="round"/>
<path d="M54.68 34.07C54.68 34.07 50.35 24.74 56.58 23.54C62.81 22.34 64.04 33.64 64.04 33.64C64.04 33.64 64.45 37.54 60.95 39.11C57.45 40.68 56.41 38.01 54.69 34.07H54.68Z" fill="#FFEDA1"/>
<path d="M49.7801 56.82C49.7801 56.82 41.3801 73.23 48.5001 93.66" stroke="black" stroke-width="4" stroke-linecap="round" stroke-linejoin="round"/>
<path d="M84.0099 61.62C83.8399 66.32 83.5999 77.34 76.2099 85.39C72.0999 89.92 65.6899 93.52 55.8099 94.51C55.8099 94.51 48.6999 97.87 46.8699 94.66C46.5999 94.2 46.4299 93.58 46.4299 92.8C46.4299 92.8 49.5099 65.89 72.8899 59.35C72.8899 59.35 84.2599 54.33 83.9999 61.62H84.0099Z" fill="#A9FFD4" stroke="black" stroke-width="4" stroke-miterlimit="10"/>
<path d="M98.8001 98.38C98.8001 98.38 90.3701 108.39 73.7101 108.47C57.0501 108.55 47.6601 98.63 47.6601 98.63C47.6601 98.63 46.1601 96.59 46.8801 94.66C48.7101 97.86 55.8201 94.51 55.8201 94.51C65.7001 93.52 72.1101 89.92 76.2201 85.39C82.1101 85.87 88.8701 87.68 96.4501 91.66C96.4501 91.66 101.14 94.58 98.8101 98.37L98.8001 98.38Z" fill="#A9FFD4" stroke="black" stroke-width="4" stroke-miterlimit="10"/>
<path d="M46.4401 92.8C47.0201 100.47 43.2301 99.05 42.5301 98.71C42.4501 98.68 42.3901 98.66 42.3901 98.66C39.0601 97.46 35.7901 95.53 32.7001 93.17C20.8601 84.1 11.5401 68.62 10.3601 63.74C8.84009 57.62 13.8201 58.16 13.8201 58.16C50.0701 55.36 46.4501 92.81 46.4501 92.81L46.4401 92.8Z" fill="#A9FFD4" stroke="black" stroke-width="4" stroke-miterlimit="10"/>
<path d="M42.52 98.71C38.31 105.08 29.46 117.68 4.47001 120.5C4.47001 120.5 0.090012 119.33 2.99001 115.24C5.54001 111.61 9.44001 98.14 32.69 93.17C35.78 95.53 39.06 97.46 42.38 98.66C42.38 98.66 42.43 98.69 42.52 98.71Z" fill="#A9FFD4" stroke="black" stroke-width="4" stroke-miterlimit="10"/>
</g>
<defs>
<clipPath id="clip0_2086_233">
<rect width="101.45" height="122.53" fill="white"/>
</clipPath>
</defs>
</svg>
