<svg width="50" height="79" viewBox="0 0 50 79" fill="none" xmlns="http://www.w3.org/2000/svg">
<path d="M17.9373 17.7618C17.9373 17.7618 18.7177 -3.40824 31.7045 3.32176C31.7045 3.32176 37.5975 5.95176 32.745 18.1618C32.745 18.1618 46.3021 11.5318 46.6422 21.6218C46.9824 31.7118 30.834 27.7718 30.834 27.7718C30.834 27.7718 35.0762 45.7818 25.181 46.3418C15.2859 46.8918 20.0384 30.9818 20.0384 30.9818C20.0384 30.9818 13.2448 46.2218 4.5503 40.4318C-4.14422 34.6418 13.3949 25.6518 13.3949 25.6518C13.3949 25.6518 -0.102085 22.4018 5.21068 16.1718C10.5234 9.94176 17.9273 17.7518 17.9273 17.7518L17.9373 17.7618Z" fill="#FFE964" stroke="black" stroke-width="4" stroke-linecap="round" stroke-linejoin="round"/>
<path d="M25.7414 26.9918C25.3112 27.6318 24.8109 28.1518 24.2807 28.4818C17.5471 32.7118 17.297 20.1518 23.7204 19.0418C28.4628 18.2218 27.8325 23.9218 25.7414 26.9918Z" fill="#FF8AB7"/>
<path d="M18.9679 42.4718C18.9679 42.4718 16.6667 53.5218 26.4218 72.1918" stroke="black" stroke-width="4" stroke-linecap="round" stroke-linejoin="round"/>
<path d="M26.9321 73.2318C26.9321 73.2318 23.9606 57.5817 39.5887 46.7617C39.5887 46.7617 43.891 43.6617 45.2817 41.8417C46.6724 40.0317 48.5634 38.6417 46.8825 47.4417C45.2016 56.2417 42.2801 65.2118 32.3749 73.8918C32.3749 73.8918 31.2144 75.0918 29.4634 75.0518C27.7125 75.0018 26.9421 73.2318 26.9421 73.2318H26.9321Z" fill="#88D1B3" stroke="black" stroke-width="4" stroke-linecap="round" stroke-linejoin="round"/>
<path d="M26.592 73.6618C23.9607 69.1818 21.3793 64.7618 17.5273 61.1118C15.5963 59.2818 13.4252 57.6718 11.034 56.4818C8.61269 55.2718 6.00133 54.5417 3.59007 53.2617C1.79914 52.3117 1.96918 53.3318 2.03922 54.8218C2.27934 60.0718 3.56005 64.6618 6.96182 68.7618C10.4336 72.9318 15.3962 75.3218 20.779 75.7518C20.779 75.7518 28.8432 77.5017 26.592 73.6717V73.6618Z" fill="#88D1B3" stroke="black" stroke-width="4" stroke-linecap="round" stroke-linejoin="round"/>
</svg>
