<svg width="59" height="96" viewBox="0 0 59 96" fill="none" xmlns="http://www.w3.org/2000/svg">
<path d="M38.2658 26.7165L50.0258 16.7265C50.0258 16.7265 52.6758 13.7865 52.3758 19.3765C51.8958 28.4465 52.0058 38.3365 44.7058 45.0065C35.5858 53.3465 20.1558 51.8565 13.2458 41.5765C6.55577 31.6165 12.1358 18.8765 17.3958 9.67651C17.3958 9.67651 19.7458 5.55651 20.3358 9.67651C20.9258 13.7965 23.2758 23.1965 23.2758 23.1965C23.2758 23.1965 36.7958 1.14651 39.1458 2.02651C41.4958 2.90651 38.2658 26.7165 38.2658 26.7165Z" fill="#FFD88A" stroke="black" stroke-width="4" stroke-linecap="round" stroke-linejoin="round"/>
<path d="M27.7656 93.3065C27.8656 93.3065 27.9756 93.3265 28.0956 93.3365C28.0456 93.3365 27.9156 93.3565 27.7656 93.3065Z" stroke="black" stroke-width="4" stroke-linecap="round" stroke-linejoin="round"/>
<path d="M45.8458 78.9565C45.8458 78.9565 37.3558 93.8565 28.4758 93.3565C28.8758 93.2365 30.7558 92.6465 30.0258 90.6665C29.3858 88.7665 28.6858 86.8565 27.9658 84.9465C31.5658 76.3565 36.5758 68.2065 41.6058 60.4065C43.4858 57.4665 45.7658 54.6965 48.1358 52.1565C49.4058 50.7865 52.6558 46.8165 54.9458 47.7865C58.5458 49.2865 53.6458 64.6465 45.8358 78.9665L45.8458 78.9565Z" fill="#88D1B3" stroke="black" stroke-width="4" stroke-linecap="round" stroke-linejoin="round"/>
<path d="M28.4756 93.3565C28.3456 93.3565 28.2256 93.3565 28.1156 93.3365H28.0956C27.9756 93.3165 27.8656 93.3065 27.7656 93.3065C27.7156 93.2865 27.6856 93.2865 27.6356 93.2865C24.0856 92.7465 21.7456 90.8265 21.7456 90.8265C14.9656 85.3165 9.93555 78.0265 6.42555 70.0765C5.46555 67.9165 -0.844411 53.3865 3.52559 53.0565C5.04559 52.9365 6.90555 54.0165 8.17555 54.7265C10.7356 56.1665 12.8256 58.2765 14.6556 60.5165C20.3956 67.5965 24.6556 76.2665 27.9656 84.9465C28.6956 86.8565 29.3856 88.7765 30.0256 90.6665C30.7556 92.6465 28.8756 93.2365 28.4756 93.3565Z" fill="#88D1B3" stroke="black" stroke-width="4" stroke-linecap="round" stroke-linejoin="round"/>
<path d="M31.2957 77.8265V50.3465C29.9657 50.3965 28.6357 50.3265 27.3257 50.1365V83.3365C27.5357 83.8665 27.7557 84.4065 27.9657 84.9365C28.9757 82.5265 30.0957 80.1565 31.2957 77.8265Z" stroke="black" stroke-width="4" stroke-linecap="round" stroke-linejoin="round"/>
<path d="M28.4758 93.3565L28.3958 93.3765C28.2958 93.3565 28.1957 93.3565 28.1157 93.3465C28.2357 93.3665 28.3458 93.3665 28.4758 93.3665V93.3565Z" stroke="black" stroke-width="4" stroke-linecap="round" stroke-linejoin="round"/>
</svg>
