<svg width="55" height="83" viewBox="0 0 55 83" fill="none" xmlns="http://www.w3.org/2000/svg">
<path d="M52.6399 11.21C52.6399 6.38996 49.0399 2.13995 43.7799 2.13995C35.8299 2.13995 31.6099 10.88 27.7199 16.49C18.9699 29.11 8.03992 41.83 3.07992 56.59C-0.670078 67.79 7.07993 79.92 19.0299 79.92C32.9999 79.92 35.5499 67.1899 36.8499 56.0999C37.8499 47.5699 39.7899 39.11 43.0199 31.14C45.5099 25 50.8599 20 52.3799 13.44C52.5499 12.69 52.6399 11.95 52.6399 11.22V11.21Z" fill="#A55EDB"/>
<path d="M19.0299 82.05C12.9299 82.05 7.36989 79.19 3.77989 74.19C-0.000105858 68.93 -1.02008 62.1 1.05992 55.91C5.03992 44.08 12.6499 33.66 19.9999 23.59C21.9999 20.85 24.0599 18.03 25.9699 15.27C26.5499 14.43 27.1399 13.52 27.7499 12.57C31.3699 6.96998 35.8799 0 43.7699 0C49.9299 0 54.7499 4.91998 54.7599 11.2C54.7599 12.11 54.6599 13.02 54.4499 13.91C53.4899 18.04 51.2199 21.51 49.0199 24.86C47.4499 27.25 45.9699 29.51 44.9899 31.93C42.0399 39.21 40.0099 47.42 38.9599 56.33C37.8999 65.31 35.9399 82.03 19.0199 82.03L19.0299 82.05ZM43.7799 4.26999C38.2099 4.26999 34.5599 9.90998 31.3399 14.89C30.6999 15.87 30.0899 16.83 29.4799 17.7C27.5399 20.5 25.4599 23.35 23.4499 26.1C16.2899 35.91 8.87991 46.06 5.10991 57.26C3.46991 62.15 4.26993 67.55 7.24993 71.69C10.0299 75.55 14.3299 77.77 19.0399 77.77C29.9699 77.77 33.1499 69.38 34.7499 55.83C35.8399 46.54 37.9699 37.96 41.0599 30.32C42.1999 27.51 43.8699 24.97 45.4799 22.51C47.5599 19.33 49.5299 16.33 50.3199 12.94C50.4499 12.37 50.5199 11.78 50.5199 11.2C50.5199 7.82998 48.1599 4.25998 43.7899 4.25998L43.7799 4.26999Z" fill="black"/>
<path d="M14.8199 73.36C12.2499 73.36 9.87995 71.68 9.11995 69.09L8.20992 65.97C7.87992 64.84 8.52993 63.66 9.65993 63.33C10.7899 63.01 11.9699 63.65 12.2999 64.78L13.2099 67.9C13.4699 68.78 14.3899 69.29 15.2799 69.03C16.1599 68.77 16.6699 67.84 16.4099 66.96L15.5 63.84C15.3 63.17 15.4499 62.45 15.8899 61.9C16.3299 61.36 16.9999 61.06 17.6999 61.11C17.7099 61.11 20.3699 61.25 20.5299 59.77C20.6499 58.6 21.69 57.75 22.87 57.88C24.04 58 24.8899 59.05 24.7699 60.22C24.4599 63.16 22.3699 64.53 20.2999 65.08L20.5 65.76C21.42 68.9 19.6099 72.2 16.4699 73.11C15.9199 73.27 15.36 73.35 14.81 73.35L14.8199 73.36Z" fill="black"/>
</svg>
