<svg width="191" height="291" viewBox="0 0 191 291" fill="none" xmlns="http://www.w3.org/2000/svg">
<path d="M137.6 157.286C137.6 152.466 141.2 148.216 146.46 148.216C154.41 148.216 158.63 156.956 162.52 162.566C171.27 175.186 182.2 187.907 187.16 202.667C190.91 213.867 183.16 225.996 171.21 225.996C157.24 225.996 154.69 213.266 153.39 202.176C152.39 193.646 150.45 185.186 147.22 177.216C144.73 171.076 139.38 166.077 137.86 159.517C137.69 158.767 137.6 158.027 137.6 157.297V157.286Z" fill="#A55EDB"/>
<path d="M171.21 228.126C154.29 228.126 152.33 211.406 151.27 202.426C150.22 193.516 148.19 185.306 145.24 178.026C144.26 175.596 142.78 173.346 141.21 170.956C139.01 167.606 136.74 164.137 135.78 160.007C135.57 159.116 135.47 158.207 135.47 157.297C135.47 151.017 140.3 146.096 146.46 146.096C154.35 146.096 158.86 153.067 162.48 158.667C163.09 159.607 163.68 160.526 164.26 161.366C166.17 164.116 168.24 166.946 170.24 169.686C177.59 179.756 185.2 190.176 189.18 201.996C191.26 208.196 190.24 215.026 186.46 220.286C182.87 225.276 177.31 228.137 171.21 228.137V228.126ZM146.46 150.346C142.09 150.346 139.74 153.926 139.73 157.286C139.73 157.866 139.8 158.456 139.93 159.026C140.72 162.416 142.68 165.416 144.77 168.596C146.38 171.056 148.05 173.596 149.19 176.406C152.29 184.046 154.41 192.627 155.51 201.917C157.1 215.457 160.28 223.857 171.22 223.857C175.93 223.857 180.23 221.636 183.01 217.776C185.99 213.626 186.79 208.236 185.15 203.336C181.38 192.136 173.97 181.986 166.81 172.176C164.8 169.416 162.71 166.567 160.77 163.767C160.16 162.887 159.55 161.936 158.91 160.956C155.69 155.976 152.04 150.336 146.47 150.336L146.46 150.346Z" fill="black"/>
<path d="M175.42 219.436C174.87 219.436 174.32 219.356 173.76 219.196C170.62 218.276 168.81 214.976 169.73 211.836L169.93 211.156C167.87 210.606 165.78 209.237 165.46 206.297C165.34 205.127 166.18 204.076 167.36 203.956C168.54 203.836 169.58 204.676 169.7 205.846C169.86 207.336 172.5 207.186 172.53 207.186C173.24 207.126 173.9 207.426 174.34 207.976C174.78 208.516 174.92 209.246 174.73 209.916L173.82 213.036C173.56 213.916 174.07 214.847 174.96 215.107C175.84 215.357 176.77 214.856 177.03 213.966L177.94 210.846C178.27 209.716 179.45 209.076 180.58 209.396C181.71 209.726 182.36 210.906 182.03 212.036L181.12 215.156C180.37 217.746 177.99 219.426 175.42 219.426V219.436Z" fill="black"/>
<path d="M70.0502 17.9365C67.9002 7.27651 57.5202 0.376516 46.8602 2.53652C17.8502 8.38652 32.7302 53.9065 42.0302 70.4265C45.4602 76.5165 48.9802 83.0165 54.1802 87.8065C58.3702 91.6765 67.6603 93.3365 69.5703 86.2565C70.8603 81.4565 65.8603 73.8265 64.7003 69.0665C63.0803 62.4465 62.3502 55.5665 62.7802 48.7565C63.1202 43.5065 64.2002 38.2265 66.6202 33.5165C69.2602 28.3865 71.2602 23.9265 70.0502 17.9365Z" fill="#A55EDB"/>
<path d="M62.7301 93.2765C58.9301 93.2765 55.0701 91.5265 52.7301 89.3665C47.5301 84.5665 44.0302 78.3465 40.6502 72.3265L40.1702 71.4665C33.5902 59.7665 22.5602 29.9965 30.4902 12.6765C33.5102 6.08652 38.8702 1.96653 46.4402 0.446528C52.1502 -0.703472 57.9702 0.436519 62.8302 3.65652C67.6902 6.88652 70.9902 11.8065 72.1502 17.5165C73.4802 24.1165 71.3901 28.9065 68.5301 34.4965C66.4901 38.4665 65.2802 43.3065 64.9202 48.8965C64.5102 55.2465 65.1401 61.8665 66.7801 68.5665C67.1301 70.0065 67.9301 71.8665 68.7801 73.8365C70.6101 78.0965 72.6902 82.9265 71.6402 86.8165C70.8202 89.8665 68.7502 92.0165 65.8102 92.8665C64.8102 93.1565 63.7802 93.2865 62.7502 93.2865L62.7301 93.2765ZM50.7901 4.26652C49.6201 4.26652 48.4501 4.38653 47.2801 4.61653C41.0401 5.87653 36.8202 9.08653 34.3702 14.4465C27.8202 28.7365 36.1802 55.6765 43.8902 69.3765L44.3802 70.2365C47.6002 75.9665 50.9302 81.8965 55.6302 86.2365C57.9602 88.3865 62.0002 89.5165 64.6202 88.7665C66.1302 88.3265 67.0802 87.3265 67.5202 85.6965C68.1802 83.2365 66.4202 79.1365 64.8602 75.5065C63.9402 73.3665 63.0702 71.3565 62.6402 69.5665C60.9002 62.4465 60.2302 55.3965 60.6702 48.6165C61.0702 42.4365 62.4402 37.0265 64.7402 32.5365C67.3002 27.5465 69.0401 23.6065 67.9801 18.3465C67.0501 13.7465 64.3901 9.78653 60.4801 7.19653C57.5701 5.26653 54.2202 4.25653 50.8002 4.25653L50.7901 4.26652Z" fill="black"/>
<path d="M46.8603 2.53653C27.5103 6.43653 27.6903 27.9765 32.7103 46.7965C38.3503 46.8565 44.2903 45.8165 50.1303 43.5265C57.2403 40.7365 63.2103 36.4865 67.6503 31.4665C69.7403 27.1565 71.1003 23.1265 70.0503 17.9465C67.9003 7.28654 57.5103 0.386525 46.8603 2.54653V2.53653Z" fill="#D3289F"/>
<path d="M62.7301 93.2765C58.9301 93.2765 55.0701 91.5265 52.7301 89.3665C47.5301 84.5665 44.0302 78.3465 40.6502 72.3265L40.1702 71.4665C33.5902 59.7665 22.5602 29.9965 30.4902 12.6765C33.5102 6.08652 38.8702 1.96653 46.4402 0.446528C52.1502 -0.703472 57.9702 0.436519 62.8302 3.65652C67.6902 6.88652 70.9902 11.8065 72.1502 17.5165C73.4802 24.1165 71.3901 28.9065 68.5301 34.4965C66.4901 38.4665 65.2802 43.3065 64.9202 48.8965C64.5102 55.2465 65.1401 61.8665 66.7801 68.5665C67.1301 70.0065 67.9301 71.8665 68.7801 73.8365C70.6101 78.0965 72.6902 82.9265 71.6402 86.8165C70.8202 89.8665 68.7502 92.0165 65.8102 92.8665C64.8102 93.1565 63.7802 93.2865 62.7502 93.2865L62.7301 93.2765ZM50.7901 4.26652C49.6201 4.26652 48.4501 4.38653 47.2801 4.61653C41.0401 5.87653 36.8202 9.08653 34.3702 14.4465C27.8202 28.7365 36.1802 55.6765 43.8902 69.3765L44.3802 70.2365C47.6002 75.9665 50.9302 81.8965 55.6302 86.2365C57.9602 88.3865 62.0002 89.5165 64.6202 88.7665C66.1302 88.3265 67.0802 87.3265 67.5202 85.6965C68.1802 83.2365 66.4202 79.1365 64.8602 75.5065C63.9402 73.3665 63.0702 71.3565 62.6402 69.5665C60.9002 62.4465 60.2302 55.3965 60.6702 48.6165C61.0702 42.4365 62.4402 37.0265 64.7402 32.5365C67.3002 27.5465 69.0401 23.6065 67.9801 18.3465C67.0501 13.7465 64.3901 9.78653 60.4801 7.19653C57.5701 5.26653 54.2202 4.25653 50.8002 4.25653L50.7901 4.26652Z" fill="black"/>
<path d="M91.6199 17.9365C93.7699 7.27651 104.15 0.376516 114.81 2.53652C143.82 8.38652 128.94 53.9065 119.64 70.4265C116.21 76.5165 112.69 83.0165 107.49 87.8065C103.3 91.6765 94.0099 93.3365 92.0999 86.2565C90.8099 81.4565 95.8099 73.8265 96.9699 69.0665C98.5899 62.4465 99.3199 55.5665 98.8899 48.7565C98.5499 43.5065 97.4699 38.2265 95.0499 33.5165C92.4099 28.3865 90.4099 23.9265 91.6199 17.9365Z" fill="#A55EDB"/>
<path d="M98.9298 93.2765C97.8898 93.2765 96.8598 93.1465 95.8698 92.8565C92.9298 92.0065 90.8598 89.8565 90.0398 86.8065C88.9898 82.9165 91.0698 78.0865 92.8998 73.8265C93.7498 71.8565 94.5498 69.9965 94.8998 68.5565C96.5398 61.8565 97.1698 55.2365 96.7598 48.8865C96.3998 43.2965 95.1898 38.4565 93.1498 34.4865C90.2798 28.9065 88.1898 24.1065 89.5298 17.5065C90.6798 11.7965 93.9898 6.87652 98.8498 3.64652C103.71 0.426522 109.53 -0.713485 115.24 0.436515C122.8 1.96652 128.17 6.07651 131.19 12.6665C139.13 29.9865 128.1 59.7565 121.51 71.4565L121.03 72.3165C117.65 78.3365 114.15 84.5665 108.95 89.3665C106.61 91.5265 102.75 93.2765 98.9498 93.2765H98.9298ZM110.88 4.26652C107.46 4.26652 104.12 5.26652 101.2 7.20652C97.2898 9.80652 94.6298 13.7665 93.6998 18.3565C92.6398 23.6065 94.3698 27.5465 96.9398 32.5465C99.2498 37.0365 100.62 42.4465 101.01 48.6265C101.44 55.4065 100.78 62.4565 99.0398 69.5765C98.5998 71.3565 97.7398 73.3765 96.8198 75.5165C95.2598 79.1365 93.4998 83.2465 94.1598 85.7065C94.5998 87.3365 95.5498 88.3365 97.0598 88.7765C99.6798 89.5265 103.72 88.3965 106.05 86.2465C110.76 81.9065 114.09 75.9765 117.31 70.2465L117.79 69.3865C125.5 55.6865 133.86 28.7565 127.31 14.4665C124.86 9.10651 120.63 5.89651 114.4 4.63651C113.23 4.39651 112.06 4.28652 110.89 4.28652L110.88 4.26652Z" fill="black"/>
<path d="M114.81 2.53653C134.16 6.43653 133.98 27.9765 128.96 46.7965C123.32 46.8565 117.38 45.8165 111.54 43.5265C104.43 40.7365 98.4597 36.4865 94.0197 31.4665C91.9297 27.1565 90.5696 23.1265 91.6196 17.9465C93.7696 7.28654 104.16 0.386525 114.81 2.54653V2.53653Z" fill="#D3289F"/>
<path d="M98.9298 93.2765C97.8898 93.2765 96.8598 93.1465 95.8698 92.8565C92.9298 92.0065 90.8598 89.8565 90.0398 86.8065C88.9898 82.9165 91.0698 78.0865 92.8998 73.8265C93.7498 71.8565 94.5498 69.9965 94.8998 68.5565C96.5398 61.8565 97.1698 55.2365 96.7598 48.8865C96.3998 43.2965 95.1898 38.4565 93.1498 34.4865C90.2798 28.9065 88.1898 24.1065 89.5298 17.5065C90.6798 11.7965 93.9898 6.87652 98.8498 3.64652C103.71 0.426522 109.53 -0.713485 115.24 0.436515C122.8 1.96652 128.17 6.07651 131.19 12.6665C139.13 29.9865 128.1 59.7565 121.51 71.4565L121.03 72.3165C117.65 78.3365 114.15 84.5665 108.95 89.3665C106.61 91.5265 102.75 93.2765 98.9498 93.2765H98.9298ZM110.88 4.26652C107.46 4.26652 104.12 5.26652 101.2 7.20652C97.2898 9.80652 94.6298 13.7665 93.6998 18.3565C92.6398 23.6065 94.3698 27.5465 96.9398 32.5465C99.2498 37.0365 100.62 42.4465 101.01 48.6265C101.44 55.4065 100.78 62.4565 99.0398 69.5765C98.5998 71.3565 97.7398 73.3765 96.8198 75.5165C95.2598 79.1365 93.4998 83.2465 94.1598 85.7065C94.5998 87.3365 95.5498 88.3365 97.0598 88.7765C99.6798 89.5265 103.72 88.3965 106.05 86.2465C110.76 81.9065 114.09 75.9765 117.31 70.2465L117.79 69.3865C125.5 55.6865 133.86 28.7565 127.31 14.4665C124.86 9.10651 120.63 5.89651 114.4 4.63651C113.23 4.39651 112.06 4.28652 110.89 4.28652L110.88 4.26652Z" fill="black"/>
<path d="M56.8297 261.447L58.9597 283.157C59.0497 284.047 58.3496 284.827 57.4496 284.827C56.8396 284.827 56.3496 285.317 56.3496 285.927V286.777C56.3496 287.857 57.2296 288.737 58.3096 288.737H72.0797C74.2397 288.737 75.9996 286.987 75.9996 284.817V261.827L56.8397 261.437L56.8297 261.447Z" fill="#A55EDB"/>
<path d="M72.0798 290.867H58.3098C56.0598 290.867 54.2197 289.037 54.2197 286.777V285.927C54.2197 284.377 55.3197 283.077 56.7797 282.767L54.4697 259.267L78.1198 259.747V284.827C78.1198 288.157 75.4098 290.877 72.0698 290.877L72.0798 290.867ZM59.0098 286.607H72.0798C73.0598 286.607 73.8597 285.807 73.8597 284.827V263.927L59.1797 263.627L61.0798 282.947C61.1798 283.967 60.8398 284.997 60.1498 285.757C59.8198 286.117 59.4298 286.407 58.9998 286.607H59.0098Z" fill="black"/>
<path d="M104.83 261.447L102.7 283.157C102.61 284.047 103.31 284.827 104.21 284.827C104.82 284.827 105.31 285.317 105.31 285.927V286.777C105.31 287.857 104.43 288.737 103.35 288.737H89.5797C87.4197 288.737 85.6597 286.987 85.6597 284.817V261.827L104.82 261.437L104.83 261.447Z" fill="#A55EDB"/>
<path d="M103.36 290.867H89.5896C86.2596 290.867 83.5396 288.157 83.5396 284.817V259.737L107.19 259.257L104.88 282.757C106.34 283.067 107.44 284.367 107.44 285.917V286.767C107.44 289.027 105.61 290.857 103.35 290.857L103.36 290.867ZM87.7996 263.917V284.817C87.7996 285.797 88.5996 286.597 89.5796 286.597H102.65C102.22 286.397 101.83 286.107 101.5 285.747C100.81 284.987 100.47 283.957 100.57 282.937L102.47 263.617L87.7896 263.917H87.7996Z" fill="black"/>
<path d="M158.01 198.427C154.45 179.437 152.49 160.187 152.49 140.867V140.707C152.49 106.707 123.32 79.1465 80.8299 79.1465C38.3399 79.1465 9.16986 106.707 9.16986 140.707V140.867C9.16986 160.187 7.2099 179.437 3.6499 198.427C2.7599 203.167 2.12988 207.557 2.12988 210.437C2.12988 244.437 26.7699 271.997 80.8299 271.997C134.89 271.997 159.53 244.437 159.53 210.437C159.53 207.557 158.9 203.167 158.01 198.427Z" fill="#A55EDB"/>
<path d="M80.8298 163.737C95.8962 163.737 108.11 151.523 108.11 136.457C108.11 121.39 95.8962 109.177 80.8298 109.177C65.7635 109.177 53.5498 121.39 53.5498 136.457C53.5498 151.523 65.7635 163.737 80.8298 163.737Z" fill="white"/>
<path d="M80.8298 151.197C88.9705 151.197 95.5698 144.597 95.5698 136.457C95.5698 128.316 88.9705 121.717 80.8298 121.717C72.6892 121.717 66.0898 128.316 66.0898 136.457C66.0898 144.597 72.6892 151.197 80.8298 151.197Z" fill="#CC38AC"/>
<path d="M80.8297 146.877C86.5845 146.877 91.2497 142.211 91.2497 136.457C91.2497 130.702 86.5845 126.037 80.8297 126.037C75.0749 126.037 70.4097 130.702 70.4097 136.457C70.4097 142.211 75.0749 146.877 80.8297 146.877Z" fill="#0D0E12"/>
<path d="M89.9799 133.897C88.3599 134.827 86.1099 133.957 84.9399 131.937C83.7799 129.917 84.1399 127.527 85.7599 126.597C87.3799 125.667 89.6299 126.537 90.7999 128.557C91.9599 130.577 91.5999 132.967 89.9799 133.897Z" fill="white"/>
<path d="M80.8302 182.477C75.7702 182.477 71.6602 178.367 71.6602 173.307V169.967C71.6602 168.787 72.6102 167.837 73.7902 167.837C74.9702 167.837 75.9202 168.787 75.9202 169.967V173.307C75.9202 176.017 78.1202 178.217 80.8302 178.217C83.5402 178.217 85.7402 176.017 85.7402 173.307V169.967C85.7402 168.787 86.6902 167.837 87.8702 167.837C89.0502 167.837 90.0002 168.787 90.0002 169.967V173.307C90.0002 178.367 85.8902 182.477 80.8302 182.477Z" fill="black"/>
<path d="M141.63 236.997L138.89 223.057C135.3 204.757 117.6 191.417 96.9102 191.417H64.7503C44.0703 191.417 26.3703 204.757 22.7703 223.057L20.0302 236.997C20.0202 237.067 20.0003 237.127 19.9903 237.197C18.2103 246.637 23.0903 256.137 31.6403 260.507C44.1803 266.907 60.4803 270.637 80.8103 270.637C101.14 270.637 117.45 266.917 129.98 260.507C138.54 256.137 143.41 246.647 141.63 237.197C141.62 237.127 141.6 237.067 141.59 236.997H141.63Z" fill="#C993DE"/>
<path d="M80.83 274.127C21.24 274.127 0 241.227 0 210.437C0 207.727 0.519998 203.547 1.56 198.037C5.2 178.617 7.03998 159.377 7.03998 140.867V140.707C7.03998 104.397 38.76 77.0165 80.83 77.0165C122.9 77.0165 154.62 104.397 154.62 140.707V140.867C154.62 159.377 156.46 178.607 160.1 198.037C161.13 203.557 161.66 207.727 161.66 210.437C161.66 241.227 140.43 274.127 80.83 274.127ZM80.83 81.2665C41.19 81.2665 11.31 106.817 11.31 140.697V140.857C11.31 159.627 9.44 179.127 5.75 198.807C4.76 204.067 4.27002 207.977 4.27002 210.427C4.27002 247.637 32.89 269.857 80.83 269.857C128.77 269.857 157.4 247.637 157.4 210.427C157.4 207.977 156.9 204.067 155.92 198.807C152.23 179.127 150.36 159.627 150.36 140.857V140.697C150.36 106.817 120.47 81.2665 80.83 81.2665Z" fill="black"/>
</svg>
