<svg width="131" height="81" viewBox="0 0 131 81" fill="none" xmlns="http://www.w3.org/2000/svg">
<path d="M99.6333 78.3C97.6933 78.3 95.7433 78.1 93.8233 77.7C93.4233 77.62 93.0333 77.53 92.6433 77.41C90.1633 76.79 87.8033 75.86 85.6233 74.63C85.5233 74.57 85.4233 74.5 85.3334 74.43C83.8633 73.21 82.3033 72.08 80.6933 71.07C74.8933 67.32 68.0333 64.55 60.8133 63.06C56.6933 62.21 52.5234 61.77 48.4234 61.77C45.3534 61.77 42.3033 62.01 39.3833 62.5C37.4233 62.82 35.5934 63.22 33.8034 63.75C33.6834 63.78 33.5734 63.81 33.4534 63.82C32.5033 63.92 31.5333 63.97 30.5633 63.97C29.0133 63.97 27.4434 63.84 25.8934 63.58C25.4834 63.53 25.0933 63.45 24.6933 63.37C9.33334 60.19 -0.566647 45.1 2.61335 29.75C2.83335 28.67 3.10337 27.69 3.41337 26.77C6.95337 11.72 25.7633 2.01001 51.3733 2.01001C58.4433 2.01001 65.7134 2.77 72.9834 4.28C107.403 11.41 131.493 32.61 127.913 52.57C127.833 53.54 127.693 54.54 127.473 55.62C124.753 68.76 113.043 78.3 99.6433 78.3H99.6333Z" fill="#DFE4EA"/>
<path d="M51.3632 4C58.1232 4 65.2731 4.72001 72.5731 6.23001C105.623 13.08 129.363 33.65 125.923 52.31C125.853 53.27 125.703 54.24 125.503 55.21C122.913 67.7 111.913 76.29 99.6331 76.29C97.8531 76.29 96.0432 76.11 94.2332 75.73C93.8832 75.66 93.5231 75.58 93.1831 75.47C90.8331 74.89 88.6232 74.01 86.6032 72.87C85.0932 71.62 83.4631 70.43 81.7431 69.36C75.8731 65.56 68.8932 62.68 61.2132 61.09C56.8731 60.19 52.5732 59.76 48.4132 59.76C45.1932 59.76 42.0532 60.02 39.0432 60.51C37.0432 60.83 35.1132 61.26 33.2232 61.81C32.3432 61.9 31.4432 61.95 30.5432 61.95C29.0932 61.95 27.6232 61.83 26.1532 61.58C25.7932 61.54 25.4431 61.47 25.0831 61.4C10.7831 58.44 1.59315 44.44 4.55315 30.14C4.75315 29.17 5.00313 28.22 5.32313 27.31C8.64313 12.9 27.5532 3.99002 51.3632 3.99002M51.3731 0C24.8531 0 5.30314 10.28 1.48314 26.21C1.15314 27.19 0.873142 28.21 0.643142 29.34C-1.00686 37.3 0.543158 45.43 5.00316 52.23C9.46316 59.03 16.3131 63.68 24.2731 65.33C24.6431 65.41 25.0932 65.5 25.6032 65.56C27.2432 65.83 28.9032 65.97 30.5432 65.97C31.5832 65.97 32.6231 65.92 33.6431 65.81C33.8831 65.78 34.1132 65.74 34.3432 65.67C36.0532 65.17 37.8032 64.78 39.6732 64.48C42.5032 64.01 45.4432 63.78 48.4032 63.78C52.3732 63.78 56.4031 64.2 60.3931 65.03C67.3731 66.48 74.0031 69.14 79.5631 72.75C79.5831 72.76 79.5932 72.77 79.6132 72.78C81.1532 73.75 82.6432 74.82 84.0432 75.98C84.2232 76.13 84.4231 76.27 84.6331 76.39C86.9531 77.7 89.4732 78.7 92.1132 79.36C92.6032 79.51 93.0532 79.6 93.4232 79.68C95.4732 80.1 97.5631 80.32 99.6331 80.32C113.983 80.32 126.513 70.11 129.423 56.05C129.653 54.93 129.813 53.88 129.893 52.85C133.573 31.84 108.813 9.68 73.3831 2.34C65.9731 0.799996 58.5632 0.0299988 51.3632 0.0299988L51.3731 0Z" fill="black"/>
<path d="M94.2532 18.99C87.3332 15.87 79.6932 13.43 71.5332 11.71C71.5032 11.71 71.4732 11.69 71.4432 11.68C71.3932 11.68 71.3532 11.66 71.3132 11.66C71.2732 11.66 71.2232 11.64 71.1832 11.63C71.1532 11.63 71.1232 11.63 71.0932 11.63C62.9232 9.95999 54.9332 9.16999 47.3532 9.27999C44.3632 9.31999 41.9732 11.79 42.0232 14.78C42.0632 17.36 43.9032 19.5 46.3332 20C46.7132 20.08 47.1132 20.12 47.5232 20.11C54.2932 20.01 61.7632 20.76 69.1232 22.28C76.4832 23.82 83.6432 26.09 89.8132 28.88C90.1832 29.05 90.5632 29.17 90.9432 29.25C93.3732 29.75 95.9132 28.53 96.9732 26.17C98.2032 23.44 96.9932 20.24 94.2632 19.01L94.2532 18.99Z" fill="#B2C2D3"/>
<path d="M41.9232 32.85L35.0732 31.4301L36.4932 24.58C36.6632 23.78 36.1432 23 35.3432 22.83L29.7032 21.66C28.9032 21.49 28.1232 22.01 27.9532 22.81L26.5332 29.66L19.6832 28.24C18.8832 28.07 18.1032 28.59 17.9332 29.39L16.7632 35.03C16.5932 35.83 17.1132 36.61 17.9132 36.78L24.7632 38.2L23.3432 45.05C23.1732 45.85 23.6932 46.63 24.4932 46.8L30.1332 47.97C30.9332 48.14 31.7132 47.62 31.8832 46.82L33.3032 39.97L40.1532 41.39C40.9532 41.56 41.7332 41.04 41.9032 40.24L43.0732 34.6C43.2432 33.8 42.7232 33.02 41.9232 32.85Z" fill="#8983FF"/>
<path d="M100.123 44.9901C103.111 44.9901 105.533 42.5679 105.533 39.58C105.533 36.5922 103.111 34.17 100.123 34.17C97.1355 34.17 94.7134 36.5922 94.7134 39.58C94.7134 42.5679 97.1355 44.9901 100.123 44.9901Z" fill="#FFB031"/>
<path d="M97.6331 65.37C100.621 65.37 103.043 62.9479 103.043 59.9601C103.043 56.9722 100.621 54.55 97.6331 54.55C94.6453 54.55 92.2231 56.9722 92.2231 59.9601C92.2231 62.9479 94.6453 65.37 97.6331 65.37Z" fill="#FFB031"/>
<path d="M109.173 57.05C112.161 57.05 114.583 54.6278 114.583 51.64C114.583 48.6521 112.161 46.23 109.173 46.23C106.185 46.23 103.763 48.6521 103.763 51.64C103.763 54.6278 106.185 57.05 109.173 57.05Z" fill="#FFB031"/>
<path d="M88.2933 53.92C91.2812 53.92 93.7033 51.4978 93.7033 48.51C93.7033 45.5221 91.2812 43.1 88.2933 43.1C85.3055 43.1 82.8833 45.5221 82.8833 48.51C82.8833 51.4978 85.3055 53.92 88.2933 53.92Z" fill="#FFB031"/>
<path d="M74.613 52.46C73.683 49.67 71.333 47.58 68.453 46.99L59.903 45.22C57.023 44.62 54.043 45.6 52.073 47.79L41.063 60.07L41.153 60.23C47.463 59.44 54.283 59.66 61.213 61.1C68.063 62.52 74.343 64.97 79.773 68.17L79.843 68.12L74.613 52.47V52.46Z" fill="#B2C2D3"/>
</svg>
