<svg width="144" height="297" viewBox="0 0 144 297" fill="none" xmlns="http://www.w3.org/2000/svg">
<path d="M102.391 108.661L53.918 95.2274L2.46155 280.899L50.9344 294.333L102.391 108.661Z" fill="#DBDBDB" stroke="black" stroke-width="4" stroke-miterlimit="10"/>
<path d="M42.8773 213.185L42.8678 213.183C36.7579 211.489 30.432 215.07 28.7387 221.18L17.0063 263.514C15.313 269.624 18.8935 275.95 25.0035 277.643L25.013 277.646C31.1229 279.339 37.4488 275.759 39.1421 269.649L50.8745 227.314C52.5678 221.204 48.9873 214.879 42.8773 213.185Z" fill="black"/>
<path d="M28.269 273.728C32.5603 273.728 36.0391 270.25 36.0391 265.958C36.0391 261.667 32.5603 258.188 28.269 258.188C23.9778 258.188 20.499 261.667 20.499 265.958C20.499 270.25 23.9778 273.728 28.269 273.728Z" fill="#DBDBDB"/>
<path d="M85.2791 2.30825C81.9491 1.38825 78.3891 2.56825 76.2791 5.30825C73.3791 9.06825 68.7691 11.1182 64.0291 10.7482L52.5791 9.85825L44.889 37.6182L43.6791 41.9882L40.499 53.4782L39.2891 57.8482L31.5991 85.6082L41.869 90.7382C46.119 92.8582 49.0191 96.9882 49.5691 101.708C49.9691 105.138 52.409 107.988 55.739 108.908C60.729 110.288 65.8991 107.368 67.2791 102.378L77.9491 63.8582L81.129 52.3682L91.7991 13.8482C93.1791 8.85825 90.259 3.68825 85.269 2.30825H85.2791Z" fill="#DBDBDB" stroke="black" stroke-width="4" stroke-miterlimit="10" stroke-linejoin="round"/>
<path d="M87.5757 3.04773L123.675 13.0522C134.68 16.1021 141.138 27.5112 138.088 38.5163L119.596 105.241C116.546 116.247 105.137 122.704 94.1317 119.654L58.0324 109.65L87.5757 3.04773Z" fill="#DBDBDB" stroke="black" stroke-width="4" stroke-miterlimit="10"/>
<path d="M58.9294 21.2149C60.2791 16.3451 57.4275 11.3038 52.5603 9.9549C47.6931 8.60603 42.6535 11.4604 41.3039 16.3302L25.2289 74.3339C23.8793 79.2038 26.7308 84.245 31.5979 85.5939C36.4651 86.9428 41.5049 84.0885 42.8545 79.2186L58.9294 21.2149Z" fill="#828282" stroke="black" stroke-width="4" stroke-miterlimit="10"/>
</svg>
