<svg width="261" height="263" viewBox="0 0 261 263" fill="none" xmlns="http://www.w3.org/2000/svg">
<path d="M40.8295 53.72C14.5395 65.05 -3.20049 94.26 3.37951 123.43C15.0695 175.25 83.7795 175.51 105.98 131.45C115.16 113.23 115.18 88.39 104.38 70.76C95.2795 55.9 78.1995 47.87 60.9595 48.9C53.9095 49.32 47.1295 51.01 40.8495 53.72H40.8295Z" fill="#FFE387" stroke="black" stroke-width="4" stroke-linecap="round" stroke-linejoin="round"/>
<path d="M20.7495 90.62L35.3995 106.13L28.0695 126.08" stroke="black" stroke-width="3" stroke-linecap="round" stroke-linejoin="round"/>
<path d="M78.5694 69.8L71.6294 97.55L91.6694 108.35" stroke="black" stroke-width="3" stroke-linecap="round" stroke-linejoin="round"/>
<path d="M42.3396 126.08L71.6296 114.31C71.6296 114.31 90.1296 139.95 66.9996 143.81C43.8696 147.66 42.3296 126.08 42.3296 126.08H42.3396Z" fill="#FF7694" stroke="black" stroke-width="3" stroke-linecap="round" stroke-linejoin="round"/>
<path d="M179.779 112.3C159.359 106.58 144.269 89.14 141.469 66.47C138.299 40.86 153.729 14.68 179.689 5.26C208.009 -5.01 240.749 9.97 252.209 35.89C265.279 65.44 244.349 101.83 212.849 111.48C201.089 115.08 189.789 115.1 179.779 112.3Z" fill="#FFE387" stroke="black" stroke-width="4" stroke-linecap="round" stroke-linejoin="round"/>
<path d="M147.69 21.24C147.69 21.24 260.02 73.47 260.41 73.66C261.65 74.24 247.52 85.82 246.31 86.34C226.77 94.81 203.41 80.35 200.78 58.16C201.23 62 188.19 63.55 186.58 63.6C165.61 64.19 139.3 46.32 144.06 21.24" fill="black"/>
<path d="M162.589 69.8C162.589 69.8 171.839 95.24 211.919 94.47" stroke="black" stroke-width="3" stroke-linecap="round" stroke-linejoin="round"/>
<path d="M128.799 221.28C118.889 186.69 147.739 148.73 183.849 147.56C240.799 144.19 276.049 217.2 222.009 251.14C191.059 270.94 139.369 259.87 128.969 221.92L128.789 221.28H128.799Z" fill="#FFE387" stroke="black" stroke-width="4" stroke-linecap="round" stroke-linejoin="round"/>
<path d="M162.579 188.51C156.089 180.68 144.759 184.25 143.759 194.3C142.709 204.89 153.689 211.47 162.579 213.19C171.999 215 180.969 202.73 180.469 194.36C180.229 190.32 178.629 185.54 174.489 183.99C172.319 183.18 161.309 186.98 162.579 188.51Z" fill="#FF5576" stroke="black" stroke-width="4" stroke-linecap="round" stroke-linejoin="round"/>
<path d="M211.92 183.46C211.92 183.46 207.66 174.01 198.61 176.92C189.56 179.83 194.19 207.1 211.92 211.3C211.92 211.3 228.88 202.4 228.11 189.29C227.34 176.19 218.09 179.8 211.92 183.45V183.46Z" fill="#FF5576" stroke="black" stroke-width="4" stroke-linecap="round" stroke-linejoin="round"/>
<path d="M171.069 222.43H206.529C206.529 222.43 214.829 244.78 194.109 246.33C173.389 247.87 171.069 222.43 171.069 222.43Z" fill="#FF7694" stroke="black" stroke-width="3" stroke-linecap="round" stroke-linejoin="round"/>
</svg>
