<svg width="305" height="348" viewBox="0 0 305 348" fill="none" xmlns="http://www.w3.org/2000/svg">
<path d="M104.771 91.6203C104.771 91.6203 82.1206 154.04 99.2506 148.52C99.2506 148.52 75.4006 202.1 92.8506 190.5C92.8506 190.5 84.2606 246.84 95.6206 231.38C95.6206 231.38 92.6206 256.24 100.361 256.24C108.101 256.24 111.411 232.49 111.411 232.49C111.411 232.49 109.751 248.51 116.931 246.85C124.111 245.19 127.981 215.92 127.981 215.92C127.981 215.92 137.371 230.83 139.581 182.22C139.581 182.22 152.291 192.16 144.551 143C144.551 143 152.281 141.34 153.941 113.72C153.941 113.72 158.361 173.38 168.301 160.67C168.301 160.67 167.201 197.13 175.481 197.13C175.481 197.13 176.581 224.2 184.871 224.75C184.871 224.75 188.741 246.29 195.371 245.19C202.001 244.09 204.211 212.05 204.211 212.05C204.211 212.05 212.501 229.73 213.601 189.4C213.601 189.4 214.431 178.49 212.771 167.44C212.771 167.44 219.401 167.72 214.431 138.44C214.431 138.44 231.831 151.42 211.121 101.84C211.121 101.84 234.041 148.79 239.711 144.93C239.711 144.93 242.751 145.07 240.401 136.23C240.401 136.23 246.751 157.77 251.861 160.95C251.861 160.95 260.151 184.01 266.771 184.15C266.771 184.15 269.261 185.39 266.771 176.28C266.771 176.28 273.811 193.54 279.891 192.44C279.891 192.44 284.861 201.97 290.391 203.63C290.391 203.63 296.471 212.74 301.161 210.12C305.861 207.5 294.531 188.44 294.531 188.44C294.591 188.54 295.401 187.63 295.441 187.59C296.191 186.56 296.281 185.15 296.201 183.93C295.701 176.36 289.461 169.3 285.151 163.56C286.151 164.52 287.501 165.12 288.881 165.23C289.471 165.28 290.091 165.23 290.601 164.93C293.501 163.26 288.241 153.75 287.331 151.76C285.861 148.57 284.301 145.42 282.651 142.32C282.651 142.32 287.761 135.69 258.211 101.44C258.211 101.44 263.321 106 262.081 94.6703C260.841 83.3403 263.321 68.0203 227.831 41.0903C227.831 41.0903 227.691 28.1103 214.431 25.0703C214.431 25.0703 207.391 -8.62971 174.521 10.8503C174.521 10.8503 167.681 -7.27971 155.051 8.36029C155.051 8.36029 149.351 -1.99966 141.241 6.84034C141.241 6.84034 127.431 3.66029 124.121 13.6103C124.121 13.6103 112.801 3.11028 94.0106 20.1003C94.0106 20.1003 82.2706 31.5603 93.3206 30.0403C93.3206 30.0403 63.4907 40.4003 61.4207 52.4103C61.4207 52.4103 60.1807 56.9703 68.1907 53.9303C68.1907 53.9303 34.6306 72.3003 34.2206 84.7303C34.2206 84.7303 33.3907 90.8103 44.1607 87.0803C44.1607 87.0803 13.7806 119.53 24.9606 115.94C24.9606 115.94 5.07066 141.76 7.28066 149.22C7.28066 149.22 9.08061 153.36 13.3606 150.05C13.3606 150.05 1.21067 163.03 2.04067 181.95C2.04067 181.95 3.28059 193.69 13.0906 177.81C13.0906 177.81 0.520643 202.25 8.39064 211.92C8.39064 211.92 13.7807 214.82 18.0607 206.4C18.0607 206.4 17.0907 223.25 22.0607 223.39C27.0307 223.53 31.3107 201.57 31.3107 201.57C31.3107 201.57 31.8607 209.86 36.4207 209.03C40.9807 208.2 48.4307 169.53 48.4307 169.53C48.4307 169.53 45.3907 186.24 51.0507 186.1C56.7107 185.96 64.8606 152.68 64.8606 152.68C64.8606 152.68 65.9606 164.56 73.1507 155.72C80.3306 146.88 87.9307 121.33 87.9307 121.33C87.9307 121.33 90.8307 131.96 104.781 91.6403L104.771 91.6203Z" fill="#68BC8C" stroke="black" stroke-width="4" stroke-linecap="round" stroke-linejoin="round"/>
<path d="M154.07 85.2603V124.07" stroke="black" stroke-width="4" stroke-linecap="round" stroke-linejoin="round"/>
<path d="M210.89 101.75L205.65 90.8403" stroke="black" stroke-width="4" stroke-linecap="round" stroke-linejoin="round"/>
<path d="M175.471 197.12C167.181 197.12 168.291 160.66 168.291 160.66C159.351 172.08 154.881 125.02 154.071 115.41C153.981 114.33 153.931 113.7 153.931 113.7C152.271 141.32 144.541 142.98 144.541 142.98C152.271 192.14 139.571 182.2 139.571 182.2C137.361 230.81 127.971 215.9 127.971 215.9C127.971 215.9 125.631 233.64 121.201 242.28V345.99H183.071V224.14C176.421 220.13 175.481 197.12 175.481 197.12H175.471Z" fill="#C19181"/>
<path d="M154.071 115.41C154.881 125.02 159.351 172.08 168.291 160.66C168.291 160.66 167.181 197.12 175.471 197.12H175.481C175.481 197.12 176.421 220.13 183.071 224.14V345.99H121.201V242.28C125.631 233.64 127.971 215.9 127.971 215.9C127.971 215.9 137.361 230.81 139.571 182.2C139.571 182.2 152.271 192.14 144.541 142.98C144.541 142.98 152.271 141.32 153.931 113.7C153.931 113.7 153.981 114.33 154.071 115.41ZM154.071 115.41V124.06" stroke="black" stroke-width="4" stroke-linecap="round" stroke-linejoin="round"/>
<path d="M146.921 208.45V225.33" stroke="black" stroke-width="3" stroke-linecap="round" stroke-linejoin="round"/>
<path d="M159.351 157.19V174.08" stroke="black" stroke-width="3" stroke-linecap="round" stroke-linejoin="round"/>
<path d="M162.11 229.56V246.44" stroke="black" stroke-width="3" stroke-linecap="round" stroke-linejoin="round"/>
<path d="M133.94 250.27V267.16" stroke="black" stroke-width="3" stroke-linecap="round" stroke-linejoin="round"/>
<path d="M152.131 285.35V302.23" stroke="black" stroke-width="3" stroke-linecap="round" stroke-linejoin="round"/>
<path d="M171.5 271.54V288.42" stroke="black" stroke-width="3" stroke-linecap="round" stroke-linejoin="round"/>
<path d="M141.121 315.18V332.06" stroke="black" stroke-width="3" stroke-linecap="round" stroke-linejoin="round"/>
</svg>
