<svg width="292" height="333" viewBox="0 0 292 333" fill="none" xmlns="http://www.w3.org/2000/svg">
<path d="M126.363 16.74C126.363 16.74 130.563 13.21 131.903 7.16C133.243 1.11 139.963 -1.41 141.143 9.68C141.143 9.68 140.973 17.58 151.053 20.77C161.133 23.96 159.793 27.15 159.283 28.33C158.783 29.51 153.743 30.85 147.863 29.17C147.863 29.17 164.833 34.21 164.493 40.26C164.153 46.31 152.563 40.26 152.563 40.26C152.563 40.26 171.043 48.49 172.723 54.88C174.403 61.26 157.263 54.88 157.263 54.88C157.263 54.88 183.973 66.47 187.163 73.86C190.353 81.25 169.523 73.86 169.523 73.86C169.523 73.86 194.213 83.44 196.573 88.81C196.573 88.81 199.093 94.35 181.453 87.13C181.453 87.13 200.943 99.06 207.153 104.26C213.373 109.47 208.333 116.52 189.513 107.45C189.513 107.45 208.663 121.39 222.773 128.11C236.883 134.83 228.483 143.57 211.353 135.84C211.353 135.84 228.323 147.43 239.403 151.63C250.483 155.83 245.783 167.25 227.303 159.02C227.303 159.02 240.743 170.95 253.343 175.15C265.943 179.35 264.763 190.77 241.923 183.21C241.923 183.21 250.323 190.94 269.973 199C289.623 207.06 277.703 217.31 250.483 208.41C250.483 208.41 266.103 220.17 282.403 225.04C298.703 229.91 285.933 244.69 263.083 232.26C263.083 232.26 266.443 237.64 277.023 244.02C287.603 250.4 284.753 263.84 266.773 256.45C266.773 256.45 257.873 251.58 250.643 243.68C250.643 243.68 266.773 261.65 262.063 268.21C257.363 274.76 237.873 249.06 237.873 249.06C237.873 249.06 251.983 272.91 239.723 276.61C227.463 280.31 220.913 258.13 220.913 258.13C220.913 258.13 229.313 283.16 219.903 286.02C210.493 288.88 204.783 264.69 204.783 264.69C204.783 264.69 212.173 290.22 201.423 290.39C190.673 290.56 188.323 267.71 188.323 267.71C188.323 267.71 193.193 294.25 179.423 294.42C165.643 294.59 163.123 268.38 163.123 268.38C163.123 268.38 168.503 293.58 152.543 294.42C136.583 295.26 139.273 268.21 139.273 268.21C139.273 268.21 137.093 299.29 121.633 295.76C108.993 292.88 111.053 274.83 113.303 265.42C110.783 274.98 110.113 288.25 99.6535 292.82C83.5735 299.86 87.1434 270.69 88.2034 263.68C88.2034 263.68 84.8434 295.09 68.0434 293.41C51.2434 291.73 63.6734 263.17 63.6734 263.17C63.6734 263.17 55.2734 287.02 43.1834 287.02C31.0934 287.02 41.5035 253.59 41.5035 253.59C41.5035 253.59 31.0034 284.61 17.5634 275.54C17.5634 275.54 11.1834 270.33 25.2934 249.33C25.2934 249.33 5.64349 268.31 2.28349 254.71C-1.07651 241.1 26.6435 228.67 26.6435 228.67C26.6435 228.67 6.48344 236.9 6.48344 228.33C6.48344 219.76 47.8134 198.26 47.8134 198.26C47.8134 198.26 21.4435 210.52 19.2535 200.95C17.0735 191.37 51.8434 170.71 51.8434 170.71C51.8434 170.71 38.2334 176.76 37.0634 172.39C35.8834 168.02 66.6335 141.14 66.6335 141.14C66.6335 141.14 59.5734 145.68 56.2134 142.99C52.8534 140.3 84.6034 113.42 84.6034 113.42C84.6034 113.42 77.5434 118.96 74.1834 118.29C70.8234 117.62 68.6435 114.09 98.3735 83.52C98.3735 83.52 92.8334 89.23 87.7934 87.55C82.7534 85.87 108.963 61.18 108.963 61.18C108.963 61.18 99.0534 68.07 94.1834 65.21C89.3134 62.35 112.663 46.9 112.663 46.9C112.663 46.9 106.283 50.09 102.083 48.24C97.8834 46.39 123.083 30.6 123.083 30.6C123.083 30.6 115.183 32.28 113.503 27.74C111.823 23.2 122.573 22.81 126.353 16.71L126.363 16.74Z" fill="#48C19B" stroke="black" stroke-width="4" stroke-linecap="round" stroke-linejoin="round"/>
<path d="M154.384 41.11C153.254 40.57 152.563 40.26 152.563 40.26C152.563 40.26 153.294 40.64 154.384 41.11Z" stroke="black" stroke-width="4.57" stroke-linecap="round" stroke-linejoin="round"/>
<path d="M62.6934 265.74C63.3434 264.17 63.6934 263.18 63.6934 263.18C63.6934 263.18 63.2734 264.15 62.6934 265.74Z" stroke="black" stroke-width="4.57" stroke-linecap="round" stroke-linejoin="round"/>
<path d="M221.173 258.87C221.033 258.41 220.943 258.14 220.943 258.14C220.943 258.14 221.023 258.41 221.173 258.87Z" stroke="black" stroke-width="4.57" stroke-linecap="round" stroke-linejoin="round"/>
<path d="M205.293 266.52C206.743 272.36 210.443 290.25 201.453 290.39C193.043 290.52 189.774 276.56 188.744 270.48C189.554 277.28 190.463 294.28 179.443 294.42C169.083 294.55 165.094 279.76 163.744 272.42C164.504 279.57 164.483 293.8 152.563 294.42C137.753 295.2 139.004 271.99 139.254 268.63C138.934 272.27 136.054 299.05 121.654 295.76C109.014 292.88 111.073 274.83 113.323 265.42C110.803 274.98 110.133 288.25 99.6735 292.82C84.9135 299.28 86.7035 275.27 87.9235 265.85C87.0835 271.11 84.3035 284.58 77.1235 290.55V330.71H214.654V284.82C209.754 281.03 206.463 270.73 205.293 266.52Z" fill="#C19181" stroke="black" stroke-width="4" stroke-linecap="round" stroke-linejoin="round"/>
<path d="M87.9233 265.86C88.1333 264.51 88.2234 263.69 88.2234 263.69C88.1334 264.27 88.0333 265.01 87.9233 265.86Z" stroke="black" stroke-width="4.57" stroke-linecap="round" stroke-linejoin="round"/>
<path d="M188.743 270.49C188.543 268.79 188.343 267.72 188.343 267.72C188.343 267.72 188.453 268.8 188.743 270.49Z" stroke="black" stroke-width="4.57" stroke-linecap="round" stroke-linejoin="round"/>
<path d="M205.293 266.52C205.013 265.38 204.813 264.69 204.813 264.69C204.813 264.69 204.983 265.39 205.293 266.52Z" stroke="black" stroke-width="4.57" stroke-linecap="round" stroke-linejoin="round"/>
<path d="M163.753 272.43C163.493 270.01 163.153 268.39 163.153 268.39C163.153 268.39 163.313 270 163.753 272.43Z" stroke="black" stroke-width="4.57" stroke-linecap="round" stroke-linejoin="round"/>
<path d="M139.264 268.64C139.284 268.38 139.294 268.22 139.294 268.22" stroke="black" stroke-width="4.57" stroke-linecap="round" stroke-linejoin="round"/>
<path d="M93.6636 296.05V304.23" stroke="black" stroke-width="3" stroke-linecap="round" stroke-linejoin="round"/>
<path d="M113.224 304.23V315.71" stroke="black" stroke-width="3" stroke-linecap="round" stroke-linejoin="round"/>
<path d="M203.993 298.49V309.97" stroke="black" stroke-width="3" stroke-linecap="round" stroke-linejoin="round"/>
<path d="M138.503 297.39V308.87" stroke="black" stroke-width="3" stroke-linecap="round" stroke-linejoin="round"/>
<path d="M159.083 308.68V320.16" stroke="black" stroke-width="3" stroke-linecap="round" stroke-linejoin="round"/>
<path d="M188.874 307.64V319.12" stroke="black" stroke-width="3" stroke-linecap="round" stroke-linejoin="round"/>
<path d="M173.644 292.98V301.79" stroke="black" stroke-width="3" stroke-linecap="round" stroke-linejoin="round"/>
</svg>
