<svg width="42" height="60" viewBox="0 0 42 60" fill="none" xmlns="http://www.w3.org/2000/svg">
<path d="M20.2344 2.00003C21.3216 2.02393 22.1904 2.91259 22.1904 4.00003C22.1904 10.3887 23.928 16.6057 26.835 21.1651C29.7466 25.7317 33.6491 28.4004 38 28.4004C39.1046 28.4004 40 29.2959 40 30.4004C39.9998 31.5048 39.1044 32.4004 38 32.4004C32.2362 32.4004 28.4069 35.947 25.8779 40.9082C23.3316 45.9035 22.3182 51.9922 22.1895 56.0635C22.1548 57.155 21.2511 58.0171 20.1592 58C19.0671 57.9828 18.1904 57.0923 18.1904 56C18.1904 38.4006 8.09296 33.0282 3.70703 32.378C2.67083 32.2244 1.92885 31.2977 2.00586 30.253C2.08291 29.2083 2.9525 28.4004 4 28.4004C9.19456 28.4004 12.6841 24.3837 15.001 18.7403C17.2788 13.1918 18.0636 6.83993 18.1924 3.91214C18.2402 2.82578 19.1472 1.97617 20.2344 2.00003Z" fill="white" stroke="black" stroke-width="4" stroke-linejoin="round"/>
</svg>
