<svg width="36" height="45" viewBox="0 0 36 45" fill="none" xmlns="http://www.w3.org/2000/svg">
<path d="M15.5996 4C15.5996 2.89556 16.4952 2.00021 17.5996 2C18.7042 2 19.5996 2.89543 19.5996 4C19.5996 10.9339 21.8302 14.9934 24.3584 17.332C26.9449 19.7244 30.0405 20.5 32 20.5C33.1046 20.5 34 21.3954 34 22.5C34 23.6046 33.1046 24.5 32 24.5C27.4864 24.5 24.5239 26.9939 22.5557 30.4316C20.5505 33.9341 19.7215 38.2235 19.5977 41.0859C19.5507 42.1727 18.6441 43.0235 17.5566 43C16.4692 42.9764 15.5996 42.0877 15.5996 41C15.5996 33.871 13.254 29.7596 10.7656 27.4404C8.19857 25.048 5.3623 24.4388 4.24902 24.4873C4.20791 24.4901 4.16632 24.4935 4.125 24.4961C3.03098 24.5646 2.08515 23.7397 2.00488 22.6465C1.92472 21.553 2.7404 20.5984 3.83301 20.5068C3.8473 20.5056 3.86165 20.505 3.87598 20.5039H3.875L4.00684 20.4951L4.44043 20.4619C8.85976 20.0851 11.4359 18.6515 13.0244 16.3535C14.7632 13.8381 15.5996 9.90607 15.5996 4Z" fill="white" stroke="black" stroke-width="4" stroke-linejoin="round"/>
</svg>
