<svg width="1919" height="1080" viewBox="0 0 1919 1080" fill="none" xmlns="http://www.w3.org/2000/svg">
<g clip-path="url(#clip0_2030_312)">
<path d="M-527 386.76C-524.14 386.19 90.9 386.76 90.9 386.76C90.9 386.76 87.47 309.59 -41.71 324.46C-41.71 324.46 -43.42 253.01 -190.33 249.01C-190.33 249.01 -280.64 250.15 -373.81 302.74C-373.81 302.74 -377.96 261.23 -436.69 289.02C-500.71 319.31 -527 386.76 -527 386.76Z" fill="#68BC8C" stroke="black" stroke-width="4" stroke-linecap="round" stroke-linejoin="round"/>
<path d="M1389.95 386.84L1936.16 384.16C1936.16 384.16 1953.77 273.62 1882.62 264.89C1882.62 264.89 1838.72 260.57 1808.63 295.51C1808.63 295.51 1856.56 195.41 1714.28 185.52C1572 175.63 1516.67 309.05 1516.67 309.05C1516.67 309.05 1520.9 246.99 1464.97 256.35C1409.03 265.7 1389.96 386.84 1389.96 386.84H1389.95Z" fill="#68BC8C" stroke="black" stroke-width="4" stroke-linecap="round" stroke-linejoin="round"/>
<path d="M1721.68 253.89L1751.85 235.42L1736.99 257.04L1764.92 259.74L1732.49 269.2L1741.04 285.87L1717.17 274.16L1695.55 289.47L1705.46 266.5L1678.44 263.8L1706.36 255.69L1700.06 238.57L1721.68 253.89Z" fill="#73D7FF" stroke="black" stroke-width="4" stroke-linecap="round" stroke-linejoin="round"/>
<path d="M1583.16 318.53L1561.76 339.93" stroke="black" stroke-width="4" stroke-linecap="round" stroke-linejoin="round"/>
<path d="M1589.97 335.07L1553.33 320.48" stroke="black" stroke-width="4" stroke-linecap="round" stroke-linejoin="round"/>
<path d="M1577 348.04L1567.92 303.94" stroke="black" stroke-width="4" stroke-linecap="round" stroke-linejoin="round"/>
<path d="M66.3791 386.79H328.089C328.089 386.79 310.689 333.93 290.059 355.53C290.059 355.53 296.829 322.33 265.889 316.85C234.949 311.37 220.119 338.77 220.119 338.77C220.119 338.77 230.429 300.42 185.629 298.8C140.829 297.19 99.8991 352.3 99.8991 352.3C99.8991 352.3 79.5891 332.96 61.5491 342.31C43.4991 351.66 54.4591 382.6 66.3791 386.79Z" fill="#68BC8C" stroke="black" stroke-width="4" stroke-linecap="round" stroke-linejoin="round"/>
<path d="M1634.33 405.73H1774.93C1774.93 405.73 1792.73 347 1764.25 343.44C1764.25 343.44 1751.79 341.66 1735.77 368.36C1735.77 368.36 1744.67 322.98 1703.73 334.54C1703.73 334.54 1680.59 341.66 1672.58 375.47C1672.58 375.47 1626.31 368.35 1634.32 405.73H1634.33Z" fill="#68BC8C" stroke="black" stroke-width="4" stroke-linecap="round" stroke-linejoin="round"/>
<g clip-path="url(#clip1_2030_312)">
<path d="M1179.85 763.53H1303.31C1303.31 763.53 1310.39 763.53 1312.38 754.68C1314.37 745.83 1308.4 727.02 1287.38 725.92C1266.36 724.81 1260.39 733.89 1260.39 733.89C1260.39 733.89 1267.25 713.09 1251.1 712.21C1234.95 711.32 1222.11 729.91 1221.01 740.31C1221.01 740.31 1175.65 740.53 1167.24 756.68C1167.24 756.68 1164.81 763.54 1179.85 763.54V763.53Z" fill="#13A381" stroke="black" stroke-width="4" stroke-linecap="round" stroke-linejoin="round"/>
<path d="M1794.89 453.8C1794.89 453.8 1809.86 440.26 1825.54 453.8C1825.54 453.8 1839.44 440.02 1856.91 453.8" stroke="black" stroke-width="4" stroke-linecap="round" stroke-linejoin="round"/>
<path d="M455.78 677.99C455.78 677.99 498.81 655.18 543.89 677.99C543.89 677.99 583.84 654.78 634.04 677.99" stroke="black" stroke-width="4" stroke-linecap="round" stroke-linejoin="round"/>
<path d="M377.9 846.65C377.9 846.65 409 818.52 441.57 846.65C441.57 846.65 470.44 818.02 506.72 846.65" stroke="black" stroke-width="4" stroke-linecap="round" stroke-linejoin="round"/>
<path d="M1607.33 566.46C1607.33 566.46 1657.56 534.64 1700.23 566.46C1700.23 566.46 1740.83 532.44 1789.69 569.2" stroke="black" stroke-width="4" stroke-linecap="round" stroke-linejoin="round"/>
<path d="M1385.08 593.58C1385.08 593.58 1405.06 553.11 1401.07 593.58C1401.07 593.58 1427.05 554.11 1422.55 593.58C1422.55 593.58 1445.03 558.11 1441.03 593.58" stroke="black" stroke-width="4" stroke-linecap="round" stroke-linejoin="round"/>
<path d="M182.11 780.21C182.11 780.21 231.94 747.56 214.76 780.21C214.76 780.21 247.41 755.01 238.82 780.21C238.82 780.21 270.32 755.01 264.02 780.21" stroke="black" stroke-width="4" stroke-linecap="round" stroke-linejoin="round"/>
<path d="M76.7999 657.63C76.7999 657.63 60.8299 644.24 77.8299 625.18C94.8299 606.12 143.77 599.94 140.16 633.94C140.16 633.94 160.77 626.21 164.89 653C164.89 653 166.95 677.73 152.01 679.27C152.01 679.27 156.13 697.81 140.16 701.94C124.19 706.06 111.83 694.73 111.83 694.73C111.83 694.73 73.1999 710.18 63.4099 690.09C53.6199 670 76.7999 657.64 76.7999 657.64V657.63Z" fill="#48C19B" stroke="black" stroke-width="4" stroke-linecap="round" stroke-linejoin="round"/>
<path d="M111.83 694.72C111.83 694.72 100.8 699.13 89.0398 700.17V729.23H136.95V702.55C122.57 704.54 111.84 694.71 111.84 694.71L111.83 694.72Z" fill="#C19181" stroke="black" stroke-width="4" stroke-linecap="round" stroke-linejoin="round"/>
<path d="M97.97 707.86V699.23" stroke="black" stroke-width="3" stroke-miterlimit="10" stroke-linecap="round"/>
<path d="M111.22 714.96V709.16" stroke="black" stroke-width="3" stroke-miterlimit="10" stroke-linecap="round"/>
<path d="M106.24 727.95V722.15" stroke="black" stroke-width="3" stroke-miterlimit="10" stroke-linecap="round"/>
<path d="M126.06 707.31V702.03" stroke="black" stroke-width="3" stroke-miterlimit="10" stroke-linecap="round"/>
<path d="M78.7599 499.95H117.63C117.63 499.95 132.32 489.05 122.37 481.94C112.42 474.83 107.68 487.15 107.68 487.15C107.68 487.15 104.84 466.29 90.6199 467.72C76.3999 469.14 86.3499 484.78 86.3499 484.78C86.3499 484.78 72.1299 470.09 64.0699 477.67C56.0099 485.25 78.7599 499.95 78.7599 499.95Z" fill="#13A381" stroke="black" stroke-width="4" stroke-linecap="round" stroke-linejoin="round"/>
<path d="M712.56 651.96H755.61C755.61 651.96 771.88 639.89 760.86 632.01C749.84 624.14 744.59 637.78 744.59 637.78C744.59 637.78 741.44 614.68 725.69 616.26C709.94 617.83 720.97 635.16 720.97 635.16C720.97 635.16 705.22 618.89 696.3 627.29C687.38 635.69 712.57 651.96 712.57 651.96H712.56Z" fill="#4FAF86" stroke="black" stroke-width="4" stroke-linecap="round" stroke-linejoin="round"/>
<path d="M677.32 902.81L684.8 922.83L694.61 899.85L722.17 901.33L697.88 889.1L737.12 882.8L693.67 880.57V863.52L677.79 880.94L650.23 879.09L668.45 889.47L640.42 903.18L677.32 902.81Z" fill="#CEC35B" stroke="black" stroke-width="4" stroke-linecap="round" stroke-linejoin="round"/>
<path d="M795.2 456.8C795.2 456.8 856.12 429.01 876.05 449.22C876.05 449.22 884.19 457.64 862.57 458.77C862.57 458.77 885.59 458.77 883.06 466.63C880.53 474.49 837.3 471.68 795.19 456.8H795.2Z" fill="#68BC8C" stroke="black" stroke-width="4" stroke-linecap="round" stroke-linejoin="round"/>
<path d="M794.09 456.19C794.09 456.19 796.06 416.89 810.93 419.97C810.93 419.97 816.83 421.37 810.93 435.13C810.93 435.13 824.69 412.95 833.11 422.5C841.53 432.05 794.09 456.19 794.09 456.19Z" fill="#68BC8C" stroke="black" stroke-width="4" stroke-linecap="round" stroke-linejoin="round"/>
<path d="M793.23 456.52C793.23 456.52 794.63 427.6 775.82 425.92C757.01 424.24 773.01 441.08 773.01 441.08C773.01 441.08 747.74 430.97 741.01 439.4C734.27 447.82 766.28 455.4 793.23 456.53V456.52Z" fill="#68BC8C" stroke="black" stroke-width="4" stroke-linecap="round" stroke-linejoin="round"/>
<path d="M793.23 456.52C793.23 456.52 745.5 496.39 723.61 490.49C701.71 484.59 738.77 474.49 738.77 474.49C738.77 474.49 704.52 482.07 705.36 467.75C706.2 453.43 793.23 456.52 793.23 456.52Z" fill="#68BC8C" stroke="black" stroke-width="4" stroke-linecap="round" stroke-linejoin="round"/>
<path d="M792.87 456.47C792.87 456.47 759.74 492.97 777.15 495.77C777.15 495.77 783.61 499.42 790.34 481.17C790.34 481.17 787.53 498.58 801.01 497.45C814.49 496.33 792.87 456.46 792.87 456.46V456.47Z" fill="#68BC8C" stroke="black" stroke-width="4" stroke-linecap="round" stroke-linejoin="round"/>
<path d="M196.73 445.5C197.59 445.5 232.62 447.43 234.55 445.5C236.48 443.57 262.49 424.22 255.4 417.78C255.4 417.78 253.9 411.55 236.49 427.02C236.49 427.02 257.12 399.73 242.08 394.14C227.04 388.55 219.94 415.63 219.94 415.63C219.94 415.63 230.47 375.01 214.14 375.23C197.81 375.44 204.25 419.07 204.25 419.07C204.25 419.07 199.74 393.71 191.14 398.65C182.54 403.59 194.58 430.03 194.58 430.03C194.58 430.03 181.69 422.51 179.75 429.6C177.82 436.69 196.73 445.5 196.73 445.5Z" fill="#13A381" stroke="black" stroke-width="4" stroke-linecap="round" stroke-linejoin="round"/>
<path d="M615.31 525.46C615.31 525.46 630.43 514.12 633.13 525.46C633.13 525.46 650.95 513.04 652.57 524.92C652.57 524.92 669.85 511.42 668.77 524.92" stroke="black" stroke-width="4" stroke-linecap="round" stroke-linejoin="round"/>
<path d="M600.43 347.76C600.43 347.76 601.21 326.59 614.19 333.32C614.19 333.32 620.08 335.95 615.23 348.16C615.23 348.16 628.78 341.53 629.12 351.62C629.46 361.71 613.32 357.77 613.32 357.77C613.32 357.77 617.56 375.78 607.67 376.34C597.78 376.89 602.53 360.98 602.53 360.98C602.53 360.98 595.74 376.22 587.05 370.43C578.36 364.64 595.89 355.65 595.89 355.65C595.89 355.65 582.4 352.4 587.71 346.17C593.02 339.94 600.42 347.75 600.42 347.75L600.43 347.76Z" fill="#FFE964" stroke="black" stroke-width="4" stroke-linecap="round" stroke-linejoin="round"/>
<path d="M608.23 356.99C607.8 357.63 607.3 358.15 606.77 358.48C600.04 362.71 599.79 350.15 606.21 349.04C610.95 348.22 610.32 353.92 608.23 356.99Z" fill="#FF8AB7"/>
<path d="M601.46 372.47C601.46 372.47 599.16 383.52 608.91 402.19" stroke="black" stroke-width="4" stroke-linecap="round" stroke-linejoin="round"/>
<path d="M609.42 403.23C609.42 403.23 606.45 387.58 622.07 376.76C622.07 376.76 626.37 373.66 627.76 371.84C629.15 370.03 631.04 368.64 629.36 377.44C627.68 386.24 624.76 395.21 614.86 403.89C614.86 403.89 613.7 405.09 611.95 405.05C610.2 405 609.43 403.23 609.43 403.23H609.42Z" fill="#88D1B3" stroke="black" stroke-width="4" stroke-linecap="round" stroke-linejoin="round"/>
<path d="M609.08 403.66C606.45 399.18 603.87 394.76 600.02 391.11C598.09 389.28 595.92 387.67 593.53 386.48C591.11 385.27 588.5 384.54 586.09 383.26C584.3 382.31 584.47 383.33 584.54 384.82C584.78 390.07 586.06 394.66 589.46 398.76C592.93 402.93 597.89 405.32 603.27 405.75C603.27 405.75 611.33 407.5 609.08 403.67V403.66Z" fill="#88D1B3" stroke="black" stroke-width="4" stroke-linecap="round" stroke-linejoin="round"/>
<path d="M1813.74 644.97C1813.74 644.97 1817.32 622.96 1827.16 627.25C1837 631.54 1827.16 647.65 1827.16 647.65C1827.16 647.65 1839.51 639.96 1839.33 647.65C1839.15 655.34 1827.7 657.67 1827.7 657.67C1827.7 657.67 1828.59 682.19 1817.5 679.68C1817.5 679.68 1812.67 679.86 1812.31 665.72C1812.31 665.72 1806.4 680.93 1798.17 673.24C1789.94 665.55 1809.26 655.17 1809.26 655.17C1809.26 655.17 1794.05 649.09 1799.24 638.71C1804.43 628.33 1813.73 644.97 1813.73 644.97H1813.74Z" fill="#FFC2DB" stroke="black" stroke-width="4" stroke-linecap="round" stroke-linejoin="round"/>
<path d="M1815.51 653.42C1815.68 652.62 1815.92 651.84 1816.24 651.08C1816.84 649.64 1817.56 647.57 1818.89 646.66C1821.5 644.87 1822.9 648.24 1823.15 650.37C1823.57 653.95 1822.05 657.95 1819.6 660.56C1817.17 663.15 1815.75 661.21 1815.35 658.44C1815.11 656.77 1815.15 655.07 1815.5 653.42H1815.51Z" fill="#FFEDA1"/>
<path d="M1815.2 704.92C1815.2 704.92 1807.83 686.13 1812.33 666.63" stroke="black" stroke-width="4" stroke-miterlimit="10"/>
<path d="M1815.31 705.81C1815.14 705.81 1813.94 703.04 1813.82 702.83C1812.35 700.21 1810.61 697.74 1808.66 695.46C1805.99 692.32 1802.9 689.53 1799.48 687.23C1797.54 685.93 1783.25 677.37 1783.25 683.99C1783.25 686.85 1785.04 687.21 1790.23 695.62C1795.42 704.03 1801.75 705.82 1815.32 705.82L1815.31 705.81Z" fill="#A9FFD4" stroke="black" stroke-width="4" stroke-miterlimit="10"/>
<path d="M1814.56 705.78C1813.48 705.73 1816.32 697.25 1816.48 696.89C1818.82 691.73 1822.31 687.18 1826.2 683.11C1829.79 679.35 1834.43 676.36 1837.64 672.29C1839.25 670.25 1843.19 670.25 1841.22 676.88C1839.25 683.51 1835.67 706.8 1814.56 705.78Z" fill="#A9FFD4" stroke="black" stroke-width="4" stroke-miterlimit="10"/>
<path d="M1064.57 461.25L1076.33 451.26C1076.33 451.26 1078.98 448.32 1078.68 453.91C1078.2 462.98 1078.31 472.87 1071.01 479.54C1061.89 487.88 1046.46 486.39 1039.55 476.11C1032.86 466.15 1038.44 453.41 1043.7 444.21C1043.7 444.21 1046.05 440.09 1046.64 444.21C1047.23 448.33 1049.58 457.73 1049.58 457.73C1049.58 457.73 1063.1 435.68 1065.45 436.56C1067.8 437.44 1064.57 461.25 1064.57 461.25Z" fill="#FFD88A" stroke="black" stroke-width="4" stroke-linecap="round" stroke-linejoin="round"/>
<path d="M1054.07 527.84C1054.17 527.84 1054.28 527.86 1054.4 527.87C1054.35 527.87 1054.22 527.89 1054.07 527.84Z" stroke="black" stroke-width="4" stroke-linecap="round" stroke-linejoin="round"/>
<path d="M1072.15 513.49C1072.15 513.49 1063.66 528.39 1054.78 527.89C1055.18 527.77 1057.06 527.18 1056.33 525.2C1055.69 523.3 1054.99 521.39 1054.27 519.48C1057.87 510.89 1062.88 502.74 1067.91 494.94C1069.79 492 1072.07 489.23 1074.44 486.69C1075.71 485.32 1078.96 481.35 1081.25 482.32C1084.85 483.82 1079.95 499.18 1072.14 513.5L1072.15 513.49Z" fill="#88D1B3" stroke="black" stroke-width="4" stroke-linecap="round" stroke-linejoin="round"/>
<path d="M1054.78 527.89C1054.65 527.89 1054.53 527.89 1054.42 527.87H1054.4C1054.28 527.85 1054.17 527.84 1054.07 527.84C1054.02 527.82 1053.99 527.82 1053.94 527.82C1050.39 527.28 1048.05 525.36 1048.05 525.36C1041.27 519.85 1036.24 512.56 1032.73 504.61C1031.77 502.45 1025.46 487.92 1029.83 487.59C1031.35 487.47 1033.21 488.55 1034.48 489.26C1037.04 490.7 1039.13 492.81 1040.96 495.05C1046.7 502.13 1050.96 510.8 1054.27 519.48C1055 521.39 1055.69 523.31 1056.33 525.2C1057.06 527.18 1055.18 527.77 1054.78 527.89Z" fill="#88D1B3" stroke="black" stroke-width="4" stroke-linecap="round" stroke-linejoin="round"/>
<path d="M1057.6 512.36V484.88C1056.27 484.93 1054.94 484.86 1053.63 484.67V517.87C1053.84 518.4 1054.06 518.94 1054.27 519.47C1055.28 517.06 1056.4 514.69 1057.6 512.36Z" stroke="black" stroke-width="4" stroke-linecap="round" stroke-linejoin="round"/>
<path d="M1054.78 527.89L1054.7 527.91C1054.6 527.89 1054.5 527.89 1054.42 527.88C1054.54 527.9 1054.65 527.9 1054.78 527.9V527.89Z" stroke="black" stroke-width="4" stroke-linecap="round" stroke-linejoin="round"/>
<path d="M1111.89 432.4C1111.89 432.4 1137.1 419.2 1152.3 432.4C1152.3 432.4 1172.7 412.8 1195.91 432.4C1195.91 432.4 1219.51 414 1239.92 432.4" stroke="black" stroke-width="4" stroke-linecap="round" stroke-linejoin="round"/>
</g>
</g>
<defs>
<clipPath id="clip0_2030_312">
<rect width="1919" height="1080" fill="white"/>
</clipPath>
<clipPath id="clip1_2030_312">
<rect width="1799.91" height="594.83" fill="white" transform="translate(59 330)"/>
</clipPath>
</defs>
</svg>
