<svg width="302" height="291" viewBox="0 0 302 291" fill="none" xmlns="http://www.w3.org/2000/svg">
<path d="M133.693 157.286C133.693 152.466 130.093 148.216 124.833 148.216C116.883 148.216 112.663 156.956 108.773 162.566C100.023 175.186 89.0931 187.907 84.1331 202.667C80.3831 213.867 88.1332 225.996 100.083 225.996C114.053 225.996 116.603 213.266 117.903 202.176C118.903 193.646 120.843 185.186 124.073 177.216C126.563 171.076 131.913 166.077 133.433 159.517C133.603 158.767 133.693 158.027 133.693 157.297V157.286Z" fill="#A55EDB"/>
<path d="M100.083 228.127C93.9831 228.127 88.4231 225.267 84.8331 220.267C81.0531 215.007 80.0331 208.177 82.1131 201.987C86.0931 190.157 93.7031 179.737 101.053 169.667C103.053 166.927 105.113 164.107 107.023 161.347C107.603 160.507 108.193 159.597 108.803 158.647C112.423 153.047 116.933 146.077 124.823 146.077C130.983 146.077 135.803 150.997 135.813 157.277C135.813 158.187 135.713 159.097 135.503 159.987C134.543 164.117 132.273 167.587 130.073 170.937C128.503 173.327 127.023 175.587 126.043 178.007C123.093 185.287 121.063 193.497 120.013 202.407C118.953 211.387 116.993 228.107 100.073 228.107L100.083 228.127ZM124.833 150.347C119.263 150.347 115.613 155.987 112.393 160.967C111.753 161.947 111.143 162.907 110.533 163.777C108.593 166.577 106.513 169.427 104.503 172.177C97.3431 181.987 89.9331 192.137 86.1631 203.337C84.5231 208.227 85.3231 213.627 88.3031 217.767C91.0831 221.627 95.3831 223.847 100.093 223.847C111.023 223.847 114.203 215.457 115.803 201.907C116.893 192.617 119.023 184.037 122.113 176.397C123.253 173.587 124.923 171.047 126.533 168.587C128.613 165.407 130.583 162.407 131.373 159.017C131.503 158.447 131.573 157.857 131.573 157.277C131.573 153.907 129.213 150.337 124.843 150.337L124.833 150.347Z" fill="black"/>
<path d="M95.8731 219.437C93.3031 219.437 90.9332 217.757 90.1732 215.167L89.2631 212.047C88.9331 210.917 89.5832 209.737 90.7132 209.407C91.8432 209.087 93.0232 209.727 93.3532 210.857L94.2631 213.977C94.5231 214.857 95.4431 215.367 96.3331 215.107C97.2131 214.847 97.7232 213.917 97.4632 213.037L96.5532 209.917C96.3532 209.247 96.5031 208.527 96.9431 207.977C97.3831 207.437 98.0531 207.137 98.7531 207.187C98.7631 207.187 101.423 207.327 101.583 205.847C101.703 204.677 102.743 203.827 103.923 203.957C105.093 204.077 105.943 205.127 105.823 206.297C105.513 209.237 103.423 210.607 101.353 211.157L101.553 211.837C102.473 214.977 100.663 218.277 97.5232 219.187C96.9732 219.347 96.4132 219.427 95.8632 219.427L95.8731 219.437Z" fill="black"/>
<path d="M248.563 157.286C248.563 152.466 252.163 148.216 257.423 148.216C265.373 148.216 269.593 156.956 273.483 162.566C282.233 175.186 293.163 187.907 298.123 202.667C301.873 213.867 294.123 225.996 282.173 225.996C268.203 225.996 265.653 213.266 264.353 202.176C263.353 193.646 261.413 185.186 258.183 177.216C255.693 171.076 250.343 166.077 248.823 159.517C248.653 158.767 248.563 158.027 248.563 157.297V157.286Z" fill="#A55EDB"/>
<path d="M282.173 228.126C265.253 228.126 263.293 211.406 262.233 202.426C261.183 193.516 259.153 185.306 256.203 178.026C255.223 175.596 253.743 173.346 252.173 170.956C249.973 167.606 247.703 164.137 246.743 160.007C246.533 159.117 246.433 158.207 246.433 157.297C246.433 151.017 251.263 146.096 257.423 146.096C265.313 146.096 269.823 153.067 273.443 158.667C274.053 159.607 274.643 160.526 275.223 161.366C277.133 164.116 279.203 166.946 281.203 169.686C288.553 179.756 296.163 190.176 300.143 201.996C302.223 208.196 301.203 215.026 297.423 220.286C293.833 225.276 288.273 228.137 282.173 228.137V228.126ZM257.423 150.346C253.053 150.346 250.703 153.926 250.693 157.286C250.693 157.866 250.763 158.456 250.893 159.026C251.683 162.416 253.643 165.416 255.733 168.596C257.343 171.056 259.013 173.596 260.153 176.406C263.253 184.046 265.373 192.627 266.473 201.917C268.063 215.457 271.243 223.857 282.183 223.857C286.893 223.857 291.193 221.636 293.973 217.776C296.953 213.626 297.753 208.236 296.113 203.336C292.343 192.136 284.933 181.986 277.773 172.176C275.763 169.416 273.673 166.567 271.733 163.767C271.123 162.887 270.513 161.936 269.873 160.956C266.653 155.976 263.003 150.336 257.433 150.336L257.423 150.346Z" fill="black"/>
<path d="M286.383 219.436C285.833 219.436 285.283 219.356 284.723 219.196C281.583 218.276 279.773 214.976 280.693 211.836L280.893 211.156C278.833 210.606 276.743 209.237 276.423 206.297C276.303 205.127 277.143 204.076 278.323 203.956C279.503 203.836 280.543 204.676 280.663 205.846C280.823 207.336 283.463 207.186 283.493 207.186C284.203 207.126 284.863 207.426 285.303 207.976C285.743 208.516 285.883 209.246 285.693 209.916L284.783 213.036C284.523 213.916 285.033 214.847 285.923 215.107C286.803 215.357 287.733 214.856 287.993 213.966L288.903 210.846C289.233 209.716 290.413 209.076 291.543 209.396C292.673 209.726 293.323 210.906 292.993 212.036L292.083 215.156C291.333 217.746 288.953 219.426 286.383 219.426V219.436Z" fill="black"/>
<path d="M181.014 17.9365C178.864 7.27651 168.484 0.376516 157.824 2.53652C128.814 8.38652 143.694 53.9065 152.994 70.4265C156.424 76.5165 159.944 83.0165 165.144 87.8065C169.334 91.6765 178.624 93.3365 180.534 86.2565C181.824 81.4565 176.824 73.8265 175.664 69.0665C174.044 62.4465 173.314 55.5665 173.744 48.7565C174.084 43.5065 175.164 38.2265 177.584 33.5165C180.224 28.3865 182.224 23.9265 181.014 17.9365Z" fill="#A55EDB"/>
<path d="M173.694 93.2765C169.894 93.2765 166.034 91.5265 163.694 89.3665C158.494 84.5665 154.994 78.3465 151.614 72.3265L151.134 71.4665C144.554 59.7665 133.524 29.9965 141.454 12.6765C144.474 6.08652 149.834 1.96653 157.404 0.446528C163.114 -0.703472 168.934 0.436519 173.794 3.65652C178.654 6.88652 181.954 11.8065 183.114 17.5165C184.444 24.1165 182.354 28.9065 179.494 34.4965C177.454 38.4665 176.244 43.3065 175.884 48.8965C175.474 55.2465 176.104 61.8665 177.744 68.5665C178.094 70.0065 178.894 71.8665 179.744 73.8365C181.574 78.0965 183.654 82.9265 182.604 86.8165C181.784 89.8665 179.714 92.0165 176.774 92.8665C175.774 93.1565 174.744 93.2865 173.714 93.2865L173.694 93.2765ZM161.754 4.26652C160.584 4.26652 159.414 4.38653 158.244 4.61653C152.004 5.87653 147.784 9.08653 145.334 14.4465C138.784 28.7365 147.144 55.6765 154.854 69.3765L155.344 70.2365C158.564 75.9665 161.894 81.8965 166.594 86.2365C168.924 88.3865 172.964 89.5165 175.584 88.7665C177.094 88.3265 178.044 87.3265 178.484 85.6965C179.144 83.2365 177.384 79.1365 175.824 75.5065C174.904 73.3665 174.034 71.3565 173.604 69.5665C171.864 62.4465 171.194 55.3965 171.634 48.6165C172.034 42.4365 173.404 37.0265 175.704 32.5365C178.264 27.5465 180.004 23.6065 178.944 18.3465C178.014 13.7465 175.354 9.78653 171.444 7.19653C168.534 5.26653 165.184 4.25653 161.764 4.25653L161.754 4.26652Z" fill="black"/>
<path d="M157.824 2.53653C138.474 6.43653 138.654 27.9765 143.674 46.7965C149.314 46.8565 155.254 45.8165 161.094 43.5265C168.204 40.7365 174.174 36.4865 178.614 31.4665C180.704 27.1565 182.064 23.1265 181.014 17.9465C178.864 7.28654 168.474 0.386525 157.824 2.54653V2.53653Z" fill="#D3289F"/>
<path d="M173.694 93.2765C169.894 93.2765 166.034 91.5265 163.694 89.3665C158.494 84.5665 154.994 78.3465 151.614 72.3265L151.134 71.4665C144.554 59.7665 133.524 29.9965 141.454 12.6765C144.474 6.08652 149.834 1.96653 157.404 0.446528C163.114 -0.703472 168.934 0.436519 173.794 3.65652C178.654 6.88652 181.954 11.8065 183.114 17.5165C184.444 24.1165 182.354 28.9065 179.494 34.4965C177.454 38.4665 176.244 43.3065 175.884 48.8965C175.474 55.2465 176.104 61.8665 177.744 68.5665C178.094 70.0065 178.894 71.8665 179.744 73.8365C181.574 78.0965 183.654 82.9265 182.604 86.8165C181.784 89.8665 179.714 92.0165 176.774 92.8665C175.774 93.1565 174.744 93.2865 173.714 93.2865L173.694 93.2765ZM161.754 4.26652C160.584 4.26652 159.414 4.38653 158.244 4.61653C152.004 5.87653 147.784 9.08653 145.334 14.4465C138.784 28.7365 147.144 55.6765 154.854 69.3765L155.344 70.2365C158.564 75.9665 161.894 81.8965 166.594 86.2365C168.924 88.3865 172.964 89.5165 175.584 88.7665C177.094 88.3265 178.044 87.3265 178.484 85.6965C179.144 83.2365 177.384 79.1365 175.824 75.5065C174.904 73.3665 174.034 71.3565 173.604 69.5665C171.864 62.4465 171.194 55.3965 171.634 48.6165C172.034 42.4365 173.404 37.0265 175.704 32.5365C178.264 27.5465 180.004 23.6065 178.944 18.3465C178.014 13.7465 175.354 9.78653 171.444 7.19653C168.534 5.26653 165.184 4.25653 161.764 4.25653L161.754 4.26652Z" fill="black"/>
<path d="M202.583 17.9365C204.733 7.27651 215.113 0.376516 225.773 2.53652C254.783 8.38652 239.903 53.9065 230.603 70.4265C227.173 76.5165 223.653 83.0165 218.453 87.8065C214.263 91.6765 204.973 93.3365 203.063 86.2565C201.773 81.4565 206.773 73.8265 207.933 69.0665C209.553 62.4465 210.283 55.5665 209.853 48.7565C209.513 43.5065 208.433 38.2265 206.013 33.5165C203.373 28.3865 201.373 23.9265 202.583 17.9365Z" fill="#A55EDB"/>
<path d="M209.893 93.2765C208.853 93.2765 207.823 93.1465 206.833 92.8565C203.893 92.0065 201.823 89.8565 201.003 86.8065C199.953 82.9165 202.033 78.0865 203.863 73.8265C204.713 71.8565 205.513 69.9965 205.863 68.5565C207.503 61.8565 208.133 55.2365 207.723 48.8865C207.363 43.2965 206.153 38.4565 204.113 34.4865C201.243 28.9065 199.153 24.1065 200.493 17.5065C201.643 11.7965 204.953 6.87652 209.813 3.64652C214.673 0.426522 220.493 -0.713485 226.203 0.436515C233.763 1.96652 239.133 6.07651 242.153 12.6665C250.093 29.9865 239.063 59.7565 232.473 71.4565L231.993 72.3165C228.613 78.3365 225.113 84.5665 219.913 89.3665C217.573 91.5265 213.713 93.2765 209.913 93.2765H209.893ZM221.843 4.26652C218.423 4.26652 215.083 5.26652 212.163 7.20652C208.253 9.80652 205.593 13.7665 204.663 18.3565C203.603 23.6065 205.333 27.5465 207.903 32.5465C210.213 37.0365 211.583 42.4465 211.973 48.6265C212.403 55.4065 211.743 62.4565 210.003 69.5765C209.563 71.3565 208.703 73.3765 207.783 75.5165C206.223 79.1365 204.463 83.2465 205.123 85.7065C205.563 87.3365 206.513 88.3365 208.023 88.7765C210.643 89.5265 214.683 88.3965 217.013 86.2465C221.723 81.9065 225.053 75.9765 228.273 70.2465L228.753 69.3865C236.463 55.6865 244.823 28.7565 238.273 14.4665C235.823 9.10651 231.593 5.89651 225.363 4.63651C224.193 4.39651 223.023 4.28652 221.853 4.28652L221.843 4.26652Z" fill="black"/>
<path d="M225.773 2.53653C245.123 6.43653 244.943 27.9765 239.923 46.7965C234.283 46.8565 228.343 45.8165 222.503 43.5265C215.393 40.7365 209.423 36.4865 204.983 31.4665C202.893 27.1565 201.533 23.1265 202.583 17.9465C204.733 7.28654 215.123 0.386525 225.773 2.54653V2.53653Z" fill="#D3289F"/>
<path d="M209.893 93.2765C208.853 93.2765 207.823 93.1465 206.833 92.8565C203.893 92.0065 201.823 89.8565 201.003 86.8065C199.953 82.9165 202.033 78.0865 203.863 73.8265C204.713 71.8565 205.513 69.9965 205.863 68.5565C207.503 61.8565 208.133 55.2365 207.723 48.8865C207.363 43.2965 206.153 38.4565 204.113 34.4865C201.243 28.9065 199.153 24.1065 200.493 17.5065C201.643 11.7965 204.953 6.87652 209.813 3.64652C214.673 0.426522 220.493 -0.713485 226.203 0.436515C233.763 1.96652 239.133 6.07651 242.153 12.6665C250.093 29.9865 239.063 59.7565 232.473 71.4565L231.993 72.3165C228.613 78.3365 225.113 84.5665 219.913 89.3665C217.573 91.5265 213.713 93.2765 209.913 93.2765H209.893ZM221.843 4.26652C218.423 4.26652 215.083 5.26652 212.163 7.20652C208.253 9.80652 205.593 13.7665 204.663 18.3565C203.603 23.6065 205.333 27.5465 207.903 32.5465C210.213 37.0365 211.583 42.4465 211.973 48.6265C212.403 55.4065 211.743 62.4565 210.003 69.5765C209.563 71.3565 208.703 73.3765 207.783 75.5165C206.223 79.1365 204.463 83.2465 205.123 85.7065C205.563 87.3365 206.513 88.3365 208.023 88.7765C210.643 89.5265 214.683 88.3965 217.013 86.2465C221.723 81.9065 225.053 75.9765 228.273 70.2465L228.753 69.3865C236.463 55.6865 244.823 28.7565 238.273 14.4665C235.823 9.10651 231.593 5.89651 225.363 4.63651C224.193 4.39651 223.023 4.28652 221.853 4.28652L221.843 4.26652Z" fill="black"/>
<path d="M167.793 261.447L169.923 283.157C170.013 284.047 169.313 284.827 168.413 284.827C167.803 284.827 167.313 285.317 167.313 285.927V286.777C167.313 287.857 168.193 288.737 169.273 288.737H183.043C185.203 288.737 186.963 286.987 186.963 284.817V261.827L167.803 261.437L167.793 261.447Z" fill="#A55EDB"/>
<path d="M183.043 290.867H169.273C167.023 290.867 165.183 289.037 165.183 286.777V285.927C165.183 284.377 166.283 283.077 167.743 282.767L165.433 259.267L189.083 259.747V284.827C189.083 288.157 186.373 290.877 183.033 290.877L183.043 290.867ZM169.973 286.607H183.043C184.023 286.607 184.823 285.807 184.823 284.827V263.927L170.143 263.627L172.043 282.947C172.143 283.967 171.803 284.997 171.113 285.757C170.783 286.117 170.393 286.407 169.963 286.607H169.973Z" fill="black"/>
<path d="M215.793 261.447L213.663 283.157C213.573 284.047 214.273 284.827 215.173 284.827C215.783 284.827 216.273 285.317 216.273 285.927V286.777C216.273 287.857 215.393 288.737 214.313 288.737H200.543C198.383 288.737 196.623 286.987 196.623 284.817V261.827L215.783 261.437L215.793 261.447Z" fill="#A55EDB"/>
<path d="M214.323 290.867H200.553C197.223 290.867 194.503 288.157 194.503 284.817V259.737L218.153 259.257L215.843 282.757C217.303 283.067 218.403 284.367 218.403 285.917V286.767C218.403 289.027 216.573 290.857 214.313 290.857L214.323 290.867ZM198.763 263.917V284.817C198.763 285.797 199.563 286.597 200.543 286.597H213.613C213.183 286.397 212.793 286.107 212.463 285.747C211.773 284.987 211.433 283.957 211.533 282.937L213.433 263.617L198.753 263.917H198.763Z" fill="black"/>
<path d="M268.973 198.427C265.413 179.437 263.453 160.187 263.453 140.867V140.707C263.453 106.707 234.283 79.1465 191.793 79.1465C149.303 79.1465 120.133 106.707 120.133 140.707V140.867C120.133 160.187 118.173 179.437 114.613 198.427C113.723 203.167 113.093 207.557 113.093 210.437C113.093 244.437 137.733 271.997 191.793 271.997C245.853 271.997 270.493 244.437 270.493 210.437C270.493 207.557 269.863 203.167 268.973 198.427Z" fill="#A55EDB"/>
<path d="M191.793 163.737C206.86 163.737 219.073 151.523 219.073 136.457C219.073 121.39 206.86 109.177 191.793 109.177C176.727 109.177 164.513 121.39 164.513 136.457C164.513 151.523 176.727 163.737 191.793 163.737Z" fill="white"/>
<path d="M191.793 151.197C199.934 151.197 206.533 144.597 206.533 136.457C206.533 128.316 199.934 121.717 191.793 121.717C183.653 121.717 177.053 128.316 177.053 136.457C177.053 144.597 183.653 151.197 191.793 151.197Z" fill="#CC38AC"/>
<path d="M191.793 146.877C197.548 146.877 202.213 142.211 202.213 136.457C202.213 130.702 197.548 126.037 191.793 126.037C186.038 126.037 181.373 130.702 181.373 136.457C181.373 142.211 186.038 146.877 191.793 146.877Z" fill="#0D0E12"/>
<path d="M200.943 133.897C199.323 134.827 197.073 133.957 195.903 131.937C194.743 129.917 195.103 127.527 196.723 126.597C198.343 125.667 200.593 126.537 201.763 128.557C202.923 130.577 202.563 132.967 200.943 133.897Z" fill="white"/>
<path d="M191.794 182.477C186.734 182.477 182.624 178.367 182.624 173.307V169.967C182.624 168.787 183.574 167.837 184.754 167.837C185.934 167.837 186.884 168.787 186.884 169.967V173.307C186.884 176.017 189.084 178.217 191.794 178.217C194.504 178.217 196.704 176.017 196.704 173.307V169.967C196.704 168.787 197.654 167.837 198.834 167.837C200.014 167.837 200.964 168.787 200.964 169.967V173.307C200.964 178.367 196.854 182.477 191.794 182.477Z" fill="black"/>
<path d="M252.594 236.997L249.854 223.057C246.264 204.757 228.564 191.417 207.874 191.417H175.714C155.034 191.417 137.334 204.757 133.734 223.057L130.994 236.997C130.984 237.067 130.964 237.127 130.954 237.197C129.174 246.637 134.054 256.137 142.604 260.507C155.144 266.907 171.444 270.637 191.774 270.637C212.104 270.637 228.414 266.917 240.944 260.507C249.504 256.137 254.374 246.647 252.594 237.197C252.584 237.127 252.564 237.067 252.554 236.997H252.594Z" fill="#C993DE"/>
<path d="M191.793 274.127C132.203 274.127 110.963 241.227 110.963 210.437C110.963 207.727 111.483 203.547 112.523 198.037C116.163 178.617 118.003 159.377 118.003 140.867V140.707C118.003 104.397 149.723 77.0165 191.793 77.0165C233.863 77.0165 265.583 104.397 265.583 140.707V140.867C265.583 159.377 267.423 178.607 271.063 198.037C272.093 203.557 272.623 207.727 272.623 210.437C272.623 241.227 251.393 274.127 191.793 274.127ZM191.793 81.2665C152.153 81.2665 122.273 106.817 122.273 140.697V140.857C122.273 159.627 120.403 179.127 116.713 198.807C115.723 204.067 115.233 207.977 115.233 210.427C115.233 247.637 143.853 269.857 191.793 269.857C239.733 269.857 268.363 247.637 268.363 210.427C268.363 207.977 267.863 204.067 266.883 198.807C263.193 179.127 261.323 159.627 261.323 140.857V140.697C261.323 106.817 231.433 81.2665 191.793 81.2665Z" fill="black"/>
<path d="M99.6333 272.387C97.6933 272.387 95.7433 272.186 93.8233 271.786C93.4233 271.706 93.0333 271.616 92.6433 271.496C90.1633 270.876 87.8033 269.946 85.6233 268.716C85.5233 268.656 85.4234 268.587 85.3334 268.517C83.8634 267.297 82.3033 266.166 80.6933 265.156C74.8933 261.406 68.0333 258.636 60.8133 257.146C56.6933 256.296 52.5234 255.857 48.4234 255.857C45.3534 255.857 42.3033 256.096 39.3833 256.586C37.4233 256.906 35.5934 257.306 33.8034 257.836C33.6834 257.866 33.5734 257.896 33.4534 257.906C32.5034 258.006 31.5333 258.056 30.5633 258.056C29.0133 258.056 27.4434 257.927 25.8934 257.667C25.4834 257.617 25.0933 257.536 24.6933 257.456C9.33334 254.276 -0.566646 239.186 2.61335 223.836C2.83335 222.756 3.10337 221.777 3.41337 220.857C6.95337 205.807 25.7633 196.096 51.3733 196.096C58.4433 196.096 65.7134 196.856 72.9834 198.366C107.403 205.496 131.493 226.696 127.913 246.656C127.833 247.626 127.693 248.626 127.473 249.706C124.753 262.846 113.043 272.387 99.6433 272.387H99.6333Z" fill="#DFE4EA"/>
<path d="M51.3632 198.086C58.1232 198.086 65.2731 198.806 72.5731 200.316C105.623 207.166 129.363 227.736 125.923 246.396C125.853 247.356 125.703 248.327 125.503 249.297C122.913 261.787 111.913 270.376 99.6331 270.376C97.8531 270.376 96.0432 270.196 94.2332 269.816C93.8832 269.746 93.5231 269.666 93.1831 269.556C90.8331 268.976 88.6232 268.096 86.6032 266.956C85.0932 265.706 83.4631 264.517 81.7431 263.447C75.8731 259.647 68.8931 256.766 61.2132 255.176C56.8731 254.276 52.5732 253.846 48.4132 253.846C45.1932 253.846 42.0532 254.106 39.0432 254.596C37.0432 254.916 35.1132 255.346 33.2232 255.896C32.3432 255.986 31.4432 256.036 30.5432 256.036C29.0932 256.036 27.6232 255.917 26.1532 255.667C25.7932 255.627 25.4431 255.556 25.0831 255.486C10.7831 252.526 1.59315 238.527 4.55315 224.227C4.75315 223.257 5.00313 222.306 5.32313 221.396C8.64313 206.986 27.5532 198.077 51.3632 198.077M51.3731 194.086C24.8531 194.086 5.30314 204.367 1.48314 220.297C1.15314 221.277 0.873142 222.296 0.643142 223.426C-1.00686 231.386 0.543158 239.516 5.00316 246.316C9.46316 253.116 16.3131 257.767 24.2731 259.417C24.6431 259.497 25.0932 259.586 25.6032 259.646C27.2432 259.916 28.9032 260.056 30.5432 260.056C31.5832 260.056 32.6231 260.006 33.6431 259.896C33.8831 259.866 34.1132 259.827 34.3432 259.757C36.0532 259.257 37.8032 258.866 39.6732 258.566C42.5032 258.096 45.4432 257.866 48.4032 257.866C52.3732 257.866 56.4031 258.286 60.3931 259.116C67.3731 260.566 74.0031 263.226 79.5631 266.836C79.5831 266.846 79.5932 266.856 79.6132 266.866C81.1532 267.836 82.6432 268.906 84.0432 270.066C84.2232 270.216 84.4231 270.357 84.6331 270.477C86.9531 271.787 89.4732 272.787 92.1132 273.447C92.6032 273.597 93.0532 273.687 93.4232 273.767C95.4732 274.187 97.5631 274.406 99.6331 274.406C113.983 274.406 126.513 264.197 129.423 250.137C129.653 249.017 129.813 247.966 129.893 246.936C133.573 225.926 108.813 203.766 73.3831 196.426C65.9731 194.886 58.5632 194.116 51.3632 194.116L51.3731 194.086Z" fill="black"/>
<path d="M94.2532 213.076C87.3332 209.956 79.6932 207.516 71.5332 205.796C71.5032 205.796 71.4732 205.776 71.4432 205.766C71.3932 205.766 71.3532 205.746 71.3132 205.746C71.2732 205.746 71.2232 205.726 71.1832 205.716C71.1532 205.716 71.1232 205.716 71.0932 205.716C62.9232 204.046 54.9332 203.256 47.3532 203.366C44.3632 203.406 41.9732 205.876 42.0232 208.866C42.0632 211.446 43.9032 213.586 46.3332 214.086C46.7132 214.166 47.1132 214.206 47.5232 214.196C54.2932 214.096 61.7632 214.846 69.1232 216.366C76.4832 217.906 83.6432 220.176 89.8132 222.966C90.1832 223.136 90.5632 223.256 90.9432 223.336C93.3732 223.836 95.9132 222.616 96.9732 220.256C98.2032 217.526 96.9932 214.326 94.2632 213.096L94.2532 213.076Z" fill="#B2C2D3"/>
<path d="M41.9232 226.937L35.0732 225.517L36.4932 218.667C36.6632 217.867 36.1432 217.087 35.3432 216.917L29.7032 215.747C28.9032 215.577 28.1232 216.097 27.9532 216.897L26.5332 223.747L19.6832 222.327C18.8832 222.157 18.1032 222.677 17.9332 223.477L16.7632 229.117C16.5932 229.917 17.1132 230.697 17.9132 230.867L24.7632 232.287L23.3432 239.137C23.1732 239.937 23.6932 240.717 24.4932 240.887L30.1332 242.057C30.9332 242.227 31.7132 241.707 31.8832 240.907L33.3032 234.057L40.1532 235.477C40.9532 235.647 41.7332 235.127 41.9032 234.327L43.0732 228.687C43.2432 227.887 42.7232 227.107 41.9232 226.937Z" fill="#8983FF"/>
<path d="M100.123 239.077C103.111 239.077 105.533 236.654 105.533 233.667C105.533 230.679 103.111 228.257 100.123 228.257C97.1355 228.257 94.7134 230.679 94.7134 233.667C94.7134 236.654 97.1355 239.077 100.123 239.077Z" fill="#FFB031"/>
<path d="M97.6331 259.457C100.621 259.457 103.043 257.034 103.043 254.047C103.043 251.059 100.621 248.637 97.6331 248.637C94.6453 248.637 92.2231 251.059 92.2231 254.047C92.2231 257.034 94.6453 259.457 97.6331 259.457Z" fill="#FFB031"/>
<path d="M109.173 251.136C112.161 251.136 114.583 248.714 114.583 245.726C114.583 242.739 112.161 240.316 109.173 240.316C106.185 240.316 103.763 242.739 103.763 245.726C103.763 248.714 106.185 251.136 109.173 251.136Z" fill="#FFB031"/>
<path d="M88.2933 248.006C91.2812 248.006 93.7033 245.584 93.7033 242.596C93.7033 239.609 91.2812 237.186 88.2933 237.186C85.3055 237.186 82.8833 239.609 82.8833 242.596C82.8833 245.584 85.3055 248.006 88.2933 248.006Z" fill="#FFB031"/>
<path d="M74.613 246.547C73.683 243.757 71.333 241.667 68.453 241.077L59.903 239.307C57.023 238.707 54.043 239.687 52.073 241.877L41.063 254.157L41.153 254.317C47.463 253.527 54.283 253.747 61.213 255.187C68.063 256.607 74.343 259.057 79.773 262.257L79.843 262.206L74.613 246.557V246.547Z" fill="#B2C2D3"/>
</svg>
