<svg width="64" height="56" viewBox="0 0 64 56" fill="none" xmlns="http://www.w3.org/2000/svg">
<path d="M25.6804 16.7633C25.7304 15.0733 18.6404 15.6033 17.4604 15.7233C9.61041 16.5133 3.2904 22.3033 2.1704 30.1533C0.940401 38.8033 6.54039 48.0432 14.3504 51.8232C18.4904 53.8332 23.3304 53.1733 27.8004 51.6833C36.9904 48.6233 37.6304 42.9233 37.8004 43.0133C37.8004 43.0133 50.5404 50.2333 58.8204 35.7433C63.0404 28.3433 62.5904 18.6733 58.1504 11.4533C54.1204 4.89328 46.7404 0.913262 39.0704 2.43326C32.0604 3.82326 25.9104 9.30327 25.6804 16.7533V16.7633Z" fill="#FF6C7E" stroke="black" stroke-width="4" stroke-linecap="round" stroke-linejoin="round"/>
<path d="M9.3103 3.04329C9.3103 3.04329 14.2003 -3.62671 25.6803 16.7633" stroke="black" stroke-width="4" stroke-linecap="round" stroke-linejoin="round"/>
</svg>
