<svg width="58" height="54" viewBox="0 0 58 54" fill="none" xmlns="http://www.w3.org/2000/svg">
<path d="M34.25 15.5901C24.73 -0.419923 2 10.5801 2 27.0201C2 36.8901 13.15 45.1701 22.69 41.5101C22.64 41.5301 24.73 44.5801 24.86 44.7501C26.73 47.0501 29.08 49.0301 31.83 50.1801C47.6 56.7601 58.04 38.1201 54.26 24.8301C53.22 21.1801 51.2 17.5701 47.98 15.4201C46.21 14.2401 44.19 13.6001 42.07 13.5501C41.26 13.5301 33.94 15.0901 34.24 15.5901H34.25Z" fill="#FF6C7E" stroke="black" stroke-width="4" stroke-linecap="round" stroke-linejoin="round"/>
<path d="M46.89 2.00012C46.89 2.00012 40.02 2.62009 34.25 15.5901" stroke="black" stroke-width="4" stroke-linecap="round" stroke-linejoin="round"/>
</svg>
