<svg width="167" height="184" viewBox="0 0 167 184" fill="none" xmlns="http://www.w3.org/2000/svg">
<path d="M41.964 110.242H34.554C28.434 110.242 23.154 114.532 21.904 120.512C20.414 127.632 20.064 134.942 20.884 142.162L22.874 159.762C23.604 166.192 27.744 171.732 33.704 174.262C37.294 175.782 41.374 175.642 44.844 173.872L47.534 172.502C52.374 170.042 55.844 165.522 56.964 160.202C57.814 156.142 56.884 151.912 54.414 148.592L48.454 140.592L48.194 114.132L41.964 110.242Z" fill="black" stroke="black" stroke-width="4" stroke-miterlimit="10"/>
<path d="M44.8537 173.872C41.3837 175.642 37.3037 175.782 33.7137 174.262C27.7537 171.732 23.6137 166.192 22.8837 159.762L20.8937 142.162C20.0737 134.932 20.4137 127.622 21.9137 120.512C23.1437 114.632 28.2637 110.422 34.2337 110.272L34.1837 110.242H26.7737C20.6537 110.242 15.3737 114.682 14.1237 120.892C12.6337 128.272 12.2837 135.852 13.1037 143.342L15.0937 161.592C15.8237 168.262 19.9637 174.002 25.9237 176.622C29.5137 178.202 38.2637 178.062 42.0637 176.052C42.0637 176.052 48.6437 172.222 51.2037 170.012C50.0937 170.982 48.8737 171.832 47.5337 172.512L44.8437 173.882L44.8537 173.872Z" fill="white" stroke="black" stroke-width="4" stroke-miterlimit="10" stroke-linejoin="round"/>
<path d="M46.7141 142.841C55.9594 142.841 63.4541 135.347 63.4541 126.101C63.4541 116.856 55.9594 109.361 46.7141 109.361C37.4689 109.361 29.9741 116.856 29.9741 126.101C29.9741 135.347 37.4689 142.841 46.7141 142.841Z" fill="white" stroke="black" stroke-width="4" stroke-miterlimit="10"/>
<path d="M51.1139 135.332C45.5639 135.332 40.8439 131.072 40.3839 125.442C39.8939 119.502 44.3039 114.292 50.2339 113.802C61.3939 112.872 69.3439 109.762 73.2039 104.802C76.2639 100.872 76.1039 96.5325 76.0139 95.4725C74.8239 91.1125 76.4839 86.2924 80.4539 83.6524C85.4139 80.3524 92.1039 81.7124 95.4039 86.6724C98.4439 91.2524 98.6439 102.442 94.1039 111.822C89.5139 121.312 78.4839 133.092 52.0339 135.292C51.7339 135.322 51.4239 135.332 51.1239 135.332H51.1139ZM77.4139 98.5824C77.4139 98.5824 77.4139 98.5824 77.4139 98.5924C77.4139 98.5924 77.4139 98.5924 77.4139 98.5824Z" fill="#FC8865" stroke="black" stroke-width="4" stroke-miterlimit="10"/>
<path d="M41.5239 14.9321C41.5239 14.9321 12.2739 3.65214 3.2739 31.7121C1.2939 37.8921 1.6839 44.5921 4.0139 50.6521L16.0739 81.9521C20.6139 93.7321 31.2239 102.052 43.7439 103.692C63.0839 106.222 93.3639 106.962 123.694 94.8021C134.134 90.6121 141.574 81.1821 143.514 70.1021L149.084 38.2521C151.314 25.5321 145.064 12.6521 133.444 7.01214C124.434 2.63214 111.894 1.06213 95.4839 8.72213C95.4839 8.72213 62.2739 -9.95787 41.5139 14.9521L41.5239 14.9321Z" fill="#FC8865" stroke="black" stroke-width="4" stroke-miterlimit="10" stroke-linejoin="round"/>
<path d="M86.0041 61.6323C90.8752 61.6323 94.8241 55.127 94.8241 47.1023C94.8241 39.0776 90.8752 32.5723 86.0041 32.5723C81.1329 32.5723 77.1841 39.0776 77.1841 47.1023C77.1841 55.127 81.1329 61.6323 86.0041 61.6323Z" fill="white"/>
<path d="M89.5642 41.0017C88.4642 38.3917 86.8542 37.0117 86.0042 37.0117C84.6342 37.0117 81.3042 40.5517 81.3042 47.1017C81.3042 53.6517 84.6442 57.1917 86.0042 57.1917C87.3642 57.1917 90.7042 53.6517 90.7042 47.1017C90.7042 46.6817 90.6542 46.3017 90.6242 45.9017L86.2542 43.0217L89.5642 41.0017Z" fill="black"/>
<path d="M69.7638 61.6323C74.635 61.6323 78.5838 55.127 78.5838 47.1023C78.5838 39.0776 74.635 32.5723 69.7638 32.5723C64.8927 32.5723 60.9438 39.0776 60.9438 47.1023C60.9438 55.127 64.8927 61.6323 69.7638 61.6323Z" fill="white"/>
<path d="M73.324 41.0017C72.224 38.3917 70.614 37.0117 69.764 37.0117C68.394 37.0117 65.064 40.5517 65.064 47.1017C65.064 53.6517 68.404 57.1917 69.764 57.1917C71.124 57.1917 74.464 53.6517 74.464 47.1017C74.464 46.6817 74.414 46.3017 74.384 45.9017L70.014 43.0217L73.324 41.0017Z" fill="black"/>
<path d="M94.6537 65.3126C91.4837 59.2026 83.0637 58.7826 78.6937 62.5426C78.5237 62.6826 78.3737 62.8526 78.2237 63.0026C78.0837 62.8726 77.9437 62.7326 77.7937 62.6126C73.2937 59.0026 64.8937 59.7126 61.9337 65.9326C60.1037 69.7826 57.0737 69.4226 53.3037 68.1226C53.7737 68.2826 54.7137 70.1526 55.0637 70.5526C56.6637 72.4126 58.6337 73.9626 60.8237 75.0626C64.4737 76.8926 68.9037 77.9726 72.9937 77.3826C75.1237 77.0726 77.0737 76.1126 78.4937 74.6326C79.9537 76.0326 81.9137 76.9026 84.0237 77.1326C88.1237 77.5826 92.5237 76.3426 96.1037 74.3826C98.2537 73.2026 100.164 71.5826 101.704 69.6726C102.034 69.2526 102.914 67.3526 103.374 67.1826C99.6537 68.6126 96.6337 69.0826 94.6737 65.2926L94.6537 65.3126Z" fill="black"/>
<path d="M51.0339 18.4325L42.2139 15.3125" stroke="black" stroke-width="4" stroke-linecap="round" stroke-linejoin="round"/>
<path d="M104.484 14.1018L95.834 9.0918" stroke="black" stroke-width="4" stroke-linecap="round" stroke-linejoin="round"/>
<path d="M111.564 161.803C109.664 161.803 107.734 161.303 105.994 160.243C81.9837 145.723 57.2237 103.313 54.4737 98.523C51.5137 93.363 53.3037 86.7729 58.4637 83.8029C63.6337 80.8529 70.2237 82.6229 73.1837 87.7929C79.8837 99.4729 100.844 131.933 117.144 141.783C122.244 144.863 123.874 151.493 120.794 156.593C118.764 159.943 115.204 161.803 111.554 161.803H111.564Z" fill="#FC8865" stroke="black" stroke-width="4" stroke-miterlimit="10"/>
<path d="M115.846 158.71C123.342 150.232 123.605 138.22 116.434 131.88C109.264 125.541 97.3748 127.275 89.8793 135.753C82.3839 144.231 82.1205 156.243 89.291 162.582C96.4616 168.922 108.351 167.188 115.846 158.71Z" fill="white" stroke="black" stroke-width="4" stroke-miterlimit="10"/>
<path d="M135.544 146.472L141.344 138.102C144.694 133.272 149.934 130.102 155.764 129.372L158.794 128.992C162.164 128.572 165.094 131.312 164.894 134.712L164.834 135.702C164.464 141.942 161.284 147.672 156.204 151.302L148.024 157.132C143.814 160.132 140.024 163.682 136.744 167.672L131.574 173.982C128.234 178.062 123.464 180.702 118.234 181.382L117.744 181.442C114.074 181.912 111.014 178.662 111.714 175.022C112.634 170.242 115.224 165.932 119.004 162.872L124.274 158.612C128.584 155.122 132.384 151.032 135.544 146.472Z" fill="#559AFF" stroke="black" stroke-width="4" stroke-miterlimit="10"/>
<path d="M106.504 170.183C107.434 165.323 110.034 160.963 113.844 157.853L119.144 153.523C123.484 149.983 127.304 145.833 130.484 141.203L136.314 132.713C139.684 127.813 144.954 124.593 150.814 123.853L153.864 123.473C155.564 123.263 157.144 123.853 158.284 124.923L158.404 124.893C153.714 120.823 147.784 118.363 141.484 118.053C134.574 117.703 128.064 121.303 124.564 127.263L118.074 138.313L116.634 137.273C114.614 135.813 111.964 135.603 109.704 136.653C103.154 139.713 98.2739 145.493 96.3539 152.473L96.3039 152.643C95.1539 156.813 96.1839 161.283 99.0439 164.533L106.904 173.463C106.474 172.483 106.294 171.363 106.524 170.193L106.504 170.183Z" fill="black" stroke="black" stroke-width="4" stroke-linecap="round" stroke-linejoin="round"/>
<path d="M111.704 175.022C112.624 170.242 115.214 165.932 118.994 162.872L124.264 158.612C128.574 155.122 132.374 151.032 135.534 146.472L141.334 138.102C144.684 133.272 149.924 130.102 155.754 129.372L158.784 128.992C160.104 128.822 161.354 129.162 162.384 129.822C162.574 129.612 162.684 129.482 162.684 129.482L162.064 128.682C157.024 122.272 149.434 118.372 141.294 118.022C134.504 117.722 128.104 121.202 124.664 127.062L118.064 138.292L116.624 137.252C114.634 135.812 112.014 135.562 109.784 136.592C103.194 139.642 98.2738 145.442 96.3438 152.452L95.4338 155.762C94.8238 157.972 95.3738 160.342 96.8838 162.062L111.584 178.762C111.584 178.762 111.794 178.592 112.134 178.292C111.674 177.312 111.484 176.182 111.704 175.012V175.022Z" stroke="black" stroke-width="4" stroke-miterlimit="10"/>
<path d="M158.404 124.873L158.284 124.903C157.154 123.833 154.414 121.793 152.714 122.013L149.664 122.393C143.804 123.133 138.524 126.353 135.164 131.253L129.334 139.743C126.154 144.373 122.334 148.523 117.994 152.063L112.694 156.393C108.884 159.503 106.284 163.873 105.354 168.723C105.134 169.893 105.304 171.013 105.734 171.993L111.574 178.763C111.574 178.763 111.784 178.593 112.124 178.293C111.664 177.313 111.474 176.183 111.694 175.013C112.614 170.233 115.204 165.923 118.984 162.863L124.254 158.603C128.564 155.113 132.364 151.023 135.524 146.463L141.324 138.093C144.674 133.263 149.914 130.093 155.744 129.363L158.774 128.983C160.094 128.813 161.344 129.153 162.374 129.813C162.564 129.603 162.674 129.473 162.674 129.473L162.054 128.673C160.954 127.273 159.714 126.013 158.394 124.863L158.404 124.873Z" fill="white" stroke="black" stroke-width="4" stroke-miterlimit="10"/>
<path d="M42.6841 84.6029C43.5541 85.3629 47.3441 98.4629 47.3441 98.4629L53.1941 100.413C53.1941 100.413 52.9341 98.9129 54.2741 98.3529C56.1141 97.5929 57.4141 99.3229 57.4141 99.3229L72.0341 95.1029L77.6641 99.2129C77.6641 99.2129 77.1541 97.5829 79.1841 97.1529C81.2141 96.7229 82.7541 99.3229 82.7541 99.3229C82.7541 99.3229 90.3341 94.8829 90.1141 94.5629C89.8941 94.2429 78.0941 81.1329 78.0941 81.1329L52.7541 78.2129L42.6841 84.6029Z" fill="#FC8865"/>
</svg>
