<svg width="167" height="184" viewBox="0 0 167 184" fill="none" xmlns="http://www.w3.org/2000/svg">
<path d="M41.964 110.243H34.554C28.434 110.243 23.154 114.533 21.904 120.513C20.414 127.633 20.064 134.943 20.884 142.163L22.874 159.763C23.604 166.193 27.744 171.733 33.704 174.263C37.294 175.783 41.374 175.643 44.844 173.873L47.534 172.503C52.374 170.043 55.844 165.523 56.964 160.203C57.814 156.143 56.884 151.913 54.414 148.593L48.454 140.593L48.194 114.133L41.964 110.243Z" fill="black" stroke="black" stroke-width="4" stroke-miterlimit="10"/>
<path d="M44.854 173.873C41.384 175.643 37.304 175.783 33.714 174.263C27.754 171.733 23.614 166.193 22.884 159.763L20.894 142.163C20.074 134.933 20.414 127.623 21.914 120.513C23.144 114.633 28.264 110.423 34.234 110.273L34.184 110.243H26.774C20.654 110.243 15.374 114.683 14.124 120.893C12.634 128.273 12.284 135.853 13.104 143.343L15.094 161.593C15.824 168.263 19.964 174.003 25.924 176.623C29.514 178.203 38.264 178.063 42.064 176.053C42.064 176.053 48.644 172.223 51.204 170.013C50.094 170.983 48.874 171.833 47.534 172.513L44.844 173.883L44.854 173.873Z" fill="white" stroke="black" stroke-width="4" stroke-miterlimit="10"/>
<path d="M46.7139 142.843C55.9591 142.843 63.4539 135.348 63.4539 126.103C63.4539 116.857 55.9591 109.363 46.7139 109.363C37.4686 109.363 29.9739 116.857 29.9739 126.103C29.9739 135.348 37.4686 142.843 46.7139 142.843Z" fill="white" stroke="black" stroke-width="4" stroke-miterlimit="10"/>
<path d="M51.1139 135.333C45.5639 135.333 40.8439 131.073 40.3839 125.443C39.8939 119.503 44.3039 114.293 50.2339 113.803C61.3939 112.873 69.3439 109.763 73.2039 104.803C76.2639 100.873 76.1039 96.5326 76.0139 95.4726C74.8239 91.1126 76.4839 86.2926 80.4539 83.6526C85.4139 80.3526 92.1039 81.7126 95.4039 86.6726C98.4439 91.2526 98.6439 102.443 94.1039 111.823C89.5139 121.313 78.4839 133.093 52.0339 135.293C51.7339 135.323 51.4239 135.333 51.1239 135.333H51.1139ZM77.4139 98.5826C77.4139 98.5826 77.4139 98.5826 77.4139 98.5926C77.4139 98.5926 77.4139 98.5926 77.4139 98.5826Z" fill="#FC8865" stroke="black" stroke-width="4" stroke-miterlimit="10"/>
<path d="M41.5239 14.9326C41.5239 14.9326 12.2739 3.65256 3.2739 31.7126C1.2939 37.8926 1.6839 44.5926 4.0139 50.6526L16.0739 81.9526C20.6139 93.7326 31.2239 102.053 43.7439 103.693C63.0839 106.223 93.3639 106.963 123.694 94.8026C134.134 90.6126 141.574 81.1825 143.514 70.1025L149.084 38.2526C151.314 25.5326 145.064 12.6526 133.444 7.01257C124.434 2.63257 111.894 1.06256 95.4839 8.72256C95.4839 8.72256 62.2739 -9.95745 41.5139 14.9526L41.5239 14.9326Z" fill="#FC8865" stroke="black" stroke-width="4" stroke-miterlimit="10" stroke-linejoin="round"/>
<path d="M86.0038 61.6326C90.875 61.6326 94.8238 55.1273 94.8238 47.1026C94.8238 39.0779 90.875 32.5726 86.0038 32.5726C81.1327 32.5726 77.1838 39.0779 77.1838 47.1026C77.1838 55.1273 81.1327 61.6326 86.0038 61.6326Z" fill="white"/>
<path d="M89.5637 41.0026C88.4637 38.3926 86.8537 37.0126 86.0037 37.0126C84.6337 37.0126 81.3037 40.5526 81.3037 47.1026C81.3037 53.6526 84.6437 57.1926 86.0037 57.1926C87.3637 57.1926 90.7037 53.6526 90.7037 47.1026C90.7037 46.6826 90.6537 46.3026 90.6237 45.9026L86.2537 43.0226L89.5637 41.0026Z" fill="black"/>
<path d="M69.7638 61.6326C74.635 61.6326 78.5838 55.1273 78.5838 47.1026C78.5838 39.0779 74.635 32.5726 69.7638 32.5726C64.8927 32.5726 60.9438 39.0779 60.9438 47.1026C60.9438 55.1273 64.8927 61.6326 69.7638 61.6326Z" fill="white"/>
<path d="M73.324 41.0026C72.224 38.3926 70.614 37.0126 69.764 37.0126C68.394 37.0126 65.064 40.5526 65.064 47.1026C65.064 53.6526 68.404 57.1926 69.764 57.1926C71.124 57.1926 74.464 53.6526 74.464 47.1026C74.464 46.6826 74.414 46.3026 74.384 45.9026L70.014 43.0226L73.324 41.0026Z" fill="black"/>
<path d="M94.654 65.3126C91.484 59.2026 83.064 58.7826 78.694 62.5426C78.524 62.6826 78.374 62.8526 78.224 63.0026C78.084 62.8726 77.944 62.7326 77.794 62.6126C73.294 59.0026 64.894 59.7126 61.934 65.9326C60.104 69.7826 57.074 69.4226 53.304 68.1226C53.774 68.2826 54.714 70.1526 55.064 70.5526C56.664 72.4126 58.634 73.9626 60.824 75.0626C64.474 76.8926 68.904 77.9726 72.994 77.3826C75.124 77.0726 77.074 76.1126 78.494 74.6326C79.954 76.0326 81.914 76.9026 84.024 77.1326C88.124 77.5826 92.524 76.3426 96.104 74.3826C98.254 73.2026 100.164 71.5826 101.704 69.6726C102.034 69.2526 102.914 67.3526 103.374 67.1826C99.654 68.6126 96.634 69.0826 94.674 65.2926L94.654 65.3126Z" fill="black"/>
<path d="M51.0339 18.4326L42.2139 15.3126" stroke="black" stroke-width="4" stroke-linecap="round" stroke-linejoin="round"/>
<path d="M104.484 14.1026L95.834 9.09259" stroke="black" stroke-width="4" stroke-linecap="round" stroke-linejoin="round"/>
<path d="M111.564 161.803C109.664 161.803 107.734 161.303 105.994 160.243C81.9839 145.723 57.2239 103.313 54.4739 98.5225C51.5139 93.3625 53.3039 86.7725 58.4639 83.8025C63.6339 80.8525 70.2239 82.6225 73.1839 87.7925C79.8839 99.4725 100.844 131.933 117.144 141.783C122.244 144.863 123.874 151.493 120.794 156.593C118.764 159.943 115.204 161.803 111.554 161.803H111.564Z" fill="#FC8865" stroke="black" stroke-width="4" stroke-miterlimit="10"/>
<path d="M115.846 158.71C123.342 150.232 123.605 138.22 116.434 131.88C109.264 125.541 97.3748 127.274 89.8793 135.752C82.3839 144.23 82.1205 156.242 89.291 162.582C96.4616 168.921 108.351 167.188 115.846 158.71Z" fill="white" stroke="black" stroke-width="4" stroke-miterlimit="10"/>
<path d="M135.544 146.473L141.344 138.103C144.694 133.273 149.934 130.103 155.764 129.373L158.794 128.993C162.164 128.573 165.094 131.313 164.894 134.713L164.834 135.703C164.464 141.943 161.284 147.673 156.204 151.303L148.024 157.133C143.814 160.133 140.024 163.683 136.744 167.673L131.574 173.983C128.234 178.063 123.464 180.703 118.234 181.383L117.744 181.443C114.074 181.913 111.014 178.663 111.714 175.023C112.634 170.243 115.224 165.933 119.004 162.873L124.274 158.613C128.584 155.123 132.384 151.033 135.544 146.473Z" fill="#559AFF" stroke="black" stroke-width="4" stroke-miterlimit="10"/>
<path d="M106.504 170.183C107.434 165.323 110.034 160.963 113.844 157.853L119.144 153.523C123.484 149.983 127.304 145.833 130.484 141.203L136.314 132.713C139.684 127.813 144.954 124.593 150.814 123.853L153.864 123.473C155.564 123.263 157.144 123.853 158.284 124.923L158.404 124.893C153.714 120.823 147.784 118.363 141.484 118.053C134.574 117.703 128.064 121.303 124.564 127.263L118.074 138.313L116.634 137.273C114.614 135.813 111.964 135.603 109.704 136.653C103.154 139.713 98.2739 145.493 96.3539 152.473L96.3039 152.643C95.1539 156.813 96.1839 161.283 99.0439 164.533L106.904 173.463C106.474 172.483 106.294 171.363 106.524 170.193L106.504 170.183Z" fill="black" stroke="black" stroke-width="4" stroke-linecap="round" stroke-linejoin="round"/>
<path d="M111.704 175.023C112.624 170.243 115.214 165.933 118.994 162.873L124.264 158.613C128.574 155.123 132.374 151.033 135.534 146.473L141.334 138.103C144.684 133.273 149.924 130.103 155.754 129.373L158.784 128.993C160.104 128.823 161.354 129.163 162.384 129.823C162.574 129.613 162.684 129.483 162.684 129.483L162.064 128.683C157.024 122.273 149.434 118.373 141.294 118.023C134.504 117.723 128.104 121.203 124.664 127.063L118.064 138.293L116.624 137.253C114.634 135.813 112.014 135.563 109.784 136.593C103.194 139.643 98.2738 145.443 96.3438 152.453L95.4338 155.763C94.8238 157.973 95.3738 160.343 96.8838 162.063L111.584 178.763C111.584 178.763 111.794 178.593 112.134 178.293C111.674 177.313 111.484 176.183 111.704 175.013V175.023Z" stroke="black" stroke-width="4" stroke-miterlimit="10"/>
<path d="M158.404 124.873L158.284 124.903C157.154 123.833 154.414 121.793 152.714 122.013L149.664 122.393C143.804 123.133 138.524 126.353 135.164 131.253L129.334 139.743C126.154 144.373 122.334 148.523 117.994 152.063L112.694 156.393C108.884 159.503 106.284 163.873 105.354 168.723C105.134 169.893 105.304 171.013 105.734 171.993L111.574 178.763C111.574 178.763 111.784 178.593 112.124 178.293C111.664 177.313 111.474 176.183 111.694 175.013C112.614 170.233 115.204 165.923 118.984 162.863L124.254 158.603C128.564 155.113 132.364 151.023 135.524 146.463L141.324 138.093C144.674 133.263 149.914 130.093 155.744 129.363L158.774 128.983C160.094 128.813 161.344 129.153 162.374 129.813C162.564 129.603 162.674 129.473 162.674 129.473L162.054 128.673C160.954 127.273 159.714 126.013 158.394 124.863L158.404 124.873Z" fill="white" stroke="black" stroke-width="4" stroke-miterlimit="10"/>
<path d="M42.6838 84.6026C43.5538 85.3626 47.3438 98.4626 47.3438 98.4626L53.1938 100.413C53.1938 100.413 52.9338 98.9126 54.2738 98.3526C56.1138 97.5926 57.4138 99.3226 57.4138 99.3226L72.0338 95.1026L77.6638 99.2126C77.6638 99.2126 77.1538 97.5826 79.1838 97.1526C81.2138 96.7226 82.7538 99.3226 82.7538 99.3226C82.7538 99.3226 90.3338 94.8826 90.1138 94.5626C89.8938 94.2426 78.0938 81.1326 78.0938 81.1326L52.7538 78.2126L42.6838 84.6026Z" fill="#FC8865"/>
</svg>
