<svg width="387" height="388" viewBox="0 0 387 388" fill="none" xmlns="http://www.w3.org/2000/svg">
<path d="M346.776 370.82H37.3558C25.6358 370.82 16.2858 361.04 16.8058 349.33L26.2058 158.08H359.026L367.326 349.44C367.786 361.11 358.446 370.82 346.766 370.82H346.776Z" fill="#FFD6CC" stroke="black" stroke-width="4" stroke-linecap="round" stroke-linejoin="round"/>
<path d="M50.3759 180.03H3.03589L22.4159 134.92H64.9059L50.3759 180.03Z" fill="#FC8865" stroke="black" stroke-width="4" stroke-miterlimit="10"/>
<path d="M97.706 180.03H50.376L64.906 134.92H107.396L97.706 180.03Z" fill="#FFD6CC" stroke="black" stroke-width="4" stroke-linecap="round" stroke-linejoin="round"/>
<path d="M145.036 180.03H97.7058L107.396 134.92H149.886L145.036 180.03Z" fill="#FC8865" stroke="black" stroke-width="4" stroke-miterlimit="10"/>
<path d="M192.376 180.03H145.036L149.886 134.92H192.376V180.03Z" fill="#FFD6CC" stroke="black" stroke-width="4" stroke-linecap="round" stroke-linejoin="round"/>
<path d="M50.3759 180.03H3.0459L3.2059 199.85C3.3059 212.83 13.8659 223.31 26.8559 223.31C39.9759 223.31 50.5859 212.64 50.5059 199.52L50.3859 180.03H50.3759Z" fill="#FC8865" stroke="black" stroke-width="4" stroke-miterlimit="10"/>
<path d="M97.706 180.03H50.376L50.496 199.81C50.576 212.81 61.136 223.31 74.146 223.31C87.246 223.31 97.846 212.66 97.796 199.57L97.716 180.03H97.706Z" fill="#FFD6CC" stroke="black" stroke-width="4" stroke-linecap="round" stroke-linejoin="round"/>
<path d="M145.036 180.03H97.7058L97.7858 199.76C97.8358 212.78 108.406 223.31 121.436 223.31C134.516 223.31 145.106 212.69 145.086 199.62L145.046 180.04L145.036 180.03Z" fill="#FC8865" stroke="black" stroke-width="4" stroke-miterlimit="10"/>
<path d="M192.376 180.03H145.046L145.086 199.71C145.116 212.75 155.696 223.31 168.736 223.31C181.796 223.31 192.386 212.72 192.386 199.66V180.03H192.376Z" fill="#FFD6CC" stroke="black" stroke-width="4" stroke-linecap="round" stroke-linejoin="round"/>
<path d="M334.376 180.03H381.706L362.336 134.92H319.846L334.376 180.03Z" fill="#FFD6CC" stroke="black" stroke-width="4" stroke-linecap="round" stroke-linejoin="round"/>
<path d="M287.046 180.03H334.376L319.846 134.92H277.356L287.046 180.03Z" fill="#FC8865" stroke="black" stroke-width="4" stroke-miterlimit="10"/>
<path d="M239.706 180.03H287.046L277.356 134.92H234.866L239.706 180.03Z" fill="#FFD6CC" stroke="black" stroke-width="4" stroke-linecap="round" stroke-linejoin="round"/>
<path d="M192.376 180.03H239.706L234.866 134.92H192.376V180.03Z" fill="#FC8865" stroke="black" stroke-width="4" stroke-miterlimit="10"/>
<path d="M334.376 180.03H381.706L381.546 199.85C381.446 212.83 370.886 223.31 357.896 223.31C344.776 223.31 334.166 212.64 334.246 199.52L334.366 180.03H334.376Z" fill="#FFD6CC" stroke="black" stroke-width="4" stroke-linecap="round" stroke-linejoin="round"/>
<path d="M287.046 180.03H334.376L334.256 199.81C334.176 212.81 323.616 223.31 310.606 223.31C297.506 223.31 286.906 212.66 286.956 199.57L287.036 180.03H287.046Z" fill="#FC8865" stroke="black" stroke-width="4" stroke-miterlimit="10"/>
<path d="M239.706 180.03H287.036L286.956 199.76C286.906 212.78 276.336 223.31 263.306 223.31C250.226 223.31 239.636 212.69 239.656 199.62L239.696 180.04L239.706 180.03Z" fill="#FFD6CC" stroke="black" stroke-width="4" stroke-linecap="round" stroke-linejoin="round"/>
<path d="M192.376 180.03H239.706L239.666 199.71C239.636 212.75 229.056 223.31 216.016 223.31C202.956 223.31 192.366 212.72 192.366 199.66V180.03H192.376Z" fill="#FC8865" stroke="black" stroke-width="4" stroke-miterlimit="10"/>
<path d="M362.336 134.92H22.4158L29.1558 115.93C37.9658 89.82 62.0558 71.92 89.6058 71.03L290.366 64.56C319.286 63.63 345.436 81.63 354.906 108.97L362.346 134.92H362.336Z" fill="#FFD6CC" stroke="black" stroke-width="4" stroke-linecap="round" stroke-linejoin="round"/>
<path d="M90.3258 93.54L291.086 87.07C291.556 87.05 292.036 87.05 292.506 87.05C309.606 87.05 325.006 97.08 332.036 112.41L337.846 134.93H362.336L354.896 108.98C345.436 81.64 319.276 63.64 290.356 64.57L89.5958 71.04C62.0558 71.93 37.9558 89.83 29.1458 115.94L22.4058 134.93H46.0958L55.8658 112.41C63.5858 101.23 76.3358 94 90.3158 93.55L90.3258 93.54Z" fill="#FC8865" stroke="black" stroke-width="4" stroke-miterlimit="10"/>
<path d="M57.7259 370.82L53.3759 273.7C53.0859 266.05 59.0059 259.59 66.6559 259.23L122.656 256.55C130.806 256.16 137.546 262.81 137.266 270.96L133.306 370.81H57.7159L57.7259 370.82Z" fill="#C1927E" stroke="black" stroke-width="4" stroke-linecap="round" stroke-linejoin="round"/>
<path d="M68.5959 308.21L67.7259 280.95C67.5859 278.08 69.8259 275.66 72.6959 275.55L116.196 273.98C119.126 273.87 121.556 276.23 121.536 279.16L120.536 308C120.526 310.84 118.216 313.14 115.376 313.14H73.7459C70.9959 313.14 68.7259 310.98 68.5959 308.23V308.21Z" fill="#5D7F6D" stroke="black" stroke-width="3" stroke-linecap="round" stroke-linejoin="round"/>
<path d="M119.776 323.34H110.866C108.596 323.34 106.756 325.18 106.756 327.45V327.46C106.756 329.73 108.596 331.57 110.866 331.57H119.776C122.046 331.57 123.886 329.73 123.886 327.46V327.45C123.886 325.18 122.046 323.34 119.776 323.34Z" fill="#FC8865" stroke="black" stroke-width="2" stroke-miterlimit="10"/>
<path d="M232.23 275.8L168.494 279.263C165.505 279.426 163.214 281.981 163.376 284.97L165.636 326.558C165.798 329.547 168.353 331.839 171.342 331.676L235.078 328.213C238.067 328.051 240.358 325.496 240.196 322.507L237.936 280.918C237.774 277.929 235.219 275.638 232.23 275.8Z" fill="#C1927E" stroke="black" stroke-width="4" stroke-linecap="round" stroke-linejoin="round"/>
<path d="M197.484 277.687L168.627 279.255L169.941 303.439L198.798 301.872L197.484 277.687Z" fill="#5D7F6D" stroke="black" stroke-width="3" stroke-linecap="round" stroke-linejoin="round"/>
<path d="M199.059 306.748L170.202 308.316L171.168 326.11L200.026 324.542L199.059 306.748Z" fill="#5D7F6D" stroke="black" stroke-width="3" stroke-linecap="round" stroke-linejoin="round"/>
<path d="M232.171 275.798L203.313 277.366L204.627 301.55L233.485 299.982L232.171 275.798Z" fill="#5D7F6D" stroke="black" stroke-width="3" stroke-linecap="round" stroke-linejoin="round"/>
<path d="M233.756 304.869L204.898 306.437L205.865 324.23L234.723 322.662L233.756 304.869Z" fill="#5D7F6D" stroke="black" stroke-width="3" stroke-linecap="round" stroke-linejoin="round"/>
<path d="M234.616 285.2L167.316 288.86C162.456 289.12 158.186 285.68 157.416 280.88L156.676 276.28C155.806 270.88 159.676 265.86 165.116 265.32L233.076 258.57C238.636 258.02 243.466 262.35 243.516 267.93L243.586 275.62C243.636 280.7 239.676 284.92 234.606 285.2H234.616Z" fill="#FC8865" stroke="black" stroke-width="4" stroke-miterlimit="10"/>
<path d="M335.152 267.856L271.428 264.182C268.439 264.01 265.877 266.293 265.705 269.281L263.307 310.862C263.135 313.85 265.418 316.413 268.406 316.585L332.13 320.259C335.119 320.432 337.681 318.149 337.853 315.16L340.251 273.579C340.423 270.591 338.14 268.029 335.152 267.856Z" fill="#C1927E" stroke="black" stroke-width="4" stroke-linecap="round" stroke-linejoin="round"/>
<path d="M300.414 265.853L271.562 264.189L270.168 288.369L299.02 290.033L300.414 265.853Z" fill="#5D7F6D" stroke="black" stroke-width="3" stroke-linecap="round" stroke-linejoin="round"/>
<path d="M298.734 294.899L269.882 293.236L268.856 311.026L297.708 312.69L298.734 294.899Z" fill="#5D7F6D" stroke="black" stroke-width="3" stroke-linecap="round" stroke-linejoin="round"/>
<path d="M335.101 267.857L306.249 266.193L304.855 290.373L333.707 292.036L335.101 267.857Z" fill="#5D7F6D" stroke="black" stroke-width="3" stroke-linecap="round" stroke-linejoin="round"/>
<path d="M333.421 296.912L304.569 295.249L303.543 313.039L332.395 314.703L333.421 296.912Z" fill="#5D7F6D" stroke="black" stroke-width="3" stroke-linecap="round" stroke-linejoin="round"/>
<path d="M336.616 277.5L269.336 273.62C264.486 273.34 260.626 269.44 260.396 264.58L260.306 257.62C260.046 252.15 265.236 245.82 270.706 245.89L336.366 251.8C341.946 251.87 347.556 256.86 346.986 262.41L346.606 268.98C346.086 274.03 341.676 277.79 336.606 277.49L336.616 277.5Z" fill="#FC8865" stroke="black" stroke-width="4" stroke-miterlimit="10"/>
<path d="M174.456 118.83C164.206 118.83 154.056 118.5 144.306 117.84L143.086 117.76L141.886 117.5C139.656 117.02 119.866 112.29 112.616 94.89C106.346 79.83 106.616 62.56 107.716 47.65C109.366 25.11 122.836 10.55 142.016 10.55C149.346 10.55 155.596 12.1 160.626 14.12C168.096 8.18 178.966 2 191.876 2H192.876C203.916 2.29 212.826 6.1 219.316 10.25C221.166 9.39 222.406 8.95 222.456 8.94C226.426 7.56 230.716 6.86 235.216 6.86C248.526 6.86 261.786 12.81 269.816 22.38C281.766 36.63 278.786 56.28 277.806 62.73C276.156 73.67 274.226 84.32 268.986 94.36C260.216 111.13 244.466 113.54 235.996 114.83C234.886 115 209.186 118.82 174.446 118.82L174.456 118.83Z" fill="#C1927E" stroke="black" stroke-width="4" stroke-linecap="round" stroke-linejoin="round"/>
<path d="M161.376 25.53C161.526 25.61 161.666 25.7 161.806 25.78C161.926 25.67 162.046 25.55 162.166 25.44" stroke="#F4C3B8" stroke-width="3" stroke-linecap="round" stroke-linejoin="round"/>
<path d="M166.666 21.55C172.816 16.72 181.526 11.81 191.476 11.81C191.726 11.81 191.986 11.81 192.236 11.81C197.986 11.95 203.916 13.42 209.386 16.06C211.436 17.05 213.406 18.19 215.256 19.47" stroke="#F4C3B8" stroke-width="3" stroke-linecap="round" stroke-linejoin="round" stroke-dasharray="0.99 5.94"/>
<path d="M217.636 21.26C217.766 21.37 217.886 21.48 218.016 21.59C218.156 21.5 218.296 21.41 218.436 21.32" stroke="#F4C3B8" stroke-width="3" stroke-linecap="round" stroke-linejoin="round"/>
<path d="M223.666 18.7C227.156 17.37 231.016 16.67 234.906 16.67C235.786 16.67 236.686 16.71 237.576 16.78C245.546 17.42 253.086 20.52 258.806 25.52C259.946 26.52 260.996 27.58 261.916 28.69C268.036 35.99 269.946 46.65 267.726 61.27C266.506 69.35 264.826 80.42 259.906 89.83C254.626 99.93 246.156 102.98 237.506 104.59" stroke="#F4C3B8" stroke-width="3" stroke-linecap="round" stroke-linejoin="round" stroke-dasharray="0.98 5.86"/>
<path d="M234.616 105.07C234.456 105.1 234.286 105.12 234.126 105.15C234.026 105.16 233.866 105.19 233.636 105.22" stroke="#F4C3B8" stroke-width="3" stroke-linecap="round" stroke-linejoin="round"/>
<path d="M227.636 105.99C217.886 107.14 198.156 109.03 174.046 109.03C164.016 109.03 154.096 108.7 144.566 108.06L144.056 108.02L143.556 107.91C141.836 107.54 126.606 103.91 121.266 91.11C115.786 77.96 116.086 62.12 117.096 48.37C118.386 30.83 127.556 20.35 141.626 20.35C148.626 20.35 154.386 22.11 158.706 24.14" stroke="#F4C3B8" stroke-width="3" stroke-linecap="round" stroke-linejoin="round" stroke-dasharray="1.01 6.04"/>
<path d="M237.056 27.57C237.056 27.57 253.926 26.17 253.926 43.8" stroke="#FFCDC0" stroke-width="6" stroke-linecap="round" stroke-linejoin="round"/>
<path d="M225.436 30.48L227.316 29.93" stroke="#FFCDC0" stroke-width="6" stroke-linecap="round" stroke-linejoin="round"/>
<path d="M384.646 342.45H265.616V356.66H384.646V342.45Z" fill="#C1927E" stroke="black" stroke-width="4" stroke-linecap="round" stroke-linejoin="round"/>
<path d="M377.096 356.66H273.186V365.8H377.096V356.66Z" fill="#C1927E" stroke="black" stroke-width="4" stroke-linecap="round" stroke-linejoin="round"/>
<path d="M285.186 385.12H276.306L278.766 366.1H287.646L285.186 385.12Z" fill="#C1927E" stroke="black" stroke-width="4" stroke-linecap="round" stroke-linejoin="round"/>
<path d="M366.156 385.12H375.036L372.576 366.1H363.686L366.156 385.12Z" fill="#C1927E" stroke="black" stroke-width="4" stroke-linecap="round" stroke-linejoin="round"/>
<path d="M361.716 342.45H288.206C282.826 342.45 277.916 339.37 275.566 334.52L272.016 327.17H377.906L374.356 334.52C372.016 339.37 367.106 342.45 361.716 342.45Z" fill="#AA7461" stroke="black" stroke-width="4" stroke-linecap="round" stroke-linejoin="round"/>
<mask id="mask0_2107_268" style="mask-type:luminance" maskUnits="userSpaceOnUse" x="265" y="266" width="121" height="61">
<path d="M385.296 266.3H265.146V326.12H385.296V266.3Z" fill="white"/>
</mask>
<g mask="url(#mask0_2107_268)">
<path d="M306.606 305.54L303.226 303.05C303.226 303.05 292.036 307.74 293.176 309.84C294.316 311.94 315.156 314.3 315.156 314.3L306.606 305.54Z" fill="#DB9E89" stroke="black" stroke-width="4" stroke-linecap="round" stroke-linejoin="round"/>
<path d="M311.856 297.55C311.856 297.55 304.126 300.2 303.186 301.95C302.246 303.7 303.106 312.72 306.086 313.82C309.066 314.92 322.506 316.94 322.506 316.94L323.136 304.9L319.556 295.76L311.856 297.56V297.55Z" fill="#DB9E89" stroke="black" stroke-width="4" stroke-linecap="round" stroke-linejoin="round"/>
<path d="M347.736 323.63L351.856 324.44C351.856 324.44 355.966 335.86 353.636 336.44C351.316 337.02 335.496 323.25 335.496 323.25L347.726 323.63H347.736Z" fill="#DB9E89" stroke="black" stroke-width="4" stroke-linecap="round" stroke-linejoin="round"/>
<path d="M350.066 314.36C350.066 314.36 353.336 321.85 352.686 323.72C352.036 325.59 344.796 331.05 341.976 329.6C339.156 328.15 328.576 319.6 328.576 319.6L337.026 311L346.186 307.46L350.066 314.35V314.36Z" fill="#DB9E89" stroke="black" stroke-width="4" stroke-linecap="round" stroke-linejoin="round"/>
<path d="M348.826 309.5C348.826 309.5 347.416 302.83 339.216 299.22L336.486 298.02C336.486 298.02 338.586 298.94 333.126 296.54L330.396 295.34C322.196 291.73 316.316 295.2 316.316 295.2C311.606 297.67 312.556 304.57 313.136 311.09C313.706 317.61 317.826 318.56 317.826 318.56L325.386 321.57L330.606 324.18C330.606 324.18 334.086 326.57 339.276 322.59C344.466 318.61 350.206 314.64 348.836 309.51L348.826 309.5Z" fill="#DB9E89" stroke="black" stroke-width="4" stroke-linecap="round" stroke-linejoin="round"/>
<path d="M333.396 345.08C331.186 345.08 329.416 344.44 328.146 343.17C323.746 338.77 326.916 326.24 341.466 311.7C351.406 301.76 360.706 296.06 366.976 296.06C369.396 296.06 371.396 296.84 372.936 298.38C378.616 304.06 373.646 315.83 359.616 329.85C350.366 339.1 340.076 345.08 333.396 345.08Z" fill="#D6A487"/>
<path d="M366.976 298.06C368.796 298.06 370.336 298.61 371.516 299.79C376.666 304.94 369.786 316.85 358.196 328.43C349.126 337.5 339.236 343.07 333.386 343.07C331.766 343.07 330.456 342.64 329.556 341.74C325.406 337.59 331.286 324.68 342.876 313.1C351.796 304.18 360.906 298.05 366.976 298.05M366.976 294.06C357.656 294.06 346.106 304.22 340.046 310.28C328.216 322.11 319.846 337.69 326.726 344.58C327.866 345.72 329.946 347.08 333.386 347.08C340.566 347.08 351.416 340.87 361.026 331.26C367.326 324.96 372.056 318.82 374.716 313.48C379.156 304.57 376.966 299.58 374.346 296.96C372.446 295.06 369.896 294.05 366.976 294.05V294.06Z" fill="black"/>
<path d="M363.944 316.665C365.206 315.404 364.202 312.355 361.703 309.856C359.203 307.357 356.155 306.353 354.893 307.614C353.632 308.876 354.636 311.925 357.135 314.424C359.634 316.923 362.683 317.927 363.944 316.665Z" fill="#935844"/>
<path d="M355.194 325.424C356.456 324.163 355.452 321.114 352.953 318.614C350.453 316.115 347.405 315.112 346.143 316.373C344.882 317.634 345.885 320.683 348.385 323.182C350.884 325.682 353.933 326.685 355.194 325.424Z" fill="#935844"/>
<path d="M346.444 334.178C347.706 332.917 346.702 329.868 344.203 327.369C341.703 324.87 338.655 323.866 337.393 325.127C336.132 326.389 337.135 329.437 339.635 331.937C342.134 334.436 345.183 335.44 346.444 334.178Z" fill="#935844"/>
<path d="M283.286 327.85C282.416 327.85 281.646 327.29 281.386 326.46C278.436 317.32 278.426 317.29 278.406 317.15C277.926 314.98 278.406 312.93 279.786 311.22C281.626 308.93 284.966 307.51 288.506 307.51C290.876 307.51 292.996 308.16 294.606 309.33C296.176 307.37 298.976 305.67 303.936 305.45C304.036 305.45 304.186 305.45 304.356 305.45C305.776 305.45 309.816 305.68 312.426 308.08C313.976 306.78 316.106 306.04 318.486 306.04C320.026 306.04 321.496 306.36 322.766 306.97C327.406 309.19 328.466 314.71 327.916 319.13C327.386 323.41 327.046 326 327.046 326C326.916 327 326.076 327.74 325.066 327.74L283.286 327.85Z" fill="#EAAD98"/>
<path d="M304.356 307.46C305.936 307.46 310.916 307.81 312.336 311.39C313.386 309.12 315.966 308.05 318.486 308.05C319.696 308.05 320.896 308.3 321.906 308.78C325.626 310.56 326.396 315.16 325.936 318.88C325.406 323.16 325.066 325.74 325.066 325.74L283.296 325.85C283.296 325.85 280.376 316.81 280.366 316.74C279.386 312.26 284.056 309.52 288.506 309.52C291.186 309.52 293.786 310.52 295.026 312.73C296.536 308.13 301.656 307.57 304.026 307.46C304.106 307.46 304.226 307.46 304.366 307.46M304.356 303.46C304.146 303.46 303.966 303.46 303.846 303.47C299.206 303.67 296.206 305.1 294.276 306.81C292.596 305.97 290.626 305.52 288.506 305.52C284.376 305.52 280.436 307.23 278.226 309.97C276.486 312.14 275.856 314.85 276.456 317.6C276.496 317.773 277.506 320.933 279.486 327.08C280.016 328.73 281.556 329.85 283.296 329.85H283.306L325.076 329.74C327.086 329.74 328.776 328.24 329.036 326.25C329.036 326.25 329.366 323.66 329.906 319.37C330.716 312.85 328.316 307.41 323.636 305.16C322.106 304.42 320.326 304.04 318.496 304.04C316.256 304.04 314.196 304.6 312.496 305.6C309.496 303.66 305.806 303.45 304.366 303.45L304.356 303.46Z" fill="black"/>
<path d="M296.596 311.42L294.506 309.18" stroke="black" stroke-width="4" stroke-linecap="round" stroke-linejoin="round"/>
<path d="M314.686 311.41L313.016 308.84" stroke="black" stroke-width="4" stroke-linecap="round" stroke-linejoin="round"/>
</g>
<path d="M170.302 79.16H173.302V52.16H170.302V42.32H197.842C202.842 42.32 206.742 43.34 209.542 45.38C212.342 47.42 213.742 50.34 213.742 54.14C213.742 56.5 213.182 58.5 212.062 60.14C210.942 61.74 209.622 62.96 208.102 63.8C206.622 64.6 205.182 65.14 203.782 65.42V66.02C206.622 66.3 209.182 67.2 211.462 68.72C213.742 70.24 214.882 72.96 214.882 76.88C214.882 81.08 213.302 84.16 210.142 86.12C206.982 88.04 202.882 89 197.842 89H170.302V79.16ZM193.342 62C194.502 62 195.362 61.7 195.922 61.1C196.522 60.46 196.822 59.48 196.822 58.16V56C196.822 54.68 196.522 53.72 195.922 53.12C195.362 52.48 194.502 52.16 193.342 52.16H190.102V62H193.342ZM193.762 79.16C194.922 79.16 195.782 78.86 196.342 78.26C196.942 77.62 197.242 76.64 197.242 75.32V72.68C197.242 71.36 196.942 70.4 196.342 69.8C195.782 69.16 194.922 68.84 193.762 68.84H190.102V79.16H193.762Z" fill="black"/>
</svg>
