<svg width="112" height="58" viewBox="0 0 112 58" fill="none" xmlns="http://www.w3.org/2000/svg">
<path d="M28.4952 47.97C28.4952 47.97 8.31522 54.8 2.10522 27.79C2.10522 27.79 -0.0648308 12.58 15.3052 9.78001C15.3052 9.78001 24.1552 8.23001 28.5052 14.13C28.5052 14.13 29.7452 2.64001 49.9252 2.02001C70.1052 1.40001 73.2152 15.37 73.2152 15.37C73.2152 15.37 83.4652 5.43001 93.0852 18.16C93.0852 18.16 103.955 13.19 107.985 22.51C112.025 31.82 104.885 45.8 92.1451 34.93C92.1451 34.93 93.0751 47.04 80.6551 47.04C68.2351 47.04 66.0652 40.52 66.0652 40.52C66.0652 40.52 65.7551 53.87 51.7851 55.73C37.8151 57.59 28.4952 47.97 28.4952 47.97Z" fill="white" stroke="black" stroke-width="4" stroke-linecap="round" stroke-linejoin="round"/>
</svg>
