<svg width="227" height="295" viewBox="0 0 227 295" fill="none" xmlns="http://www.w3.org/2000/svg">
<path d="M161.711 2C161.711 2 34.2513 2 21.4613 122.29L3.03125 140.21L19.9212 153.52L32.2113 205.22L14.2913 292.24H208.291L188.331 233.89C188.331 233.89 224.161 213.93 224.671 147.13C225.181 80.33 173.481 53.2 173.481 53.2V10.7L161.711 2Z" fill="#DDD0C7" stroke="black" stroke-width="4" stroke-miterlimit="10"/>
<path d="M173.481 10.7L154.541 40.9L173.481 53.19" stroke="black" stroke-width="4" stroke-miterlimit="10"/>
<path d="M31.4712 81.84C31.4712 81.84 85.4412 68.03 122.811 102.84C122.501 102.56 131.831 97.58 132.501 97.35C149.601 91.43 166.011 110.15 162.291 126.58C159.671 138.14 145.061 150.73 133.051 143.8C133.051 143.8 127.421 218.02 59.8512 212.39L44.4912 292.24" stroke="black" stroke-width="4" stroke-linecap="round" stroke-linejoin="round"/>
<path d="M72.0613 212.52L68.5513 292.24" stroke="black" stroke-width="4" stroke-miterlimit="10"/>
<path d="M97.1414 86.53C97.1414 86.53 115.131 55.75 142.771 43.97V96.59" stroke="black" stroke-width="4" stroke-linecap="round" stroke-linejoin="round"/>
<path d="M127.061 53.19V75.71" stroke="black" stroke-width="4" stroke-linecap="round" stroke-linejoin="round"/>
<path d="M113.851 76.47V94.94" stroke="black" stroke-width="4" stroke-linecap="round" stroke-linejoin="round"/>
<path d="M135.501 86.72V96.6" stroke="black" stroke-width="4" stroke-linecap="round" stroke-linejoin="round"/>
<path d="M161.581 29.21V45.92" stroke="black" stroke-width="4" stroke-miterlimit="10"/>
<path d="M168.021 20.44V33.85" stroke="black" stroke-width="4" stroke-linecap="round" stroke-linejoin="round"/>
<path d="M66.1313 127.39C70.0194 127.39 73.1713 124.238 73.1713 120.35C73.1713 116.462 70.0194 113.31 66.1313 113.31C62.2432 113.31 59.0913 116.462 59.0913 120.35C59.0913 124.238 62.2432 127.39 66.1313 127.39Z" fill="black"/>
<path d="M92.0612 114.01C88.3912 111.52 84.8812 108.74 80.9312 106.68C76.5912 104.42 71.9812 103.64 67.1312 103.48C60.7912 103.28 55.7712 105.74 51.7112 110.49C48.8412 113.84 46.6412 117.77 44.9212 121.82C44.4712 122.87 44.0412 123.94 43.6912 125.04C43.6912 125.04 48.4912 137.9 69.8012 137.04C91.1112 136.18 92.8412 122.36 92.8412 122.36C92.8412 122.36 104.071 128.5 110.111 127.4L111.451 121.69C111.451 121.69 103.391 121.69 92.0612 114.01ZM67.7312 131.67C52.7112 130.61 51.3712 124.18 51.3712 124.18C51.3712 124.18 55.9812 109.59 67.0112 109.59C78.0412 109.59 85.9212 118.23 85.9212 118.23C85.9212 118.23 82.7512 132.72 67.7312 131.67Z" fill="black"/>
<path d="M23.7512 169.67H56.6812" stroke="black" stroke-width="4" stroke-linecap="round" stroke-linejoin="round"/>
<path d="M48.2312 212.52H60.6112" stroke="black" stroke-width="4" stroke-linecap="round" stroke-linejoin="round"/>
<path d="M45.1113 222.24H57.4913" stroke="black" stroke-width="4" stroke-linecap="round" stroke-linejoin="round"/>
<path d="M33.7412 251.48H51.3012" stroke="black" stroke-width="4" stroke-linecap="round" stroke-linejoin="round"/>
<path d="M27.1213 279.79H44.6813" stroke="black" stroke-width="4" stroke-linecap="round" stroke-linejoin="round"/>
<path d="M38.8213 266.93H48.3313" stroke="black" stroke-width="4" stroke-linecap="round" stroke-linejoin="round"/>
<path d="M177.301 212.52H193.091" stroke="black" stroke-width="4" stroke-linecap="round" stroke-linejoin="round"/>
<path d="M146.261 225.18H178.351" stroke="black" stroke-width="4" stroke-linecap="round" stroke-linejoin="round"/>
<path d="M152.811 258.96H170.381" stroke="black" stroke-width="4" stroke-linecap="round" stroke-linejoin="round"/>
<path d="M181.911 268.95H199.481" stroke="black" stroke-width="4" stroke-linecap="round" stroke-linejoin="round"/>
<path d="M144.031 279.79H161.601" stroke="black" stroke-width="4" stroke-linecap="round" stroke-linejoin="round"/>
<path d="M115.191 274.7H127.061" stroke="black" stroke-width="4" stroke-linecap="round" stroke-linejoin="round"/>
<path d="M107.921 266.93H130.491" stroke="black" stroke-width="4" stroke-linecap="round" stroke-linejoin="round"/>
<path d="M137.521 238.62H153.931" stroke="black" stroke-width="4" stroke-linecap="round" stroke-linejoin="round"/>
<path d="M142.771 147.12V188.33C142.771 188.33 142.131 207.53 116.411 227.1C90.6913 246.68 87.6213 291.87 87.6213 291.87" stroke="black" stroke-width="4" stroke-linecap="round" stroke-linejoin="round"/>
<path d="M188.331 233.88C188.331 233.88 165.811 245.53 154.551 256.27C143.291 267.02 147.901 280.2 129.471 292.23" stroke="black" stroke-width="4" stroke-linecap="round" stroke-linejoin="round"/>
<path d="M224.671 156.84C224.671 156.84 215.841 186.02 208.931 194.08" stroke="black" stroke-width="4" stroke-linecap="round" stroke-linejoin="round"/>
<path d="M196.261 209.44C196.261 209.44 183.721 225.95 158.891 236.31C134.061 246.68 134.451 261.65 129.461 272.01C124.471 282.38 108.891 292.23 108.891 292.23" stroke="black" stroke-width="4" stroke-linecap="round" stroke-linejoin="round"/>
<path d="M35.6053 68.8713L35.7092 68.9074C39.3936 70.1861 41.3428 74.2075 40.0641 77.8919L35.605 90.7401C34.3262 94.4245 30.3048 96.3737 26.6204 95.095L26.5165 95.0589C22.8321 93.7802 20.8829 89.7588 22.1616 86.0744L26.6207 73.2262C27.8995 69.5418 31.9209 67.5926 35.6053 68.8713Z" fill="#DDD0C7" stroke="black" stroke-width="4" stroke-miterlimit="10"/>
<path d="M40.0715 77.84L35.5715 90.79C35.5215 90.94 35.4715 91.07 35.4015 91.21L21.9915 86.56C22.0315 86.41 22.0715 86.27 22.1215 86.13L26.6215 73.18C26.6715 73.03 26.7215 72.9 26.7915 72.76L40.2015 77.41C40.1615 77.56 40.1215 77.7 40.0715 77.85V77.84Z" stroke="black" stroke-width="4" stroke-linecap="round" stroke-linejoin="round"/>
<path d="M40.0712 77.84L38.6311 81.98L25.1812 77.31L26.6212 73.17C26.6712 73.02 26.7212 72.89 26.7912 72.75L40.2011 77.4C40.1611 77.55 40.1212 77.69 40.0712 77.84Z" stroke="black" stroke-width="4" stroke-linecap="round" stroke-linejoin="round"/>
<path d="M22.0012 86.56L35.4112 91.21C35.4712 91.07 35.5312 90.93 35.5812 90.79L37.0212 86.65L23.5712 81.98" stroke="black" stroke-width="4" stroke-linecap="round" stroke-linejoin="round"/>
</svg>
