<svg width="269" height="91" viewBox="0 0 269 91" fill="none" xmlns="http://www.w3.org/2000/svg">
<path d="M266.733 87.1625C266.733 87.1625 211.633 17.2325 195.453 17.7725C179.273 18.3125 162.263 36.6125 162.263 36.6125C162.263 36.6125 130.893 3.23246 110.863 2.01246C90.843 0.792463 4.79297 88.2525 4.79297 88.2525L266.733 87.1725V87.1625Z" fill="#C1AFA3" stroke="black" stroke-width="4" stroke-miterlimit="10"/>
<path d="M162.263 36.6125L212.043 87.1625" stroke="black" stroke-width="4" stroke-linecap="round" stroke-linejoin="round"/>
<path d="M110.863 2.00244L70.613 88.2524" stroke="black" stroke-width="4" stroke-linecap="round" stroke-linejoin="round"/>
<path d="M195.453 17.7725L178.093 52.6925" stroke="black" stroke-width="4" stroke-linecap="round" stroke-linejoin="round"/>
<path d="M103.503 17.7725H120.953" stroke="black" stroke-width="4" stroke-linecap="round" stroke-linejoin="round"/>
<path d="M124.253 28.2225H152.963" stroke="black" stroke-width="4" stroke-linecap="round" stroke-linejoin="round"/>
<path d="M94.6531 38.1324H132.003" stroke="black" stroke-width="4" stroke-linecap="round" stroke-linejoin="round"/>
<path d="M90.7329 47.4125H118.833" stroke="black" stroke-width="4" stroke-linecap="round" stroke-linejoin="round"/>
<path d="M151.893 54.8625H179.983" stroke="black" stroke-width="4" stroke-linecap="round" stroke-linejoin="round"/>
<path d="M189.163 31.1425H201.843" stroke="black" stroke-width="4" stroke-linecap="round" stroke-linejoin="round"/>
<path d="M201.843 38.1324H222.503" stroke="black" stroke-width="4" stroke-linecap="round" stroke-linejoin="round"/>
<path d="M179.983 49.6125H208.613" stroke="black" stroke-width="4" stroke-linecap="round" stroke-linejoin="round"/>
<path d="M223.353 62.9925H245.883" stroke="black" stroke-width="4" stroke-linecap="round" stroke-linejoin="round"/>
<path d="M197.353 71.1224H212.043" stroke="black" stroke-width="4" stroke-linecap="round" stroke-linejoin="round"/>
<path d="M225.473 80.1025H260.113" stroke="black" stroke-width="4" stroke-linecap="round" stroke-linejoin="round"/>
<path d="M79.553 71.1224H133.913" stroke="black" stroke-width="4" stroke-linecap="round" stroke-linejoin="round"/>
</svg>
