<svg width="116" height="120" viewBox="0 0 116 120" fill="none" xmlns="http://www.w3.org/2000/svg">
<path d="M15.0399 115.92C15.0399 115.92 11.0999 105.08 9.61994 91.7803C8.13994 78.4803 3.70994 71.5803 3.20994 66.6503C2.71994 61.7203 3.20994 58.2703 3.20994 58.2703C3.20994 58.2703 -1.94006 27.7203 9.00994 21.8103C19.9599 15.9003 37.6999 0.620271 47.5499 2.10027C57.3999 3.58027 57.8999 7.52028 64.7999 9.00028C71.6999 10.4803 91.8999 7.52027 99.7799 13.9303C107.66 20.3403 113.58 31.6703 113.58 37.5803C113.58 43.4903 111.61 57.2903 110.62 64.1903C109.63 71.0903 98.7899 91.2903 98.7899 91.2903C98.7899 91.2903 95.8299 107.55 95.8299 110.01V117.15L15.0199 115.92H15.0399Z" fill="#B2ACA8" stroke="black" stroke-width="4" stroke-miterlimit="10"/>
<path d="M52.5 11.9203C53.49 12.4103 56.93 16.8503 63.09 16.6003" stroke="black" stroke-width="4" stroke-miterlimit="10"/>
<path d="M97.0898 21.6503C97.0898 21.6503 101.52 24.3803 104.48 30.1103C107.44 35.8403 106.45 42.9303 106.45 42.9303" stroke="black" stroke-width="4" stroke-miterlimit="10"/>
<path d="M101.83 39.9103L99.8599 51.0003" stroke="black" stroke-width="4" stroke-miterlimit="10"/>
<path d="M93.6099 83.7603C93.6099 83.7603 89.7399 92.4403 89.8899 95.6503C90.0399 98.8603 88.8599 105.22 88.8599 105.22" stroke="black" stroke-width="4" stroke-miterlimit="10"/>
<path d="M13.3299 27.1103C13.3299 27.1103 10.8699 29.8203 10.3699 33.7603C9.86993 37.7003 10.3699 42.6303 10.3699 42.6303" stroke="black" stroke-width="4" stroke-miterlimit="10"/>
<path d="M17.95 96.0403C17.95 96.0403 18.4399 109.84 21.15 109.84H30.51" stroke="black" stroke-width="4" stroke-miterlimit="10"/>
<path d="M31.0999 48.5103C31.0999 48.5103 57.9499 55.4103 80.3699 48.5103" stroke="black" stroke-width="8" stroke-linecap="round" stroke-linejoin="round"/>
<path d="M52.0598 35.4603L57.3498 51.5803" stroke="black" stroke-width="8" stroke-linecap="round" stroke-linejoin="round"/>
<path d="M40.8599 50.3403C40.8599 50.3403 47.9999 84.6303 74.9599 89.6503" stroke="black" stroke-width="8" stroke-linecap="round" stroke-linejoin="round"/>
<path d="M69.1198 51.2003C69.1198 51.2003 67.6398 76.5802 37.8298 90.1302" stroke="black" stroke-width="8" stroke-linecap="round" stroke-linejoin="round"/>
</svg>
