<svg width="133" height="314" viewBox="0 0 133 314" fill="none" xmlns="http://www.w3.org/2000/svg">
<path d="M19.0061 165.08C19.0061 165.08 -3.05391 176.72 3.07609 209.2C9.20609 241.68 41.6861 249.03 74.1561 248.42C106.626 247.81 131.966 229.83 130.536 194.49C130.536 194.49 130.546 173.65 112.776 165.08C117.266 159.36 121.726 151.39 122.776 147.92C128.686 128.49 124.066 106.72 102.966 98.28C105.326 99.22 108.146 95 109.146 93.38C116.806 80.9 112.406 61.46 101.056 52.62C100.266 52.01 95.9561 48.71 95.0061 49.26C112.816 39.01 102.986 15.15 88.8061 6.6C71.0661 -4.09 46.5061 4.8 38.6261 23.52C35.4661 31.02 38.2261 39.47 41.9661 45.95C41.9661 45.95 40.3861 46.57 39.6361 46.99C21.0561 57.23 14.3061 87.95 34.9461 99.51C34.9461 99.51 -6.11391 119.12 19.0161 165.08H19.0061Z" fill="#68BC8C" stroke="black" stroke-width="4" stroke-linecap="round" stroke-linejoin="round"/>
<path d="M74.2161 21.35C74.2161 21.35 71.5561 26.71 71.7961 38.97" stroke="black" stroke-width="3" stroke-linecap="round" stroke-linejoin="round"/>
<path d="M56.9561 38.97C56.9561 38.97 59.6161 42.17 59.6161 58.17" stroke="black" stroke-width="3" stroke-linecap="round" stroke-linejoin="round"/>
<path d="M78.536 66.32C78.536 66.32 71.906 70.05 69.896 85.66" stroke="black" stroke-width="3" stroke-linecap="round" stroke-linejoin="round"/>
<path d="M52.6661 83.76C52.6661 83.76 60.8361 88.25 61.2461 103.37" stroke="black" stroke-width="3" stroke-linecap="round" stroke-linejoin="round"/>
<path d="M86.3162 97.57C86.3162 97.57 79.6662 105.79 79.3362 119.99" stroke="black" stroke-width="3" stroke-linecap="round" stroke-linejoin="round"/>
<path d="M78.6462 157.34C78.6462 157.34 74.7862 165.1 76.8362 181.44" stroke="black" stroke-width="3" stroke-linecap="round" stroke-linejoin="round"/>
<path d="M46.7061 125.38C46.7061 125.38 52.8361 126.93 54.8761 140.45" stroke="black" stroke-width="3" stroke-linecap="round" stroke-linejoin="round"/>
<path d="M103.356 128.73C103.356 128.73 97.636 134.9 95.186 149.2" stroke="black" stroke-width="3" stroke-linecap="round" stroke-linejoin="round"/>
<path d="M44.9861 164.27C44.9861 164.27 50.5061 171.83 49.8861 184.29" stroke="black" stroke-width="3" stroke-linecap="round" stroke-linejoin="round"/>
<path d="M104.946 191.67C104.946 191.67 97.8762 196.78 93.5862 212.3" stroke="black" stroke-width="3" stroke-linecap="round" stroke-linejoin="round"/>
<path d="M33.2161 207.05C33.2161 207.05 39.9561 212.57 41.5861 223.39" stroke="black" stroke-width="3" stroke-linecap="round" stroke-linejoin="round"/>
<path d="M43.926 246.01V311.23H88.656V246.88C84.036 247.81 79.186 248.32 74.156 248.42C63.796 248.62 53.436 247.99 43.926 246.01Z" fill="#C19181" stroke="black" stroke-width="4" stroke-linecap="round" stroke-linejoin="round"/>
<path d="M55.8359 249.54V257.05" stroke="black" stroke-width="3" stroke-linecap="round" stroke-linejoin="round"/>
<path d="M75.7561 262.26V269.76" stroke="black" stroke-width="3" stroke-linecap="round" stroke-linejoin="round"/>
<path d="M63.4961 272.52V280.03" stroke="black" stroke-width="3" stroke-linecap="round" stroke-linejoin="round"/>
<path d="M53.8461 280.64V288.15" stroke="black" stroke-width="3" stroke-linecap="round" stroke-linejoin="round"/>
<path d="M77.436 292.13V299.64" stroke="black" stroke-width="3" stroke-linecap="round" stroke-linejoin="round"/>
<path d="M66.2961 300.86V308.37" stroke="black" stroke-width="3" stroke-linecap="round" stroke-linejoin="round"/>
</svg>
