<svg width="105" height="212" viewBox="0 0 105 212" fill="none" xmlns="http://www.w3.org/2000/svg">
<path d="M52.7531 142.247C52.7531 142.247 30.9031 152.848 25.7631 128.428C25.7631 128.428 13.2331 131.317 11.6231 114.287C11.6231 114.287 -5.40688 101.117 5.84312 90.1875C5.84312 90.1875 11.9431 85.0475 21.2631 90.1875C21.2631 90.1875 5.20311 80.5475 11.3031 62.5575C11.3031 62.5575 -0.586876 43.9275 18.6931 39.4275C18.6931 39.4275 14.8331 7.6175 26.0831 6.6575C26.0831 6.6575 31.8631 7.29749 33.1531 11.7975C33.1531 11.7975 38.2931 -1.0525 48.8931 3.7675C48.8931 3.7675 62.0631 -3.3025 69.4531 10.8375C69.4531 10.8375 72.9831 18.2275 69.4531 23.0475C69.4531 23.0475 82.9431 21.4375 84.2331 37.1875C84.2331 37.1875 100.623 33.9775 101.263 48.1075C101.903 62.2475 93.8731 65.4575 93.8731 65.4575C93.8731 65.4575 103.263 70.5975 101.303 78.3075C99.3431 86.0175 91.9531 87.6275 91.9531 87.6275C91.9531 87.6275 104.773 90.1975 101.573 104.017C101.573 104.017 98.3731 113.658 91.6231 114.618C91.6231 114.618 95.8031 119.437 91.6231 125.867C87.4431 132.297 80.3731 129.397 80.3731 129.397C80.3731 129.397 75.8731 152.527 52.7431 142.247H52.7531Z" fill="#68BC8C" stroke="black" stroke-width="4" stroke-linecap="round" stroke-linejoin="round"/>
<path d="M52.7532 142.247C52.7532 142.247 44.3832 146.298 36.7832 143.608V209.397H67.3032V144.458C63.5532 145.328 58.7932 144.927 52.7532 142.247Z" fill="#C19181" stroke="black" stroke-width="4" stroke-linecap="round" stroke-linejoin="round"/>
<path d="M59.873 144.878V152.208" stroke="black" stroke-width="3" stroke-linecap="round" stroke-linejoin="round"/>
<path d="M46.7031 155.318V162.647" stroke="black" stroke-width="3" stroke-linecap="round" stroke-linejoin="round"/>
<path d="M55.6931 167.818V175.147" stroke="black" stroke-width="3" stroke-linecap="round" stroke-linejoin="round"/>
<path d="M46.7031 183.888V191.208" stroke="black" stroke-width="3" stroke-linecap="round" stroke-linejoin="round"/>
<path d="M57.9431 200.587V207.918" stroke="black" stroke-width="3" stroke-linecap="round" stroke-linejoin="round"/>
<path d="M63.343 27.2075C63.343 27.2075 66.543 26.9675 69.463 23.0475" stroke="black" stroke-width="4" stroke-linecap="round" stroke-linejoin="round"/>
<path d="M84.2432 37.1775V43.3675" stroke="black" stroke-width="4" stroke-linecap="round" stroke-linejoin="round"/>
<path d="M86.3931 87.7975L91.9531 87.6275" stroke="black" stroke-width="4" stroke-linecap="round" stroke-linejoin="round"/>
<path d="M18.7031 39.4275L25.0931 38.1375" stroke="black" stroke-width="4" stroke-linecap="round" stroke-linejoin="round"/>
<path d="M21.2732 90.1975L27.2332 93.7675" stroke="black" stroke-width="4" stroke-linecap="round" stroke-linejoin="round"/>
<path d="M25.093 121.308L25.773 128.428" stroke="black" stroke-width="4" stroke-linecap="round" stroke-linejoin="round"/>
<path d="M81.8831 124.867L80.3831 129.388" stroke="black" stroke-width="4" stroke-linecap="round" stroke-linejoin="round"/>
<path d="M32.2231 16.5175L33.1631 11.7975" stroke="black" stroke-width="4" stroke-linecap="round" stroke-linejoin="round"/>
</svg>
