<svg width="296" height="357" viewBox="0 0 296 357" fill="none" xmlns="http://www.w3.org/2000/svg">
<path d="M140.914 289.87C140.914 289.87 135.644 294.27 122.454 295.14C109.264 296.01 103.114 289.87 103.114 289.87C103.114 289.87 97.4045 294.71 87.2945 289.87C87.2945 289.87 76.3045 297.78 67.9545 281.96C67.9545 281.96 58.2845 293.83 49.4945 269.65C40.7045 245.47 34.1145 245.47 34.1145 245.47C34.1145 245.47 29.2745 254.7 17.4145 212.5C17.4145 212.5 1.15447 206.79 2.03447 168.98C2.91447 131.18 8.18446 106.56 25.7745 85.9003C25.7745 85.9003 28.8545 48.1004 46.4345 49.8604C46.4345 49.8604 57.8645 27.8804 74.1245 26.5604C74.1245 26.5604 99.1845 -1.56961 117.204 2.38039C117.204 2.38039 128.194 1.06036 143.574 10.7304C143.574 10.7304 150.164 5.88038 165.554 8.31038C165.554 8.31038 174.784 1.50034 184.014 5.90034C184.014 5.90034 201.594 -8.60966 231.484 33.1503C261.374 74.9103 263.574 105.24 263.574 105.24C263.574 105.24 295.224 137.77 293.904 179.97C292.584 222.17 276.324 252.5 267.094 247.66C267.094 247.66 260.944 259.09 253.024 259.09C253.024 259.09 242.914 280.19 231.484 279.75C231.484 279.75 222.694 289.86 217.414 289.86C217.414 289.86 211.704 305.42 197.634 295.22C197.634 295.22 181.814 299.97 177.414 288.54C177.414 288.54 161.594 307 140.934 289.86L140.914 289.87Z" fill="#68BC8C" stroke="black" stroke-width="4" stroke-linecap="round" stroke-linejoin="round"/>
<path d="M25.7444 85.9103C25.7444 85.9103 25.0544 96.9103 25.7444 100.89" stroke="black" stroke-width="4" stroke-linecap="round" stroke-linejoin="round"/>
<path d="M263.674 114.36L263.554 105.25" stroke="black" stroke-width="4" stroke-linecap="round" stroke-linejoin="round"/>
<path d="M183.984 5.91034L189.394 9.65033" stroke="black" stroke-width="4" stroke-linecap="round" stroke-linejoin="round"/>
<path d="M143.544 10.7404L138.994 13.9003" stroke="black" stroke-width="4" stroke-linecap="round" stroke-linejoin="round"/>
<path d="M74.0944 26.5704L69.7944 33.7903" stroke="black" stroke-width="4" stroke-linecap="round" stroke-linejoin="round"/>
<path d="M46.4046 49.8604L43.4446 55.7903" stroke="black" stroke-width="4" stroke-linecap="round" stroke-linejoin="round"/>
<path d="M89.0445 40.1904L108.385 59.0903C108.385 59.0903 98.3445 68.3904 95.7145 80.6104L81.1345 48.9803L89.0445 40.1904Z" fill="#C19181" stroke="black" stroke-width="4" stroke-linecap="round" stroke-linejoin="round"/>
<path d="M194.094 114.48C194.094 114.48 197.174 127.67 198.054 139.97L221.354 111.84L214.054 100.88L194.104 114.47L194.094 114.48Z" fill="#C19181" stroke="black" stroke-width="4" stroke-linecap="round" stroke-linejoin="round"/>
<path d="M35.7644 167.67L37.5244 187.89" stroke="black" stroke-width="3" stroke-linecap="round" stroke-linejoin="round"/>
<path d="M54.2544 216.86L56.0144 237.08" stroke="black" stroke-width="3" stroke-linecap="round" stroke-linejoin="round"/>
<path d="M69.7046 233.6L71.4646 253.82" stroke="black" stroke-width="3" stroke-linecap="round" stroke-linejoin="round"/>
<path d="M115.415 213.38L117.175 233.6" stroke="black" stroke-width="3" stroke-linecap="round" stroke-linejoin="round"/>
<path d="M133.004 193.16L134.754 213.38" stroke="black" stroke-width="3" stroke-linecap="round" stroke-linejoin="round"/>
<path d="M197.564 238.88L195.814 259.1" stroke="black" stroke-width="3" stroke-linecap="round" stroke-linejoin="round"/>
<path d="M221.354 221.7L219.594 241.92" stroke="black" stroke-width="3" stroke-linecap="round" stroke-linejoin="round"/>
<path d="M259.354 193.16L257.594 213.38" stroke="black" stroke-width="3" stroke-linecap="round" stroke-linejoin="round"/>
<path d="M156.835 248.95L156.635 269.25" stroke="black" stroke-width="3" stroke-linecap="round" stroke-linejoin="round"/>
<path d="M140.915 289.87C140.915 289.87 135.645 294.27 122.455 295.14C113.305 295.75 107.545 292.97 104.875 291.22V354.04H177.465V288.67C177.465 288.67 177.425 288.59 177.405 288.54C177.405 288.54 161.585 307 140.925 289.86L140.915 289.87Z" fill="#C19181" stroke="black" stroke-width="4" stroke-linecap="round" stroke-linejoin="round"/>
<path d="M150.145 296.25V308.99" stroke="black" stroke-width="3" stroke-linecap="round" stroke-linejoin="round"/>
<path d="M122.455 311.63V327.89" stroke="black" stroke-width="3" stroke-linecap="round" stroke-linejoin="round"/>
<path d="M141.165 325.25V341.52" stroke="black" stroke-width="3" stroke-linecap="round" stroke-linejoin="round"/>
<path d="M163.224 314.04V330.31" stroke="black" stroke-width="3" stroke-linecap="round" stroke-linejoin="round"/>
<path d="M117.175 57.4203C117.175 57.4203 110.985 56.3403 108.385 59.0903" stroke="black" stroke-width="4" stroke-linecap="round" stroke-linejoin="round"/>
<path d="M94.7544 87.8503L95.7144 80.6104" stroke="black" stroke-width="4" stroke-linecap="round" stroke-linejoin="round"/>
<path d="M189.395 105.25C189.395 105.25 192.145 107.64 194.105 115.99" stroke="black" stroke-width="4" stroke-linecap="round" stroke-linejoin="round"/>
<path d="M197.564 147.08L198.054 139.98" stroke="black" stroke-width="4" stroke-linecap="round" stroke-linejoin="round"/>
</svg>
