<svg width="121" height="110" viewBox="0 0 121 110" fill="none" xmlns="http://www.w3.org/2000/svg">
<path d="M6.9961 76.0498C6.9961 76.0498 12.5661 73.6298 21.3761 59.7098C30.1861 45.7998 45.9561 27.7898 75.1761 28.1698C75.1761 28.1698 105.086 27.2398 108.796 49.2698C108.796 49.2698 119.926 48.3398 118.766 55.0698C117.606 61.7998 106.936 55.5298 93.0261 61.0998C79.1161 66.6698 70.7661 73.1398 74.9361 76.0498C79.1061 78.9598 104.846 71.7698 106.006 79.6498C107.166 87.5298 97.4261 81.7398 72.6161 88.4598C47.8061 95.1798 38.9961 101.68 38.9961 101.68C38.9961 101.68 33.4261 109.8 23.6961 106.09C13.9561 102.38 3.2861 84.9898 3.2861 84.9898C3.2861 84.9898 -1.3539 80.7998 6.9961 76.0498Z" fill="#8D6EF9" stroke="black" stroke-width="4" stroke-linecap="round" stroke-linejoin="round"/>
<path d="M77.2562 39.6798L90.2462 46.0298C90.2462 46.0298 86.0762 51.5998 81.0962 49.0998C74.7962 45.9498 77.2662 39.6698 77.2662 39.6698L77.2562 39.6798Z" fill="black"/>
<path d="M94.4162 14.2698C92.0562 13.1698 86.6162 22.5998 83.3562 28.7998C86.9462 29.3498 91.2462 30.3898 95.3062 32.3198C96.0362 25.1898 96.6162 15.2898 94.4162 14.2698Z" fill="#504972" stroke="black" stroke-width="4" stroke-linecap="round" stroke-linejoin="round"/>
<path d="M66.1261 2.20977C63.1661 -0.260231 57.5161 19.6698 54.4861 31.4298C59.8661 29.5498 65.9361 28.3998 72.7461 28.2398C71.5361 19.5798 69.0561 4.64977 66.1261 2.20977Z" fill="#504972" stroke="black" stroke-width="4" stroke-linecap="round" stroke-linejoin="round"/>
<path d="M50.2161 33.1198C47.9261 28.5098 40.9961 16.4498 30.8761 15.8898C21.2561 15.3598 27.2361 37.3698 30.5161 47.6298C35.6361 42.0198 42.0761 36.7698 50.2161 33.1298V33.1198Z" fill="#504972" stroke="black" stroke-width="4" stroke-linecap="round" stroke-linejoin="round"/>
<path d="M27.456 51.1798C25.316 47.5998 19.9361 41.7998 6.99605 39.6798C6.99605 39.6798 1.89605 38.7598 5.13605 44.7098C7.38605 48.8398 13.526 59.6798 17.096 65.9398C18.416 64.1698 19.846 62.1198 21.376 59.7098C23.116 56.9698 25.1361 54.0698 27.4661 51.1798H27.456Z" fill="#504972" stroke="black" stroke-width="4" stroke-linecap="round" stroke-linejoin="round"/>
<path d="M98.326 67.6298C98.816 68.6598 99.5961 70.2198 100.956 70.1298C101.316 70.1098 101.666 69.9798 101.996 69.8198C103.446 69.1198 104.856 67.7998 105.666 66.3998C106.726 64.5698 107.296 62.4798 107.666 60.4098C107.776 59.7798 107.866 59.1398 107.936 58.5098C104.506 58.5298 100.426 58.7498 95.936 60.0898C96.386 61.9698 96.876 63.8498 97.536 65.6698C97.756 66.2898 98.016 66.9698 98.326 67.6198V67.6298Z" fill="#E0E0E0" stroke="black" stroke-width="4" stroke-linecap="round" stroke-linejoin="round"/>
<path d="M91.6261 67.6198C90.5961 67.1398 87.1461 72.5198 84.7561 76.5198C87.1361 76.3398 89.6861 76.1098 92.1861 75.9598C92.4361 72.1998 92.5061 68.0298 91.6361 67.6198H91.6261Z" fill="#E0E0E0" stroke="black" stroke-width="4" stroke-linecap="round" stroke-linejoin="round"/>
</svg>
