<svg width="257" height="359" viewBox="0 0 257 359" fill="none" xmlns="http://www.w3.org/2000/svg">
<path d="M81.47 132.14H128.92V145.92C128.92 154.07 122.3 160.68 114.16 160.68H96.24C88.09 160.68 81.48 154.06 81.48 145.92V132.14H81.47Z" fill="#636363" stroke="black" stroke-width="4" stroke-miterlimit="10"/>
<path d="M112.15 160.68H98.24V225.97H112.15V160.68Z" fill="#636363" stroke="black" stroke-width="4" stroke-miterlimit="10"/>
<path d="M136.86 31.61H67.55V67.47H136.86V31.61Z" fill="#636363" stroke="black" stroke-width="4" stroke-miterlimit="10"/>
<path d="M36.2001 117.95C35.8601 110.05 35.5001 101.19 35.1801 93.14C34.6201 79.04 45.3801 67.06 59.4601 66.09L147.09 60.09C162.16 59.06 174.95 71 174.95 86.11V123.23C174.95 138.39 162.07 150.36 146.95 149.24L60.3301 142.84C47.1401 141.86 36.7701 131.17 36.2001 117.95Z" fill="#636363" stroke="black" stroke-width="4" stroke-miterlimit="10"/>
<path d="M67.0537 5.64672C83.3547 4.51828 97.5094 16.8402 98.6379 33.1412L100.683 62.6805L71.1434 64.7253C54.8425 65.8538 40.6877 53.5319 39.5593 37.2309C38.4308 20.9299 50.7527 6.77516 67.0537 5.64672Z" fill="#636363" stroke="black" stroke-width="4" stroke-miterlimit="10"/>
<path d="M80.5706 34.3869C80.1318 28.048 74.6374 23.2651 68.2986 23.7039C61.9597 24.1427 57.1768 29.6371 57.6156 35.9759C58.0544 42.3148 63.5488 47.0977 69.8877 46.6589C76.2265 46.2201 81.0095 40.7257 80.5706 34.3869Z" fill="#636363" stroke="black" stroke-width="4" stroke-miterlimit="10"/>
<path d="M86.7257 33.9558C86.0517 24.2202 77.6131 16.8743 67.8776 17.5483C58.142 18.2222 50.7961 26.6608 51.47 36.3964C52.144 46.1319 60.5826 53.4778 70.3181 52.8039C80.0537 52.1299 87.3996 43.6914 86.7257 33.9558Z" fill="#636363" stroke="black" stroke-width="4" stroke-miterlimit="10"/>
<path d="M77.1985 34.6153C76.8888 30.1415 73.011 26.7658 68.5371 27.0755C64.0633 27.3852 60.6876 31.263 60.9973 35.7368C61.307 40.2107 65.1848 43.5864 69.6587 43.2767C74.1325 42.967 77.5082 39.0892 77.1985 34.6153Z" fill="#636363" stroke="black" stroke-width="4" stroke-miterlimit="10"/>
<path d="M162.13 31.605C162.13 15.2546 148.875 2 132.525 2C116.175 2 102.92 15.2546 102.92 31.605C102.92 47.9554 116.175 61.21 132.525 61.21C148.875 61.21 162.13 47.9554 162.13 31.605Z" fill="#636363" stroke="black" stroke-width="4" stroke-miterlimit="10"/>
<path d="M132.53 20.83H132.52C126.566 20.83 121.74 25.6564 121.74 31.61V31.62C121.74 37.5736 126.566 42.4 132.52 42.4H132.53C138.484 42.4 143.31 37.5736 143.31 31.62V31.61C143.31 25.6564 138.484 20.83 132.53 20.83Z" fill="#636363" stroke="black" stroke-width="4" stroke-miterlimit="10"/>
<path d="M149.33 31.605C149.33 22.3238 141.806 14.8 132.525 14.8C123.244 14.8 115.72 22.3238 115.72 31.605C115.72 40.8861 123.244 48.41 132.525 48.41C141.806 48.41 149.33 40.8861 149.33 31.605Z" fill="#636363" stroke="black" stroke-width="4" stroke-miterlimit="10"/>
<path d="M140.16 31.615C140.16 27.3983 136.742 23.98 132.525 23.98C128.308 23.98 124.89 27.3983 124.89 31.615C124.89 35.8317 128.308 39.25 132.525 39.25C136.742 39.25 140.16 35.8317 140.16 31.615Z" fill="#636363" stroke="black" stroke-width="4" stroke-miterlimit="10"/>
<path d="M80.1401 134.2C96.5871 134.2 109.92 120.867 109.92 104.42C109.92 87.9729 96.5871 74.64 80.1401 74.64C63.6931 74.64 50.3601 87.9729 50.3601 104.42C50.3601 120.867 63.6931 134.2 80.1401 134.2Z" fill="#636363" stroke="black" stroke-width="4" stroke-miterlimit="10"/>
<path d="M80.14 116.6C86.8668 116.6 92.32 111.147 92.32 104.42C92.32 97.6932 86.8668 92.24 80.14 92.24C73.4131 92.24 67.96 97.6932 67.96 104.42C67.96 111.147 73.4131 116.6 80.14 116.6Z" fill="#636363" stroke="black" stroke-width="4" stroke-miterlimit="10"/>
<path d="M115.56 96.16H23.3999V112.72H115.56V96.16Z" fill="#636363" stroke="black" stroke-width="4" stroke-miterlimit="10"/>
<path d="M140.5 96.16H129.63V112.72H140.5V96.16Z" fill="#636363" stroke="black" stroke-width="4" stroke-miterlimit="10"/>
<path d="M115.57 118.95H129.63V89.94H115.57V118.95Z" fill="#636363" stroke="black" stroke-width="4" stroke-miterlimit="10"/>
<path d="M140.5 118.95H181.39V89.94H140.5V118.95Z" fill="#636363" stroke="black" stroke-width="4" stroke-miterlimit="10"/>
<path d="M188.16 118.95H198.82V89.94H188.16V118.95Z" fill="#636363" stroke="black" stroke-width="4" stroke-miterlimit="10"/>
<path d="M205.6 118.95L247.52 156.02V52.87L205.6 89.94V118.95Z" fill="#636363" stroke="black" stroke-width="4" stroke-miterlimit="10"/>
<path d="M188.16 85.98H181.39V122.9H188.16V85.98Z" fill="#636363" stroke="black" stroke-width="4" stroke-miterlimit="10"/>
<path d="M205.6 85.98H198.83V122.9H205.6V85.98Z" fill="#636363" stroke="black" stroke-width="4" stroke-miterlimit="10"/>
<path d="M254.29 46.68H247.52V162.21H254.29V46.68Z" fill="#636363" stroke="black" stroke-width="4" stroke-miterlimit="10"/>
<path d="M23.4 112.73L4.02002 119.91V88.98L23.4 96.49V112.73Z" fill="#636363" stroke="black" stroke-width="4" stroke-miterlimit="10"/>
<path d="M2.00003 121.26H4.03003L4.03003 87.66H2.00003L2.00003 121.26Z" fill="#636363" stroke="black" stroke-width="4" stroke-miterlimit="10"/>
<path d="M125.06 118.95H129.63V89.94H125.06V118.95Z" fill="#636363" stroke="black" stroke-width="4" stroke-miterlimit="10"/>
<path d="M29.8999 96.16H23.3999V112.72H29.8999V96.16Z" fill="#636363" stroke="black" stroke-width="4" stroke-miterlimit="10"/>
<path d="M112.15 233.1H98.24V258.1H112.15V233.1Z" fill="#636363" stroke="black" stroke-width="4" stroke-miterlimit="10"/>
<path d="M115.56 225.97H94.8201V233.1H115.56V225.97Z" fill="#636363" stroke="black" stroke-width="4" stroke-miterlimit="10"/>
<path d="M115.56 258.1H94.8201V265.23H115.56V258.1Z" fill="#636363" stroke="black" stroke-width="4" stroke-miterlimit="10"/>
<path d="M109.48 265.23H100.38V356.02H109.48V265.23Z" fill="#636363" stroke="black" stroke-width="4" stroke-miterlimit="10"/>
<path d="M48.9999 356.02H39.8999L95.8299 265.23H104.93L48.9999 356.02Z" fill="#636363" stroke="black" stroke-width="4" stroke-miterlimit="10"/>
<path d="M160.85 356.02H169.95L114.03 265.23H104.93L160.85 356.02Z" fill="#636363" stroke="black" stroke-width="4" stroke-miterlimit="10"/>
</svg>
