<svg width="99" height="95" viewBox="0 0 99 95" fill="none" xmlns="http://www.w3.org/2000/svg">
<path d="M95.8055 21.4658C95.8055 21.4658 96.1155 24.4058 96.4055 28.4058C96.4055 28.4058 82.5055 29.8158 67.4055 43.7158C54.0355 56.0058 55.5255 73.1558 35.3555 85.0558C35.3355 85.0558 35.3055 85.0958 35.2955 85.0958C33.7355 85.7358 32.1755 86.3458 30.6055 86.8958C16.3655 91.8758 -0.304462 94.1358 2.26554 89.4458C5.04554 84.3958 11.0355 81.7758 15.8555 79.1758C21.0455 76.3658 25.5055 72.5758 29.3555 68.1258C36.9355 59.3158 41.9955 48.7458 48.9155 39.4958C65.1155 17.8458 87.8155 16.6258 87.8155 16.6258C96.2855 14.9658 95.8055 21.4858 95.8055 21.4858V21.4658Z" stroke="black" stroke-width="4" stroke-linecap="round" stroke-linejoin="round"/>
<path d="M95.8055 21.4658C95.8055 21.4658 96.1155 24.4058 96.4055 28.4058C96.4055 28.4058 82.5055 29.8158 67.4055 43.7158C54.0355 56.0058 55.5255 73.1558 35.3555 85.0558C35.3355 85.0558 35.3055 85.0958 35.2955 85.0958C33.7355 85.7358 32.1755 86.3458 30.6055 86.8958C16.3655 91.8758 -0.304462 94.1358 2.26554 89.4458C5.04554 84.3958 11.0355 81.7758 15.8555 79.1758C21.0455 76.3658 25.5055 72.5758 29.3555 68.1258C36.9355 59.3158 41.9955 48.7458 48.9155 39.4958C65.1155 17.8458 87.8155 16.6258 87.8155 16.6258C96.2855 14.9658 95.8055 21.4858 95.8055 21.4858V21.4658Z" fill="#8D6EF9" stroke="black" stroke-width="4" stroke-linecap="round" stroke-linejoin="round"/>
<path d="M96.4055 28.3958C96.9455 35.7658 97.4455 46.7358 95.8755 49.3258C93.5055 53.3158 81.4355 53.1158 70.1655 62.9458C60.1455 71.6758 47.9355 79.8458 35.3455 85.0458C55.5155 73.1558 54.0255 56.0058 67.3955 43.7058C82.4955 29.7958 96.3955 28.3958 96.3955 28.3958H96.4055Z" fill="#B7B3C9" stroke="black" stroke-width="4" stroke-linecap="round" stroke-linejoin="round"/>
<path d="M35.2856 85.0857C35.2856 85.0857 35.3356 85.0457 35.3456 85.0457" stroke="black" stroke-width="4" stroke-linecap="round" stroke-linejoin="round"/>
<path d="M83.8354 32.4557L88.9855 51.9357" stroke="black" stroke-width="3" stroke-linecap="round" stroke-linejoin="round"/>
<path d="M79.4355 55.2757L70.6055 42.3857" stroke="black" stroke-width="3" stroke-linecap="round" stroke-linejoin="round"/>
<path d="M72.7256 60.8857L64.9656 48.1957" stroke="black" stroke-width="3" stroke-linecap="round" stroke-linejoin="round"/>
<path d="M65.2756 67.0157L57.0056 59.4857" stroke="black" stroke-width="3" stroke-linecap="round" stroke-linejoin="round"/>
<path d="M55.4555 74.1758L50.3955 70.6558" stroke="black" stroke-width="3" stroke-linecap="round" stroke-linejoin="round"/>
<path d="M61.1554 71.3457L53.5554 65.2357" stroke="black" stroke-width="3" stroke-linecap="round" stroke-linejoin="round"/>
<path d="M48.9956 78.2157L46.9856 75.2957" stroke="black" stroke-width="3" stroke-linecap="round" stroke-linejoin="round"/>
<path d="M86.7555 16.7057C84.4955 16.9757 78.8255 17.9057 71.9855 20.9457C70.2655 16.4557 68.1355 9.55574 68.5155 3.97574C68.9955 -2.97426 81.0755 10.1257 86.7555 16.7057Z" fill="#504972" stroke="black" stroke-width="4" stroke-linecap="round" stroke-linejoin="round"/>
<path d="M65.3056 24.4558C61.5156 26.7758 57.6056 29.7658 53.8556 33.6458C53.6956 33.2358 53.5356 32.8858 53.3856 32.5858C51.4556 28.5758 49.0956 24.1058 48.0156 19.7958C47.7156 18.6558 47.6656 17.2958 48.4956 16.4558C51.1556 13.7758 58.1956 18.6558 60.6056 20.3158C62.0656 21.3158 63.9056 22.7558 65.2956 24.4458L65.3056 24.4558Z" fill="#504972" stroke="black" stroke-width="4" stroke-linecap="round" stroke-linejoin="round"/>
<path d="M47.5355 41.3757C44.6955 45.3557 42.1455 49.5557 39.5355 53.7057C34.2255 48.1257 25.6755 37.9457 32.2255 36.3157C37.5955 34.9657 43.5655 38.3657 47.5355 41.3757Z" fill="#504972" stroke="black" stroke-width="4" stroke-linecap="round" stroke-linejoin="round"/>
<path d="M33.0255 63.4658C31.8555 65.0558 30.6455 66.6058 29.3455 68.1158C28.0155 69.6458 26.6055 71.1158 25.1255 72.4858C21.0555 69.0758 16.1455 64.0358 19.3855 61.5758C22.6755 59.0858 28.9255 61.4258 33.0255 63.4658Z" fill="#504972" stroke="black" stroke-width="4" stroke-linecap="round" stroke-linejoin="round"/>
<path d="M16.3355 78.8757C16.1855 78.9857 16.0155 79.0657 15.8555 79.1657C13.3555 80.5057 10.5655 81.8557 8.04551 83.5457C6.79551 80.6457 4.00551 73.3257 7.25551 72.5557C10.3555 71.8057 14.5155 76.5457 16.3455 78.8757H16.3355Z" fill="#504972" stroke="black" stroke-width="4" stroke-linecap="round" stroke-linejoin="round"/>
</svg>
