<svg width="136" height="85" viewBox="0 0 136 85" fill="none" xmlns="http://www.w3.org/2000/svg">
<path d="M126.254 69.8621C124.404 69.0521 122.804 68.0021 121.214 66.6621C117.244 63.3321 114.164 59.0121 111.564 54.5521C104.514 42.4621 113.724 18.7221 100.084 7.83215C86.4343 -3.04785 14.1343 1.75215 3.69429 18.4221C-6.74571 35.0821 34.2943 25.5421 38.8243 32.2721C43.3643 39.0021 25.5143 44.2821 38.1843 51.1921C50.8543 58.1021 57.9143 43.2321 65.9743 49.9821C74.0343 56.7321 59.9843 61.6321 71.3743 66.2621C82.7643 70.8921 80.3043 60.7321 97.2743 69.5021C102.374 72.1421 107.474 74.7821 112.654 77.2721C116.844 79.2921 121.034 81.8421 125.704 82.5821C127.704 82.9021 129.964 82.5621 131.344 81.0821C133.184 79.1221 133.724 76.2921 132.434 73.8821C131.374 71.8921 129.114 70.9721 127.124 70.2121C126.834 70.1021 126.544 69.9821 126.264 69.8621H126.254Z" fill="#8D6EF9" stroke="black" stroke-width="4" stroke-linecap="round" stroke-linejoin="round"/>
</svg>
