<svg width="132" height="144" viewBox="0 0 132 144" fill="none" xmlns="http://www.w3.org/2000/svg">
<path d="M47.3225 60.5153C47.3225 60.5153 37.3525 47.7753 32.1925 51.4753C27.0225 55.1653 42.5325 71.7753 42.5325 71.7753C42.5325 71.7753 22.7826 66.4252 28.1326 77.4952C33.4826 88.5652 45.4826 76.7553 45.4826 76.7553C45.4826 76.7553 35.5125 92.0753 42.5325 92.4453C49.5525 92.8153 53.6026 79.3453 53.6026 79.3453C53.6026 79.3453 60.9825 95.5853 68.9225 87.6553C76.8625 79.7153 72.0625 64.2153 58.4025 64.3953C58.4025 64.3953 72.0626 50.7353 62.4626 41.6953C52.8626 32.6553 47.3325 60.5253 47.3325 60.5253L47.3225 60.5153Z" fill="#FFC2DB" stroke="black" stroke-width="4" stroke-linecap="round" stroke-linejoin="round"/>
<path d="M47.6827 69.7453C47.6827 69.7453 45.4727 65.1353 51.0027 64.3953C56.5427 63.6553 56.9127 73.0652 55.0627 74.3652C53.2127 75.6552 50.4527 75.1053 47.6827 69.7553V69.7453Z" fill="#FFEDA1"/>
<path d="M100.473 40.9552C100.473 40.9552 89.2126 61.6252 82.7526 54.6152C76.2926 47.6052 92.3526 31.1752 92.3526 31.1752C92.3526 31.1752 76.4825 38.9253 77.0325 31.9153C77.5825 24.9053 88.8425 18.9952 95.6725 23.6052C95.6725 23.6052 82.7526 11.2352 91.0626 6.25522C99.3726 1.27522 104.723 16.2253 104.723 16.2253C104.723 16.2253 111.923 -1.86478 116.353 2.75522C120.783 7.36522 113.033 24.1653 113.033 24.1653C113.033 24.1653 128.723 15.8552 129.093 26.0152C129.463 36.1652 111.563 39.6752 111.563 39.6752C111.563 39.6752 115.813 64.2252 105.653 66.4352C95.5025 68.6452 100.483 40.9652 100.483 40.9652L100.473 40.9552Z" fill="#FFC2DB" stroke="black" stroke-width="4" stroke-linecap="round" stroke-linejoin="round"/>
<path d="M100.103 27.6653C100.103 27.6653 103.793 20.6553 107.303 22.4953C110.813 24.3453 108.223 30.6153 106.753 33.0153C105.273 35.4153 101.403 36.7053 100.293 35.7853C99.1825 34.8653 97.8926 31.7253 100.113 27.6653H100.103Z" fill="#FFEDA1"/>
<path d="M100.472 40.9553C100.472 40.9553 90.1323 59.5952 73.1523 109.055" stroke="black" stroke-width="4" stroke-linecap="round" stroke-linejoin="round"/>
<path d="M53.1125 81.1752C53.1125 81.1752 57.4225 111.195 60.3025 117.495" stroke="black" stroke-width="4" stroke-linecap="round" stroke-linejoin="round"/>
<path d="M117.283 135.445C113.753 137.845 102.883 144.855 76.1126 140.615C76.1126 140.615 62.6326 138.035 65.9626 134.355C65.9626 134.355 65.9926 134.305 66.0626 134.175C67.0326 132.585 74.9125 121.185 97.7725 122.135C97.9725 122.135 98.2026 122.165 98.4326 122.165C98.4326 122.165 110.453 121.445 118.553 130.675C118.553 130.675 120.773 133.055 117.273 135.455L117.283 135.445Z" fill="#A9FFD4" stroke="black" stroke-width="4" stroke-miterlimit="10"/>
<path d="M107.302 104.255C106.462 110.955 102.753 117.325 97.7626 122.125C74.9026 121.175 67.0325 132.585 66.0525 134.165C64.9825 134.315 64.1125 134.035 64.1125 132.685C64.1125 132.025 65.7725 104.075 101.213 99.4653C101.213 99.4653 108.042 98.3352 107.302 104.245V104.255Z" fill="#A9FFD4" stroke="black" stroke-width="4" stroke-miterlimit="10"/>
<path d="M61.8926 138.315C58.9226 141.305 49.0026 140.795 46.3426 140.765C35.5526 140.735 24.0226 141.785 13.5926 138.465C10.5526 137.495 1.62263 134.625 2.01263 130.125C2.37263 126.165 11.7826 124.625 14.6226 123.915C19.4026 122.715 24.1825 122.305 29.0225 122.305C36.0325 129.465 45.7425 135.885 58.5325 137.855C58.5325 137.855 60.3725 138.515 61.9125 138.315H61.8926Z" fill="#A9FFD4" stroke="black" stroke-width="4" stroke-miterlimit="10"/>
<path d="M61.8925 138.315C60.3625 138.515 58.5125 137.855 58.5125 137.855C45.7325 135.885 36.0124 129.465 29.0024 122.305C21.5624 114.735 17.1624 106.345 15.4224 101.615C12.0224 92.4652 24.0624 97.3753 24.0624 97.3753C57.9424 107.625 63.4624 134.045 63.4624 134.045C64.5324 137.195 63.3624 138.165 61.8724 138.315H61.8925Z" fill="#A9FFD4" stroke="black" stroke-width="4" stroke-miterlimit="10"/>
</svg>
