<svg width="134" height="145" viewBox="0 0 134 145" fill="none" xmlns="http://www.w3.org/2000/svg">
<path d="M49.24 66.5151C49.24 66.5151 39.27 53.7752 34.11 57.4752C28.94 61.1652 44.45 77.7752 44.45 77.7752C44.45 77.7752 24.7001 72.4251 30.0501 83.4951C35.4001 94.5651 47.4 82.7551 47.4 82.7551C47.4 82.7551 37.43 98.0751 44.45 98.4451C51.47 98.8151 55.52 85.3452 55.52 85.3452C55.52 85.3452 62.9 101.585 70.84 93.6552C78.78 85.7152 73.98 70.2151 60.32 70.3951C60.32 70.3951 73.98 56.7351 64.38 47.6951C54.78 38.6551 49.25 66.5252 49.25 66.5252L49.24 66.5151Z" fill="#FFC2DB" stroke="black" stroke-width="4" stroke-linecap="round" stroke-linejoin="round"/>
<path d="M49.6001 75.61C49.6001 75.61 47.3902 71 52.9202 70.26C58.4602 69.52 58.8301 78.93 56.9801 80.23C55.1301 81.52 52.3701 80.97 49.6001 75.62V75.61Z" fill="#FFEDA1"/>
<path d="M102.39 46.9551C102.39 46.9551 91.1301 67.6251 84.6701 60.6151C78.2101 53.6051 94.2701 37.1751 94.2701 37.1751C94.2701 37.1751 78.4 44.9251 78.95 37.9151C79.5 30.9051 90.76 24.9951 97.59 29.6051C97.59 29.6051 84.67 17.2351 92.98 12.2551C101.29 7.2751 106.64 22.2251 106.64 22.2251C106.64 22.2251 113.84 4.1351 118.27 8.7551C122.7 13.3651 114.95 30.1651 114.95 30.1651C114.95 30.1651 130.64 21.8551 131.01 32.0151C131.38 42.1651 113.48 45.6751 113.48 45.6751C113.48 45.6751 117.73 70.2251 107.57 72.4351C97.42 74.6451 102.4 46.9651 102.4 46.9651L102.39 46.9551Z" fill="#FFC2DB" stroke="black" stroke-width="4" stroke-linecap="round" stroke-linejoin="round"/>
<path d="M102.02 33.53C102.02 33.53 105.71 26.52 109.22 28.36C112.73 30.21 110.14 36.48 108.67 38.88C107.19 41.28 103.32 42.57 102.21 41.65C101.1 40.73 99.8101 37.59 102.03 33.53H102.02Z" fill="#FFEDA1"/>
<path d="M102.39 46.9551C102.39 46.9551 92.0498 65.5951 75.0698 115.055" stroke="black" stroke-width="4" stroke-linecap="round" stroke-linejoin="round"/>
<path d="M55.03 87.1751C55.03 87.1751 59.34 117.195 62.22 123.495" stroke="black" stroke-width="4" stroke-linecap="round" stroke-linejoin="round"/>
<path d="M120.2 134.31C116.67 136.71 105.8 143.72 79.0301 139.48C79.0301 139.48 65.5501 136.9 68.8801 133.22C68.8801 133.22 68.9101 133.17 68.9801 133.04C69.9501 131.45 77.83 120.05 100.69 121C100.89 121 101.12 121.03 101.35 121.03C101.35 121.03 113.37 120.31 121.47 129.54C121.47 129.54 123.69 131.92 120.19 134.32L120.2 134.31Z" fill="#A9FFD4" stroke="black" stroke-width="4" stroke-miterlimit="10"/>
<path d="M110.22 103.12C109.38 109.82 105.67 116.19 100.68 120.99C77.8201 120.04 69.95 131.45 68.97 133.03C67.9 133.18 67.03 132.9 67.03 131.55C67.03 130.89 68.69 102.94 104.13 98.33C104.13 98.33 110.96 97.2 110.22 103.11V103.12Z" fill="#A9FFD4" stroke="black" stroke-width="4" stroke-miterlimit="10"/>
<path d="M64.8101 137.18C61.8401 140.17 51.9201 139.66 49.2601 139.63C38.4701 139.6 26.9401 140.65 16.5101 137.33C13.4701 136.36 4.54011 133.49 4.93011 128.99C5.29011 125.03 14.7001 123.49 17.5401 122.78C22.3201 121.58 27.1 121.17 31.94 121.17C38.95 128.33 48.66 134.75 61.45 136.72C61.45 136.72 63.29 137.38 64.83 137.18H64.8101Z" fill="#A9FFD4" stroke="black" stroke-width="4" stroke-miterlimit="10"/>
<path d="M64.8099 137.18C63.2799 137.38 61.4299 136.72 61.4299 136.72C48.6499 134.75 38.9299 128.33 31.9199 121.17C24.4799 113.6 20.0798 105.21 18.3398 100.48C14.9398 91.33 26.9799 96.24 26.9799 96.24C60.8599 106.49 66.3799 132.91 66.3799 132.91C67.4499 136.06 66.2799 137.03 64.7899 137.18H64.8099Z" fill="#A9FFD4" stroke="black" stroke-width="4" stroke-miterlimit="10"/>
</svg>
