<svg width="1920" height="1080" viewBox="0 0 1920 1080" fill="none" xmlns="http://www.w3.org/2000/svg">
<g clip-path="url(#clip0_2030_264)">
<path d="M-683 386.31H245.54C245.54 386.31 162.93 155 -60.1199 155C-60.1199 155 -210.47 153.35 -220.38 224.39C-220.38 224.39 -446.73 108.74 -683 386.31Z" fill="#68BC8C" stroke="black" stroke-width="4" stroke-linecap="round" stroke-linejoin="round"/>
<path d="M1390 386.76C1392.86 386.19 2007.9 386.76 2007.9 386.76C2007.9 386.76 2004.47 309.59 1875.29 324.46C1875.29 324.46 1873.58 253.01 1726.67 249.01C1726.67 249.01 1636.36 250.15 1543.19 302.74C1543.19 302.74 1539.04 261.23 1480.31 289.02C1416.29 319.31 1390 386.76 1390 386.76Z" fill="#68BC8C" stroke="black" stroke-width="4" stroke-linecap="round" stroke-linejoin="round"/>
<path d="M1488.88 327.31H1526.61" stroke="black" stroke-width="4" stroke-linecap="round" stroke-linejoin="round"/>
<path d="M1497.46 306.73L1516.89 351.89" stroke="black" stroke-width="4" stroke-linecap="round" stroke-linejoin="round"/>
<path d="M1520.32 306.73L1489.46 353.6" stroke="black" stroke-width="4" stroke-linecap="round" stroke-linejoin="round"/>
<path d="M1791.83 299.3C1791.83 299.3 1781.54 277.86 1792.12 277.86C1802.7 277.86 1816.41 300.44 1816.41 300.44C1816.41 300.44 1838.7 295.01 1840.13 304.73C1841.56 314.45 1819.55 317.31 1819.55 317.31C1819.55 317.31 1836.41 331.6 1826.7 336.46C1816.99 341.32 1804.98 325.6 1804.98 325.6C1804.98 325.6 1802.41 342.75 1791.26 341.89C1780.11 341.03 1790.97 317.03 1790.97 317.03C1790.97 317.03 1769.53 325.32 1768.11 312.46C1766.68 299.6 1791.83 299.31 1791.83 299.31V299.3Z" fill="#FFE964" stroke="black" stroke-width="4" stroke-linecap="round" stroke-linejoin="round"/>
<path d="M322.01 386.76H749.66C749.66 386.76 789.9 311.73 728.51 291.95C685.09 277.96 638.35 287.52 596.61 302.7C574.53 310.73 543.78 322.65 478.85 359.76C490.01 343.91 478 324.05 461.77 318.28C433.1 308.08 404.2 330.26 381.3 344.5C362.93 355.92 345.27 368.52 328.23 381.83C327.17 382.66 323.41 386.77 322 386.77L322.01 386.76Z" fill="#68BC8C" stroke="black" stroke-width="4" stroke-linecap="round" stroke-linejoin="round"/>
<g clip-path="url(#clip1_2030_264)">
<path d="M1290.7 716.15C1290.7 716.15 1294.07 703.68 1304.93 706.03C1304.93 706.03 1311.68 706.18 1313.73 714.39C1313.73 714.39 1315.49 703.68 1325.17 703.68C1334.85 703.68 1335.15 713.95 1335.15 713.95C1335.15 713.95 1337.35 705.15 1348.21 706.91C1359.07 708.67 1358.48 719.97 1358.48 719.97" stroke="black" stroke-width="4" stroke-linecap="round" stroke-linejoin="round"/>
<path d="M1821.16 479.18C1821.16 479.18 1824.74 457.17 1834.58 461.46C1844.42 465.75 1834.58 481.86 1834.58 481.86C1834.58 481.86 1846.93 474.17 1846.75 481.86C1846.57 489.55 1835.12 491.88 1835.12 491.88C1835.12 491.88 1836.01 516.4 1824.92 513.89C1824.92 513.89 1820.09 514.07 1819.73 499.93C1819.73 499.93 1813.82 515.14 1805.59 507.45C1797.36 499.76 1816.68 489.38 1816.68 489.38C1816.68 489.38 1801.47 483.3 1806.66 472.92C1811.85 462.54 1821.15 479.18 1821.15 479.18H1821.16Z" fill="#FFC2DB" stroke="black" stroke-width="4" stroke-linecap="round" stroke-linejoin="round"/>
<path d="M1822.93 487.63C1823.1 486.83 1823.34 486.05 1823.66 485.29C1824.26 483.85 1824.98 481.78 1826.31 480.87C1828.92 479.08 1830.32 482.45 1830.57 484.58C1830.99 488.16 1829.47 492.16 1827.02 494.77C1824.59 497.36 1823.17 495.42 1822.77 492.65C1822.53 490.98 1822.57 489.28 1822.92 487.63H1822.93Z" fill="#FFEDA1"/>
<path d="M1822.62 539.13C1822.62 539.13 1815.25 520.34 1819.75 500.84" stroke="black" stroke-width="4" stroke-miterlimit="10"/>
<path d="M1822.73 540.02C1822.56 540.02 1821.36 537.25 1821.24 537.04C1819.77 534.42 1818.03 531.95 1816.08 529.67C1813.41 526.53 1810.32 523.74 1806.9 521.44C1804.96 520.14 1790.67 511.58 1790.67 518.2C1790.67 521.06 1792.46 521.42 1797.65 529.83C1802.84 538.24 1809.17 540.03 1822.74 540.03L1822.73 540.02Z" fill="#A9FFD4" stroke="black" stroke-width="4" stroke-miterlimit="10"/>
<path d="M1821.98 539.99C1820.9 539.94 1823.74 531.46 1823.9 531.1C1826.24 525.94 1829.73 521.39 1833.62 517.32C1837.21 513.56 1841.85 510.57 1845.06 506.5C1846.67 504.46 1850.61 504.46 1848.64 511.09C1846.67 517.72 1843.09 541.01 1821.98 539.99Z" fill="#A9FFD4" stroke="black" stroke-width="4" stroke-miterlimit="10"/>
<path d="M714.2 928.51C714.2 928.51 680.64 910.93 660.39 928.51C660.39 928.51 633.22 902.41 602.32 928.51C602.32 928.51 570.89 904 543.72 928.51" stroke="black" stroke-width="4" stroke-linecap="round" stroke-linejoin="round"/>
<path d="M341.6 739.51C340.12 739.51 302.77 721.82 264.18 739.51C264.18 739.51 231.53 718.29 187.5 739.51" stroke="black" stroke-width="4" stroke-linecap="round" stroke-linejoin="round"/>
<path d="M1550.25 724.17C1550.25 724.17 1590.39 701.15 1629.92 723.55C1629.92 723.55 1666.29 699.04 1712.15 723.55" stroke="black" stroke-width="4" stroke-linecap="round" stroke-linejoin="round"/>
<path d="M1768.69 787.52C1768.69 787.52 1790.83 767.49 1814.02 787.52C1814.02 787.52 1834.58 767.14 1860.4 787.52" stroke="black" stroke-width="4" stroke-linecap="round" stroke-linejoin="round"/>
<path d="M149.56 917.93C149.56 917.93 158.47 895.77 133.42 891.44C133.42 891.44 129.33 890.48 128.36 893.85C127.4 897.22 121.86 917.21 146.67 919.14C146.67 919.14 148.78 919.68 149.56 917.94V917.93Z" fill="#4FAF86" stroke="black" stroke-width="4" stroke-miterlimit="10"/>
<path d="M151.98 917.54C151.98 917.54 147.3 894.12 172.72 894.47C172.72 894.47 176.92 894.28 177.25 897.77C177.58 901.26 179.34 921.93 154.6 919.25C154.6 919.25 152.43 919.39 151.98 917.53V917.54Z" fill="#4FAF86" stroke="black" stroke-width="4" stroke-miterlimit="10"/>
<path d="M150.5 937.79V920.2" stroke="black" stroke-width="4" stroke-miterlimit="10"/>
<path d="M1337.9 448C1337.9 448 1335.44 432.54 1316.45 442.45C1316.45 442.45 1308.56 446.41 1314.11 450.78C1314.11 450.78 1329.18 465.85 1337.9 448Z" fill="#4FAF86" stroke="black" stroke-width="4" stroke-miterlimit="10"/>
<path d="M1339.88 447.93C1339.88 447.93 1349.4 430.56 1362.87 436.11C1362.87 436.11 1366.04 435.82 1365.25 439.14C1364.46 442.46 1364.06 460.94 1339.88 447.93Z" fill="#4FAF86" stroke="black" stroke-width="4" stroke-miterlimit="10"/>
<path d="M1339.88 471.79V450.38" stroke="black" stroke-width="4" stroke-miterlimit="10"/>
<path d="M688.51 448.65C688.51 448.65 691.45 426.99 705.81 429.25C720.17 431.52 711.35 465.94 711.35 465.94H681.88C681.88 465.94 656.86 459.89 664.83 449.06C672.81 438.23 688.51 448.64 688.51 448.64V448.65Z" fill="#4FAF86" stroke="black" stroke-width="4" stroke-linecap="round" stroke-linejoin="round"/>
<path d="M1045.21 729.8H1163.02C1163.02 729.8 1165 729.57 1166.99 727.97C1168.67 726.6 1177.37 716.07 1165.62 714.39C1169 714.87 1173.93 711.3 1174.59 708.1C1176.02 701.11 1168.11 699.52 1163.18 701.57C1168.7 699.27 1175.96 692.66 1173.63 685.99C1170.15 676.05 1157.42 682.17 1151.58 685.85C1151.58 685.85 1152.5 672.27 1136.47 684.63C1136.47 684.63 1140.44 671.35 1124.87 675.78C1124.87 675.78 1117.7 677.76 1112.81 683.41C1112.81 683.41 1116.05 670.3 1102.55 669.68C1090.84 669.14 1085.5 682.8 1085.5 682.8C1085.5 682.8 1081.68 678.07 1076.04 679.75C1070.39 681.43 1069.94 690.28 1069.94 690.28C1069.94 690.28 1060.48 688.45 1057.58 702.18C1057.58 702.18 1046.74 699.43 1043.85 716.37C1043.85 716.37 1036.68 713.32 1037.44 721.56C1038.2 729.8 1045.22 729.8 1045.22 729.8H1045.21Z" fill="#4FAF86" stroke="black" stroke-width="4" stroke-linecap="round" stroke-linejoin="round"/>
<path d="M1463.13 799.84C1463.13 799.84 1512.96 767.19 1495.78 799.84C1495.78 799.84 1528.43 774.64 1519.84 799.84C1519.84 799.84 1551.34 774.64 1545.04 799.84" stroke="black" stroke-width="4" stroke-linecap="round" stroke-linejoin="round"/>
<path d="M516.78 640.46C516.78 640.46 561.46 609.53 548.28 640.46C548.28 640.46 578.64 614.11 572.91 640.46C572.91 640.46 602.69 617.55 595.25 640.46" stroke="black" stroke-width="4" stroke-linecap="round" stroke-linejoin="round"/>
<path d="M1156.38 487.19C1156.38 487.19 1148.63 451.81 1154.09 429.63C1159.55 407.45 1176.8 416.78 1167.29 444.07C1167.29 444.07 1182.43 412.74 1191.94 423.12C1201.45 433.51 1156.38 487.2 1156.38 487.2V487.19Z" fill="#68BC8C" stroke="black" stroke-width="4" stroke-linecap="round" stroke-linejoin="round"/>
<path d="M1156.56 488.59C1156.56 488.59 1215.18 399.69 1225.92 407.26C1236.66 414.83 1202.16 449.68 1202.16 449.68C1202.16 449.68 1216.95 432.78 1222.4 440.35C1227.86 447.92 1194.94 482.07 1156.56 488.58V488.59Z" fill="#68BC8C" stroke="black" stroke-width="4" stroke-linecap="round" stroke-linejoin="round"/>
<path d="M1155.15 492.29C1155.15 492.29 1151.45 411.67 1132.97 407.79C1114.49 403.92 1129.45 450.57 1129.45 450.57C1129.45 450.57 1116.95 438.6 1109.21 446.7C1101.46 454.8 1116.96 472.93 1155.16 492.29H1155.15Z" fill="#68BC8C" stroke="black" stroke-width="4" stroke-linecap="round" stroke-linejoin="round"/>
<path d="M1152.69 493C1152.69 493 1126.46 466.59 1089.14 465.71C1051.82 464.83 1076.64 499.86 1116.07 491.41C1116.07 491.41 1101.99 494.4 1108.85 502.5C1115.72 510.6 1152.68 492.99 1152.68 492.99L1152.69 493Z" fill="#68BC8C" stroke="black" stroke-width="4" stroke-linecap="round" stroke-linejoin="round"/>
<path d="M1156.73 491.59C1156.73 491.59 1222.74 455.5 1231.02 464.3C1239.29 473.1 1209.72 483.49 1209.72 483.49C1209.72 483.49 1228.38 479.97 1229.26 489.48C1230.14 498.99 1191.06 505.15 1156.73 491.59Z" fill="#68BC8C" stroke="black" stroke-width="4" stroke-linecap="round" stroke-linejoin="round"/>
<path d="M1134.74 459.74L1144.55 477.51" stroke="black" stroke-width="3" stroke-linecap="round" stroke-linejoin="round"/>
<path d="M1164.16 453.61L1161.09 464.95" stroke="black" stroke-width="3" stroke-linecap="round" stroke-linejoin="round"/>
<path d="M1194.18 456.98L1182.23 467.7" stroke="black" stroke-width="3" stroke-linecap="round" stroke-linejoin="round"/>
<path d="M1200.62 484.86L1184.38 488.23" stroke="black" stroke-width="3" stroke-linecap="round" stroke-linejoin="round"/>
<path d="M1126.16 488.23L1131.99 488.54" stroke="black" stroke-width="3" stroke-linecap="round" stroke-linejoin="round"/>
<path d="M40.44 555.93H80.81C80.81 555.93 96.78 553.71 95 546.61C93.23 539.51 77.26 546.61 77.26 546.61C77.26 546.61 95 534.63 84.36 519.11C84.36 519.11 76.38 508.46 60.41 527.09C60.41 527.09 52.87 512.45 38.67 518.66C24.48 524.87 32.46 539.95 32.46 539.95C32.46 539.95 25.81 531.16 18.27 536C10.73 540.84 24.48 551.04 24.48 551.04C24.48 551.04 29.36 555.92 40.45 555.92L40.44 555.93Z" fill="#4FAF86" stroke="black" stroke-width="4" stroke-linecap="round" stroke-linejoin="round"/>
<path d="M350.17 492.52C350.17 492.52 353.5 477.75 362.4 478.53C371.3 479.31 372.28 489.29 372.28 489.29C372.28 489.29 374.33 477.36 382.94 477.36C391.55 477.36 391.16 490.61 391.16 490.61C391.16 490.61 394.29 477.85 404.76 478.14C415.23 478.43 415.52 495.06 415.52 495.06" stroke="black" stroke-width="4" stroke-linecap="round" stroke-linejoin="round"/>
<path d="M603.94 418.13C603.94 418.13 593.7 422.68 587.58 415.85C581.46 409.02 581.46 373.75 592.13 377.73C592.13 377.73 595.4 376.88 595.83 389.39C595.83 389.39 600.52 368.62 605.79 372.46C611.05 376.3 605.08 398.63 605.08 398.63C605.08 398.63 610.63 384.97 613.61 386.54C616.6 388.1 616.17 413.71 603.94 418.12V418.13Z" fill="#FF83B3" stroke="black" stroke-width="4" stroke-linecap="round" stroke-linejoin="round"/>
<path d="M616.87 425.49C616.69 427.62 614.77 441.02 602.47 453.88C602.47 453.88 600.97 455.63 598.42 455.42C598.42 455.42 598.28 455.4 598.06 455.32C599.46 455 599.35 453.37 599.35 453.37C599.35 453.37 599 451.45 598.1 448.4C600.37 439.82 606.03 423.34 615.69 424.11C615.69 424.11 616.98 424.18 616.86 425.49H616.87Z" fill="#88D1B3" stroke="black" stroke-width="4" stroke-linecap="round" stroke-linejoin="round"/>
<path d="M598.06 455.33C597.88 455.38 597.68 455.4 597.45 455.39C595.39 455.33 593.63 453.85 593.63 453.85C577.06 439.54 576.26 423.72 577.06 419.69C577.87 415.67 581.24 419.69 581.24 419.69C591.25 428.94 596.09 441.54 598.11 448.41C599.01 451.46 599.36 453.38 599.36 453.38C599.36 453.38 599.47 455.01 598.07 455.33H598.06Z" fill="#88D1B3" stroke="black" stroke-width="4" stroke-linecap="round" stroke-linejoin="round"/>
<path d="M599.97 442.25V419.28C598.72 419.52 597.26 419.66 595.74 419.58V441.61C596.77 444.18 597.55 446.51 598.11 448.4C598.58 446.61 599.2 444.49 599.98 442.24L599.97 442.25Z" fill="#88D1B3" stroke="black" stroke-width="4" stroke-linecap="round" stroke-linejoin="round"/>
</g>
</g>
<defs>
<clipPath id="clip0_2030_264">
<rect width="1920" height="1080" fill="white"/>
</clipPath>
<clipPath id="clip1_2030_264">
<rect width="1848.4" height="567.79" fill="white" transform="translate(14 370)"/>
</clipPath>
</defs>
</svg>
