<svg width="113" height="266" viewBox="0 0 113 266" fill="none" xmlns="http://www.w3.org/2000/svg">
<path d="M14.6903 40.9664C5.84025 -9.45357 108.96 -11.3736 110.71 37.7164C111.3 54.3764 98.5303 68.2764 94.0903 83.6964C85.0503 115.066 128.65 153.766 99.5602 183.176C78.2802 204.686 16.4603 201.806 20.7603 161.716C21.9903 150.266 27.2803 137.546 17.0103 128.536C-14.3797 101.646 11.3902 96.4564 23.0302 73.9064C22.9802 62.8064 16.6203 51.9564 14.6903 40.9664Z" fill="#68BC8C" stroke="black" stroke-width="4" stroke-linecap="round" stroke-linejoin="round"/>
<path d="M46.1104 194.556V263.576H81.2803V193.516C70.1903 196.946 57.2204 197.436 46.1104 194.556Z" fill="#C19181" stroke="black" stroke-width="4" stroke-linecap="round" stroke-linejoin="round"/>
<path d="M58.5603 201.656V213.616" stroke="black" stroke-width="3" stroke-miterlimit="10" stroke-linecap="round"/>
<path d="M66.5703 232.406V244.576" stroke="black" stroke-width="3" stroke-miterlimit="10" stroke-linecap="round"/>
</svg>
