<svg width="255" height="512" viewBox="0 0 255 512" fill="none" xmlns="http://www.w3.org/2000/svg">
<path d="M247.7 270.35C240.13 263.2 233.4 271.61 233.4 271.61C233.4 271.61 232.14 266.56 227.93 264.46C227.93 264.46 241.39 248.48 216.57 219.45C216.57 219.45 218.25 202.63 201.85 192.53C201.85 192.53 216.15 188.32 206.9 158.46C206.9 158.46 210.26 150.47 209 142.9C209 142.9 222.04 139.11 219.09 122.71C216.15 106.31 198.48 114.3 198.48 114.3C198.48 114.3 195.96 107.15 188.81 105.05C188.81 105.05 190.91 90.75 168.2 70.14C168.2 70.14 180.82 34.39 148.43 18.4C148.43 18.4 149.27 2 137.49 2C125.71 2 119.39 15.88 119.39 15.88C119.39 15.88 100.48 14.2 100.48 37.33C100.48 37.33 86.5997 38.59 82.3897 55.84C82.3897 55.84 71.8697 56.26 72.2997 65.93C72.7197 75.6 81.1297 75.6 81.1297 75.6C81.1297 75.6 77.7697 81.49 81.9697 90.32C81.9697 90.32 59.6497 97.89 72.2797 136.17C72.2797 136.17 57.9897 134.91 52.9397 152.15C52.9397 152.15 36.1197 157.62 40.3197 177.81C40.3197 177.81 32.3297 182.86 30.6497 192.11C30.6497 192.11 13.8297 192.95 15.9297 209.78C15.9297 209.78 5.83967 213.14 6.67967 221.98C7.51967 230.81 16.7697 232.07 16.7697 232.07C16.7697 232.07 13.8297 243.86 20.9797 245.33C20.9797 245.33 4.57968 263.2 14.2497 282.55C14.2497 282.55 2.88968 282.55 2.04968 293.07C1.20968 303.59 11.2997 304.43 11.2997 304.43C11.2997 304.43 -3.00033 311.16 4.98967 323.36C12.9797 335.56 31.9097 332.19 31.9097 332.19C31.9097 332.19 23.4997 350.28 36.1197 357.43C48.7397 364.58 56.7297 360.37 56.7297 360.37C56.7297 360.37 60.0897 371.31 79.8597 370.46C85.2397 370.23 90.7797 368.72 95.9897 366.64C109.91 361.1 121.5 351.53 121.5 351.53C121.5 351.53 133.9 364.97 158.03 365.57C160.2 365.62 162.46 365.58 164.82 365.41C164.82 365.41 183.33 361.62 188.8 346.9C188.8 346.9 196.79 356.57 208.57 351.53C220.35 346.48 220.35 338.07 220.35 338.07C220.35 338.07 235.07 335.13 239.28 317.04C239.28 317.04 256.1 309.05 250.64 288.44C250.64 288.44 255.27 277.5 247.7 270.35Z" fill="#48C19B" stroke="black" stroke-width="4" stroke-linecap="round" stroke-linejoin="round"/>
<path d="M123.61 60.89C123.61 60.89 125.29 47.43 132.44 45.75L123.61 27.24L115.2 31.45L123.61 60.89Z" fill="#C19181" stroke="black" stroke-width="4" stroke-linecap="round" stroke-linejoin="round"/>
<path d="M153.48 214.41L167.78 193.38L173.67 201.37L161.05 233.34C161.05 233.34 159.79 223.67 153.48 214.41Z" fill="#C19181" stroke="black" stroke-width="4" stroke-linecap="round" stroke-linejoin="round"/>
<path d="M100.06 168.14C100.06 168.14 94.1696 173.23 93.3296 186.25L82.8096 155.1L91.4296 149.63L100.05 168.14H100.06Z" fill="#C19181" stroke="black" stroke-width="4" stroke-linecap="round" stroke-linejoin="round"/>
<path d="M86.5996 258.16L68.0896 233.34L60.0996 239.23L79.4496 276.66C79.4496 276.66 77.7696 267.83 86.5996 258.15V258.16Z" fill="#C19181" stroke="black" stroke-width="4" stroke-linecap="round" stroke-linejoin="round"/>
<path d="M108.47 52.89C108.47 52.89 96.6897 48.26 91.4397 59.2C91.4397 59.2 87.2497 54.57 82.3997 55.84" stroke="black" stroke-width="4" stroke-linecap="round" stroke-linejoin="round"/>
<path d="M79.9097 82.8101C79.9097 82.8101 82.3997 91.1701 95.4397 85.2801C95.4397 85.2801 106.38 92.4901 111.84 85.1001" stroke="black" stroke-width="4" stroke-linecap="round" stroke-linejoin="round"/>
<path d="M188.81 105.05C188.81 105.05 176.19 98.32 165.68 110.52" stroke="black" stroke-width="4" stroke-linecap="round" stroke-linejoin="round"/>
<path d="M206.9 158.47C206.9 158.47 197.65 172.35 183.35 163.94C183.35 163.94 181.25 177.4 170.31 174.03C159.37 170.67 156.85 163.51 156.85 163.51C156.85 163.51 144.65 168.14 143.39 155.1" stroke="black" stroke-width="4" stroke-linecap="round" stroke-linejoin="round"/>
<path d="M79.9097 209.36C79.9097 209.36 80.7197 199.27 71.4597 199.69C71.4597 199.69 59.6797 184.1 47.0597 199.68C47.0597 199.68 42.0097 191.7 30.6597 192.12" stroke="black" stroke-width="4" stroke-linecap="round" stroke-linejoin="round"/>
<path d="M17.3696 242.74C17.3696 242.74 27.7096 255 50.8496 245.33C50.8496 245.33 54.2096 248.91 60.0996 245.33" stroke="black" stroke-width="4" stroke-linecap="round" stroke-linejoin="round"/>
<path d="M181.24 264.89C181.24 264.89 197.22 256.06 206.9 274.56C206.9 274.56 216.15 259 227.93 264.47" stroke="black" stroke-width="4" stroke-linecap="round" stroke-linejoin="round"/>
<path d="M169.46 332.6C169.46 332.6 189.65 342.27 206.89 324.19C206.89 324.19 216.56 330.5 224.56 317.88C224.56 317.88 238.33 319.56 242.54 314.94" stroke="black" stroke-width="4" stroke-linecap="round" stroke-linejoin="round"/>
<path d="M121.51 351.53C121.51 351.53 109.93 361.1 95.9998 366.64V509.68H158.04V365.57C133.91 364.97 121.51 351.53 121.51 351.53Z" fill="#C19181" stroke="black" stroke-width="4" stroke-linecap="round" stroke-linejoin="round"/>
<path d="M110.44 360.79V374.98" stroke="black" stroke-width="3" stroke-linecap="round" stroke-linejoin="round"/>
<path d="M137.88 381.45V395.64" stroke="black" stroke-width="3" stroke-linecap="round" stroke-linejoin="round"/>
<path d="M121.67 394.07V408.26" stroke="black" stroke-width="3" stroke-linecap="round" stroke-linejoin="round"/>
<path d="M108.86 417.73V431.92" stroke="black" stroke-width="3" stroke-linecap="round" stroke-linejoin="round"/>
<path d="M141.36 443.91V458.11" stroke="black" stroke-width="3" stroke-linecap="round" stroke-linejoin="round"/>
<path d="M123.06 466.62V480.82" stroke="black" stroke-width="3" stroke-linecap="round" stroke-linejoin="round"/>
<path d="M110.44 494.38V508.58" stroke="black" stroke-width="3" stroke-linecap="round" stroke-linejoin="round"/>
<path d="M148.43 18.4L143.38 16.45" stroke="black" stroke-width="4" stroke-linecap="round" stroke-linejoin="round"/>
<path d="M119.39 15.8801L127.02 14.8201" stroke="black" stroke-width="4" stroke-linecap="round" stroke-linejoin="round"/>
<path d="M100.48 37.3301V44.0601" stroke="black" stroke-width="4" stroke-linecap="round" stroke-linejoin="round"/>
<path d="M72.2898 136.18L74.7498 140.5" stroke="black" stroke-width="4" stroke-linecap="round" stroke-linejoin="round"/>
<path d="M40.3296 177.82L41.8596 183.55" stroke="black" stroke-width="4" stroke-linecap="round" stroke-linejoin="round"/>
<path d="M95.4297 85.2801L91.4397 82.8101" stroke="black" stroke-width="4" stroke-linecap="round" stroke-linejoin="round"/>
<path d="M81.1296 75.6101H86.5996" stroke="black" stroke-width="4" stroke-linecap="round" stroke-linejoin="round"/>
<path d="M198.48 114.3L193.5 117.24" stroke="black" stroke-width="4" stroke-linecap="round" stroke-linejoin="round"/>
<path d="M198.48 144.12C198.48 144.12 203.73 146.01 209 142.91" stroke="black" stroke-width="4" stroke-linecap="round" stroke-linejoin="round"/>
<path d="M183.34 163.94L177.24 159.54" stroke="black" stroke-width="4" stroke-linecap="round" stroke-linejoin="round"/>
<path d="M156.84 163.52L155.01 157.57" stroke="black" stroke-width="4" stroke-linecap="round" stroke-linejoin="round"/>
<path d="M43.4998 203.95L47.0598 199.68" stroke="black" stroke-width="4" stroke-linecap="round" stroke-linejoin="round"/>
<path d="M16.7798 232.08L19.1598 225.66" stroke="black" stroke-width="4" stroke-linecap="round" stroke-linejoin="round"/>
<path d="M50.8496 245.33L53.3696 242.74" stroke="black" stroke-width="4" stroke-linecap="round" stroke-linejoin="round"/>
<path d="M204.58 281.25L206.9 274.56" stroke="black" stroke-width="4" stroke-linecap="round" stroke-linejoin="round"/>
<path d="M246.79 298.36L250.64 288.44" stroke="black" stroke-width="4" stroke-linecap="round" stroke-linejoin="round"/>
<path d="M224.56 317.88H216.85" stroke="black" stroke-width="4" stroke-linecap="round" stroke-linejoin="round"/>
<path d="M206.9 324.19L201.72 318.79" stroke="black" stroke-width="4" stroke-linecap="round" stroke-linejoin="round"/>
<path d="M201.85 192.54L193.5 186.25" stroke="black" stroke-width="4" stroke-linecap="round" stroke-linejoin="round"/>
<path d="M14.2498 282.55L20.7997 288.44" stroke="black" stroke-width="4" stroke-linecap="round" stroke-linejoin="round"/>
<path d="M31.9197 332.18L34.9497 324.19" stroke="black" stroke-width="4" stroke-linecap="round" stroke-linejoin="round"/>
<path d="M121.51 351.53L129.68 344.62" stroke="black" stroke-width="4" stroke-linecap="round" stroke-linejoin="round"/>
<path d="M81.9697 90.3299L86.5997 88.4299" stroke="black" stroke-width="4" stroke-linecap="round" stroke-linejoin="round"/>
<path d="M161.98 240.79L161.05 233.34" stroke="black" stroke-width="4" stroke-linecap="round" stroke-linejoin="round"/>
<path d="M153.48 214.41L148.82 207.57" stroke="black" stroke-width="4" stroke-linecap="round" stroke-linejoin="round"/>
<path d="M86.5996 258.16L91.4396 253.62" stroke="black" stroke-width="4" stroke-linecap="round" stroke-linejoin="round"/>
<path d="M79.9197 282.55L79.4497 276.66" stroke="black" stroke-width="4" stroke-linecap="round" stroke-linejoin="round"/>
<path d="M93.4396 192.1L93.3296 186.25" stroke="black" stroke-width="4" stroke-linecap="round" stroke-linejoin="round"/>
<path d="M100.06 168.14L104.08 163.52" stroke="black" stroke-width="4" stroke-linecap="round" stroke-linejoin="round"/>
<path d="M123.21 65.1299L123.61 60.8899" stroke="black" stroke-width="4" stroke-linecap="round" stroke-linejoin="round"/>
<path d="M132.45 45.7401C132.45 45.7401 136.98 44.7301 139.28 47.3701" stroke="black" stroke-width="4" stroke-linecap="round" stroke-linejoin="round"/>
<path d="M59.0696 291.03C51.8496 284.45 39.4095 291.54 36.4895 299.38C33.0295 308.67 39.1295 319.87 48.4995 322.57C55.0195 324.45 62.5495 322.26 67.0295 317.16C74.3195 321.07 85.1595 316.6 89.3095 309.9C98.1595 295.66 75.0895 270.22 61.9995 285.03C61.4495 285.65 58.2196 290.25 59.0696 291.03Z" fill="#FF6C7E" stroke="black" stroke-width="4" stroke-linecap="round" stroke-linejoin="round"/>
<path d="M57.8696 272.46C57.8696 272.46 54.4096 275.08 59.0596 291.03" stroke="black" stroke-width="4" stroke-linecap="round" stroke-linejoin="round"/>
<path d="M185.82 258.43C188.16 257.76 181.13 252.36 180.3 252.17C174.02 250.71 166.09 253.5 162.21 258.62C156.82 265.73 161.12 275.26 168.5 278.87C169.58 279.4 176.04 280.47 176.31 280.96C176.31 280.96 184.8 296.37 199.42 284.6C214.04 272.84 205.07 252.91 185.83 258.42L185.82 258.43Z" fill="#FF6C7E" stroke="black" stroke-width="4" stroke-linecap="round" stroke-linejoin="round"/>
<path d="M185.82 258.43C185.82 258.43 195.16 242.24 201.16 245.9" stroke="black" stroke-width="4" stroke-linecap="round" stroke-linejoin="round"/>
<path d="M84.7997 201.66C85.3497 200.21 79.0497 198.55 77.9997 198.3C70.9697 196.63 63.7697 199.75 60.4497 206.21C56.7997 213.32 58.8797 223 64.5097 228.61C67.4897 231.58 71.8797 232.47 76.1897 232.51C85.0597 232.61 87.3197 227.87 87.4397 228C87.4397 228 96.2997 238.06 107.8 228C113.67 222.86 116.17 214.36 114.49 206.78C112.96 199.9 107.77 194.24 100.68 193.26C94.1997 192.36 87.2397 195.27 84.8097 201.65L84.7997 201.66Z" fill="#FF6C7E" stroke="black" stroke-width="4" stroke-linecap="round" stroke-linejoin="round"/>
<path d="M74.7397 184.89C74.7397 184.89 80.9697 180.58 84.7997 201.66" stroke="black" stroke-width="4" stroke-linecap="round" stroke-linejoin="round"/>
<path d="M166.3 148.88C157.59 134.22 136.77 144.3 136.77 159.34C136.77 168.38 146.98 175.96 155.72 172.61C155.67 172.63 157.58 175.42 157.71 175.58C159.42 177.69 161.57 179.5 164.1 180.55C178.54 186.57 188.1 169.5 184.64 157.34C183.69 154 181.84 150.7 178.89 148.72C177.27 147.64 175.42 147.06 173.48 147.01C172.74 146.99 166.04 148.42 166.31 148.88H166.3Z" fill="#FF6C7E" stroke="black" stroke-width="4" stroke-linecap="round" stroke-linejoin="round"/>
<path d="M177.88 136.44C177.88 136.44 171.59 137.01 166.3 148.88" stroke="black" stroke-width="4" stroke-linecap="round" stroke-linejoin="round"/>
<path d="M103.8 84.73C103.8 84.73 98.7498 78.21 89.5998 85.7C80.4498 93.2 83.0098 119.5 99.2598 115.73C99.2598 115.73 105.75 115.07 108.91 110.22C108.91 110.22 113.19 116.28 120.98 113.03C128.76 109.77 132.34 100.11 126.63 87.75C120.92 75.39 107.98 76.21 103.8 84.73Z" fill="#FF6C7E" stroke="black" stroke-width="4" stroke-linecap="round" stroke-linejoin="round"/>
<path d="M93.1897 71.01C93.1897 71.01 98.6897 72.22 103.78 84.74" stroke="black" stroke-width="4" stroke-linecap="round" stroke-linejoin="round"/>
<path d="M167.32 55.06C167.32 55.06 160.26 45.15 150.29 50.69C140.32 56.24 137.81 69.28 144.89 74.32C151.97 79.36 157.48 78.04 157.48 78.04C157.48 78.04 162.76 89.47 173.37 87.46C183.98 85.45 189.46 73.74 186.9 66.59C186.9 66.59 185.52 51.75 167.3 55.06H167.32Z" fill="#FF6C7E" stroke="black" stroke-width="4" stroke-linecap="round" stroke-linejoin="round"/>
<path d="M182.99 45.1299C182.99 45.1299 179.91 42.3899 167.31 55.0599" stroke="black" stroke-width="4" stroke-linecap="round" stroke-linejoin="round"/>
</svg>
