<svg width="389" height="225" viewBox="0 0 389 225" fill="none" xmlns="http://www.w3.org/2000/svg">
<path d="M197.141 247.277C182.801 249.597 168.621 245.107 161.161 229.747C149.161 205.047 161.871 198.687 131.511 189.517C101.161 180.337 121.631 153.627 127.981 138.747C134.331 123.867 130.101 116.107 98.3407 89.9873C82.9307 77.3173 86.0408 50.3573 101.751 39.2173C116.521 28.7473 133.581 34.6473 144.981 46.8673C155.981 58.6573 160.571 78.0773 176.531 84.7873C188.931 89.9973 202.371 85.6973 208.961 100.457C212.411 108.167 212.371 116.977 211.461 125.377C209.451 143.907 211.111 152.427 229.621 158.457C242.941 162.807 238.591 183.887 237.011 193.937C234.361 210.797 234.821 228.137 218.901 238.587C212.231 242.967 204.661 246.057 197.131 247.267L197.141 247.277Z" fill="#68BC8C" stroke="black" stroke-width="4" stroke-linecap="round" stroke-linejoin="round"/>
<path d="M125.171 67.4173C125.171 67.4173 180.931 121.057 192.931 220.587L125.171 67.4173Z" fill="#68BC8C"/>
<path d="M125.171 67.4173C125.171 67.4173 180.931 121.057 192.931 220.587" stroke="black" stroke-width="4" stroke-linecap="round" stroke-linejoin="round"/>
<path d="M229.631 216.027C223.301 200.557 200.691 204.407 209.161 183.617C209.161 183.617 201.851 159.217 178.921 170.007C165.781 176.187 141.871 161.707 133.821 143.707C125.771 125.707 90.0607 116.887 71.7107 134.527C71.7107 134.527 64.6607 140.937 46.3007 139.467C11.0107 136.647 -2.39925 151.467 3.24075 171.937C8.89075 192.407 47.0008 191.697 47.0008 191.697C47.0008 191.697 65.3508 193.107 66.7608 215.697C68.1708 238.287 99.7908 255.927 136.531 240.397C136.531 240.397 151.981 231.217 171.241 244.797C185.751 255.027 198.801 253.537 215.511 247.867C225.911 244.337 235.961 231.477 229.631 216.007V216.027Z" fill="#68BC8C" stroke="black" stroke-width="4" stroke-linecap="round" stroke-linejoin="round"/>
<path d="M44.1807 163.347C44.1807 163.347 95.7707 155.117 182.241 204.417" stroke="black" stroke-width="3" stroke-linecap="round" stroke-linejoin="round"/>
<path d="M201.401 241.827C201.401 241.827 219.751 263.697 252.221 247.817C284.691 231.937 264.931 229.827 310.801 226.997C356.681 224.177 357.391 204.477 370.091 183.617C382.801 162.767 394.791 147.937 377.851 134.527C360.911 121.117 331.971 134.527 331.971 134.527C331.971 134.527 312.911 147.937 300.211 146.877C287.501 145.817 264.921 144.407 255.741 170.527C255.741 170.527 243.031 203.567 215.511 202.867C187.981 202.167 201.391 241.807 201.391 241.807L201.401 241.827Z" fill="#68BC8C" stroke="black" stroke-width="4" stroke-linecap="round" stroke-linejoin="round"/>
<path d="M345.391 162.837C345.391 162.837 287.881 203.477 228.221 227.007L345.391 162.837Z" fill="#68BC8C"/>
<path d="M345.391 162.837C345.391 162.837 287.881 203.477 228.221 227.007" stroke="black" stroke-width="4" stroke-linecap="round" stroke-linejoin="round"/>
<path d="M239.631 6.16728C240.701 6.73729 241.721 7.35727 242.661 8.02727C257.701 18.6773 259.611 40.3273 256.611 56.6173C255.091 64.8573 253.591 74.4773 255.971 82.7273C260.601 98.7473 272.711 109.687 272.821 127.127C272.921 142.207 265.111 154.097 252.181 162.137C236.751 171.727 238.151 204.517 233.931 219.767C231.411 228.857 227.801 239.777 218.981 244.947C206.601 252.217 188.821 245.167 186.401 230.677C183.881 215.577 199.711 199.997 193.211 185.687C188.811 176.007 174.331 173.067 165.331 168.957C162.141 167.497 159.311 164.917 158.471 161.597C157.931 159.457 158.261 157.207 158.761 155.057C162.901 137.337 175.311 124.747 170.381 105.367C167.721 94.9073 164.101 84.0273 170.281 74.1173C173.661 68.7073 178.251 64.1173 182.151 59.0473C194.031 43.5873 192.551 14.7973 210.771 4.83727C219.311 0.167268 231.301 1.72728 239.641 6.15728L239.631 6.16728Z" fill="#68BC8C" stroke="black" stroke-width="4" stroke-linecap="round" stroke-linejoin="round"/>
<path d="M222.551 40.0973C222.551 40.0973 213.421 136.567 208.081 216.067L222.551 40.0973Z" fill="#68BC8C"/>
<path d="M222.551 40.0973C222.551 40.0973 213.421 136.567 208.081 216.067" stroke="black" stroke-width="4" stroke-linecap="round" stroke-linejoin="round"/>
<path d="M194.321 248.867C177.911 232.947 180.751 201.257 190.111 182.677C195.861 171.257 204.881 161.737 215.761 155.077C225.121 149.347 231.101 144.327 233.141 132.967C236.391 114.857 229.241 92.8873 251.141 84.5073C258.221 81.7973 266.261 81.9673 272.991 78.4773C282.831 73.3573 285.711 62.3573 293.481 55.2373C299.281 49.9273 306.711 45.9773 314.491 44.6273C331.041 41.7473 342.571 52.2673 342.571 68.8973C342.571 74.1073 341.281 79.3773 339.201 84.1473C334.381 95.1873 323.281 99.5873 318.421 109.997C307.841 132.667 314.901 163.627 295.981 182.537C274.811 203.707 262.101 185.357 249.401 212.887C243.391 225.907 236.851 242.407 223.741 249.927C210.831 257.327 201.071 255.417 194.331 248.877L194.321 248.867Z" fill="#68BC8C" stroke="black" stroke-width="4" stroke-linecap="round" stroke-linejoin="round"/>
<path d="M306.571 78.0673C306.571 78.0673 260.691 125.357 215.521 215.707L306.571 78.0673Z" fill="#68BC8C"/>
<path d="M306.571 78.0673C306.571 78.0673 260.691 125.357 215.521 215.707" stroke="black" stroke-width="4" stroke-linecap="round" stroke-linejoin="round"/>
</svg>
