<svg width="164" height="85" viewBox="0 0 164 85" fill="none" xmlns="http://www.w3.org/2000/svg">
<path d="M41.3571 13.8939C41.3571 13.8939 11.3771 3.74392 2.15712 43.8639C2.15712 43.8639 -1.07288 66.4639 21.7571 70.6139C21.7571 70.6139 34.8971 72.9239 41.3571 64.1539C41.3571 64.1539 43.1971 81.2139 73.1771 82.1439C103.157 83.0639 107.767 62.3139 107.767 62.3139C107.767 62.3139 122.987 77.0739 137.287 58.1639C137.287 58.1639 153.427 65.5439 159.427 51.7039C165.427 37.8639 154.817 17.1139 135.907 33.2539C135.907 33.2539 137.287 15.2639 118.847 15.2639C100.407 15.2639 97.1671 24.9539 97.1671 24.9539C97.1671 24.9539 96.7071 5.12392 75.9471 2.35392C55.1871 -0.406083 41.3571 13.8939 41.3571 13.8939Z" fill="white" stroke="black" stroke-width="4" stroke-linecap="round" stroke-linejoin="round"/>
</svg>
