<svg width="35" height="32" viewBox="0 0 35 32" fill="none" xmlns="http://www.w3.org/2000/svg">
<path d="M5.64358 10.7423C5.64358 10.7423 -0.506387 5.78235 3.17361 2.84235C6.85361 -0.0976481 10.8335 5.60236 10.8335 5.60236C10.8335 5.60236 20.9035 -0.157663 25.1835 5.20234C29.4535 10.5623 14.9535 24.9423 14.9535 24.9423C14.9535 24.9423 10.3635 30.7123 6.59353 23.3923C2.82353 16.0723 5.64358 10.7423 5.64358 10.7423Z" fill="#C19181" stroke="black" stroke-width="4" stroke-linecap="round" stroke-linejoin="round"/>
<path d="M25.7534 9.34229C24.2034 15.7623 14.9534 24.9423 14.9534 24.9423C14.9534 24.9423 14.1935 25.8923 13.0435 26.5323C13.0435 26.5323 21.5234 33.6523 31.7234 26.1323C31.7234 26.1323 34.1034 14.6023 25.7534 9.35229V9.34229Z" fill="#91665A" stroke="black" stroke-width="4" stroke-linecap="round" stroke-linejoin="round"/>
</svg>
