<svg width="35" height="32" viewBox="0 0 35 32" fill="none" xmlns="http://www.w3.org/2000/svg">
<path d="M5.64369 10.7423C5.64369 10.7423 -0.506403 5.78235 3.1736 2.84235C6.8536 -0.0976481 10.8336 5.60236 10.8336 5.60236C10.8336 5.60236 20.9036 -0.157632 25.1836 5.20237C29.4536 10.5624 14.9536 24.9424 14.9536 24.9424C14.9536 24.9424 10.3636 30.7124 6.59364 23.3924C2.82364 16.0724 5.64369 10.7423 5.64369 10.7423Z" fill="#C19181" stroke="black" stroke-width="4" stroke-linecap="round" stroke-linejoin="round"/>
<path d="M25.7438 9.34229C24.1938 15.7623 14.9437 24.9423 14.9437 24.9423C14.9437 24.9423 14.1837 25.8923 13.0337 26.5323C13.0337 26.5323 21.5137 33.6523 31.7137 26.1323C31.7137 26.1323 34.0938 14.6023 25.7438 9.35229V9.34229Z" fill="#91665A" stroke="black" stroke-width="4" stroke-linecap="round" stroke-linejoin="round"/>
</svg>
