<svg width="199" height="277" viewBox="0 0 199 277" fill="none" xmlns="http://www.w3.org/2000/svg">
<path d="M108.343 190.929C108.343 190.929 87.9331 219.509 60.0331 211.679C32.2731 203.889 30.1131 180.939 30.0931 180.719C30.3331 183.329 25.9831 186.509 24.0531 187.299C14.8531 191.069 8.32306 185.679 5.26306 176.949C1.02306 164.849 1.26317 151.289 3.99317 138.889C5.19317 133.449 6.85315 128.369 9.60315 123.529C10.0632 122.709 14.7531 114.279 16.1331 116.069C4.15306 100.499 11.6332 78.049 21.3532 63.379C26.6132 55.439 33.5431 48.609 42.1631 44.399C43.1431 43.919 54.4231 38.979 55.3431 40.549C46.3331 25.079 62.3731 13.389 75.0731 7.88898C81.6831 5.02898 88.9231 2.67898 96.1431 2.10898C102.193 1.63898 113.433 2.42898 115.703 9.72898C115.853 10.219 116.533 12.639 115.823 12.989C126.753 7.48899 142.113 1.53899 154.533 5.04899C169.663 9.32899 169.273 30.819 158.843 39.859C158.573 40.099 158.293 40.329 158.003 40.539C162.773 37.129 172.393 37.689 177.513 39.349C194.463 44.829 197.913 67.419 196.763 82.579C195.713 96.429 191.283 112.029 181.813 122.539C181.813 122.539 199.503 149.069 172.623 174.249C172.623 174.249 160.033 186.839 149.493 176.629C149.493 176.629 142.693 208.599 126.023 207.929C109.353 207.249 108.333 190.919 108.333 190.919L108.343 190.929Z" fill="#68BC8C" stroke="black" stroke-width="4" stroke-linecap="round" stroke-linejoin="round"/>
<path d="M126.193 67.7788C126.193 67.7788 129.933 73.2189 130.953 80.3689L146.603 67.7788L143.203 58.5889L126.193 67.7788Z" fill="#C19181" stroke="black" stroke-width="4" stroke-linecap="round" stroke-linejoin="round"/>
<path d="M120.753 62.679C120.753 62.679 123.753 63.1889 126.193 67.7789" stroke="black" stroke-width="4" stroke-linecap="round" stroke-linejoin="round"/>
<path d="M130.623 87.5089L130.963 80.3689" stroke="black" stroke-width="4" stroke-linecap="round" stroke-linejoin="round"/>
<path d="M108.343 190.929C108.343 190.929 94.4731 210.319 73.9731 212.769V274.959H125.003V207.869C109.333 206.569 108.343 190.929 108.343 190.929Z" fill="#C19181" stroke="black" stroke-width="4" stroke-linecap="round" stroke-linejoin="round"/>
<path d="M96.5035 240.189C96.5035 240.189 89.7435 230.559 96.5035 221.929C103.263 213.309 119.213 214.889 115.763 231.059C115.763 231.059 115.253 242.059 104.873 243.639C104.873 243.639 98.8035 244.209 96.5035 240.189Z" fill="#91665A" stroke="black" stroke-width="4" stroke-linecap="round" stroke-linejoin="round"/>
<path d="M82.2231 211.509V219.669" stroke="black" stroke-width="3" stroke-linecap="round" stroke-linejoin="round"/>
<path d="M104.173 197.049V205.219" stroke="black" stroke-width="3" stroke-linecap="round" stroke-linejoin="round"/>
<path d="M114.883 255.219V263.389" stroke="black" stroke-width="3" stroke-linecap="round" stroke-linejoin="round"/>
<path d="M86.1431 239.589V247.749" stroke="black" stroke-width="3" stroke-linecap="round" stroke-linejoin="round"/>
<path d="M99.4834 259.299V267.469" stroke="black" stroke-width="3" stroke-linecap="round" stroke-linejoin="round"/>
<path d="M58.073 45.3291L55.353 40.5591" stroke="black" stroke-width="4" stroke-linecap="round" stroke-linejoin="round"/>
<path d="M151.623 42.9489L158.843 39.8789" stroke="black" stroke-width="4" stroke-linecap="round" stroke-linejoin="round"/>
<path d="M149.503 176.639L146.603 169.839" stroke="black" stroke-width="4" stroke-linecap="round" stroke-linejoin="round"/>
<path d="M108.343 190.929L114.883 179.699" stroke="black" stroke-width="4" stroke-linecap="round" stroke-linejoin="round"/>
<path d="M30.0929 180.719L28.1328 169.839" stroke="black" stroke-width="4" stroke-linecap="round" stroke-linejoin="round"/>
<path d="M19.9731 120.509L16.1431 116.089" stroke="black" stroke-width="4" stroke-linecap="round" stroke-linejoin="round"/>
</svg>
