<svg width="50" height="79" viewBox="0 0 50 79" fill="none" xmlns="http://www.w3.org/2000/svg">
<path d="M17.9291 17.7617C17.9291 17.7617 18.7091 -3.40827 31.6891 3.32173C31.6891 3.32173 37.5791 5.95173 32.7291 18.1617C32.7291 18.1617 46.279 11.5317 46.619 21.6217C46.959 31.7117 30.8191 27.7717 30.8191 27.7717C30.8191 27.7717 35.059 45.7817 25.169 46.3417C15.279 46.8917 20.029 30.9817 20.029 30.9817C20.029 30.9817 13.239 46.2217 4.54905 40.4317C-4.14095 34.6417 13.389 25.6517 13.389 25.6517C13.389 25.6517 -0.100916 22.4017 5.20908 16.1717C10.5191 9.94172 17.919 17.7517 17.919 17.7517L17.9291 17.7617Z" fill="#FFE964" stroke="black" stroke-width="4" stroke-linecap="round" stroke-linejoin="round"/>
<path d="M25.7292 26.9917C25.2992 27.6317 24.7991 28.1517 24.2691 28.4817C17.5391 32.7117 17.2892 20.1517 23.7092 19.0417C28.4492 18.2217 27.8192 23.9217 25.7292 26.9917Z" fill="#FF8AB7"/>
<path d="M18.959 42.4717C18.959 42.4717 16.659 53.5217 26.409 72.1917" stroke="black" stroke-width="4" stroke-linecap="round" stroke-linejoin="round"/>
<path d="M26.9193 73.2416C26.9193 73.2416 23.9493 57.5916 39.5693 46.7716C39.5693 46.7716 43.8692 43.6716 45.2592 41.8516C46.6492 40.0416 48.5393 38.6516 46.8593 47.4516C45.1793 56.2516 42.2593 65.2217 32.3593 73.9017C32.3593 73.9017 31.1993 75.1017 29.4493 75.0617C27.6993 75.0117 26.9293 73.2416 26.9293 73.2416H26.9193Z" fill="#88D1B3" stroke="black" stroke-width="4" stroke-linecap="round" stroke-linejoin="round"/>
<path d="M26.5792 73.6617C23.9492 69.1817 21.3692 64.7618 17.5192 61.1118C15.5892 59.2818 13.4192 57.6718 11.0292 56.4818C8.60919 55.2718 5.99925 54.5418 3.58925 53.2618C1.79925 52.3118 1.9692 53.3317 2.0392 54.8217C2.2792 60.0717 3.55924 64.6618 6.95924 68.7618C10.4292 72.9318 15.3892 75.3218 20.7692 75.7518C20.7692 75.7518 28.8292 77.5018 26.5792 73.6718V73.6617Z" fill="#88D1B3" stroke="black" stroke-width="4" stroke-linecap="round" stroke-linejoin="round"/>
</svg>
