<svg width="45" height="88" viewBox="0 0 45 88" fill="none" xmlns="http://www.w3.org/2000/svg">
<path d="M29.0833 48.1439C29.0833 48.1439 18.8433 52.6939 12.7233 45.8639C6.60329 39.0339 6.60322 3.76389 17.2732 7.74389C17.2732 7.74389 20.5433 6.89389 20.9733 19.4039C20.9733 19.4039 25.6633 -1.3661 30.9333 2.4739C36.1933 6.3139 30.2233 28.6439 30.2233 28.6439C30.2233 28.6439 35.7732 14.9839 38.7532 16.5539C41.7432 18.1139 41.3133 43.7239 29.0833 48.1339V48.1439Z" fill="#FF83B3" stroke="black" stroke-width="4" stroke-linecap="round" stroke-linejoin="round"/>
<path d="M42.0131 55.504C41.8331 57.634 39.9132 71.034 27.6132 83.894C27.6132 83.894 26.1131 85.644 23.5631 85.434C23.5631 85.434 23.4231 85.414 23.2031 85.334C24.6031 85.014 24.493 83.384 24.493 83.384C24.493 83.384 24.143 81.464 23.243 78.414C25.513 69.834 31.1731 53.354 40.8331 54.124C40.8331 54.124 42.1231 54.194 42.0031 55.504H42.0131Z" fill="#88D1B3" stroke="black" stroke-width="4" stroke-linecap="round" stroke-linejoin="round"/>
<path d="M23.2032 85.3341C23.0232 85.3841 22.8232 85.4041 22.5932 85.3941C20.5332 85.3341 18.7731 83.8541 18.7731 83.8541C2.20315 69.5441 1.4032 53.7241 2.2032 49.6941C3.0132 45.6741 6.38313 49.6941 6.38313 49.6941C16.3931 58.9441 21.2331 71.5441 23.2531 78.4141C24.1531 81.4641 24.5031 83.3841 24.5031 83.3841C24.5031 83.3841 24.6132 85.0141 23.2132 85.3341H23.2032Z" fill="#88D1B3" stroke="black" stroke-width="4" stroke-linecap="round" stroke-linejoin="round"/>
<path d="M25.123 72.2637V49.2937C23.873 49.5337 22.4131 49.6737 20.8931 49.5937V71.6237C21.9231 74.1937 22.7031 76.5237 23.2631 78.4137C23.7331 76.6237 24.3531 74.5037 25.1331 72.2537L25.123 72.2637Z" fill="#88D1B3" stroke="black" stroke-width="4" stroke-linecap="round" stroke-linejoin="round"/>
</svg>
