<svg width="49" height="68" viewBox="0 0 49 68" fill="none" xmlns="http://www.w3.org/2000/svg">
<path d="M19.02 17.6928C19.02 17.6928 19.02 9.03278 16.27 8.48278C13.52 7.93278 9.67 19.8928 12.83 29.5128C15.99 39.1328 23.83 42.2928 30.84 37.6228C37.85 32.9528 40.46 15.7628 36.48 6.28279C36.48 6.28279 35.11 3.67279 33.18 7.24279C31.25 10.8128 28.37 18.1028 28.37 18.1028C28.37 18.1028 30.02 2.70278 26.72 2.02278C23.42 1.33278 19.02 17.6928 19.02 17.6928Z" fill="#FFD88A" stroke="black" stroke-width="4" stroke-linecap="round" stroke-linejoin="round"/>
<path d="M37.74 53.4028C37.74 53.4028 30.86 66.6528 24.98 65.9128C24.98 65.9128 23.72 66.1328 22.87 65.2528C23.28 64.8828 23.6 64.2328 23.73 63.2028C23.73 63.2028 23.61 62.5428 23.34 61.4128C24.65 57.2128 27.75 49.3828 34.53 40.4928C44.63 27.2228 45.56 27.9628 46.64 28.2928C47.72 28.6328 46.32 37.0828 37.74 53.4028Z" fill="#88D1B3" stroke="black" stroke-width="4" stroke-linecap="round" stroke-linejoin="round"/>
<path d="M23.72 63.2028C23.59 64.2328 23.27 64.8828 22.86 65.2528C21.59 66.4328 19.46 65.0428 19.46 65.0428C2.28002 53.8228 2 39.4228 2 36.5328C2 33.6428 4.34003 35.1528 4.34003 35.1528C17.3 41.4728 22.03 56.2728 23.33 61.4028C23.61 62.5328 23.72 63.1928 23.72 63.1928V63.2028Z" fill="#88D1B3" stroke="black" stroke-width="4" stroke-linecap="round" stroke-linejoin="round"/>
<path d="M25 56.8228V39.7128C24.14 39.7728 23.29 39.7128 22.46 39.5528V58.3828C22.84 59.5628 23.13 60.6028 23.33 61.3928C23.71 60.1628 24.26 58.6028 25 56.8128V56.8228Z" fill="#88D1B3" stroke="black" stroke-width="4" stroke-linecap="round" stroke-linejoin="round"/>
</svg>
