<svg width="45" height="88" viewBox="0 0 45 88" fill="none" xmlns="http://www.w3.org/2000/svg">
<path d="M29.0833 48.1441C29.0833 48.1441 18.8433 52.6942 12.7233 45.8642C6.60327 39.0342 6.60326 3.76416 17.2733 7.74416C17.2733 7.74416 20.5433 6.89417 20.9733 19.4042C20.9733 19.4042 25.6633 -1.36586 30.9333 2.47414C36.2033 6.31414 30.2233 28.6442 30.2233 28.6442C30.2233 28.6442 35.7733 14.9842 38.7533 16.5542C41.7433 18.1142 41.3133 43.7242 29.0833 48.1342V48.1441Z" fill="#FF83B3" stroke="black" stroke-width="4" stroke-linecap="round" stroke-linejoin="round"/>
<path d="M42.0131 55.5042C41.8331 57.6342 39.9131 71.0342 27.6131 83.8942C27.6131 83.8942 26.1131 85.6442 23.5631 85.4342C23.5631 85.4342 23.4231 85.4142 23.2031 85.3342C24.6031 85.0142 24.4931 83.3842 24.4931 83.3842C24.4931 83.3842 24.1431 81.4642 23.2431 78.4142C25.5131 69.8342 31.1731 53.3542 40.8331 54.1242C40.8331 54.1242 42.1231 54.1942 42.0031 55.5042H42.0131Z" fill="#88D1B3" stroke="black" stroke-width="4" stroke-linecap="round" stroke-linejoin="round"/>
<path d="M23.2032 85.3442C23.0232 85.3942 22.8232 85.4142 22.5932 85.4042C20.5332 85.3442 18.7732 83.8642 18.7732 83.8642C2.20319 69.5542 1.4032 53.7341 2.2032 49.7041C3.0132 45.6841 6.38319 49.7041 6.38319 49.7041C16.3932 58.9541 21.2332 71.5542 23.2532 78.4242C24.1532 81.4742 24.5032 83.3941 24.5032 83.3941C24.5032 83.3941 24.6132 85.0242 23.2132 85.3442H23.2032Z" fill="#88D1B3" stroke="black" stroke-width="4" stroke-linecap="round" stroke-linejoin="round"/>
<path d="M25.1133 72.264V49.2939C23.8633 49.5339 22.4033 49.6739 20.8833 49.5939V71.624C21.9133 74.194 22.6933 76.5239 23.2533 78.4139C23.7233 76.6239 24.3433 74.504 25.1233 72.254L25.1133 72.264Z" fill="#88D1B3" stroke="black" stroke-width="4" stroke-linecap="round" stroke-linejoin="round"/>
</svg>
