<svg width="56" height="45" viewBox="0 0 56 45" fill="none" xmlns="http://www.w3.org/2000/svg">
<path d="M28.2566 11.2521C28.2566 11.2521 38.1466 -2.58787 44.0766 5.32213C50.0066 13.2321 33.6966 19.1621 33.6966 19.1621C33.6966 19.1621 53.9666 17.1821 53.4666 22.1321C52.9666 27.0821 34.1866 27.5721 34.1866 27.5721C34.1866 27.5721 49.5166 41.4121 35.1766 42.4021C20.8366 43.3921 18.8666 31.5221 18.8666 31.5221C18.8666 31.5221 9.96659 40.9121 3.53659 33.9921C-2.89341 27.0721 12.9266 18.1721 12.9266 18.1721C12.9266 18.1721 -0.42341 4.82213 8.47659 2.35213C17.3766 -0.117874 28.2466 11.2521 28.2466 11.2521H28.2566Z" fill="#13A381" stroke="black" stroke-width="4" stroke-linecap="round" stroke-linejoin="round"/>
</svg>
