<svg width="136" height="43" viewBox="0 0 136 43" fill="none" xmlns="http://www.w3.org/2000/svg">
<path d="M23.4774 40.1243H114.997C114.997 40.1243 129.907 29.7243 127.827 24.5243C125.747 19.3243 110.837 31.8043 111.877 31.1143C112.917 30.4243 139.957 10.6643 131.637 3.7243C123.317 -3.2057 87.9574 23.8343 87.9574 23.8343C87.9574 23.8343 100.437 8.5843 91.0774 6.5043C81.7174 4.4243 69.9274 24.5343 69.9274 24.5343C69.9274 24.5343 77.8974 9.62428 70.9674 7.89428C64.0374 6.16428 57.4474 22.8043 57.4474 22.8043C57.4474 22.8043 58.4874 1.6543 50.1674 2.0043C41.8474 2.3543 42.8874 29.0443 42.8874 29.0443C34.2674 20.4243 19.4974 11.2143 7.28742 17.5643C5.68742 18.3943 4.1674 19.4943 3.1474 20.9843C-1.0926 27.1643 7.4574 32.4043 11.9574 34.9443C14.7674 36.5343 20.0774 40.1443 23.4674 40.1443L23.4774 40.1243Z" fill="#13A381" stroke="black" stroke-width="4" stroke-linecap="round" stroke-linejoin="round"/>
</svg>
