<svg width="176" height="79" viewBox="0 0 176 79" fill="none" xmlns="http://www.w3.org/2000/svg">
<path d="M12 35.16C12 35.16 15.33 20.39 24.23 21.17C33.13 21.95 34.11 31.93 34.11 31.93C34.11 31.93 36.16 20 44.77 20C53.38 20 52.99 33.25 52.99 33.25C52.99 33.25 56.12 20.49 66.59 20.78C77.06 21.07 77.35 37.7 77.35 37.7" stroke="black" stroke-width="4" stroke-linecap="round" stroke-linejoin="round"/>
<path d="M94.4902 59.1101C94.4902 59.1101 97.8602 46.6401 108.72 48.9901C108.72 48.9901 115.47 49.1402 117.52 57.3502C117.52 57.3502 119.28 46.6401 128.96 46.6401C138.64 46.6401 138.94 56.9102 138.94 56.9102C138.94 56.9102 141.14 48.1101 152 49.8701C162.86 51.6301 162.27 62.9301 162.27 62.9301" stroke="black" stroke-width="4" stroke-linecap="round" stroke-linejoin="round"/>
</svg>
