<svg width="551" height="225" viewBox="0 0 551 225" fill="none" xmlns="http://www.w3.org/2000/svg">
<path d="M-248 222.505H548.36C548.36 222.505 526.81 92.1748 394.42 134.245C394.42 134.245 350.29 -7.37522 245.62 2.88478C245.62 2.88478 187.12 1.85477 132.73 78.8248C132.73 78.8248 150.18 5.92478 108.1 2.35478C66.02 -1.21522 -6.84 21.3548 -85.86 107.565C-85.86 107.565 -75.6 78.8348 -93.04 65.4848C-110.49 52.1448 -175.14 70.6148 -248 222.495V222.505Z" fill="#68BC8C" stroke="black" stroke-width="4" stroke-linecap="round" stroke-linejoin="round"/>
<path d="M274.1 75.2449C274.1 75.2449 285.9 47.2849 293.34 57.7949C300.78 68.3149 288.98 79.3449 288.98 79.3449C288.98 79.3449 313.1 80.3749 312.33 88.5849C311.56 96.7949 286.93 90.3848 286.93 90.3848C286.93 90.3848 302.85 103.725 293.22 110.395C283.59 117.065 276.41 96.5449 276.41 96.5449C276.41 96.5449 277.18 121.945 267.43 118.095C257.68 114.245 265.38 88.3349 265.38 88.3349C265.38 88.3349 248.45 103.985 244.09 91.1549C239.73 78.3249 256.15 78.0749 256.15 78.0749C256.15 78.0749 235.37 55.2448 247.68 53.7048C259.99 52.1648 274.11 75.2549 274.11 75.2549L274.1 75.2449Z" fill="#FFE964" stroke="black" stroke-width="4" stroke-linecap="round" stroke-linejoin="round"/>
</svg>
