<svg width="158" height="189" viewBox="0 0 158 189" fill="none" xmlns="http://www.w3.org/2000/svg">
<mask id="mask0_2080_142" style="mask-type:alpha" maskUnits="userSpaceOnUse" x="2" y="1" width="155" height="186">
<path d="M34.4263 114.578L50.4518 86.7984L49.7309 44.8046L83.4877 1.2187L136.815 19.8061L156.039 90.9866L136.173 186.342L48.3942 170.846L38.7668 163.51L27.3114 166.207L8.31422 166.533L2.36016 140.132L15.1523 127.91L22.5825 123.782L34.4263 114.578Z" fill="#D9D9D9"/>
</mask>
<g mask="url(#mask0_2080_142)">
<path d="M11.4934 108.19C8.12202 109.888 4.24892 110.905 0.0995266 110.976C-3.48994 111.037 -6.89164 110.386 -9.97265 109.188L-9.75912 121.627L11.7177 121.258L11.4934 108.19Z" fill="#EFD0C5" stroke="black" stroke-width="4" stroke-linecap="round" stroke-linejoin="round"/>
<path d="M0.123808 112.976C-9.95471 113.149 -19.1938 108.036 -23.5512 100.07C-24.7238 100.51 -25.9597 100.761 -27.1895 100.783C-33.2686 100.887 -38.3028 96.0227 -38.4072 89.9436C-38.5116 83.8645 -33.6473 78.8302 -27.5682 78.7259C-26.0984 78.7006 -24.6636 78.966 -23.3244 79.4931C-18.9836 71.9275 -10.3261 67.0482 -0.667491 66.8824C10.0709 66.698 19.7203 72.4032 23.7214 81.1758L34.4363 83.1122C35.2489 83.2583 35.8798 83.8875 36.0435 84.6848C36.2072 85.4821 35.8513 86.3084 35.169 86.7602L25.3758 93.0692C23.618 104.281 12.9523 112.775 0.134159 112.995L0.123808 112.976Z" fill="#EFD0C5"/>
<path d="M-0.633315 68.872C9.94513 68.6904 19.0078 74.5958 22.3015 82.9405L34.0798 85.0686L23.5052 91.8811C22.356 102.422 12.3779 110.775 0.0896672 110.986C-10.2788 111.164 -19.1876 105.486 -22.6368 97.4039C-23.9827 98.2372 -25.5339 98.7639 -27.2336 98.7931C-32.2229 98.8787 -36.3318 94.8986 -36.4173 89.9194C-36.5028 84.9401 -32.5229 80.8212 -27.5436 80.7357C-25.6739 80.7036 -23.9244 81.2436 -22.4679 82.1888C-18.9888 74.5379 -10.5717 69.0527 -0.643137 68.8822M-0.701975 64.8726C-10.4605 65.0402 -19.2913 69.7324 -24.2054 77.1079C-25.3104 76.8268 -26.4528 76.6964 -27.6126 76.7163C-34.8016 76.8397 -40.5403 82.7891 -40.4171 89.968C-40.2938 97.147 -34.3443 102.896 -27.1653 102.772C-26.2655 102.757 -25.3573 102.641 -24.4807 102.436C-19.4962 110.232 -10.0703 115.151 0.148162 114.975C13.6062 114.744 24.8574 105.98 27.1765 94.2584L36.2377 88.4221C37.6225 87.5281 38.3145 85.886 37.9969 84.2812C37.6791 82.6664 36.3975 81.4183 34.7822 81.126L25.0607 79.3725C20.4865 70.4297 10.4264 64.6816 -0.711968 64.8728L-0.701975 64.8726Z" fill="black"/>
<path d="M-59.2199 93.4613C-74.5776 93.7249 -87.2305 84.3407 -87.4331 72.5425C-87.6356 60.7442 -75.3123 50.9312 -59.9545 50.6676C-52.3056 50.5363 -45.1367 52.7435 -39.775 56.8721C-38.5699 57.7416 -37.3624 58.1709 -36.1426 58.15C-35.1427 58.1328 -34.0882 57.8046 -32.9987 57.1858C-29.6775 55.4786 -25.8926 54.5635 -21.9932 54.4965C-16.1741 54.3966 -10.5299 56.34 -6.09684 59.9745C-5.68089 60.3174 -5.20805 60.4793 -4.63813 60.4695C-3.78826 60.4549 -2.95506 60.0506 -2.45132 59.6819C0.31377 57.6241 3.93417 56.4518 7.75361 56.3862C16.1224 56.2425 23.0129 61.455 23.1255 68.0141C23.2381 74.5731 16.5206 80.0192 8.16179 80.1627C4.67231 80.2226 1.24668 79.3413 -1.47245 77.6677C-1.73516 77.5122 -2.21801 77.3505 -2.71794 77.3591C-2.9979 77.3639 -3.37698 77.4204 -3.54267 77.6733C-7.09408 82.865 -13.9483 86.1731 -21.4372 86.3017C-25.7266 86.3753 -29.6213 85.5521 -32.7098 83.9148C-33.5576 83.4693 -34.506 82.9855 -35.1159 82.996C-35.2859 82.9989 -35.7459 83.0068 -36.6087 84.0118C-41.5005 89.7766 -49.9512 93.3022 -59.2099 93.4611L-59.2199 93.4613Z" fill="#FCAECC"/>
<path d="M-59.9202 52.6673C-52.5013 52.54 -45.7719 54.7748 -40.9979 58.4634C-39.4585 59.5771 -37.838 60.1794 -36.1082 60.1497C-34.7984 60.1272 -33.435 59.7337 -32.0087 58.9191C-29.1335 57.4496 -25.6883 56.5603 -21.9588 56.4963C-16.0797 56.3954 -10.9717 58.568 -7.36035 61.5264C-6.49812 62.2317 -5.54364 62.4854 -4.60377 62.4693C-3.32396 62.4473 -2.09306 61.9061 -1.25366 61.2816C1.07682 59.5413 4.25849 58.4466 7.78797 58.386C15.0669 58.261 21.0321 62.5892 21.1258 68.0484C21.2195 73.5076 15.3964 78.0383 8.12749 78.163C4.87797 78.2188 1.8933 77.3899 -0.431597 75.9596C-1.03803 75.59 -1.90236 75.3448 -2.75224 75.3594C-3.6921 75.3755 -4.62648 75.7116 -5.19232 76.5414C-8.24616 81.0045 -14.3427 84.1696 -21.4717 84.292C-25.2711 84.3572 -28.8733 83.679 -31.7801 82.1386C-33.0518 81.4704 -34.1204 80.9786 -35.1603 80.9965C-36.2001 81.0143 -37.0921 81.4897 -38.1411 82.7179C-42.6017 87.9653 -50.4355 91.3102 -59.2542 91.4616C-73.5321 91.7067 -85.2495 83.2166 -85.4334 72.5082C-85.6172 61.7998 -74.1981 52.9124 -59.9202 52.6673ZM-59.9888 48.6679C-76.4464 48.9504 -89.6542 59.6787 -89.4328 72.5768C-89.2113 85.4749 -75.6431 95.7436 -59.1855 95.461C-49.367 95.2925 -40.3608 91.4973 -35.0963 85.306C-35.0178 85.2147 -34.949 85.1435 -34.8901 85.0824C-34.6484 85.1783 -34.2754 85.352 -33.6596 85.6814C-30.2684 87.4735 -26.0421 88.3811 -21.4128 88.3016C-13.604 88.1675 -6.40067 84.8034 -2.38156 79.4736C0.629926 81.2822 4.37689 82.238 8.18633 82.1726C17.6549 82.0101 25.2469 75.6488 25.1154 67.99C24.9839 60.3311 17.1781 54.2342 7.70949 54.3967C3.48011 54.4693 -0.558019 55.7788 -3.64894 58.0822C-3.94529 58.2973 -4.38248 58.4649 -4.67243 58.4699C-4.77242 58.4716 -4.78241 58.4717 -4.82309 58.4324C-9.6214 54.4942 -15.7284 52.3887 -22.0175 52.4967C-26.2169 52.5688 -30.3005 53.559 -33.8201 55.3597C-33.8696 55.3906 -33.9291 55.4216 -33.9787 55.4425C-34.781 55.8963 -35.517 56.139 -36.1669 56.1501C-36.9368 56.1633 -37.732 55.8669 -38.6028 55.2418C-44.3189 50.8593 -51.9102 48.5192 -59.979 48.6577L-59.9888 48.6679Z" fill="black"/>
<path d="M79.5588 91.609C79.5588 91.609 49.8484 70.2858 63.3817 65.7028C63.3817 65.7028 69.169 62.583 81.1871 68.7776C81.1871 68.7776 63.3173 46.8011 76.4544 42.445C76.4544 42.445 82.0545 40.0685 87.3721 56.1996C87.3721 56.1996 84.9735 28.9168 96.1068 29.0157C107.24 29.1046 103.027 51.6703 103.027 51.6703C103.027 51.6703 109.242 24.5296 119.671 27.331C130.101 30.1324 118.493 53.6751 118.493 53.6751C118.493 53.6751 127.632 41.2764 133.132 50.5733C138.633 59.8703 116.643 90.9723 116.643 90.9723L79.5488 91.6091L79.5588 91.609Z" fill="#EFD0C5" stroke="black" stroke-width="4" stroke-linecap="round" stroke-linejoin="round"/>
<path d="M23.9597 319.347C21.6 319.387 19.3423 318.956 17.2367 318.062L10.9902 315.409C8.59234 314.39 6.05345 313.893 3.44383 313.938C0.834219 313.983 -1.98491 314.641 -4.41464 315.843L-6.16995 316.714C-9.1253 318.175 -12.4319 318.981 -15.7315 319.038C-20.3908 319.118 -24.8945 317.775 -28.7399 315.161C-31.9074 313.005 -35.6068 311.908 -39.4362 311.974C-40.906 311.999 -42.3827 312.204 -43.8065 312.579L-57.0587 316.057C-57.3276 316.122 -57.5969 316.166 -57.8669 316.171C-58.8867 316.188 -59.8443 315.755 -60.508 314.966C-61.1614 314.187 -61.4389 313.172 -61.2561 312.168L-39.6049 194.95L-69.9071 268.491L-108.538 251.871L-107.819 250.069C-105.911 245.255 -61.4089 134.315 -16.7047 126.606L-19.5017 119.813L21.3823 119.112L19.1719 124.93L44.0214 125.274L44.1114 125.272C44.1114 125.272 45.6244 125.436 47.9541 125.396C53.8832 125.295 64.8922 123.975 71.9719 116.323C76.9795 110.896 79.2163 103.116 78.6057 93.1855L78.4799 91.0973L117.984 90.4191L118.166 92.2563C118.288 93.5444 120.991 123.992 101.964 145.312C90.6107 158.039 73.9522 164.676 52.4553 165.045C48.5659 165.112 44.4729 164.972 40.2463 164.624L74.1574 312.374C74.3845 313.37 74.1524 314.415 73.5261 315.215C72.8899 316.026 71.9379 316.503 70.9181 316.52C70.5881 316.526 70.2573 316.482 69.9458 316.397L55.9509 313.317L55.8704 313.288C52.4917 312.226 49.4723 311.708 46.9027 311.752C44.743 311.789 42.8402 312.222 41.2641 313.049L35.9213 315.841C31.4902 318.147 27.5895 319.304 23.99 319.366L23.9597 319.347Z" fill="#B6B6FF"/>
<path d="M116.148 92.431C116.148 92.431 122.86 161.826 52.4008 163.036C47.8215 163.114 42.9172 162.908 37.6672 162.368L72.1945 312.808C72.3998 313.695 71.7133 314.486 70.8734 314.501C70.7334 314.503 70.5831 314.486 70.4323 314.438L56.4575 311.368C53.4308 310.42 50.0777 309.687 46.8582 309.742C44.5585 309.782 42.3257 310.22 40.3334 311.265L34.9905 314.057C31.4417 315.908 27.695 317.292 23.9455 317.357C21.9658 317.391 19.9897 317.055 18.0353 316.228L11.7888 313.575C9.11894 312.441 6.26923 311.899 3.42965 311.948C0.440089 311.999 -2.53813 312.711 -5.28541 314.058L-7.04074 314.928C-9.79767 316.296 -12.7762 316.987 -15.7558 317.038C-19.9052 317.109 -24.0562 315.92 -27.6083 313.501C-31.1298 311.111 -35.2813 309.892 -39.4607 309.964C-41.0805 309.992 -42.707 310.21 -44.3001 310.627L-57.5523 314.105C-57.6618 314.137 -57.7716 314.149 -57.8816 314.151C-58.7214 314.165 -59.4247 313.397 -59.2599 312.514L-34.1413 176.473L-70.9629 265.828L-105.946 250.777C-105.946 250.777 -58.7129 131.728 -13.8463 128.238L-16.5181 121.742L18.4767 121.142L16.2947 126.87L43.9052 127.246C43.9052 127.246 45.4884 127.419 47.9881 127.376C57.9366 127.205 82.4899 123.693 80.5935 93.0413L116.158 92.4308M119.769 88.3682L76.3255 89.114L76.5872 93.2902C77.168 102.652 75.1127 109.938 70.4881 114.948C63.9092 122.062 53.5188 123.291 47.9096 123.387C45.7199 123.424 44.3174 123.288 44.3072 123.279L44.1269 123.262L43.9369 123.265L22.0385 122.961L22.1819 122.578L24.2774 117.052L-22.4858 117.854L-20.2523 123.277L-19.4904 125.134C-38.0936 129.764 -58.4994 151.157 -80.2259 188.836C-97.5917 218.938 -109.587 249.019 -109.702 249.321L-111.14 252.936L-107.573 254.475L-72.5897 269.527L-68.8616 271.133L-67.3158 267.376L-45.0789 213.406L-63.2527 311.803C-63.5453 313.398 -63.1174 315.021 -62.0659 316.263C-61.0145 317.505 -59.4823 318.199 -57.8626 318.171C-57.4326 318.164 -57.0035 318.106 -56.5853 317.999L-43.3331 314.521C-42.0586 314.189 -40.7515 314.007 -39.4417 313.984C-36.0222 313.926 -32.7248 314.909 -29.9014 316.831C-25.7019 319.679 -20.806 321.145 -15.7268 321.058C-12.1373 320.997 -8.53176 320.125 -5.30868 318.529L-3.55336 317.659C-1.38136 316.591 1.03885 316 3.45849 315.958C5.78815 315.918 8.04605 316.36 10.182 317.273L16.4285 319.926C18.7962 320.936 21.3349 321.422 23.9645 321.377C27.884 321.31 32.0734 320.078 36.782 317.626L42.1249 314.834C43.4234 314.152 45.0175 313.795 46.8772 313.763C49.2269 313.722 52.0355 314.204 55.2133 315.21L55.3843 315.267L55.5549 315.304L69.4094 318.357C69.9017 318.488 70.3928 318.55 70.9028 318.541C72.5325 318.513 74.0398 317.757 75.0478 316.469C76.0559 315.182 76.4176 313.536 76.0504 311.952L42.7447 166.842C46.0787 167.045 49.3106 167.129 52.4302 167.076C74.4969 166.697 91.6516 159.831 103.387 146.668C122.993 124.698 120.216 93.4013 120.093 92.0832L119.74 88.4087L119.769 88.3682Z" fill="black"/>
<path d="M65.1469 123.661C65.248 131.881 58.6833 138.654 50.4645 138.795C43.2555 138.919 37.1485 133.903 35.6122 127.138L43.8754 127.257C43.8754 127.257 55.0975 128.444 65.1469 123.661Z" fill="#FFBE5F"/>
<path d="M114.315 115.556C112.394 124.26 108.683 134.105 101.627 142.568C96.6763 140.252 93.2194 135.221 93.119 129.372C92.9776 121.133 99.5616 114.319 107.8 114.178C110.13 114.138 112.319 114.63 114.315 115.566L114.315 115.556Z" fill="#ADF2F0"/>
<path d="M6.49201 90.0929C8.25906 90.0626 9.66695 88.6055 9.63661 86.8385C9.60628 85.0714 8.14921 83.6635 6.38216 83.6938C4.61511 83.7242 3.20721 85.1813 3.23754 86.9483C3.26788 88.7154 4.72496 90.1232 6.49201 90.0929Z" fill="black"/>
<path d="M1.82037 95.864C1.82037 95.864 2.2779 100.377 7.12697 100.864C11.976 101.35 14.0829 97.6538 14.0829 97.6538" stroke="black" stroke-width="2" stroke-linecap="round" stroke-linejoin="round"/>
<path d="M4.74542 178.276C12.9953 178.134 19.5684 171.332 19.4268 163.082C19.2851 154.832 12.4824 148.259 4.23253 148.4C-4.01739 148.542 -10.5904 155.345 -10.4488 163.595C-10.3072 171.844 -3.5045 178.418 4.74542 178.276Z" fill="#FFA6C2"/>
</g>
</svg>
