<svg width="271" height="371" viewBox="0 0 271 371" fill="none" xmlns="http://www.w3.org/2000/svg">
<mask id="mask0_2047_1541" style="mask-type:alpha" maskUnits="userSpaceOnUse" x="-15" y="13" width="275" height="369">
<path d="M184.002 53.5L172.502 43L158.002 19.5L124.502 13H49.0018L34.0018 46.5C42.8351 55 61.1017 72 63.5018 72H94.0018L106.502 78L103.502 94L70.5018 123.5L37.5017 177L8.50177 206.5C1.00176 220.333 -14.0983 248.5 -14.4983 250.5C-14.8983 252.5 -3.99826 275 1.50174 286L37.5017 293L58.0017 278L60.5017 293C62.1684 299.833 65.8017 313.8 67.0017 315C68.2017 316.2 42.5017 325.833 29.5017 330.5C26.1684 345.667 19.5017 376.5 19.5017 378.5C19.5017 380.5 167.502 381.333 241.502 381.5L259.002 365L237.002 326.5L208.502 231.5L176.002 134H172.502L167.502 110L151.502 98L158.002 94H167.502L184.002 53.5Z" fill="#D9D9D9"/>
</mask>
<g mask="url(#mask0_2047_1541)">
<path d="M147.182 79.2195C143.782 80.8595 139.892 81.8095 135.742 81.8095C132.152 81.8095 128.762 81.0995 125.702 79.8495V92.2895H147.182V79.2195Z" fill="#EFD0C5" stroke="black" stroke-width="4" stroke-linecap="round" stroke-linejoin="round"/>
<path d="M115.192 368.79C111.792 368.73 104.242 368.69 92.7519 368.69C73.1719 368.69 48.6219 368.79 48.3719 368.79C46.3819 368.74 36.6219 368.25 33.8119 363.97C33.1619 362.99 32.5819 361.36 33.4419 359.22C36.5619 351.46 45.6719 338.43 71.7119 338.27H125.302C126.402 338.27 127.302 339.17 127.302 340.27V352.61C127.392 353.65 127.862 360.88 123.842 365.34C121.782 367.62 118.972 368.78 115.482 368.78H115.182L115.192 368.79Z" fill="#FCAECC"/>
<path d="M125.302 340.28V352.72C125.302 352.72 126.772 366.8 115.492 366.8C115.402 366.8 115.322 366.8 115.232 366.8C111.372 366.73 102.662 366.7 92.7519 366.7C72.9419 366.7 48.3719 366.8 48.3719 366.8C48.3719 366.8 32.7419 366.37 35.3019 359.98C37.8419 353.65 45.7819 340.45 71.7319 340.29H125.312M125.302 336.28H71.7219C44.4919 336.45 34.8919 350.26 31.5819 358.48C30.6619 360.78 30.8619 363.12 32.1419 365.07C35.4119 370.05 45.3019 370.71 48.2519 370.79C48.2919 370.79 48.3219 370.79 48.3619 370.79C48.3619 370.79 48.3619 370.79 48.3719 370.79C48.6219 370.79 73.1619 370.69 92.7419 370.69C104.222 370.69 111.752 370.72 115.142 370.79C115.252 370.79 115.362 370.79 115.472 370.79C119.492 370.79 122.902 369.37 125.312 366.69C129.782 361.72 129.422 354.16 129.282 352.53V340.28C129.282 338.07 127.492 336.28 125.282 336.28H125.302Z" fill="black"/>
<path d="M161.492 368.79C158.002 368.79 155.192 367.63 153.132 365.35C149.112 360.89 149.592 353.66 149.682 352.62V340.28C149.682 339.18 150.582 338.28 151.682 338.28H205.262C225.092 338.87 238.302 346.12 243.532 359.23C244.392 361.36 243.812 362.99 243.162 363.97C240.362 368.25 230.592 368.73 228.662 368.79C228.352 368.79 203.812 368.69 184.232 368.69C172.742 368.69 165.202 368.72 161.802 368.79H161.502H161.492Z" fill="#FCAECC"/>
<path d="M205.252 340.28C231.882 341.08 239.132 353.64 241.662 359.97C244.242 366.36 228.592 366.79 228.592 366.79C228.592 366.79 204.022 366.69 184.222 366.69C174.322 366.69 165.612 366.71 161.752 366.79C161.662 366.79 161.582 366.79 161.492 366.79C150.202 366.79 151.682 352.71 151.682 352.71V340.27H205.262M205.252 336.28H151.672C149.462 336.28 147.672 338.07 147.672 340.28V352.53C147.532 354.16 147.172 361.72 151.642 366.69C154.062 369.37 157.462 370.79 161.492 370.79C161.602 370.79 161.712 370.79 161.822 370.79C165.212 370.73 172.742 370.69 184.222 370.69C203.792 370.69 228.332 370.79 228.572 370.79C228.572 370.79 228.572 370.79 228.582 370.79C228.622 370.79 228.652 370.79 228.692 370.79C228.812 370.79 231.662 370.7 234.842 370.13C239.922 369.22 243.182 367.56 244.812 365.07C246.092 363.11 246.282 360.77 245.352 358.47C239.812 344.58 225.982 336.9 205.352 336.28C205.312 336.28 205.272 336.28 205.232 336.28H205.252Z" fill="black"/>
<path d="M125.082 285.599C118.412 288.749 110.572 288.079 104.542 283.829C99.7119 280.419 93.6419 279.269 87.9019 280.679L82.8219 281.919L71.1619 339.369H133.492V282.929C131.222 283.169 128.972 283.769 126.862 284.769L125.092 285.609L125.082 285.599Z" fill="#7F7FDB" stroke="black" stroke-width="4" stroke-linecap="round" stroke-linejoin="round"/>
<path d="M172.512 282.759L167.122 285.459C161.642 288.199 155.732 289.829 150.142 287.339L143.942 284.579C143.802 284.519 143.652 284.469 143.502 284.409V339.369H205.832L194.702 284.589L188.652 283.149C183.502 281.429 177.382 280.339 172.522 282.769L172.512 282.759Z" fill="#7F7FDB" stroke="black" stroke-width="4" stroke-linecap="round" stroke-linejoin="round"/>
<path d="M55.6119 333.069L80.7919 345.449" stroke="black" stroke-width="4" stroke-linecap="round" stroke-linejoin="round"/>
<path d="M70.7519 353.049L65.6519 325.459" stroke="black" stroke-width="4" stroke-linecap="round" stroke-linejoin="round"/>
<path d="M220.612 333.759L195.432 346.139" stroke="black" stroke-width="4" stroke-linecap="round" stroke-linejoin="round"/>
<path d="M205.472 353.739L210.572 326.149" stroke="black" stroke-width="4" stroke-linecap="round" stroke-linejoin="round"/>
<path d="M135.732 83.8095C125.652 83.8095 116.502 78.5395 112.282 70.4995C111.102 70.9195 109.862 71.1495 108.632 71.1495C102.552 71.1495 97.6019 66.1995 97.6019 60.1195C97.6019 54.0395 102.552 49.0895 108.632 49.0895C110.102 49.0895 111.532 49.3795 112.862 49.9295C117.332 42.4395 126.072 37.7095 135.732 37.7095C146.472 37.7095 156.022 43.5795 159.872 52.4195L170.552 54.5395C171.362 54.6995 171.982 55.3395 172.132 56.1395C172.282 56.9395 171.912 57.7595 171.222 58.1995L161.322 64.3395C159.372 75.5195 148.562 83.8295 135.742 83.8295L135.732 83.8095Z" fill="#EFD0C5"/>
<path d="M135.732 39.6995C146.312 39.6995 155.272 45.7595 158.422 54.1595L170.162 56.4895L159.472 63.1195C158.142 73.6395 148.022 81.8194 135.732 81.8194C125.362 81.8194 116.552 75.9895 113.242 67.8495C111.882 68.6595 110.322 69.1595 108.622 69.1595C103.632 69.1595 99.5919 65.1095 99.5919 60.1295C99.5919 55.1495 103.642 51.0995 108.622 51.0995C110.492 51.0995 112.232 51.6695 113.672 52.6395C117.282 45.0494 125.792 39.7095 135.722 39.7095M135.732 35.6995C125.972 35.6995 117.062 40.2395 112.022 47.5295C110.922 47.2295 109.782 47.0795 108.622 47.0795C101.432 47.0795 95.5919 52.9295 95.5919 60.1095C95.5919 67.2895 101.442 73.1395 108.622 73.1395C109.522 73.1395 110.432 73.0395 111.312 72.8495C116.162 80.7295 125.502 85.8095 135.722 85.8095C149.182 85.8095 160.582 77.2395 163.102 65.5595L172.262 59.8795C173.662 59.0095 174.382 57.3795 174.092 55.7695C173.802 54.1495 172.542 52.8795 170.932 52.5595L161.242 50.6395C156.822 41.6194 146.862 35.6995 135.722 35.6995H135.732Z" fill="black"/>
<path d="M76.732 63.2795C61.372 63.2795 48.882 53.6795 48.882 41.8795C48.882 30.0795 61.372 20.4795 76.732 20.4795C84.382 20.4795 91.512 22.8095 96.802 27.0295C97.992 27.9195 99.192 28.3695 100.412 28.3695C101.412 28.3695 102.472 28.0595 103.572 27.4595C106.922 25.8095 110.722 24.9595 114.622 24.9595C120.442 24.9595 126.052 26.9995 130.422 30.7095C130.832 31.0595 131.302 31.2295 131.872 31.2295C132.722 31.2295 133.562 30.8395 134.072 30.4795C136.872 28.4695 140.512 27.3595 144.332 27.3595C152.702 27.3595 159.502 32.6895 159.502 39.2495C159.502 45.8095 152.692 51.1395 144.332 51.1395C140.842 51.1395 137.432 50.1995 134.742 48.4795C134.482 48.3195 134.002 48.1495 133.502 48.1495C133.222 48.1495 132.842 48.1995 132.672 48.4495C129.032 53.5795 122.122 56.7695 114.632 56.7695C110.342 56.7695 106.462 55.8795 103.402 54.1895C102.562 53.7295 101.622 53.2295 101.012 53.2295C100.842 53.2295 100.382 53.2295 99.502 54.2195C94.512 59.8995 86.002 63.2795 76.742 63.2795H76.732Z" fill="#FCAECC"/>
<path d="M76.732 22.4795C84.152 22.4795 90.842 24.8295 95.552 28.5995C97.072 29.7395 98.682 30.3695 100.412 30.3695C101.722 30.3695 103.092 29.9995 104.532 29.2095C107.432 27.7895 110.892 26.9595 114.622 26.9595C120.502 26.9595 125.572 29.2195 129.132 32.2395C129.982 32.9595 130.932 33.2295 131.872 33.2295C133.152 33.2295 134.392 32.7095 135.242 32.0995C137.602 30.3995 140.802 29.3595 144.332 29.3595C151.612 29.3595 157.502 33.7895 157.502 39.2495C157.502 44.7095 151.602 49.1395 144.332 49.1395C141.082 49.1395 138.112 48.2595 135.812 46.7895C135.212 46.4095 134.352 46.1495 133.502 46.1495C132.562 46.1495 131.622 46.4695 131.042 47.2895C127.912 51.6995 121.762 54.7595 114.632 54.7595C110.832 54.7595 107.242 54.0195 104.362 52.4295C103.102 51.7395 102.042 51.2295 101.002 51.2295C99.962 51.2295 99.062 51.6895 97.992 52.8995C93.442 58.0695 85.552 61.2795 76.732 61.2795C62.452 61.2795 50.882 52.5895 50.882 41.8795C50.882 31.1695 62.452 22.4795 76.732 22.4795ZM76.732 18.4795C60.272 18.4795 46.882 28.9795 46.882 41.8795C46.882 54.7795 60.272 65.2795 76.732 65.2795C86.552 65.2795 95.622 61.6395 100.992 55.5395C101.072 55.4495 101.142 55.3795 101.202 55.3195C101.442 55.4195 101.812 55.5995 102.422 55.9395C105.782 57.7895 109.992 58.7695 114.622 58.7695C122.432 58.7695 129.692 55.5295 133.802 50.2695C136.782 52.1295 140.512 53.1495 144.322 53.1495C153.792 53.1495 161.492 46.9195 161.492 39.2595C161.492 31.5995 153.792 25.3695 144.322 25.3695C140.092 25.3695 136.032 26.6095 132.902 28.8595C132.602 29.0695 132.162 29.2295 131.872 29.2295C131.772 29.2295 131.762 29.2295 131.722 29.1895C126.992 25.1695 120.922 22.9595 114.632 22.9595C110.432 22.9595 106.332 23.8795 102.782 25.6195C102.732 25.6495 102.672 25.6795 102.622 25.6995C101.812 26.1395 101.072 26.3695 100.422 26.3695C99.652 26.3695 98.862 26.0595 98.002 25.4195C92.362 20.9395 84.812 18.4695 76.742 18.4695L76.732 18.4795Z" fill="black"/>
<path d="M215.522 63.8095C215.522 63.8095 186.182 41.9795 199.792 37.6295C199.792 37.6295 205.632 34.6095 217.542 41.0095C217.542 41.0095 200.052 18.7295 213.262 14.5995C213.262 14.5995 218.902 12.3195 223.942 28.5395C223.942 28.5395 222.012 1.21946 233.142 1.50946C244.272 1.78946 239.672 24.2795 239.672 24.2795C239.672 24.2795 246.352 -2.75054 256.732 0.229464C267.112 3.20946 255.102 26.5495 255.102 26.5495C255.102 26.5495 264.452 14.3095 269.792 23.6995C275.132 33.0895 252.612 63.8095 252.612 63.8095H215.512H215.522Z" fill="#EFD0C5" stroke="black" stroke-width="4" stroke-linecap="round" stroke-linejoin="round"/>
<path d="M61.8819 236.909C61.8819 236.909 70.0019 258.089 62.1919 260.979C54.3819 263.869 51.0319 250.299 51.0319 250.299C51.0319 250.299 50.9219 281.319 36.8619 279.569C22.8019 277.819 36.3719 249.539 36.3719 249.539C36.3719 249.539 22.6119 280.809 15.6019 278.439C8.59194 276.069 24.5519 244.549 24.5519 244.549C24.5519 244.549 8.79194 271.519 2.89194 262.759C-3.00806 253.999 22.3519 233.419 22.3519 233.419C22.3519 233.419 2.27194 243.399 2.80194 236.149C3.34194 228.899 26.2919 220.789 26.2919 220.789L61.8819 236.909Z" fill="#EFD0C5" stroke="black" stroke-width="4" stroke-linecap="round" stroke-linejoin="round"/>
<path d="M156.022 290.559C153.662 290.559 151.412 290.089 149.322 289.159L143.122 286.399C140.742 285.339 138.212 284.799 135.602 284.799C132.992 284.799 130.162 285.409 127.712 286.569L125.942 287.409C122.962 288.819 119.642 289.569 116.342 289.569C111.682 289.569 107.202 288.149 103.402 285.469C100.272 283.259 96.5919 282.099 92.7619 282.099C91.2919 282.099 89.8119 282.279 88.3819 282.629L75.0719 285.879C74.8019 285.939 74.5319 285.979 74.2619 285.979C73.2419 285.979 72.2919 285.529 71.6419 284.729C71.0019 283.939 70.7419 282.919 70.9419 281.919L94.6019 165.089L63.0419 238.099L24.7019 220.819L25.4519 219.029C27.4419 214.249 73.8419 104.089 118.672 97.1494L115.992 90.3094H156.882L154.572 96.0894L179.412 96.8594H179.502C179.502 96.8594 181.012 97.0494 183.342 97.0494C189.272 97.0494 200.302 95.9194 207.512 88.3894C212.612 83.0494 214.982 75.3094 214.542 65.3694L214.452 63.2794H253.962L254.112 65.1194C254.212 66.4094 256.392 96.8994 237.002 117.889C225.432 130.419 208.662 136.769 187.162 136.769C183.272 136.769 179.182 136.559 174.962 136.139L206.332 284.449C206.542 285.449 206.292 286.489 205.652 287.279C205.002 288.079 204.042 288.539 203.022 288.539C202.692 288.539 202.362 288.489 202.052 288.399L188.112 285.079L188.032 285.049C184.672 283.929 181.662 283.359 179.092 283.359C176.932 283.359 175.022 283.759 173.432 284.559L168.042 287.259C163.572 289.489 159.652 290.579 156.052 290.579L156.022 290.559Z" fill="#B6B6FF"/>
<path d="M252.092 65.2594C252.092 65.2594 257.612 134.759 187.142 134.759C182.562 134.759 177.662 134.469 172.422 133.839L204.362 284.849C204.552 285.739 203.852 286.519 203.012 286.519C202.872 286.519 202.722 286.499 202.572 286.449L188.652 283.139C185.642 282.139 182.302 281.349 179.082 281.349C176.782 281.349 174.542 281.749 172.532 282.759L167.142 285.459C163.562 287.249 159.792 288.569 156.042 288.569C154.062 288.569 152.092 288.199 150.152 287.339L143.952 284.579C141.302 283.399 138.462 282.809 135.622 282.809C132.632 282.809 129.642 283.469 126.872 284.769L125.102 285.609C122.322 286.929 119.332 287.569 116.352 287.569C112.202 287.569 108.072 286.309 104.562 283.829C101.082 281.379 96.9519 280.089 92.7719 280.089C91.1519 280.089 89.5219 280.279 87.9219 280.669L74.6119 283.919C74.5019 283.949 74.3919 283.959 74.2819 283.959C73.4419 283.959 72.7519 283.179 72.9319 282.299L100.382 146.709L62.0319 235.419L27.3119 219.769C27.3119 219.769 76.5819 101.549 121.502 98.8294L118.942 92.2894H153.942L151.662 97.9794L179.262 98.8294C179.262 98.8294 180.842 99.0294 183.342 99.0294C193.292 99.0294 217.902 95.9394 216.532 65.2594H252.102M255.782 61.2594H212.332L212.522 65.4394C212.942 74.8094 210.762 82.0594 206.052 86.9894C199.352 93.9894 188.942 95.0394 183.332 95.0394C181.142 95.0394 179.742 94.8794 179.732 94.8694L179.552 94.8494H179.362L157.472 94.1694L157.622 93.7894L159.812 88.2994H113.042L115.182 93.7594L115.912 95.6294C97.2319 99.9394 76.4619 120.979 54.0919 158.279C36.2119 188.079 23.7019 217.949 23.5819 218.249L22.0819 221.839L25.6219 223.439L60.3419 239.089L64.0419 240.759L65.6519 237.029L88.8119 183.449L68.9519 281.519C68.6319 283.109 69.0319 284.739 70.0619 285.999C71.0919 287.259 72.6119 287.979 74.2319 287.979C74.6619 287.979 75.0919 287.929 75.5119 287.829L88.8219 284.579C90.1019 284.269 91.4119 284.109 92.7219 284.109C96.1419 284.109 99.4219 285.149 102.212 287.119C106.362 290.039 111.232 291.589 116.312 291.589C119.902 291.589 123.522 290.779 126.772 289.239L128.542 288.399C130.732 287.369 133.162 286.819 135.582 286.819C137.912 286.819 140.162 287.299 142.282 288.249L148.482 291.009C150.832 292.059 153.362 292.589 155.992 292.589C159.912 292.589 164.122 291.429 168.872 289.059L174.262 286.359C175.572 285.699 177.172 285.369 179.032 285.369C181.382 285.369 184.182 285.899 187.342 286.959L187.512 287.019L187.682 287.059L201.482 290.349C201.972 290.489 202.462 290.559 202.972 290.559C204.602 290.559 206.122 289.829 207.152 288.559C208.182 287.289 208.572 285.649 208.232 284.059L177.422 138.399C180.752 138.659 183.982 138.799 187.102 138.799C209.172 138.799 226.442 132.229 238.402 119.269C258.382 97.6394 256.142 66.2994 256.042 64.9794L255.752 61.2994L255.782 61.2594Z" fill="black"/>
<path d="M83.9919 184.569L72.1419 211.989C66.8219 209.699 63.1119 204.419 63.1119 198.269C63.1119 190.029 69.7919 183.329 78.0519 183.329C80.1619 183.329 82.1719 183.759 83.9819 184.569H83.9919Z" fill="#FFA6C2"/>
<path d="M67.0919 154.169C67.0919 162.309 60.5719 168.929 52.4219 169.069C56.4619 161.949 60.8619 154.659 65.5319 147.579C66.5419 149.569 67.0919 151.799 67.0919 154.159V154.169Z" fill="#ADF2F0"/>
<path d="M200.562 95.6095C200.522 103.829 193.842 110.49 185.622 110.49C178.412 110.49 172.392 105.369 170.972 98.5795L179.232 98.8395C179.232 98.8395 190.432 100.219 200.562 95.6095Z" fill="#FFBE5F"/>
<path d="M104.092 116.599C104.092 124.839 97.3919 131.539 89.1519 131.539C85.5619 131.539 82.2519 130.259 79.6719 128.149C86.4919 119.789 93.6119 112.519 100.842 107.309C102.872 109.849 104.092 113.089 104.092 116.589V116.599Z" fill="#FFE49F"/>
<path d="M92.9919 258.879C92.9919 267.139 86.2919 273.819 78.0519 273.819C76.8919 273.819 75.7619 273.679 74.6819 273.429L80.6119 244.179C87.6319 245.379 92.9919 251.489 92.9919 258.879Z" fill="#FFA6C2"/>
<path d="M249.862 88.3495C247.792 97.0195 243.912 106.799 236.712 115.139C231.802 112.739 228.432 107.649 228.432 101.799C228.432 93.5595 235.132 86.8595 243.372 86.8595C245.702 86.8595 247.882 87.3895 249.862 88.3595V88.3495Z" fill="#ADF2F0"/>
<path d="M178.902 164.479C174.012 166.899 170.682 171.949 170.682 177.789C170.682 185.769 176.952 192.3 184.852 192.69" fill="#FFBE5F"/>
<path d="M202.552 286.46L188.632 283.15C187.742 282.85 186.842 282.58 185.912 282.34C187.492 275.82 193.382 270.99 200.402 270.99C200.742 270.99 201.092 271.009 201.432 271.049L204.352 284.87C204.572 285.91 203.582 286.8 202.562 286.47L202.552 286.46Z" fill="#FFE49F"/>
<path d="M101.872 135.279L95.2919 164.569" stroke="black" stroke-width="4" stroke-linecap="round" stroke-linejoin="round"/>
<path d="M142.492 61.0394C144.259 61.0394 145.692 59.6067 145.692 57.8394C145.692 56.0721 144.259 54.6394 142.492 54.6394C140.725 54.6394 139.292 56.0721 139.292 57.8394C139.292 59.6067 140.725 61.0394 142.492 61.0394Z" fill="black"/>
<path d="M137.722 66.7295C137.722 66.7295 138.102 71.2495 142.942 71.8195C147.782 72.3895 149.952 68.7295 149.952 68.7295" stroke="black" stroke-width="2" stroke-linecap="round" stroke-linejoin="round"/>
<path d="M163.132 251.339C171.383 251.339 178.072 244.651 178.072 236.399C178.072 228.148 171.383 221.459 163.132 221.459C154.881 221.459 148.192 228.148 148.192 236.399C148.192 244.651 154.881 251.339 163.132 251.339Z" fill="#ADF2F0"/>
<path d="M109.632 207.659C117.883 207.659 124.572 200.971 124.572 192.719C124.572 184.468 117.883 177.779 109.632 177.779C101.381 177.779 94.692 184.468 94.692 192.719C94.692 200.971 101.381 207.659 109.632 207.659Z" fill="#FFE49F"/>
<path d="M139.232 149.179C147.483 149.179 154.172 142.491 154.172 134.239C154.172 125.988 147.483 119.299 139.232 119.299C130.981 119.299 124.292 125.988 124.292 134.239C124.292 142.491 130.981 149.179 139.232 149.179Z" fill="#FFA6C2"/>
</g>
</svg>
