<svg width="158" height="189" viewBox="0 0 158 189" fill="none" xmlns="http://www.w3.org/2000/svg">
<mask id="mask0_2047_1626" style="mask-type:alpha" maskUnits="userSpaceOnUse" x="2" y="1" width="155" height="186">
<path d="M34.4263 114.578L50.4518 86.7984L49.7309 44.8046L83.4877 1.2187L136.815 19.8061L156.039 90.9866L136.173 186.342L48.3942 170.846L38.7668 163.51L27.3114 166.207L8.31422 166.533L2.36016 140.132L15.1523 127.91L22.5825 123.782L34.4263 114.578Z" fill="#D9D9D9"/>
</mask>
<g mask="url(#mask0_2047_1626)">
<path d="M11.4934 108.19C8.12208 109.888 4.24898 110.904 0.0995876 110.976C-3.48988 111.037 -6.89158 110.386 -9.97258 109.188L-9.75905 121.626L11.7178 121.258L11.4934 108.19Z" fill="#EFD0C5" stroke="black" stroke-width="4" stroke-linecap="round" stroke-linejoin="round"/>
<path d="M0.123869 112.976C-9.95465 113.149 -19.1938 108.036 -23.5511 100.07C-24.7238 100.51 -25.9596 100.761 -27.1894 100.783C-33.2685 100.887 -38.3028 96.0227 -38.4071 89.9436C-38.5115 83.8645 -33.6472 78.8302 -27.5681 78.7259C-26.0983 78.7006 -24.6635 78.966 -23.3243 79.4931C-18.9835 71.9275 -10.326 67.0482 -0.66743 66.8824C10.071 66.698 19.7203 72.4032 23.7215 81.1758L34.4363 83.1122C35.249 83.2583 35.8799 83.8875 36.0436 84.6848C36.2073 85.4821 35.8514 86.3084 35.1691 86.7602L25.3759 93.0692C23.6181 104.281 12.9523 112.775 0.13422 112.995L0.123869 112.976Z" fill="#EFD0C5"/>
<path d="M-0.633254 68.872C9.94519 68.6904 19.0079 74.5958 22.3016 82.9405L34.0799 85.0686L23.5053 91.8811C22.356 102.422 12.3779 110.775 0.0897282 110.986C-10.2787 111.164 -19.1875 105.486 -22.6367 97.4039C-23.9826 98.2372 -25.5338 98.7639 -27.2336 98.7931C-32.2228 98.8787 -36.3318 94.8986 -36.4173 89.9194C-36.5027 84.9401 -32.5228 80.8212 -27.5436 80.7357C-25.6738 80.7036 -23.9243 81.2436 -22.4679 82.1888C-18.9887 74.5379 -10.5716 69.0527 -0.643076 68.8822M-0.701913 64.8726C-10.4605 65.0402 -19.2912 69.7324 -24.2054 77.1079C-25.3103 76.8268 -26.4527 76.6964 -27.6126 76.7163C-34.8015 76.8397 -40.5402 82.7891 -40.417 89.968C-40.2938 97.147 -34.3442 102.896 -27.1653 102.772C-26.2654 102.757 -25.3572 102.641 -24.4806 102.436C-19.4961 110.232 -10.0703 115.151 0.148223 114.975C13.6062 114.744 24.8575 105.98 27.1766 94.2584L36.2377 88.4221C37.6226 87.5281 38.3145 85.886 37.9969 84.2812C37.6792 82.6664 36.3976 81.4183 34.7823 81.126L25.0608 79.3725C20.4866 70.4297 10.4265 64.6816 -0.711907 64.8728L-0.701913 64.8726Z" fill="black"/>
<path d="M-59.2198 93.4613C-74.5775 93.7249 -87.2305 84.3407 -87.433 72.5425C-87.6356 60.7442 -75.3122 50.9312 -59.9545 50.6676C-52.3056 50.5363 -45.1366 52.7435 -39.775 56.8721C-38.5699 57.7416 -37.3623 58.1709 -36.1425 58.15C-35.1427 58.1328 -34.0881 57.8046 -32.9986 57.1858C-29.6774 55.4786 -25.8926 54.5635 -21.9931 54.4965C-16.174 54.3966 -10.5298 56.34 -6.09678 59.9745C-5.68083 60.3174 -5.20799 60.4793 -4.63807 60.4695C-3.7882 60.4549 -2.955 60.0506 -2.45126 59.6819C0.313831 57.6241 3.93424 56.4518 7.75367 56.3862C16.1224 56.2425 23.0129 61.455 23.1255 68.0141C23.2381 74.5731 16.5206 80.0192 8.16185 80.1627C4.67237 80.2226 1.24674 79.3413 -1.47239 77.6677C-1.7351 77.5122 -2.21795 77.3505 -2.71788 77.3591C-2.99783 77.3639 -3.37692 77.4204 -3.54261 77.6733C-7.09401 82.865 -13.9482 86.1731 -21.4371 86.3017C-25.7265 86.3753 -29.6212 85.5521 -32.7098 83.9148C-33.5575 83.4693 -34.506 82.9855 -35.1159 82.996C-35.2859 82.9989 -35.7458 83.0068 -36.6087 84.0118C-41.5004 89.7766 -49.9512 93.3022 -59.2098 93.4611L-59.2198 93.4613Z" fill="#FCAECC"/>
<path d="M-59.9201 52.6673C-52.5012 52.54 -45.7718 54.7748 -40.9978 58.4634C-39.4585 59.5771 -37.8379 60.1794 -36.1082 60.1497C-34.7983 60.1272 -33.4349 59.7337 -32.0087 58.9191C-29.1335 57.4496 -25.6882 56.5603 -21.9588 56.4963C-16.0796 56.3954 -10.9716 58.568 -7.36029 61.5264C-6.49806 62.2317 -5.54357 62.4854 -4.60371 62.4693C-3.3239 62.4473 -2.093 61.9061 -1.2536 61.2816C1.07688 59.5413 4.25855 58.4466 7.78803 58.386C15.067 58.261 21.0321 62.5892 21.1258 68.0484C21.2196 73.5076 15.3965 78.0383 8.12755 78.163C4.87803 78.2188 1.89336 77.3899 -0.431536 75.9596C-1.03797 75.59 -1.9023 75.3448 -2.75218 75.3594C-3.69204 75.3755 -4.62642 75.7116 -5.19226 76.5414C-8.2461 81.0045 -14.3427 84.1696 -21.4716 84.292C-25.271 84.3572 -28.8732 83.679 -31.7801 82.1386C-33.0517 81.4704 -34.1203 80.9786 -35.1602 80.9965C-36.2 81.0143 -37.092 81.4897 -38.1411 82.7179C-42.6017 87.9653 -50.4354 91.3102 -59.2541 91.4616C-73.532 91.7067 -85.2495 83.2166 -85.4333 72.5082C-85.6171 61.7998 -74.198 52.9124 -59.9201 52.6673ZM-59.9888 48.6679C-76.4463 48.9504 -89.6541 59.6787 -89.4327 72.5768C-89.2113 85.4749 -75.643 95.7436 -59.1854 95.461C-49.3669 95.2925 -40.3607 91.4973 -35.0962 85.306C-35.0178 85.2147 -34.949 85.1435 -34.89 85.0824C-34.6483 85.1783 -34.2753 85.352 -33.6596 85.6814C-30.2683 87.4735 -26.0421 88.3811 -21.4128 88.3016C-13.6039 88.1675 -6.40061 84.8034 -2.3815 79.4736C0.629987 81.2822 4.37695 82.238 8.18639 82.1726C17.655 82.0101 25.2469 75.6488 25.1154 67.99C24.984 60.3311 17.1782 54.2342 7.70955 54.3967C3.48017 54.4693 -0.557958 55.7788 -3.64888 58.0822C-3.94523 58.2973 -4.38242 58.4649 -4.67237 58.4699C-4.77236 58.4716 -4.78235 58.4717 -4.82303 58.4324C-9.62134 54.4942 -15.7284 52.3887 -22.0174 52.4967C-26.2168 52.5688 -30.3004 53.559 -33.82 55.3597C-33.8695 55.3906 -33.929 55.4216 -33.9786 55.4425C-34.781 55.8963 -35.5169 56.139 -36.1668 56.1501C-36.9367 56.1633 -37.7319 55.8669 -38.6028 55.2418C-44.3188 50.8593 -51.9101 48.5192 -59.9789 48.6577L-59.9888 48.6679Z" fill="black"/>
<path d="M79.5588 91.609C79.5588 91.609 49.8485 70.2858 63.3818 65.7028C63.3818 65.7028 69.1691 62.583 81.1872 68.7776C81.1872 68.7776 63.3173 46.8011 76.4545 42.445C76.4545 42.445 82.0545 40.0685 87.3722 56.1996C87.3722 56.1996 84.9735 28.9168 96.1069 29.0157C107.24 29.1046 103.027 51.6703 103.027 51.6703C103.027 51.6703 109.242 24.5296 119.671 27.331C130.101 30.1324 118.493 53.6751 118.493 53.6751C118.493 53.6751 127.632 41.2764 133.132 50.5733C138.633 59.8703 116.643 90.9723 116.643 90.9723L79.5488 91.6091L79.5588 91.609Z" fill="#EFD0C5" stroke="black" stroke-width="4" stroke-linecap="round" stroke-linejoin="round"/>
<path d="M23.9598 319.347C21.6001 319.387 19.3424 318.956 17.2367 318.062L10.9902 315.409C8.5924 314.39 6.05351 313.893 3.4439 313.938C0.83428 313.983 -1.98485 314.641 -4.41457 315.843L-6.16988 316.714C-9.12524 318.175 -12.4319 318.981 -15.7314 319.038C-20.3907 319.118 -24.8944 317.775 -28.7399 315.161C-31.9073 313.005 -35.6067 311.908 -39.4361 311.974C-40.9059 311.999 -42.3826 312.204 -43.8064 312.579L-57.0587 316.057C-57.3276 316.122 -57.5969 316.166 -57.8668 316.171C-58.8867 316.188 -59.8443 315.755 -60.5079 314.966C-61.1614 314.187 -61.4388 313.172 -61.256 312.168L-39.6049 194.95L-69.907 268.491L-108.538 251.871L-107.819 250.069C-105.911 245.255 -61.4089 134.315 -16.7046 126.606L-19.5016 119.813L21.3824 119.112L19.1719 124.93L44.0215 125.274L44.1115 125.272C44.1115 125.272 45.6245 125.436 47.9542 125.396C53.8833 125.295 64.8923 123.975 71.9719 116.323C76.9795 110.896 79.2163 103.116 78.6058 93.1855L78.4799 91.0973L117.984 90.4191L118.166 92.2563C118.288 93.5444 120.991 123.992 101.964 145.312C90.6107 158.039 73.9522 164.676 52.4554 165.045C48.566 165.112 44.473 164.972 40.2464 164.624L74.1575 312.374C74.3846 313.37 74.1525 314.415 73.5261 315.215C72.89 316.026 71.938 316.503 70.9182 316.52C70.5882 316.526 70.2574 316.482 69.9459 316.397L55.951 313.317L55.8705 313.288C52.4917 312.226 49.4724 311.708 46.9028 311.752C44.7431 311.789 42.8402 312.222 41.2642 313.049L35.9213 315.841C31.4903 318.147 27.5896 319.304 23.9901 319.366L23.9598 319.347Z" fill="#B6B6FF"/>
<path d="M116.148 92.431C116.148 92.431 122.86 161.826 52.4009 163.036C47.8215 163.114 42.9173 162.908 37.6672 162.368L72.1946 312.808C72.3999 313.695 71.7133 314.486 70.8735 314.501C70.7335 314.503 70.5832 314.486 70.4323 314.438L56.4576 311.368C53.4308 310.42 50.0778 309.687 46.8583 309.742C44.5586 309.782 42.3258 310.22 40.3334 311.265L34.9906 314.057C31.4418 315.908 27.695 317.292 23.9456 317.357C21.9659 317.391 19.9898 317.055 18.0353 316.228L11.7889 313.575C9.119 312.441 6.26929 311.899 3.42971 311.948C0.44015 311.999 -2.53807 312.711 -5.28535 314.058L-7.04068 314.928C-9.79761 316.296 -12.7762 316.987 -15.7557 317.038C-19.9051 317.109 -24.0562 315.92 -27.6082 313.501C-31.1297 311.111 -35.2813 309.892 -39.4607 309.964C-41.0804 309.992 -42.7069 310.21 -44.3 310.627L-57.5522 314.105C-57.6617 314.137 -57.7715 314.149 -57.8815 314.151C-58.7214 314.165 -59.4247 313.397 -59.2598 312.514L-34.1412 176.473L-70.9629 265.828L-105.946 250.777C-105.946 250.777 -58.7129 131.728 -13.8462 128.238L-16.5181 121.742L18.4768 121.142L16.2948 126.87L43.9053 127.246C43.9053 127.246 45.4885 127.419 47.9881 127.376C57.9367 127.205 82.49 123.693 80.5936 93.0413L116.158 92.4308M119.769 88.3682L76.3255 89.114L76.5873 93.2902C77.168 102.652 75.1128 109.938 70.4881 114.948C63.9093 122.062 53.5188 123.291 47.9096 123.387C45.72 123.424 44.3174 123.288 44.3073 123.279L44.1269 123.262L43.937 123.265L22.0385 122.961L22.182 122.578L24.2774 117.052L-22.4857 117.854L-20.2523 123.277L-19.4903 125.134C-38.0936 129.764 -58.4993 151.157 -80.2258 188.836C-97.5917 218.938 -109.587 249.019 -109.702 249.321L-111.14 252.936L-107.573 254.475L-72.5896 269.527L-68.8615 271.133L-67.3158 267.376L-45.0789 213.406L-63.2526 311.803C-63.5453 313.398 -63.1173 315.021 -62.0659 316.263C-61.0144 317.505 -59.4823 318.199 -57.8625 318.171C-57.4326 318.164 -57.0035 318.106 -56.5853 317.999L-43.333 314.521C-42.0585 314.189 -40.7515 314.007 -39.4416 313.984C-36.0222 313.926 -32.7248 314.909 -29.9014 316.831C-25.7019 319.679 -20.806 321.145 -15.7267 321.058C-12.1373 320.997 -8.5317 320.125 -5.30862 318.529L-3.5533 317.659C-1.3813 316.591 1.03891 316 3.45855 315.958C5.78821 315.918 8.04611 316.36 10.1821 317.273L16.4286 319.926C18.7962 320.936 21.335 321.422 23.9646 321.377C27.884 321.31 32.0735 320.078 36.7821 317.626L42.125 314.834C43.4234 314.152 45.0175 313.795 46.8773 313.763C49.2269 313.722 52.0356 314.204 55.2133 315.21L55.3843 315.267L55.555 315.304L69.4094 318.357C69.9018 318.488 70.3929 318.55 70.9028 318.541C72.5326 318.513 74.0398 317.757 75.0479 316.469C76.0559 315.182 76.4177 313.536 76.0505 311.952L42.7448 166.842C46.0788 167.045 49.3107 167.129 52.4302 167.076C74.497 166.697 91.6516 159.831 103.387 146.668C122.993 124.698 120.216 93.4013 120.093 92.0832L119.74 88.4087L119.769 88.3682Z" fill="black"/>
<path d="M65.1469 123.661C65.248 131.881 58.6833 138.654 50.4645 138.795C43.2556 138.919 37.1486 133.903 35.6123 127.138L43.8755 127.257C43.8755 127.257 55.0975 128.444 65.1469 123.661Z" fill="#FFBE5F"/>
<path d="M114.315 115.556C112.394 124.26 108.683 134.105 101.627 142.568C96.6764 140.252 93.2195 135.221 93.1191 129.372C92.9776 121.133 99.5616 114.319 107.8 114.178C110.13 114.138 112.319 114.63 114.315 115.566L114.315 115.556Z" fill="#ADF2F0"/>
<path d="M6.49207 90.0929C8.25912 90.0626 9.66701 88.6055 9.63667 86.8385C9.60634 85.0714 8.14927 83.6635 6.38222 83.6938C4.61517 83.7242 3.20727 85.1813 3.23761 86.9483C3.26794 88.7154 4.72502 90.1232 6.49207 90.0929Z" fill="black"/>
<path d="M1.82043 95.8639C1.82043 95.8639 2.27796 100.377 7.12704 100.864C11.9761 101.35 14.083 97.6537 14.083 97.6537" stroke="black" stroke-width="2" stroke-linecap="round" stroke-linejoin="round"/>
<path d="M4.74542 178.276C12.9953 178.134 19.5684 171.332 19.4268 163.082C19.2851 154.832 12.4824 148.259 4.23253 148.4C-4.01739 148.542 -10.5904 155.345 -10.4488 163.595C-10.3072 171.844 -3.5045 178.418 4.74542 178.276Z" fill="#FFA6C2"/>
<path d="M85.6797 39.7633C85.7297 38.0733 78.6397 38.6033 77.4597 38.7233C69.6097 39.5133 63.2897 45.3033 62.1697 53.1533C60.9397 61.8033 66.5397 71.0433 74.3497 74.8233C78.4897 76.8333 83.3297 76.1733 87.7997 74.6833C96.9897 71.6233 97.6297 65.9233 97.7997 66.0133C97.7997 66.0133 110.54 73.2333 118.82 58.7433C123.04 51.3433 122.59 41.6733 118.15 34.4533C114.12 27.8933 106.74 23.9133 99.0697 25.4333C92.0597 26.8233 85.9097 32.3033 85.6797 39.7533L85.6797 39.7633Z" fill="#FF6C7E" stroke="black" stroke-width="4" stroke-linecap="round" stroke-linejoin="round"/>
<path d="M69.3097 26.0433C69.3097 26.0433 74.1997 19.3733 85.6797 39.7633" stroke="black" stroke-width="4" stroke-linecap="round" stroke-linejoin="round"/>
</g>
</svg>
