<svg width="93" height="123" viewBox="0 0 93 123" fill="none" xmlns="http://www.w3.org/2000/svg">
<path d="M59.897 38.1962C59.897 38.1962 59.897 2.81617 39.747 2.81617C39.747 2.81617 32.377 2.32617 31.887 12.8862C31.397 23.4462 42.447 43.3462 42.447 43.3462C42.447 43.3462 24.017 52.4362 33.357 71.3562C33.357 71.3562 15.177 85.3562 20.827 108.946C20.827 108.946 22.687 120.986 39.817 120.986H87.897C93.527 120.986 88.917 114.036 85.447 110.666C85.447 110.666 89.747 104.456 81.967 99.5262C81.967 99.5262 83.727 90.5262 72.177 77.7462C72.177 77.7462 87.407 76.7662 88.637 65.2162C90.187 50.6862 74.897 43.3662 74.877 43.3462C74.877 43.3462 79.137 38.9162 82.497 32.5362C86.167 25.5562 90.807 11.2062 85.367 4.15616C80.047 -2.73384 70.077 8.72616 67.257 12.8762C60.387 22.9562 59.967 37.6262 59.897 38.1862V38.1962Z" fill="#FFDCEA" stroke="black" stroke-width="4" stroke-linecap="round" stroke-linejoin="round"/>
<path d="M43.437 73.3262C43.437 73.3262 56.707 78.7262 72.177 77.7462" stroke="black" stroke-width="4" stroke-linecap="round" stroke-linejoin="round"/>
<path d="M37.5371 83.6463C37.5371 83.6463 59.1571 80.2063 67.2671 103.546C67.2671 103.546 76.8871 101.636 85.4471 110.666" stroke="black" stroke-width="4" stroke-linecap="round" stroke-linejoin="round"/>
<path d="M19.747 97.0661C19.747 97.0661 9.66704 89.7161 4.99704 93.6461C0.327038 97.5761 -2.21296 117.006 23.587 114.556C23.587 114.556 18.627 107.726 19.757 97.0661H19.747Z" fill="#FFDCEA" stroke="black" stroke-width="4" stroke-linecap="round" stroke-linejoin="round"/>
<path d="M83.867 68.2963C88.2466 68.2963 91.797 64.7459 91.797 60.3663C91.797 55.9867 88.2466 52.4363 83.867 52.4363C79.4874 52.4363 75.937 55.9867 75.937 60.3663C75.937 64.7459 79.4874 68.2963 83.867 68.2963Z" fill="black"/>
<path d="M56.2069 58.7662C58.1896 58.7662 59.7969 57.1589 59.7969 55.1762C59.7969 53.1935 58.1896 51.5862 56.2069 51.5862C54.2242 51.5862 52.6169 53.1935 52.6169 55.1762C52.6169 57.1589 54.2242 58.7662 56.2069 58.7662Z" fill="black"/>
<path d="M41.7171 12.1563C41.7171 12.1563 39.7471 13.3863 41.7171 20.0163C43.6871 26.6463 48.3471 40.1663 50.8071 39.9163C53.2671 39.6663 52.5271 32.5463 49.0871 20.5063C49.0871 20.5063 44.6671 8.46627 41.7171 12.1563Z" fill="black"/>
<path d="M67.6671 35.7463C67.6971 36.5063 67.9371 38.4663 69.1271 38.1663C70.1271 37.9163 71.1771 36.5763 71.8371 35.8463C72.6771 34.9063 73.4271 33.8762 74.0971 32.8062C75.4171 30.6862 76.4271 28.3962 77.2771 26.0562C77.9471 24.2362 81.5971 14.1663 78.2271 13.2063C76.6671 12.7563 73.0971 17.4862 70.6371 25.0562C69.5771 28.3162 68.1771 31.6763 67.6871 35.0863C67.6571 35.2963 67.6471 35.5263 67.6571 35.7563L67.6671 35.7463Z" fill="black"/>
</svg>
