<svg width="157" height="99" viewBox="0 0 157 99" fill="none" xmlns="http://www.w3.org/2000/svg">
<path d="M44.1094 34.5769C44.1094 34.5769 29.4994 31.4969 26.0394 44.1869C22.5794 56.8769 32.9594 62.2569 39.4994 61.4869C39.4994 61.4869 54.1094 91.4769 64.0994 89.5469C74.0994 87.6269 65.4495 78.6869 65.4495 78.6869C65.4495 78.6869 71.0194 91.4669 81.3994 92.2369C91.7794 93.0069 81.5595 77.5369 81.5595 77.5369C81.5595 77.5369 91.3994 96.8569 100.239 94.1669C109.079 91.4769 97.6694 78.1369 97.6694 78.1369C97.6694 78.1369 101.009 87.6269 109.469 85.3269C117.929 83.0169 103.699 66.1069 103.699 66.1069C103.699 66.1069 147.779 86.7769 149.699 78.3169C151.619 69.8569 132.909 64.3269 132.909 64.3269C132.909 64.3269 151.349 69.0069 151.489 57.6569C151.619 47.4469 127.909 51.8869 127.909 51.8869C127.909 51.8869 151.359 43.8169 147.519 37.2769C143.679 30.7369 103.309 43.8169 103.309 43.8169C103.309 43.8169 123.339 37.2069 120.099 29.5969C117.149 22.6769 105.519 28.7169 105.519 28.7169C105.519 28.7169 121.379 21.9069 117.919 14.6069C114.459 7.30693 95.8994 19.8769 95.8994 19.8769C95.8994 19.8769 109.459 12.6869 105.229 6.91693C100.999 1.14693 79.8794 15.0169 79.8794 15.0169C79.8794 15.0169 87.5494 11.6769 84.4694 5.83693C81.3894 -0.00306833 59.0994 7.68693 44.0994 34.5969L44.1094 34.5769Z" fill="#ACE59A" stroke="black" stroke-width="4" stroke-linecap="round" stroke-linejoin="round"/>
<path d="M41.0795 47.6269C42.5651 47.6269 43.7694 46.4226 43.7694 44.9369C43.7694 43.4513 42.5651 42.2469 41.0795 42.2469C39.5938 42.2469 38.3894 43.4513 38.3894 44.9369C38.3894 46.4226 39.5938 47.6269 41.0795 47.6269Z" fill="black"/>
<path d="M68.8394 25.7769L62.0494 31.9269" stroke="black" stroke-width="3" stroke-linecap="round" stroke-linejoin="round"/>
<path d="M81.5594 31.4969L75.0994 36.4669" stroke="black" stroke-width="3" stroke-linecap="round" stroke-linejoin="round"/>
<path d="M91.3295 38.6769L84.6294 42.6369" stroke="black" stroke-width="3" stroke-linecap="round" stroke-linejoin="round"/>
<path d="M59.8994 67.3069L55.8894 60.1669" stroke="black" stroke-width="3" stroke-linecap="round" stroke-linejoin="round"/>
<path d="M76.5795 64.5069L71.5194 57.0769" stroke="black" stroke-width="3" stroke-linecap="round" stroke-linejoin="round"/>
<path d="M90.9094 64.5069L86.5494 57.0769" stroke="black" stroke-width="3" stroke-linecap="round" stroke-linejoin="round"/>
<path d="M27.7594 40.2069C27.7594 40.2069 5.78938 43.0169 5.01938 44.9369C4.24938 46.8569 26.6794 55.5869 26.6794 55.5869C26.6794 55.5869 23.2794 49.1769 27.7594 40.2069Z" fill="#FFF985" stroke="black" stroke-width="4" stroke-linecap="round" stroke-linejoin="round"/>
</svg>
