<svg width="150" height="97" viewBox="0 0 150 97" fill="none" xmlns="http://www.w3.org/2000/svg">
<path d="M40.6118 34.5769C40.6118 34.5769 26.0019 31.4969 22.5419 44.1869C19.0819 56.8769 29.4618 62.2569 36.0018 61.4869C36.0018 61.4869 50.6118 91.4769 60.6018 89.5469C70.6018 87.6269 61.9519 78.6869 61.9519 78.6869C61.9519 78.6869 67.5219 91.4669 77.9019 92.2369C88.2819 93.0069 78.0619 77.5369 78.0619 77.5369C78.0619 77.5369 87.9018 96.8569 96.7418 94.1669C105.582 91.4769 94.1719 78.1369 94.1719 78.1369C94.1719 78.1369 97.5118 87.6269 105.972 85.3269C114.432 83.0169 100.202 66.1069 100.202 66.1069C100.202 66.1069 144.282 86.7769 146.202 78.3169C148.122 69.8569 129.412 64.3269 129.412 64.3269C129.412 64.3269 147.852 69.0069 147.992 57.6569C148.122 47.4469 124.412 51.8869 124.412 51.8869C124.412 51.8869 147.862 43.8169 144.022 37.2769C140.182 30.7369 99.8119 43.8169 99.8119 43.8169C99.8119 43.8169 119.842 37.2069 116.602 29.5969C113.652 22.6769 102.022 28.7169 102.022 28.7169C102.022 28.7169 117.882 21.9069 114.422 14.6069C110.962 7.30693 92.4019 19.8769 92.4019 19.8769C92.4019 19.8769 105.962 12.6869 101.732 6.91693C97.5018 1.14693 76.3818 15.0169 76.3818 15.0169C76.3818 15.0169 84.0518 11.6769 80.9718 5.83693C77.8918 -0.00306833 55.6018 7.68693 40.6018 34.5969L40.6118 34.5769Z" fill="#ACE59A" stroke="black" stroke-width="4" stroke-linecap="round" stroke-linejoin="round"/>
<path d="M37.5819 47.6269C39.0676 47.6269 40.2719 46.4226 40.2719 44.9369C40.2719 43.4513 39.0676 42.2469 37.5819 42.2469C36.0963 42.2469 34.8918 43.4513 34.8918 44.9369C34.8918 46.4226 36.0963 47.6269 37.5819 47.6269Z" fill="black"/>
<path d="M65.3418 25.7769L58.5519 31.9269" stroke="black" stroke-width="3" stroke-linecap="round" stroke-linejoin="round"/>
<path d="M78.0619 31.4969L71.6018 36.4669" stroke="black" stroke-width="3" stroke-linecap="round" stroke-linejoin="round"/>
<path d="M87.8319 38.6769L81.1318 42.6369" stroke="black" stroke-width="3" stroke-linecap="round" stroke-linejoin="round"/>
<path d="M56.4019 67.3069L52.3918 60.1669" stroke="black" stroke-width="3" stroke-linecap="round" stroke-linejoin="round"/>
<path d="M73.0819 64.5069L68.0219 57.0769" stroke="black" stroke-width="3" stroke-linecap="round" stroke-linejoin="round"/>
<path d="M87.4119 64.5069L83.0519 57.0769" stroke="black" stroke-width="3" stroke-linecap="round" stroke-linejoin="round"/>
<path d="M24.2618 40.2069C24.2618 40.2069 2.29182 43.0169 1.52182 44.9369C0.751822 46.8569 23.1819 55.5869 23.1819 55.5869C23.1819 55.5869 19.7818 49.1769 24.2618 40.2069Z" fill="#FFF985" stroke="black" stroke-width="3" stroke-linecap="round" stroke-linejoin="round"/>
</svg>
