<svg width="150" height="94" viewBox="0 0 150 94" fill="none" xmlns="http://www.w3.org/2000/svg">
<path d="M40.6117 31.5769C40.6117 31.5769 26.0018 28.4969 22.5418 41.1869C19.0818 53.8769 29.4617 59.2569 36.0017 58.4869C36.0017 58.4869 50.6117 88.4769 60.6017 86.5469C70.6017 84.6269 61.9518 75.6869 61.9518 75.6869C61.9518 75.6869 67.5217 88.4669 77.9017 89.2369C88.2817 90.0069 78.0618 74.5369 78.0618 74.5369C78.0618 74.5369 87.9017 93.8569 96.7417 91.1669C105.582 88.4769 94.1718 75.1369 94.1718 75.1369C94.1718 75.1369 97.5117 84.6269 105.972 82.3269C114.432 80.0169 100.202 63.1069 100.202 63.1069C100.202 63.1069 144.282 83.7769 146.202 75.3169C148.122 66.8569 129.412 61.3269 129.412 61.3269C129.412 61.3269 147.852 66.0069 147.992 54.6569C148.122 44.4469 124.412 48.8869 124.412 48.8869C124.412 48.8869 147.862 40.8169 144.022 34.2769C140.182 27.7369 99.8118 40.8169 99.8118 40.8169C99.8118 40.8169 119.842 34.2069 116.602 26.5969C113.652 19.6769 102.022 25.7169 102.022 25.7169C102.022 25.7169 117.882 18.9069 114.422 11.6069C110.962 4.30693 92.4017 16.8769 92.4017 16.8769C92.4017 16.8769 105.962 9.68693 101.732 3.91693C97.5017 -1.85307 76.3817 12.0169 76.3817 12.0169C76.3817 12.0169 84.0517 8.67693 80.9717 2.83693C77.8917 -3.00307 55.6017 4.68693 40.6017 31.5969L40.6117 31.5769Z" fill="#ACE59A" stroke="black" stroke-width="4" stroke-linecap="round" stroke-linejoin="round"/>
<path d="M37.5819 44.6268C39.0676 44.6268 40.2719 43.4225 40.2719 41.9368C40.2719 40.4512 39.0676 39.2468 37.5819 39.2468C36.0963 39.2468 34.8918 40.4512 34.8918 41.9368C34.8918 43.4225 36.0963 44.6268 37.5819 44.6268Z" fill="black"/>
<path d="M65.3417 22.7769L58.5518 28.9269" stroke="black" stroke-width="3" stroke-linecap="round" stroke-linejoin="round"/>
<path d="M78.0621 28.4968L71.6021 33.4668" stroke="black" stroke-width="3" stroke-linecap="round" stroke-linejoin="round"/>
<path d="M87.8319 35.677L81.1318 39.637" stroke="black" stroke-width="3" stroke-linecap="round" stroke-linejoin="round"/>
<path d="M56.4019 64.307L52.3918 57.167" stroke="black" stroke-width="3" stroke-linecap="round" stroke-linejoin="round"/>
<path d="M73.082 61.5069L68.022 54.0769" stroke="black" stroke-width="3" stroke-linecap="round" stroke-linejoin="round"/>
<path d="M87.4117 61.5069L83.0518 54.0769" stroke="black" stroke-width="3" stroke-linecap="round" stroke-linejoin="round"/>
<path d="M24.2618 37.207C24.2618 37.207 2.29182 40.017 1.52182 41.937C0.751822 43.857 23.1819 52.587 23.1819 52.587C23.1819 52.587 19.7818 46.177 24.2618 37.207Z" fill="#FFF985" stroke="black" stroke-width="3" stroke-linecap="round" stroke-linejoin="round"/>
</svg>
