<svg width="161" height="109" viewBox="0 0 161 109" fill="none" xmlns="http://www.w3.org/2000/svg">
<path d="M70.0133 41.1013C69.8033 41.3513 69.0232 42.1913 68.0332 43.0213C68.9932 42.0213 69.7633 41.3113 70.0133 41.1013Z" fill="#68BC8C" stroke="black" stroke-width="4" stroke-linecap="round" stroke-linejoin="round"/>
<path d="M78.8135 27.4912L78.4635 27.5212L77.8735 27.5712C78.1135 27.5112 78.3035 27.4912 78.4435 27.4812C78.6835 27.4612 78.8035 27.4912 78.8035 27.4912H78.8135Z" fill="#68BC8C" stroke="black" stroke-width="4" stroke-linecap="round" stroke-linejoin="round"/>
<path d="M80.4734 28.0012C79.9534 27.7412 79.4034 27.5812 78.8234 27.4912L78.4734 27.5212L77.8835 27.5712H77.8534C76.1634 27.9912 72.1335 29.9212 64.8635 38.5012C64.8635 38.5012 61.5034 42.1012 63.4534 44.2512C64.5534 45.4712 66.5134 44.2912 68.0234 43.0412C65.7334 45.4012 62.3434 49.4312 61.7034 53.0012C61.5734 53.7512 61.5334 54.3212 61.5934 54.7412C61.8634 57.2712 64.9034 54.5612 65.1834 54.3212C64.7134 55.2712 54.1834 76.7012 63.1034 69.6212C63.1034 69.6212 58.7834 88.8412 64.0234 84.3312C64.0234 84.3312 65.4535 107.081 69.1235 99.2412C69.1235 99.2412 69.0935 107.261 72.3735 106.991C72.3735 106.991 74.1335 107.181 74.5135 103.351C74.5135 103.351 77.8835 104.051 78.5135 91.2912C78.5135 91.2912 82.1934 92.6512 82.6534 81.0012C82.6534 81.0012 86.7035 84.9212 86.6435 71.6712C86.6435 71.6712 86.5934 69.2512 86.0334 64.6712C86.0334 64.6712 89.5534 66.6212 85.2134 50.6912C85.2134 50.6912 88.0135 53.1412 88.4935 49.1312C88.5135 48.9212 88.5334 48.6912 88.5434 48.4512C88.7634 43.9012 86.4334 30.8812 80.4634 28.0112L80.4734 28.0012ZM68.0334 43.0212C68.2434 42.8012 68.4435 42.6012 68.6435 42.4012C68.9335 42.1212 69.1834 41.8712 69.4034 41.6712C69.4734 41.6112 69.5434 41.5412 69.5934 41.4912C69.7134 41.3612 69.8234 41.2712 69.9134 41.2112C69.6234 41.5512 68.9034 42.2912 68.0434 43.0212H68.0334Z" fill="#68BC8C" stroke="black" stroke-width="4" stroke-linecap="round" stroke-linejoin="round"/>
<path d="M70.0133 41.1013C69.8033 41.3513 69.0232 42.1913 68.0332 43.0213C68.9932 42.0213 69.7633 41.3113 70.0133 41.1013Z" fill="#68BC8C" stroke="black" stroke-width="4" stroke-linecap="round" stroke-linejoin="round"/>
<path d="M78.4632 27.4812C78.3132 27.4812 78.1333 27.5112 77.8933 27.5712H77.8632C76.1732 27.9912 72.1432 29.9212 64.8732 38.5012C64.8732 38.5012 61.5132 42.1012 63.4632 44.2512C64.5632 45.4712 66.5231 44.2912 68.0331 43.0412C65.7431 45.4012 62.3532 49.4312 61.7132 53.0012C61.5832 53.7512 61.5432 54.3212 61.6032 54.7412C60.6532 55.6912 59.8832 56.2112 59.3532 56.1212C57.4432 55.8012 57.3732 53.4112 57.7432 51.2512C56.3332 56.3412 53.6433 64.9012 51.6433 64.7812C49.0433 64.6212 49.5232 61.9712 49.6132 61.5412C40.5832 88.1212 35.3032 81.0112 35.3032 81.0112C35.3032 81.0112 31.0032 96.0112 25.4832 95.8212C20.3232 95.6412 26.0532 83.4412 26.8332 81.8412C26.2832 82.7912 23.4832 87.2512 21.3632 83.0612C19.4232 79.2112 23.9332 72.0112 25.5732 69.6512C23.9932 71.5512 22.2432 71.1012 22.2432 71.1012C19.8432 67.1412 28.8732 58.6512 29.8732 57.7212C25.8832 60.9512 24.2432 59.0312 24.2432 59.0312C23.5932 54.1512 35.0432 47.6412 37.8132 46.1312C36.8932 46.5412 35.0232 47.0312 33.0632 45.6212C30.2932 43.6312 42.1531 38.0512 42.1531 38.0512C35.4931 38.2712 52.1932 28.4412 53.6132 27.6312C53.6832 27.5912 53.7132 27.5712 53.7132 27.5712C51.3332 27.9512 52.7632 23.2812 64.6332 21.9512C73.9332 20.9212 77.3832 25.4812 78.4632 27.5112V27.4812Z" fill="#68BC8C" stroke="black" stroke-width="4" stroke-linecap="round" stroke-linejoin="round"/>
<path d="M78.4733 27.5212L77.8833 27.5712C78.1233 27.5112 78.3132 27.4912 78.4532 27.4812C78.4532 27.4912 78.4533 27.5112 78.4633 27.5212H78.4733Z" fill="#68BC8C" stroke="black" stroke-width="4" stroke-linecap="round" stroke-linejoin="round"/>
<path d="M135.943 83.3312C132.933 84.0512 127.033 73.8811 127.033 73.8811C127.033 73.8811 122.683 76.0911 116.793 64.5911C116.793 64.5911 109.873 66.6511 103.063 57.1311C103.423 57.7311 104.573 59.9812 101.653 59.8012C98.2833 59.6212 91.9233 49.6811 91.9233 49.6811C91.9233 49.6811 91.1734 52.2012 88.5034 49.1112C88.5234 48.9012 88.5433 48.6711 88.5533 48.4311C88.7733 43.8811 86.4434 30.8612 80.4734 27.9912V27.5911C80.4734 27.5911 80.6833 27.2912 81.1533 26.8612C83.0833 25.0812 89.2533 20.9811 100.533 27.1311C100.533 27.1311 116.233 32.2511 119.793 37.7811C119.793 37.7811 119.853 38.1011 119.753 38.4611C119.553 39.2011 118.703 40.0412 115.243 38.2412C116.083 38.7612 124.013 43.7512 120.803 45.1112C120.803 45.1112 129.973 52.0811 127.733 56.7111C127.733 56.7111 137.153 64.0411 134.883 67.4711C134.883 67.4711 139.433 74.9811 134.883 76.1511C134.883 76.1511 138.933 82.6012 135.923 83.3312H135.943Z" fill="#68BC8C" stroke="black" stroke-width="4" stroke-linecap="round" stroke-linejoin="round"/>
<path d="M157.373 49.4112C152.393 52.2412 145.514 45.8412 145.514 45.8412C145.514 45.8412 143.363 53.0312 130.173 37.9012C130.173 37.9012 129.624 41.8112 119.764 38.4612C119.854 38.1012 119.803 37.7812 119.803 37.7812C116.233 32.2512 100.543 27.1312 100.543 27.1312C89.2634 20.9812 83.0934 25.0812 81.1634 26.8612C80.7234 26.6512 80.2634 26.4312 79.8034 26.2212C79.8034 26.2212 77.7135 18.4212 84.9735 13.4712C91.4535 9.05122 99.4334 7.17123 107.183 6.82123C111.053 6.64123 114.944 6.85123 118.764 7.42123C121.414 7.82123 126.894 8.52123 128.144 11.3212C129.044 13.3012 124.653 12.3812 123.443 12.1512C124.553 12.4112 134.023 14.8512 132.233 19.8512C132.233 19.8512 146.313 27.5912 140.603 28.3312C140.603 28.3312 154.734 34.6612 152.254 38.0412C152.254 38.0412 162.364 46.5912 157.384 49.4212L157.373 49.4112Z" fill="#68BC8C" stroke="black" stroke-width="4" stroke-linecap="round" stroke-linejoin="round"/>
<path d="M79.2434 24.6912C79.2434 24.8912 79.0533 27.4712 78.8133 27.4912L78.4634 27.5212L77.8734 27.5712C78.1134 27.5112 78.3034 27.4912 78.4434 27.4812C77.3734 25.4512 73.9234 20.8912 64.6134 21.9212C52.7434 23.2512 51.3133 27.9212 53.6933 27.5412C53.6933 27.5412 53.6634 27.5712 53.5934 27.6012L52.2833 27.4912C38.5733 31.5012 38.8834 27.4112 38.8834 27.4112C28.7434 35.3412 27.7534 29.8712 27.7534 29.8712C18.7634 36.9012 18.0734 31.5912 18.0734 31.5912C18.0734 31.5912 5.32339 40.2912 2.36339 34.3512C-0.586607 28.4212 15.3934 24.3912 15.3934 24.3912C7.60342 19.3012 23.0934 16.2912 23.0934 16.2912C15.4834 10.9012 40.1034 10.0312 40.1034 10.0312C48.6434 4.25119 54.9834 6.64119 57.0034 7.69119C55.9034 6.97119 54.8434 5.96119 54.7334 4.62119C54.6534 3.61119 55.1434 2.60119 56.1034 2.19119C56.6934 1.93119 57.3833 1.98121 58.0233 2.08121C66.4833 3.42121 75.9734 9.36119 78.5034 17.9112C79.1534 20.1012 79.3834 22.4012 79.2234 24.6812L79.2434 24.6912Z" fill="#68BC8C" stroke="black" stroke-width="4" stroke-linecap="round" stroke-linejoin="round"/>
</svg>
