<svg width="85" height="72" viewBox="0 0 85 72" fill="none" xmlns="http://www.w3.org/2000/svg">
<path d="M36.922 51.9679C36.922 51.9679 20.872 68.6679 9.41196 63.9479C-2.04804 59.2279 20.282 52.6179 20.282 52.6179C20.282 52.6179 3.84196 51.3079 6.33196 45.8679C8.82196 40.4279 31.412 38.7279 36.912 51.9579L36.922 51.9679Z" fill="#68BC8C" stroke="black" stroke-width="4" stroke-linecap="round" stroke-linejoin="round"/>
<path d="M37.1821 51.568C37.1821 51.568 51.9221 48.878 60.4921 59.558C60.4921 59.558 63.9621 63.418 60.8821 65.648C57.8021 67.878 50.5321 61.848 50.5321 61.848C50.5321 61.848 58.7221 68.328 53.7421 69.768C48.7621 71.208 37.1721 51.558 37.1721 51.558L37.1821 51.568Z" fill="#68BC8C" stroke="black" stroke-width="4" stroke-linecap="round" stroke-linejoin="round"/>
<path d="M36.792 50.918C36.792 50.918 50.222 29.238 58.342 25.578C66.462 21.918 69.282 24.788 70.192 26.098C71.102 27.408 70.982 33.628 61.682 37.818C61.682 37.818 77.272 29.308 81.072 33.758C84.872 38.208 86.642 57.138 36.802 50.918H36.792Z" fill="#68BC8C" stroke="black" stroke-width="4" stroke-linecap="round" stroke-linejoin="round"/>
<path d="M36.272 49.0381C36.272 49.0381 38.692 19.7281 42.972 10.5481C47.252 1.36813 53.102 0.118133 54.552 4.25813C56.002 8.40813 50.812 17.8781 50.812 17.8781C50.812 17.8781 60.992 1.02813 67.112 3.82813C73.232 6.63813 36.262 49.0281 36.262 49.0281L36.272 49.0381Z" fill="#68BC8C" stroke="black" stroke-width="4" stroke-linecap="round" stroke-linejoin="round"/>
<path d="M37.0821 49.6481C37.0821 49.6481 35.6121 12.3381 23.3021 10.3781C10.9921 8.4181 12.4321 20.7281 20.5521 29.2381C20.5521 29.2381 6.24207 14.7581 2.47207 24.1281C-2.10793 35.5281 27.9221 39.3081 37.0721 49.6481H37.0821Z" fill="#68BC8C" stroke="black" stroke-width="4" stroke-linecap="round" stroke-linejoin="round"/>
</svg>
