<svg width="68" height="54" viewBox="0 0 68 54" fill="none" xmlns="http://www.w3.org/2000/svg">
<path d="M34.22 21.1012C34.22 21.1012 33.14 11.3512 15.19 13.6312C15.19 13.6312 2.90995 17.1212 2.17995 25.7912C2.17995 25.7912 1.46005 27.9612 2.90005 28.8012C4.34005 29.6412 17.59 40.3612 33.61 23.9812C33.61 23.9812 34.93 23.2612 34.21 21.0912L34.22 21.1012Z" fill="#4FAF86" stroke="black" stroke-width="4" stroke-miterlimit="10"/>
<path d="M35.6698 21.581C35.6698 21.581 42.7799 -2.62903 62.8899 2.79097C62.8899 2.79097 65.0598 3.51097 65.0598 4.60097C65.0598 5.69097 66.0198 16.881 57.4698 22.061C48.9198 27.241 36.3899 23.511 36.3899 23.511C36.3899 23.511 34.9398 23.031 35.6698 21.581Z" fill="#4FAF86" stroke="black" stroke-width="4" stroke-miterlimit="10"/>
<path d="M34.8301 24.1108V53.5009" stroke="black" stroke-width="4" stroke-miterlimit="10"/>
</svg>
