<svg width="167" height="133" viewBox="0 0 167 133" fill="none" xmlns="http://www.w3.org/2000/svg">
<path d="M59.9229 59.0204C59.9229 59.0204 62.7729 47.4204 53.8129 40.7004C53.8129 40.7004 58.2929 30.7304 51.7729 28.0804C45.2629 25.4404 41.1929 36.4104 41.1929 36.4204C41.3029 36.1104 31.4329 35.2404 30.3829 35.1704C21.7029 34.5504 12.0229 37.2404 6.0329 43.8604C3.4729 46.6904 1.81295 50.5304 2.33295 54.3104C2.72295 57.1504 4.28289 59.7204 6.27289 61.7704C8.13289 63.6904 10.3729 65.2804 12.6529 66.6604C13.9629 67.4504 17.6729 70.0904 19.2029 69.8004C19.2029 69.8004 5.56288 72.4504 7.39288 93.4104C7.39288 93.4104 -0.957016 98.0904 3.12298 114.58C7.19298 131.07 21.0329 134.73 27.1429 126.39C27.1429 126.39 66.423 139.62 78.843 111.53C78.843 111.53 90.8529 118.86 105.913 105.63C114.163 98.3904 117.183 87.9604 118.573 77.4404C119.323 71.7104 119.173 65.3804 121.433 59.9804C122.643 57.0904 124.863 54.4704 127.863 53.5504C134.483 51.5104 141.053 56.9904 147.993 55.4504C153.143 54.3104 157.403 50.4304 159.973 45.8204C166.033 34.9804 166.343 19.0804 155.833 10.8804C152.243 8.08036 148.003 6.23036 143.653 4.88036C128.503 0.200358 107.263 0.280382 95.3229 12.2804C88.4329 19.2004 86.243 28.6904 84.613 38.0004C83.553 44.0804 83.163 49.6204 83.983 55.7404C84.463 59.3504 84.6329 63.0604 84.5229 66.7004C84.3029 74.1104 82.793 83.6004 75.593 87.5104C75.593 87.5104 70.9129 66.4204 59.9229 59.0104V59.0204Z" fill="#C9A9A1" stroke="black" stroke-width="4" stroke-linecap="round" stroke-linejoin="round"/>
<path d="M30.3926 35.1704C30.3926 35.1704 31.4226 24.0104 37.3326 24.8204C43.2426 25.6304 41.2026 36.4204 41.2026 36.4204L30.3926 35.1704Z" fill="#C9A9A1" stroke="black" stroke-width="4" stroke-linecap="round" stroke-linejoin="round"/>
<path d="M33.6526 50.0605C35.453 50.0605 36.9126 48.601 36.9126 46.8005C36.9126 45.0001 35.453 43.5405 33.6526 43.5405C31.8521 43.5405 30.3926 45.0001 30.3926 46.8005C30.3926 48.601 31.8521 50.0605 33.6526 50.0605Z" fill="black"/>
<path d="M7.41272 55.3002C11.3174 55.3002 14.4828 52.1348 14.4828 48.2302C14.4828 44.3255 11.3174 41.1602 7.41272 41.1602C3.50807 41.1602 0.342773 44.3255 0.342773 48.2302C0.342773 52.1348 3.50807 55.3002 7.41272 55.3002Z" fill="black"/>
<path d="M48.9325 65.3306C48.9325 65.3306 31.5325 73.7406 15.8525 68.6506" stroke="black" stroke-width="4" stroke-linecap="round" stroke-linejoin="round"/>
<path d="M30.3925 76.1704C30.3925 76.1704 30.0325 72.6604 27.6025 70.8804" stroke="black" stroke-width="4" stroke-linecap="round" stroke-linejoin="round"/>
<path d="M7.4126 93.4205C7.4126 93.4205 7.41257 103.26 18.6326 103.31C28.3226 103.35 30.4026 94.4404 30.4026 94.4404C30.4026 94.4404 51.5927 96.2704 59.1227 88.9404" stroke="black" stroke-width="4" stroke-linecap="round" stroke-linejoin="round"/>
<path d="M58.5626 99.9604L51.9927 94.4404" stroke="black" stroke-width="4" stroke-linecap="round" stroke-linejoin="round"/>
<path d="M105.723 16.7905C105.723 16.7905 96.753 20.3405 95.543 39.0705" stroke="black" stroke-width="3" stroke-linecap="round" stroke-linejoin="round"/>
<path d="M109.793 30.9307C109.793 30.9307 105.113 35.2006 102.873 50.0606" stroke="black" stroke-width="3" stroke-linecap="round" stroke-linejoin="round"/>
<path d="M113.863 48.2305C113.863 48.2305 109.793 55.2005 108.312 67.8005" stroke="black" stroke-width="3" stroke-linecap="round" stroke-linejoin="round"/>
</svg>
