<svg width="87" height="302" viewBox="0 0 87 302" fill="none" xmlns="http://www.w3.org/2000/svg">
<path d="M26.8886 167.741V190.441L9.00863 175.511L2.59863 181.701L26.8886 206.551V299.301H61.0386V238.931L80.7186 216.961L74.3086 210.771L61.0386 222.861V167.791C50.2886 170.481 37.9386 170.761 26.8886 167.751V167.741Z" fill="#C19181" stroke="black" stroke-width="4" stroke-linecap="round" stroke-linejoin="round"/>
<path d="M21.2787 52.8406C21.3187 50.0506 20.2887 47.2606 18.7587 44.8706C15.2087 39.3406 9.42867 36.2406 8.63867 29.3406C8.10867 24.7306 9.67867 20.1006 12.3287 16.2906C24.2987 -0.929359 57.7187 -2.43936 73.0587 10.9606C79.2187 16.3406 82.1087 24.3006 80.3787 32.1806C79.6087 35.6506 78.0987 39.3406 75.7187 42.0606C73.1287 45.0106 69.4987 47.1106 67.7487 50.7206C62.5887 61.3806 75.8987 65.1306 80.5287 71.9806C83.6987 76.6706 84.4587 82.7106 82.9987 88.1306C80.9987 95.5706 75.0087 99.3706 70.6987 105.321C69.4487 107.041 68.4087 108.951 68.0187 111.021C67.4287 114.211 68.7787 117.241 71.2387 119.351C79.3687 126.351 86.2387 137.151 84.3887 148.061C82.6087 158.581 72.5387 164.641 62.6587 167.381C46.8687 171.761 27.1187 170.871 13.2187 161.731C4.13867 155.761 -0.631331 146.191 3.51867 135.871C7.48867 125.971 21.9487 121.291 20.0887 109.251C18.9587 101.931 12.5087 98.5006 8.24867 93.0006C4.64867 88.3606 3.71867 82.2406 4.85867 76.6306C6.22867 69.9106 10.1087 66.7606 15.3987 62.6306C18.6287 60.1106 21.2287 57.0006 21.2787 52.8406Z" fill="#68BC8C" stroke="black" stroke-width="4" stroke-linecap="round" stroke-linejoin="round"/>
<path d="M37.2087 172.431V184.681" stroke="black" stroke-width="3" stroke-linecap="round" stroke-linejoin="round"/>
<path d="M49.7488 191.981V204.231" stroke="black" stroke-width="3" stroke-linecap="round" stroke-linejoin="round"/>
<path d="M37.2087 217.071V229.321" stroke="black" stroke-width="3" stroke-linecap="round" stroke-linejoin="round"/>
<path d="M46.2688 239.001V251.251" stroke="black" stroke-width="3" stroke-linecap="round" stroke-linejoin="round"/>
<path d="M51.9087 260.101V272.361" stroke="black" stroke-width="3" stroke-linecap="round" stroke-linejoin="round"/>
<path d="M36.1987 276.931V289.181" stroke="black" stroke-width="3" stroke-linecap="round" stroke-linejoin="round"/>
</svg>
