<svg width="1920" height="1080" viewBox="0 0 1920 1080" fill="none" xmlns="http://www.w3.org/2000/svg">
<g clip-path="url(#clip0_2030_182)">
<g clip-path="url(#clip1_2030_182)">
<path d="M1425.83 244.961L1420.02 237.125L1400.19 251.881V211.608H1378.68V243.874L1357.94 228.425L1352.12 236.26L1378.68 256.035V287.356H1400.19V264.041L1425.83 244.961Z" fill="#CC937A" stroke="black" stroke-width="4" stroke-linecap="round" stroke-linejoin="round"/>
<path d="M1417.88 230.205C1417.88 230.205 1416.84 209.496 1429.63 213.569C1442.43 217.643 1433.02 233.082 1433.02 233.082C1433.02 233.082 1453.23 229.572 1448.69 242.044C1444.15 254.516 1431.27 247.536 1431.27 247.536C1431.27 247.536 1428.73 269.271 1419.03 263.83C1409.34 258.388 1415.79 247.264 1415.79 247.264C1415.79 247.264 1397.41 254.677 1398.02 236.11C1398.64 217.542 1417.88 230.205 1417.88 230.205Z" fill="#48C19B" stroke="black" stroke-width="4" stroke-linecap="round" stroke-linejoin="round"/>
<path d="M1363.98 233.676C1363.98 233.676 1374.32 240.213 1367.52 247.576C1360.72 254.928 1352.28 244.85 1352.28 244.85C1352.28 244.85 1347.93 254.586 1336.49 250.261C1325.06 245.936 1340.3 233.676 1340.3 233.676C1340.3 233.676 1327.24 222.772 1334.86 218.689C1342.48 214.605 1351.04 227.409 1351.04 227.409C1351.04 227.409 1354.73 214.334 1362.9 221.415C1371.07 228.496 1363.98 233.676 1363.98 233.676Z" fill="#48C19B" stroke="black" stroke-width="4" stroke-linecap="round" stroke-linejoin="round"/>
<path d="M1374.37 186.955C1374.37 186.955 1359.76 154.196 1378.46 154.78C1397.16 155.363 1391.9 186.955 1391.9 186.955C1391.9 186.955 1411.18 154.769 1420.54 170.862C1429.89 186.955 1412.36 195.143 1412.36 195.143C1412.36 195.143 1437.49 189.289 1430.48 206.257C1423.46 223.225 1400.32 220.882 1400.32 220.882C1400.32 220.882 1395.41 239.6 1382.55 233.756C1382.55 233.756 1372.03 229.662 1377.88 219.715C1377.88 219.715 1358.6 221.465 1357.42 213.861C1356.26 206.257 1375.54 208.601 1375.54 208.601C1375.54 208.601 1338.14 200.413 1343.98 184.612C1349.83 168.821 1374.36 186.955 1374.36 186.955H1374.37Z" fill="#48C19B" stroke="black" stroke-width="4" stroke-linecap="round" stroke-linejoin="round"/>
</g>
<path d="M1238.7 386.31H2167.24C2167.24 386.31 2084.63 155 1861.58 155C1861.58 155 1711.23 153.35 1701.32 224.39C1701.32 224.39 1474.97 108.74 1238.7 386.31Z" fill="#68BC8C" stroke="black" stroke-width="4" stroke-linecap="round" stroke-linejoin="round"/>
<path d="M-248 386.64H548.36C548.36 386.64 526.81 256.31 394.42 298.38C394.42 298.38 350.29 156.76 245.62 167.02C245.62 167.02 187.12 165.99 132.73 242.96C132.73 242.96 150.18 170.06 108.1 166.49C66.02 162.92 -6.84 185.49 -85.86 271.7C-85.86 271.7 -75.6 242.97 -93.04 229.62C-110.49 216.28 -175.14 234.75 -248 386.63V386.64Z" fill="#68BC8C" stroke="black" stroke-width="4" stroke-linecap="round" stroke-linejoin="round"/>
<path d="M274.1 239.38C274.1 239.38 285.9 211.42 293.34 221.93C300.78 232.45 288.98 243.48 288.98 243.48C288.98 243.48 313.1 244.51 312.33 252.72C311.56 260.93 286.93 254.52 286.93 254.52C286.93 254.52 302.85 267.86 293.22 274.53C283.59 281.2 276.41 260.68 276.41 260.68C276.41 260.68 277.18 286.08 267.43 282.23C257.68 278.38 265.38 252.47 265.38 252.47C265.38 252.47 248.45 268.12 244.09 255.29C239.73 242.46 256.15 242.21 256.15 242.21C256.15 242.21 235.37 219.38 247.68 217.84C259.99 216.3 274.11 239.39 274.11 239.39L274.1 239.38Z" fill="#FFE964" stroke="black" stroke-width="4" stroke-linecap="round" stroke-linejoin="round"/>
<path d="M1578.14 1102.28C1563.8 1104.6 1549.62 1100.11 1542.16 1084.75C1530.16 1060.05 1542.87 1053.69 1512.51 1044.52C1482.16 1035.34 1502.63 1008.63 1508.98 993.746C1515.33 978.866 1511.1 971.106 1479.34 944.986C1463.93 932.316 1467.04 905.356 1482.75 894.216C1497.52 883.746 1514.58 889.646 1525.98 901.866C1536.98 913.656 1541.57 933.076 1557.53 939.786C1569.93 944.996 1583.37 940.696 1589.96 955.456C1593.41 963.166 1593.37 971.976 1592.46 980.376C1590.45 998.906 1592.11 1007.43 1610.62 1013.46C1623.94 1017.81 1619.59 1038.89 1618.01 1048.94C1615.36 1065.8 1615.82 1083.14 1599.9 1093.59C1593.23 1097.97 1585.66 1101.06 1578.13 1102.27L1578.14 1102.28Z" fill="#68BC8C" stroke="black" stroke-width="4" stroke-linecap="round" stroke-linejoin="round"/>
<path d="M1506.17 922.416C1506.17 922.416 1561.93 976.056 1573.93 1075.59L1506.17 922.416Z" fill="#68BC8C"/>
<path d="M1506.17 922.416C1506.17 922.416 1561.93 976.056 1573.93 1075.59" stroke="black" stroke-width="4" stroke-linecap="round" stroke-linejoin="round"/>
<path d="M1610.63 1071.03C1604.3 1055.56 1581.69 1059.41 1590.16 1038.62C1590.16 1038.62 1582.85 1014.22 1559.92 1025.01C1546.78 1031.19 1522.87 1016.71 1514.82 998.706C1506.77 980.706 1471.06 971.886 1452.71 989.526C1452.71 989.526 1445.66 995.936 1427.3 994.466C1392.01 991.646 1378.6 1006.47 1384.24 1026.94C1389.89 1047.41 1428 1046.7 1428 1046.7C1428 1046.7 1446.35 1048.11 1447.76 1070.7C1449.17 1093.29 1480.79 1110.93 1517.53 1095.4C1517.53 1095.4 1532.98 1086.22 1552.24 1099.8C1566.75 1110.03 1579.8 1108.54 1596.51 1102.87C1606.91 1099.34 1616.96 1086.48 1610.63 1071.01V1071.03Z" fill="#68BC8C" stroke="black" stroke-width="4" stroke-linecap="round" stroke-linejoin="round"/>
<path d="M1425.18 1018.35C1425.18 1018.35 1476.77 1010.12 1563.24 1059.42" stroke="black" stroke-width="3" stroke-linecap="round" stroke-linejoin="round"/>
<path d="M1582.4 1096.83C1582.4 1096.83 1600.75 1118.7 1633.22 1102.82C1665.69 1086.94 1645.93 1084.83 1691.8 1082C1737.68 1079.18 1738.39 1059.48 1751.09 1038.62C1763.8 1017.77 1775.79 1002.94 1758.85 989.526C1741.91 976.116 1712.97 989.526 1712.97 989.526C1712.97 989.526 1693.91 1002.94 1681.21 1001.88C1668.5 1000.82 1645.92 999.406 1636.74 1025.53C1636.74 1025.53 1624.03 1058.57 1596.51 1057.87C1568.98 1057.17 1582.39 1096.81 1582.39 1096.81L1582.4 1096.83Z" fill="#68BC8C" stroke="black" stroke-width="4" stroke-linecap="round" stroke-linejoin="round"/>
<path d="M1726.39 1017.84C1726.39 1017.84 1668.88 1058.48 1609.22 1082.01L1726.39 1017.84Z" fill="#68BC8C"/>
<path d="M1726.39 1017.84C1726.39 1017.84 1668.88 1058.48 1609.22 1082.01" stroke="black" stroke-width="4" stroke-linecap="round" stroke-linejoin="round"/>
<path d="M1620.63 861.166C1621.7 861.736 1622.72 862.356 1623.66 863.026C1638.7 873.676 1640.61 895.326 1637.61 911.616C1636.09 919.856 1634.59 929.476 1636.97 937.726C1641.6 953.746 1653.71 964.686 1653.82 982.126C1653.92 997.206 1646.11 1009.1 1633.18 1017.14C1617.75 1026.73 1619.15 1059.52 1614.93 1074.77C1612.41 1083.86 1608.8 1094.78 1599.98 1099.95C1587.6 1107.22 1569.82 1100.17 1567.4 1085.68C1564.88 1070.58 1580.71 1055 1574.21 1040.69C1569.81 1031.01 1555.33 1028.07 1546.33 1023.96C1543.14 1022.5 1540.31 1019.92 1539.47 1016.6C1538.93 1014.46 1539.26 1012.21 1539.76 1010.06C1543.9 992.336 1556.31 979.746 1551.38 960.366C1548.72 949.906 1545.1 939.026 1551.28 929.116C1554.66 923.706 1559.25 919.116 1563.15 914.046C1575.03 898.586 1573.55 869.796 1591.77 859.836C1600.31 855.166 1612.3 856.726 1620.64 861.156L1620.63 861.166Z" fill="#68BC8C" stroke="black" stroke-width="4" stroke-linecap="round" stroke-linejoin="round"/>
<path d="M1603.55 895.096C1603.55 895.096 1594.42 991.566 1589.08 1071.07L1603.55 895.096Z" fill="#68BC8C"/>
<path d="M1603.55 895.096C1603.55 895.096 1594.42 991.566 1589.08 1071.07" stroke="black" stroke-width="4" stroke-linecap="round" stroke-linejoin="round"/>
<path d="M1575.32 1103.87C1558.91 1087.95 1561.75 1056.26 1571.11 1037.68C1576.86 1026.26 1585.88 1016.74 1596.76 1010.08C1606.12 1004.35 1612.1 999.326 1614.14 987.966C1617.39 969.856 1610.24 947.886 1632.14 939.506C1639.22 936.796 1647.26 936.966 1653.99 933.476C1663.83 928.356 1666.71 917.356 1674.48 910.236C1680.28 904.926 1687.71 900.976 1695.49 899.626C1712.04 896.746 1723.57 907.266 1723.57 923.896C1723.57 929.106 1722.28 934.376 1720.2 939.146C1715.38 950.186 1704.28 954.586 1699.42 964.996C1688.84 987.666 1695.9 1018.63 1676.98 1037.54C1655.81 1058.71 1643.1 1040.36 1630.4 1067.89C1624.39 1080.91 1617.85 1097.41 1604.74 1104.93C1591.83 1112.33 1582.07 1110.42 1575.33 1103.88L1575.32 1103.87Z" fill="#68BC8C" stroke="black" stroke-width="4" stroke-linecap="round" stroke-linejoin="round"/>
<path d="M1687.57 933.066C1687.57 933.066 1641.69 980.356 1596.52 1070.71L1687.57 933.066Z" fill="#68BC8C"/>
<path d="M1687.57 933.066C1687.57 933.066 1641.69 980.356 1596.52 1070.71" stroke="black" stroke-width="4" stroke-linecap="round" stroke-linejoin="round"/>
<path d="M326.191 882.133C326.191 882.133 324.451 934.903 332.571 922.143C340.691 909.383 334.891 922.143 334.891 922.143C334.891 922.143 349.971 1003.32 358.09 988.253C358.09 988.253 368.531 1010.87 376.65 1007.97C384.77 1005.07 384.77 995.213 384.77 995.213C384.77 995.213 403.911 1001.59 395.791 970.283C395.791 970.283 417.251 968.543 403.911 924.473C403.911 924.473 424.211 932.593 403.911 882.723C403.911 882.723 416.091 897.223 421.891 889.683C427.691 882.143 394.641 833.433 394.641 833.433C394.641 833.433 423.051 870.543 430.59 860.683C430.59 860.683 458.421 896.053 465.38 891.413C465.38 891.413 493.79 905.913 497.27 899.533C500.75 893.153 478.71 884.453 478.71 884.453C478.71 884.453 534.38 909.963 537.861 903.593C541.341 897.223 506.55 860.683 506.55 860.683C506.55 860.683 512.35 849.663 472.921 832.853C472.921 832.853 475.241 821.253 466.54 814.873C466.54 814.873 508.87 832.273 524.53 822.993C524.53 822.993 573.24 826.473 577.3 816.613C581.36 806.753 562.22 800.373 562.22 800.373C562.22 800.373 570.34 792.833 565.12 786.453C559.9 780.073 514.671 776.593 514.671 776.593C514.671 776.593 531.49 768.473 529.75 757.453C528.01 746.433 488.58 752.813 488.58 752.813C488.58 752.813 507.141 733.673 478.72 733.673C450.3 733.673 440.451 735.993 440.451 735.993C440.451 735.993 456.69 721.493 453.79 713.953C450.891 706.413 435.811 706.413 402.761 721.493C369.711 736.573 355.211 763.823 355.211 763.823C355.211 763.823 354.631 734.833 312.301 735.993C269.971 737.153 298.961 750.493 298.961 750.493C298.961 750.493 273.451 741.793 255.471 752.233C237.491 762.673 238.651 772.533 261.851 771.373C261.851 771.373 220.101 776.013 214.881 795.723C214.881 795.723 213.141 803.263 227.641 799.783C227.641 799.783 194.591 807.323 184.731 825.873C174.871 844.433 198.651 833.993 198.651 833.993C198.651 833.993 168.501 862.403 177.771 871.103C187.041 879.803 210.821 853.123 210.821 853.123C210.821 853.123 196.901 875.163 206.761 877.473C216.621 879.793 243.291 853.123 243.291 853.123C243.291 853.123 240.971 864.723 247.931 867.623C247.931 867.623 229.371 895.453 242.131 901.833C242.131 901.833 216.041 948.223 232.851 945.903C249.671 943.583 258.361 928.503 258.361 928.503C258.361 928.503 278.081 937.783 295.471 902.413C295.471 902.413 310.551 915.173 326.201 882.113L326.191 882.133Z" fill="#68BC8C" stroke="black" stroke-width="4" stroke-linecap="round" stroke-linejoin="round"/>
<path d="M396.94 780.663C398.68 780.663 435.79 779.503 449.71 794.583C449.71 794.583 460.731 809.083 438.111 805.023C438.111 805.023 456.67 807.923 466.52 814.883" stroke="black" stroke-width="4" stroke-linecap="round" stroke-linejoin="round"/>
<path d="M376.641 809.073L394.62 835.163" stroke="black" stroke-width="4" stroke-linecap="round" stroke-linejoin="round"/>
<path d="M343.59 816.613C343.59 816.613 308.801 860.683 322.711 854.883C336.631 849.083 345.91 840.383 345.91 840.383C345.91 840.383 327.93 857.783 326.19 882.133" stroke="black" stroke-width="4" stroke-linecap="round" stroke-linejoin="round"/>
<path d="M326.771 785.873C326.771 785.873 278.061 805.593 274.581 817.183C271.101 828.783 279.221 831.103 279.221 831.103C279.221 831.103 238.631 853.723 259.501 858.353L247.9 867.633" stroke="black" stroke-width="4" stroke-linecap="round" stroke-linejoin="round"/>
<path d="M484.33 886.973C481.18 885.443 478.701 884.453 478.701 884.453C478.701 884.453 480.86 885.443 484.33 886.973Z" stroke="black" stroke-width="4" stroke-linecap="round" stroke-linejoin="round"/>
<path d="M384.761 995.213C384.761 995.213 384.761 1005.07 376.641 1007.97C368.521 1010.87 358.08 988.253 358.08 988.253C352.4 998.813 343.311 962.203 338.361 939.283V1118.72H399.251V969.143C397.281 970.143 395.77 970.273 395.77 970.273C403.89 1001.58 384.751 995.203 384.751 995.203L384.761 995.213Z" fill="#C19181" stroke="black" stroke-width="4" stroke-linecap="round" stroke-linejoin="round"/>
<path d="M352.87 1003.02V987.883" stroke="black" stroke-width="3" stroke-linecap="round" stroke-linejoin="round"/>
<path d="M384.081 1035.9V1018.39" stroke="black" stroke-width="3" stroke-linecap="round" stroke-linejoin="round"/>
<path d="M364.921 1053.86V1036.35" stroke="black" stroke-width="3" stroke-linecap="round" stroke-linejoin="round"/>
<path d="M353.451 1093.53V1076.02" stroke="black" stroke-width="3" stroke-linecap="round" stroke-linejoin="round"/>
<path d="M96.92 605.59C96.92 605.59 80.87 622.29 69.41 617.57C57.95 612.85 80.28 606.24 80.28 606.24C80.28 606.24 63.84 604.93 66.33 599.49C68.82 594.05 91.41 592.35 96.91 605.58L96.92 605.59Z" fill="#68BC8C" stroke="black" stroke-width="4" stroke-linecap="round" stroke-linejoin="round"/>
<path d="M97.18 605.19C97.18 605.19 111.92 602.5 120.49 613.18C120.49 613.18 123.96 617.04 120.88 619.27C117.8 621.5 110.53 615.47 110.53 615.47C110.53 615.47 118.72 621.95 113.74 623.39C108.76 624.83 97.17 605.18 97.17 605.18L97.18 605.19Z" fill="#68BC8C" stroke="black" stroke-width="4" stroke-linecap="round" stroke-linejoin="round"/>
<path d="M96.79 604.54C96.79 604.54 110.22 582.86 118.34 579.2C126.46 575.54 129.28 578.41 130.19 579.72C131.1 581.03 130.98 587.25 121.68 591.44C121.68 591.44 137.27 582.93 141.07 587.38C144.87 591.83 146.64 610.76 96.8 604.54H96.79Z" fill="#68BC8C" stroke="black" stroke-width="4" stroke-linecap="round" stroke-linejoin="round"/>
<path d="M96.27 602.66C96.27 602.66 98.69 573.35 102.97 564.17C107.25 554.99 113.1 553.74 114.55 557.88C116 562.03 110.81 571.5 110.81 571.5C110.81 571.5 120.99 554.65 127.11 557.45C133.23 560.26 96.26 602.65 96.26 602.65L96.27 602.66Z" fill="#68BC8C" stroke="black" stroke-width="4" stroke-linecap="round" stroke-linejoin="round"/>
<path d="M97.08 603.27C97.08 603.27 95.61 565.96 83.3 564C70.99 562.04 72.43 574.35 80.55 582.86C80.55 582.86 66.24 568.38 62.47 577.75C57.89 589.15 87.92 592.93 97.07 603.27H97.08Z" fill="#68BC8C" stroke="black" stroke-width="4" stroke-linecap="round" stroke-linejoin="round"/>
<path d="M1227 916.16C1227 916.16 1230.33 901.39 1239.23 902.17C1248.13 902.95 1249.11 912.93 1249.11 912.93C1249.11 912.93 1251.16 901 1259.77 901C1268.38 901 1267.99 914.25 1267.99 914.25C1267.99 914.25 1271.12 901.49 1281.59 901.78C1292.06 902.07 1292.35 918.7 1292.35 918.7" stroke="black" stroke-width="4" stroke-linecap="round" stroke-linejoin="round"/>
<path d="M1309.49 940.11C1309.49 940.11 1312.86 927.64 1323.72 929.99C1323.72 929.99 1330.47 930.14 1332.52 938.35C1332.52 938.35 1334.28 927.64 1343.96 927.64C1353.64 927.64 1353.94 937.91 1353.94 937.91C1353.94 937.91 1356.14 929.11 1367 930.87C1377.86 932.63 1377.27 943.93 1377.27 943.93" stroke="black" stroke-width="4" stroke-linecap="round" stroke-linejoin="round"/>
<path d="M233.49 582.23C233.49 582.23 273.34 559.38 312.59 581.62C312.59 581.62 348.7 557.29 394.23 581.62" stroke="black" stroke-width="4" stroke-linecap="round" stroke-linejoin="round"/>
<path d="M1606 791C1607.2 791 1667.4 771.958 1730 791C1730 791 1799.78 766.25 1854 791" stroke="black" stroke-width="4" stroke-linecap="round" stroke-linejoin="round"/>
<path d="M526.2 682.98C526.2 682.98 546.73 641.41 542.62 682.98C542.62 682.98 569.31 642.44 564.69 682.98C564.69 682.98 587.78 646.54 583.68 682.98" stroke="black" stroke-width="4" stroke-linecap="round" stroke-linejoin="round"/>
<path d="M1119 635.693C1119 635.693 1147.04 621.003 1163.95 635.693C1163.95 635.693 1186.65 613.883 1212.46 635.693C1212.46 635.693 1238.72 615.223 1261.42 635.693" stroke="black" stroke-width="4" stroke-linecap="round" stroke-linejoin="round"/>
<path d="M561.82 989.53H653.34C653.34 989.53 668.25 979.13 666.17 973.93C664.09 968.73 649.18 981.21 650.22 980.52C651.26 979.83 678.3 960.07 669.98 953.13C661.66 946.2 626.3 973.24 626.3 973.24C626.3 973.24 638.78 957.99 629.42 955.91C620.06 953.83 608.27 973.94 608.27 973.94C608.27 973.94 616.24 959.03 609.31 957.3C602.38 955.57 595.79 972.21 595.79 972.21C595.79 972.21 596.83 951.06 588.51 951.41C580.19 951.76 581.23 978.45 581.23 978.45C572.61 969.83 557.84 960.62 545.63 966.97C544.03 967.8 542.51 968.9 541.49 970.39C537.25 976.57 545.8 981.81 550.3 984.35C553.11 985.94 558.42 989.55 561.81 989.55L561.82 989.53Z" fill="#13A381" stroke="black" stroke-width="4" stroke-linecap="round" stroke-linejoin="round"/>
<path d="M1407.67 611.308H1342.92C1335.55 611.308 1329.58 603.588 1331.29 596.448C1333.57 586.928 1347.91 594.598 1353.05 596.748C1352.47 596.508 1355.76 589.308 1356 588.848C1360.8 579.898 1372.15 574.908 1381.61 580.108C1387.92 583.568 1384.25 590.378 1380.91 594.728C1381.79 593.578 1389.63 591.418 1391.8 591.078C1395.11 590.558 1400.82 590.308 1403.08 593.398C1405.18 596.278 1402.63 599.938 1400.07 601.488C1400.07 601.488 1417.96 596.108 1420.18 602.438C1422.4 608.768 1412.9 611.308 1407.67 611.308Z" fill="#13A381" stroke="black" stroke-width="4" stroke-linecap="round" stroke-linejoin="round"/>
<path d="M1749.19 461.462H1781.55C1781.55 461.462 1786.21 462.202 1790.62 457.542C1795.03 452.882 1801.65 440.382 1784.25 442.092C1784.25 442.092 1774.44 442.832 1766.84 449.942C1766.84 449.942 1768.07 438.662 1756.54 440.132C1745.02 441.602 1732.27 461.462 1749.18 461.462H1749.19Z" fill="#4FAF86" stroke="black" stroke-width="4" stroke-linecap="round" stroke-linejoin="round"/>
<path d="M94.57 921.33C94.57 921.33 129.11 898.88 127.38 921.33C127.38 921.33 161.92 896.29 159.33 920.47C159.33 920.47 194.73 898.02 189.55 920.47" stroke="black" stroke-width="4" stroke-linecap="round" stroke-linejoin="round"/>
<path d="M854.257 749.251C854.257 749.251 864.147 735.411 870.077 743.321C876.007 751.231 859.697 757.161 859.697 757.161C859.697 757.161 879.967 755.181 879.467 760.131C878.967 765.081 860.187 765.571 860.187 765.571C860.187 765.571 875.517 779.411 861.177 780.401C846.837 781.391 844.867 769.521 844.867 769.521C844.867 769.521 835.967 778.911 829.537 771.991C823.107 765.071 838.927 756.171 838.927 756.171C838.927 756.171 825.577 742.821 834.477 740.351C843.377 737.881 854.247 749.251 854.247 749.251H854.257Z" fill="#13A381" stroke="black" stroke-width="4" stroke-linecap="round" stroke-linejoin="round"/>
<path d="M1838.22 889.101C1838.22 889.101 1837.14 879.351 1819.19 881.631C1819.19 881.631 1806.91 885.121 1806.18 893.791C1806.18 893.791 1805.46 895.961 1806.9 896.801C1808.34 897.641 1821.59 908.361 1837.61 891.981C1837.61 891.981 1838.93 891.261 1838.21 889.091L1838.22 889.101Z" fill="#4FAF86" stroke="black" stroke-width="4" stroke-miterlimit="10"/>
<path d="M1839.67 889.581C1839.67 889.581 1846.78 865.371 1866.89 870.791C1866.89 870.791 1869.06 871.511 1869.06 872.601C1869.06 873.691 1870.02 884.881 1861.47 890.061C1852.92 895.241 1840.39 891.511 1840.39 891.511C1840.39 891.511 1838.94 891.031 1839.67 889.581Z" fill="#4FAF86" stroke="black" stroke-width="4" stroke-miterlimit="10"/>
<path d="M1838.83 892.111V921.501" stroke="black" stroke-width="4" stroke-miterlimit="10"/>
<path d="M1770 685.9C1770 685.9 1798.54 670.745 1815.77 685.9C1815.77 685.9 1838.88 663.4 1865.16 685.9C1865.16 685.9 1891.89 664.771 1915 685.9" stroke="black" stroke-width="4" stroke-linecap="round" stroke-linejoin="round"/>
<path d="M139.55 522.56H200.33C200.33 522.56 208.01 521.6 212.81 515.52C217.61 509.44 217.29 500.34 190.74 509.05C190.74 509.05 195.22 496.01 184.02 496.97C172.82 497.93 165.46 506.89 165.46 506.89C165.46 506.89 165.46 489.94 156.18 489.62C146.9 489.3 146.58 509.06 146.58 509.06C146.58 509.06 126.43 496.97 120.35 506.09C114.27 515.21 128.99 520.65 128.99 520.65C128.99 520.65 132.19 522.57 139.55 522.57V522.56Z" fill="#13A381" stroke="black" stroke-width="4" stroke-linecap="round" stroke-linejoin="round"/>
<path d="M1403 739.991C1403 739.991 1424.98 720.101 1448 739.991C1448 739.991 1468.41 719.761 1494.05 739.991" stroke="black" stroke-width="4" stroke-linecap="round" stroke-linejoin="round"/>
<path d="M1816.93 360.761C1816.93 360.761 1817.71 339.591 1830.69 346.321C1830.69 346.321 1836.58 348.951 1831.73 361.161C1831.73 361.161 1845.28 354.531 1845.62 364.621C1845.96 374.711 1829.82 370.771 1829.82 370.771C1829.82 370.771 1834.06 388.781 1824.17 389.341C1814.28 389.891 1819.03 373.981 1819.03 373.981C1819.03 373.981 1812.24 389.221 1803.55 383.431C1794.86 377.641 1812.39 368.651 1812.39 368.651C1812.39 368.651 1798.9 365.401 1804.21 359.171C1809.52 352.941 1816.92 360.751 1816.92 360.751L1816.93 360.761Z" fill="#FFE964" stroke="black" stroke-width="4" stroke-linecap="round" stroke-linejoin="round"/>
<path d="M1824.73 369.991C1824.3 370.631 1823.8 371.151 1823.27 371.481C1816.54 375.711 1816.29 363.151 1822.71 362.041C1827.45 361.221 1826.82 366.921 1824.73 369.991Z" fill="#FF8AB7"/>
<path d="M1817.96 385.471C1817.96 385.471 1815.66 396.521 1825.41 415.191" stroke="black" stroke-width="4" stroke-linecap="round" stroke-linejoin="round"/>
<path d="M1825.92 416.241C1825.92 416.241 1822.95 400.591 1838.57 389.771C1838.57 389.771 1842.87 386.671 1844.26 384.851C1845.65 383.041 1847.54 381.651 1845.86 390.451C1844.18 399.251 1841.26 408.221 1831.36 416.901C1831.36 416.901 1830.2 418.101 1828.45 418.061C1826.7 418.011 1825.93 416.241 1825.93 416.241H1825.92Z" fill="#88D1B3" stroke="black" stroke-width="4" stroke-linecap="round" stroke-linejoin="round"/>
<path d="M1825.58 416.661C1822.95 412.181 1820.37 407.761 1816.52 404.111C1814.59 402.281 1812.42 400.671 1810.03 399.481C1807.61 398.271 1805 397.541 1802.59 396.261C1800.8 395.311 1800.97 396.331 1801.04 397.821C1801.28 403.071 1802.56 407.661 1805.96 411.761C1809.43 415.931 1814.39 418.321 1819.77 418.751C1819.77 418.751 1827.83 420.501 1825.58 416.671V416.661Z" fill="#88D1B3" stroke="black" stroke-width="4" stroke-linecap="round" stroke-linejoin="round"/>
<path d="M2.75182 1086.28H143.812C143.812 1086.28 163.142 1079.18 158.852 1064.28C154.552 1049.38 136.652 1054.34 136.652 1054.34C136.652 1054.34 170.302 1013.18 134.502 996.845C134.502 996.845 118.392 990.105 101.382 1003.06C101.382 1003.06 114.982 973.955 87.2418 968.455C59.4918 962.955 39.6218 1022.4 39.6218 1022.4C39.6218 1022.4 23.5118 1006.25 -4.23818 1027.55C-31.9882 1048.84 -25.3582 1086.28 2.74182 1086.28H2.75182Z" fill="#02B389" stroke="black" stroke-width="4" stroke-linecap="round" stroke-linejoin="round"/>
<path d="M977.582 966.455H1154.49C1154.49 966.455 1161.97 964.795 1159.47 952.335C1156.98 939.875 1143.14 925.755 1124.86 931.295C1124.86 931.295 1150.05 903.055 1128.46 895.025C1106.9 887.005 1040.89 928.675 1040.7 928.805C1043.13 927.265 1042.42 920.765 1041.36 918.835C1036.5 910.035 1023.01 912.725 1015.28 914.885C999.112 919.415 985.162 930.945 975.402 944.385C971.212 950.155 963.752 966.455 977.582 966.455Z" fill="#02B389" stroke="black" stroke-width="4" stroke-linecap="round" stroke-linejoin="round"/>
</g>
<defs>
<clipPath id="clip0_2030_182">
<rect width="1920" height="1080" fill="white"/>
</clipPath>
<clipPath id="clip1_2030_182">
<rect width="121.128" height="136.61" fill="white" transform="translate(1330.24 152.758)"/>
</clipPath>
</defs>
</svg>
