<svg width="171" height="104" viewBox="0 0 171 104" fill="none" xmlns="http://www.w3.org/2000/svg">
<path d="M41.0501 36.8217L39.3301 29.4517H107.38L105.41 37.3117L41.0501 36.8217Z" fill="#AAF2EE" stroke="black" stroke-width="4" stroke-linecap="round" stroke-linejoin="round"/>
<path d="M42.0299 101.432C42.0299 101.432 22.3799 77.3615 41.0499 36.8315H105.65C105.65 36.8315 126.78 63.8516 102.95 101.192L42.0299 101.442V101.432Z" fill="#FFF4BD" stroke="black" stroke-width="4" stroke-linecap="round" stroke-linejoin="round"/>
<path d="M37.8601 89.3916H108.85" stroke="black" stroke-width="3" stroke-linecap="round" stroke-linejoin="round"/>
<path d="M72.2499 48.3716C70.9899 51.3216 69.7199 54.2816 68.4599 57.2316C66.2799 62.3216 61.8899 68.4116 63.4099 74.1316C64.5899 78.5816 68.8699 80.3016 73.4799 80.3016C77.9699 80.3016 81.9299 78.4116 83.0999 74.0416C84.0999 70.3116 82.7999 67.8915 81.0899 64.7115C78.1499 59.2615 75.1999 53.8216 72.2599 48.3716H72.2499Z" fill="#AAF2EE" stroke="black" stroke-width="4" stroke-linecap="round" stroke-linejoin="round"/>
<path d="M108.85 42.4717L129.24 29.7017L139.31 42.2317L113.52 75.6417C113.52 75.6417 115.73 56.4817 108.85 42.4817V42.4717Z" fill="#FFF4BD" stroke="black" stroke-width="4" stroke-linecap="round" stroke-linejoin="round"/>
<path d="M166.57 49.2717C165.78 49.8517 164.83 50.1017 163.73 50.1017C163.31 50.1017 162.88 50.0717 162.42 49.9817C162.37 49.9817 162.35 49.9817 162.3 49.9317C161.49 49.6817 160.38 49.3317 159.09 48.9217C158.99 48.8717 158.89 48.8317 158.79 48.7817C153.49 46.2517 146.92 40.3217 141.21 32.3317C135.54 24.3817 132.02 16.3017 131.33 10.4817C131.04 8.14171 131.21 6.17172 131.88 4.71172C132.22 3.92172 132.71 3.30173 133.36 2.84173C138.19 -0.62827 149.55 6.93173 158.72 19.7517C167.89 32.5917 171.4 45.7917 166.58 49.2617L166.57 49.2717Z" fill="#FFF4BD" stroke="black" stroke-width="4" stroke-linecap="round" stroke-linejoin="round"/>
<path d="M158.79 48.7919C151.58 46.4419 139.32 42.2319 139.32 42.2319L128.25 29.4619L131.33 10.502C132.03 16.322 135.55 24.4019 141.21 32.3519C146.92 40.3319 153.48 46.2719 158.79 48.8019V48.7919Z" fill="#AAF2EE" stroke="black" stroke-width="4" stroke-linecap="round" stroke-linejoin="round"/>
<path d="M163.86 50.3317C163.75 50.3317 163.27 50.1917 162.52 49.9917C162.97 50.0817 163.4 50.1017 163.81 50.1017C163.88 50.2617 163.9 50.3317 163.86 50.3317Z" stroke="black" stroke-width="4" stroke-linecap="round" stroke-linejoin="round"/>
<path d="M162.41 49.9517C161.43 49.8117 160.37 49.4517 159.26 48.9517C160.53 49.3617 161.62 49.7017 162.41 49.9517Z" stroke="black" stroke-width="4" stroke-linecap="round" stroke-linejoin="round"/>
<path d="M29.13 80.5918C22.55 80.5918 17.22 74.4218 17.22 66.8018C17.22 59.1818 22.55 52.9818 29.13 52.9818C31.21 52.9818 33.17 53.6018 34.87 54.6818C36.04 49.5718 37.85 44.0718 40.44 38.2418C36.99 36.4118 33.17 35.3618 29.13 35.3618C14.16 35.3618 2 49.4318 2 66.8118C2 84.1918 14.16 98.2618 29.13 98.2618C32.54 98.2618 35.79 97.5018 38.8 96.1718C36.92 92.4718 34.72 86.8818 33.65 79.5818C32.26 80.2418 30.73 80.6118 29.13 80.6118V80.5918Z" fill="#FFF4BD" stroke="black" stroke-width="4" stroke-linecap="round" stroke-linejoin="round"/>
<path d="M77.32 20.6417C77.38 20.2717 77.41 19.8917 77.41 19.5017C77.41 16.4517 75.54 13.9717 73.23 13.9717C70.92 13.9717 69.05 16.4417 69.05 19.5017C69.05 19.8917 69.08 20.2717 69.14 20.6417H44.73V29.2017H101.47V20.6417H77.31H77.32Z" fill="#FFF4BD" stroke="black" stroke-width="4" stroke-linecap="round" stroke-linejoin="round"/>
<path d="M140.23 14.8918C141.677 14.8918 142.85 13.7188 142.85 12.2719C142.85 10.8249 141.677 9.65186 140.23 9.65186C138.783 9.65186 137.61 10.8249 137.61 12.2719C137.61 13.7188 138.783 14.8918 140.23 14.8918Z" fill="black"/>
<path d="M151.62 26.972C153.067 26.972 154.24 25.7989 154.24 24.3519C154.24 22.9049 153.067 21.7319 151.62 21.7319C150.173 21.7319 149 22.9049 149 24.3519C149 25.7989 150.173 26.972 151.62 26.972Z" fill="black"/>
<path d="M143.6 23.0916C145.047 23.0916 146.22 21.9186 146.22 20.4716C146.22 19.0246 145.047 17.8516 143.6 17.8516C142.153 17.8516 140.98 19.0246 140.98 20.4716C140.98 21.9186 142.153 23.0916 143.6 23.0916Z" fill="black"/>
<path d="M153.01 37.2117C154.457 37.2117 155.63 36.0387 155.63 34.5917C155.63 33.1447 154.457 31.9717 153.01 31.9717C151.563 31.9717 150.39 33.1447 150.39 34.5917C150.39 36.0387 151.563 37.2117 153.01 37.2117Z" fill="black"/>
<path d="M160.46 43.4417C161.907 43.4417 163.08 42.2686 163.08 40.8217C163.08 39.3747 161.907 38.2017 160.46 38.2017C159.013 38.2017 157.84 39.3747 157.84 40.8217C157.84 42.2686 159.013 43.4417 160.46 43.4417Z" fill="black"/>
</svg>
