<svg width="165" height="93" viewBox="0 0 165 93" fill="none" xmlns="http://www.w3.org/2000/svg">
<path d="M32.5367 87.8599L30.0667 88.1399C30.8967 88.1199 31.7167 88.0399 32.5367 87.8599Z" stroke="black" stroke-width="4" stroke-linecap="round" stroke-linejoin="round"/>
<path d="M29.7466 88.1699L30.0566 88.1299C29.9466 88.1299 29.8466 88.1299 29.7366 88.1299V88.1699H29.7466Z" stroke="black" stroke-width="4" stroke-linecap="round" stroke-linejoin="round"/>
<path d="M159.177 44.83C155.337 18.99 134.667 20.58 134.667 20.58L91.7368 24.55L66.5668 6L54.3768 11.83L69.2168 28.26L20.1868 31.82L20.2168 32.11C29.4568 30.28 37.7068 38.67 41.6968 46.36C47.3768 57.31 49.0768 75.7 38.7568 84.64C36.7568 86.37 34.6568 87.38 32.5368 87.85L139.707 75.69C139.707 75.69 163.257 72.22 159.187 44.82L159.177 44.83Z" fill="#C19181" stroke="black" stroke-width="4" stroke-linecap="round" stroke-linejoin="round"/>
<path d="M41.6967 46.3599C37.7067 38.6699 29.4567 30.2799 20.2167 32.1099C19.3667 32.2799 18.5167 32.5 17.6467 32.85C4.00666 38.38 3.32667 59.7299 10.5567 74.16C14.1067 81.24 21.8467 88.14 29.7367 88.14C29.8467 88.14 29.9467 88.14 30.0567 88.14L32.5267 87.8599C34.6467 87.3899 36.7467 86.3799 38.7467 84.6499C49.0667 75.7099 47.3667 57.3199 41.6867 46.3699L41.6967 46.3599Z" fill="#C19181" stroke="black" stroke-width="4" stroke-linecap="round" stroke-linejoin="round"/>
<path d="M17.3467 65.8202C16.5367 63.1202 16.0267 60.3102 15.6867 57.7102C15.0867 53.1202 14.6467 46.1602 19.0167 43.3002C19.5967 42.9202 20.2367 42.6502 20.8967 42.4702C25.9567 41.1102 29.5367 46.4502 31.4667 50.5002C34.3067 56.4702 36.1967 63.3302 35.7267 70.0102C35.5267 72.9402 34.5767 76.7702 31.4667 77.6602C27.8767 78.6902 23.9767 77.2202 21.5767 74.3302C19.6267 71.9702 18.2867 68.9702 17.3467 65.8202Z" stroke="black" stroke-width="2" stroke-linecap="round" stroke-linejoin="round"/>
<path d="M23.5567 63.7901C22.5367 60.8901 21.9467 57.8201 21.5867 54.8101C21.5067 54.1301 21.4367 53.4401 21.6267 52.7801C22.0067 51.4501 22.8667 51.0201 23.9967 51.8401C25.3467 52.8201 25.9567 54.4101 26.5767 55.9001C28.0967 59.5901 29.4567 64.1901 29.5767 68.2101C29.6067 69.0601 29.2367 70.0201 28.4367 70.2801C27.2567 70.6701 26.3667 69.4801 25.8367 68.6201C24.8967 67.1001 24.1567 65.4701 23.5567 63.7801V63.7901Z" stroke="black" stroke-width="2" stroke-linecap="round" stroke-linejoin="round"/>
<path d="M58.2966 43.8199L72.0067 42.1099" stroke="black" stroke-width="3" stroke-linecap="round" stroke-linejoin="round"/>
<path d="M117.627 31.8499L131.347 30.1499" stroke="black" stroke-width="3" stroke-linecap="round" stroke-linejoin="round"/>
<path d="M107.257 45.5198L120.967 43.8198" stroke="black" stroke-width="3" stroke-linecap="round" stroke-linejoin="round"/>
<path d="M77.8567 57.5101L91.5767 55.8101" stroke="black" stroke-width="3" stroke-linecap="round" stroke-linejoin="round"/>
<path d="M54.2566 74.7798L67.9666 73.0698" stroke="black" stroke-width="3" stroke-linecap="round" stroke-linejoin="round"/>
<path d="M124.487 67.2498L138.207 65.5498" stroke="black" stroke-width="3" stroke-linecap="round" stroke-linejoin="round"/>
</svg>
